<svg width="130" height="30" viewBox="0 0 130 30" fill="none" xmlns="http://www.w3.org/2000/svg">
<path fill-rule="evenodd" clip-rule="evenodd" d="M17.1191 26.5499L17.1126 26.5446C15.3815 28.1793 13.0251 29.185 10.4287 29.185C5.11385 29.185 0.805342 24.9715 0.805342 19.774C0.805342 14.5764 5.11385 10.3629 10.4287 10.3629C11.0525 10.3629 11.6625 10.421 12.2533 10.5318C12.3212 10.5446 12.3887 10.558 12.4561 10.5721C12.4541 10.5049 12.4527 10.4374 12.452 10.3698C12.4517 10.3362 12.4516 10.3025 12.4516 10.2688C12.4516 5.0712 16.4584 0.857719 21.4012 0.857719C25.412 0.857719 28.8065 3.63197 29.9441 7.45514C29.9629 7.51823 29.9811 7.5816 29.9985 7.64525C29.9328 7.65948 29.8673 7.67422 29.802 7.68945C28.9136 7.8965 28.0615 8.19479 27.2564 8.57364C27.1945 8.6028 27.1329 8.63244 27.0714 8.66255C27.0549 8.5972 27.0375 8.53227 27.0191 8.46779C26.2894 5.91564 24.0495 4.0575 21.3994 4.0575C18.1573 4.0575 15.5291 6.83839 15.5291 10.2688C15.5291 10.8423 15.6026 11.3977 15.7401 11.925C17.0878 12.7989 18.1973 13.9959 18.9533 15.4029L16.4778 17.8716C16.4548 17.8015 16.4304 17.7318 16.405 17.6628C15.5214 15.2716 13.1797 13.5627 10.4299 13.5627C6.92207 13.5627 4.07844 16.3436 4.07844 19.7739C4.07844 23.2043 6.92207 25.9852 10.4299 25.9852C11.939 25.9852 13.3253 25.4705 14.4151 24.6107C14.4611 24.5743 14.5067 24.5372 14.5518 24.4996C14.5587 24.494 14.5654 24.4882 14.5722 24.4826L14.569 24.4795L25.9245 13.1392L25.9294 13.143C27.6727 11.426 30.0885 10.3629 32.7582 10.3629C38.073 10.3629 42.3814 14.5764 42.3814 19.774C42.3814 24.9715 38.073 29.185 32.7582 29.185C29.0644 29.185 25.8567 27.1499 24.2436 24.1636L26.7147 21.6867C26.7379 21.7569 26.7624 21.8266 26.7881 21.8956C27.6746 24.2812 30.0135 25.9853 32.7593 25.9853C36.2671 25.9853 39.1107 23.2044 39.1107 19.774C39.1107 16.3436 36.2671 13.5627 32.7593 13.5627C31.1923 13.5627 29.7577 14.1177 28.6501 15.0376C28.624 15.0593 28.5981 15.0812 28.5723 15.1033C28.5472 15.1249 28.5222 15.1466 28.4975 15.1686L28.4963 15.1697L28.5092 15.1797L25.0984 18.5846L23.1648 20.5226L23.1642 20.5154L17.1191 26.5499ZM22.9979 20.9632L17.1332 26.8176L17.1215 26.8081C15.3673 28.405 13.0145 29.3822 10.4287 29.3822C5.00252 29.3822 0.60376 25.0804 0.60376 19.774C0.60376 14.4675 5.00252 10.1658 10.4287 10.1658C11.0509 10.1658 11.6597 10.2224 12.2501 10.3306C12.25 10.31 12.25 10.2894 12.25 10.2688C12.25 4.97604 16.3335 0.660583 21.4012 0.660583C25.5803 0.660583 29.0923 3.59774 30.1932 7.59397L30.248 7.79312L30.0422 7.83772C29.0306 8.05686 28.065 8.39587 27.1618 8.83877L26.9362 8.94941L26.8757 8.70977C26.2259 6.13413 24.0118 4.25463 21.3994 4.25463C18.2834 4.25463 15.7307 6.93236 15.7307 10.2688C15.7307 10.7995 15.7954 11.3138 15.9169 11.8035C17.2632 12.6917 18.3721 13.8974 19.1317 15.3112L19.2 15.4383L16.3881 18.2428L16.286 17.932C15.4904 15.5113 13.1691 13.7598 10.4299 13.7598C7.0334 13.7598 4.28003 16.4524 4.28003 19.7739C4.28003 23.0955 7.0334 25.7881 10.4299 25.7881C11.9414 25.7881 13.3253 25.2551 14.3961 24.3703L25.9086 12.8732L25.9157 12.8789C27.6846 11.1998 30.0981 10.1658 32.7582 10.1658C38.1843 10.1658 42.583 14.4675 42.583 19.774C42.583 25.0804 38.1843 29.3822 32.7582 29.3822C28.9868 29.3822 25.712 27.304 24.0653 24.2556L23.9968 24.1287L26.8038 21.3152L26.9066 21.6262C27.7052 24.0416 30.024 25.7882 32.7593 25.7882C36.1558 25.7882 38.9092 23.0955 38.9092 19.774C38.9092 16.4525 36.1558 13.7598 32.7593 13.7598C31.2492 13.7598 29.8666 14.2919 28.7961 15.1751L25.2428 18.7222L22.9986 20.9715L22.9979 20.9632Z" fill="white"/>
<path d="M17.1332 26.8176L22.9979 20.9632L22.9986 20.9715L25.2428 18.7222L28.7961 15.1751C29.8666 14.2919 31.2492 13.7598 32.7593 13.7598C36.1558 13.7598 38.9092 16.4525 38.9092 19.774C38.9092 23.0955 36.1558 25.7882 32.7593 25.7882C30.024 25.7882 27.7052 24.0416 26.9066 21.6262L26.8038 21.3152L23.9968 24.1287L24.0653 24.2556C25.712 27.304 28.9868 29.3822 32.7582 29.3822C38.1843 29.3822 42.583 25.0804 42.583 19.774C42.583 14.4675 38.1843 10.1658 32.7582 10.1658C30.0981 10.1658 27.6846 11.1998 25.9157 12.8789L25.9086 12.8732L14.3961 24.3703C13.3253 25.2551 11.9414 25.7881 10.4299 25.7881C7.0334 25.7881 4.28003 23.0955 4.28003 19.7739C4.28003 16.4524 7.0334 13.7598 10.4299 13.7598C13.1691 13.7598 15.4904 15.5113 16.286 17.932L16.3881 18.2428L19.2 15.4383L19.1317 15.3112C18.3721 13.8974 17.2632 12.6917 15.9169 11.8035C15.7954 11.3138 15.7307 10.7995 15.7307 10.2688C15.7307 6.93236 18.2834 4.25463 21.3994 4.25463C24.0118 4.25463 26.2259 6.13413 26.8757 8.70977L26.9362 8.94941L27.1618 8.83877C28.065 8.39587 29.0306 8.05686 30.0422 7.83772L30.248 7.79312L30.1932 7.59397C29.0923 3.59774 25.5803 0.660583 21.4012 0.660583C16.3335 0.660583 12.25 4.97604 12.25 10.2688L12.2501 10.3306C11.6597 10.2224 11.0509 10.1658 10.4287 10.1658C5.00252 10.1658 0.60376 14.4675 0.60376 19.774C0.60376 25.0804 5.00252 29.3822 10.4287 29.3822C13.0145 29.3822 15.3673 28.405 17.1215 26.8081L17.1332 26.8176Z" fill="white"/>
<g clip-path="url(#clip0_1258_339)">
<path fill-rule="evenodd" clip-rule="evenodd" d="M101.144 3.97305C100.763 2.91263 101.544 1.79489 102.668 1.79489H108.85C109.536 1.79489 110.145 2.22479 110.374 2.86487L115.508 17.1185C115.632 17.4719 115.632 17.8636 115.508 18.2267L112.422 26.796C111.908 28.229 109.888 28.229 109.374 26.796L101.144 3.97305ZM87.4365 4.02086C87.0174 2.95089 87.7984 1.79493 88.9415 1.79493H96.0379C96.7046 1.79493 97.2952 2.19617 97.5429 2.81714L103.191 17.0707C103.344 17.4529 103.344 17.8828 103.191 18.2745L99.6385 27.2259C99.0955 28.5921 97.1714 28.5921 96.6284 27.2259L87.4365 4.02086ZM115.022 1.79489C113.879 1.79489 113.098 2.95085 113.517 4.02082L122.709 27.2259C123.252 28.592 125.176 28.592 125.719 27.2259L129.272 18.2744C129.425 17.8827 129.425 17.4528 129.272 17.0707L123.624 2.8171C123.376 2.19613 122.786 1.79489 122.119 1.79489H115.022Z" fill="white"/>
</g>
<path fill-rule="evenodd" clip-rule="evenodd" d="M71.5005 21.4457L72.9683 19.9779L68.0116 15.0212L72.9679 10.0648L71.5002 8.59707L66.5438 13.5534L61.5855 8.59518L60.1178 10.0629L65.076 15.0212L60.1174 19.9798L61.5852 21.4476L66.5438 16.489L71.5005 21.4457Z" fill="white"/>
<defs>
<clipPath id="clip0_1258_339">
<rect width="42.0526" height="26.4556" fill="white" transform="translate(87.3223 1.79422)"/>
</clipPath>
</defs>
</svg>
