<svg width="28" height="29" viewBox="0 0 28 29" fill="none" xmlns="http://www.w3.org/2000/svg">
<g clip-path="url(#clip0_91_73)">
<path d="M1.81522 11.3127C1.9202 10.2928 2.77943 9.5175 3.80471 9.5175H24.1953C25.2206 9.5175 26.0798 10.2928 26.1848 11.3127L27.7731 26.7442C27.8945 27.9235 26.9691 28.949 25.7836 28.949H2.21642C1.03086 28.949 0.105545 27.9235 0.226928 26.7442L1.81522 11.3127Z" fill="url(#paint0_linear_91_73)"/>
<path d="M8.28162 14.0141V8.65389C8.28162 5.49573 10.8418 2.93553 14 2.93553V2.93553C17.1581 2.93553 19.7183 5.49573 19.7183 8.65389V14.0141" stroke="url(#paint1_linear_91_73)" stroke-width="3.5"/>
</g>
<defs>
<linearGradient id="paint0_linear_91_73" x1="24.3635" y1="7.26274" x2="1.103" y2="34.8893" gradientUnits="userSpaceOnUse">
<stop stop-color="#00A876"/>
<stop offset="1" stop-color="#75FFD6"/>
</linearGradient>
<linearGradient id="paint1_linear_91_73" x1="17.8544" y1="17.1627" x2="10.2402" y2="-7.11144" gradientUnits="userSpaceOnUse">
<stop stop-color="#024B64"/>
<stop offset="1" stop-color="#01A5E8"/>
</linearGradient>
<clipPath id="clip0_91_73">
<rect width="28" height="28" fill="white" transform="translate(0 0.948959)"/>
</clipPath>
</defs>
</svg>
