<svg width="28" height="29" viewBox="0 0 28 29" fill="none" xmlns="http://www.w3.org/2000/svg">
<g clip-path="url(#clip0_97_85)">
<g clip-path="url(#clip1_97_85)">
<path d="M8.77169 17.7267C7.96455 18.2758 6.85106 18.2868 6.16892 17.5884V17.5884C5.49804 16.9015 5.49737 15.7907 6.26049 15.2081C7.13144 14.543 8.07795 13.9997 9.1 13.5781C10.6556 12.9365 12.2889 12.6156 14 12.6156C15.7111 12.6156 17.3495 12.9415 18.9152 13.5933C19.9484 14.0234 20.8987 14.5782 21.7663 15.2576C22.517 15.8455 22.5008 16.9482 21.8266 17.6224V17.6224C21.1445 18.3044 20.0468 18.287 19.2511 17.7419C18.7275 17.3833 18.1679 17.0792 17.5723 16.8296C16.4344 16.3529 15.2437 16.1149 14 16.1156C12.7556 16.1156 11.5644 16.354 10.4265 16.8308C9.83986 17.0766 9.28825 17.3752 8.77169 17.7267ZM3.74291 12.7335C2.99564 13.3389 1.89869 13.3477 1.21862 12.6676V12.6676C0.543551 11.9925 0.532741 10.8927 1.25746 10.2712C2.79766 8.95046 4.51273 7.89909 6.40267 7.11713C8.82389 6.11535 11.3563 5.61485 14 5.61563C16.6444 5.61563 19.1773 6.11652 21.5985 7.1183C23.4882 7.90018 25.2029 8.95117 26.7425 10.2713C27.4673 10.8927 27.4564 11.9925 26.7814 12.6676V12.6676C26.1013 13.3477 25.0044 13.3389 24.2571 12.7334C23.0453 11.7513 21.7114 10.9584 20.2557 10.3546C18.2622 9.52785 16.177 9.11485 14 9.11563C11.8222 9.11563 9.73661 9.52902 7.74317 10.3558C6.28763 10.9595 4.95421 11.752 3.74291 12.7335ZM15.4192 24.0197C14.637 24.8074 13.363 24.8074 12.5808 24.0197L11.2917 22.7215C10.5154 21.9397 10.5119 20.6344 11.5097 20.1671C11.595 20.1272 11.6815 20.0892 11.7693 20.0531C12.4794 19.7615 13.223 19.6156 14 19.6156C14.7778 19.6156 15.5217 19.7615 16.2318 20.0531C16.3198 20.0893 16.4065 20.1273 16.4919 20.1673C17.4892 20.6345 17.4852 21.939 16.7093 22.7205L15.4192 24.0197Z" fill="url(#paint0_linear_97_85)"/>
</g>
</g>
<defs>
<linearGradient id="paint0_linear_97_85" x1="27.9998" y1="3.54324" x2="9.78852" y2="31.3783" gradientUnits="userSpaceOnUse">
<stop stop-color="#5E2AF0"/>
<stop offset="1" stop-color="#9786DF"/>
</linearGradient>
<clipPath id="clip0_97_85">
<rect width="28" height="28" fill="white" transform="translate(0 0.948959)"/>
</clipPath>
<clipPath id="clip1_97_85">
<rect width="28" height="28" fill="white" transform="translate(0 0.948959)"/>
</clipPath>
</defs>
</svg>
