<svg xmlns="http://www.w3.org/2000/svg" width="32" height="32" fill="none" viewBox="0 0 32 32"><circle cx="16" cy="16" r="16" fill="url(#paint0_linear_2105_3919)"/><circle cx="16" cy="16" r="16" fill="url(#paint1_linear_2105_3919)"/><path fill="url(#paint2_linear_2105_3919)" d="M15.9986 6L16.105 6.007L16.1581 6.015L16.2131 6.028L16.3131 6.062C16.3822 6.09026 16.4479 6.12788 16.5087 6.174L16.6024 6.256L16.8322 6.474C18.6501 8.14956 20.9476 9.0493 23.3106 9.011L23.6188 9.001C23.8202 8.9908 24.019 9.0559 24.1832 9.1859C24.3474 9.31589 24.4675 9.50325 24.5244 9.718C24.9672 11.3896 25.1027 13.1429 24.9229 14.8737C24.743 16.6046 24.2515 18.2776 23.4774 19.7935C22.7034 21.3093 21.6626 22.6371 20.417 23.6978C19.1714 24.7585 17.7464 25.5305 16.2266 25.968C16.0783 26.0107 15.9226 26.0107 15.7742 25.968C14.2544 25.5306 12.8292 24.7587 11.5835 23.698C10.3379 22.6373 9.29701 21.3096 8.52287 19.7938C7.74873 18.2779 7.25709 16.6048 7.07717 14.8739C6.89725 13.143 7.03272 11.3896 7.47553 9.718C7.5324 9.50325 7.65255 9.31589 7.81674 9.1859C7.98094 9.0559 8.17969 8.9908 8.38118 9.001C10.8481 9.12613 13.2682 8.22499 15.1678 6.474L15.4048 6.249L15.4913 6.174C15.5521 6.12788 15.6177 6.09026 15.6868 6.062L15.7877 6.028C15.8231 6.01853 15.8589 6.01152 15.895 6.007L15.9986 6ZM16.0004 13C15.5457 12.9998 15.1078 13.1904 14.7744 13.5335C14.441 13.8766 14.2367 14.3468 14.2026 14.85L14.1981 15L14.2026 15.15C14.2248 15.4746 14.3181 15.7883 14.4744 16.0638C14.6306 16.3393 14.8451 16.5683 15.0993 16.731V18.5L15.1056 18.617C15.1327 18.8701 15.2459 19.1021 15.422 19.2657C15.5982 19.4293 15.8239 19.5121 16.0532 19.4972C16.2825 19.4822 16.498 19.3707 16.6557 19.1854C16.8134 19 16.9013 18.7549 16.9016 18.5L16.9025 16.732C17.2461 16.5118 17.5147 16.1719 17.6665 15.7651C17.8183 15.3582 17.8448 14.9072 17.742 14.4819C17.6392 14.0566 17.4128 13.6808 17.0979 13.4129C16.783 13.1449 16.3972 12.9998 16.0004 13Z"/><circle cx="16" cy="15" r="3" fill="#7F38DB"/><rect width="2" height="6" x="15" y="17" fill="#7F38DB" rx="1"/><defs><linearGradient id="paint0_linear_2105_3919" x1="15" x2="15" y1="0" y2="35.5" gradientUnits="userSpaceOnUse"><stop stop-color="#D311AA"/><stop offset="1" stop-color="#8409B7"/></linearGradient><linearGradient id="paint1_linear_2105_3919" x1="17" x2="20.134" y1="0" y2="31.69" gradientUnits="userSpaceOnUse"><stop stop-color="#8358BA"/><stop offset="1" stop-color="#7B1CF7"/></linearGradient><linearGradient id="paint2_linear_2105_3919" x1="16" x2="16" y1="6" y2="26" gradientUnits="userSpaceOnUse"><stop stop-color="#fff"/><stop offset="1" stop-color="#E1D8FB"/></linearGradient></defs></svg>