<svg width="24" height="19" viewBox="0 0 24 19" fill="none" xmlns="http://www.w3.org/2000/svg">
<path d="M20.317 2.09415C18.7873 1.40352 17.147 0.894699 15.4319 0.603273C15.4007 0.597649 15.3695 0.611705 15.3534 0.639817C15.1424 1.00902 14.9087 1.49067 14.7451 1.86924C12.9004 1.5975 11.0652 1.5975 9.25832 1.86924C9.09465 1.48225 8.85248 1.00902 8.64057 0.639817C8.62449 0.612643 8.59328 0.598587 8.56205 0.603273C6.84791 0.893767 5.20756 1.40259 3.67693 2.09415C3.66368 2.09977 3.65233 2.10915 3.64479 2.12133C0.533392 6.69516 -0.31895 11.1566 0.0991801 15.5627C0.101072 15.5842 0.11337 15.6049 0.130398 15.618C2.18321 17.1013 4.17171 18.0019 6.12328 18.5988C6.15451 18.6081 6.18761 18.5969 6.20748 18.5716C6.66913 17.9513 7.08064 17.2972 7.43348 16.6094C7.4543 16.5691 7.43442 16.5213 7.39186 16.5054C6.73913 16.2617 6.1176 15.9647 5.51973 15.6273C5.47244 15.6002 5.46865 15.5336 5.51216 15.5017C5.63797 15.409 5.76382 15.3125 5.88396 15.215C5.90569 15.1972 5.93598 15.1935 5.96153 15.2047C9.88928 16.9692 14.1415 16.9692 18.023 15.2047C18.0485 15.1925 18.0788 15.1963 18.1015 15.2141C18.2216 15.3115 18.3475 15.409 18.4742 15.5017C18.5177 15.5336 18.5149 15.6002 18.4676 15.6273C17.8697 15.9712 17.2482 16.2617 16.5945 16.5044C16.552 16.5204 16.533 16.5691 16.5538 16.6094C16.9143 17.2962 17.3258 17.9503 17.7789 18.5707C17.7978 18.5969 17.8319 18.6081 17.8631 18.5988C19.8241 18.0019 21.8126 17.1013 23.8654 15.618C23.8834 15.6049 23.8948 15.5852 23.8967 15.5636C24.3971 10.4697 23.0585 6.04485 20.3482 2.12226C20.3416 2.10915 20.3303 2.09977 20.317 2.09415ZM8.02002 12.8798C6.8375 12.8798 5.86313 11.8116 5.86313 10.4997C5.86313 9.18777 6.8186 8.11953 8.02002 8.11953C9.23087 8.11953 10.1958 9.19715 10.1769 10.4997C10.1769 11.8116 9.22141 12.8798 8.02002 12.8798ZM15.9947 12.8798C14.8123 12.8798 13.8379 11.8116 13.8379 10.4997C13.8379 9.18777 14.7933 8.11953 15.9947 8.11953C17.2056 8.11953 18.1705 9.19715 18.1516 10.4997C18.1516 11.8116 17.2056 12.8798 15.9947 12.8798Z" fill="white"/>
</svg>
