<svg width="24" height="24" viewBox="0 0 24 24" fill="none" xmlns="http://www.w3.org/2000/svg">
<g clip-path="url(#clip0_101_829)">
<path d="M24 12.0735C24 5.4045 18.627 -0.00149536 12 -0.00149536C5.37001 4.63868e-06 -0.00299072 5.40451 -0.00299072 12.075C-0.00299072 18.1005 4.38601 23.0955 10.122 24.0015V15.564H7.07701V12.075H10.125V9.4125C10.125 6.387 11.9175 4.716 14.658 4.716C15.972 4.716 17.3445 4.9515 17.3445 4.9515V7.9215H15.831C14.3415 7.9215 13.8765 8.853 13.8765 9.8085V12.0735H17.2035L16.6725 15.5625H13.875V24C19.611 23.094 24 18.099 24 12.0735Z" fill="white"/>
</g>
<defs>
<clipPath id="clip0_101_829">
<rect width="24" height="24" fill="white"/>
</clipPath>
</defs>
</svg>
