<svg width="18" height="19" viewBox="0 0 18 19" fill="none" xmlns="http://www.w3.org/2000/svg">
<path d="M9 0.602051C4.02991 0.602051 0 4.73642 0 9.83107C0 13.9092 2.57946 17.3645 6.15536 18.586C6.20551 18.5969 6.25671 18.6023 6.30804 18.602C6.64152 18.602 6.77009 18.357 6.77009 18.144C6.77009 17.923 6.76205 17.3445 6.75804 16.573C6.46033 16.6428 6.15577 16.6792 5.85 16.6815C4.1183 16.6815 3.72455 15.3355 3.72455 15.3355C3.31473 14.2708 2.72411 13.9855 2.72411 13.9855C1.94063 13.4351 2.72009 13.419 2.78036 13.419H2.78438C3.68839 13.4994 4.1625 14.3753 4.1625 14.3753C4.6125 15.1628 5.21518 15.3837 5.75357 15.3837C6.10957 15.3766 6.46006 15.2945 6.78214 15.1427C6.8625 14.548 7.09554 14.1422 7.35268 13.9092C5.3558 13.6762 3.25446 12.8846 3.25446 9.34892C3.25446 8.34044 3.60402 7.51678 4.17857 6.87392C4.08616 6.64089 3.77679 5.70071 4.26696 4.43107C4.33271 4.41533 4.40029 4.40858 4.46786 4.41098C4.7933 4.41098 5.52857 4.53553 6.74196 5.37928C8.21633 4.96677 9.77563 4.96677 11.25 5.37928C12.4634 4.53553 13.1987 4.41098 13.5241 4.41098C13.5917 4.40858 13.6593 4.41533 13.725 4.43107C14.2152 5.70071 13.9058 6.64089 13.8134 6.87392C14.3879 7.5208 14.7375 8.34446 14.7375 9.34892C14.7375 12.8927 12.6321 13.6721 10.6272 13.9012C10.9487 14.1864 11.2379 14.7489 11.2379 15.6087C11.2379 16.8422 11.2259 17.8386 11.2259 18.14C11.2259 18.357 11.3504 18.602 11.6839 18.602C11.7379 18.6023 11.7918 18.5969 11.8446 18.586C15.4246 17.3645 18 13.9052 18 9.83107C18 4.73642 13.9701 0.602051 9 0.602051Z" fill="white"/>
</svg>
