<svg width="24" height="24" viewBox="0 0 24 24" fill="none" xmlns="http://www.w3.org/2000/svg">
<path d="M7.539 22.5C16.596 22.5 21.5505 14.9955 21.5505 8.499C21.5505 8.289 21.5505 8.076 21.5415 7.866C22.5061 7.16773 23.3386 6.30323 24 5.313C23.099 5.71028 22.1441 5.97211 21.1665 6.09C22.1963 5.47446 22.9676 4.50595 23.337 3.3645C22.3695 3.93769 21.3105 4.34006 20.2065 4.554C19.4643 3.76354 18.4821 3.23988 17.4121 3.06414C16.3421 2.8884 15.2441 3.07038 14.288 3.58191C13.3319 4.09343 12.5712 4.90595 12.1237 5.89359C11.6761 6.88124 11.5668 7.9889 11.8125 9.045C9.85461 8.94683 7.93922 8.4382 6.19056 7.55212C4.4419 6.66603 2.89903 5.42227 1.662 3.9015C1.03401 4.98613 0.842361 6.2691 1.12597 7.4899C1.40958 8.7107 2.14718 9.7778 3.189 10.4745C2.40831 10.448 1.64478 10.2383 0.96 9.8625V9.93C0.961346 11.0662 1.35496 12.1671 2.07431 13.0466C2.79366 13.9262 3.79462 14.5303 4.908 14.757C4.48539 14.8734 4.04884 14.9315 3.6105 14.9295C3.30148 14.9304 2.99307 14.9018 2.6895 14.844C3.00418 15.8221 3.61691 16.6773 4.44187 17.2897C5.26683 17.9022 6.2627 18.2413 7.29 18.2595C5.54483 19.6302 3.3891 20.3736 1.17 20.37C0.778981 20.3717 0.388235 20.3491 0 20.3025C2.25227 21.7384 4.86795 22.5008 7.539 22.5Z" fill="white"/>
</svg>
