<svg width="2400" height="740" viewBox="0 0 2400 740" fill="none" xmlns="http://www.w3.org/2000/svg">
<path d="M1654.62 302.5L1634.62 290.953L1634.62 314.047L1654.62 302.5ZM744.655 304.5L1636.62 304.5L1636.62 300.5L744.655 300.5L744.655 304.5Z" fill="#777777"/>
<path d="M946.922 259V233.545H955.995C957.967 233.545 959.604 233.885 960.905 234.565C962.214 235.244 963.192 236.185 963.838 237.386C964.484 238.579 964.807 239.959 964.807 241.525C964.807 243.083 964.48 244.454 963.825 245.639C963.179 246.815 962.201 247.731 960.892 248.386C959.591 249.04 957.955 249.368 955.983 249.368H949.109V246.061H955.635C956.878 246.061 957.888 245.883 958.667 245.527C959.455 245.171 960.03 244.653 960.395 243.973C960.76 243.294 960.942 242.478 960.942 241.525C960.942 240.564 960.755 239.731 960.383 239.027C960.018 238.322 959.442 237.784 958.655 237.411C957.876 237.03 956.853 236.839 955.585 236.839H950.763V259H946.922ZM959.488 247.516L965.777 259H961.402L955.237 247.516H959.488ZM977.171 259.385C975.29 259.385 973.67 258.983 972.311 258.18C970.961 257.368 969.917 256.228 969.179 254.762C968.45 253.287 968.085 251.559 968.085 249.579C968.085 247.623 968.45 245.9 969.179 244.408C969.917 242.917 970.944 241.753 972.262 240.916C973.587 240.079 975.137 239.661 976.91 239.661C977.987 239.661 979.031 239.839 980.042 240.195C981.053 240.551 981.96 241.111 982.764 241.873C983.568 242.635 984.202 243.625 984.666 244.843C985.13 246.053 985.362 247.524 985.362 249.256V250.573H970.186V247.789H981.72C981.72 246.811 981.521 245.945 981.123 245.191C980.726 244.429 980.166 243.828 979.446 243.389C978.733 242.95 977.896 242.73 976.935 242.73C975.891 242.73 974.979 242.987 974.2 243.501C973.43 244.007 972.833 244.669 972.411 245.49C971.996 246.302 971.789 247.184 971.789 248.137V250.312C971.789 251.588 972.013 252.674 972.46 253.569C972.916 254.463 973.55 255.147 974.362 255.619C975.174 256.083 976.123 256.315 977.208 256.315C977.913 256.315 978.555 256.216 979.135 256.017C979.715 255.81 980.216 255.503 980.639 255.097C981.061 254.691 981.384 254.19 981.608 253.593L985.126 254.227C984.844 255.263 984.338 256.17 983.609 256.949C982.888 257.72 981.981 258.321 980.887 258.751C979.802 259.174 978.563 259.385 977.171 259.385ZM1002.37 266.159V256.029H1002.15C1001.93 256.435 1001.6 256.9 1001.18 257.422C1000.77 257.944 1000.19 258.399 999.465 258.789C998.736 259.178 997.792 259.373 996.632 259.373C995.09 259.373 993.715 258.979 992.505 258.192C991.304 257.397 990.359 256.266 989.671 254.799C988.992 253.324 988.652 251.555 988.652 249.492C988.652 247.429 988.996 245.664 989.684 244.197C990.38 242.73 991.333 241.608 992.543 240.829C993.752 240.05 995.124 239.661 996.657 239.661C997.841 239.661 998.794 239.859 999.515 240.257C1000.24 240.647 1000.81 241.102 1001.21 241.624C1001.61 242.146 1001.93 242.606 1002.15 243.004H1002.46V239.909L1006.09 239.909V266.159H1002.37ZM997.452 256.203C998.521 256.203 999.424 255.922 1000.16 255.358C1000.91 254.787 1001.47 253.995 1001.85 252.984C1002.24 251.973 1002.44 250.797 1002.44 249.455C1002.44 248.129 1002.25 246.969 1001.86 245.974C1001.48 244.98 1000.92 244.205 1000.19 243.65C999.449 243.095 998.537 242.817 997.452 242.817C996.333 242.817 995.401 243.107 994.655 243.688C993.91 244.268 993.346 245.059 992.965 246.061C992.592 247.064 992.406 248.195 992.406 249.455C992.406 250.731 992.596 251.878 992.978 252.897C993.359 253.917 993.922 254.724 994.668 255.321C995.422 255.909 996.35 256.203 997.452 256.203ZM1023.18 251.083V239.909H1026.91V259H1023.25V255.694H1023.06C1022.62 256.713 1021.91 257.562 1020.94 258.242C1019.98 258.913 1018.78 259.249 1017.35 259.249C1016.12 259.249 1015.04 258.979 1014.09 258.441C1013.16 257.894 1012.42 257.086 1011.88 256.017C1011.35 254.948 1011.09 253.627 1011.09 252.052V239.909H1014.8V251.605C1014.8 252.906 1015.16 253.941 1015.88 254.712C1016.61 255.483 1017.54 255.868 1018.69 255.868C1019.39 255.868 1020.08 255.694 1020.77 255.346C1021.46 254.998 1022.04 254.472 1022.5 253.767C1022.96 253.063 1023.19 252.168 1023.18 251.083ZM1040.13 259.385C1038.25 259.385 1036.63 258.983 1035.27 258.18C1033.92 257.368 1032.88 256.228 1032.14 254.762C1031.41 253.287 1031.04 251.559 1031.04 249.579C1031.04 247.623 1031.41 245.9 1032.14 244.408C1032.88 242.917 1033.9 241.753 1035.22 240.916C1036.55 240.079 1038.1 239.661 1039.87 239.661C1040.95 239.661 1041.99 239.839 1043 240.195C1044.01 240.551 1044.92 241.111 1045.72 241.873C1046.53 242.635 1047.16 243.625 1047.62 244.843C1048.09 246.053 1048.32 247.524 1048.32 249.256V250.573H1033.14V247.789H1044.68C1044.68 246.811 1044.48 245.945 1044.08 245.191C1043.68 244.429 1043.13 243.828 1042.4 243.389C1041.69 242.95 1040.86 242.73 1039.89 242.73C1038.85 242.73 1037.94 242.987 1037.16 243.501C1036.39 244.007 1035.79 244.669 1035.37 245.49C1034.96 246.302 1034.75 247.184 1034.75 248.137V250.312C1034.75 251.588 1034.97 252.674 1035.42 253.569C1035.88 254.463 1036.51 255.147 1037.32 255.619C1038.13 256.083 1039.08 256.315 1040.17 256.315C1040.87 256.315 1041.51 256.216 1042.09 256.017C1042.67 255.81 1043.18 255.503 1043.6 255.097C1044.02 254.691 1044.34 254.19 1044.57 253.593L1048.08 254.227C1047.8 255.263 1047.3 256.17 1046.57 256.949C1045.85 257.72 1044.94 258.321 1043.85 258.751C1042.76 259.174 1041.52 259.385 1040.13 259.385ZM1066.75 244.57L1063.38 245.167C1063.24 244.736 1063.02 244.326 1062.71 243.936C1062.41 243.547 1062.01 243.228 1061.49 242.979C1060.98 242.73 1060.34 242.606 1059.57 242.606C1058.51 242.606 1057.64 242.842 1056.93 243.315C1056.23 243.779 1055.87 244.379 1055.87 245.117C1055.87 245.755 1056.11 246.269 1056.58 246.658C1057.06 247.047 1057.82 247.366 1058.87 247.615L1061.9 248.311C1063.66 248.717 1064.97 249.343 1065.83 250.188C1066.69 251.033 1067.12 252.131 1067.12 253.482C1067.12 254.625 1066.79 255.644 1066.13 256.539C1065.47 257.426 1064.56 258.122 1063.38 258.627C1062.21 259.133 1060.86 259.385 1059.32 259.385C1057.18 259.385 1055.44 258.93 1054.08 258.018C1052.73 257.098 1051.91 255.793 1051.6 254.103L1055.19 253.556C1055.41 254.492 1055.87 255.201 1056.57 255.681C1057.27 256.154 1058.17 256.39 1059.29 256.39C1060.51 256.39 1061.48 256.137 1062.21 255.632C1062.94 255.118 1063.31 254.492 1063.31 253.755C1063.31 253.158 1063.08 252.657 1062.64 252.251C1062.2 251.845 1061.52 251.538 1060.61 251.331L1057.38 250.623C1055.6 250.217 1054.28 249.571 1053.43 248.684C1052.58 247.797 1052.16 246.675 1052.16 245.316C1052.16 244.189 1052.47 243.203 1053.1 242.358C1053.73 241.512 1054.6 240.854 1055.71 240.381C1056.82 239.901 1058.1 239.661 1059.53 239.661C1061.59 239.661 1063.22 240.108 1064.4 241.003C1065.59 241.889 1066.37 243.078 1066.75 244.57ZM1080.12 239.909V242.892H1069.69V239.909H1080.12ZM1072.49 235.335H1076.21V253.395C1076.21 254.115 1076.31 254.658 1076.53 255.023C1076.74 255.379 1077.02 255.623 1077.36 255.756C1077.71 255.88 1078.09 255.942 1078.49 255.942C1078.79 255.942 1079.05 255.922 1079.28 255.88C1079.5 255.839 1079.67 255.806 1079.8 255.781L1080.47 258.851C1080.25 258.934 1079.95 259.017 1079.55 259.099C1079.15 259.191 1078.65 259.24 1078.06 259.249C1077.08 259.265 1076.17 259.091 1075.32 258.727C1074.48 258.362 1073.79 257.799 1073.27 257.036C1072.75 256.274 1072.49 255.317 1072.49 254.165V235.335ZM1092.25 259.385C1090.37 259.385 1088.75 258.983 1087.39 258.18C1086.04 257.368 1085 256.228 1084.26 254.762C1083.53 253.287 1083.17 251.559 1083.17 249.579C1083.17 247.623 1083.53 245.9 1084.26 244.408C1085 242.917 1086.03 241.753 1087.34 240.916C1088.67 240.079 1090.22 239.661 1091.99 239.661C1093.07 239.661 1094.11 239.839 1095.13 240.195C1096.14 240.551 1097.04 241.111 1097.85 241.873C1098.65 242.635 1099.28 243.625 1099.75 244.843C1100.21 246.053 1100.44 247.524 1100.44 249.256V250.573H1085.27V247.789H1096.8C1096.8 246.811 1096.6 245.945 1096.21 245.191C1095.81 244.429 1095.25 243.828 1094.53 243.389C1093.82 242.95 1092.98 242.73 1092.02 242.73C1090.97 242.73 1090.06 242.987 1089.28 243.501C1088.51 244.007 1087.92 244.669 1087.49 245.49C1087.08 246.302 1086.87 247.184 1086.87 248.137V250.312C1086.87 251.588 1087.1 252.674 1087.54 253.569C1088 254.463 1088.63 255.147 1089.45 255.619C1090.26 256.083 1091.21 256.315 1092.29 256.315C1093 256.315 1093.64 256.216 1094.22 256.017C1094.8 255.81 1095.3 255.503 1095.72 255.097C1096.14 254.691 1096.47 254.19 1096.69 253.593L1100.21 254.227C1099.93 255.263 1099.42 256.17 1098.69 256.949C1097.97 257.72 1097.06 258.321 1095.97 258.751C1094.88 259.174 1093.65 259.385 1092.25 259.385ZM1111.71 259.373C1110.17 259.373 1108.8 258.979 1107.59 258.192C1106.39 257.397 1105.44 256.266 1104.75 254.799C1104.08 253.324 1103.74 251.555 1103.74 249.492C1103.74 247.429 1104.08 245.664 1104.77 244.197C1105.46 242.73 1106.42 241.608 1107.63 240.829C1108.84 240.05 1110.21 239.661 1111.74 239.661C1112.92 239.661 1113.88 239.859 1114.6 240.257C1115.33 240.647 1115.89 241.102 1116.29 241.624C1116.69 242.146 1117.01 242.606 1117.23 243.004H1117.46V233.545H1121.17V259H1117.54V256.029H1117.23C1117.01 256.435 1116.69 256.9 1116.26 257.422C1115.85 257.944 1115.28 258.399 1114.55 258.789C1113.82 259.178 1112.87 259.373 1111.71 259.373ZM1112.53 256.203C1113.6 256.203 1114.51 255.922 1115.24 255.358C1115.99 254.787 1116.55 253.995 1116.93 252.984C1117.32 251.973 1117.52 250.797 1117.52 249.455C1117.52 248.129 1117.33 246.969 1116.95 245.974C1116.57 244.98 1116.01 244.205 1115.27 243.65C1114.53 243.095 1113.62 242.817 1112.53 242.817C1111.42 242.817 1110.48 243.107 1109.74 243.688C1108.99 244.268 1108.43 245.059 1108.05 246.061C1107.68 247.064 1107.49 248.195 1107.49 249.455C1107.49 250.731 1107.68 251.878 1108.06 252.897C1108.44 253.917 1109.01 254.724 1109.75 255.321C1110.5 255.909 1111.43 256.203 1112.53 256.203ZM1135.74 266.159V239.909H1139.37V243.004H1139.68C1139.9 242.606 1140.21 242.146 1140.61 241.624C1141.02 241.102 1141.58 240.647 1142.3 240.257C1143.02 239.859 1143.98 239.661 1145.16 239.661C1146.7 239.661 1148.08 240.05 1149.29 240.829C1150.5 241.608 1151.45 242.73 1152.13 244.197C1152.83 245.664 1153.18 247.429 1153.18 249.492C1153.18 251.555 1152.83 253.324 1152.15 254.799C1151.46 256.266 1150.51 257.397 1149.31 258.192C1148.11 258.979 1146.74 259.373 1145.2 259.373C1144.04 259.373 1143.09 259.178 1142.35 258.789C1141.62 258.399 1141.05 257.944 1140.64 257.422C1140.22 256.9 1139.9 256.435 1139.68 256.029H1139.46V266.159H1135.74ZM1139.38 249.455C1139.38 250.797 1139.58 251.973 1139.97 252.984C1140.36 253.995 1140.92 254.787 1141.66 255.358C1142.39 255.922 1143.3 256.203 1144.37 256.203C1145.48 256.203 1146.4 255.909 1147.15 255.321C1147.9 254.724 1148.46 253.917 1148.84 252.897C1149.23 251.878 1149.42 250.731 1149.42 249.455C1149.42 248.195 1149.23 247.064 1148.85 246.061C1148.48 245.059 1147.92 244.268 1147.16 243.688C1146.42 243.107 1145.48 242.817 1144.37 242.817C1143.29 242.817 1142.38 243.095 1141.63 243.65C1140.89 244.205 1140.33 244.98 1139.95 245.974C1139.57 246.969 1139.38 248.129 1139.38 249.455ZM1157.34 259V239.909H1160.93V242.942H1161.13C1161.48 241.914 1162.09 241.106 1162.97 240.518C1163.86 239.922 1164.86 239.623 1165.98 239.623C1166.21 239.623 1166.49 239.632 1166.8 239.648C1167.12 239.665 1167.38 239.685 1167.56 239.71V243.265C1167.41 243.223 1167.14 243.178 1166.76 243.128C1166.38 243.07 1166 243.041 1165.62 243.041C1164.74 243.041 1163.96 243.228 1163.27 243.6C1162.59 243.965 1162.05 244.475 1161.65 245.129C1161.26 245.776 1161.06 246.513 1161.06 247.342V259H1157.34ZM1178.13 259.385C1176.34 259.385 1174.78 258.975 1173.45 258.155C1172.11 257.335 1171.08 256.187 1170.34 254.712C1169.6 253.237 1169.23 251.514 1169.23 249.542C1169.23 247.561 1169.6 245.829 1170.34 244.346C1171.08 242.863 1172.11 241.711 1173.45 240.891C1174.78 240.071 1176.34 239.661 1178.13 239.661C1179.92 239.661 1181.48 240.071 1182.82 240.891C1184.15 241.711 1185.19 242.863 1185.92 244.346C1186.66 245.829 1187.03 247.561 1187.03 249.542C1187.03 251.514 1186.66 253.237 1185.92 254.712C1185.19 256.187 1184.15 257.335 1182.82 258.155C1181.48 258.975 1179.92 259.385 1178.13 259.385ZM1178.14 256.266C1179.3 256.266 1180.27 255.959 1181.03 255.346C1181.79 254.733 1182.35 253.917 1182.72 252.897C1183.09 251.878 1183.28 250.755 1183.28 249.529C1183.28 248.311 1183.09 247.192 1182.72 246.173C1182.35 245.146 1181.79 244.321 1181.03 243.7C1180.27 243.078 1179.3 242.768 1178.14 242.768C1176.98 242.768 1176.01 243.078 1175.24 243.7C1174.47 244.321 1173.91 245.146 1173.53 246.173C1173.17 247.192 1172.99 248.311 1172.99 249.529C1172.99 250.755 1173.17 251.878 1173.53 252.897C1173.91 253.917 1174.47 254.733 1175.24 255.346C1176.01 255.959 1176.98 256.266 1178.14 256.266ZM1200.09 239.909V242.892L1189.66 242.892V239.909L1200.09 239.909ZM1192.46 235.335H1196.18V253.395C1196.18 254.115 1196.28 254.658 1196.5 255.023C1196.71 255.379 1196.99 255.623 1197.33 255.756C1197.68 255.88 1198.06 255.942 1198.46 255.942C1198.76 255.942 1199.02 255.922 1199.25 255.88C1199.47 255.839 1199.64 255.806 1199.77 255.781L1200.44 258.851C1200.22 258.934 1199.92 259.017 1199.52 259.099C1199.12 259.191 1198.62 259.24 1198.03 259.249C1197.05 259.265 1196.14 259.091 1195.29 258.727C1194.45 258.362 1193.76 257.799 1193.24 257.036C1192.72 256.274 1192.46 255.317 1192.46 254.165V235.335ZM1212.22 259.385C1210.34 259.385 1208.72 258.983 1207.36 258.18C1206.01 257.368 1204.97 256.228 1204.23 254.762C1203.5 253.287 1203.14 251.559 1203.14 249.579C1203.14 247.623 1203.5 245.9 1204.23 244.408C1204.97 242.917 1206 241.753 1207.32 240.916C1208.64 240.079 1210.19 239.661 1211.96 239.661C1213.04 239.661 1214.08 239.839 1215.1 240.195C1216.11 240.551 1217.01 241.111 1217.82 241.873C1218.62 242.635 1219.26 243.625 1219.72 244.843C1220.18 246.053 1220.42 247.524 1220.42 249.256V250.573H1205.24V247.789H1216.77C1216.77 246.811 1216.57 245.945 1216.18 245.191C1215.78 244.429 1215.22 243.828 1214.5 243.389C1213.79 242.95 1212.95 242.73 1211.99 242.73C1210.94 242.73 1210.03 242.987 1209.25 243.501C1208.48 244.007 1207.89 244.669 1207.46 245.49C1207.05 246.302 1206.84 247.184 1206.84 248.137V250.312C1206.84 251.588 1207.07 252.674 1207.51 253.569C1207.97 254.463 1208.6 255.147 1209.42 255.619C1210.23 256.083 1211.18 256.315 1212.26 256.315C1212.97 256.315 1213.61 256.216 1214.19 256.017C1214.77 255.81 1215.27 255.503 1215.69 255.097C1216.11 254.691 1216.44 254.19 1216.66 253.593L1220.18 254.227C1219.9 255.263 1219.39 256.17 1218.66 256.949C1217.94 257.72 1217.03 258.321 1215.94 258.751C1214.86 259.174 1213.62 259.385 1212.22 259.385ZM1232.58 259.385C1230.73 259.385 1229.14 258.967 1227.81 258.13C1226.48 257.285 1225.46 256.121 1224.75 254.637C1224.04 253.154 1223.68 251.456 1223.68 249.542C1223.68 247.603 1224.05 245.892 1224.77 244.408C1225.5 242.917 1226.53 241.753 1227.86 240.916C1229.18 240.079 1230.74 239.661 1232.54 239.661C1233.99 239.661 1235.29 239.93 1236.42 240.468C1237.56 240.999 1238.47 241.744 1239.17 242.706C1239.87 243.667 1240.29 244.79 1240.42 246.074H1236.81C1236.61 245.179 1236.15 244.408 1235.44 243.762C1234.73 243.116 1233.79 242.793 1232.61 242.793C1231.57 242.793 1230.66 243.066 1229.88 243.613C1229.11 244.152 1228.51 244.922 1228.08 245.925C1227.65 246.919 1227.43 248.096 1227.43 249.455C1227.43 250.847 1227.65 252.048 1228.07 253.059C1228.49 254.07 1229.09 254.853 1229.86 255.408C1230.64 255.963 1231.55 256.241 1232.61 256.241C1233.31 256.241 1233.95 256.112 1234.52 255.855C1235.1 255.59 1235.58 255.213 1235.97 254.724C1236.37 254.236 1236.65 253.647 1236.81 252.96H1240.42C1240.29 254.194 1239.89 255.296 1239.22 256.266C1238.55 257.235 1237.65 257.997 1236.52 258.553C1235.4 259.108 1234.09 259.385 1232.58 259.385ZM1253.31 239.909V242.892H1242.88V239.909H1253.31ZM1245.68 235.335H1249.39V253.395C1249.39 254.115 1249.5 254.658 1249.72 255.023C1249.93 255.379 1250.21 255.623 1250.55 255.756C1250.9 255.88 1251.27 255.942 1251.68 255.942C1251.98 255.942 1252.24 255.922 1252.46 255.88C1252.69 255.839 1252.86 255.806 1252.99 255.781L1253.66 258.851C1253.44 258.934 1253.13 259.017 1252.74 259.099C1252.34 259.191 1251.84 259.24 1251.25 259.249C1250.27 259.265 1249.36 259.091 1248.51 258.727C1247.67 258.362 1246.98 257.799 1246.46 257.036C1245.94 256.274 1245.68 255.317 1245.68 254.165V235.335ZM1265.44 259.385C1263.56 259.385 1261.94 258.983 1260.58 258.18C1259.23 257.368 1258.19 256.228 1257.45 254.762C1256.72 253.287 1256.36 251.559 1256.36 249.579C1256.36 247.623 1256.72 245.9 1257.45 244.408C1258.19 242.917 1259.22 241.753 1260.53 240.916C1261.86 240.079 1263.41 239.661 1265.18 239.661C1266.26 239.661 1267.3 239.839 1268.31 240.195C1269.32 240.551 1270.23 241.111 1271.04 241.873C1271.84 242.635 1272.47 243.625 1272.94 244.843C1273.4 246.053 1273.63 247.524 1273.63 249.256V250.573H1258.46V247.789H1269.99C1269.99 246.811 1269.79 245.945 1269.39 245.191C1269 244.429 1268.44 243.828 1267.72 243.389C1267 242.95 1266.17 242.73 1265.21 242.73C1264.16 242.73 1263.25 242.987 1262.47 243.501C1261.7 244.007 1261.1 244.669 1260.68 245.49C1260.27 246.302 1260.06 247.184 1260.06 248.137V250.312C1260.06 251.588 1260.28 252.674 1260.73 253.569C1261.19 254.463 1261.82 255.147 1262.63 255.619C1263.45 256.083 1264.39 256.315 1265.48 256.315C1266.18 256.315 1266.83 256.216 1267.41 256.017C1267.99 255.81 1268.49 255.503 1268.91 255.097C1269.33 254.691 1269.66 254.19 1269.88 253.593L1273.4 254.227C1273.12 255.263 1272.61 256.17 1271.88 256.949C1271.16 257.72 1270.25 258.321 1269.16 258.751C1268.07 259.174 1266.83 259.385 1265.44 259.385ZM1284.9 259.373C1283.36 259.373 1281.99 258.979 1280.78 258.192C1279.58 257.397 1278.63 256.266 1277.94 254.799C1277.26 253.324 1276.92 251.555 1276.92 249.492C1276.92 247.429 1277.27 245.664 1277.96 244.197C1278.65 242.73 1279.6 241.608 1280.81 240.829C1282.02 240.05 1283.4 239.661 1284.93 239.661C1286.11 239.661 1287.07 239.859 1287.79 240.257C1288.52 240.647 1289.08 241.102 1289.48 241.624C1289.88 242.146 1290.2 242.606 1290.42 243.004H1290.65V233.545H1294.36V259H1290.73V256.029H1290.42C1290.2 256.435 1289.87 256.9 1289.45 257.422C1289.04 257.944 1288.47 258.399 1287.74 258.789C1287.01 259.178 1286.06 259.373 1284.9 259.373ZM1285.72 256.203C1286.79 256.203 1287.7 255.922 1288.43 255.358C1289.18 254.787 1289.74 253.995 1290.12 252.984C1290.51 251.973 1290.71 250.797 1290.71 249.455C1290.71 248.129 1290.52 246.969 1290.14 245.974C1289.75 244.98 1289.2 244.205 1288.46 243.65C1287.72 243.095 1286.81 242.817 1285.72 242.817C1284.6 242.817 1283.67 243.107 1282.93 243.688C1282.18 244.268 1281.62 245.059 1281.24 246.061C1280.86 247.064 1280.68 248.195 1280.68 249.455C1280.68 250.731 1280.87 251.878 1281.25 252.897C1281.63 253.917 1282.19 254.724 1282.94 255.321C1283.69 255.909 1284.62 256.203 1285.72 256.203ZM1317.16 259.385C1315.28 259.385 1313.66 258.983 1312.3 258.18C1310.95 257.368 1309.9 256.228 1309.16 254.762C1308.44 253.287 1308.07 251.559 1308.07 249.579C1308.07 247.623 1308.44 245.9 1309.16 244.408C1309.9 242.917 1310.93 241.753 1312.25 240.916C1313.57 240.079 1315.12 239.661 1316.9 239.661C1317.97 239.661 1319.02 239.839 1320.03 240.195C1321.04 240.551 1321.95 241.111 1322.75 241.873C1323.55 242.635 1324.19 243.625 1324.65 244.843C1325.12 246.053 1325.35 247.524 1325.35 249.256V250.573H1310.17V247.789H1321.71C1321.71 246.811 1321.51 245.945 1321.11 245.191C1320.71 244.429 1320.15 243.828 1319.43 243.389C1318.72 242.95 1317.88 242.73 1316.92 242.73C1315.88 242.73 1314.96 242.987 1314.19 243.501C1313.42 244.007 1312.82 244.669 1312.4 245.49C1311.98 246.302 1311.77 247.184 1311.77 248.137V250.312C1311.77 251.588 1312 252.674 1312.45 253.569C1312.9 254.463 1313.54 255.147 1314.35 255.619C1315.16 256.083 1316.11 256.315 1317.19 256.315C1317.9 256.315 1318.54 256.216 1319.12 256.017C1319.7 255.81 1320.2 255.503 1320.62 255.097C1321.05 254.691 1321.37 254.19 1321.59 253.593L1325.11 254.227C1324.83 255.263 1324.32 256.17 1323.59 256.949C1322.87 257.72 1321.97 258.321 1320.87 258.751C1319.79 259.174 1318.55 259.385 1317.16 259.385ZM1333.19 247.665V259H1329.47V239.909H1333.04V243.016H1333.27C1333.71 242.005 1334.4 241.193 1335.34 240.58C1336.28 239.967 1337.47 239.661 1338.9 239.661C1340.2 239.661 1341.34 239.934 1342.32 240.481C1343.3 241.019 1344.06 241.823 1344.6 242.892C1345.14 243.961 1345.4 245.283 1345.4 246.857V259H1341.69V247.304C1341.69 245.921 1341.33 244.839 1340.61 244.06C1339.89 243.273 1338.9 242.88 1337.64 242.88C1336.77 242.88 1336.01 243.066 1335.34 243.439C1334.67 243.812 1334.15 244.359 1333.76 245.08C1333.38 245.792 1333.19 246.654 1333.19 247.665ZM1357.54 259.373C1355.99 259.373 1354.62 258.979 1353.41 258.192C1352.21 257.397 1351.26 256.266 1350.57 254.799C1349.9 253.324 1349.56 251.555 1349.56 249.492C1349.56 247.429 1349.9 245.664 1350.59 244.197C1351.28 242.73 1352.24 241.608 1353.45 240.829C1354.66 240.05 1356.03 239.661 1357.56 239.661C1358.74 239.661 1359.7 239.859 1360.42 240.257C1361.15 240.647 1361.71 241.102 1362.11 241.624C1362.51 242.146 1362.83 242.606 1363.05 243.004H1363.28V233.545H1366.99V259H1363.36V256.029H1363.05C1362.83 256.435 1362.51 256.9 1362.08 257.422C1361.67 257.944 1361.1 258.399 1360.37 258.789C1359.64 259.178 1358.7 259.373 1357.54 259.373ZM1358.36 256.203C1359.42 256.203 1360.33 255.922 1361.06 255.358C1361.81 254.787 1362.37 253.995 1362.76 252.984C1363.14 251.973 1363.34 250.797 1363.34 249.455C1363.34 248.129 1363.15 246.969 1362.77 245.974C1362.39 244.98 1361.83 244.205 1361.09 243.65C1360.35 243.095 1359.44 242.817 1358.36 242.817C1357.24 242.817 1356.3 243.107 1355.56 243.688C1354.81 244.268 1354.25 245.059 1353.87 246.061C1353.5 247.064 1353.31 248.195 1353.31 249.455C1353.31 250.731 1353.5 251.878 1353.88 252.897C1354.26 253.917 1354.83 254.724 1355.57 255.321C1356.33 255.909 1357.25 256.203 1358.36 256.203ZM1372.3 266.159V239.909H1375.93V243.004H1376.24C1376.45 242.606 1376.76 242.146 1377.17 241.624C1377.58 241.102 1378.14 240.647 1378.86 240.257C1379.58 239.859 1380.53 239.661 1381.72 239.661C1383.26 239.661 1384.64 240.05 1385.85 240.829C1387.05 241.608 1388 242.73 1388.69 244.197C1389.39 245.664 1389.74 247.429 1389.74 249.492C1389.74 251.555 1389.39 253.324 1388.7 254.799C1388.02 256.266 1387.07 257.397 1385.87 258.192C1384.67 258.979 1383.3 259.373 1381.76 259.373C1380.6 259.373 1379.65 259.178 1378.91 258.789C1378.18 258.399 1377.61 257.944 1377.19 257.422C1376.78 256.9 1376.46 256.435 1376.24 256.029H1376.01V266.159H1372.3ZM1375.94 249.455C1375.94 250.797 1376.13 251.973 1376.52 252.984C1376.91 253.995 1377.48 254.787 1378.21 255.358C1378.95 255.922 1379.85 256.203 1380.92 256.203C1382.03 256.203 1382.96 255.909 1383.71 255.321C1384.45 254.724 1385.02 253.917 1385.4 252.897C1385.79 251.878 1385.98 250.731 1385.98 249.455C1385.98 248.195 1385.79 247.064 1385.41 246.061C1385.04 245.059 1384.47 244.268 1383.72 243.688C1382.97 243.107 1382.04 242.817 1380.92 242.817C1379.85 242.817 1378.93 243.095 1378.19 243.65C1377.45 244.205 1376.89 244.98 1376.51 245.974C1376.13 246.969 1375.94 248.129 1375.94 249.455ZM1401.94 259.385C1400.15 259.385 1398.59 258.975 1397.25 258.155C1395.92 257.335 1394.89 256.187 1394.15 254.712C1393.41 253.237 1393.04 251.514 1393.04 249.542C1393.04 247.561 1393.41 245.829 1394.15 244.346C1394.89 242.863 1395.92 241.711 1397.25 240.891C1398.59 240.071 1400.15 239.661 1401.94 239.661C1403.73 239.661 1405.29 240.071 1406.63 240.891C1407.96 241.711 1409 242.863 1409.73 244.346C1410.47 245.829 1410.84 247.561 1410.84 249.542C1410.84 251.514 1410.47 253.237 1409.73 254.712C1409 256.187 1407.96 257.335 1406.63 258.155C1405.29 258.975 1403.73 259.385 1401.94 259.385ZM1401.95 256.266C1403.11 256.266 1404.07 255.959 1404.84 255.346C1405.6 254.733 1406.16 253.917 1406.53 252.897C1406.9 251.878 1407.09 250.755 1407.09 249.529C1407.09 248.311 1406.9 247.192 1406.53 246.173C1406.16 245.146 1405.6 244.321 1404.84 243.7C1404.07 243.078 1403.11 242.768 1401.95 242.768C1400.78 242.768 1399.82 243.078 1399.04 243.7C1398.28 244.321 1397.71 245.146 1397.34 246.173C1396.98 247.192 1396.8 248.311 1396.8 249.529C1396.8 250.755 1396.98 251.878 1397.34 252.897C1397.71 253.917 1398.28 254.733 1399.04 255.346C1399.82 255.959 1400.78 256.266 1401.95 256.266ZM1414.99 259V239.909H1418.7V259H1414.99ZM1416.86 236.963C1416.22 236.963 1415.66 236.748 1415.2 236.317C1414.74 235.878 1414.52 235.356 1414.52 234.751C1414.52 234.138 1414.74 233.616 1415.2 233.185C1415.66 232.746 1416.22 232.526 1416.86 232.526C1417.51 232.526 1418.06 232.746 1418.52 233.185C1418.98 233.616 1419.21 234.138 1419.21 234.751C1419.21 235.356 1418.98 235.878 1418.52 236.317C1418.06 236.748 1417.51 236.963 1416.86 236.963ZM1427.42 247.665V259H1423.7V239.909H1427.27V243.016H1427.51C1427.95 242.005 1428.63 241.193 1429.57 240.58C1430.51 239.967 1431.7 239.661 1433.14 239.661C1434.44 239.661 1435.58 239.934 1436.56 240.481C1437.53 241.019 1438.29 241.823 1438.83 242.892C1439.37 243.961 1439.64 245.283 1439.64 246.857V259H1435.92V247.304C1435.92 245.921 1435.56 244.839 1434.84 244.06C1434.12 243.273 1433.13 242.88 1431.87 242.88C1431.01 242.88 1430.24 243.066 1429.57 243.439C1428.91 243.812 1428.38 244.359 1427.99 245.08C1427.61 245.792 1427.42 246.654 1427.42 247.665ZM1453.53 239.909V242.892H1443.11V239.909H1453.53ZM1445.9 235.335H1449.62V253.395C1449.62 254.115 1449.73 254.658 1449.94 255.023C1450.16 255.379 1450.43 255.623 1450.77 255.756C1451.12 255.88 1451.5 255.942 1451.91 255.942C1452.2 255.942 1452.46 255.922 1452.69 255.88C1452.91 255.839 1453.09 255.806 1453.21 255.781L1453.88 258.851C1453.67 258.934 1453.36 259.017 1452.96 259.099C1452.56 259.191 1452.07 259.24 1451.47 259.249C1450.49 259.265 1449.58 259.091 1448.74 258.727C1447.89 258.362 1447.21 257.799 1446.68 257.036C1446.16 256.274 1445.9 255.317 1445.9 254.165V235.335Z" fill="#777777"/>
<path d="M744.655 450L764.655 461.547L764.655 438.453L744.655 450ZM762.655 452L1654.62 452L1654.62 448L762.655 448L762.655 452Z" fill="#777777"/>
<path d="M915.986 393.773C915.986 396.491 915.489 398.827 914.495 400.783C913.5 402.73 912.137 404.23 910.406 405.282C908.682 406.326 906.723 406.848 904.527 406.848C902.323 406.848 900.355 406.326 898.623 405.282C896.899 404.23 895.541 402.726 894.546 400.77C893.552 398.815 893.055 396.482 893.055 393.773C893.055 391.055 893.552 388.722 894.546 386.775C895.541 384.82 896.899 383.32 898.623 382.276C900.355 381.224 902.323 380.697 904.527 380.697C906.723 380.697 908.682 381.224 910.406 382.276C912.137 383.32 913.5 384.82 914.495 386.775C915.489 388.722 915.986 391.055 915.986 393.773ZM912.183 393.773C912.183 391.701 911.847 389.957 911.176 388.54C910.513 387.115 909.602 386.038 908.442 385.309C907.29 384.571 905.985 384.202 904.527 384.202C903.06 384.202 901.751 384.571 900.599 385.309C899.447 386.038 898.536 387.115 897.865 388.54C897.202 389.957 896.87 391.701 896.87 393.773C896.87 395.844 897.202 397.593 897.865 399.018C898.536 400.435 899.447 401.512 900.599 402.249C901.751 402.978 903.06 403.343 904.527 403.343C905.985 403.343 907.29 402.978 908.442 402.249C909.602 401.512 910.513 400.435 911.176 399.018C911.847 397.593 912.183 395.844 912.183 393.773ZM924.192 395.165V406.5H920.476V387.409H924.043V390.516H924.279C924.719 389.505 925.406 388.693 926.343 388.08C927.287 387.467 928.476 387.161 929.91 387.161C931.211 387.161 932.35 387.434 933.328 387.981C934.306 388.519 935.064 389.323 935.602 390.392C936.141 391.461 936.41 392.783 936.41 394.357V406.5H932.694V394.804C932.694 393.421 932.333 392.339 931.613 391.56C930.892 390.773 929.902 390.38 928.642 390.38C927.78 390.38 927.014 390.566 926.343 390.939C925.68 391.312 925.154 391.859 924.764 392.58C924.383 393.292 924.192 394.154 924.192 395.165ZM945.11 381.045V406.5L941.394 406.5V381.045H945.11ZM952.459 413.659C951.904 413.659 951.398 413.614 950.943 413.522C950.487 413.44 950.147 413.348 949.924 413.249L950.818 410.204C951.498 410.386 952.103 410.465 952.633 410.44C953.163 410.415 953.632 410.216 954.038 409.843C954.452 409.471 954.816 408.862 955.131 408.016L955.591 406.749L948.606 387.409H952.583L957.418 402.224H957.617L962.452 387.409H966.442L958.574 409.048C958.21 410.042 957.746 410.883 957.182 411.571C956.619 412.267 955.947 412.789 955.169 413.137C954.39 413.485 953.487 413.659 952.459 413.659ZM979.197 406.5V387.409H982.789V390.442H982.988C983.336 389.414 983.949 388.606 984.827 388.018C985.714 387.422 986.716 387.123 987.835 387.123C988.067 387.123 988.341 387.132 988.655 387.148C988.979 387.165 989.231 387.185 989.414 387.21V390.765C989.264 390.723 988.999 390.678 988.618 390.628C988.237 390.57 987.856 390.541 987.475 390.541C986.596 390.541 985.813 390.728 985.126 391.1C984.446 391.465 983.908 391.975 983.51 392.629C983.112 393.276 982.913 394.013 982.913 394.842V406.5H979.197ZM1000.17 406.885C998.293 406.885 996.673 406.483 995.314 405.68C993.964 404.868 992.92 403.728 992.182 402.262C991.453 400.787 991.088 399.059 991.088 397.079C991.088 395.123 991.453 393.4 992.182 391.908C992.92 390.417 993.947 389.253 995.264 388.416C996.59 387.579 998.14 387.161 999.913 387.161C1000.99 387.161 1002.03 387.339 1003.05 387.695C1004.06 388.051 1004.96 388.611 1005.77 389.373C1006.57 390.135 1007.2 391.125 1007.67 392.343C1008.13 393.553 1008.36 395.024 1008.36 396.756V398.073H993.189V395.289H1004.72C1004.72 394.311 1004.52 393.445 1004.13 392.691C1003.73 391.929 1003.17 391.328 1002.45 390.889C1001.74 390.45 1000.9 390.23 999.938 390.23C998.894 390.23 997.982 390.487 997.203 391.001C996.433 391.507 995.836 392.169 995.414 392.99C994.999 393.802 994.792 394.684 994.792 395.637V397.812C994.792 399.088 995.016 400.174 995.463 401.069C995.919 401.963 996.553 402.647 997.365 403.119C998.177 403.583 999.126 403.815 1000.21 403.815C1000.92 403.815 1001.56 403.716 1002.14 403.517C1002.72 403.31 1003.22 403.003 1003.64 402.597C1004.06 402.191 1004.39 401.69 1004.61 401.093L1008.13 401.727C1007.85 402.763 1007.34 403.67 1006.61 404.449C1005.89 405.22 1004.98 405.821 1003.89 406.251C1002.8 406.674 1001.57 406.885 1000.17 406.885ZM1021.4 387.409V390.392H1010.97V387.409H1021.4ZM1013.77 382.835H1017.48V400.895C1017.48 401.615 1017.59 402.158 1017.81 402.523C1018.02 402.879 1018.3 403.123 1018.64 403.256C1018.99 403.38 1019.37 403.442 1019.77 403.442C1020.07 403.442 1020.33 403.422 1020.55 403.38C1020.78 403.339 1020.95 403.306 1021.08 403.281L1021.75 406.351C1021.53 406.434 1021.23 406.517 1020.83 406.599C1020.43 406.691 1019.93 406.74 1019.34 406.749C1018.36 406.765 1017.45 406.591 1016.6 406.227C1015.76 405.862 1015.07 405.299 1014.55 404.536C1014.03 403.774 1013.77 402.817 1013.77 401.665V382.835ZM1037.6 398.583V387.409H1041.33V406.5H1037.68V403.194H1037.48C1037.04 404.213 1036.34 405.062 1035.37 405.742C1034.41 406.413 1033.21 406.749 1031.77 406.749C1030.55 406.749 1029.46 406.479 1028.52 405.941C1027.58 405.394 1026.84 404.586 1026.31 403.517C1025.78 402.448 1025.51 401.127 1025.51 399.552V387.409H1029.23V399.105C1029.23 400.406 1029.59 401.441 1030.31 402.212C1031.03 402.983 1031.97 403.368 1033.12 403.368C1033.81 403.368 1034.5 403.194 1035.19 402.846C1035.89 402.498 1036.46 401.972 1036.92 401.267C1037.38 400.563 1037.61 399.668 1037.6 398.583ZM1046.33 406.5V387.409H1049.92V390.442H1050.12C1050.46 389.414 1051.08 388.606 1051.96 388.018C1052.84 387.422 1053.85 387.123 1054.96 387.123C1055.2 387.123 1055.47 387.132 1055.78 387.148C1056.11 387.165 1056.36 387.185 1056.54 387.21V390.765C1056.39 390.723 1056.13 390.678 1055.75 390.628C1055.37 390.57 1054.98 390.541 1054.6 390.541C1053.73 390.541 1052.94 390.728 1052.25 391.1C1051.58 391.465 1051.04 391.975 1050.64 392.629C1050.24 393.276 1050.04 394.013 1050.04 394.842V406.5H1046.33ZM1063.47 395.165V406.5H1059.76V387.409H1063.33V390.516H1063.56C1064 389.505 1064.69 388.693 1065.62 388.08C1066.57 387.467 1067.76 387.161 1069.19 387.161C1070.49 387.161 1071.63 387.434 1072.61 387.981C1073.59 388.519 1074.35 389.323 1074.88 390.392C1075.42 391.461 1075.69 392.783 1075.69 394.357V406.5H1071.98V394.804C1071.98 393.421 1071.62 392.339 1070.89 391.56C1070.17 390.773 1069.18 390.38 1067.92 390.38C1067.06 390.38 1066.3 390.566 1065.62 390.939C1064.96 391.312 1064.44 391.859 1064.05 392.58C1063.67 393.292 1063.47 394.154 1063.47 395.165ZM1089.94 406.5V387.409H1093.53V390.442H1093.73C1094.08 389.414 1094.69 388.606 1095.57 388.018C1096.46 387.422 1097.46 387.123 1098.58 387.123C1098.81 387.123 1099.08 387.132 1099.4 387.148C1099.72 387.165 1099.97 387.185 1100.16 387.21V390.765C1100.01 390.723 1099.74 390.678 1099.36 390.628C1098.98 390.57 1098.6 390.541 1098.22 390.541C1097.34 390.541 1096.56 390.728 1095.87 391.1C1095.19 391.465 1094.65 391.975 1094.25 392.629C1093.85 393.276 1093.66 394.013 1093.66 394.842V406.5H1089.94ZM1110.92 406.885C1109.04 406.885 1107.42 406.483 1106.06 405.68C1104.71 404.868 1103.66 403.728 1102.92 402.262C1102.2 400.787 1101.83 399.059 1101.83 397.079C1101.83 395.123 1102.2 393.4 1102.92 391.908C1103.66 390.417 1104.69 389.253 1106.01 388.416C1107.33 387.579 1108.88 387.161 1110.66 387.161C1111.73 387.161 1112.78 387.339 1113.79 387.695C1114.8 388.051 1115.71 388.611 1116.51 389.373C1117.31 390.135 1117.95 391.125 1118.41 392.343C1118.87 393.553 1119.11 395.024 1119.11 396.756V398.073H1103.93V395.289H1115.47C1115.47 394.311 1115.27 393.445 1114.87 392.691C1114.47 391.929 1113.91 391.328 1113.19 390.889C1112.48 390.45 1111.64 390.23 1110.68 390.23C1109.64 390.23 1108.72 390.487 1107.95 391.001C1107.17 391.507 1106.58 392.169 1106.16 392.99C1105.74 393.802 1105.53 394.684 1105.53 395.637V397.812C1105.53 399.088 1105.76 400.174 1106.21 401.069C1106.66 401.963 1107.3 402.647 1108.11 403.119C1108.92 403.583 1109.87 403.815 1110.95 403.815C1111.66 403.815 1112.3 403.716 1112.88 403.517C1113.46 403.31 1113.96 403.003 1114.38 402.597C1114.81 402.191 1115.13 401.69 1115.35 401.093L1118.87 401.727C1118.59 402.763 1118.08 403.67 1117.35 404.449C1116.63 405.22 1115.73 405.821 1114.63 406.251C1113.55 406.674 1112.31 406.885 1110.92 406.885ZM1137.54 392.07L1134.17 392.667C1134.03 392.236 1133.8 391.826 1133.5 391.436C1133.2 391.047 1132.79 390.728 1132.28 390.479C1131.76 390.23 1131.12 390.106 1130.35 390.106C1129.3 390.106 1128.42 390.342 1127.72 390.815C1127.01 391.279 1126.66 391.879 1126.66 392.617C1126.66 393.255 1126.9 393.769 1127.37 394.158C1127.84 394.547 1128.6 394.866 1129.66 395.115L1132.69 395.811C1134.45 396.217 1135.75 396.843 1136.62 397.688C1137.48 398.533 1137.91 399.631 1137.91 400.982C1137.91 402.125 1137.58 403.144 1136.91 404.039C1136.26 404.926 1135.34 405.622 1134.17 406.127C1133 406.633 1131.64 406.885 1130.1 406.885C1127.97 406.885 1126.22 406.43 1124.87 405.518C1123.52 404.598 1122.69 403.293 1122.38 401.603L1125.98 401.056C1126.2 401.992 1126.66 402.701 1127.36 403.181C1128.05 403.654 1128.96 403.89 1130.08 403.89C1131.3 403.89 1132.27 403.637 1133 403.132C1133.73 402.618 1134.09 401.992 1134.09 401.255C1134.09 400.658 1133.87 400.157 1133.42 399.751C1132.98 399.345 1132.31 399.038 1131.4 398.831L1128.16 398.123C1126.38 397.717 1125.07 397.071 1124.21 396.184C1123.37 395.297 1122.94 394.175 1122.94 392.816C1122.94 391.689 1123.26 390.703 1123.89 389.858C1124.52 389.012 1125.39 388.354 1126.5 387.881C1127.61 387.401 1128.88 387.161 1130.31 387.161C1132.38 387.161 1134 387.608 1135.19 388.503C1136.37 389.389 1137.15 390.578 1137.54 392.07ZM1150.04 406.885C1148.25 406.885 1146.68 406.475 1145.35 405.655C1144.02 404.835 1142.98 403.687 1142.24 402.212C1141.51 400.737 1141.14 399.014 1141.14 397.042C1141.14 395.061 1141.51 393.329 1142.24 391.846C1142.98 390.363 1144.02 389.211 1145.35 388.391C1146.68 387.571 1148.25 387.161 1150.04 387.161C1151.83 387.161 1153.39 387.571 1154.72 388.391C1156.06 389.211 1157.09 390.363 1157.83 391.846C1158.57 393.329 1158.94 395.061 1158.94 397.042C1158.94 399.014 1158.57 400.737 1157.83 402.212C1157.09 403.687 1156.06 404.835 1154.72 405.655C1153.39 406.475 1151.83 406.885 1150.04 406.885ZM1150.05 403.766C1151.21 403.766 1152.17 403.459 1152.93 402.846C1153.69 402.233 1154.26 401.417 1154.62 400.397C1155 399.378 1155.18 398.255 1155.18 397.029C1155.18 395.811 1155 394.692 1154.62 393.673C1154.26 392.646 1153.69 391.821 1152.93 391.2C1152.17 390.578 1151.21 390.268 1150.05 390.268C1148.88 390.268 1147.91 390.578 1147.14 391.2C1146.38 391.821 1145.81 392.646 1145.44 393.673C1145.07 394.692 1144.89 395.811 1144.89 397.029C1144.89 398.255 1145.07 399.378 1145.44 400.397C1145.81 401.417 1146.38 402.233 1147.14 402.846C1147.91 403.459 1148.88 403.766 1150.05 403.766ZM1175.18 398.583V387.409H1178.91V406.5H1175.25V403.194H1175.05C1174.61 404.213 1173.91 405.062 1172.94 405.742C1171.98 406.413 1170.78 406.749 1169.35 406.749C1168.12 406.749 1167.04 406.479 1166.09 405.941C1165.16 405.394 1164.42 404.586 1163.88 403.517C1163.35 402.448 1163.08 401.127 1163.08 399.552V387.409H1166.8V399.105C1166.8 400.406 1167.16 401.441 1167.88 402.212C1168.6 402.983 1169.54 403.368 1170.69 403.368C1171.39 403.368 1172.08 403.194 1172.77 402.846C1173.46 402.498 1174.04 401.972 1174.49 401.267C1174.96 400.563 1175.19 399.668 1175.18 398.583ZM1183.9 406.5V387.409H1187.49V390.442H1187.69C1188.04 389.414 1188.65 388.606 1189.53 388.018C1190.42 387.422 1191.42 387.123 1192.54 387.123C1192.77 387.123 1193.04 387.132 1193.36 387.148C1193.68 387.165 1193.93 387.185 1194.12 387.21V390.765C1193.97 390.723 1193.7 390.678 1193.32 390.628C1192.94 390.57 1192.56 390.541 1192.18 390.541C1191.3 390.541 1190.52 390.728 1189.83 391.1C1189.15 391.465 1188.61 391.975 1188.21 392.629C1187.81 393.276 1187.62 394.013 1187.62 394.842V406.5H1183.9ZM1204.69 406.885C1202.84 406.885 1201.25 406.467 1199.92 405.63C1198.59 404.785 1197.57 403.621 1196.86 402.137C1196.15 400.654 1195.79 398.956 1195.79 397.042C1195.79 395.103 1196.16 393.392 1196.88 391.908C1197.61 390.417 1198.64 389.253 1199.97 388.416C1201.29 387.579 1202.85 387.161 1204.65 387.161C1206.1 387.161 1207.4 387.43 1208.53 387.968C1209.67 388.499 1210.58 389.244 1211.28 390.206C1211.98 391.167 1212.4 392.29 1212.53 393.574H1208.92C1208.72 392.679 1208.26 391.908 1207.55 391.262C1206.84 390.616 1205.9 390.293 1204.71 390.293C1203.68 390.293 1202.77 390.566 1201.99 391.113C1201.22 391.652 1200.62 392.422 1200.19 393.425C1199.76 394.419 1199.54 395.596 1199.54 396.955C1199.54 398.347 1199.76 399.548 1200.18 400.559C1200.6 401.57 1201.2 402.353 1201.97 402.908C1202.75 403.463 1203.66 403.741 1204.71 403.741C1205.42 403.741 1206.06 403.612 1206.63 403.355C1207.21 403.09 1207.69 402.713 1208.08 402.224C1208.48 401.736 1208.76 401.147 1208.92 400.46H1212.53C1212.4 401.694 1212 402.796 1211.33 403.766C1210.66 404.735 1209.76 405.497 1208.63 406.053C1207.51 406.608 1206.2 406.885 1204.69 406.885ZM1224.73 406.885C1222.85 406.885 1221.23 406.483 1219.87 405.68C1218.52 404.868 1217.48 403.728 1216.74 402.262C1216.01 400.787 1215.65 399.059 1215.65 397.079C1215.65 395.123 1216.01 393.4 1216.74 391.908C1217.48 390.417 1218.51 389.253 1219.83 388.416C1221.15 387.579 1222.7 387.161 1224.47 387.161C1225.55 387.161 1226.59 387.339 1227.61 387.695C1228.62 388.051 1229.52 388.611 1230.33 389.373C1231.13 390.135 1231.77 391.125 1232.23 392.343C1232.69 393.553 1232.93 395.024 1232.93 396.756V398.073H1217.75V395.289H1229.28C1229.28 394.311 1229.08 393.445 1228.69 392.691C1228.29 391.929 1227.73 391.328 1227.01 390.889C1226.3 390.45 1225.46 390.23 1224.5 390.23C1223.45 390.23 1222.54 390.487 1221.76 391.001C1220.99 391.507 1220.4 392.169 1219.97 392.99C1219.56 393.802 1219.35 394.684 1219.35 395.637V397.812C1219.35 399.088 1219.58 400.174 1220.02 401.069C1220.48 401.963 1221.11 402.647 1221.93 403.119C1222.74 403.583 1223.69 403.815 1224.77 403.815C1225.48 403.815 1226.12 403.716 1226.7 403.517C1227.28 403.31 1227.78 403.003 1228.2 402.597C1228.62 402.191 1228.95 401.69 1229.17 401.093L1232.69 401.727C1232.41 402.763 1231.9 403.67 1231.17 404.449C1230.45 405.22 1229.54 405.821 1228.45 406.251C1227.37 406.674 1226.13 406.885 1224.73 406.885ZM1246.31 406.5V387.409H1250.03V406.5H1246.31ZM1248.19 384.463C1247.54 384.463 1246.99 384.248 1246.52 383.817C1246.07 383.378 1245.84 382.856 1245.84 382.251C1245.84 381.638 1246.07 381.116 1246.52 380.685C1246.99 380.246 1247.54 380.026 1248.19 380.026C1248.83 380.026 1249.39 380.246 1249.84 380.685C1250.31 381.116 1250.54 381.638 1250.54 382.251C1250.54 382.856 1250.31 383.378 1249.84 383.817C1249.39 384.248 1248.83 384.463 1248.19 384.463ZM1264.11 387.409V390.392L1253.32 390.392V387.409H1264.11ZM1256.28 406.5V385.197C1256.28 384.004 1256.54 383.013 1257.07 382.226C1257.59 381.431 1258.28 380.838 1259.14 380.449C1260 380.051 1260.94 379.852 1261.95 379.852C1262.7 379.852 1263.33 379.914 1263.86 380.039C1264.39 380.155 1264.79 380.262 1265.04 380.362L1264.17 383.37C1264 383.32 1263.78 383.262 1263.5 383.196C1263.23 383.121 1262.9 383.084 1262.51 383.084C1261.61 383.084 1260.96 383.308 1260.57 383.755C1260.19 384.202 1260 384.849 1260 385.694V406.5H1256.28ZM1282.77 406.923C1281.56 406.923 1280.46 406.699 1279.48 406.251C1278.51 405.796 1277.73 405.137 1277.16 404.275C1276.6 403.413 1276.31 402.357 1276.31 401.106C1276.31 400.029 1276.52 399.142 1276.94 398.446C1277.35 397.75 1277.91 397.199 1278.61 396.793C1279.32 396.387 1280.11 396.08 1280.98 395.873C1281.85 395.666 1282.73 395.509 1283.64 395.401C1284.78 395.268 1285.71 395.161 1286.42 395.078C1287.13 394.987 1287.65 394.842 1287.97 394.643C1288.3 394.444 1288.46 394.121 1288.46 393.673V393.586C1288.46 392.501 1288.15 391.66 1287.54 391.063C1286.93 390.467 1286.03 390.168 1284.83 390.168C1283.58 390.168 1282.59 390.446 1281.87 391.001C1281.16 391.548 1280.66 392.157 1280.39 392.828L1276.9 392.033C1277.31 390.873 1277.92 389.936 1278.71 389.224C1279.52 388.503 1280.44 387.981 1281.49 387.658C1282.53 387.326 1283.63 387.161 1284.78 387.161C1285.54 387.161 1286.35 387.252 1287.2 387.434C1288.06 387.608 1288.87 387.931 1289.61 388.403C1290.37 388.876 1290.99 389.551 1291.47 390.429C1291.95 391.299 1292.19 392.43 1292.19 393.822V406.5H1288.56V403.89H1288.41C1288.17 404.371 1287.81 404.843 1287.33 405.307C1286.85 405.771 1286.23 406.156 1285.47 406.463C1284.72 406.769 1283.82 406.923 1282.77 406.923ZM1283.57 403.94C1284.6 403.94 1285.48 403.737 1286.21 403.331C1286.95 402.925 1287.5 402.394 1287.89 401.74C1288.28 401.077 1288.47 400.368 1288.47 399.614V397.153C1288.34 397.286 1288.08 397.41 1287.7 397.526C1287.33 397.634 1286.9 397.729 1286.42 397.812C1285.94 397.887 1285.47 397.957 1285.02 398.023C1284.56 398.081 1284.18 398.131 1283.87 398.173C1283.15 398.264 1282.49 398.417 1281.9 398.632C1281.31 398.848 1280.83 399.159 1280.48 399.565C1280.13 399.962 1279.96 400.493 1279.96 401.156C1279.96 402.075 1280.3 402.771 1280.98 403.244C1281.66 403.708 1282.52 403.94 1283.57 403.94ZM1309.23 398.583V387.409H1312.96V406.5H1309.3V403.194H1309.11C1308.67 404.213 1307.96 405.062 1306.99 405.742C1306.03 406.413 1304.83 406.749 1303.4 406.749C1302.17 406.749 1301.09 406.479 1300.14 405.941C1299.21 405.394 1298.47 404.586 1297.93 403.517C1297.4 402.448 1297.14 401.127 1297.14 399.552V387.409H1300.85V399.105C1300.85 400.406 1301.21 401.441 1301.93 402.212C1302.65 402.983 1303.59 403.368 1304.74 403.368C1305.44 403.368 1306.13 403.194 1306.82 402.846C1307.51 402.498 1308.09 401.972 1308.55 401.267C1309.01 400.563 1309.24 399.668 1309.23 398.583ZM1326.86 387.409V390.392H1316.44V387.409H1326.86ZM1319.23 382.835H1322.95V400.895C1322.95 401.615 1323.06 402.158 1323.27 402.523C1323.49 402.879 1323.76 403.123 1324.1 403.256C1324.45 403.38 1324.83 403.442 1325.24 403.442C1325.53 403.442 1325.79 403.422 1326.02 403.38C1326.24 403.339 1326.42 403.306 1326.54 403.281L1327.21 406.351C1327 406.434 1326.69 406.517 1326.29 406.599C1325.89 406.691 1325.4 406.74 1324.8 406.749C1323.82 406.765 1322.91 406.591 1322.07 406.227C1321.22 405.862 1320.54 405.299 1320.02 404.536C1319.49 403.774 1319.23 402.817 1319.23 401.665V382.835ZM1335.1 395.165V406.5H1331.38V381.045H1335.05V390.516H1335.29C1335.73 389.489 1336.42 388.673 1337.34 388.068C1338.26 387.463 1339.46 387.161 1340.94 387.161C1342.25 387.161 1343.39 387.43 1344.37 387.968C1345.36 388.507 1346.12 389.311 1346.66 390.38C1347.21 391.44 1347.48 392.766 1347.48 394.357V406.5H1343.76V394.804C1343.76 393.404 1343.4 392.319 1342.68 391.548C1341.96 390.769 1340.96 390.38 1339.67 390.38C1338.8 390.38 1338.01 390.566 1337.31 390.939C1336.63 391.312 1336.08 391.859 1335.68 392.58C1335.3 393.292 1335.1 394.154 1335.1 395.165ZM1360.67 406.885C1358.79 406.885 1357.17 406.483 1355.81 405.68C1354.46 404.868 1353.41 403.728 1352.68 402.262C1351.95 400.787 1351.58 399.059 1351.58 397.079C1351.58 395.123 1351.95 393.4 1352.68 391.908C1353.41 390.417 1354.44 389.253 1355.76 388.416C1357.08 387.579 1358.63 387.161 1360.41 387.161C1361.48 387.161 1362.53 387.339 1363.54 387.695C1364.55 388.051 1365.46 388.611 1366.26 389.373C1367.06 390.135 1367.7 391.125 1368.16 392.343C1368.63 393.553 1368.86 395.024 1368.86 396.756V398.073H1353.68V395.289H1365.22C1365.22 394.311 1365.02 393.445 1364.62 392.691C1364.22 391.929 1363.66 391.328 1362.94 390.889C1362.23 390.45 1361.39 390.23 1360.43 390.23C1359.39 390.23 1358.48 390.487 1357.7 391.001C1356.93 391.507 1356.33 392.169 1355.91 392.99C1355.49 393.802 1355.29 394.684 1355.29 395.637V397.812C1355.29 399.088 1355.51 400.174 1355.96 401.069C1356.41 401.963 1357.05 402.647 1357.86 403.119C1358.67 403.583 1359.62 403.815 1360.7 403.815C1361.41 403.815 1362.05 403.716 1362.63 403.517C1363.21 403.31 1363.71 403.003 1364.13 402.597C1364.56 402.191 1364.88 401.69 1365.1 401.093L1368.62 401.727C1368.34 402.763 1367.83 403.67 1367.11 404.449C1366.38 405.22 1365.48 405.821 1364.38 406.251C1363.3 406.674 1362.06 406.885 1360.67 406.885ZM1376.7 395.165V406.5H1372.98V387.409H1376.55V390.516H1376.78C1377.22 389.505 1377.91 388.693 1378.85 388.08C1379.79 387.467 1380.98 387.161 1382.41 387.161C1383.72 387.161 1384.85 387.434 1385.83 387.981C1386.81 388.519 1387.57 389.323 1388.11 390.392C1388.65 391.461 1388.92 392.783 1388.92 394.357V406.5H1385.2V394.804C1385.2 393.421 1384.84 392.339 1384.12 391.56C1383.4 390.773 1382.41 390.38 1381.15 390.38C1380.29 390.38 1379.52 390.566 1378.85 390.939C1378.18 391.312 1377.66 391.859 1377.27 392.58C1376.89 393.292 1376.7 394.154 1376.7 395.165ZM1402.81 387.409V390.392H1392.38V387.409H1402.81ZM1395.18 382.835H1398.9V400.895C1398.9 401.615 1399 402.158 1399.22 402.523C1399.43 402.879 1399.71 403.123 1400.05 403.256C1400.4 403.38 1400.78 403.442 1401.18 403.442C1401.48 403.442 1401.74 403.422 1401.97 403.38C1402.19 403.339 1402.36 403.306 1402.49 403.281L1403.16 406.351C1402.94 406.434 1402.64 406.517 1402.24 406.599C1401.84 406.691 1401.34 406.74 1400.75 406.749C1399.77 406.765 1398.86 406.591 1398.01 406.227C1397.17 405.862 1396.48 405.299 1395.96 404.536C1395.44 403.774 1395.18 402.817 1395.18 401.665V382.835ZM1406.92 406.5V387.409H1410.64V406.5H1406.92ZM1408.8 384.463C1408.15 384.463 1407.6 384.248 1407.13 383.817C1406.68 383.378 1406.45 382.856 1406.45 382.251C1406.45 381.638 1406.68 381.116 1407.13 380.685C1407.6 380.246 1408.15 380.026 1408.8 380.026C1409.44 380.026 1410 380.246 1410.45 380.685C1410.92 381.116 1411.15 381.638 1411.15 382.251C1411.15 382.856 1410.92 383.378 1410.45 383.817C1410 384.248 1409.44 384.463 1408.8 384.463ZM1423.68 406.885C1421.83 406.885 1420.24 406.467 1418.91 405.63C1417.58 404.785 1416.56 403.621 1415.85 402.137C1415.14 400.654 1414.78 398.956 1414.78 397.042C1414.78 395.103 1415.14 393.392 1415.87 391.908C1416.6 390.417 1417.63 389.253 1418.96 388.416C1420.28 387.579 1421.84 387.161 1423.64 387.161C1425.09 387.161 1426.38 387.43 1427.52 387.968C1428.65 388.499 1429.57 389.244 1430.27 390.206C1430.97 391.167 1431.39 392.29 1431.52 393.574H1427.9C1427.71 392.679 1427.25 391.908 1426.54 391.262C1425.83 390.616 1424.89 390.293 1423.7 390.293C1422.67 390.293 1421.76 390.566 1420.98 391.113C1420.21 391.652 1419.61 392.422 1419.18 393.425C1418.75 394.419 1418.53 395.596 1418.53 396.955C1418.53 398.347 1418.74 399.548 1419.17 400.559C1419.59 401.57 1420.19 402.353 1420.96 402.908C1421.74 403.463 1422.65 403.741 1423.7 403.741C1424.41 403.741 1425.05 403.612 1425.62 403.355C1426.2 403.09 1426.68 402.713 1427.07 402.224C1427.47 401.736 1427.75 401.147 1427.9 400.46H1431.52C1431.39 401.694 1430.99 402.796 1430.32 403.766C1429.64 404.735 1428.75 405.497 1427.62 406.053C1426.5 406.608 1425.19 406.885 1423.68 406.885ZM1441.05 406.923C1439.84 406.923 1438.75 406.699 1437.77 406.251C1436.79 405.796 1436.02 405.137 1435.45 404.275C1434.88 403.413 1434.6 402.357 1434.6 401.106C1434.6 400.029 1434.81 399.142 1435.22 398.446C1435.64 397.75 1436.2 397.199 1436.9 396.793C1437.6 396.387 1438.39 396.08 1439.26 395.873C1440.13 395.666 1441.02 395.509 1441.92 395.401C1443.07 395.268 1443.99 395.161 1444.71 395.078C1445.42 394.987 1445.94 394.842 1446.26 394.643C1446.58 394.444 1446.74 394.121 1446.74 393.673V393.586C1446.74 392.501 1446.44 391.66 1445.82 391.063C1445.22 390.467 1444.32 390.168 1443.11 390.168C1441.86 390.168 1440.88 390.446 1440.16 391.001C1439.44 391.548 1438.95 392.157 1438.68 392.828L1435.19 392.033C1435.6 390.873 1436.2 389.936 1437 389.224C1437.8 388.503 1438.73 387.981 1439.77 387.658C1440.82 387.326 1441.91 387.161 1443.07 387.161C1443.83 387.161 1444.64 387.252 1445.49 387.434C1446.35 387.608 1447.15 387.931 1447.9 388.403C1448.65 388.876 1449.27 389.551 1449.75 390.429C1450.23 391.299 1450.47 392.43 1450.47 393.822V406.5H1446.84V403.89H1446.69C1446.45 404.371 1446.09 404.843 1445.61 405.307C1445.13 405.771 1444.52 406.156 1443.76 406.463C1443.01 406.769 1442.1 406.923 1441.05 406.923ZM1441.86 403.94C1442.89 403.94 1443.77 403.737 1444.49 403.331C1445.23 402.925 1445.79 402.394 1446.17 401.74C1446.56 401.077 1446.76 400.368 1446.76 399.614V397.153C1446.62 397.286 1446.37 397.41 1445.99 397.526C1445.61 397.634 1445.19 397.729 1444.71 397.812C1444.23 397.887 1443.76 397.957 1443.3 398.023C1442.85 398.081 1442.46 398.131 1442.16 398.173C1441.44 398.264 1440.78 398.417 1440.18 398.632C1439.59 398.848 1439.12 399.159 1438.76 399.565C1438.42 399.962 1438.24 400.493 1438.24 401.156C1438.24 402.075 1438.58 402.771 1439.26 403.244C1439.94 403.708 1440.81 403.94 1441.86 403.94ZM1464.33 387.409V390.392H1453.91V387.409H1464.33ZM1456.7 382.835H1460.42V400.895C1460.42 401.615 1460.53 402.158 1460.74 402.523C1460.96 402.879 1461.24 403.123 1461.57 403.256C1461.92 403.38 1462.3 403.442 1462.71 403.442C1463 403.442 1463.27 403.422 1463.49 403.38C1463.71 403.339 1463.89 403.306 1464.01 403.281L1464.68 406.351C1464.47 406.434 1464.16 406.517 1463.76 406.599C1463.36 406.691 1462.87 406.74 1462.27 406.749C1461.29 406.765 1460.38 406.591 1459.54 406.227C1458.69 405.862 1458.01 405.299 1457.49 404.536C1456.96 403.774 1456.7 402.817 1456.7 401.665V382.835ZM1476.47 406.885C1474.59 406.885 1472.97 406.483 1471.61 405.68C1470.26 404.868 1469.21 403.728 1468.48 402.262C1467.75 400.787 1467.38 399.059 1467.38 397.079C1467.38 395.123 1467.75 393.4 1468.48 391.908C1469.21 390.417 1470.24 389.253 1471.56 388.416C1472.88 387.579 1474.43 387.161 1476.21 387.161C1477.28 387.161 1478.33 387.339 1479.34 387.695C1480.35 388.051 1481.26 388.611 1482.06 389.373C1482.86 390.135 1483.5 391.125 1483.96 392.343C1484.43 393.553 1484.66 395.024 1484.66 396.756V398.073H1469.48V395.289H1481.02C1481.02 394.311 1480.82 393.445 1480.42 392.691C1480.02 391.929 1479.46 391.328 1478.74 390.889C1478.03 390.45 1477.19 390.23 1476.23 390.23C1475.19 390.23 1474.28 390.487 1473.5 391.001C1472.73 391.507 1472.13 392.169 1471.71 392.99C1471.29 393.802 1471.09 394.684 1471.09 395.637V397.812C1471.09 399.088 1471.31 400.174 1471.76 401.069C1472.21 401.963 1472.85 402.647 1473.66 403.119C1474.47 403.583 1475.42 403.815 1476.51 403.815C1477.21 403.815 1477.85 403.716 1478.43 403.517C1479.01 403.31 1479.51 403.003 1479.94 402.597C1480.36 402.191 1480.68 401.69 1480.91 401.093L1484.42 401.727C1484.14 402.763 1483.64 403.67 1482.91 404.449C1482.19 405.22 1481.28 405.821 1480.18 406.251C1479.1 406.674 1477.86 406.885 1476.47 406.885ZM1495.93 406.873C1494.39 406.873 1493.01 406.479 1491.8 405.692C1490.6 404.897 1489.66 403.766 1488.97 402.299C1488.29 400.824 1487.95 399.055 1487.95 396.992C1487.95 394.929 1488.29 393.164 1488.98 391.697C1489.68 390.23 1490.63 389.108 1491.84 388.329C1493.05 387.55 1494.42 387.161 1495.95 387.161C1497.14 387.161 1498.09 387.359 1498.81 387.757C1499.54 388.147 1500.1 388.602 1500.5 389.124C1500.91 389.646 1501.22 390.106 1501.45 390.504H1501.67V381.045H1505.39V406.5H1501.76V403.529H1501.45C1501.22 403.935 1500.9 404.4 1500.48 404.922C1500.06 405.444 1499.49 405.899 1498.76 406.289C1498.03 406.678 1497.09 406.873 1495.93 406.873ZM1496.75 403.703C1497.82 403.703 1498.72 403.422 1499.46 402.858C1500.2 402.287 1500.77 401.495 1501.15 400.484C1501.54 399.473 1501.73 398.297 1501.73 396.955C1501.73 395.629 1501.54 394.469 1501.16 393.474C1500.78 392.48 1500.22 391.705 1499.48 391.15C1498.75 390.595 1497.83 390.317 1496.75 390.317C1495.63 390.317 1494.7 390.607 1493.95 391.188C1493.21 391.768 1492.64 392.559 1492.26 393.561C1491.89 394.564 1491.7 395.695 1491.7 396.955C1491.7 398.231 1491.89 399.378 1492.27 400.397C1492.66 401.417 1493.22 402.224 1493.96 402.821C1494.72 403.409 1495.65 403.703 1496.75 403.703Z" fill="#777777"/>
<rect x="1678.27" y="68" width="397" height="604" rx="32" fill="url(#paint0_linear_3791_169)"/>
<path fill-rule="evenodd" clip-rule="evenodd" d="M1836.77 278C1834.01 278 1831.77 280.239 1831.77 283V303C1831.77 305.761 1834.01 308 1836.77 308H1916.77C1919.53 308 1921.77 305.761 1921.77 303V283C1921.77 280.239 1919.53 278 1916.77 278H1836.77ZM1821.77 283C1821.77 274.716 1828.49 268 1836.77 268H1916.77C1925.06 268 1931.77 274.716 1931.77 283V303C1931.77 311.284 1925.06 318 1916.77 318H1836.77C1828.49 318 1821.77 311.284 1821.77 303V283Z" fill="white"/>
<path fill-rule="evenodd" clip-rule="evenodd" d="M1836.77 338C1834.01 338 1831.77 340.239 1831.77 343V363C1831.77 365.761 1834.01 368 1836.77 368H1916.77C1919.53 368 1921.77 365.761 1921.77 363V343C1921.77 340.239 1919.53 338 1916.77 338H1836.77ZM1821.77 343C1821.77 334.716 1828.49 328 1836.77 328H1916.77C1925.06 328 1931.77 334.716 1931.77 343V363C1931.77 371.284 1925.06 378 1916.77 378H1836.77C1828.49 378 1821.77 371.284 1821.77 363V343Z" fill="white"/>
<path fill-rule="evenodd" clip-rule="evenodd" d="M1841.77 293C1841.77 290.239 1844.01 288 1846.77 288H1846.82C1849.58 288 1851.82 290.239 1851.82 293C1851.82 295.761 1849.58 298 1846.82 298H1846.77C1844.01 298 1841.77 295.761 1841.77 293Z" fill="white"/>
<path fill-rule="evenodd" clip-rule="evenodd" d="M1841.77 353C1841.77 350.239 1844.01 348 1846.77 348H1846.82C1849.58 348 1851.82 350.239 1851.82 353C1851.82 355.761 1849.58 358 1846.82 358H1846.77C1844.01 358 1841.77 355.761 1841.77 353Z" fill="white"/>
<path d="M1827.35 441.87C1827.18 440.357 1826.48 439.185 1825.25 438.354C1824.01 437.513 1822.45 437.092 1820.58 437.092C1819.24 437.092 1818.08 437.305 1817.1 437.731C1816.12 438.147 1815.35 438.722 1814.81 439.457C1814.28 440.181 1814.01 441.007 1814.01 441.934C1814.01 442.712 1814.19 443.383 1814.55 443.947C1814.93 444.512 1815.41 444.986 1816.01 445.37C1816.62 445.743 1817.27 446.057 1817.96 446.312C1818.65 446.558 1819.32 446.76 1819.96 446.92L1823.15 447.751C1824.2 448.006 1825.27 448.353 1826.36 448.789C1827.46 449.226 1828.48 449.801 1829.42 450.515C1830.35 451.229 1831.11 452.113 1831.69 453.168C1832.27 454.223 1832.56 455.485 1832.56 456.955C1832.56 458.809 1832.09 460.455 1831.13 461.893C1830.18 463.331 1828.8 464.466 1826.99 465.297C1825.19 466.128 1823.01 466.543 1820.45 466.543C1818 466.543 1815.88 466.154 1814.09 465.377C1812.3 464.599 1810.9 463.496 1809.89 462.069C1808.88 460.631 1808.32 458.926 1808.21 456.955H1813.16C1813.26 458.138 1813.64 459.123 1814.32 459.912C1815 460.689 1815.87 461.27 1816.92 461.653C1817.99 462.026 1819.15 462.213 1820.42 462.213C1821.82 462.213 1823.06 461.994 1824.14 461.558C1825.24 461.11 1826.1 460.492 1826.73 459.704C1827.36 458.905 1827.67 457.973 1827.67 456.907C1827.67 455.938 1827.4 455.144 1826.84 454.526C1826.3 453.908 1825.56 453.397 1824.62 452.992C1823.7 452.587 1822.65 452.23 1821.47 451.922L1817.61 450.867C1814.99 450.153 1812.91 449.104 1811.37 447.719C1809.85 446.334 1809.09 444.501 1809.09 442.222C1809.09 440.336 1809.6 438.69 1810.62 437.284C1811.65 435.877 1813.03 434.786 1814.78 434.008C1816.53 433.219 1818.5 432.825 1820.69 432.825C1822.91 432.825 1824.86 433.214 1826.56 433.992C1828.26 434.77 1829.6 435.84 1830.58 437.204C1831.56 438.557 1832.07 440.112 1832.12 441.87H1827.35ZM1848.66 466.495C1846.24 466.495 1844.16 465.979 1842.41 464.945C1840.68 463.901 1839.33 462.436 1838.39 460.551C1837.45 458.654 1836.98 456.433 1836.98 453.887C1836.98 451.373 1837.45 449.157 1838.39 447.239C1839.33 445.322 1840.65 443.825 1842.35 442.749C1844.05 441.673 1846.05 441.135 1848.32 441.135C1849.71 441.135 1851.05 441.364 1852.35 441.822C1853.65 442.28 1854.82 442.999 1855.85 443.979C1856.88 444.96 1857.7 446.233 1858.3 447.799C1858.89 449.354 1859.19 451.245 1859.19 453.472V455.165H1839.68V451.586H1854.51C1854.51 450.329 1854.25 449.216 1853.74 448.246C1853.23 447.266 1852.51 446.494 1851.58 445.929C1850.67 445.364 1849.59 445.082 1848.36 445.082C1847.01 445.082 1845.84 445.412 1844.84 446.073C1843.85 446.723 1843.08 447.575 1842.54 448.63C1842.01 449.674 1841.74 450.808 1841.74 452.033V454.83C1841.74 456.471 1842.03 457.866 1842.6 459.017C1843.19 460.167 1844 461.046 1845.05 461.653C1846.09 462.25 1847.31 462.548 1848.71 462.548C1849.61 462.548 1850.44 462.42 1851.19 462.165C1851.93 461.898 1852.58 461.504 1853.12 460.982C1853.66 460.46 1854.08 459.816 1854.37 459.049L1858.89 459.864C1858.53 461.195 1857.88 462.362 1856.94 463.363C1856.01 464.354 1854.84 465.126 1853.44 465.68C1852.04 466.224 1850.45 466.495 1848.66 466.495ZM1864.49 466V441.455H1869.11V445.354H1869.37C1869.81 444.033 1870.6 442.994 1871.73 442.238C1872.87 441.471 1874.16 441.087 1875.6 441.087C1875.9 441.087 1876.25 441.098 1876.65 441.119C1877.07 441.14 1877.39 441.167 1877.63 441.199V445.769C1877.44 445.716 1877.1 445.657 1876.61 445.593C1876.12 445.519 1875.63 445.482 1875.14 445.482C1874.01 445.482 1873 445.721 1872.12 446.201C1871.24 446.669 1870.55 447.325 1870.04 448.166C1869.53 448.997 1869.27 449.945 1869.27 451.011V466H1864.49ZM1903.51 441.455L1894.61 466H1889.49L1880.58 441.455H1885.71L1891.92 460.343H1892.18L1898.38 441.455H1903.51ZM1917.74 466.495C1915.32 466.495 1913.24 465.979 1911.49 464.945C1909.76 463.901 1908.42 462.436 1907.47 460.551C1906.53 458.654 1906.06 456.433 1906.06 453.887C1906.06 451.373 1906.53 449.157 1907.47 447.239C1908.42 445.322 1909.74 443.825 1911.43 442.749C1913.13 441.673 1915.13 441.135 1917.41 441.135C1918.79 441.135 1920.13 441.364 1921.43 441.822C1922.73 442.28 1923.9 442.999 1924.93 443.979C1925.97 444.96 1926.78 446.233 1927.38 447.799C1927.98 449.354 1928.27 451.245 1928.27 453.472V455.165H1908.76V451.586H1923.59C1923.59 450.329 1923.34 449.216 1922.82 448.246C1922.31 447.266 1921.59 446.494 1920.67 445.929C1919.75 445.364 1918.67 445.082 1917.44 445.082C1916.1 445.082 1914.92 445.412 1913.92 446.073C1912.93 446.723 1912.17 447.575 1911.62 448.63C1911.09 449.674 1910.82 450.808 1910.82 452.033V454.83C1910.82 456.471 1911.11 457.866 1911.69 459.017C1912.27 460.167 1913.09 461.046 1914.13 461.653C1915.18 462.25 1916.39 462.548 1917.79 462.548C1918.7 462.548 1919.52 462.42 1920.27 462.165C1921.01 461.898 1921.66 461.504 1922.2 460.982C1922.74 460.46 1923.16 459.816 1923.45 459.049L1927.97 459.864C1927.61 461.195 1926.96 462.362 1926.02 463.363C1925.09 464.354 1923.93 465.126 1922.52 465.68C1921.12 466.224 1919.53 466.495 1917.74 466.495ZM1933.57 466V441.455H1938.19V445.354H1938.45C1938.9 444.033 1939.68 442.994 1940.81 442.238C1941.95 441.471 1943.24 441.087 1944.68 441.087C1944.98 441.087 1945.33 441.098 1945.74 441.119C1946.15 441.14 1946.48 441.167 1946.71 441.199V445.769C1946.52 445.716 1946.18 445.657 1945.69 445.593C1945.2 445.519 1944.71 445.482 1944.22 445.482C1943.09 445.482 1942.08 445.721 1941.2 446.201C1940.32 446.669 1939.63 447.325 1939.12 448.166C1938.61 448.997 1938.35 449.945 1938.35 451.011V466H1933.57Z" fill="white"/>
<rect x="324" y="68" width="397" height="604" rx="32" fill="url(#paint1_linear_3791_169)"/>
<path fill-rule="evenodd" clip-rule="evenodd" d="M488.016 278C481.112 278 475.516 283.596 475.516 290.5V337.419C475.168 337.943 474.867 338.504 474.618 339.099L468.336 354.148C465.586 360.735 470.425 368 477.564 368H567.436C574.575 368 579.414 360.735 576.664 354.148L570.382 339.099C570.133 338.504 569.832 337.943 569.484 337.419V290.5C569.484 283.596 563.888 278 556.984 278H488.016ZM561.153 342.951H483.847L477.564 358H567.436L561.153 342.951ZM559.484 332.951V290.5C559.484 289.119 558.365 288 556.984 288H488.016C486.635 288 485.516 289.119 485.516 290.5V332.951H559.484Z" fill="white"/>
<path d="M490.502 443.915H485.516C485.324 442.85 484.967 441.913 484.445 441.103C483.923 440.293 483.284 439.606 482.528 439.042C481.771 438.477 480.924 438.051 479.987 437.763C479.06 437.475 478.075 437.332 477.031 437.332C475.145 437.332 473.456 437.806 471.965 438.754C470.484 439.702 469.312 441.092 468.449 442.925C467.597 444.757 467.171 446.994 467.171 449.636C467.171 452.3 467.597 454.548 468.449 456.38C469.312 458.212 470.489 459.597 471.981 460.535C473.472 461.472 475.15 461.941 477.015 461.941C478.048 461.941 479.028 461.803 479.955 461.526C480.892 461.238 481.739 460.817 482.496 460.263C483.252 459.709 483.891 459.033 484.413 458.234C484.946 457.424 485.314 456.497 485.516 455.453L490.502 455.469C490.235 457.078 489.719 458.559 488.952 459.912C488.195 461.254 487.221 462.415 486.027 463.395C484.845 464.365 483.492 465.116 481.968 465.648C480.445 466.181 478.783 466.447 476.983 466.447C474.149 466.447 471.624 465.776 469.408 464.434C467.192 463.081 465.445 461.147 464.167 458.633C462.899 456.119 462.265 453.12 462.265 449.636C462.265 446.142 462.904 443.143 464.183 440.64C465.461 438.125 467.208 436.197 469.424 434.855C471.64 433.502 474.159 432.825 476.983 432.825C478.719 432.825 480.338 433.076 481.841 433.576C483.353 434.066 484.712 434.791 485.916 435.75C487.119 436.698 488.115 437.859 488.904 439.233C489.692 440.597 490.225 442.158 490.502 443.915ZM500.805 433.273V466H496.027V433.273H500.805ZM507.233 466V441.455H512.011V466H507.233ZM509.646 437.667C508.815 437.667 508.101 437.39 507.505 436.836C506.919 436.272 506.626 435.6 506.626 434.823C506.626 434.034 506.919 433.363 507.505 432.809C508.101 432.245 508.815 431.962 509.646 431.962C510.477 431.962 511.185 432.245 511.771 432.809C512.368 433.363 512.666 434.034 512.666 434.823C512.666 435.6 512.368 436.272 511.771 436.836C511.185 437.39 510.477 437.667 509.646 437.667ZM529.018 466.495C526.6 466.495 524.517 465.979 522.77 464.945C521.033 463.901 519.691 462.436 518.743 460.551C517.805 458.654 517.336 456.433 517.336 453.887C517.336 451.373 517.805 449.157 518.743 447.239C519.691 445.322 521.012 443.825 522.706 442.749C524.41 441.673 526.402 441.135 528.682 441.135C530.067 441.135 531.41 441.364 532.709 441.822C534.009 442.28 535.176 442.999 536.209 443.979C537.242 444.96 538.057 446.233 538.654 447.799C539.25 449.354 539.549 451.245 539.549 453.472V455.165H520.037V451.586H534.867C534.867 450.329 534.611 449.216 534.1 448.246C533.588 447.266 532.869 446.494 531.942 445.929C531.026 445.364 529.95 445.082 528.714 445.082C527.372 445.082 526.2 445.412 525.199 446.073C524.208 446.723 523.441 447.575 522.898 448.63C522.365 449.674 522.099 450.808 522.099 452.033V454.83C522.099 456.471 522.386 457.866 522.961 459.017C523.547 460.167 524.362 461.046 525.406 461.653C526.45 462.25 527.67 462.548 529.066 462.548C529.971 462.548 530.797 462.42 531.543 462.165C532.288 461.898 532.933 461.504 533.476 460.982C534.02 460.46 534.435 459.816 534.723 459.049L539.245 459.864C538.883 461.195 538.233 462.362 537.296 463.363C536.369 464.354 535.202 465.126 533.796 465.68C532.4 466.224 530.808 466.495 529.018 466.495ZM549.628 451.426V466H544.85V441.455H549.436V445.45H549.74C550.305 444.15 551.189 443.106 552.393 442.317C553.607 441.529 555.136 441.135 556.979 441.135C558.652 441.135 560.117 441.487 561.374 442.19C562.631 442.882 563.606 443.915 564.298 445.29C564.99 446.664 565.337 448.363 565.337 450.387V466H560.559V450.963C560.559 449.184 560.095 447.793 559.168 446.792C558.242 445.78 556.968 445.274 555.349 445.274C554.241 445.274 553.256 445.513 552.393 445.993C551.541 446.472 550.864 447.175 550.363 448.102C549.873 449.018 549.628 450.126 549.628 451.426ZM583.202 441.455V445.29H569.795V441.455H583.202ZM573.391 435.574H578.169V458.793C578.169 459.72 578.307 460.418 578.584 460.886C578.861 461.344 579.218 461.659 579.655 461.829C580.102 461.989 580.587 462.069 581.109 462.069C581.493 462.069 581.828 462.042 582.116 461.989C582.403 461.936 582.627 461.893 582.787 461.861L583.65 465.808C583.373 465.915 582.979 466.021 582.467 466.128C581.956 466.245 581.317 466.309 580.55 466.32C579.293 466.341 578.121 466.117 577.034 465.648C575.947 465.18 575.069 464.455 574.397 463.475C573.726 462.495 573.391 461.265 573.391 459.784V435.574Z" fill="white"/>
<defs>
<linearGradient id="paint0_linear_3791_169" x1="1629.02" y1="-24.6433" x2="1587.83" y2="703.882" gradientUnits="userSpaceOnUse">
<stop offset="0.0061055" stop-color="#0085FF"/>
<stop offset="1" stop-color="#00C2FF"/>
</linearGradient>
<linearGradient id="paint1_linear_3791_169" x1="274.746" y1="-24.6433" x2="233.558" y2="703.882" gradientUnits="userSpaceOnUse">
<stop offset="0.0061055" stop-color="#0085FF"/>
<stop offset="1" stop-color="#00C2FF"/>
</linearGradient>
</defs>
</svg>
