<svg width="28" height="29" viewBox="0 0 28 29" fill="none" xmlns="http://www.w3.org/2000/svg">
<path fill-rule="evenodd" clip-rule="evenodd" d="M22.1667 5.60449C20.9363 5.60449 19.8704 6.17028 19.1244 6.76017C18.7507 7.05563 18.4282 7.37938 18.1735 7.69287C15.8932 7.02685 12.8985 7.08523 10.3481 7.93996C7.7136 8.82288 5.25506 10.6833 4.75791 13.7711H4.66675C4.02775 13.7711 3.50008 13.2435 3.50008 12.6045V11.4378C3.50008 10.7935 2.97775 10.2711 2.33341 10.2711C1.68908 10.2711 1.16675 10.7935 1.16675 11.4378V12.6045C1.16675 14.5321 2.73908 16.1045 4.66675 16.1045H4.6828C4.71208 16.7576 4.79427 17.425 5.02421 18.0803C5.36418 19.0493 5.98712 19.9053 7.00008 20.7522V24.2712C7.00008 24.9155 7.52242 25.4378 8.16675 25.4378H12.8334C13.4777 25.4378 14.0001 24.9155 14.0001 24.2712V23.1045H15.1667V24.2712C15.1667 24.9155 15.6891 25.4378 16.3334 25.4378H21.0001C21.6444 25.4378 22.1667 24.9155 22.1667 24.2712V20.3035C22.9357 19.8588 23.6399 19.2992 24.1075 18.4378H25.6667C26.3111 18.4378 26.8334 17.9155 26.8334 17.2712V12.6045C26.8334 11.9602 26.3111 11.4378 25.6667 11.4378H24.3338C24.1132 10.7124 23.708 10.1945 23.3334 9.79492V6.77116C23.3334 6.12683 22.8111 5.60449 22.1667 5.60449ZM11.6667 21.9378V23.1045H9.33341V20.1878C9.33341 19.8206 9.16052 19.4748 8.86675 19.2545C7.826 18.4739 7.41991 17.8606 7.22595 17.3078C7.01203 16.6981 7.00008 16.0322 7.00008 14.9378C7.00008 12.5478 8.64479 10.9717 11.0896 10.1524C13.5612 9.32402 16.4696 9.43214 18.2072 10.1768C18.5071 10.3053 18.8471 10.3024 19.1447 10.1688C19.4423 10.0351 19.6704 9.78294 19.7735 9.47342C19.7729 9.47542 19.7734 9.47436 19.7755 9.47033C19.7862 9.44909 19.8386 9.34547 19.975 9.17581C20.1225 8.99255 20.3263 8.78441 20.5716 8.59048C20.7107 8.48048 20.8543 8.3818 21.0001 8.29648V10.2712C21.0001 10.5806 21.123 10.8773 21.3418 11.0961C21.9129 11.6672 22.1667 11.9508 22.1667 12.6045C22.1667 13.2488 22.6891 13.7712 23.3334 13.7712H24.5001V16.1045H23.3334C22.8182 16.1045 22.364 16.4424 22.216 16.9359C22.0101 17.6219 21.5727 18.0138 20.4783 18.561C20.0831 18.7586 19.8334 19.1626 19.8334 19.6045V23.1045H17.5001V21.9378C17.5001 21.2935 16.9777 20.7712 16.3334 20.7712H12.8334C12.1891 20.7712 11.6667 21.2935 11.6667 21.9378Z" fill="url(#paint0_linear_470_20556)"/>
<path fill-rule="evenodd" clip-rule="evenodd" d="M18 14.1042C18 13.4598 18.5223 12.9375 19.1667 12.9375H19.1783C19.8227 12.9375 20.345 13.4598 20.345 14.1042C20.345 14.7485 19.8227 15.2708 19.1783 15.2708H19.1667C18.5223 15.2708 18 14.7485 18 14.1042Z" fill="url(#paint1_linear_470_20556)"/>
<defs>
<linearGradient id="paint0_linear_470_20556" x1="23.5" y1="3.3031" x2="-0.543657" y2="28.9497" gradientUnits="userSpaceOnUse">
<stop stop-color="#00A876"/>
<stop offset="1" stop-color="#75FFD6"/>
</linearGradient>
<linearGradient id="paint1_linear_470_20556" x1="20.0404" y1="12.6667" x2="17.2554" y2="14.9738" gradientUnits="userSpaceOnUse">
<stop stop-color="#00A876"/>
<stop offset="1" stop-color="#75FFD6"/>
</linearGradient>
</defs>
</svg>
