<svg width="28" height="28" viewBox="0 0 28 28" fill="none" xmlns="http://www.w3.org/2000/svg">
<path fill-rule="evenodd" clip-rule="evenodd" d="M10.4999 10.4997C10.4999 9.85534 9.97758 9.33301 9.33325 9.33301C8.68892 9.33301 8.16659 9.85534 8.16659 10.4997V11.6663H6.99992C6.35559 11.6663 5.83325 12.1887 5.83325 12.833C5.83325 13.4773 6.35559 13.9997 6.99992 13.9997H8.16659V15.1663C8.16659 15.8107 8.68892 16.333 9.33325 16.333C9.97758 16.333 10.4999 15.8107 10.4999 15.1663V13.9997H11.6666C12.3109 13.9997 12.8333 13.4773 12.8333 12.833C12.8333 12.1887 12.3109 11.6663 11.6666 11.6663H10.4999V10.4997Z" fill="url(#paint0_linear_470_20585)"/>
<path fill-rule="evenodd" clip-rule="evenodd" d="M16.3333 13.9997C16.3333 13.3553 16.8556 12.833 17.4999 12.833H17.5116C18.1559 12.833 18.6783 13.3553 18.6783 13.9997C18.6783 14.644 18.1559 15.1663 17.5116 15.1663H17.4999C16.8556 15.1663 16.3333 14.644 16.3333 13.9997Z" fill="url(#paint1_linear_470_20585)"/>
<path fill-rule="evenodd" clip-rule="evenodd" d="M19.8333 11.6667C19.8333 11.0223 20.3556 10.5 20.9999 10.5H21.0116C21.6559 10.5 22.1783 11.0223 22.1783 11.6667C22.1783 12.311 21.6559 12.8333 21.0116 12.8333H20.9999C20.3556 12.8333 19.8333 12.311 19.8333 11.6667Z" fill="url(#paint2_linear_470_20585)"/>
<path d="M20.2066 5.83301H7.79325C6.63858 5.83328 5.525 6.26161 4.66779 7.03522C3.81058 7.80882 3.27061 8.87275 3.15225 10.0213C3.14525 10.082 3.14059 10.1392 3.13242 10.1987C3.03792 10.985 2.33325 16.865 2.33325 18.6663C2.33325 19.5946 2.702 20.4848 3.35838 21.1412C4.01476 21.7976 4.90499 22.1663 5.83325 22.1663C6.99992 22.1663 7.58325 21.583 8.16659 20.9997L9.81625 19.35C10.2537 18.9124 10.8471 18.6665 11.4659 18.6663H16.5339C17.1527 18.6665 17.7461 18.9124 18.1836 19.35L19.8333 20.9997C20.4166 21.583 20.9999 22.1663 22.1666 22.1663C23.0948 22.1663 23.9851 21.7976 24.6415 21.1412C25.2978 20.4848 25.6666 19.5946 25.6666 18.6663C25.6666 16.8638 24.9619 10.985 24.8674 10.1987C24.8593 10.1403 24.8546 10.082 24.8476 10.0225C24.7295 8.8737 24.1896 7.80949 23.3324 7.03565C22.4752 6.26181 21.3614 5.83331 20.2066 5.83301Z" stroke="url(#paint3_linear_470_20585)" stroke-width="2.33333" stroke-linecap="round" stroke-linejoin="round"/>
<defs>
<linearGradient id="paint0_linear_470_20585" x1="11.9241" y1="8.52075" x2="3.57688" y2="15.4009" gradientUnits="userSpaceOnUse">
<stop stop-color="#00A876"/>
<stop offset="1" stop-color="#75FFD6"/>
</linearGradient>
<linearGradient id="paint1_linear_470_20585" x1="18.3737" y1="12.5623" x2="15.5887" y2="14.8693" gradientUnits="userSpaceOnUse">
<stop stop-color="#00A876"/>
<stop offset="1" stop-color="#75FFD6"/>
</linearGradient>
<linearGradient id="paint2_linear_470_20585" x1="21.8737" y1="10.2292" x2="19.0887" y2="12.5363" gradientUnits="userSpaceOnUse">
<stop stop-color="#00A876"/>
<stop offset="1" stop-color="#75FFD6"/>
</linearGradient>
<linearGradient id="paint3_linear_470_20585" x1="22.6362" y1="3.93774" x2="3.05622" y2="26.993" gradientUnits="userSpaceOnUse">
<stop stop-color="#00A876"/>
<stop offset="1" stop-color="#75FFD6"/>
</linearGradient>
</defs>
</svg>
