<svg width="20" height="20" viewBox="0 0 20 20" fill="none" xmlns="http://www.w3.org/2000/svg">
<path fill-rule="evenodd" clip-rule="evenodd" d="M9.33106 4.3C8.33109 4.3 7.52045 5.11064 7.52045 6.11061C7.52045 7.11058 8.33109 7.92121 9.33106 7.92121C10.331 7.92121 11.1417 7.11058 11.1417 6.11061C11.1417 5.11064 10.331 4.3 9.33106 4.3ZM5.22045 6.11061C5.22045 3.84038 7.06084 2 9.33106 2C11.6013 2 13.4417 3.84038 13.4417 6.11061C13.4417 8.38083 11.6013 10.2212 9.33106 10.2212C7.06084 10.2212 5.22045 8.38083 5.22045 6.11061ZM4.20397 12.0858C4.97486 11.3149 6.0204 10.8818 7.11061 10.8818H11.5515C12.6417 10.8818 13.6873 11.3149 14.4581 12.0858C14.9073 12.5349 14.9073 13.263 14.4581 13.7121C14.009 14.1612 13.2809 14.1612 12.8318 13.7121C12.4922 13.3726 12.0317 13.1818 11.5515 13.1818H7.11061C6.6304 13.1818 6.16987 13.3726 5.83031 13.7121C5.49076 14.0517 5.3 14.5122 5.3 14.9924V16.4727C5.3 17.1079 4.78513 17.6227 4.15 17.6227C3.51487 17.6227 3 17.1079 3 16.4727V14.9924C3 13.9022 3.43308 12.8567 4.20397 12.0858ZM17.5457 14.9598C17.9948 14.5107 17.9948 13.7825 17.5457 13.3334C17.0966 12.8843 16.3685 12.8843 15.9194 13.3334L13.7719 15.4808L13.1048 14.8137C12.6557 14.3646 11.9276 14.3646 11.4785 14.8137C11.0294 15.2628 11.0294 15.991 11.4785 16.4401L12.9588 17.9204C13.4079 18.3695 14.136 18.3695 14.5851 17.9204L17.5457 14.9598Z" fill="#646D7A"/>
</svg>
