<svg width="20" height="20" viewBox="0 0 20 20" fill="none" xmlns="http://www.w3.org/2000/svg">
<path fill-rule="evenodd" clip-rule="evenodd" d="M3.79175 2.68241C4.2619 2.23935 4.88753 2 5.52834 2H11.4723H11.8438C12.0987 2 12.344 2.09739 12.5296 2.27225L16.616 6.12333C16.8165 6.31228 16.9302 6.57558 16.9302 6.85109V7.19317L16.9302 7.20119L16.9302 7.2092V15.6036C16.9302 16.26 16.653 16.8766 16.1808 17.3215C15.7107 17.7646 15.085 18.0039 14.4442 18.0039H5.52834C4.88753 18.0039 4.2619 17.7646 3.79175 17.3215C3.3196 16.8766 3.04236 16.26 3.04236 15.6036V4.4004C3.04236 3.74398 3.3196 3.12737 3.79175 2.68241ZM5.52834 4H10.4723V7.20119C10.4723 7.75347 10.92 8.20119 11.4723 8.20119H14.9302V15.6036C14.9302 15.69 14.8943 15.7857 14.8091 15.866C14.7219 15.9482 14.5916 16.004 14.4442 16.004H5.52834C5.38094 16.004 5.25064 15.9482 5.16343 15.866C5.07823 15.7857 5.04236 15.69 5.04236 15.6036V4.4004C5.04236 4.31399 5.07824 4.21821 5.16343 4.13792C5.25064 4.05574 5.38094 4 5.52834 4ZM12.4723 6.20119H13.7825L12.4723 4.96643V6.20119ZM7.01426 9.70219C6.46197 9.70219 6.01426 10.1499 6.01426 10.7022C6.01426 11.2545 6.46197 11.7022 7.01426 11.7022H12.9582C13.5105 11.7022 13.9582 11.2545 13.9582 10.7022C13.9582 10.1499 13.5105 9.70219 12.9582 9.70219H7.01426ZM6.01426 13.503C6.01426 12.9507 6.46197 12.503 7.01426 12.503H12.9582C13.5105 12.503 13.9582 12.9507 13.9582 13.503C13.9582 14.0552 13.5105 14.503 12.9582 14.503H7.01426C6.46197 14.503 6.01426 14.0552 6.01426 13.503ZM7.01426 6.9014C6.46197 6.9014 6.01426 7.34912 6.01426 7.9014C6.01426 8.45369 6.46197 8.9014 7.01426 8.9014H8.50024C9.05252 8.9014 9.50024 8.45369 9.50024 7.9014C9.50024 7.34912 9.05252 6.9014 8.50024 6.9014H7.01426Z" fill="#646D7A"/>
</svg>
