<svg width="20" height="20" viewBox="0 0 20 20" fill="none" xmlns="http://www.w3.org/2000/svg">
<path fill-rule="evenodd" clip-rule="evenodd" d="M4 6.42877C4 6.17274 4.19815 6 4.40007 6H15.6006C15.8025 6 16.0007 6.17274 16.0007 6.42877V7.57234H4V6.42877ZM2 8.57234V6.42877C2 5.10663 3.05551 4 4.40007 4H15.6006C16.9452 4 18.0007 5.10663 18.0007 6.42877V8.57234V13.5726C18.0007 14.8948 16.9452 16.0014 15.6006 16.0014H4.40007C3.05551 16.0014 2 14.8948 2 13.5726V8.57234ZM16.0007 9.57234V13.5726C16.0007 13.8287 15.8025 14.0014 15.6006 14.0014H4.40007C4.19815 14.0014 4 13.8287 4 13.5726V9.57234H16.0007Z" fill="#646D7A"/>
</svg>
