<svg width="1024" height="1024" viewBox="0 0 1024 1024" fill="none" xmlns="http://www.w3.org/2000/svg">
<rect width="1024" height="1024" fill="black"/>
<path d="M778.9 394.3C763.3 359.5 739.2 329.5 708 307.1C676.8 284.6 640.3 270.4 602.1 266.1C563.9 261.7 525.4 267.4 490.1 282.8C454.8 298.1 424.1 322.7 401.1 354.2C378 385.7 363.8 423.1 359.9 462.4C356 501.7 362.4 541.3 378.3 577.4C394.3 613.5 419.5 644.8 451.4 668.3C483.3 691.8 521 706.7 560.4 711.2" stroke="white" stroke-width="36" stroke-linecap="round" stroke-linejoin="round"/>
<circle cx="259" cy="508" r="54" fill="white"/>
<circle cx="764" cy="762" r="54" fill="white"/>
<circle cx="512" cy="503" r="54" fill="white"/>
</svg>
