<svg width="512" height="513" viewBox="0 0 512 513" fill="none" xmlns="http://www.w3.org/2000/svg">
<path d="M416.882 296.526L165.689 398.452C162.901 399.58 159.856 397.534 159.856 394.529V153.429C159.856 149.16 162.442 145.325 166.389 143.722L417.591 41.708C420.378 40.5802 423.423 42.6263 423.423 45.631V286.811C423.423 291.081 420.837 294.915 416.882 296.526Z" fill="black" stroke="#A3A3A3" stroke-width="0.895463" stroke-miterlimit="10"/>
<path d="M421.772 298.943L170.578 400.869C167.791 401.997 164.746 399.951 164.746 396.946V155.846C164.746 151.577 167.332 147.742 171.279 146.139L422.489 44.1251C425.276 42.9973 428.321 45.0434 428.321 48.0481V289.228C428.321 293.498 425.735 297.332 421.78 298.943H421.772Z" fill="black" stroke="#A3A3A3" stroke-width="0.895463" stroke-miterlimit="10"/>
<path d="M416.792 286.398C416.792 287.128 416.349 287.785 415.673 288.058L179.271 383.681C178.093 384.158 176.808 383.291 176.808 382.021V161.849C176.808 160.389 177.693 159.076 179.046 158.529L414.329 63.3077C415.507 62.8313 416.792 63.6978 416.792 64.9679V286.398Z" stroke="#A3A3A3" stroke-width="0.895463" stroke-miterlimit="10"/>
<rect x="0.415708" y="0.281448" width="112.156" height="29.0853" rx="13.8797" transform="matrix(0.928477 -0.371391 0 1 187.298 176.165)" fill="#3A0527" stroke="#F213A4" stroke-width="0.895463"/>
<path d="M208.491 159.61C220.072 154.977 229.461 161.334 229.461 173.807C229.461 186.281 220.072 200.149 208.491 204.782C196.909 209.414 187.52 203.058 187.52 190.584C187.52 178.11 196.909 164.242 208.491 159.61Z" fill="#3A0527"/>
<path d="M208.491 159.61C220.072 154.977 229.461 161.334 229.461 173.807C229.461 186.281 220.072 200.149 208.491 204.782C196.909 209.414 187.52 203.058 187.52 190.584C187.52 178.11 196.909 164.242 208.491 159.61Z" stroke="#F213A4" stroke-width="0.895463"/>
<path d="M241.753 172.851C241.406 172.983 241.059 173.051 240.711 173.053C240.364 173.056 240.047 172.953 239.761 172.744C239.474 172.532 239.244 172.183 239.07 171.698C238.897 171.209 238.81 170.543 238.81 169.701C238.81 168.893 238.88 168.15 239.021 167.47C239.161 166.788 239.365 166.18 239.632 165.645C239.9 165.108 240.222 164.653 240.6 164.279C240.98 163.904 241.409 163.622 241.885 163.431C242.359 163.241 242.781 163.175 243.15 163.232C243.522 163.285 243.825 163.446 244.059 163.714C244.294 163.983 244.445 164.339 244.514 164.783L243.506 165.187C243.412 164.815 243.23 164.548 242.96 164.386C242.69 164.223 242.332 164.232 241.885 164.41C241.229 164.673 240.713 165.186 240.335 165.952C239.96 166.716 239.772 167.654 239.769 168.765L239.835 168.738C239.989 168.424 240.173 168.136 240.385 167.873C240.6 167.606 240.837 167.372 241.096 167.17C241.355 166.969 241.629 166.81 241.918 166.694C242.403 166.5 242.847 166.453 243.249 166.554C243.652 166.651 243.974 166.88 244.217 167.24C244.459 167.597 244.58 168.069 244.58 168.657C244.58 169.221 244.463 169.784 244.229 170.347C243.995 170.906 243.665 171.409 243.241 171.855C242.819 172.296 242.323 172.628 241.753 172.851ZM241.753 171.871C242.1 171.732 242.412 171.514 242.687 171.217C242.965 170.919 243.185 170.58 243.344 170.202C243.507 169.822 243.588 169.439 243.588 169.054C243.588 168.677 243.51 168.365 243.353 168.119C243.198 167.869 242.985 167.707 242.712 167.632C242.442 167.556 242.133 167.588 241.786 167.727C241.524 167.831 241.28 167.985 241.054 168.188C240.828 168.389 240.63 168.619 240.459 168.881C240.291 169.141 240.159 169.415 240.062 169.703C239.966 169.988 239.918 170.266 239.918 170.54C239.918 170.902 239.996 171.209 240.153 171.46C240.313 171.711 240.531 171.878 240.806 171.96C241.085 172.042 241.4 172.012 241.753 171.871ZM248.917 169.985C248.35 170.212 247.848 170.304 247.413 170.262C246.98 170.215 246.643 170.049 246.4 169.763C246.158 169.474 246.038 169.083 246.04 168.589C246.038 168.204 246.108 167.82 246.251 167.436C246.394 167.05 246.59 166.697 246.838 166.378C247.089 166.055 247.369 165.802 247.677 165.619V165.566C247.272 165.615 246.95 165.499 246.71 165.218C246.47 164.934 246.352 164.55 246.355 164.065C246.352 163.603 246.461 163.146 246.681 162.692C246.902 162.239 247.205 161.83 247.59 161.465C247.979 161.099 248.421 160.816 248.917 160.618C249.408 160.422 249.846 160.352 250.232 160.408C250.618 160.465 250.921 160.631 251.141 160.908C251.364 161.184 251.477 161.553 251.48 162.015C251.477 162.5 251.355 162.981 251.112 163.457C250.872 163.93 250.554 164.302 250.157 164.574V164.627C250.463 164.564 250.739 164.595 250.984 164.72C251.229 164.841 251.425 165.037 251.571 165.308C251.717 165.576 251.791 165.903 251.794 166.288C251.791 166.781 251.667 167.27 251.422 167.754C251.18 168.234 250.842 168.67 250.409 169.063C249.98 169.452 249.482 169.759 248.917 169.985ZM248.917 169.005C249.3 168.852 249.631 168.653 249.909 168.408C250.188 168.163 250.403 167.889 250.554 167.585C250.706 167.281 250.783 166.965 250.786 166.638C250.783 166.294 250.7 166.023 250.538 165.824C250.375 165.625 250.153 165.506 249.872 165.467C249.594 165.427 249.276 165.479 248.917 165.622C248.556 165.766 248.234 165.971 247.95 166.236C247.669 166.5 247.447 166.796 247.285 167.125C247.125 167.453 247.046 167.789 247.049 168.132C247.046 168.46 247.119 168.716 247.268 168.899C247.42 169.082 247.636 169.184 247.917 169.205C248.198 169.226 248.531 169.16 248.917 169.005ZM248.917 164.678C249.22 164.557 249.489 164.384 249.723 164.16C249.96 163.934 250.146 163.678 250.281 163.389C250.416 163.101 250.485 162.799 250.488 162.483C250.485 162.175 250.418 161.934 250.285 161.758C250.153 161.579 249.97 161.475 249.736 161.444C249.501 161.41 249.229 161.455 248.917 161.58C248.6 161.706 248.323 161.881 248.086 162.103C247.849 162.323 247.666 162.574 247.537 162.858C247.407 163.138 247.344 163.432 247.347 163.739C247.344 164.055 247.409 164.304 247.541 164.485C247.676 164.666 247.862 164.774 248.099 164.81C248.336 164.845 248.609 164.802 248.917 164.678ZM254.588 166.345L254.522 166.852C254.475 167.21 254.404 167.6 254.307 168.025C254.214 168.448 254.116 168.851 254.014 169.233C253.912 169.615 253.828 169.92 253.762 170.148L253.018 170.446C253.054 170.242 253.1 169.972 253.158 169.637C253.216 169.303 253.274 168.931 253.332 168.522C253.392 168.115 253.442 167.703 253.481 167.287L253.53 166.768L254.588 166.345ZM258.845 166.014C258.222 166.263 257.692 166.293 257.253 166.103C256.815 165.91 256.48 165.511 256.249 164.906C256.018 164.298 255.902 163.499 255.902 162.508C255.902 161.522 256.018 160.635 256.249 159.845C256.483 159.05 256.819 158.382 257.258 157.838C257.698 157.291 258.228 156.894 258.845 156.647C259.462 156.4 259.99 156.375 260.428 156.57C260.869 156.762 261.205 157.162 261.437 157.77C261.671 158.373 261.788 159.168 261.788 160.153C261.788 161.144 261.672 162.037 261.441 162.83C261.209 163.62 260.874 164.286 260.436 164.83C259.998 165.37 259.468 165.765 258.845 166.014ZM258.845 165.034C259.462 164.787 259.942 164.275 260.283 163.497C260.625 162.72 260.796 161.737 260.796 160.55C260.796 159.761 260.717 159.12 260.56 158.628C260.406 158.134 260.183 157.801 259.891 157.627C259.601 157.451 259.253 157.446 258.845 157.609C258.233 157.853 257.755 158.37 257.411 159.157C257.066 159.942 256.894 160.927 256.894 162.111C256.894 162.9 256.971 163.54 257.125 164.03C257.28 164.521 257.501 164.852 257.791 165.024C258.083 165.195 258.434 165.199 258.845 165.034ZM266.12 163.104C265.497 163.353 264.966 163.383 264.528 163.193C264.09 163 263.755 162.601 263.524 161.996C263.292 161.388 263.177 160.589 263.177 159.598C263.177 158.612 263.292 157.725 263.524 156.935C263.758 156.14 264.094 155.472 264.532 154.928C264.973 154.381 265.502 153.984 266.12 153.737C266.737 153.49 267.265 153.465 267.703 153.66C268.144 153.852 268.48 154.252 268.711 154.86C268.946 155.463 269.063 156.258 269.063 157.243C269.063 158.235 268.947 159.127 268.716 159.92C268.484 160.71 268.149 161.376 267.711 161.92C267.273 162.46 266.742 162.855 266.12 163.104ZM266.12 162.124C266.737 161.877 267.216 161.365 267.558 160.587C267.9 159.81 268.071 158.827 268.071 157.64C268.071 156.851 267.992 156.21 267.835 155.718C267.681 155.224 267.458 154.891 267.165 154.717C266.876 154.542 266.528 154.536 266.12 154.699C265.508 154.943 265.03 155.46 264.685 156.247C264.341 157.032 264.169 158.017 264.169 159.201C264.169 159.99 264.246 160.63 264.4 161.12C264.555 161.611 264.776 161.942 265.066 162.114C265.358 162.285 265.709 162.289 266.12 162.124ZM273.395 160.194C272.772 160.443 272.241 160.473 271.803 160.283C271.365 160.09 271.03 159.691 270.799 159.086C270.567 158.479 270.452 157.679 270.452 156.688C270.452 155.702 270.567 154.815 270.799 154.025C271.033 153.23 271.369 152.562 271.807 152.019C272.248 151.471 272.777 151.074 273.395 150.827C274.012 150.58 274.54 150.555 274.978 150.75C275.419 150.942 275.755 151.342 275.986 151.95C276.221 152.553 276.338 153.348 276.338 154.333C276.338 155.325 276.222 156.217 275.99 157.01C275.759 157.8 275.424 158.466 274.986 159.01C274.548 159.55 274.017 159.945 273.395 160.194ZM273.395 159.214C274.012 158.968 274.491 158.455 274.833 157.677C275.175 156.9 275.346 155.917 275.346 154.73C275.346 153.941 275.267 153.3 275.11 152.808C274.956 152.314 274.732 151.981 274.44 151.807C274.151 151.632 273.802 151.626 273.395 151.789C272.783 152.033 272.305 152.55 271.96 153.337C271.616 154.122 271.444 155.107 271.444 156.291C271.444 157.08 271.521 157.72 271.675 158.211C271.829 158.701 272.051 159.032 272.341 159.204C272.633 159.375 272.984 159.379 273.395 159.214Z" fill="#F213A4"/>
<path d="M84.2546 459.184L83.6997 286.75C83.6879 283.079 85.9179 279.773 89.3259 278.408L187.577 239.07C192.283 237.186 197.404 240.651 197.404 245.72L197.403 419.454C197.403 422.379 195.625 425.01 192.911 426.101L94.0892 465.809C89.3913 467.696 84.2709 464.247 84.2546 459.184Z" fill="#3A0527" stroke="#F213A4" stroke-width="0.895463"/>
<path d="M89.6272 460.975L89.0684 287.325C89.0589 284.388 90.8429 281.743 93.5693 280.651L192.95 240.861C197.656 238.976 202.776 242.442 202.776 247.511L202.776 421.245C202.776 424.17 200.998 426.801 198.283 427.892L99.4618 467.599C94.7638 469.487 89.6435 466.038 89.6272 460.975Z" fill="#3A0527" stroke="#F213A4" stroke-width="0.895463"/>
<g clip-path="url(#clip0_5423_1366)">
<path fill-rule="evenodd" clip-rule="evenodd" d="M134.921 361.062C135.393 360.894 135.776 361.164 135.776 361.665V367.052C135.776 367.732 135.978 368.703 136.563 369.343C137.116 369.949 138.049 370.307 139.68 369.727C141.334 369.139 142.287 368.143 142.848 367.2C143.436 366.211 143.648 365.184 143.66 364.567V360.227C143.66 359.727 144.043 359.185 144.514 359.017C144.986 358.849 145.368 359.119 145.368 359.62V363.985C145.353 364.925 145.05 366.398 144.181 367.859C143.283 369.369 141.832 370.775 139.68 371.54C137.504 372.314 136.059 371.861 135.184 370.904C134.341 369.981 134.067 368.636 134.067 367.66V362.272C134.067 361.771 134.45 361.23 134.921 361.062Z" fill="#F213A4"/>
<path fill-rule="evenodd" clip-rule="evenodd" d="M161.455 351.532C161.926 351.364 162.309 351.634 162.309 352.135V357.956C162.293 358.897 161.991 360.37 161.122 361.83C160.224 363.34 158.772 364.746 156.62 365.512C154.444 366.285 152.999 365.833 152.125 364.875C151.281 363.952 151.008 362.608 151.008 361.631V357.61C151.008 357.11 151.39 356.568 151.862 356.4C152.334 356.232 152.716 356.502 152.716 357.003V361.024C152.716 361.704 152.919 362.675 153.503 363.315C154.056 363.92 154.99 364.278 156.62 363.699C158.274 363.11 159.227 362.115 159.788 361.171C160.377 360.182 160.589 359.155 160.601 358.539V352.742C160.601 352.242 160.983 351.7 161.455 351.532Z" fill="#F213A4"/>
<path fill-rule="evenodd" clip-rule="evenodd" d="M125.015 356.512C125.12 356.963 124.833 357.551 124.373 357.827C123.646 358.262 122.534 359.111 121.624 360.192C120.725 361.26 120.101 362.454 120.101 363.699C120.101 365.657 120.382 367.672 121.488 368.893C122.555 370.07 124.513 370.638 128.25 369.309C128.722 369.142 129.104 369.411 129.104 369.912C129.104 370.413 128.722 370.954 128.25 371.122C124.117 372.592 121.574 372.07 120.107 370.45C118.678 368.874 118.393 366.383 118.393 364.306C118.393 362.323 119.414 360.513 120.571 359.14C121.717 357.777 123.073 356.745 123.991 356.195C124.451 355.92 124.909 356.062 125.015 356.512Z" fill="#F213A4"/>
<path fill-rule="evenodd" clip-rule="evenodd" d="M171.567 339.961C171.461 340.486 171.748 340.87 172.208 340.819C172.936 340.737 174.047 340.796 174.957 341.229C175.857 341.658 176.481 342.408 176.481 343.653C176.481 345.61 176.199 347.826 175.093 349.833C174.027 351.769 172.068 353.73 168.331 355.058C167.859 355.226 167.477 355.768 167.477 356.268C167.477 356.769 167.859 357.039 168.331 356.871C172.464 355.402 175.007 353.072 176.475 350.408C177.903 347.816 178.189 345.122 178.189 343.045C178.189 341.062 177.167 339.979 176.011 339.428C174.864 338.881 173.508 338.813 172.59 338.916C172.13 338.968 171.672 339.435 171.567 339.961Z" fill="#F213A4"/>
<path fill-rule="evenodd" clip-rule="evenodd" d="M128.279 360.701C128.751 360.533 129.133 360.803 129.133 361.304V369.232L129.133 369.259C129.071 371.464 129.891 374.551 132.63 376.412C135.355 378.264 140.063 378.956 147.915 376.164C148.386 375.996 148.769 376.266 148.769 376.767C148.769 377.267 148.386 377.809 147.915 377.977C139.733 380.886 134.555 380.253 131.437 378.134C128.338 376.028 127.354 372.506 127.425 369.826V361.911C127.425 361.41 127.807 360.869 128.279 360.701Z" fill="#F213A4"/>
<path fill-rule="evenodd" clip-rule="evenodd" d="M167.552 346.973C167.081 347.14 166.698 347.682 166.698 348.183V355.876L166.699 355.903C166.76 358.064 165.941 361.734 163.202 365.543C160.477 369.332 155.769 373.372 147.917 376.164C147.445 376.331 147.062 376.873 147.062 377.374C147.062 377.874 147.445 378.144 147.917 377.976C156.099 375.067 161.276 370.753 164.395 366.416C167.493 362.107 168.477 357.885 168.406 355.255V347.575C168.406 347.075 168.024 346.805 167.552 346.973Z" fill="#F213A4"/>
<path fill-rule="evenodd" clip-rule="evenodd" d="M127.596 345.933C127.882 345.433 128.418 345.166 128.793 345.336C131.16 346.408 138.42 347.801 147.944 344.414C148.416 344.247 148.798 344.517 148.798 345.017C148.798 345.518 148.416 346.06 147.944 346.227C138.016 349.757 130.398 348.342 127.758 347.146C127.383 346.976 127.31 346.433 127.596 345.933Z" fill="#F213A4"/>
<path fill-rule="evenodd" clip-rule="evenodd" d="M168.293 331.463C168.007 331.167 167.471 331.28 167.096 331.717C164.729 334.473 157.469 341.028 147.945 344.414C147.473 344.582 147.091 345.124 147.091 345.624C147.091 346.125 147.473 346.395 147.945 346.227C157.873 342.697 165.492 335.864 168.131 332.791C168.507 332.354 168.579 331.76 168.293 331.463Z" fill="#F213A4"/>
<path fill-rule="evenodd" clip-rule="evenodd" d="M129.107 332.023C125.771 337.275 124.847 342.485 125.016 345.643C125.016 345.659 125.017 345.676 125.017 345.692V356.526C124.995 357.797 125.874 359.785 129.264 360.615C132.645 361.442 138.441 361.077 147.945 357.698C148.417 357.531 148.799 357.8 148.799 358.301C148.799 358.802 148.417 359.343 147.945 359.511C138.28 362.947 132.156 363.405 128.423 362.492C124.704 361.582 123.275 359.271 123.309 357.108V346.325C123.126 342.776 124.155 337.058 127.819 331.291C131.516 325.472 137.805 319.743 147.944 316.138C148.416 315.97 148.798 316.24 148.798 316.741C148.798 317.241 148.416 317.783 147.944 317.951C138.2 321.416 132.42 326.81 129.107 332.023Z" fill="#F213A4"/>
<path fill-rule="evenodd" clip-rule="evenodd" d="M166.783 318.628C170.12 321.506 171.043 326.059 170.875 329.337C170.874 329.354 170.873 329.371 170.873 329.388V340.221C170.895 341.477 170.016 344.09 166.626 347.33C163.245 350.562 157.449 354.319 147.945 357.698C147.474 357.866 147.091 358.407 147.091 358.908C147.091 359.409 147.474 359.679 147.945 359.511C157.61 356.075 163.734 352.177 167.467 348.609C171.186 345.055 172.615 341.728 172.581 339.589V328.805C172.765 325.126 171.735 320.14 168.071 316.979C164.374 313.789 158.085 312.532 147.946 316.137C147.474 316.305 147.092 316.847 147.092 317.347C147.092 317.848 147.474 318.118 147.946 317.95C157.69 314.486 163.471 315.769 166.783 318.628Z" fill="#F213A4"/>
</g>
<g clip-path="url(#clip1_5423_1366)">
<path d="M102.614 430.738C102.614 428.76 104.103 426.561 105.94 425.826L189.441 392.425C191.278 391.691 192.767 392.699 192.767 394.677V413.303C192.767 415.281 191.278 417.48 189.441 418.215L105.94 451.616C104.103 452.35 102.614 451.342 102.614 449.364V430.738Z" fill="#F213A4"/>
<path d="M135.263 425.119L134.384 425.47C134.332 425.219 134.241 425.016 134.111 424.862C133.984 424.707 133.828 424.596 133.644 424.53C133.462 424.46 133.26 424.434 133.038 424.452C132.816 424.469 132.584 424.526 132.343 424.623C131.904 424.799 131.506 425.077 131.15 425.459C130.795 425.84 130.513 426.305 130.303 426.855C130.095 427.404 129.991 428.016 129.991 428.693C129.991 429.37 130.095 429.899 130.303 430.281C130.513 430.663 130.795 430.902 131.15 431C131.506 431.096 131.904 431.057 132.343 430.881C132.584 430.785 132.816 430.656 133.038 430.496C133.26 430.336 133.462 430.15 133.644 429.937C133.828 429.721 133.984 429.484 134.111 429.227C134.241 428.967 134.332 428.691 134.384 428.401L135.263 428.049C135.197 428.475 135.076 428.881 134.902 429.266C134.727 429.652 134.509 430.007 134.25 430.332C133.99 430.655 133.698 430.938 133.374 431.182C133.053 431.425 132.71 431.62 132.343 431.766C131.725 432.014 131.174 432.071 130.692 431.938C130.211 431.805 129.832 431.494 129.555 431.004C129.279 430.514 129.141 429.857 129.141 429.033C129.141 428.209 129.279 427.441 129.555 426.73C129.832 426.019 130.211 425.405 130.692 424.886C131.174 424.368 131.725 423.985 132.343 423.738C132.71 423.591 133.053 423.511 133.374 423.497C133.698 423.482 133.99 423.533 134.25 423.651C134.509 423.765 134.727 423.946 134.902 424.191C135.076 424.434 135.197 424.743 135.263 425.119ZM137.406 421.82V429.635L136.569 429.969V422.154L137.406 421.82ZM140.538 428.519C140.194 428.657 139.881 428.712 139.599 428.684C139.318 428.654 139.095 428.539 138.93 428.338C138.765 428.134 138.682 427.842 138.682 427.46C138.682 427.124 138.743 426.828 138.866 426.57C138.989 426.31 139.153 426.079 139.359 425.877C139.564 425.675 139.791 425.495 140.039 425.338C140.289 425.176 140.541 425.028 140.793 424.891C141.124 424.713 141.392 424.571 141.598 424.466C141.806 424.358 141.957 424.255 142.051 424.159C142.148 424.062 142.196 423.94 142.196 423.795V423.765C142.196 423.388 142.101 423.134 141.91 423.002C141.721 422.869 141.434 422.879 141.049 423.033C140.649 423.193 140.336 423.412 140.11 423.691C139.883 423.97 139.723 424.235 139.631 424.486L138.838 424.498C138.979 424.085 139.168 423.732 139.405 423.439C139.643 423.143 139.903 422.899 140.184 422.708C140.468 422.513 140.746 422.361 141.02 422.251C141.195 422.181 141.396 422.124 141.623 422.079C141.852 422.03 142.072 422.032 142.285 422.085C142.5 422.136 142.678 422.272 142.82 422.493C142.962 422.713 143.033 423.056 143.033 423.522V427.384L142.196 427.718V426.924L142.154 426.941C142.097 427.091 142.003 427.265 141.871 427.463C141.738 427.661 141.562 427.855 141.343 428.044C141.123 428.234 140.855 428.392 140.538 428.519ZM140.666 427.659C140.997 427.526 141.275 427.345 141.502 427.114C141.731 426.883 141.904 426.633 142.019 426.366C142.137 426.097 142.196 425.841 142.196 425.596V424.772C142.161 424.832 142.083 424.905 141.963 424.992C141.845 425.075 141.708 425.161 141.552 425.252C141.398 425.338 141.248 425.421 141.102 425.5C140.958 425.576 140.841 425.638 140.751 425.686C140.534 425.804 140.331 425.935 140.142 426.079C139.955 426.22 139.804 426.381 139.688 426.562C139.575 426.739 139.518 426.943 139.518 427.172C139.518 427.484 139.625 427.678 139.84 427.752C140.058 427.823 140.333 427.792 140.666 427.659ZM144.559 426.773V420.912L145.395 420.578V426.439L144.559 426.773ZM144.984 419.765C144.821 419.83 144.68 419.827 144.562 419.754C144.447 419.681 144.389 419.561 144.389 419.393C144.389 419.225 144.447 419.058 144.562 418.892C144.68 418.725 144.821 418.609 144.984 418.544C145.147 418.479 145.286 418.483 145.402 418.556C145.52 418.628 145.579 418.749 145.579 418.916C145.579 419.084 145.52 419.252 145.402 419.419C145.286 419.584 145.147 419.7 144.984 419.765ZM146.926 425.826V419.965L147.734 419.642V420.558L147.805 420.529C147.918 420.171 148.101 419.855 148.354 419.581C148.607 419.304 148.91 419.095 149.265 418.953C149.624 418.81 149.923 418.778 150.161 418.858C150.402 418.935 150.59 419.103 150.724 419.362L150.781 419.339C150.92 418.98 151.129 418.656 151.408 418.367C151.687 418.075 152.021 417.851 152.411 417.695C152.897 417.5 153.295 417.505 153.605 417.71C153.914 417.911 154.069 418.357 154.069 419.046V422.969L153.233 423.304V419.381C153.233 418.948 153.123 418.683 152.903 418.585C152.684 418.488 152.425 418.498 152.127 418.617C151.745 418.77 151.448 419.013 151.238 419.347C151.028 419.678 150.923 420.033 150.923 420.412V424.228L150.072 424.568V420.553C150.072 420.22 149.972 419.992 149.771 419.869C149.571 419.743 149.312 419.743 148.995 419.87C148.778 419.957 148.575 420.1 148.386 420.301C148.199 420.5 148.048 420.733 147.933 421.001C147.819 421.265 147.762 421.541 147.762 421.828V425.492L146.926 425.826ZM157.879 421.567C157.355 421.777 156.903 421.833 156.522 421.736C156.145 421.635 155.853 421.401 155.647 421.033C155.444 420.661 155.343 420.175 155.343 419.575C155.343 418.974 155.444 418.405 155.647 417.866C155.853 417.323 156.139 416.85 156.505 416.447C156.873 416.04 157.303 415.738 157.794 415.541C158.078 415.428 158.358 415.367 158.634 415.358C158.91 415.349 159.162 415.414 159.389 415.552C159.615 415.688 159.796 415.916 159.931 416.236C160.065 416.556 160.133 416.99 160.133 417.537V417.918L155.938 419.596V418.818L159.282 417.48C159.282 417.149 159.221 416.879 159.098 416.668C158.978 416.457 158.805 416.321 158.581 416.261C158.359 416.2 158.097 416.229 157.794 416.35C157.461 416.484 157.173 416.688 156.93 416.963C156.689 417.235 156.504 417.538 156.374 417.873C156.244 418.207 156.179 418.536 156.179 418.859V419.378C156.179 419.82 156.25 420.167 156.391 420.418C156.535 420.666 156.735 420.819 156.99 420.877C157.245 420.933 157.542 420.893 157.879 420.758C158.099 420.67 158.297 420.558 158.475 420.421C158.654 420.28 158.809 420.117 158.939 419.93C159.069 419.741 159.169 419.53 159.24 419.298L160.048 419.219C159.963 419.548 159.82 419.865 159.619 420.169C159.418 420.471 159.17 420.743 158.875 420.986C158.58 421.226 158.248 421.42 157.879 421.567ZM163.46 419.335C163.006 419.516 162.606 419.553 162.259 419.445C161.911 419.335 161.64 419.092 161.444 418.718C161.248 418.341 161.15 417.842 161.15 417.222C161.15 416.606 161.248 416.032 161.444 415.501C161.64 414.97 161.913 414.511 162.262 414.125C162.612 413.738 163.016 413.453 163.474 413.27C163.828 413.128 164.108 413.08 164.313 413.125C164.521 413.166 164.68 413.245 164.788 413.362C164.899 413.475 164.985 413.571 165.047 413.648L165.118 413.62V410.735L165.954 410.4V418.215L165.146 418.538V417.638L165.047 417.677C164.985 417.809 164.898 417.979 164.785 418.187C164.671 418.392 164.509 418.601 164.299 418.812C164.089 419.021 163.809 419.195 163.46 419.335ZM163.573 418.481C163.908 418.347 164.192 418.139 164.423 417.858C164.655 417.575 164.831 417.241 164.951 416.857C165.072 416.471 165.132 416.056 165.132 415.613C165.132 415.176 165.073 414.817 164.955 414.536C164.837 414.252 164.662 414.065 164.43 413.975C164.199 413.881 163.913 413.903 163.573 414.039C163.219 414.181 162.923 414.397 162.687 414.687C162.453 414.974 162.277 415.308 162.159 415.688C162.044 416.065 161.986 416.46 161.986 416.872C161.986 417.289 162.045 417.644 162.163 417.938C162.283 418.228 162.46 418.427 162.694 418.535C162.931 418.638 163.223 418.621 163.573 418.481Z" fill="white"/>
</g>
<path d="M192.031 379.346L102.485 416.019V314.854L192.031 278.118V379.346Z" stroke="#F213A4" stroke-width="0.895463" stroke-miterlimit="10"/>
<path d="M416.705 166.882L356.796 190.362V174.806L416.792 150.066L416.705 166.882Z" stroke="#A3A3A3" stroke-width="0.895463" stroke-miterlimit="10"/>
<path d="M103.298 302.237V294.422L105.955 293.359C106.47 293.153 106.896 293.074 107.234 293.122C107.572 293.168 107.824 293.312 107.992 293.555C108.16 293.796 108.244 294.11 108.244 294.496C108.244 294.822 108.188 295.119 108.077 295.387C107.966 295.653 107.817 295.891 107.631 296.1C107.446 296.306 107.243 296.484 107.021 296.634V296.71C107.262 296.626 107.497 296.616 107.726 296.68C107.958 296.74 108.149 296.881 108.3 297.103C108.451 297.325 108.527 297.638 108.527 298.042C108.527 298.442 108.44 298.836 108.265 299.223C108.092 299.608 107.826 299.965 107.464 300.295C107.103 300.623 106.641 300.899 106.079 301.124L103.298 302.237ZM104.392 300.788L105.973 300.156C106.497 299.946 106.873 299.686 107.099 299.377C107.326 299.067 107.439 298.748 107.439 298.42C107.439 298.174 107.382 297.97 107.266 297.811C107.15 297.651 106.985 297.553 106.77 297.517C106.557 297.48 106.304 297.52 106.012 297.637L104.392 298.284V300.788ZM104.392 297.365L105.859 296.778C106.105 296.68 106.326 296.541 106.522 296.36C106.72 296.179 106.877 295.974 106.993 295.745C107.111 295.512 107.17 295.269 107.17 295.017C107.17 294.694 107.065 294.465 106.855 294.331C106.645 294.196 106.322 294.216 105.888 294.389L104.392 294.988V297.365ZM110.8 291.421V299.236L109.741 299.66V291.845L110.8 291.421ZM115.672 294.856V291.426L116.735 291.001V296.862L115.694 297.278V296.263L115.637 296.286C115.512 296.649 115.311 296.99 115.035 297.309C114.761 297.625 114.419 297.864 114.011 298.028C113.661 298.168 113.352 298.209 113.082 298.151C112.816 298.09 112.605 297.926 112.452 297.659C112.301 297.392 112.225 297.016 112.225 296.533V292.805L113.284 292.381V295.972C113.284 296.371 113.387 296.648 113.593 296.802C113.798 296.957 114.065 296.968 114.393 296.837C114.592 296.758 114.789 296.625 114.985 296.44C115.183 296.254 115.348 296.027 115.477 295.758C115.61 295.489 115.675 295.189 115.672 294.856ZM120.504 295.473C119.968 295.687 119.506 295.748 119.119 295.657C118.734 295.561 118.436 295.33 118.226 294.964C118.018 294.595 117.914 294.106 117.914 293.498C117.914 292.897 118.018 292.327 118.226 291.786C118.436 291.244 118.729 290.769 119.105 290.362C119.483 289.954 119.924 289.649 120.43 289.446C120.737 289.324 121.034 289.259 121.322 289.253C121.611 289.248 121.869 289.316 122.098 289.458C122.328 289.601 122.508 289.832 122.64 290.153C122.773 290.472 122.839 290.897 122.839 291.429V291.833L118.513 293.564V292.709L121.801 291.394C121.801 291.093 121.744 290.85 121.631 290.664C121.517 290.475 121.358 290.355 121.152 290.302C120.949 290.249 120.711 290.277 120.437 290.386C120.139 290.505 119.879 290.688 119.657 290.935C119.438 291.178 119.268 291.449 119.147 291.749C119.029 292.046 118.97 292.34 118.97 292.633V293.301C118.97 293.692 119.034 294 119.161 294.224C119.291 294.447 119.472 294.584 119.703 294.637C119.935 294.686 120.205 294.65 120.515 294.526C120.715 294.445 120.899 294.342 121.064 294.215C121.229 294.085 121.372 293.933 121.493 293.761C121.613 293.588 121.705 293.397 121.769 293.188L122.772 292.982C122.691 293.332 122.547 293.668 122.339 293.991C122.134 294.309 121.875 294.597 121.563 294.854C121.254 295.108 120.901 295.314 120.504 295.473ZM132.766 285.176L131.661 285.618C131.618 285.381 131.539 285.188 131.423 285.041C131.308 284.894 131.166 284.787 130.998 284.719C130.831 284.651 130.643 284.625 130.435 284.639C130.23 284.653 130.011 284.706 129.78 284.798C129.361 284.966 128.987 285.229 128.656 285.587C128.328 285.945 128.068 286.381 127.877 286.895C127.688 287.408 127.594 287.98 127.594 288.611C127.594 289.247 127.688 289.746 127.877 290.108C128.068 290.469 128.329 290.695 128.66 290.787C128.991 290.878 129.363 290.842 129.776 290.676C130.005 290.585 130.222 290.465 130.428 290.316C130.636 290.164 130.824 289.989 130.991 289.789C131.159 289.59 131.301 289.372 131.416 289.135C131.535 288.894 131.616 288.64 131.661 288.373L132.766 287.935C132.707 288.342 132.593 288.742 132.423 289.133C132.255 289.521 132.039 289.884 131.774 290.224C131.512 290.561 131.212 290.86 130.874 291.122C130.537 291.384 130.168 291.595 129.769 291.755C129.141 292.006 128.581 292.07 128.09 291.946C127.598 291.82 127.211 291.513 126.927 291.026C126.646 290.538 126.506 289.878 126.506 289.046C126.506 288.212 126.648 287.439 126.931 286.728C127.214 286.014 127.602 285.398 128.093 284.881C128.584 284.362 129.143 283.977 129.769 283.726C130.154 283.572 130.513 283.489 130.846 283.475C131.181 283.458 131.483 283.51 131.749 283.633C132.016 283.752 132.237 283.941 132.412 284.199C132.587 284.455 132.705 284.781 132.766 285.176ZM135.575 289.456C135.23 289.594 134.918 289.65 134.64 289.624C134.361 289.595 134.14 289.481 133.977 289.282C133.816 289.082 133.736 288.789 133.736 288.405C133.736 288.075 133.795 287.779 133.913 287.518C134.031 287.257 134.191 287.024 134.392 286.819C134.592 286.614 134.817 286.43 135.065 286.267C135.313 286.105 135.566 285.955 135.823 285.819C136.149 285.648 136.413 285.509 136.617 285.402C136.82 285.293 136.967 285.19 137.059 285.092C137.152 284.994 137.198 284.876 137.198 284.739V284.712C137.198 284.379 137.11 284.156 136.935 284.042C136.763 283.928 136.506 283.94 136.163 284.077C135.806 284.219 135.525 284.417 135.32 284.669C135.117 284.919 134.976 285.162 134.898 285.399L133.903 285.553C134.021 285.15 134.193 284.793 134.42 284.484C134.649 284.171 134.912 283.905 135.21 283.687C135.508 283.466 135.821 283.29 136.149 283.159C136.366 283.072 136.597 283.008 136.84 282.966C137.085 282.922 137.315 282.929 137.527 282.989C137.742 283.048 137.918 283.185 138.055 283.4C138.192 283.612 138.261 283.932 138.261 284.359V288.252L137.226 288.665V287.864L137.183 287.881C137.115 288.056 137.012 288.242 136.875 288.439C136.738 288.637 136.562 288.825 136.347 289.005C136.132 289.186 135.875 289.336 135.575 289.456ZM135.805 288.448C136.098 288.331 136.349 288.168 136.556 287.96C136.767 287.752 136.926 287.525 137.035 287.281C137.146 287.033 137.201 286.793 137.201 286.561V285.806C137.163 285.862 137.09 285.929 136.982 286.008C136.875 286.084 136.754 286.162 136.617 286.242C136.48 286.32 136.346 286.395 136.216 286.467C136.086 286.537 135.978 286.595 135.89 286.643C135.685 286.753 135.497 286.875 135.327 287.01C135.159 287.143 135.025 287.292 134.923 287.457C134.824 287.619 134.774 287.802 134.774 288.005C134.774 288.288 134.871 288.463 135.065 288.53C135.258 288.595 135.505 288.568 135.805 288.448ZM139.672 289.885V281.826L140.706 281.412V282.362L140.795 282.327C140.856 282.18 140.945 282.004 141.06 281.797C141.176 281.591 141.337 281.386 141.542 281.185C141.748 280.98 142.019 280.811 142.357 280.675C142.796 280.5 143.189 280.462 143.533 280.564C143.878 280.665 144.149 280.901 144.345 281.273C144.543 281.644 144.642 282.146 144.642 282.78C144.642 283.413 144.544 283.996 144.348 284.527C144.152 285.055 143.883 285.51 143.54 285.892C143.198 286.27 142.807 286.548 142.368 286.723C142.037 286.856 141.767 286.904 141.556 286.868C141.349 286.832 141.186 286.757 141.067 286.644C140.949 286.531 140.858 286.425 140.795 286.326L140.731 286.352V289.461L139.672 289.885ZM140.71 284.341C140.71 284.754 140.765 285.093 140.876 285.359C140.987 285.624 141.148 285.803 141.358 285.895C141.568 285.984 141.826 285.967 142.13 285.845C142.447 285.719 142.711 285.522 142.924 285.257C143.137 284.989 143.297 284.676 143.406 284.32C143.517 283.963 143.572 283.588 143.572 283.196C143.572 282.81 143.518 282.484 143.409 282.22C143.303 281.954 143.142 281.776 142.928 281.684C142.715 281.591 142.449 281.608 142.13 281.735C141.823 281.858 141.563 282.047 141.351 282.303C141.141 282.557 140.981 282.859 140.873 283.208C140.764 283.557 140.71 283.934 140.71 284.341Z" fill="#F213A4"/>
<path d="M170.667 275.538C170.369 275.652 170.071 275.71 169.774 275.712C169.476 275.714 169.205 275.626 168.959 275.447C168.713 275.265 168.516 274.966 168.367 274.55C168.218 274.131 168.144 273.561 168.144 272.838C168.144 272.146 168.204 271.509 168.325 270.927C168.445 270.342 168.62 269.82 168.849 269.362C169.078 268.902 169.355 268.511 169.678 268.191C170.004 267.87 170.371 267.628 170.78 267.464C171.186 267.302 171.548 267.245 171.864 267.294C172.183 267.339 172.443 267.477 172.644 267.707C172.844 267.937 172.974 268.242 173.033 268.623L172.169 268.969C172.089 268.65 171.933 268.421 171.701 268.282C171.47 268.143 171.163 268.151 170.78 268.304C170.218 268.528 169.775 268.969 169.451 269.625C169.13 270.28 168.968 271.084 168.966 272.036L169.023 272.013C169.155 271.744 169.312 271.497 169.494 271.272C169.678 271.043 169.881 270.842 170.103 270.669C170.325 270.496 170.56 270.36 170.808 270.261C171.224 270.095 171.604 270.055 171.949 270.141C172.294 270.224 172.57 270.42 172.778 270.729C172.986 271.035 173.09 271.44 173.09 271.943C173.09 272.427 172.99 272.91 172.789 273.392C172.588 273.871 172.306 274.302 171.942 274.684C171.581 275.063 171.156 275.348 170.667 275.538ZM170.667 274.699C170.964 274.58 171.231 274.393 171.467 274.138C171.706 273.882 171.894 273.592 172.031 273.268C172.17 272.942 172.24 272.614 172.24 272.284C172.24 271.96 172.172 271.694 172.038 271.483C171.906 271.269 171.722 271.129 171.489 271.065C171.257 271 170.993 271.027 170.695 271.146C170.471 271.236 170.262 271.368 170.068 271.542C169.874 271.714 169.704 271.911 169.558 272.135C169.414 272.358 169.3 272.593 169.218 272.84C169.135 273.084 169.094 273.323 169.094 273.557C169.094 273.868 169.161 274.131 169.296 274.346C169.433 274.561 169.619 274.704 169.855 274.775C170.094 274.845 170.364 274.82 170.667 274.699ZM176.85 273.065C176.316 273.278 175.862 273.304 175.486 273.141C175.11 272.976 174.823 272.634 174.625 272.115C174.427 271.594 174.327 270.909 174.327 270.059C174.327 269.215 174.427 268.454 174.625 267.777C174.826 267.096 175.114 266.523 175.49 266.057C175.867 265.588 176.321 265.248 176.85 265.036C177.379 264.824 177.831 264.803 178.207 264.97C178.585 265.135 178.873 265.477 179.071 265.998C179.272 266.516 179.373 267.197 179.373 268.041C179.373 268.891 179.273 269.656 179.075 270.335C178.877 271.013 178.59 271.584 178.214 272.05C177.839 272.513 177.384 272.851 176.85 273.065ZM176.85 272.225C177.379 272.014 177.79 271.574 178.083 270.908C178.376 270.241 178.522 269.399 178.522 268.381C178.522 267.705 178.455 267.156 178.32 266.734C178.188 266.311 177.997 266.025 177.746 265.876C177.498 265.726 177.2 265.72 176.85 265.86C176.326 266.07 175.916 266.513 175.621 267.188C175.325 267.86 175.178 268.704 175.178 269.719C175.178 270.396 175.244 270.944 175.376 271.365C175.508 271.785 175.699 272.069 175.947 272.216C176.197 272.363 176.498 272.366 176.85 272.225ZM183.086 270.57C182.552 270.784 182.097 270.809 181.722 270.647C181.346 270.482 181.059 270.14 180.861 269.621C180.662 269.1 180.563 268.415 180.563 267.565C180.563 266.721 180.662 265.96 180.861 265.283C181.061 264.602 181.35 264.029 181.725 263.563C182.103 263.094 182.557 262.753 183.086 262.542C183.615 262.33 184.067 262.308 184.443 262.476C184.821 262.64 185.109 262.983 185.307 263.504C185.508 264.021 185.608 264.703 185.608 265.547C185.608 266.397 185.509 267.161 185.311 267.841C185.112 268.518 184.825 269.09 184.45 269.556C184.074 270.019 183.619 270.357 183.086 270.57ZM183.086 269.731C183.615 269.519 184.026 269.08 184.319 268.414C184.612 267.747 184.758 266.905 184.758 265.887C184.758 265.211 184.691 264.661 184.556 264.239C184.424 263.817 184.232 263.531 183.982 263.381C183.734 263.231 183.435 263.226 183.086 263.366C182.561 263.576 182.152 264.018 181.856 264.694C181.561 265.366 181.413 266.21 181.413 267.225C181.413 267.902 181.48 268.45 181.612 268.87C181.744 269.291 181.934 269.575 182.182 269.722C182.433 269.869 182.734 269.872 183.086 269.731ZM189.321 268.076C188.787 268.29 188.333 268.315 187.957 268.152C187.582 267.987 187.295 267.645 187.096 267.127C186.898 266.606 186.799 265.921 186.799 265.071C186.799 264.226 186.898 263.465 187.096 262.788C187.297 262.108 187.585 261.534 187.961 261.069C188.339 260.6 188.792 260.259 189.321 260.048C189.85 259.836 190.303 259.814 190.678 259.982C191.056 260.146 191.344 260.489 191.543 261.01C191.743 261.527 191.844 262.208 191.844 263.053C191.844 263.903 191.745 264.667 191.546 265.347C191.348 266.024 191.061 266.596 190.685 267.061C190.31 267.524 189.855 267.863 189.321 268.076ZM189.321 267.237C189.85 267.025 190.261 266.586 190.554 265.919C190.847 265.253 190.994 264.411 190.994 263.393C190.994 262.716 190.926 262.167 190.792 261.745C190.659 261.322 190.468 261.036 190.218 260.887C189.97 260.737 189.671 260.732 189.321 260.872C188.797 261.082 188.387 261.524 188.092 262.199C187.797 262.872 187.649 263.716 187.649 264.731C187.649 265.408 187.715 265.956 187.847 266.376C187.98 266.797 188.17 267.08 188.418 267.228C188.668 267.375 188.969 267.378 189.321 267.237Z" fill="#F213A4"/>
<path d="M202.776 293.103L340.678 238.717V318.413" stroke="#A3A3A3" stroke-width="0.895463"/>
<path d="M281.22 264.509C279.998 262.855 280.651 258.487 281.131 256.509L304.409 249.139C304.841 251.871 304.529 254.592 304.319 255.611L281.22 264.509Z" fill="black"/>
<path d="M300.331 232.601V237.649C300.331 238.591 300.868 240.272 303.017 239.46C305.166 238.649 305.732 236.675 305.746 235.789V230.417" stroke="#A3A3A3" stroke-width="0.895463" stroke-linecap="round" stroke-linejoin="round"/>
<path d="M294.078 207.193C304.52 203.249 308.767 210.301 309.586 214.32C311.869 213.273 316.434 213.667 316.434 218.916C316.434 225.105 310.834 228.584 308.034 229.549L288.65 236.872C281.723 239.489 277.752 237.49 276.632 236.163V231.742C276.632 221.244 281.026 212.124 294.078 207.193Z" fill="black"/>
<path d="M304.157 227.284C305.967 225.357 309.586 220.066 309.586 214.32M309.586 214.32C308.767 210.301 304.52 203.249 294.078 207.193C281.026 212.124 276.632 221.244 276.632 231.742V236.163C277.752 237.49 281.723 239.489 288.65 236.872L308.034 229.549C310.834 228.584 316.434 225.105 316.434 218.916C316.434 213.667 311.869 213.273 309.586 214.32Z" stroke="#A3A3A3" stroke-width="0.895463" stroke-linejoin="round"/>
<path d="M276.677 236.143C276.72 242.159 279.322 254.288 289.557 250.422C299.791 246.555 301.715 245.829 301.397 245.949C304.002 244.867 309.21 241.643 309.21 237.398C309.21 233.152 309.21 230.003 309.21 228.959" stroke="#A3A3A3" stroke-width="0.895463"/>
<path d="M282.588 250.794C281.933 252.339 280.588 256.603 280.439 261.294C280.252 267.158 285.765 266.174 290.25 264.479L298.66 261.302C300.622 260.694 304.546 258.32 304.546 253.685C304.546 249.051 304.11 245.726 303.892 244.643" stroke="#A3A3A3" stroke-width="0.895463"/>
<path d="M289.76 264.718V269.232L302.409 264.454C303.057 263.372 303.782 260.094 301.493 259.735" stroke="#A3A3A3" stroke-width="0.895463"/>
<path d="M293.196 259.112C293.52 257.174 294.648 253.472 298.174 251.26C299.223 251.761 301.448 252.752 300.349 255.614C298.976 259.192 295.943 259.359 293.196 259.112ZM293.196 259.112C292.165 258.959 289.795 258.365 288.559 257.217C287.323 256.069 287.357 254.388 287.528 253.691" stroke="#A3A3A3" stroke-width="0.895463" stroke-linejoin="round"/>
<path d="M296.297 234.021V237.98C294.996 237.482 291.839 237.246 289.617 240.291C286.839 244.098 288.294 250.971 294.312 248.698" stroke="#A3A3A3" stroke-width="0.895463" stroke-linecap="round" stroke-linejoin="round"/>
<path d="M303.19 231.66L305.485 230.793V236.737C305.485 237.726 304.735 238.811 303.81 239.161L303.19 239.395V231.66Z" fill="#A3A3A3"/>
<path d="M366.964 118.454C367.114 118.054 367.563 117.874 367.713 118.154L370.524 123.372C370.706 123.71 371.068 123.848 371.486 123.74L377.956 122.072C378.302 121.982 378.441 122.387 378.188 122.747L373.455 129.479C373.149 129.915 373.011 130.429 373.088 130.845L374.275 137.28C374.339 137.625 373.976 138.054 373.669 137.997L367.934 136.939C367.563 136.87 367.114 137.05 366.743 137.415L361.008 143.061C360.701 143.364 360.338 143.225 360.402 142.83L361.589 135.444C361.666 134.967 361.528 134.563 361.222 134.372L356.489 131.427C356.236 131.269 356.375 130.753 356.721 130.565L363.191 127.059C363.609 126.832 363.971 126.404 364.153 125.921L366.964 118.454Z" fill="black" stroke="#A3A3A3" stroke-width="0.895463"/>
<defs>
<clipPath id="clip0_5423_1366">
<rect width="64.3069" height="89.3151" fill="white" transform="matrix(0.942215 -0.33501 0 1 118.299 326.186)"/>
</clipPath>
<clipPath id="clip1_5423_1366">
<path d="M102.614 430.738C102.614 428.76 104.103 426.561 105.94 425.826L189.441 392.425C191.278 391.691 192.767 392.699 192.767 394.677V413.303C192.767 415.281 191.278 417.48 189.441 418.215L105.94 451.616C104.103 452.35 102.614 451.342 102.614 449.364V430.738Z" fill="white"/>
</clipPath>
</defs>
</svg>
