<svg xmlns="http://www.w3.org/2000/svg" viewBox="0 0 24 24" xmlns:xlink="http://www.w3.org/1999/xlink" xml:space="preserve" width="100%" height="100%"><path xmlns="http://www.w3.org/2000/svg" d="M21.17 2.06A13.1 13.1 0 0 0 19 1.87a12.94 12.94 0 0 0-7 2.05 12.94 12.94 0 0 0-7-2 13.1 13.1 0 0 0-2.17.19 1 1 0 0 0-.83 1v12a1 1 0 0 0 1.17 1 10.9 10.9 0 0 1 8.25 1.91l.12.07h.11a.91.91 0 0 0 .7 0h.11l.12-.07A10.9 10.9 0 0 1 20.83 16 1 1 0 0 0 22 15V3a1 1 0 0 0-.83-.94zM11 15.35a12.87 12.87 0 0 0-6-1.48H4v-10a8.69 8.69 0 0 1 1 0 10.86 10.86 0 0 1 6 1.8zm9-1.44h-1a12.87 12.87 0 0 0-6 1.48V5.67a10.86 10.86 0 0 1 6-1.8 8.69 8.69 0 0 1 1 0zm1.17 4.15a13.1 13.1 0 0 0-2.17-.19 12.94 12.94 0 0 0-7 2.05 12.94 12.94 0 0 0-7-2.05 13.1 13.1 0 0 0-2.17.19A1 1 0 0 0 2 19.21a1 1 0 0 0 1.17.79 10.9 10.9 0 0 1 8.25 1.91 1 1 0 0 0 1.16 0A10.9 10.9 0 0 1 20.83 20a1 1 0 0 0 1.17-.79 1 1 0 0 0-.83-1.15z" style="fill: rgb(169, 204, 227);"></path></svg>