<svg width="354" height="354" viewBox="0 0 354 354" fill="none" xmlns="http://www.w3.org/2000/svg">
    <path
        d="M26.2733 230.333C23.0491 230.333 20.3085 229.259 18.0515 227.11C15.7945 224.906 14.666 222.289 14.666 219.259C14.666 216.173 15.7945 213.529 18.0515 211.325C20.3085 209.121 23.0491 208.019 26.2733 208.019C29.5513 208.019 32.3188 209.121 34.5758 211.325C36.8865 213.529 38.0419 216.173 38.0419 219.259C38.0419 222.289 36.8865 224.906 34.5758 227.11C32.3188 229.259 29.5513 230.333 26.2733 230.333Z"
        fill="white" />
    <path
        d="M155.167 228.515H134.209L78.9944 141.406C77.5974 139.202 76.4414 136.915 75.5284 134.546H75.0444C75.4744 137.081 75.6894 142.508 75.6894 150.827V228.515H57.1494V110H79.4774L132.839 195.043C135.096 198.57 136.547 200.994 137.192 202.316H137.514C136.977 199.176 136.708 193.859 136.708 186.365V110H155.167V228.515Z"
        fill="white" />
    <path
        d="M245.449 228.515H180.561V110H242.87V126.695H199.746V160.249H239.485V176.861H199.746V211.903H245.449V228.515Z"
        fill="white" />
    <path d="M337.667 126.695H304.457V228.515H285.272V126.695H252.143V110H337.667V126.695Z"
        fill="white" />
</svg>