<svg width="25" height="25" viewBox="0 0 25 25" fill="none" xmlns="http://www.w3.org/2000/svg">
<circle cx="8.11963" cy="12.9889" r="4.505" fill="url(#paint0_linear_1095_479)"/>
<path fill-rule="evenodd" clip-rule="evenodd" d="M21.2163 7.97235C21.2163 7.96914 21.2164 7.96592 21.2164 7.96271C21.2164 5.60751 18.4863 3.69824 15.1186 3.69824C11.7509 3.69824 9.02089 5.60751 9.02089 7.96271C9.02089 7.96324 9.02089 7.96378 9.02089 7.96431H9.02087V17.0369C9.02087 17.0372 9.02087 17.0374 9.02087 17.0376C9.02137 19.3925 11.7512 21.3014 15.1186 21.3014C18.486 21.3014 21.2158 19.3925 21.2163 17.0376C21.2163 17.0374 21.2163 17.0372 21.2163 17.0369V7.97235Z" fill="#06B6D4"/>
<path d="M11.1232 10.3516V10.3516C13.5336 11.9944 16.704 11.9944 19.1145 10.3515V10.3515" stroke="white" stroke-width="1.5" stroke-linecap="round" stroke-linejoin="round"/>
<path d="M11.1232 15.0107V15.0107C13.5336 16.6536 16.704 16.6535 19.1145 15.0107V15.0107" stroke="white" stroke-width="1.5" stroke-linecap="round" stroke-linejoin="round"/>
<defs>
<linearGradient id="paint0_linear_1095_479" x1="8.11963" y1="16.3861" x2="-1.14166" y2="3.67577" gradientUnits="userSpaceOnUse">
<stop stop-color="#155E75"/>
<stop offset="1" stop-color="#27B0DB"/>
</linearGradient>
</defs>
</svg>
