<svg width="510" height="510" viewBox="0 0 510 510" fill="none" xmlns="http://www.w3.org/2000/svg">
<path d="M423.472 360.235L356.633 387.064V308.174L423.472 281.345V360.235Z" fill="black" stroke="#A3A3A3" stroke-width="0.837937"/>
<path d="M422.767 280.725L356.214 307.438L289.662 280.725L356.214 254.011L422.767 280.725Z" fill="black" stroke="#A3A3A3" stroke-width="0.837937"/>
<path d="M355.795 308.173V386.238L289.585 281.597L355.795 308.173Z" fill="black" stroke="#A3A3A3" stroke-width="0.837937"/>
<path d="M355.166 386.812L288.957 360.235V282.171L355.166 386.812Z" fill="black" stroke="#A3A3A3" stroke-width="0.837937"/>
<path d="M423.891 280.725V360.52L356.214 387.685L288.538 360.52V280.725L356.214 253.56L423.891 280.725Z" fill="black" stroke="#A3A3A3" stroke-width="0.837937" stroke-miterlimit="10"/>
<path d="M423.891 280.726L356.214 307.891" stroke="#A3A3A3" stroke-width="0.837937" stroke-miterlimit="10"/>
<path d="M356.214 387.685V307.891" stroke="#A3A3A3" stroke-width="0.837937" stroke-miterlimit="10"/>
<path d="M356.214 307.891L288.538 280.726" stroke="#A3A3A3" stroke-width="0.837937" stroke-miterlimit="10"/>
<path d="M423.472 253.272L356.633 280.101V201.211L423.472 174.382V253.272Z" fill="black" stroke="#A3A3A3" stroke-width="0.837937"/>
<path d="M422.767 173.762L356.214 200.475L289.662 173.762L356.214 147.048L422.767 173.762Z" fill="black" stroke="#A3A3A3" stroke-width="0.837937"/>
<path d="M355.795 201.21V279.275L289.585 174.634L355.795 201.21Z" fill="black" stroke="#A3A3A3" stroke-width="0.837937"/>
<path d="M355.166 279.849L288.957 253.272V175.208L355.166 279.849Z" fill="black" stroke="#A3A3A3" stroke-width="0.837937"/>
<path d="M423.891 173.762V253.557L356.214 280.722L288.538 253.557V173.762L356.214 146.597L423.891 173.762Z" fill="black" stroke="#A3A3A3" stroke-width="0.837937" stroke-miterlimit="10"/>
<path d="M423.891 173.762L356.214 200.928" stroke="#A3A3A3" stroke-width="0.837937" stroke-miterlimit="10"/>
<path d="M356.214 280.722V200.928" stroke="#A3A3A3" stroke-width="0.837937" stroke-miterlimit="10"/>
<path d="M356.214 200.928L288.538 173.762" stroke="#A3A3A3" stroke-width="0.837937" stroke-miterlimit="10"/>
<path d="M423.472 146.314L356.633 173.143V94.2525L423.472 67.4234V146.314Z" fill="black" stroke="#A3A3A3" stroke-width="0.837937"/>
<path d="M422.767 66.8043L356.214 93.5172L289.662 66.8043L356.214 40.0905L422.767 66.8043Z" fill="black" stroke="#A3A3A3" stroke-width="0.837937"/>
<path d="M355.795 94.2516V172.317L289.585 67.6754L355.795 94.2516Z" fill="black" stroke="#A3A3A3" stroke-width="0.837937"/>
<path d="M355.166 172.891L288.957 146.314V68.2496L355.166 172.891Z" fill="black" stroke="#A3A3A3" stroke-width="0.837937"/>
<path d="M423.891 66.8044V146.599L356.214 173.764L288.538 146.599V66.8044L356.214 39.6393L423.891 66.8044Z" fill="black" stroke="#A3A3A3" stroke-width="0.837937" stroke-miterlimit="10"/>
<path d="M423.891 66.8043L356.214 93.9694" stroke="#A3A3A3" stroke-width="0.837937" stroke-miterlimit="10"/>
<path d="M356.214 173.764V93.9694" stroke="#A3A3A3" stroke-width="0.837937" stroke-miterlimit="10"/>
<path d="M356.214 93.9694L288.538 66.8043" stroke="#A3A3A3" stroke-width="0.837937" stroke-miterlimit="10"/>
<path d="M321.958 400.132L255.119 426.961V348.07L321.958 321.241V400.132Z" fill="black" stroke="#A3A3A3" stroke-width="0.837937"/>
<path d="M321.252 320.622L254.7 347.335L188.148 320.622L254.7 293.908L321.252 320.622Z" fill="black" stroke="#A3A3A3" stroke-width="0.837937"/>
<path d="M254.281 348.069V426.135L188.071 321.493L254.281 348.069Z" fill="black" stroke="#A3A3A3" stroke-width="0.837937"/>
<path d="M253.652 426.709L187.443 400.132V322.067L253.652 426.709Z" fill="black" stroke="#A3A3A3" stroke-width="0.837937"/>
<path d="M322.377 320.622V400.417L254.7 427.582L187.024 400.417V320.622L254.7 293.457L322.377 320.622Z" fill="black" stroke="#A3A3A3" stroke-width="0.837937" stroke-miterlimit="10"/>
<path d="M322.377 320.622L254.7 347.787" stroke="#A3A3A3" stroke-width="0.837937" stroke-miterlimit="10"/>
<path d="M254.7 427.583V347.788" stroke="#A3A3A3" stroke-width="0.837937" stroke-miterlimit="10"/>
<path d="M254.7 347.787L187.024 320.622" stroke="#A3A3A3" stroke-width="0.837937" stroke-miterlimit="10"/>
<path d="M321.958 294.259L255.119 321.088V242.198L321.958 215.368V294.259Z" fill="black" stroke="#A3A3A3" stroke-width="0.837937"/>
<path d="M321.252 214.749L254.7 241.462L188.148 214.749L254.7 188.035L321.252 214.749Z" fill="black" stroke="#A3A3A3" stroke-width="0.837937"/>
<path d="M254.281 242.197V320.262L188.071 215.62L254.281 242.197Z" fill="black" stroke="#A3A3A3" stroke-width="0.837937"/>
<path d="M253.652 320.836L187.443 294.259V216.195L253.652 320.836Z" fill="black" stroke="#A3A3A3" stroke-width="0.837937"/>
<path d="M322.377 214.749V294.544L254.7 321.709L187.024 294.544V214.749L254.7 187.584L322.377 214.749Z" fill="black" stroke="#A3A3A3" stroke-width="0.837937" stroke-miterlimit="10"/>
<path d="M322.377 214.749L254.7 241.914" stroke="#A3A3A3" stroke-width="0.837937" stroke-miterlimit="10"/>
<path d="M254.7 321.709V241.914" stroke="#A3A3A3" stroke-width="0.837937" stroke-miterlimit="10"/>
<path d="M254.7 241.914L187.024 214.749" stroke="#A3A3A3" stroke-width="0.837937" stroke-miterlimit="10"/>
<path d="M324.131 187.298L257.292 214.127V135.236L324.131 108.407V187.298Z" fill="black" stroke="#A3A3A3" stroke-width="0.837937"/>
<path d="M323.425 107.788L256.873 134.501L190.321 107.788L256.873 81.074L323.425 107.788Z" fill="black" stroke="#A3A3A3" stroke-width="0.837937"/>
<path d="M256.454 135.235V213.301L190.244 108.659L256.454 135.235Z" fill="black" stroke="#A3A3A3" stroke-width="0.837937"/>
<path d="M255.825 213.875L189.616 187.298V109.233L255.825 213.875Z" fill="black" stroke="#A3A3A3" stroke-width="0.837937"/>
<path d="M324.55 107.788V187.582L256.873 214.747L189.197 187.582V107.788L256.873 80.6228L324.55 107.788Z" fill="black" stroke="#A3A3A3" stroke-width="0.837937" stroke-miterlimit="10"/>
<path d="M324.55 107.788L256.873 134.953" stroke="#A3A3A3" stroke-width="0.837937" stroke-miterlimit="10"/>
<path d="M256.873 214.748V134.953" stroke="#A3A3A3" stroke-width="0.837937" stroke-miterlimit="10"/>
<path d="M256.873 134.953L189.197 107.788" stroke="#A3A3A3" stroke-width="0.837937" stroke-miterlimit="10"/>
<path d="M220.507 442.377L153.668 469.206V390.315L220.507 363.486V442.377Z" fill="black" stroke="#A3A3A3" stroke-width="0.837937"/>
<path d="M219.802 362.867L153.25 389.58L86.6978 362.867L153.25 336.153L219.802 362.867Z" fill="black" stroke="#A3A3A3" stroke-width="0.837937"/>
<path d="M152.831 390.314V468.38L86.6206 363.738L152.831 390.314Z" fill="black" stroke="#A3A3A3" stroke-width="0.837937"/>
<path d="M152.202 468.954L85.9927 442.377V364.312L152.202 468.954Z" fill="black" stroke="#A3A3A3" stroke-width="0.837937"/>
<path d="M220.927 362.867V442.661L153.25 469.827L85.5737 442.661V362.867L153.25 335.702L220.927 362.867Z" fill="black" stroke="#A3A3A3" stroke-width="0.837937" stroke-miterlimit="10"/>
<path d="M220.926 362.867L153.25 390.032" stroke="#A3A3A3" stroke-width="0.837937" stroke-miterlimit="10"/>
<path d="M153.25 469.827V390.032" stroke="#A3A3A3" stroke-width="0.837937" stroke-miterlimit="10"/>
<path d="M153.25 390.032L85.5737 362.867" stroke="#A3A3A3" stroke-width="0.837937" stroke-miterlimit="10"/>
<path d="M220.508 335.415L153.669 362.244V283.354L220.508 256.525V335.415Z" fill="black" stroke="#A3A3A3" stroke-width="0.837937"/>
<path d="M219.802 255.906L153.25 282.618L86.6978 255.906L153.25 229.192L219.802 255.906Z" fill="black" stroke="#A3A3A3" stroke-width="0.837937"/>
<path d="M152.831 283.353V361.418L86.6206 256.777L152.831 283.353Z" fill="black" stroke="#A3A3A3" stroke-width="0.837937"/>
<path d="M152.202 361.992L85.9927 335.415V257.351L152.202 361.992Z" fill="black" stroke="#A3A3A3" stroke-width="0.837937"/>
<path d="M220.927 255.906V335.7L153.25 362.865L85.5737 335.7V255.906L153.25 228.74L220.927 255.906Z" fill="black" stroke="#A3A3A3" stroke-width="0.837937" stroke-miterlimit="10"/>
<path d="M220.927 255.906L153.25 283.071" stroke="#A3A3A3" stroke-width="0.837937" stroke-miterlimit="10"/>
<path d="M153.25 362.865V283.071" stroke="#A3A3A3" stroke-width="0.837937" stroke-miterlimit="10"/>
<path d="M153.25 283.071L85.5737 255.906" stroke="#A3A3A3" stroke-width="0.837937" stroke-miterlimit="10"/>
<path d="M220.508 228.456L153.669 255.285V176.394L220.508 149.565V228.456Z" fill="black" stroke="#A3A3A3" stroke-width="0.837937"/>
<path d="M219.802 148.946L153.25 175.659L86.6978 148.946L153.25 122.232L219.802 148.946Z" fill="black" stroke="#A3A3A3" stroke-width="0.837937"/>
<path d="M152.831 176.393V254.458L86.6206 149.817L152.831 176.393Z" fill="black" stroke="#A3A3A3" stroke-width="0.837937"/>
<path d="M152.202 255.033L85.9927 228.456V150.391L152.202 255.033Z" fill="black" stroke="#A3A3A3" stroke-width="0.837937"/>
<path d="M220.927 148.946V228.74L153.25 255.905L85.5737 228.74V148.946L153.25 121.781L220.927 148.946Z" fill="black" stroke="#A3A3A3" stroke-width="0.837937" stroke-miterlimit="10"/>
<path d="M220.927 148.946L153.25 176.111" stroke="#A3A3A3" stroke-width="0.837937" stroke-miterlimit="10"/>
<path d="M153.25 255.906V176.111" stroke="#A3A3A3" stroke-width="0.837937" stroke-miterlimit="10"/>
<path d="M153.25 176.111L85.5737 148.946" stroke="#A3A3A3" stroke-width="0.837937" stroke-miterlimit="10"/>
<g style="mix-blend-mode:plus-lighter" opacity="0.8">
<ellipse cx="190.193" cy="188.694" rx="69.2605" ry="106.046" transform="rotate(8.23956 190.193 188.694)" fill="#490631"/>
</g>
<g clip-path="url(#clip0_5423_1241)">
<path d="M315.687 364.883L261.307 276.347C259.839 273.965 257.136 272.824 254.376 273.168L245.796 259.199L235.001 272.382L241.326 282.668L241.048 282.877C240.281 284.976 240.393 287.32 241.581 289.247L295.96 377.783C299.09 382.877 306.045 384.129 311.5 380.57C316.944 377.01 318.828 369.989 315.699 364.883H315.687Z" fill="black"/>
<rect width="43.6018" height="4.6553" transform="matrix(0.955689 -0.387444 -0.0218247 0.993867 166.765 287.5)" fill="#F213A4"/>
<path d="M206.796 82.6179C203.403 82.6179 200.067 82.9493 196.795 83.5262C193.701 82.9493 190.522 82.6179 187.241 82.6179C144.356 82.6179 110.562 130.096 105.356 188.67C100.149 247.244 120.629 294.722 168.387 294.722C171.57 294.722 174.693 294.427 177.773 293.924C181.021 294.439 184.401 294.722 187.954 294.722C230.765 294.722 264.632 247.244 269.839 188.67C275.046 130.096 248.225 82.6179 206.796 82.6179ZM192.082 289.64C190.853 289.726 189.603 289.775 188.357 289.775C143.88 289.775 124.907 244.507 129.869 188.682C134.832 132.857 166.394 87.5768 206.33 87.5768C207.391 87.5768 208.435 87.6259 209.479 87.6872C237.822 101.386 254.472 141.413 250.272 188.67C246.071 235.927 223.233 275.917 192.082 289.64Z" fill="black"/>
<path d="M254.376 273.168C257.124 272.824 259.839 273.965 261.307 276.347L315.687 364.883C318.816 369.977 316.944 377.01 311.488 380.57C306.045 384.129 299.077 382.889 295.948 377.783L241.569 289.247C240.381 287.32 240.267 284.988 241.036 282.877" stroke="#A3A3A3" stroke-width="0.837937" stroke-miterlimit="10"/>
<path d="M245.796 259.199L255.013 274.199C257.149 277.685 255.87 282.484 252.145 284.914C248.421 287.345 243.666 286.498 241.53 283.012L235.001 272.382" stroke="#A3A3A3" stroke-width="0.837937" stroke-miterlimit="10"/>
<path d="M269.805 188.67C264.598 247.244 230.693 294.722 187.826 294.722C140.006 294.722 119.495 247.244 124.701 188.67C129.908 130.096 163.752 82.6179 206.68 82.6179C249.608 82.6179 275.012 130.096 269.805 188.67Z" stroke="#A3A3A3" stroke-width="0.837937" stroke-miterlimit="10"/>
<path d="M168.246 294.722C120.426 294.722 99.9144 247.244 105.121 188.67C110.328 130.096 144.159 82.6179 187.1 82.6179" stroke="#A3A3A3" stroke-width="0.837937" stroke-miterlimit="10"/>
<path d="M209.381 87.6755C237.761 101.386 254.426 141.413 250.225 188.67C246.024 235.927 223.028 276.163 191.713 289.775" stroke="#A3A3A3" stroke-width="0.837937" stroke-miterlimit="10"/>
<path d="M264.789 188.67C259.826 244.507 228.156 289.763 188.242 289.763C143.708 289.763 124.705 244.494 129.667 188.67C134.629 132.845 166.226 87.5768 206.214 87.5768C246.202 87.5768 269.751 132.845 264.789 188.67Z" stroke="#A3A3A3" stroke-width="0.837937" stroke-miterlimit="10"/>
<path d="M168.246 294.722H189.58" stroke="#A3A3A3" stroke-width="0.837937" stroke-miterlimit="10"/>
<path d="M187.1 82.6179H208.434" stroke="#A3A3A3" stroke-width="0.837937" stroke-miterlimit="10"/>
<path d="M183.882 227.367L160.043 237.032L160.145 232.404L183.983 222.74L183.882 227.367ZM208.333 206.919L160.043 226.496L160.145 221.869L208.435 202.292L208.333 206.919ZM208.334 196.137L160.042 215.715L160.144 211.088L208.435 191.511L208.334 196.137ZM192.454 191.882L160.043 205.021L160.145 200.394L192.556 187.254L192.454 191.882ZM208.333 174.907L160.043 194.485L160.145 189.858L208.435 170.281L208.333 174.907Z" fill="#F213A4"/>
</g>
<defs>
<clipPath id="clip0_5423_1241">
<rect width="229.503" height="302.392" fill="white" transform="matrix(1 0 -0.0885398 0.996073 113.984 82.0041)"/>
</clipPath>
</defs>
</svg>
