<svg width="510" height="510" viewBox="0 0 510 510" fill="none" xmlns="http://www.w3.org/2000/svg">
<rect x="0.406491" y="0.275208" width="243.741" height="214.962" rx="22.3777" transform="matrix(0.928477 -0.371391 0 1 137.759 239.176)" fill="black"/>
<rect x="0.406491" y="0.275208" width="243.741" height="214.962" rx="22.3777" transform="matrix(0.928477 -0.371391 0 1 137.759 239.176)" stroke="#A3A3A3" stroke-width="0.875607"/>
<rect x="0.406491" y="0.275208" width="244.179" height="211.672" rx="22.3777" transform="matrix(0.928477 -0.371391 0 1 144.771 244.113)" fill="black"/>
<rect x="0.406491" y="0.275208" width="244.179" height="211.672" rx="22.3777" transform="matrix(0.928477 -0.371391 0 1 144.771 244.113)" stroke="#A3A3A3" stroke-width="0.875607"/>
<path d="M169.532 277.645V266.029L173.176 264.572C174.022 264.233 174.714 264.121 175.251 264.235C175.791 264.344 176.192 264.625 176.451 265.077C176.711 265.529 176.841 266.097 176.841 266.781C176.841 267.465 176.711 268.139 176.451 268.803C176.195 269.465 175.798 270.07 175.261 270.617C174.724 271.161 174.036 271.601 173.197 271.936L170.585 272.981V271.733L173.155 270.705C173.734 270.474 174.199 270.18 174.55 269.824C174.901 269.468 175.156 269.075 175.314 268.645C175.475 268.21 175.556 267.76 175.556 267.295C175.556 266.83 175.475 266.446 175.314 266.144C175.156 265.841 174.9 265.656 174.545 265.59C174.19 265.52 173.72 265.602 173.134 265.836L170.838 266.755V277.122L169.532 277.645ZM181.156 273.199C180.644 273.404 180.179 273.486 179.761 273.445C179.343 273.401 179.011 273.229 178.766 272.93C178.52 272.628 178.397 272.193 178.397 271.626C178.397 271.127 178.488 270.686 178.671 270.303C178.853 269.916 179.097 269.572 179.403 269.273C179.708 268.973 180.045 268.706 180.414 268.471C180.786 268.232 181.16 268.01 181.535 267.807C182.027 267.542 182.425 267.332 182.731 267.176C183.04 267.014 183.264 266.862 183.405 266.719C183.549 266.574 183.621 266.394 183.621 266.179V266.134C183.621 265.574 183.479 265.196 183.194 265C182.913 264.802 182.487 264.818 181.915 265.046C181.321 265.284 180.856 265.61 180.519 266.024C180.182 266.439 179.945 266.832 179.808 267.205L178.629 267.223C178.839 266.609 179.12 266.085 179.471 265.649C179.826 265.209 180.212 264.847 180.63 264.562C181.051 264.273 181.465 264.047 181.872 263.884C182.132 263.78 182.431 263.694 182.768 263.628C183.108 263.556 183.436 263.559 183.752 263.636C184.072 263.713 184.337 263.915 184.547 264.243C184.758 264.571 184.863 265.081 184.863 265.773V271.512L183.621 272.009V270.829L183.558 270.855C183.473 271.077 183.333 271.336 183.136 271.63C182.94 271.924 182.678 272.212 182.352 272.494C182.025 272.776 181.627 273.011 181.156 273.199ZM181.346 271.921C181.837 271.724 182.252 271.455 182.589 271.112C182.929 270.768 183.185 270.397 183.357 269.999C183.533 269.6 183.621 269.219 183.621 268.856V267.631C183.568 267.72 183.452 267.829 183.273 267.957C183.098 268.08 182.894 268.209 182.662 268.343C182.434 268.472 182.211 268.595 181.994 268.713C181.779 268.825 181.606 268.917 181.472 268.989C181.149 269.164 180.847 269.358 180.567 269.573C180.289 269.782 180.065 270.021 179.893 270.29C179.724 270.554 179.64 270.857 179.64 271.197C179.64 271.662 179.799 271.95 180.119 272.06C180.442 272.165 180.851 272.119 181.346 271.921ZM187.642 273.667C187.432 273.751 187.244 273.808 187.079 273.836C186.914 273.868 186.8 273.879 186.737 273.871L187.053 272.565C187.355 272.527 187.621 272.451 187.853 272.335C188.085 272.22 188.29 272.026 188.469 271.754C188.652 271.485 188.819 271.098 188.969 270.596L189.201 269.822L186.21 262.262L187.558 261.723L189.791 267.772L189.875 267.738L192.108 259.903L193.456 259.364L190.023 270.719C189.868 271.23 189.677 271.679 189.449 272.066C189.22 272.456 188.955 272.783 188.654 273.047C188.355 273.31 188.018 273.517 187.642 273.667ZM201.099 265.018L198.635 257.292L199.941 256.77L201.689 262.74L201.773 262.706L203.501 255.346L204.827 254.815L206.534 260.78L206.618 260.746L208.366 253.4L209.672 252.877L207.208 262.574L205.986 263.063L204.217 257.078L204.09 257.129L202.321 264.529L201.099 265.018ZM211.315 260.931V252.22L212.558 251.723V260.434L211.315 260.931ZM211.947 250.515C211.705 250.612 211.496 250.607 211.32 250.499C211.148 250.391 211.062 250.211 211.062 249.962C211.062 249.712 211.148 249.464 211.32 249.218C211.496 248.97 211.705 248.797 211.947 248.701C212.189 248.604 212.396 248.61 212.568 248.719C212.744 248.826 212.832 249.005 212.832 249.254C212.832 249.504 212.744 249.752 212.568 250C212.396 250.247 212.189 250.419 211.947 250.515ZM218.351 249.405V250.54L214.16 252.216V251.082L218.351 249.405ZM215.382 248.506L216.624 248.009V256.312C216.624 256.69 216.675 256.954 216.777 257.102C216.882 257.245 217.016 257.316 217.177 257.316C217.342 257.311 217.516 257.271 217.698 257.198C217.835 257.144 217.948 257.091 218.035 257.041C218.123 256.987 218.193 256.944 218.246 256.911L218.499 258.012C218.415 258.08 218.297 258.161 218.146 258.256C217.995 258.354 217.804 258.449 217.572 258.542C217.221 258.682 216.877 258.739 216.54 258.711C216.207 258.682 215.929 258.545 215.708 258.301C215.49 258.055 215.382 257.679 215.382 257.172V248.506ZM221.637 251.562V256.802L220.395 257.3V245.684L221.637 245.187V249.452L221.743 249.41C221.932 248.884 222.217 248.413 222.596 247.997C222.978 247.576 223.487 247.238 224.123 246.984C224.674 246.763 225.157 246.689 225.571 246.762C225.985 246.83 226.306 247.063 226.535 247.459C226.766 247.851 226.882 248.421 226.882 249.169V254.705L225.639 255.202V249.757C225.639 249.065 225.473 248.597 225.139 248.352C224.809 248.102 224.351 248.095 223.765 248.329C223.357 248.492 222.992 248.731 222.669 249.045C222.35 249.358 222.097 249.73 221.911 250.159C221.729 250.588 221.637 251.055 221.637 251.562Z" fill="#A3A3A3"/>
<g clip-path="url(#clip0_5423_1171)">
<path d="M170.06 307.93C170.06 302.785 173.932 297.066 178.709 295.155L340.373 230.489C345.149 228.579 349.022 231.2 349.022 236.345V268.093C349.022 273.238 345.149 278.957 340.373 280.868L178.709 345.533C173.932 347.444 170.06 344.822 170.06 339.678V307.93Z" fill="#2563EB"/>
<path d="M245.53 291.13L244.224 291.653C244.147 291.279 244.012 290.978 243.819 290.749C243.629 290.518 243.397 290.354 243.124 290.255C242.853 290.152 242.553 290.113 242.223 290.139C241.893 290.165 241.549 290.25 241.191 290.393C240.538 290.654 239.947 291.069 239.416 291.636C238.89 292.202 238.47 292.894 238.158 293.711C237.849 294.526 237.695 295.437 237.695 296.442C237.695 297.448 237.849 298.235 238.158 298.804C238.47 299.371 238.89 299.726 239.416 299.871C239.947 300.015 240.538 299.956 241.191 299.694C241.549 299.551 241.893 299.361 242.223 299.123C242.553 298.885 242.853 298.608 243.124 298.292C243.397 297.971 243.629 297.619 243.819 297.237C244.012 296.85 244.147 296.44 244.224 296.008L245.53 295.486C245.432 296.119 245.253 296.722 244.993 297.295C244.733 297.867 244.41 298.395 244.024 298.879C243.638 299.359 243.204 299.78 242.723 300.142C242.246 300.503 241.735 300.793 241.191 301.01C240.271 301.378 239.453 301.463 238.737 301.266C238.021 301.068 237.458 300.606 237.047 299.878C236.636 299.15 236.431 298.173 236.431 296.948C236.431 295.723 236.636 294.582 237.047 293.526C237.458 292.469 238.021 291.555 238.737 290.785C239.453 290.015 240.271 289.445 241.191 289.077C241.735 288.86 242.246 288.741 242.723 288.72C243.204 288.698 243.638 288.774 244.024 288.948C244.41 289.119 244.733 289.387 244.993 289.752C245.253 290.113 245.432 290.572 245.53 291.13ZM247.472 298.339V289.628L248.672 289.148V290.463L248.757 290.43C248.904 289.94 249.171 289.483 249.557 289.06C249.943 288.637 250.379 288.329 250.863 288.135C250.954 288.099 251.068 288.055 251.205 288.004C251.342 287.953 251.446 287.917 251.516 287.897V289.258C251.474 289.263 251.377 289.285 251.226 289.323C251.079 289.355 250.923 289.404 250.758 289.47C250.365 289.628 250.013 289.857 249.705 290.158C249.399 290.454 249.157 290.793 248.978 291.175C248.802 291.551 248.715 291.936 248.715 292.329V297.842L247.472 298.339ZM254.036 298.98C253.825 299.065 253.637 299.121 253.472 299.149C253.307 299.181 253.193 299.193 253.13 299.184L253.446 297.878C253.748 297.84 254.015 297.764 254.246 297.648C254.478 297.533 254.683 297.339 254.862 297.067C255.045 296.798 255.212 296.411 255.363 295.909L255.594 295.135L252.603 287.575L253.951 287.036L256.184 293.085L256.268 293.051L258.501 285.216L259.849 284.677L256.416 296.032C256.261 296.544 256.07 296.993 255.842 297.379C255.614 297.769 255.349 298.096 255.047 298.36C254.748 298.623 254.411 298.83 254.036 298.98ZM261.489 295.999V284.021L262.69 283.54V284.924L262.838 284.865C262.929 284.678 263.055 284.434 263.217 284.135C263.382 283.831 263.617 283.525 263.922 283.218C264.231 282.905 264.649 282.643 265.176 282.433C265.857 282.16 266.457 282.104 266.976 282.263C267.496 282.422 267.901 282.779 268.193 283.336C268.484 283.892 268.63 284.628 268.63 285.543C268.63 286.465 268.484 287.323 268.193 288.117C267.901 288.906 267.498 289.59 266.982 290.167C266.466 290.74 265.871 291.161 265.197 291.431C264.677 291.639 264.261 291.712 263.949 291.652C263.636 291.588 263.396 291.471 263.227 291.3C263.059 291.125 262.929 290.977 262.838 290.854L262.732 290.897V295.502L261.489 295.999ZM262.711 287.888C262.711 288.546 262.801 289.09 262.98 289.521C263.159 289.949 263.42 290.236 263.764 290.382C264.108 290.524 264.53 290.495 265.028 290.296C265.548 290.088 265.981 289.767 266.329 289.333C266.68 288.894 266.943 288.388 267.119 287.815C267.298 287.237 267.387 286.637 267.387 286.017C267.387 285.405 267.299 284.888 267.124 284.467C266.952 284.04 266.69 283.753 266.339 283.606C265.992 283.454 265.555 283.484 265.028 283.694C264.523 283.896 264.098 284.204 263.754 284.618C263.41 285.028 263.15 285.514 262.974 286.075C262.799 286.633 262.711 287.237 262.711 287.888ZM274.043 278.999V280.134L269.852 281.81V280.676L274.043 278.999ZM271.073 278.1L272.316 277.603V285.906C272.316 286.284 272.367 286.547 272.469 286.696C272.574 286.839 272.707 286.91 272.869 286.91C273.034 286.904 273.208 286.865 273.39 286.792C273.527 286.737 273.639 286.685 273.727 286.635C273.815 286.581 273.885 286.537 273.938 286.505L274.191 287.606C274.106 287.674 273.989 287.755 273.838 287.849C273.687 287.948 273.496 288.043 273.264 288.136C272.913 288.276 272.569 288.333 272.232 288.305C271.898 288.276 271.621 288.139 271.4 287.895C271.182 287.649 271.073 287.273 271.073 286.766V278.1ZM279.112 285.865C278.381 286.157 277.741 286.226 277.19 286.072C276.642 285.917 276.214 285.564 275.905 285.015C275.599 284.464 275.447 283.739 275.447 282.839C275.447 281.932 275.599 281.078 275.905 280.279C276.214 279.479 276.642 278.782 277.19 278.189C277.741 277.594 278.381 277.151 279.112 276.858C279.842 276.566 280.481 276.498 281.028 276.653C281.579 276.807 282.008 277.161 282.313 277.716C282.622 278.269 282.777 278.999 282.777 279.907C282.777 280.807 282.622 281.655 282.313 282.452C282.008 283.247 281.579 283.942 281.028 284.537C280.481 285.13 279.842 285.573 279.112 285.865ZM279.112 284.662C279.666 284.441 280.123 284.105 280.481 283.655C280.839 283.206 281.104 282.697 281.276 282.129C281.448 281.561 281.534 280.986 281.534 280.404C281.534 279.822 281.448 279.314 281.276 278.88C281.104 278.445 280.839 278.145 280.481 277.978C280.123 277.811 279.666 277.839 279.112 278.061C278.557 278.283 278.101 278.62 277.742 279.074C277.384 279.527 277.119 280.039 276.947 280.611C276.775 281.183 276.689 281.76 276.689 282.342C276.689 282.924 276.775 283.43 276.947 283.861C277.119 284.291 277.384 284.588 277.742 284.751C278.101 284.914 278.557 284.884 279.112 284.662Z" fill="white"/>
</g>
<g clip-path="url(#clip1_5423_1171)">
<path d="M170.06 372.533C170.06 367.389 173.932 361.669 178.709 359.758L340.373 295.093C345.149 293.182 349.022 295.804 349.022 300.949V332.697C349.022 337.841 345.149 343.561 340.373 345.472L178.709 410.137C173.932 412.048 170.06 409.426 170.06 404.281V372.533Z" fill="black"/>
<path d="M229.224 362.256L227.919 362.779C227.841 362.405 227.706 362.104 227.513 361.875C227.323 361.644 227.092 361.48 226.818 361.381C226.548 361.278 226.248 361.239 225.918 361.265C225.588 361.291 225.243 361.376 224.885 361.519C224.232 361.78 223.641 362.195 223.111 362.762C222.584 363.328 222.165 364.02 221.852 364.836C221.543 365.652 221.389 366.563 221.389 367.568C221.389 368.574 221.543 369.361 221.852 369.929C222.165 370.496 222.584 370.852 223.111 370.997C223.641 371.14 224.232 371.081 224.885 370.82C225.243 370.677 225.588 370.487 225.918 370.249C226.248 370.011 226.548 369.734 226.818 369.418C227.092 369.096 227.323 368.745 227.513 368.363C227.706 367.975 227.841 367.566 227.919 367.134L229.224 366.612C229.126 367.245 228.947 367.848 228.687 368.42C228.428 368.993 228.105 369.521 227.718 370.005C227.332 370.484 226.899 370.905 226.418 371.268C225.94 371.629 225.43 371.918 224.885 372.136C223.966 372.504 223.148 372.589 222.432 372.392C221.715 372.194 221.152 371.731 220.741 371.003C220.33 370.275 220.125 369.299 220.125 368.074C220.125 366.849 220.33 365.708 220.741 364.651C221.152 363.595 221.715 362.681 222.432 361.911C223.148 361.14 223.966 360.571 224.885 360.203C225.43 359.986 225.94 359.866 226.418 359.846C226.899 359.823 227.332 359.899 227.718 360.074C228.105 360.245 228.428 360.512 228.687 360.877C228.947 361.239 229.126 361.698 229.224 362.256ZM231.166 369.465V360.754L232.367 360.273V361.589L232.451 361.555C232.599 361.065 232.865 360.609 233.251 360.186C233.638 359.763 234.073 359.455 234.557 359.261C234.649 359.224 234.763 359.181 234.9 359.13C235.037 359.079 235.14 359.043 235.21 359.022V360.384C235.168 360.389 235.072 360.411 234.921 360.448C234.773 360.481 234.617 360.53 234.452 360.596C234.059 360.753 233.708 360.983 233.399 361.284C233.094 361.58 232.851 361.919 232.672 362.301C232.497 362.677 232.409 363.062 232.409 363.455V368.968L231.166 369.465ZM239.829 366.182C239.049 366.493 238.377 366.577 237.812 366.432C237.25 366.283 236.816 365.934 236.511 365.387C236.209 364.835 236.058 364.113 236.058 363.221C236.058 362.328 236.209 361.481 236.511 360.68C236.816 359.874 237.241 359.171 237.785 358.571C238.333 357.966 238.972 357.518 239.702 357.226C240.123 357.057 240.539 356.967 240.95 356.953C241.361 356.94 241.735 357.037 242.072 357.242C242.409 357.444 242.677 357.783 242.877 358.258C243.078 358.734 243.178 359.378 243.178 360.191V360.758L236.943 363.252V362.095L241.914 360.107C241.914 359.615 241.822 359.213 241.64 358.901C241.461 358.587 241.205 358.385 240.871 358.295C240.541 358.204 240.151 358.248 239.702 358.428C239.207 358.626 238.779 358.93 238.417 359.339C238.059 359.743 237.784 360.194 237.591 360.691C237.397 361.188 237.301 361.676 237.301 362.156V362.928C237.301 363.586 237.406 364.101 237.617 364.474C237.831 364.842 238.128 365.07 238.507 365.156C238.886 365.239 239.326 365.18 239.829 364.979C240.155 364.849 240.45 364.681 240.713 364.478C240.98 364.269 241.21 364.026 241.403 363.748C241.596 363.467 241.745 363.154 241.851 362.809L243.051 362.692C242.925 363.181 242.712 363.652 242.414 364.104C242.116 364.552 241.747 364.957 241.308 365.317C240.869 365.674 240.376 365.962 239.829 366.182ZM248.122 362.864C247.448 363.134 246.853 363.188 246.337 363.028C245.821 362.864 245.417 362.504 245.126 361.947C244.835 361.387 244.689 360.645 244.689 359.723C244.689 358.808 244.835 357.956 245.126 357.166C245.417 356.376 245.823 355.694 246.342 355.12C246.862 354.545 247.462 354.122 248.143 353.849C248.67 353.639 249.086 353.567 249.391 353.634C249.7 353.695 249.935 353.813 250.097 353.987C250.262 354.155 250.39 354.297 250.481 354.411L250.587 354.369V350.082L251.829 349.585V361.2L250.629 361.68V360.341L250.481 360.4C250.39 360.596 250.26 360.848 250.092 361.158C249.923 361.463 249.683 361.773 249.37 362.087C249.058 362.397 248.642 362.656 248.122 362.864ZM248.291 361.594C248.789 361.395 249.21 361.087 249.554 360.669C249.899 360.248 250.16 359.752 250.339 359.181C250.518 358.607 250.608 357.991 250.608 357.333C250.608 356.682 250.52 356.148 250.344 355.731C250.169 355.31 249.909 355.032 249.565 354.897C249.221 354.759 248.796 354.791 248.291 354.993C247.764 355.203 247.325 355.524 246.974 355.956C246.627 356.382 246.365 356.878 246.19 357.444C246.018 358.004 245.932 358.591 245.932 359.203C245.932 359.823 246.019 360.351 246.195 360.788C246.374 361.219 246.637 361.515 246.985 361.674C247.336 361.829 247.771 361.802 248.291 361.594ZM254.278 360.22V351.509L255.521 351.012V359.723L254.278 360.22ZM254.91 349.804C254.668 349.901 254.459 349.896 254.283 349.788C254.111 349.679 254.025 349.5 254.025 349.251C254.025 349.001 254.111 348.753 254.283 348.507C254.459 348.259 254.668 348.086 254.91 347.989C255.152 347.892 255.359 347.898 255.531 348.007C255.707 348.115 255.794 348.293 255.794 348.543C255.794 348.792 255.707 349.041 255.531 349.289C255.359 349.536 255.152 349.707 254.91 349.804ZM261.314 348.694V349.829L257.123 351.505V350.371L261.314 348.694ZM258.344 347.795L259.587 347.298V355.601C259.587 355.979 259.638 356.242 259.74 356.391C259.845 356.534 259.979 356.605 260.14 356.605C260.305 356.599 260.479 356.56 260.661 356.487C260.798 356.432 260.911 356.38 260.998 356.33C261.086 356.276 261.156 356.233 261.209 356.2L261.462 357.301C261.378 357.369 261.26 357.45 261.109 357.545C260.958 357.643 260.767 357.738 260.535 357.831C260.184 357.971 259.84 358.028 259.503 358C259.169 357.971 258.892 357.834 258.671 357.59C258.453 357.344 258.344 356.968 258.344 356.461V347.795ZM276.201 343.466L274.895 343.988C274.818 343.614 274.683 343.313 274.489 343.084C274.3 342.854 274.068 342.689 273.794 342.591C273.524 342.487 273.224 342.448 272.894 342.474C272.564 342.501 272.22 342.585 271.862 342.729C271.209 342.99 270.617 343.404 270.087 343.971C269.561 344.538 269.141 345.229 268.829 346.046C268.52 346.861 268.365 347.772 268.365 348.778C268.365 349.783 268.52 350.571 268.829 351.139C269.141 351.706 269.561 352.062 270.087 352.206C270.617 352.35 271.209 352.291 271.862 352.03C272.22 351.887 272.564 351.696 272.894 351.458C273.224 351.22 273.524 350.943 273.794 350.627C274.068 350.306 274.3 349.954 274.489 349.572C274.683 349.185 274.818 348.775 274.895 348.344L276.201 347.821C276.103 348.454 275.924 349.057 275.664 349.63C275.404 350.203 275.081 350.731 274.695 351.214C274.309 351.694 273.875 352.115 273.394 352.477C272.917 352.838 272.406 353.128 271.862 353.346C270.942 353.713 270.124 353.799 269.408 353.601C268.692 353.404 268.128 352.941 267.718 352.213C267.307 351.485 267.102 350.508 267.102 349.283C267.102 348.058 267.307 346.917 267.718 345.861C268.128 344.804 268.692 343.891 269.408 343.12C270.124 342.35 270.942 341.781 271.862 341.413C272.406 341.195 272.917 341.076 273.394 341.055C273.875 341.033 274.309 341.109 274.695 341.283C275.081 341.454 275.404 341.722 275.664 342.087C275.924 342.448 276.103 342.908 276.201 343.466ZM280.523 349.927C280.01 350.132 279.545 350.214 279.127 350.173C278.71 350.128 278.378 349.956 278.132 349.658C277.886 349.355 277.763 348.92 277.763 348.353C277.763 347.854 277.855 347.413 278.037 347.03C278.22 346.643 278.464 346.3 278.769 346C279.075 345.7 279.412 345.433 279.78 345.199C280.152 344.959 280.526 344.738 280.902 344.534C281.393 344.27 281.792 344.059 282.097 343.903C282.406 343.742 282.631 343.59 282.771 343.446C282.915 343.302 282.987 343.122 282.987 342.906V342.861C282.987 342.301 282.845 341.923 282.561 341.727C282.28 341.529 281.853 341.545 281.281 341.774C280.688 342.011 280.223 342.337 279.886 342.752C279.549 343.166 279.312 343.56 279.175 343.932L277.995 343.95C278.206 343.337 278.487 342.812 278.838 342.377C279.192 341.936 279.578 341.574 279.996 341.29C280.417 341 280.832 340.774 281.239 340.611C281.499 340.507 281.797 340.422 282.134 340.355C282.475 340.283 282.803 340.286 283.119 340.364C283.438 340.44 283.703 340.642 283.914 340.97C284.125 341.298 284.23 341.808 284.23 342.5V348.239L282.987 348.737V347.557L282.924 347.582C282.84 347.805 282.699 348.063 282.503 348.358C282.306 348.652 282.045 348.94 281.718 349.222C281.392 349.503 280.993 349.738 280.523 349.927ZM280.712 348.648C281.204 348.452 281.618 348.182 281.955 347.839C282.296 347.495 282.552 347.124 282.724 346.726C282.899 346.327 282.987 345.946 282.987 345.583V344.358C282.935 344.447 282.819 344.556 282.64 344.684C282.464 344.808 282.261 344.936 282.029 345.07C281.801 345.2 281.578 345.323 281.36 345.44C281.146 345.552 280.972 345.644 280.839 345.717C280.516 345.891 280.214 346.086 279.933 346.3C279.656 346.509 279.431 346.749 279.259 347.018C279.09 347.282 279.006 347.584 279.006 347.924C279.006 348.389 279.166 348.677 279.485 348.787C279.808 348.893 280.217 348.846 280.712 348.648ZM286.498 347.332V338.621L287.699 338.141V339.456L287.783 339.423C287.93 338.933 288.197 338.476 288.583 338.053C288.97 337.63 289.405 337.322 289.889 337.128C289.981 337.092 290.095 337.048 290.232 336.997C290.369 336.946 290.472 336.91 290.542 336.89V338.251C290.5 338.256 290.404 338.278 290.253 338.316C290.105 338.348 289.949 338.397 289.784 338.463C289.391 338.621 289.04 338.85 288.731 339.151C288.425 339.447 288.183 339.786 288.004 340.168C287.829 340.544 287.741 340.929 287.741 341.322V346.835L286.498 347.332ZM294.823 344.184C294.149 344.453 293.554 344.508 293.038 344.347C292.522 344.183 292.119 343.823 291.827 343.267C291.536 342.706 291.39 341.965 291.39 341.042C291.39 340.127 291.536 339.275 291.827 338.486C292.119 337.696 292.524 337.014 293.044 336.439C293.563 335.865 294.163 335.441 294.845 335.169C295.371 334.958 295.787 334.886 296.093 334.953C296.401 335.015 296.637 335.133 296.798 335.306C296.963 335.475 297.091 335.616 297.183 335.731L297.288 335.689V331.401L298.531 330.904V342.519L297.33 342.999V341.661L297.183 341.72C297.091 341.915 296.961 342.168 296.793 342.477C296.624 342.783 296.384 343.092 296.071 343.406C295.759 343.717 295.343 343.976 294.823 344.184ZM294.992 342.914C295.49 342.714 295.912 342.406 296.256 341.989C296.6 341.567 296.861 341.071 297.04 340.501C297.219 339.926 297.309 339.31 297.309 338.652C297.309 338.002 297.221 337.468 297.046 337.05C296.87 336.629 296.61 336.351 296.266 336.216C295.922 336.078 295.497 336.11 294.992 336.312C294.465 336.523 294.027 336.844 293.675 337.275C293.328 337.702 293.066 338.198 292.891 338.763C292.719 339.324 292.633 339.91 292.633 340.523C292.633 341.143 292.721 341.671 292.896 342.107C293.075 342.539 293.338 342.834 293.686 342.994C294.037 343.148 294.472 343.122 294.992 342.914Z" fill="#A3A3A3"/>
</g>
<path d="M178.709 360.196L340.373 295.53C344.925 293.71 348.615 296.209 348.615 301.111V332.86C348.615 337.762 344.924 343.213 340.372 345.034L178.709 409.699C174.157 411.52 170.466 409.022 170.466 404.119V372.371C170.466 367.468 174.157 362.017 178.709 360.196Z" stroke="#A3A3A3" stroke-width="0.875607"/>
<g clip-path="url(#clip2_5423_1171)">
<path d="M175.32 375.403C175.32 370.258 179.193 364.538 183.969 362.628L345.633 297.962C350.41 296.052 354.282 298.673 354.282 303.818V335.566C354.282 340.711 350.41 346.43 345.633 348.341L183.969 413.006C179.193 414.917 175.32 412.295 175.32 407.151V375.403Z" fill="black"/>
<path d="M234.484 365.126L233.178 365.648C233.101 365.274 232.966 364.973 232.773 364.744C232.583 364.513 232.352 364.349 232.078 364.251C231.807 364.147 231.507 364.108 231.177 364.134C230.847 364.16 230.503 364.245 230.145 364.388C229.492 364.65 228.901 365.064 228.371 365.631C227.844 366.197 227.425 366.889 227.112 367.706C226.803 368.521 226.649 369.432 226.649 370.438C226.649 371.443 226.803 372.23 227.112 372.799C227.425 373.366 227.844 373.722 228.371 373.866C228.901 374.01 229.492 373.951 230.145 373.69C230.503 373.546 230.847 373.356 231.177 373.118C231.507 372.88 231.807 372.603 232.078 372.287C232.352 371.966 232.583 371.614 232.773 371.232C232.966 370.845 233.101 370.435 233.178 370.004L234.484 369.481C234.386 370.114 234.207 370.717 233.947 371.29C233.687 371.862 233.364 372.391 232.978 372.874C232.592 373.354 232.158 373.775 231.678 374.137C231.2 374.498 230.689 374.788 230.145 375.005C229.225 375.373 228.407 375.458 227.691 375.261C226.975 375.063 226.412 374.601 226.001 373.873C225.59 373.145 225.385 372.168 225.385 370.943C225.385 369.718 225.59 368.577 226.001 367.521C226.412 366.464 226.975 365.551 227.691 364.78C228.407 364.01 229.225 363.44 230.145 363.073C230.689 362.855 231.2 362.736 231.678 362.715C232.158 362.693 232.592 362.769 232.978 362.943C233.364 363.114 233.687 363.382 233.947 363.747C234.207 364.108 234.386 364.567 234.484 365.126ZM236.426 372.334V363.623L237.627 363.143V364.458L237.711 364.425C237.858 363.935 238.125 363.478 238.511 363.055C238.897 362.632 239.333 362.324 239.817 362.13C239.908 362.094 240.023 362.05 240.159 361.999C240.296 361.948 240.4 361.912 240.47 361.892V363.253C240.428 363.258 240.331 363.28 240.181 363.318C240.033 363.35 239.877 363.399 239.712 363.465C239.319 363.623 238.968 363.852 238.659 364.153C238.353 364.449 238.111 364.788 237.932 365.17C237.756 365.546 237.669 365.931 237.669 366.324V371.837L236.426 372.334ZM245.088 369.051C244.309 369.363 243.637 369.446 243.071 369.302C242.51 369.152 242.076 368.804 241.771 368.257C241.469 367.704 241.318 366.982 241.318 366.09C241.318 365.197 241.469 364.351 241.771 363.549C242.076 362.743 242.501 362.04 243.045 361.44C243.593 360.836 244.232 360.387 244.962 360.095C245.383 359.927 245.799 359.836 246.21 359.823C246.621 359.81 246.994 359.906 247.332 360.111C247.669 360.313 247.937 360.652 248.137 361.128C248.337 361.603 248.437 362.248 248.437 363.061V363.628L242.203 366.122V364.965L247.174 362.976C247.174 362.485 247.082 362.083 246.9 361.77C246.721 361.456 246.464 361.254 246.131 361.164C245.801 361.073 245.411 361.118 244.962 361.297C244.467 361.495 244.039 361.799 243.677 362.208C243.319 362.612 243.043 363.063 242.85 363.56C242.657 364.057 242.561 364.545 242.561 365.026V365.797C242.561 366.455 242.666 366.97 242.877 367.344C243.091 367.712 243.387 367.939 243.767 368.026C244.146 368.108 244.586 368.049 245.088 367.848C245.415 367.718 245.71 367.551 245.973 367.347C246.24 367.138 246.47 366.895 246.663 366.617C246.856 366.336 247.005 366.023 247.11 365.678L248.311 365.561C248.185 366.05 247.972 366.521 247.674 366.973C247.375 367.421 247.007 367.826 246.568 368.187C246.129 368.544 245.636 368.832 245.088 369.051ZM253.382 365.733C252.708 366.003 252.113 366.058 251.597 365.897C251.081 365.733 250.677 365.373 250.386 364.816C250.094 364.256 249.949 363.515 249.949 362.592C249.949 361.677 250.094 360.825 250.386 360.035C250.677 359.246 251.083 358.564 251.602 357.989C252.122 357.415 252.722 356.991 253.403 356.719C253.93 356.508 254.346 356.436 254.651 356.503C254.96 356.565 255.195 356.682 255.357 356.856C255.522 357.024 255.65 357.166 255.741 357.281L255.846 357.239V352.951L257.089 352.454V364.069L255.888 364.549V363.211L255.741 363.27C255.65 363.465 255.52 363.717 255.351 364.027C255.183 364.332 254.942 364.642 254.63 364.956C254.318 365.266 253.902 365.525 253.382 365.733ZM253.55 364.464C254.049 364.264 254.47 363.956 254.814 363.538C255.158 363.117 255.42 362.621 255.599 362.051C255.778 361.476 255.867 360.86 255.867 360.202C255.867 359.552 255.78 359.018 255.604 358.6C255.429 358.179 255.169 357.901 254.825 357.766C254.481 357.628 254.056 357.66 253.55 357.862C253.024 358.073 252.585 358.394 252.234 358.825C251.886 359.252 251.625 359.748 251.449 360.313C251.277 360.873 251.191 361.46 251.191 362.072C251.191 362.692 251.279 363.221 251.455 363.657C251.634 364.088 251.897 364.384 252.245 364.544C252.596 364.698 253.031 364.671 253.55 364.464ZM259.538 363.09V354.378L260.78 353.881V362.592L259.538 363.09ZM260.17 352.674C259.927 352.77 259.718 352.765 259.543 352.658C259.371 352.549 259.285 352.369 259.285 352.12C259.285 351.87 259.371 351.622 259.543 351.376C259.718 351.128 259.927 350.956 260.17 350.859C260.412 350.762 260.619 350.768 260.791 350.877C260.966 350.984 261.054 351.163 261.054 351.412C261.054 351.662 260.966 351.91 260.791 352.158C260.619 352.405 260.412 352.577 260.17 352.674ZM266.574 351.564V352.698L262.383 354.375V353.24L266.574 351.564ZM263.604 350.664L264.847 350.167V358.47C264.847 358.848 264.898 359.112 265 359.26C265.105 359.403 265.238 359.475 265.4 359.474C265.565 359.469 265.739 359.429 265.921 359.356C266.058 359.302 266.17 359.249 266.258 359.199C266.346 359.145 266.416 359.102 266.469 359.069L266.722 360.171C266.637 360.238 266.52 360.319 266.369 360.414C266.218 360.512 266.026 360.607 265.795 360.7C265.444 360.841 265.1 360.897 264.763 360.869C264.429 360.84 264.152 360.703 263.931 360.459C263.713 360.213 263.604 359.837 263.604 359.33V350.664ZM281.461 346.335L280.155 346.857C280.077 346.484 279.942 346.182 279.749 345.953C279.56 345.723 279.328 345.558 279.054 345.46C278.784 345.356 278.484 345.318 278.154 345.344C277.824 345.37 277.48 345.455 277.122 345.598C276.469 345.859 275.877 346.273 275.347 346.841C274.82 347.407 274.401 348.098 274.088 348.915C273.78 349.731 273.625 350.641 273.625 351.647C273.625 352.653 273.78 353.44 274.088 354.008C274.401 354.575 274.82 354.931 275.347 355.076C275.877 355.219 276.469 355.16 277.122 354.899C277.48 354.756 277.824 354.565 278.154 354.327C278.484 354.089 278.784 353.813 279.054 353.496C279.328 353.175 279.56 352.824 279.749 352.441C279.942 352.054 280.077 351.645 280.155 351.213L281.461 350.691C281.362 351.324 281.183 351.926 280.924 352.499C280.664 353.072 280.341 353.6 279.955 354.083C279.568 354.563 279.135 354.984 278.654 355.347C278.177 355.708 277.666 355.997 277.122 356.215C276.202 356.583 275.384 356.668 274.668 356.47C273.952 356.273 273.388 355.81 272.977 355.082C272.567 354.354 272.361 353.378 272.361 352.153C272.361 350.927 272.567 349.787 272.977 348.73C273.388 347.673 273.952 346.76 274.668 345.99C275.384 345.219 276.202 344.65 277.122 344.282C277.666 344.064 278.177 343.945 278.654 343.924C279.135 343.902 279.568 343.978 279.955 344.153C280.341 344.323 280.664 344.591 280.924 344.956C281.183 345.317 281.362 345.777 281.461 346.335ZM285.783 352.796C285.27 353.001 284.805 353.083 284.387 353.042C283.969 352.997 283.638 352.826 283.392 352.527C283.146 352.225 283.023 351.79 283.023 351.223C283.023 350.723 283.115 350.282 283.297 349.899C283.48 349.512 283.724 349.169 284.029 348.869C284.334 348.569 284.671 348.302 285.04 348.068C285.412 347.828 285.786 347.607 286.162 347.404C286.653 347.139 287.052 346.929 287.357 346.772C287.666 346.611 287.891 346.459 288.031 346.316C288.175 346.171 288.247 345.991 288.247 345.776V345.73C288.247 345.171 288.105 344.793 287.82 344.596C287.54 344.399 287.113 344.414 286.541 344.643C285.948 344.88 285.482 345.206 285.145 345.621C284.808 346.036 284.571 346.429 284.435 346.801L283.255 346.82C283.466 346.206 283.746 345.682 284.097 345.246C284.452 344.806 284.838 344.443 285.256 344.159C285.677 343.869 286.091 343.643 286.499 343.48C286.758 343.376 287.057 343.291 287.394 343.224C287.734 343.152 288.063 343.155 288.379 343.233C288.698 343.31 288.963 343.512 289.174 343.84C289.384 344.167 289.49 344.677 289.49 345.369V351.109L288.247 351.606V350.426L288.184 350.451C288.1 350.674 287.959 350.933 287.763 351.227C287.566 351.521 287.304 351.809 286.978 352.091C286.651 352.373 286.253 352.608 285.783 352.796ZM285.972 351.518C286.464 351.321 286.878 351.051 287.215 350.709C287.555 350.364 287.812 349.993 287.984 349.596C288.159 349.197 288.247 348.815 288.247 348.452V347.227C288.194 347.317 288.078 347.425 287.899 347.554C287.724 347.677 287.52 347.805 287.289 347.94C287.06 348.069 286.837 348.192 286.62 348.309C286.406 348.421 286.232 348.514 286.099 348.586C285.776 348.76 285.474 348.955 285.193 349.169C284.915 349.379 284.691 349.618 284.519 349.887C284.35 350.151 284.266 350.453 284.266 350.794C284.266 351.259 284.426 351.546 284.745 351.657C285.068 351.762 285.477 351.716 285.972 351.518ZM291.758 350.201V341.49L292.959 341.01V342.326L293.043 342.292C293.19 341.802 293.457 341.345 293.843 340.923C294.229 340.5 294.665 340.191 295.149 339.997C295.24 339.961 295.355 339.917 295.491 339.866C295.628 339.815 295.732 339.779 295.802 339.759V341.12C295.76 341.126 295.663 341.147 295.512 341.185C295.365 341.217 295.209 341.267 295.044 341.333C294.651 341.49 294.3 341.719 293.991 342.021C293.685 342.317 293.443 342.655 293.264 343.037C293.088 343.414 293.001 343.798 293.001 344.192V349.704L291.758 350.201ZM300.083 347.053C299.409 347.322 298.814 347.377 298.298 347.217C297.782 347.053 297.378 346.692 297.087 346.136C296.796 345.576 296.65 344.834 296.65 343.912C296.65 342.997 296.796 342.144 297.087 341.355C297.378 340.565 297.784 339.883 298.303 339.309C298.823 338.734 299.423 338.311 300.104 338.038C300.631 337.827 301.047 337.756 301.352 337.822C301.661 337.884 301.896 338.002 302.058 338.175C302.223 338.344 302.351 338.485 302.442 338.6L302.548 338.558V334.27L303.79 333.773V345.388L302.59 345.869V344.53L302.442 344.589C302.351 344.785 302.221 345.037 302.053 345.346C301.884 345.652 301.644 345.962 301.331 346.276C301.019 346.586 300.603 346.845 300.083 347.053ZM300.252 345.783C300.75 345.584 301.171 345.275 301.516 344.858C301.86 344.437 302.121 343.941 302.3 343.37C302.479 342.796 302.569 342.179 302.569 341.521C302.569 340.871 302.481 340.337 302.305 339.92C302.13 339.498 301.87 339.22 301.526 339.086C301.182 338.947 300.757 338.979 300.252 339.181C299.725 339.392 299.286 339.713 298.935 340.145C298.588 340.571 298.326 341.067 298.151 341.633C297.979 342.193 297.893 342.779 297.893 343.392C297.893 344.012 297.98 344.54 298.156 344.977C298.335 345.408 298.598 345.703 298.946 345.863C299.297 346.018 299.732 345.991 300.252 345.783Z" fill="#A3A3A3"/>
</g>
<path d="M183.969 363.065L345.633 298.4C350.185 296.579 353.875 299.078 353.875 303.981V335.729C353.875 340.632 350.185 346.082 345.632 347.903L183.969 412.568C179.417 414.389 175.727 411.891 175.727 406.988V375.24C175.727 370.337 179.417 364.886 183.969 363.065Z" stroke="#A3A3A3" stroke-width="0.875607"/>
<path d="M269.082 71.0446C277.056 74.891 282.178 82.8038 283.976 92.551C285.774 102.298 284.239 113.848 278.918 124.878C273.597 135.909 265.513 144.3 256.766 148.96C248.018 153.62 238.636 154.536 230.663 150.69C222.689 146.844 217.566 138.93 215.768 129.183C213.97 119.436 215.506 107.887 220.827 96.8563C226.148 85.8259 234.231 77.4342 242.979 72.7743C251.727 68.1143 261.109 67.1982 269.082 71.0446Z" fill="#001662" stroke="#2563EB" stroke-width="0.869298"/>
<path d="M275.169 74.0075C283.142 77.8538 288.265 85.7667 290.063 95.5139C291.861 105.261 290.325 116.811 285.004 127.841C279.683 138.872 271.6 147.263 262.852 151.923C254.104 156.583 244.723 157.499 236.749 153.653C228.775 149.807 223.652 141.893 221.854 132.146C220.056 122.399 221.593 110.85 226.914 99.8192C232.235 88.7888 240.317 80.3971 249.065 75.7372C257.813 71.0771 267.195 70.1611 275.169 74.0075Z" fill="#001662" stroke="#2563EB" stroke-width="0.869298"/>
<path d="M119.009 162.768C126.983 166.614 132.105 174.527 133.903 184.274C135.701 194.021 134.166 205.571 128.845 216.602C123.524 227.632 115.44 236.023 106.692 240.683C97.9445 245.343 88.5631 246.26 80.5895 242.413C72.6158 238.567 67.4927 230.654 65.6946 220.906C63.8966 211.16 65.4331 199.61 70.754 188.58C76.0749 177.549 84.1577 169.158 92.9053 164.498C101.653 159.838 111.035 158.922 119.009 162.768Z" fill="#001662" stroke="#2563EB" stroke-width="0.869298"/>
<path d="M125.096 165.731C133.069 169.577 138.191 177.49 139.99 187.237C141.788 196.984 140.252 208.534 134.931 219.564C129.61 230.595 121.527 238.986 112.779 243.646C104.031 248.306 94.6495 249.222 86.6759 245.376C78.7022 241.53 73.5791 233.617 71.781 223.869C69.983 214.122 71.5195 202.573 76.8404 191.543C82.1613 180.512 90.2441 172.12 98.9917 167.461C107.74 162.8 117.122 161.884 125.096 165.731Z" fill="#001662" stroke="#2563EB" stroke-width="0.869298"/>
<path d="M91.0921 326.819C99.0657 330.665 104.188 338.578 105.986 348.325C107.784 358.072 106.249 369.622 100.928 380.652C95.6067 391.683 87.5231 400.074 78.7754 404.734C70.0275 409.394 60.6461 410.31 52.6725 406.464C44.6988 402.618 39.5757 394.705 37.7776 384.957C35.9796 375.21 37.5161 363.661 42.837 352.63C48.1579 341.6 56.2407 333.208 64.9883 328.548C73.7363 323.888 83.1184 322.972 91.0921 326.819Z" fill="#001662" stroke="#2563EB" stroke-width="0.869298"/>
<path d="M97.1786 329.782C105.152 333.628 110.274 341.541 112.073 351.288C113.871 361.035 112.335 372.585 107.014 383.615C101.693 394.646 93.6096 403.037 84.8618 407.697C76.1139 412.357 66.7325 413.273 58.7589 409.427C50.7852 405.581 45.6622 397.667 43.864 387.92C42.066 378.173 43.6025 366.624 48.9234 355.593C54.2443 344.563 62.3271 336.171 71.0747 331.511C79.8228 326.851 89.2049 325.935 97.1786 329.782Z" fill="#001662" stroke="#2563EB" stroke-width="0.869298"/>
<path d="M451.242 197.013C459.215 200.86 464.337 208.772 466.136 218.52C467.934 228.267 466.398 239.816 461.077 250.847C455.756 261.877 447.673 270.269 438.925 274.928C430.177 279.588 420.795 280.505 412.822 276.659C404.848 272.812 399.725 264.899 397.927 255.152C396.129 245.405 397.666 233.855 402.986 222.825C408.307 211.795 416.39 203.403 425.138 198.743C433.886 194.083 443.268 193.167 451.242 197.013Z" fill="#001662" stroke="#2563EB" stroke-width="0.869298"/>
<path d="M457.328 199.976C465.302 203.822 470.424 211.735 472.222 221.483C474.02 231.23 472.484 242.779 467.163 253.81C461.843 264.84 453.759 273.231 445.011 277.891C436.263 282.551 426.882 283.468 418.908 279.622C410.935 275.775 405.812 267.862 404.013 258.115C402.215 248.368 403.752 236.818 409.073 225.788C414.394 214.757 422.477 206.366 431.224 201.706C439.972 197.046 449.354 196.13 457.328 199.976Z" fill="#001662" stroke="#2563EB" stroke-width="0.869298"/>
<path d="M419.156 68.0817C427.13 71.9281 432.252 79.8409 434.05 89.5881C435.848 99.3351 434.312 110.885 428.992 121.915C423.671 132.946 415.587 141.337 406.839 145.997C398.091 150.657 388.71 151.573 380.736 147.727C372.763 143.881 367.64 135.968 365.842 126.22C364.044 116.473 365.58 104.924 370.901 93.8934C376.222 82.863 384.305 74.4714 393.052 69.8114C401.8 65.1514 411.182 64.2353 419.156 68.0817Z" fill="#001662" stroke="#2563EB" stroke-width="0.869298"/>
<path d="M425.243 71.0446C433.216 74.891 438.338 82.8038 440.137 92.5511C441.935 102.298 440.399 113.848 435.078 124.878C429.757 135.909 421.674 144.3 412.926 148.96C404.178 153.62 394.796 154.536 386.823 150.69C378.849 146.844 373.726 138.931 371.928 129.183C370.13 119.436 371.667 107.887 376.987 96.8564C382.308 85.826 390.391 77.4343 399.139 72.7744C407.887 68.1143 417.269 67.1982 425.243 71.0446Z" fill="#001662" stroke="#2563EB" stroke-width="0.869298"/>
<path d="M259.965 106.172L259.999 101.262L270.327 96.8553L270.38 89.3739L242.257 101.373L242.204 108.854L252.533 104.447L252.499 109.353C244.101 113.354 237.777 117.855 237.761 120.02C237.746 122.185 244.048 121.298 252.437 118.14L252.326 133.868L259.795 130.681L259.906 114.952C268.288 110.956 274.6 106.463 274.615 104.3C274.63 102.136 268.344 103.018 259.967 106.172M259.915 113.62L259.915 113.616C259.704 113.72 258.621 114.253 256.21 115.281C254.283 116.104 252.928 116.623 252.45 116.8L252.45 116.806C245.036 119.613 239.51 120.571 239.522 118.891C239.534 117.211 245.08 113.447 252.498 109.925L252.46 115.407C252.945 115.236 254.334 114.733 256.251 113.915C258.555 112.932 259.713 112.334 259.926 112.222L259.965 106.739C267.364 103.94 272.877 102.989 272.865 104.663C272.854 106.337 267.318 110.101 259.916 113.616" fill="#2563EB"/>
<path d="M113.936 206.62C113.887 201.972 111.325 201.517 106.227 203.132C102.584 204.228 101.846 203.491 101.826 201.631C101.807 199.772 103.007 198.035 105.431 196.95C107.613 195.973 108.834 196.227 109.461 197.948C109.586 198.292 109.953 198.395 110.316 198.232L112.256 197.365C112.741 197.148 113.1 196.586 113.095 196.055L113.093 195.922C112.578 193.218 110.372 191.937 107.581 192.919L107.548 189.732C107.542 189.2 107.175 188.965 106.567 189.103L104.749 189.917C104.264 190.134 103.904 190.695 103.79 191.413L103.822 194.468C100.191 196.626 97.9152 200.313 97.9499 203.633C97.9958 208.016 100.438 208.657 105.537 207.043C108.938 206.188 110.037 206.496 110.06 208.621C110.082 210.746 108.4 212.967 106.097 213.997C102.945 215.408 101.838 214.435 101.454 212.606C101.327 212.129 100.961 212.026 100.597 212.188L98.5361 213.111C98.0514 213.328 97.6918 213.889 97.6974 214.42L97.6988 214.553C98.2182 217.656 100.183 219.178 104.19 218.052L104.224 221.24C104.229 221.771 104.597 222.006 105.205 221.868L107.023 221.054C107.508 220.837 107.867 220.276 107.982 219.558L107.949 216.371C111.578 214.079 113.974 210.205 113.936 206.62Z" fill="#2563EB"/>
<path d="M99.8979 226.91C90.4033 227.423 85.4333 218.039 88.8421 206.24C90.6021 199.849 94.5581 193.809 99.5075 189.593C99.9897 189.11 100.228 188.603 100.221 187.939L100.202 186.08C100.196 185.549 99.9494 185.259 99.463 185.343C99.3417 185.397 99.0994 185.506 98.9794 185.693C87.5047 194.83 81.3411 211.065 85.1099 222.053C87.3698 228.514 92.6424 231.892 99.456 231.244C99.9438 231.293 100.426 230.81 100.541 230.225C100.661 230.038 100.66 229.905 100.657 229.64L100.638 227.78C100.634 227.382 100.264 227.013 99.8979 226.91ZM112.315 179.725C111.827 179.677 111.345 180.159 111.229 180.745C111.109 180.932 111.11 181.065 111.113 181.33L111.133 183.19C111.138 183.721 111.508 184.089 111.874 184.192C121.369 183.679 126.339 193.063 122.93 204.863C121.17 211.254 117.214 217.294 112.264 221.51C111.782 221.992 111.544 222.499 111.551 223.164L111.57 225.023C111.576 225.554 111.822 225.844 112.309 225.76C112.43 225.705 112.673 225.597 112.792 225.41C124.267 216.272 130.431 200.038 126.662 189.049C124.401 182.456 119.007 179.132 112.315 179.725Z" fill="#2563EB"/>
<path d="M406.547 87.3802L402.503 91.4904L391.482 102.726L387.437 106.836L386.921 130.324L390.856 131.17L401.679 133.469L405.614 134.315L409.658 130.205L420.58 119.01L424.624 114.9L425.141 91.4121L421.206 90.5662L410.483 88.2261L406.547 87.3802ZM395.009 122.103L395.308 108.528L406.329 97.2924L417.052 99.6325L416.754 113.208L405.732 124.443L395.009 122.103Z" fill="#2563EB"/>
<g clip-path="url(#clip3_5423_1171)">
<path fill-rule="evenodd" clip-rule="evenodd" d="M90.7035 348.29L89.5943 350.247C95.7182 354.911 96.2288 366.4 90.7711 376.725L92.0034 377.537C98.0809 366.117 97.5146 353.375 90.702 348.256" fill="#2563EB"/>
<path fill-rule="evenodd" clip-rule="evenodd" d="M66.0811 360.451C72.1091 350.501 81.8152 345.755 88.4529 349.514L89.5621 347.555C82.2352 343.343 71.47 348.606 64.8212 359.651" fill="#2563EB"/>
<path fill-rule="evenodd" clip-rule="evenodd" d="M66.222 388.744C60.1051 384.078 59.595 372.6 65.0458 362.279L63.8132 361.467C57.7358 372.888 58.3021 385.629 65.1146 390.748" fill="#2563EB"/>
<path fill-rule="evenodd" clip-rule="evenodd" d="M89.7313 378.556C83.7033 388.506 73.9969 393.252 67.3595 389.493L66.25 391.451C73.5771 395.663 84.3422 390.4 90.9911 379.355" fill="#2563EB"/>
<path fill-rule="evenodd" clip-rule="evenodd" d="M81.2953 364.245C81.4185 367.016 77.7425 368.469 76.5794 369.037L76.3624 364.155C77.5255 363.586 81.1672 361.362 81.2953 364.245ZM82.5885 371.357C82.7231 374.388 78.3208 376.186 76.9235 376.869L76.6846 371.492C78.082 370.814 82.4478 368.193 82.5885 371.358M85.0912 361.27C84.7281 358.493 82.5777 358.553 79.8989 359.561L79.7218 355.574L77.6608 356.582L77.8345 360.49C77.292 360.755 76.7379 361.026 76.1886 361.318L76.0139 357.387L73.9648 358.389L74.143 362.399L69.9671 364.44L70.0831 367.05C70.0831 367.05 71.6039 366.273 71.5819 366.317C71.855 366.147 72.1348 366.105 72.3621 366.198C72.5895 366.291 72.7466 366.513 72.8005 366.816L73.2885 377.797C73.2877 377.913 73.268 378.035 73.2305 378.158C73.193 378.28 73.1385 378.4 73.07 378.51C73.0015 378.62 72.9204 378.719 72.8313 378.8C72.7422 378.881 72.647 378.944 72.5509 378.984C72.5486 378.985 72.5462 378.986 72.5438 378.987C72.5724 379.001 71.0451 379.72 71.0451 379.72L70.7649 382.835L74.925 380.801L75.1061 384.876L77.1668 383.868L76.9884 379.853L78.6355 379.048L78.8131 383.044L80.8777 382.034L80.6987 378.006C84.169 376.054 86.5516 373.851 86.6844 369.845C86.7925 366.621 85.4969 365.84 83.5016 366.243C84.6679 364.937 85.3647 363.298 85.0912 361.27Z" fill="#2563EB"/>
<mask id="mask0_5423_1171" style="mask-type:luminance" maskUnits="userSpaceOnUse" x="55" y="333" width="46" height="73">
<path fill-rule="evenodd" clip-rule="evenodd" d="M55.4604 354.697L98.1043 333.849L100.347 384.32L57.7036 405.168L55.4604 354.697Z" fill="white"/>
</mask>
<g mask="url(#mask0_5423_1171)">
<path fill-rule="evenodd" clip-rule="evenodd" d="M76.866 346.243C66.0152 351.556 57.6867 366.271 58.2641 379.111C58.8415 391.95 68.1057 398.052 78.9558 392.74C89.799 387.431 98.1247 372.731 97.5585 359.895C96.9749 347.061 87.7157 340.958 76.8664 346.257L76.866 346.243ZM79.0217 394.746C67.2459 400.501 57.1989 393.867 56.5818 379.928C55.9647 365.99 65.0104 350.026 76.7862 344.271C88.562 338.517 98.6045 345.147 99.2257 359.08C99.8322 373.02 90.7946 388.975 79.0217 394.746Z" fill="#2563EB"/>
</g>
</g>
<g clip-path="url(#clip4_5423_1171)">
<path d="M437.072 216.026C448.873 210.256 458.904 216.212 459.489 229.36C460.072 242.484 451.01 257.8 439.185 263.581C427.361 269.361 417.331 263.405 416.746 250.257C416.162 237.108 425.27 221.796 437.072 216.026ZM436.777 237.252C436.394 235.349 434.606 234.822 432.78 236.045C430.955 237.269 429.807 239.793 430.189 241.696C430.594 243.588 432.383 244.117 434.186 242.904C436.011 241.68 437.16 239.155 436.777 237.252ZM445.572 232.952C445.19 231.049 443.401 230.522 441.576 231.745C439.75 232.969 438.602 235.493 438.984 237.396C439.367 239.299 441.156 239.828 442.981 238.604C444.806 237.38 445.955 234.855 445.572 232.952ZM437.195 221.905C428.063 226.369 421.032 238.373 421.491 248.702L425.709 246.64C425.364 238.88 430.561 229.941 437.381 226.606C444.224 223.261 449.956 226.883 450.3 234.617L454.518 232.555C454.103 222.204 446.327 217.44 437.195 221.905Z" fill="#2563EB"/>
</g>
<defs>
<clipPath id="clip0_5423_1171">
<path d="M170.06 307.93C170.06 302.785 173.932 297.066 178.709 295.155L340.373 230.489C345.149 228.579 349.022 231.2 349.022 236.345V268.093C349.022 273.238 345.149 278.957 340.373 280.868L178.709 345.533C173.932 347.444 170.06 344.822 170.06 339.678V307.93Z" fill="white"/>
</clipPath>
<clipPath id="clip1_5423_1171">
<path d="M170.06 372.533C170.06 367.389 173.932 361.669 178.709 359.758L340.373 295.093C345.149 293.182 349.022 295.804 349.022 300.949V332.697C349.022 337.841 345.149 343.561 340.373 345.472L178.709 410.137C173.932 412.048 170.06 409.426 170.06 404.281V372.533Z" fill="white"/>
</clipPath>
<clipPath id="clip2_5423_1171">
<path d="M175.32 375.403C175.32 370.258 179.193 364.538 183.969 362.628L345.633 297.962C350.41 296.052 354.282 298.673 354.282 303.818V335.566C354.282 340.711 350.41 346.43 345.633 348.341L183.969 413.006C179.193 414.917 175.32 412.295 175.32 407.151V375.403Z" fill="white"/>
</clipPath>
<clipPath id="clip3_5423_1171">
<rect width="47.4673" height="50.521" fill="white" transform="matrix(0.898384 -0.43921 0.0444006 0.999014 55.4595 354.698)"/>
</clipPath>
<clipPath id="clip4_5423_1171">
<rect width="47.577" height="47.577" fill="white" transform="matrix(0.898384 -0.43921 0.0444006 0.999014 415.689 226.479)"/>
</clipPath>
</defs>
</svg>
