<svg width="510" height="510" viewBox="0 0 510 510" fill="none" xmlns="http://www.w3.org/2000/svg">
<path d="M227.502 276.379L189.999 291.433V247.158L227.502 232.105V276.379Z" fill="black" stroke="#A3A3A3" stroke-width="0.562585"/>
<path d="M227.025 231.689L189.717 246.665L152.407 231.689L189.717 216.713L227.025 231.689Z" fill="black" stroke="#A3A3A3" stroke-width="0.562585"/>
<path d="M189.436 247.158V290.878L152.355 232.274L189.436 247.158Z" fill="black" stroke="#A3A3A3" stroke-width="0.562585"/>
<path d="M189.013 291.263L151.934 276.379V232.659L189.013 291.263Z" fill="black" stroke="#A3A3A3" stroke-width="0.562585"/>
<path d="M227.782 231.69V276.57L189.717 291.849L151.652 276.57V231.69L189.717 216.411L227.782 231.69Z" fill="black" stroke="#A3A3A3" stroke-width="0.562585" stroke-miterlimit="10"/>
<path d="M227.783 231.69L189.718 246.969" stroke="#A3A3A3" stroke-width="0.562585" stroke-miterlimit="10"/>
<path d="M189.718 291.849V246.969" stroke="#A3A3A3" stroke-width="0.562585" stroke-miterlimit="10"/>
<path d="M189.717 246.969L151.653 231.69" stroke="#A3A3A3" stroke-width="0.562585" stroke-miterlimit="10"/>
<line x1="116.013" y1="317.855" x2="240.274" y2="329.355" stroke="#F213A4" stroke-width="0.562585"/>
<line x1="283.369" y1="319.722" x2="407.63" y2="331.222" stroke="#F213A4" stroke-width="0.562585"/>
<path d="M118.919 344.244L81.4165 359.298V315.023L118.919 299.969V344.244Z" fill="black" stroke="#A3A3A3" stroke-width="0.562585"/>
<path d="M118.443 299.554L81.1348 314.529L43.8252 299.554L81.1348 284.578L118.443 299.554Z" fill="black" stroke="#A3A3A3" stroke-width="0.562585"/>
<path d="M80.8535 315.023V358.743L43.7725 300.138L80.8535 315.023Z" fill="black" stroke="#A3A3A3" stroke-width="0.562585"/>
<path d="M80.4307 359.128L43.3516 344.244V300.524L80.4307 359.128Z" fill="black" stroke="#A3A3A3" stroke-width="0.562585"/>
<path d="M119.2 299.554V344.435L81.135 359.714L43.0703 344.435V299.554L81.135 284.275L119.2 299.554Z" fill="black" stroke="#A3A3A3" stroke-width="0.562585" stroke-miterlimit="10"/>
<path d="M119.2 299.554L81.1353 314.834" stroke="#A3A3A3" stroke-width="0.562585" stroke-miterlimit="10"/>
<path d="M81.1353 359.715V314.835" stroke="#A3A3A3" stroke-width="0.562585" stroke-miterlimit="10"/>
<path d="M81.135 314.834L43.0703 299.554" stroke="#A3A3A3" stroke-width="0.562585" stroke-miterlimit="10"/>
<line x1="213.81" y1="262.56" x2="413.88" y2="327.687" stroke="#F213A4" stroke-width="0.562585"/>
<path d="M471.373 356.115L433.87 371.168V326.894L471.373 311.84V356.115Z" fill="black" stroke="#A3A3A3" stroke-width="0.562585"/>
<path d="M470.897 311.426L433.588 326.401L396.279 311.426L433.588 296.45L470.897 311.426Z" fill="black" stroke="#A3A3A3" stroke-width="0.562585"/>
<path d="M433.307 326.894V370.614L396.226 312.009L433.307 326.894Z" fill="black" stroke="#A3A3A3" stroke-width="0.562585"/>
<path d="M432.884 370.998L395.805 356.115V312.395L432.884 370.998Z" fill="black" stroke="#A3A3A3" stroke-width="0.562585"/>
<path d="M471.654 311.426V356.307L433.589 371.586L395.524 356.307V311.426L433.589 296.147L471.654 311.426Z" fill="black" stroke="#A3A3A3" stroke-width="0.562585" stroke-miterlimit="10"/>
<path d="M471.654 311.425L433.589 326.704" stroke="#A3A3A3" stroke-width="0.562585" stroke-miterlimit="10"/>
<path d="M433.589 371.586V326.705" stroke="#A3A3A3" stroke-width="0.562585" stroke-miterlimit="10"/>
<path d="M433.589 326.704L395.524 311.425" stroke="#A3A3A3" stroke-width="0.562585" stroke-miterlimit="10"/>
<path d="M206.266 261.773C206.266 259.714 207.936 258.045 209.995 258.045C212.054 258.045 213.723 259.714 213.723 261.773C213.723 263.832 212.054 265.501 209.995 265.501C207.936 265.501 206.266 263.832 206.266 261.773Z" fill="#950061" stroke="#F213A4" stroke-width="0.821374" stroke-miterlimit="10"/>
<path d="M202.363 261.77C202.363 257.553 205.78 254.136 209.997 254.136C214.213 254.136 217.63 257.553 217.63 261.77C217.63 265.986 214.213 269.404 209.997 269.404C205.78 269.404 202.363 265.986 202.363 261.77Z" stroke="#F213A4" stroke-opacity="0.5" stroke-width="0.821374" stroke-miterlimit="10"/>
<path d="M198.756 261.771C198.756 255.564 203.787 250.533 209.994 250.533C216.201 250.533 221.232 255.564 221.232 261.771C221.232 267.978 216.201 273.009 209.994 273.009C203.787 273.009 198.756 267.978 198.756 261.771Z" stroke="#F213A4" stroke-opacity="0.2" stroke-width="0.821374" stroke-miterlimit="10"/>
<path d="M410.83 341.509C410.83 339.45 412.499 337.781 414.558 337.781C416.617 337.781 418.286 339.45 418.286 341.509C418.286 343.568 416.617 345.237 414.558 345.237C412.499 345.237 410.83 343.568 410.83 341.509Z" fill="#950061" stroke="#F213A4" stroke-width="0.821374" stroke-miterlimit="10"/>
<path d="M406.925 341.505C406.925 337.289 410.342 333.871 414.559 333.871C418.775 333.871 422.192 337.289 422.192 341.505C422.192 345.722 418.775 349.139 414.559 349.139C410.342 349.139 406.925 345.722 406.925 341.505Z" stroke="#F213A4" stroke-opacity="0.5" stroke-width="0.821374" stroke-miterlimit="10"/>
<path d="M403.32 341.507C403.32 335.3 408.351 330.269 414.558 330.269C420.765 330.269 425.796 335.3 425.796 341.507C425.796 347.714 420.765 352.745 414.558 352.745C408.351 352.745 403.32 347.714 403.32 341.507Z" stroke="#F213A4" stroke-opacity="0.2" stroke-width="0.821374" stroke-miterlimit="10"/>
<path d="M96.4388 329.378C96.4388 327.319 98.108 325.65 100.167 325.65C102.226 325.65 103.895 327.319 103.895 329.378C103.895 331.437 102.226 333.106 100.167 333.106C98.108 333.106 96.4388 331.437 96.4388 329.378Z" fill="#950061" stroke="#F213A4" stroke-width="0.821374" stroke-miterlimit="10"/>
<path d="M92.5344 329.374C92.5344 325.158 95.9523 321.74 100.168 321.74C104.385 321.74 107.802 325.158 107.802 329.374C107.802 333.59 104.385 337.008 100.168 337.008C95.9523 337.008 92.5344 333.59 92.5344 329.374Z" stroke="#F213A4" stroke-opacity="0.5" stroke-width="0.821374" stroke-miterlimit="10"/>
<path d="M88.9286 329.375C88.9286 323.168 93.9602 318.136 100.167 318.136C106.373 318.136 111.405 323.168 111.405 329.375C111.405 335.581 106.373 340.613 100.167 340.613C93.9602 340.613 88.9286 335.581 88.9286 329.375Z" stroke="#F213A4" stroke-opacity="0.2" stroke-width="0.821374" stroke-miterlimit="10"/>
<path d="M77.4071 299.296C77.4071 297.237 79.0763 295.568 81.1352 295.568C83.1942 295.568 84.8633 297.237 84.8633 299.296C84.8633 301.355 83.1942 303.024 81.1352 303.024C79.0763 303.024 77.4071 301.355 77.4071 299.296Z" fill="#950061" stroke="#F213A4" stroke-width="0.821374" stroke-miterlimit="10"/>
<path d="M73.5022 299.293C73.5022 295.076 76.9201 291.659 81.1362 291.659C85.3523 291.659 88.77 295.076 88.77 299.293C88.77 303.509 85.3523 306.927 81.1362 306.927C76.9201 306.927 73.5022 303.509 73.5022 299.293Z" stroke="#F213A4" stroke-opacity="0.5" stroke-width="0.821374" stroke-miterlimit="10"/>
<path d="M69.8969 299.293C69.8969 293.086 74.9285 288.055 81.1351 288.055C87.3417 288.055 92.373 293.086 92.373 299.293C92.373 305.499 87.3417 310.531 81.1351 310.531C74.9285 310.531 69.8969 305.499 69.8969 299.293Z" stroke="#F213A4" stroke-opacity="0.2" stroke-width="0.821374" stroke-miterlimit="10"/>
<path d="M429.863 311.662C429.863 309.603 431.532 307.934 433.591 307.934C435.65 307.934 437.319 309.603 437.319 311.662C437.319 313.721 435.65 315.39 433.591 315.39C431.532 315.39 429.863 313.721 429.863 311.662Z" fill="#950061" stroke="#F213A4" stroke-width="0.821374" stroke-miterlimit="10"/>
<path d="M425.957 311.658C425.957 307.442 429.375 304.024 433.591 304.024C437.807 304.024 441.225 307.442 441.225 311.658C441.225 315.874 437.807 319.292 433.591 319.292C429.375 319.292 425.957 315.874 425.957 311.658Z" stroke="#F213A4" stroke-opacity="0.5" stroke-width="0.821374" stroke-miterlimit="10"/>
<path d="M422.351 311.658C422.351 305.451 427.383 300.42 433.59 300.42C439.796 300.42 444.828 305.451 444.828 311.658C444.828 317.865 439.796 322.896 433.59 322.896C427.383 322.896 422.351 317.865 422.351 311.658Z" stroke="#F213A4" stroke-opacity="0.2" stroke-width="0.821374" stroke-miterlimit="10"/>
<path d="M166.552 261.772C166.552 259.713 168.221 258.043 170.28 258.043C172.339 258.043 174.008 259.713 174.008 261.772C174.008 263.831 172.339 265.5 170.28 265.5C168.221 265.5 166.552 263.831 166.552 261.772Z" fill="#950061" stroke="#F213A4" stroke-width="0.821374" stroke-miterlimit="10"/>
<path d="M162.648 261.769C162.648 257.553 166.066 254.135 170.282 254.135C174.498 254.135 177.916 257.553 177.916 261.769C177.916 265.985 174.498 269.403 170.282 269.403C166.066 269.403 162.648 265.985 162.648 261.769Z" stroke="#F213A4" stroke-opacity="0.5" stroke-width="0.821374" stroke-miterlimit="10"/>
<path d="M159.042 261.771C159.042 255.564 164.073 250.532 170.28 250.532C176.487 250.532 181.518 255.564 181.518 261.771C181.518 267.977 176.487 273.009 170.28 273.009C164.073 273.009 159.042 267.977 159.042 261.771Z" stroke="#F213A4" stroke-opacity="0.2" stroke-width="0.821374" stroke-miterlimit="10"/>
<line x1="211.911" y1="264.921" x2="283.19" y2="325.434" stroke="#F213A4" stroke-width="0.562585"/>
<line x1="166.678" y1="264.149" x2="106.872" y2="294.188" stroke="#F213A4" stroke-width="0.562585"/>
<line x1="412.095" y1="343.491" x2="352.289" y2="373.53" stroke="#F213A4" stroke-width="0.562585"/>
<path d="M300.794 343.984L263.291 359.038V314.763L300.794 299.709V343.984Z" fill="black" stroke="#A3A3A3" stroke-width="0.562585"/>
<path d="M300.318 299.294L263.009 314.269L225.7 299.294L263.009 284.318L300.318 299.294Z" fill="black" stroke="#A3A3A3" stroke-width="0.562585"/>
<path d="M262.728 314.763V358.483L225.647 299.878L262.728 314.763Z" fill="black" stroke="#A3A3A3" stroke-width="0.562585"/>
<path d="M262.305 358.868L225.226 343.984V300.264L262.305 358.868Z" fill="black" stroke="#A3A3A3" stroke-width="0.562585"/>
<path d="M301.074 299.294V344.175L263.009 359.454L224.945 344.175V299.294L263.009 284.015L301.074 299.294Z" fill="black" stroke="#A3A3A3" stroke-width="0.562585" stroke-miterlimit="10"/>
<path d="M301.075 299.294L263.01 314.573" stroke="#A3A3A3" stroke-width="0.562585" stroke-miterlimit="10"/>
<path d="M263.01 359.455V314.575" stroke="#A3A3A3" stroke-width="0.562585" stroke-miterlimit="10"/>
<path d="M263.009 314.573L224.945 299.294" stroke="#A3A3A3" stroke-width="0.562585" stroke-miterlimit="10"/>
<path d="M240.248 329.378C240.248 327.319 241.917 325.65 243.976 325.65C246.035 325.65 247.704 327.319 247.704 329.378C247.704 331.437 246.035 333.106 243.976 333.106C241.917 333.106 240.248 331.437 240.248 329.378Z" fill="#950061" stroke="#F213A4" stroke-width="0.821374" stroke-miterlimit="10"/>
<path d="M236.343 329.374C236.343 325.158 239.761 321.74 243.977 321.74C248.193 321.74 251.611 325.158 251.611 329.374C251.611 333.59 248.193 337.008 243.977 337.008C239.761 337.008 236.343 333.59 236.343 329.374Z" stroke="#F213A4" stroke-opacity="0.5" stroke-width="0.821374" stroke-miterlimit="10"/>
<path d="M232.737 329.375C232.737 323.168 237.769 318.136 243.975 318.136C250.182 318.136 255.213 323.168 255.213 329.375C255.213 335.581 250.182 340.613 243.975 340.613C237.769 340.613 232.737 335.581 232.737 329.375Z" stroke="#F213A4" stroke-opacity="0.2" stroke-width="0.821374" stroke-miterlimit="10"/>
<line x1="247.886" y1="331.044" x2="319.165" y2="391.556" stroke="#F213A4" stroke-width="0.562585"/>
<line x1="103.984" y1="330.991" x2="304.054" y2="396.118" stroke="#F213A4" stroke-width="0.562585"/>
<path d="M362.793 422.821L325.291 437.875V393.6L362.793 378.547V422.821Z" fill="black" stroke="#A3A3A3" stroke-width="0.562585"/>
<path d="M362.317 378.132L325.009 393.108L287.699 378.132L325.009 363.156L362.317 378.132Z" fill="black" stroke="#A3A3A3" stroke-width="0.562585"/>
<path d="M324.728 393.6V437.32L287.646 378.716L324.728 393.6Z" fill="black" stroke="#A3A3A3" stroke-width="0.562585"/>
<path d="M324.305 437.705L287.226 422.821V379.101L324.305 437.705Z" fill="black" stroke="#A3A3A3" stroke-width="0.562585"/>
<path d="M363.074 378.133V423.013L325.009 438.292L286.944 423.013V378.133L325.009 362.854L363.074 378.133Z" fill="black" stroke="#A3A3A3" stroke-width="0.562585" stroke-miterlimit="10"/>
<path d="M363.074 378.132L325.009 393.411" stroke="#A3A3A3" stroke-width="0.562585" stroke-miterlimit="10"/>
<path d="M325.009 438.292V393.412" stroke="#A3A3A3" stroke-width="0.562585" stroke-miterlimit="10"/>
<path d="M325.009 393.411L286.944 378.132" stroke="#A3A3A3" stroke-width="0.562585" stroke-miterlimit="10"/>
<line x1="433.594" y1="307.934" x2="433.594" y2="183.723" stroke="#F213A4" stroke-width="0.562585"/>
<line x1="325.102" y1="377.495" x2="325.102" y2="253.285" stroke="#F213A4" stroke-width="0.562585"/>
<line x1="81.1333" y1="295.392" x2="81.1333" y2="171.182" stroke="#F213A4" stroke-width="0.562585"/>
<path d="M40.973 169.657L174.428 80.6813C178.228 78.145 182.989 77.5131 187.323 78.9548L467.396 172.309C470.333 173.289 471.829 176.034 471.636 178.698C471.506 180.489 470.613 182.242 468.882 183.398L338.257 270.487C333.024 273.976 326.483 274.848 320.511 272.863L42.3791 180.15C39.788 179.288 38.3801 176.975 38.3459 174.624C38.3186 172.752 39.1623 170.856 40.973 169.648V169.657Z" fill="black" stroke="#A3A3A3" stroke-width="0.562585" stroke-miterlimit="10"/>
<path d="M40.973 163.169L174.428 74.1928C178.228 71.6565 182.989 71.0246 187.323 72.4663L467.396 165.821C472.308 167.458 473.189 174.035 468.882 176.909L338.257 263.999C333.024 267.487 326.483 268.359 320.511 266.375L42.3791 173.661C37.7248 172.113 36.8882 165.883 40.973 163.16V163.169Z" fill="black" stroke="#A3A3A3" stroke-width="0.562585" stroke-miterlimit="10"/>
<path d="M220.535 99.165C221.362 98.5866 222.404 98.4353 223.365 98.7468L288.731 120.337C289.923 120.728 290.155 122.312 289.122 123.024C288.072 123.763 286.737 123.959 285.518 123.549L220.989 102.235C219.627 101.781 219.36 99.9749 220.535 99.1561V99.165Z" fill="#262626"/>
<path d="M211.823 104.833C212.651 104.255 213.692 104.103 214.653 104.415L243.006 113.421C244.199 113.813 244.43 115.397 243.398 116.109C242.348 116.847 241.013 117.043 239.794 116.634L212.277 107.904C210.915 107.45 210.648 105.643 211.823 104.824V104.833Z" fill="#262626"/>
<path d="M136.321 128.264C137.075 127.737 138.025 127.597 138.902 127.881V127.882L204.268 149.472H204.269C205.241 149.792 205.428 151.081 204.588 151.661L204.586 151.663C203.609 152.35 202.368 152.532 201.233 152.151H201.231L136.703 130.836C135.606 130.471 135.358 129.062 136.206 128.343L136.321 128.264Z" fill="#262626" stroke="#262626" stroke-width="0.562585"/>
<path d="M127.618 133.926C128.372 133.399 129.322 133.26 130.2 133.544L130.202 133.545L158.551 142.55H158.552C159.525 142.87 159.711 144.161 158.872 144.74L158.87 144.741C157.893 145.428 156.651 145.61 155.517 145.229L155.512 145.228L127.999 136.499H128C126.902 136.133 126.654 134.724 127.502 134.005L127.618 133.926Z" fill="#262626" stroke="#262626" stroke-width="0.562585"/>
<path d="M119.955 139.637C120.709 139.11 121.658 138.97 122.536 139.254V139.255L187.901 160.845H187.902C188.875 161.165 189.061 162.455 188.222 163.034L188.22 163.036C187.243 163.723 186.001 163.905 184.867 163.524H184.865L120.337 142.209C119.239 141.844 118.991 140.435 119.84 139.716L119.955 139.637Z" fill="#262626" stroke="#262626" stroke-width="0.562585"/>
<path d="M111.242 145.297C111.997 144.77 112.946 144.631 113.824 144.915L113.826 144.916L142.176 153.921H142.177C143.15 154.241 143.336 155.531 142.496 156.111L142.494 156.112C141.517 156.799 140.276 156.981 139.142 156.6L139.137 156.599L111.623 147.869H111.624C110.527 147.503 110.279 146.095 111.127 145.376L111.242 145.297Z" fill="#262626" stroke="#262626" stroke-width="0.562585"/>
<path d="M103.357 151.6C104.112 151.072 105.061 150.934 105.939 151.218L105.941 151.219L134.291 160.224H134.292C135.265 160.543 135.451 161.834 134.611 162.413L134.609 162.414C133.632 163.102 132.391 163.283 131.257 162.903L131.252 162.902L103.738 154.172H103.739C102.642 153.806 102.394 152.398 103.242 151.679L103.357 151.6Z" fill="#262626" stroke="#262626" stroke-width="0.562585"/>
<path d="M265.807 171.943C266.562 171.416 267.511 171.277 268.389 171.562L268.391 171.562L296.741 180.567H296.742C297.714 180.887 297.901 182.178 297.061 182.757L297.059 182.758C296.082 183.445 294.841 183.627 293.707 183.246L293.702 183.245L266.188 174.516H266.189C265.091 174.15 264.843 172.741 265.692 172.022L265.807 171.943Z" fill="#262626" stroke="#262626" stroke-width="0.562585"/>
<path d="M257.923 178.236C258.677 177.708 259.627 177.569 260.505 177.854L260.507 177.855L288.856 186.86H288.857C289.83 187.179 290.017 188.47 289.177 189.049L289.175 189.05C288.198 189.737 286.956 189.919 285.822 189.538L285.817 189.537L258.304 180.808H258.305C257.207 180.442 256.959 179.034 257.808 178.315L257.923 178.236Z" fill="#262626" stroke="#262626" stroke-width="0.562585"/>
<path d="M191.39 104.522C201.544 104.522 209.776 100.079 209.776 94.5991C209.776 89.1189 201.544 84.6763 191.39 84.6763C181.235 84.6763 173.003 89.1189 173.003 94.5991C173.003 100.079 181.235 104.522 191.39 104.522Z" fill="#262626"/>
<path d="M138.323 98.2571L435.562 199.71" stroke="#A3A3A3" stroke-width="0.562585" stroke-miterlimit="10"/>
<path d="M53.1284 176.42L138.322 119.518L245.595 156.913L162.537 213.21" stroke="#A3A3A3" stroke-width="0.562585" stroke-miterlimit="10"/>
<path d="M180.489 219.19L265.683 162.297L386.011 203.759L302.953 260.056" stroke="#A3A3A3" stroke-width="0.562585" stroke-miterlimit="10"/>
<path d="M321.269 378.135C321.269 376.076 322.938 374.407 324.997 374.407C327.056 374.407 328.725 376.076 328.725 378.135C328.725 380.194 327.056 381.863 324.997 381.863C322.938 381.863 321.269 380.194 321.269 378.135Z" fill="#950061" stroke="#F213A4" stroke-width="0.821374" stroke-miterlimit="10"/>
<path d="M317.365 378.131C317.365 373.915 320.782 370.497 324.999 370.497C329.215 370.497 332.632 373.915 332.632 378.131C332.632 382.347 329.215 385.765 324.999 385.765C320.782 385.765 317.365 382.347 317.365 378.131Z" stroke="#F213A4" stroke-opacity="0.5" stroke-width="0.821374" stroke-miterlimit="10"/>
<path d="M313.759 378.131C313.759 371.925 318.79 366.893 324.997 366.893C331.204 366.893 336.235 371.925 336.235 378.131C336.235 384.338 331.204 389.369 324.997 389.369C318.79 389.369 313.759 384.338 313.759 378.131Z" stroke="#F213A4" stroke-opacity="0.2" stroke-width="0.821374" stroke-miterlimit="10"/>
</svg>
