<svg width="24" height="24" viewBox="0 0 24 24" fill="none" xmlns="http://www.w3.org/2000/svg" class="h-10 w-10 shrink-0"><circle cx="7.60706" cy="12.5001" r="4.60706" fill="url(#paint0_linear_195_4078)"></circle><g filter="url(#filter0_bi_195_4078)"><path fill-rule="evenodd" clip-rule="evenodd" d="M21 7.36067C20.9998 4.95232 18.2081 3 14.7644 3C11.3206 3 8.52887 4.95242 8.52887 7.36085C8.52887 7.36402 8.52887 7.36718 8.52888 7.37035V16.639C8.52888 16.6391 8.52888 16.6391 8.52888 16.6392C8.52888 19.0476 11.3206 21 14.7644 21C18.2082 21 21 19.0476 21 16.6392C21 16.6391 21 16.6391 21 16.639V7.36067H21Z" fill="#BFB5FF" fill-opacity="0.8"></path></g><path d="M10.6782 9.802V9.802C13.1432 11.482 16.3855 11.482 18.8505 9.80197V9.80197" stroke="white" stroke-width="1.5" stroke-linecap="round" stroke-linejoin="round"></path><path d="M10.6782 14.5669V14.5669C13.1432 16.2469 16.3855 16.2469 18.8505 14.5669V14.5669" stroke="white" stroke-width="1.5" stroke-linecap="round" stroke-linejoin="round"></path><defs><filter id="filter0_bi_195_4078" x="6.52887" y="1" width="16.4711" height="22" filterUnits="userSpaceOnUse" color-interpolation-filters="sRGB"><feFlood flood-opacity="0" result="BackgroundImageFix"></feFlood><feGaussianBlur in="BackgroundImageFix" stdDeviation="1"></feGaussianBlur><feComposite in2="SourceAlpha" operator="in" result="effect1_backgroundBlur_195_4078"></feComposite><feBlend mode="normal" in="SourceGraphic" in2="effect1_backgroundBlur_195_4078" result="shape"></feBlend><feColorMatrix in="SourceAlpha" type="matrix" values="0 0 0 0 0 0 0 0 0 0 0 0 0 0 0 0 0 0 127 0" result="hardAlpha"></feColorMatrix><feOffset dy="0.2"></feOffset><feGaussianBlur stdDeviation="0.05"></feGaussianBlur><feComposite in2="hardAlpha" operator="arithmetic" k2="-1" k3="1"></feComposite><feColorMatrix type="matrix" values="0 0 0 0 1 0 0 0 0 1 0 0 0 0 1 0 0 0 1 0"></feColorMatrix><feBlend mode="normal" in2="shape" result="effect2_innerShadow_195_4078"></feBlend></filter><linearGradient id="paint0_linear_195_4078" x1="4.5433" y1="15.4442" x2="21.7601" y2="9.49462" gradientUnits="userSpaceOnUse"><stop stop-color="#3F2DAF"></stop><stop offset="1" stop-color="#917FFB"></stop></linearGradient></defs></svg>