<svg width="24" height="24" viewBox="0 0 187 186" fill="none" xmlns="http://www.w3.org/2000/svg">
<mask id="mask0_62_21" style="mask-type:luminance" maskUnits="userSpaceOnUse" x="34" y="57" width="120" height="73">
<path d="M154 57H34V129.646H154V57Z" fill="white"/>
</mask>
<g mask="url(#mask0_62_21)">
<path d="M134.502 57.0001C135.236 57.154 135.929 57.4638 136.533 57.9082C137.215 58.4421 137.736 59.1521 138.043 59.9613C139.96 64.7622 141.884 69.5605 143.812 74.3561L150.238 90.3698C151.36 93.173 152.475 95.9683 153.613 98.7636C153.855 99.3342 153.98 99.9479 153.98 100.568C153.98 101.188 153.855 101.801 153.613 102.372C150.356 110.489 147.098 118.612 143.836 126.74C143.57 127.501 143.097 128.173 142.471 128.682C141.844 129.189 141.088 129.512 140.287 129.615C139.298 129.799 138.275 129.637 137.392 129.157C136.508 128.676 135.817 127.906 135.434 126.977C133.6 122.476 131.807 117.959 129.997 113.443C126.92 105.794 123.85 98.1397 120.789 90.4803C118.054 83.6632 115.322 76.8514 112.593 70.0448C111.684 67.7865 110.807 65.5123 109.858 63.2619C109.598 62.6523 109.474 61.9927 109.496 61.33C109.519 60.6674 109.687 60.0178 109.989 59.4272C110.29 58.8366 110.718 58.3194 111.242 57.9123C111.766 57.5052 112.373 57.2181 113.02 57.0712C113.099 57.0712 113.17 57.0238 113.249 57.0001H134.502Z" fill="white"/>
<path d="M134.502 57.0001C135.236 57.154 135.929 57.4638 136.533 57.9082C137.215 58.4421 137.736 59.1521 138.043 59.9613C139.96 64.7622 141.884 69.5605 143.812 74.3561L150.238 90.3698C151.36 93.173 152.475 95.9683 153.613 98.7636C153.855 99.3342 153.98 99.9479 153.98 100.568C153.98 101.188 153.855 101.801 153.613 102.372C150.356 110.489 147.098 118.612 143.836 126.74C143.57 127.501 143.097 128.173 142.471 128.682C141.844 129.189 141.088 129.512 140.287 129.615C139.298 129.799 138.275 129.637 137.392 129.157C136.508 128.676 135.817 127.906 135.434 126.977C133.6 122.476 131.807 117.959 129.997 113.443C126.92 105.794 123.85 98.1397 120.789 90.4803C118.054 83.6632 115.322 76.8514 112.593 70.0448C111.684 67.7865 110.807 65.5123 109.858 63.2619C109.598 62.6523 109.474 61.9927 109.496 61.33C109.519 60.6674 109.687 60.0178 109.989 59.4272C110.29 58.8366 110.718 58.3194 111.242 57.9123C111.766 57.5052 112.373 57.2181 113.02 57.0712C113.099 57.0712 113.17 57.0238 113.249 57.0001H134.502Z" fill="url(#paint0_linear_62_21)"/>
<path d="M58.9754 57.0001C59.2204 57.0712 59.4576 57.1265 59.6947 57.2054C60.309 57.3968 60.8727 57.7231 61.3444 58.1604C61.8163 58.5975 62.1842 59.1346 62.4214 59.7323C64.529 64.9386 66.6208 70.1448 68.6968 75.3511C70.7729 80.5574 72.8805 85.8216 75.0197 91.1437L78.1258 98.8662C78.3583 99.4159 78.4782 100.007 78.4782 100.603C78.4782 101.2 78.3583 101.791 78.1258 102.341C76.9719 105.231 75.8127 108.126 74.6482 111.026L68.27 126.89C67.9351 127.714 67.3627 128.421 66.6254 128.92C65.8881 129.419 65.0191 129.688 64.1286 129.693C63.1891 129.706 62.2684 129.43 61.4919 128.901C60.7155 128.373 60.121 127.619 59.7895 126.74C57.8136 121.757 55.8377 116.782 53.8144 111.808L45.7132 91.6253L37.4777 71.095C36.4423 68.505 35.407 65.9072 34.3163 63.3172C33.8559 62.2384 33.8336 61.0231 34.254 59.9282C34.6743 58.8333 35.5045 57.9447 36.5688 57.4502C36.9569 57.2929 37.3557 57.1636 37.7622 57.0633L58.9754 57.0001Z" fill="url(#paint1_linear_62_21)"/>
<path d="M116.192 101.282C115.623 103.241 114.793 105.088 114.003 106.999C111.858 112.364 109.701 117.731 107.53 123.1C107.032 124.371 106.526 125.556 106.044 126.795C105.699 127.665 105.093 128.406 104.309 128.917C103.525 129.427 102.601 129.682 101.665 129.646C100.773 129.622 99.9071 129.332 99.1793 128.815C98.4516 128.297 97.8946 127.575 97.5793 126.74C94.4496 118.918 91.3145 111.095 88.1741 103.272C85.4659 96.5446 82.747 89.8013 80.0176 83.042C77.3831 76.425 74.7486 69.8079 72.114 63.1908C71.8587 62.586 71.7396 61.9325 71.7651 61.2766C71.7907 60.6206 71.9603 59.9783 72.2619 59.3952C72.5636 58.812 72.9899 58.3022 73.5107 57.9021C74.0315 57.5018 74.634 57.2209 75.2755 57.0791L75.5363 57.0001H96.7732L96.9708 57.0633C97.719 57.2206 98.4148 57.5654 98.9928 58.0655C99.5707 58.5656 100.012 59.2044 100.275 59.9218C101.507 63.0013 102.746 66.0835 103.989 69.1683C107.23 77.2541 110.47 85.3399 113.711 93.4256C114.564 95.5576 115.513 97.6501 116.208 99.8374L116.192 101.282Z" fill="white"/>
<path d="M116.192 101.282C115.623 103.241 114.793 105.088 114.003 106.999C111.858 112.364 109.701 117.731 107.53 123.1C107.032 124.371 106.526 125.556 106.044 126.795C105.699 127.665 105.093 128.406 104.309 128.917C103.525 129.427 102.601 129.682 101.665 129.646C100.773 129.622 99.9071 129.332 99.1793 128.815C98.4516 128.297 97.8946 127.575 97.5793 126.74C94.4496 118.918 91.3145 111.095 88.1741 103.272C85.4659 96.5446 82.747 89.8013 80.0176 83.042C77.3831 76.425 74.7486 69.8079 72.114 63.1908C71.8587 62.586 71.7396 61.9325 71.7651 61.2766C71.7907 60.6206 71.9603 59.9783 72.2619 59.3952C72.5636 58.812 72.9899 58.3022 73.5107 57.9021C74.0315 57.5018 74.634 57.2209 75.2755 57.0791L75.5363 57.0001H96.7732L96.9708 57.0633C97.719 57.2206 98.4148 57.5654 98.9928 58.0655C99.5707 58.5656 100.012 59.2044 100.275 59.9218C101.507 63.0013 102.746 66.0835 103.989 69.1683C107.23 77.2541 110.47 85.3399 113.711 93.4256C114.564 95.5576 115.513 97.6501 116.208 99.8374L116.192 101.282Z" fill="url(#paint2_linear_62_21)"/>
</g>
<defs>
<linearGradient id="paint0_linear_62_21" x1="121.796" y1="53.8253" x2="153.829" y2="129.407" gradientUnits="userSpaceOnUse">
<stop stop-color="#DE35A0"/>
<stop offset="1" stop-color="#9120AC"/>
</linearGradient>
<linearGradient id="paint1_linear_62_21" x1="46.2667" y1="53.8251" x2="78.2846" y2="129.43" gradientUnits="userSpaceOnUse">
<stop stop-color="#DE35A0"/>
<stop offset="1" stop-color="#9120AC"/>
</linearGradient>
<linearGradient id="paint2_linear_62_21" x1="84.0528" y1="53.827" x2="116.077" y2="129.36" gradientUnits="userSpaceOnUse">
<stop stop-color="#DE35A0"/>
<stop offset="1" stop-color="#9120AC"/>
</linearGradient>
</defs>
</svg>
