<svg width="510" height="511" viewBox="0 0 510 511" fill="none" xmlns="http://www.w3.org/2000/svg">
<path d="M235.101 446.585V453.521C235.101 453.741 235.142 453.953 235.247 454.146C236.052 455.62 240.449 462.172 255.018 462.172C269.52 462.172 273.919 455.95 274.748 454.499C274.86 454.302 274.905 454.082 274.905 453.856V446.731" stroke="#A3A3A3" stroke-width="0.487236"/>
<path d="M386.809 385.369V392.305C386.809 392.524 386.85 392.737 386.955 392.929C387.76 394.404 392.158 400.955 406.727 400.955C421.229 400.955 425.628 394.733 426.457 393.282C426.569 393.086 426.613 392.865 426.613 392.639V385.515" stroke="#A3A3A3" stroke-width="0.487236"/>
<path d="M83.1079 385.369V392.305C83.1079 392.524 83.1491 392.737 83.2543 392.929C84.0593 394.404 88.4564 400.955 103.026 400.955C117.528 400.955 121.927 394.733 122.755 393.282C122.868 393.086 122.912 392.865 122.912 392.639V385.515" stroke="#A3A3A3" stroke-width="0.487236"/>
<path d="M430.123 384.087L255.243 454.283V248.042L430.123 177.846V384.087Z" fill="black" stroke="#A3A3A3" stroke-width="0.487236"/>
<path d="M429.714 177.483L255.002 247.61L80.29 177.483L255.002 107.355L429.714 177.483Z" fill="black" stroke="#A3A3A3" stroke-width="0.487236"/>
<path d="M254.758 248.041V453.802L80.2461 177.993L254.758 248.041Z" fill="black" stroke="#A3A3A3" stroke-width="0.487236"/>
<path d="M254.393 454.136L79.8799 384.087V178.326L254.393 454.136Z" fill="black" stroke="#A3A3A3" stroke-width="0.487236"/>
<path d="M430.368 177.483V384.249L255.002 454.64L79.6367 384.249V177.483L255.002 107.092L430.368 177.483Z" fill="black" stroke="#A3A3A3" stroke-width="0.487236" stroke-miterlimit="10"/>
<path d="M430.366 177.486L255 247.877" stroke="#A3A3A3" stroke-width="0.487236" stroke-miterlimit="10"/>
<path d="M255 454.641V247.875" stroke="#A3A3A3" stroke-width="0.487236" stroke-miterlimit="10"/>
<path d="M255.002 247.877L79.6367 177.486" stroke="#A3A3A3" stroke-width="0.487236" stroke-miterlimit="10"/>
<path d="M276.113 265.399V422.034C276.113 423.206 277.303 424.003 278.387 423.557L411.13 368.929C411.747 368.675 412.15 368.074 412.15 367.406V212.566C412.15 211.402 410.976 210.606 409.895 211.036L277.151 263.869C276.524 264.119 276.113 264.725 276.113 265.399Z" stroke="#A3A3A3" stroke-width="0.487236"/>
<path d="M276.33 418.944L406.497 365.449C407.114 365.195 407.517 364.593 407.517 363.926V212.031" stroke="#A3A3A3" stroke-width="0.487236"/>
<path d="M406.712 364.86L411.868 368.209" stroke="#A3A3A3" stroke-width="0.487236"/>
<path d="M389.061 274.984C395.403 278.934 398.871 286.211 399.318 294.822C399.764 303.432 397.187 313.353 391.468 322.536C385.748 331.718 377.981 338.406 370.056 341.802C362.131 345.199 354.071 345.295 347.728 341.345C341.386 337.395 337.919 330.119 337.472 321.507C337.025 312.897 339.602 302.976 345.321 293.794C351.041 284.611 358.809 277.923 366.733 274.527C374.659 271.131 382.719 271.034 389.061 274.984Z" stroke="#A3A3A3" stroke-width="0.487236"/>
<path d="M394.084 302.121L388.46 316.247L376.388 333.305L360.042 331.616C356.196 329.197 353.919 324.782 353.476 319.545C353.032 314.288 354.439 308.224 357.947 302.592C361.458 296.956 366.224 292.855 371.08 290.773C375.925 288.697 380.837 288.638 384.702 291.028L394.084 302.121Z" fill="black" stroke="#A3A3A3" stroke-width="0.487236"/>
<path d="M392.374 300.479C395.386 302.355 397.043 305.818 397.257 309.94C397.471 314.061 396.238 318.818 393.493 323.224C390.749 327.631 387.024 330.835 383.231 332.461C379.437 334.086 375.597 334.126 372.585 332.25C369.573 330.374 367.915 326.911 367.701 322.788C367.488 318.667 368.721 313.911 371.465 309.504C374.21 305.098 377.935 301.894 381.728 300.268C385.522 298.642 389.361 298.603 392.374 300.479Z" fill="black" stroke="#A3A3A3" stroke-width="0.487236"/>
<path d="M370.742 273.535V279.491" stroke="#A3A3A3" stroke-width="0.487236"/>
<path d="M370.742 335.455V341.41" stroke="#A3A3A3" stroke-width="0.487236"/>
<path d="M337.988 322.076L343.446 319.692" stroke="#A3A3A3" stroke-width="0.487236"/>
<path d="M346.009 292.52L351.059 295.747" stroke="#A3A3A3" stroke-width="0.487236"/>
<path d="M347.798 341.345L351.942 336.24" stroke="#A3A3A3" stroke-width="0.487236"/>
<path d="M388.996 282.121L392.46 278.054" stroke="#A3A3A3" stroke-width="0.487236"/>
<path d="M396.384 296.272L399.111 295.224" stroke="#A3A3A3" stroke-width="0.487236"/>
<path d="M287.58 352.65V341.422C287.58 341.104 287.764 340.813 288.052 340.678L319.278 325.964C319.895 325.673 319.91 324.8 319.303 324.487L315.509 322.536C314.863 322.204 314.933 321.259 315.62 321.025L321.618 318.976C321.853 318.896 322.112 318.926 322.322 319.058L328.807 323.131C329.047 323.281 329.192 323.545 329.192 323.828V335.314C329.192 335.642 328.998 335.939 328.697 336.069L288.731 353.405C288.187 353.641 287.58 353.242 287.58 352.65Z" stroke="#A3A3A3" stroke-width="0.487236"/>
<path d="M315.215 321.769L315.215 327.751" stroke="#A3A3A3" stroke-width="0.487236"/>
<g clip-path="url(#clip0_5423_1424)">
<path d="M201.503 105.718C201.503 101.466 204.704 96.7383 208.652 95.1589L342.278 41.7085C346.226 40.1292 349.427 42.2962 349.427 46.5487V72.7794C349.427 77.0319 346.226 81.7595 342.278 83.3388L208.652 136.789C204.704 138.369 201.503 136.202 201.503 131.949V105.718Z" fill="#F213A4"/>
<path d="M218.143 116.837C217.455 117.109 216.868 117.149 216.38 116.956C215.893 116.764 215.52 116.349 215.262 115.711C215.003 115.074 214.874 114.233 214.874 113.189C214.874 112.149 215.003 111.208 215.262 110.367C215.523 109.525 215.897 108.813 216.385 108.23C216.875 107.647 217.461 107.218 218.143 106.946C218.825 106.673 219.41 106.634 219.897 106.83C220.385 107.023 220.757 107.436 221.016 108.07C221.277 108.7 221.407 109.535 221.407 110.576C221.407 111.623 221.278 112.569 221.02 113.413C220.762 114.253 220.389 114.967 219.901 115.552C219.414 116.135 218.828 116.563 218.143 116.837ZM218.143 115.585C218.747 115.344 219.218 114.838 219.558 114.068C219.9 113.297 220.071 112.311 220.071 111.111C220.071 110.314 219.993 109.672 219.836 109.184C219.682 108.693 219.46 108.363 219.17 108.194C218.883 108.022 218.541 108.015 218.143 108.174C217.542 108.414 217.071 108.921 216.728 109.696C216.386 110.471 216.213 111.457 216.21 112.655C216.21 113.455 216.287 114.101 216.441 114.593C216.598 115.08 216.82 115.408 217.107 115.578C217.394 115.744 217.74 115.747 218.143 115.585ZM226.151 106.274V107.399L222.373 108.91V107.785L226.151 106.274ZM223.408 114.571V106.536C223.408 106.086 223.5 105.676 223.683 105.306C223.866 104.933 224.108 104.613 224.41 104.345C224.711 104.075 225.039 103.868 225.393 103.727C225.654 103.622 225.878 103.556 226.064 103.529C226.249 103.498 226.387 103.484 226.477 103.485L226.172 104.742C226.111 104.747 226.033 104.757 225.937 104.77C225.842 104.78 225.726 104.813 225.589 104.867C225.273 104.994 225.047 105.169 224.91 105.392C224.777 105.614 224.71 105.885 224.71 106.203V114.051L223.408 114.571ZM230.418 111.899C229.873 112.117 229.382 112.201 228.947 112.15C228.515 112.094 228.169 111.92 227.911 111.626C227.653 111.333 227.515 110.935 227.498 110.432L228.803 109.91C228.835 110.31 229.005 110.581 229.313 110.724C229.62 110.866 229.989 110.852 230.418 110.68C230.761 110.543 231.064 110.337 231.328 110.063C231.595 109.784 231.804 109.465 231.955 109.104C232.109 108.743 232.185 108.37 232.185 107.985C232.185 107.595 232.107 107.278 231.95 107.034C231.794 106.79 231.578 106.636 231.302 106.572C231.029 106.506 230.716 106.542 230.362 106.68C230.092 106.788 229.821 106.947 229.548 107.156C229.275 107.365 229.054 107.585 228.886 107.814L227.654 108.11L228.155 103.072L233.056 101.112V102.354L229.274 103.867L228.991 106.666L229.043 106.645C229.217 106.394 229.448 106.151 229.735 105.914C230.025 105.676 230.336 105.491 230.666 105.358C231.209 105.141 231.692 105.087 232.116 105.196C232.542 105.303 232.877 105.549 233.121 105.933C233.368 106.312 233.49 106.814 233.487 107.437C233.49 108.057 233.359 108.664 233.095 109.258C232.834 109.85 232.471 110.379 232.007 110.846C231.546 111.309 231.016 111.66 230.418 111.899ZM238.189 108.791C237.791 108.943 237.399 109.022 237.014 109.026C236.63 109.029 236.282 108.919 235.969 108.694C235.656 108.469 235.405 108.099 235.216 107.584C235.03 107.068 234.937 106.367 234.937 105.483C234.937 104.645 235.014 103.871 235.168 103.159C235.325 102.447 235.55 101.808 235.843 101.244C236.136 100.677 236.49 100.193 236.905 99.7925C237.32 99.3922 237.785 99.0887 238.302 98.8821C238.833 98.6697 239.304 98.5936 239.716 98.6538C240.129 98.714 240.462 98.8914 240.718 99.1862C240.976 99.4798 241.14 99.8658 241.209 100.344L239.882 100.875C239.792 100.511 239.613 100.256 239.347 100.11C239.08 99.9633 238.731 99.976 238.302 100.148C237.649 100.409 237.14 100.919 236.774 101.678C236.411 102.435 236.229 103.36 236.226 104.452L236.291 104.426C236.445 104.092 236.633 103.786 236.857 103.506C237.083 103.221 237.336 102.972 237.614 102.757C237.896 102.539 238.192 102.367 238.502 102.243C239.019 102.036 239.486 101.985 239.904 102.09C240.324 102.191 240.66 102.428 240.909 102.804C241.159 103.179 241.283 103.673 241.283 104.285C241.283 104.898 241.154 105.504 240.896 106.104C240.641 106.703 240.281 107.241 239.817 107.718C239.352 108.191 238.81 108.548 238.189 108.791ZM238.184 107.573C238.527 107.437 238.833 107.223 239.103 106.934C239.373 106.645 239.586 106.316 239.743 105.947C239.899 105.578 239.978 105.204 239.978 104.826C239.978 104.458 239.901 104.152 239.747 103.911C239.596 103.668 239.387 103.511 239.12 103.44C238.856 103.367 238.554 103.399 238.215 103.534C237.957 103.638 237.717 103.787 237.497 103.981C237.279 104.174 237.088 104.398 236.922 104.652C236.757 104.905 236.626 105.173 236.53 105.455C236.438 105.733 236.391 106.006 236.391 106.275C236.391 106.634 236.468 106.936 236.622 107.181C236.778 107.425 236.992 107.586 237.262 107.666C237.534 107.741 237.842 107.71 238.184 107.573ZM245.811 105.742C245.266 105.96 244.775 106.043 244.34 105.993C243.908 105.937 243.562 105.763 243.304 105.469C243.046 105.176 242.908 104.778 242.891 104.275L244.196 103.753C244.228 104.153 244.398 104.424 244.706 104.567C245.013 104.709 245.382 104.695 245.811 104.523C246.154 104.386 246.457 104.18 246.721 103.906C246.988 103.627 247.197 103.308 247.348 102.947C247.501 102.586 247.578 102.213 247.578 101.828C247.578 101.438 247.5 101.12 247.343 100.877C247.187 100.633 246.97 100.479 246.695 100.414C246.422 100.348 246.109 100.385 245.755 100.523C245.485 100.631 245.213 100.79 244.941 100.999C244.668 101.208 244.447 101.427 244.279 101.657L243.047 101.953L243.548 96.915L248.449 94.9546V96.1968L244.666 97.7098L244.384 100.509L244.436 100.488C244.61 100.237 244.841 99.9935 245.128 99.7567C245.418 99.5187 245.728 99.3336 246.059 99.2013C246.602 98.9842 247.085 98.93 247.509 99.0387C247.935 99.1462 248.27 99.3919 248.514 99.7757C248.761 100.155 248.883 100.656 248.88 101.28C248.883 101.9 248.752 102.507 248.488 103.1C248.227 103.692 247.864 104.222 247.4 104.689C246.938 105.152 246.409 105.503 245.811 105.742ZM250.469 103.747V102.697L253.486 98.1245C253.808 97.63 254.073 97.2035 254.282 96.8449C254.494 96.482 254.652 96.1547 254.757 95.8629C254.861 95.5711 254.913 95.2845 254.913 95.0033C254.913 94.6845 254.844 94.4373 254.705 94.2618C254.565 94.0831 254.375 93.9794 254.134 93.9507C253.894 93.919 253.622 93.9634 253.32 94.0841C253.001 94.2118 252.723 94.3935 252.485 94.6293C252.247 94.8652 252.064 95.1367 251.936 95.4441C251.809 95.7514 251.745 96.077 251.745 96.4208L250.461 96.9344C250.461 96.3499 250.586 95.789 250.835 95.2517C251.085 94.7143 251.427 94.2383 251.862 93.8235C252.298 93.4057 252.792 93.0859 253.347 92.8642C253.907 92.6402 254.4 92.5632 254.826 92.6332C255.256 92.699 255.591 92.8899 255.832 93.2061C256.073 93.5192 256.193 93.9336 256.193 94.4492C256.193 94.8055 256.131 95.1789 256.006 95.5695C255.884 95.9589 255.671 96.4239 255.366 96.9646C255.061 97.5021 254.638 98.1763 254.095 98.9871L252.324 101.693V101.763L256.337 100.158V101.4L250.469 103.747ZM258.861 100.479C258.623 100.575 258.419 100.566 258.248 100.453C258.076 100.337 257.991 100.149 257.991 99.89C257.991 99.6338 258.076 99.3807 258.248 99.131C258.419 98.8781 258.623 98.7041 258.861 98.6089C259.099 98.5138 259.304 98.5241 259.475 98.64C259.646 98.7528 259.732 98.9373 259.732 99.1936C259.732 99.3655 259.691 99.5396 259.61 99.7158C259.532 99.8878 259.427 100.042 259.296 100.179C259.166 100.315 259.021 100.416 258.861 100.479ZM262.332 99.0909C262.094 99.1861 261.89 99.1773 261.719 99.0645C261.547 98.9486 261.462 98.7609 261.462 98.5016C261.462 98.2453 261.547 97.9923 261.719 97.7425C261.89 97.4897 262.094 97.3156 262.332 97.2205C262.57 97.1253 262.775 97.1357 262.946 97.2516C263.117 97.3643 263.203 97.5489 263.203 97.8051C263.203 97.977 263.162 98.1511 263.081 98.3274C263.003 98.4993 262.898 98.6536 262.768 98.7902C262.637 98.9269 262.492 99.0271 262.332 99.0909ZM265.804 97.7024C265.566 97.7976 265.361 97.7888 265.19 97.676C265.019 97.5601 264.933 97.3725 264.933 97.1131C264.933 96.8568 265.019 96.6038 265.19 96.3541C265.361 96.1012 265.566 95.9272 265.804 95.832C266.042 95.7368 266.246 95.7472 266.417 95.8631C266.588 95.9759 266.674 96.1604 266.674 96.4167C266.674 96.5886 266.633 96.7626 266.552 96.9389C266.474 97.1109 266.369 97.2652 266.239 97.4018C266.108 97.5384 265.963 97.6386 265.804 97.7024ZM268.522 96.5261V86.9254L271.786 85.6196C272.419 85.3666 272.943 85.2696 273.357 85.3286C273.772 85.3845 274.083 85.5619 274.289 85.8608C274.495 86.1565 274.598 86.5419 274.598 87.017C274.598 87.417 274.53 87.7818 274.393 88.1114C274.257 88.4378 274.074 88.7297 273.845 88.987C273.619 89.2401 273.369 89.4587 273.096 89.6428V89.7365C273.392 89.6338 273.681 89.6214 273.962 89.6995C274.247 89.7732 274.482 89.9464 274.668 90.219C274.853 90.4917 274.946 90.8764 274.946 91.3733C274.946 91.864 274.839 92.3476 274.624 92.8242C274.412 93.2964 274.084 93.7354 273.64 94.1411C273.196 94.5437 272.629 94.8832 271.939 95.1594L268.522 96.5261ZM269.867 94.7458L271.808 93.9694C272.452 93.7117 272.914 93.3927 273.192 93.0125C273.471 92.6324 273.61 92.2407 273.61 91.8375C273.61 91.5344 273.539 91.2847 273.397 91.0884C273.254 90.8921 273.051 90.7718 272.787 90.7274C272.526 90.6819 272.216 90.731 271.856 90.875L269.867 91.6706V94.7458ZM269.867 90.5408L271.669 89.8201C271.97 89.6993 272.242 89.5283 272.483 89.307C272.726 89.0845 272.919 88.8323 273.061 88.5504C273.207 88.2642 273.279 87.9664 273.279 87.657C273.279 87.2601 273.15 86.9789 272.892 86.8134C272.633 86.648 272.237 86.672 271.703 86.8856L269.867 87.6203V90.5408ZM279.318 92.3528C278.66 92.6163 278.092 92.6916 277.616 92.5788C277.143 92.4618 276.778 92.1783 276.52 91.7284C276.264 91.2743 276.137 90.6737 276.137 89.9268C276.137 89.1892 276.264 88.4881 276.52 87.8234C276.778 87.1576 277.138 86.5746 277.599 86.0744C278.063 85.573 278.606 85.1981 279.227 84.9497C279.604 84.7989 279.97 84.7198 280.324 84.7126C280.678 84.7054 280.995 84.7892 281.277 84.9642C281.558 85.1391 281.78 85.4238 281.943 85.8182C282.105 86.2095 282.187 86.7317 282.187 87.3849V87.8818L276.872 90.0076V88.9575L280.911 87.3418C280.911 86.973 280.842 86.6743 280.702 86.4456C280.563 86.2138 280.367 86.0656 280.115 86.0009C279.865 85.9351 279.572 85.9695 279.236 86.1042C278.87 86.2504 278.551 86.475 278.278 86.7778C278.008 87.0764 277.799 87.41 277.651 87.7786C277.506 88.1429 277.434 88.5048 277.434 88.8642V89.6845C277.434 90.1658 277.512 90.5439 277.669 90.8187C277.828 91.0924 278.05 91.2615 278.335 91.3259C278.619 91.3871 278.951 91.3417 279.331 91.1897C279.578 91.091 279.803 90.9636 280.006 90.8073C280.209 90.6479 280.385 90.4621 280.533 90.2498C280.681 90.0374 280.794 89.8031 280.872 89.5467L282.104 89.2931C282.005 89.7232 281.828 90.1362 281.573 90.5321C281.32 90.9238 281.003 91.2774 280.62 91.5932C280.24 91.9046 279.806 92.1578 279.318 92.3528ZM283.735 90.4408V80.84L289.263 78.6289V79.8759L285.08 81.549V84.4743L288.867 82.9596V84.2019L285.08 85.7165V89.9028L283.735 90.4408ZM293.898 86.5067C293.301 86.7458 292.767 86.8485 292.297 86.8146C291.829 86.7796 291.459 86.6197 291.187 86.3351C290.917 86.0461 290.772 85.6447 290.751 85.1309L292.118 84.5842C292.136 84.8617 292.224 85.0732 292.384 85.2187C292.546 85.36 292.758 85.4347 293.019 85.4427C293.28 85.4507 293.57 85.3909 293.89 85.2633C294.241 85.1228 294.551 84.933 294.821 84.6938C295.094 84.4534 295.307 84.1853 295.461 83.8894C295.615 83.5903 295.692 83.2861 295.692 82.9767C295.692 82.6548 295.615 82.4028 295.461 82.2205C295.31 82.034 295.088 81.929 294.795 81.9056C294.505 81.881 294.154 81.9511 293.742 82.116L292.989 82.4172V81.2358L293.742 80.9346C294.072 80.8023 294.363 80.6222 294.612 80.3942C294.865 80.1651 295.062 79.908 295.204 79.623C295.346 79.3349 295.417 79.0361 295.417 78.7267C295.417 78.4298 295.355 78.1969 295.23 78.0281C295.108 77.8549 294.934 77.7511 294.708 77.7166C294.484 77.681 294.22 77.7241 293.916 77.846C293.626 77.9621 293.354 78.1284 293.102 78.345C292.852 78.5573 292.649 78.8011 292.492 79.0763C292.336 79.3484 292.252 79.6336 292.24 79.932L290.939 80.4526C290.953 79.928 291.095 79.4148 291.365 78.9131C291.638 78.4102 291.998 77.9585 292.445 77.5578C292.891 77.1572 293.388 76.8478 293.933 76.6296C294.505 76.4009 294.998 76.3239 295.413 76.3986C295.831 76.469 296.153 76.6573 296.379 76.9637C296.609 77.2689 296.722 77.6581 296.719 78.1311C296.722 78.6675 296.582 79.1795 296.301 79.6671C296.022 80.1536 295.651 80.5537 295.187 80.8676V80.9426C295.779 80.8027 296.237 80.8724 296.562 81.1518C296.89 81.4301 297.052 81.8729 297.05 82.4804C297.052 83.0074 296.916 83.5354 296.64 84.0645C296.368 84.5924 295.995 85.0712 295.522 85.5011C295.049 85.9278 294.508 86.263 293.898 86.5067Z" fill="white"/>
</g>
<path d="M208.652 95.4019L342.278 41.9518C346.101 40.4224 349.201 42.5218 349.201 46.6397V72.8702C349.2 76.9881 346.101 81.566 342.278 83.0953L208.652 136.545C204.829 138.075 201.729 135.977 201.729 131.859V105.628C201.729 101.511 204.829 96.9313 208.652 95.4019Z" stroke="#F213A4" stroke-width="0.487236"/>
<g clip-path="url(#clip1_5423_1424)">
<path d="M201.503 159.107C201.503 154.854 204.704 150.126 208.652 148.547L342.278 95.0967C346.226 93.5174 349.427 95.6844 349.427 99.9368V126.168C349.427 130.42 346.226 135.148 342.278 136.727L208.652 190.177C204.704 191.757 201.503 189.59 201.503 185.337V159.107Z" fill="#490631"/>
<path d="M217.629 168.509C217.278 168.649 216.958 168.685 216.667 168.617C216.377 168.545 216.145 168.388 215.971 168.145C215.8 167.901 215.714 167.59 215.714 167.212C215.714 166.831 215.8 166.451 215.971 166.073C216.145 165.691 216.377 165.35 216.667 165.049C216.958 164.746 217.278 164.524 217.629 164.383C217.983 164.242 218.304 164.207 218.591 164.28C218.881 164.348 219.112 164.504 219.283 164.748C219.457 164.988 219.544 165.299 219.544 165.68C219.544 166.058 219.457 166.438 219.283 166.82C219.112 167.201 218.881 167.544 218.591 167.847C218.304 168.147 217.983 168.367 217.629 168.509ZM224.524 165.751C224.173 165.891 223.852 165.927 223.562 165.859C223.272 165.788 223.04 165.63 222.866 165.388C222.694 165.143 222.609 164.832 222.609 164.454C222.609 164.073 222.694 163.693 222.866 163.315C223.04 162.933 223.272 162.592 223.562 162.292C223.852 161.988 224.173 161.766 224.524 161.626C224.878 161.484 225.198 161.449 225.486 161.522C225.776 161.59 226.007 161.747 226.178 161.991C226.352 162.23 226.439 162.541 226.439 162.922C226.439 163.3 226.352 163.68 226.178 164.063C226.007 164.444 225.776 164.786 225.486 165.089C225.198 165.389 224.878 165.609 224.524 165.751ZM231.418 162.993C231.067 163.133 230.747 163.17 230.456 163.101C230.166 163.03 229.934 162.873 229.76 162.63C229.589 162.386 229.503 162.075 229.503 161.696C229.503 161.315 229.589 160.936 229.76 160.558C229.934 160.176 230.166 159.834 230.456 159.534C230.747 159.23 231.067 159.008 231.418 158.868C231.772 158.726 232.093 158.692 232.38 158.764C232.67 158.833 232.901 158.989 233.072 159.233C233.246 159.473 233.333 159.783 233.333 160.164C233.333 160.542 233.246 160.923 233.072 161.305C232.901 161.686 232.67 162.028 232.38 162.332C232.093 162.631 231.772 162.851 231.418 162.993ZM238.313 160.235C237.962 160.376 237.641 160.412 237.351 160.343C237.061 160.272 236.829 160.115 236.654 159.872C236.483 159.628 236.398 159.317 236.398 158.939C236.398 158.557 236.483 158.178 236.654 157.8C236.829 157.418 237.061 157.076 237.351 156.776C237.641 156.472 237.962 156.25 238.313 156.11C238.667 155.968 238.987 155.934 239.275 156.006C239.565 156.075 239.796 156.231 239.967 156.475C240.141 156.715 240.228 157.025 240.228 157.407C240.228 157.785 240.141 158.165 239.967 158.547C239.796 158.928 239.565 159.27 239.275 159.574C238.987 159.873 238.667 160.094 238.313 160.235ZM245.207 157.477C244.856 157.618 244.535 157.654 244.245 157.586C243.955 157.514 243.723 157.357 243.549 157.114C243.378 156.87 243.292 156.559 243.292 156.181C243.292 155.8 243.378 155.42 243.549 155.042C243.723 154.66 243.955 154.319 244.245 154.018C244.535 153.715 244.856 153.493 245.207 153.352C245.561 153.211 245.882 153.176 246.169 153.249C246.459 153.317 246.69 153.473 246.861 153.717C247.035 153.957 247.122 154.267 247.122 154.649C247.122 155.027 247.035 155.407 246.861 155.789C246.69 156.17 246.459 156.513 246.169 156.816C245.882 157.115 245.561 157.336 245.207 157.477ZM252.102 154.72C251.751 154.86 251.43 154.896 251.14 154.828C250.85 154.756 250.617 154.599 250.443 154.356C250.272 154.112 250.187 153.801 250.187 153.423C250.187 153.042 250.272 152.662 250.443 152.284C250.617 151.902 250.85 151.561 251.14 151.26C251.43 150.957 251.751 150.735 252.102 150.594C252.456 150.453 252.776 150.418 253.064 150.491C253.354 150.559 253.584 150.715 253.756 150.959C253.93 151.199 254.017 151.51 254.017 151.891C254.017 152.269 253.93 152.649 253.756 153.031C253.584 153.412 253.354 153.755 253.064 154.058C252.776 154.358 252.456 154.578 252.102 154.72ZM258.996 151.962C258.645 152.102 258.324 152.138 258.034 152.07C257.744 151.999 257.512 151.841 257.338 151.599C257.167 151.355 257.081 151.043 257.081 150.665C257.081 150.284 257.167 149.904 257.338 149.527C257.512 149.144 257.744 148.803 258.034 148.503C258.324 148.199 258.645 147.977 258.996 147.837C259.35 147.695 259.671 147.66 259.958 147.733C260.248 147.801 260.479 147.958 260.65 148.202C260.824 148.441 260.911 148.752 260.911 149.133C260.911 149.511 260.824 149.891 260.65 150.274C260.479 150.655 260.248 150.997 259.958 151.301C259.671 151.6 259.35 151.82 258.996 151.962ZM265.891 149.204C265.54 149.345 265.219 149.381 264.929 149.312C264.639 149.241 264.406 149.084 264.232 148.841C264.061 148.597 263.976 148.286 263.976 147.908C263.976 147.526 264.061 147.147 264.232 146.769C264.406 146.387 264.639 146.045 264.929 145.745C265.219 145.441 265.54 145.219 265.891 145.079C266.245 144.937 266.565 144.903 266.853 144.975C267.143 145.044 267.373 145.2 267.545 145.444C267.719 145.684 267.806 145.994 267.806 146.375C267.806 146.754 267.719 147.134 267.545 147.516C267.373 147.897 267.143 148.239 266.853 148.543C266.565 148.842 266.245 149.063 265.891 149.204ZM272.785 146.446C272.434 146.587 272.113 146.623 271.823 146.555C271.533 146.483 271.301 146.326 271.127 146.083C270.956 145.839 270.87 145.528 270.87 145.15C270.87 144.768 270.956 144.389 271.127 144.011C271.301 143.629 271.533 143.288 271.823 142.987C272.113 142.683 272.434 142.461 272.785 142.321C273.139 142.179 273.46 142.145 273.747 142.218C274.037 142.286 274.268 142.442 274.439 142.686C274.613 142.926 274.7 143.236 274.7 143.618C274.7 143.996 274.613 144.376 274.439 144.758C274.268 145.139 274.037 145.481 273.747 145.785C273.46 146.084 273.139 146.305 272.785 146.446ZM279.68 143.689C279.328 143.829 279.008 143.865 278.718 143.797C278.427 143.725 278.195 143.568 278.021 143.325C277.85 143.081 277.764 142.77 277.764 142.392C277.764 142.011 277.85 141.631 278.021 141.253C278.195 140.871 278.427 140.53 278.718 140.229C279.008 139.926 279.328 139.704 279.68 139.563C280.034 139.422 280.354 139.387 280.641 139.46C280.932 139.528 281.162 139.684 281.334 139.928C281.508 140.168 281.595 140.479 281.595 140.86C281.595 141.238 281.508 141.618 281.334 142C281.162 142.381 280.932 142.724 280.641 143.027C280.354 143.326 280.034 143.547 279.68 143.689Z" fill="white"/>
</g>
<path d="M208.652 148.79L342.278 95.34C346.101 93.8106 349.201 95.91 349.201 100.028V126.258C349.2 130.376 346.101 134.954 342.278 136.484L208.652 189.934C204.829 191.463 201.729 189.365 201.729 185.247V159.017C201.729 154.899 204.829 150.319 208.652 148.79Z" stroke="#F213A4" stroke-width="0.487236"/>
<defs>
<clipPath id="clip0_5423_1424">
<path d="M201.503 105.718C201.503 101.466 204.704 96.7383 208.652 95.1589L342.278 41.7085C346.226 40.1292 349.427 42.2962 349.427 46.5487V72.7794C349.427 77.0319 346.226 81.7595 342.278 83.3388L208.652 136.789C204.704 138.369 201.503 136.202 201.503 131.949V105.718Z" fill="white"/>
</clipPath>
<clipPath id="clip1_5423_1424">
<path d="M201.503 159.107C201.503 154.854 204.704 150.126 208.652 148.547L342.278 95.0967C346.226 93.5174 349.427 95.6844 349.427 99.9368V126.168C349.427 130.42 346.226 135.148 342.278 136.727L208.652 190.177C204.704 191.757 201.503 189.59 201.503 185.337V159.107Z" fill="white"/>
</clipPath>
</defs>
</svg>
