<svg width="564" height="466" viewBox="0 0 564 466" fill="none" xmlns="http://www.w3.org/2000/svg">
<g filter="url(#filter0_f_5802_15050)">
<ellipse cx="281.863" cy="233.013" rx="151.841" ry="102.898" fill="url(#paint0_radial_5802_15050)"/>
</g>
<g opacity="0.35">
<rect x="58.9673" y="330.246" width="57.1589" height="57.1589" rx="13.842" fill="#1E2128"/>
<g opacity="0.7">
<g filter="url(#filter1_i_5802_15050)">
<path d="M74.7568 345.181C74.7568 343.674 75.9786 342.452 77.4858 342.452H96.7809C98.2881 342.452 99.5099 343.674 99.5099 345.181V372.471C99.5099 373.978 98.2881 375.2 96.7809 375.2H77.4858C75.9786 375.2 74.7568 373.978 74.7568 372.471V345.181Z" fill="#EBA4D2" fill-opacity="0.8"/>
</g>
<path d="M104.975 361.787C106.188 362.487 106.188 364.238 104.975 364.938L94.188 371.166C92.9751 371.866 91.459 370.991 91.459 369.59L91.459 357.135C91.459 355.735 92.9751 354.859 94.188 355.56L104.975 361.787Z" fill="url(#paint1_linear_5802_15050)"/>
<path d="M81.6768 349.729L92.5926 349.73" stroke="white" stroke-width="2.72896" stroke-linecap="round"/>
<path d="M81.6768 355.187L87.1347 355.187" stroke="white" stroke-width="2.72896" stroke-linecap="round"/>
</g>
<rect x="156.126" y="330.246" width="57.1589" height="57.1589" rx="13.842" fill="#1E2128"/>
<g opacity="0.7" clip-path="url(#clip0_5802_15050)">
<path d="M181.555 345.706C182.955 343.28 186.457 343.28 187.857 345.706L200.672 367.901C202.072 370.327 200.321 373.359 197.52 373.359H171.891C169.09 373.359 167.34 370.327 168.74 367.901L181.555 345.706Z" fill="url(#paint2_linear_5802_15050)"/>
<g filter="url(#filter2_i_5802_15050)">
<path d="M183.129 361.336C183.829 360.124 185.58 360.124 186.28 361.336L191.638 370.616C192.338 371.829 191.463 373.345 190.062 373.345H179.347C177.946 373.345 177.071 371.829 177.771 370.616L183.129 361.336Z" fill="#B9DDFF" fill-opacity="0.8"/>
</g>
</g>
<rect x="253.285" y="330.246" width="57.1589" height="57.1589" rx="13.842" fill="#1E2128"/>
<g opacity="0.7">
<rect x="265.491" y="369.74" width="27.2874" height="19.3754" rx="3.63861" transform="rotate(-90 265.491 369.74)" fill="url(#paint3_linear_5802_15050)"/>
<g filter="url(#filter3_bi_5802_15050)">
<path d="M265.489 353.368C265.489 351.358 267.118 349.729 269.128 349.729H294.598C296.608 349.729 298.237 351.358 298.237 353.368V371.561C298.237 373.57 296.608 375.2 294.598 375.2H269.128C267.118 375.2 265.489 373.57 265.489 371.561V353.368Z" fill="#B9DDFF" fill-opacity="0.8"/>
</g>
<path d="M293.329 360.098V360.098C292.022 361.405 292.022 363.523 293.329 364.83V364.83" stroke="white" stroke-width="2.72896" stroke-linecap="round" stroke-linejoin="round"/>
</g>
<rect x="350.444" y="330.246" width="57.1589" height="57.1589" rx="13.842" fill="#1E2128"/>
<g opacity="0.7">
<path d="M384.754 353.081L384.754 349.161C384.754 345.996 382.189 343.431 379.024 343.431V343.431C375.859 343.431 373.293 345.996 373.293 349.161L373.293 353.081" stroke="#03B29E" stroke-width="3.63861" stroke-linecap="round"/>
<g filter="url(#filter4_bi_5802_15050)">
<path d="M366.134 353.12C366.262 351.715 367.44 350.639 368.851 350.639H389.135C390.545 350.639 391.723 351.712 391.853 353.116L393.541 371.309C393.689 372.909 392.43 374.29 390.823 374.29H367.193C365.588 374.29 364.33 372.911 364.475 371.313L366.134 353.12Z" fill="#C7FFF8" fill-opacity="0.8"/>
</g>
</g>
<rect x="447.602" y="330.246" width="57.1589" height="57.1589" rx="13.842" fill="#1E2128"/>
<g opacity="0.7">
<path d="M461.016 351.597V346.08C461.016 343.006 464.592 341.317 466.966 343.271L490.025 362.242C490.865 362.934 491.352 363.964 491.352 365.052V371.366C491.352 374.474 487.705 376.151 485.345 374.128L462.286 354.359C461.48 353.668 461.016 352.659 461.016 351.597Z" fill="url(#paint4_linear_5802_15050)"/>
<g filter="url(#filter5_bi_5802_15050)">
<path d="M491.352 351.597V346.08C491.352 343.006 487.776 341.317 485.402 343.271L462.343 362.242C461.503 362.934 461.016 363.964 461.016 365.052V371.366C461.016 374.474 464.663 376.151 467.023 374.128L490.082 354.359C490.888 353.668 491.352 352.659 491.352 351.597Z" fill="#EBA4D2" fill-opacity="0.8"/>
</g>
</g>
<rect x="400.854" y="207.691" width="57.1589" height="57.1589" rx="13.842" fill="#1E2128"/>
<g opacity="0.7">
<path d="M418.038 222.097C418.038 220.589 419.259 219.368 420.767 219.368H438.401C440.563 219.368 441.866 221.762 440.693 223.578L423.059 250.869C421.582 253.154 418.038 252.108 418.038 249.388V222.097Z" fill="url(#paint5_linear_5802_15050)"/>
<g filter="url(#filter6_bi_5802_15050)">
<path d="M441.147 222.097C441.147 220.589 439.925 219.368 438.418 219.368H420.784C418.622 219.368 417.319 221.762 418.492 223.578L436.126 250.869C437.602 253.154 441.147 252.108 441.147 249.388V222.097Z" fill="#EBA4D2" fill-opacity="0.8"/>
</g>
</g>
<rect x="498.013" y="207.691" width="57.1589" height="57.1589" rx="13.842" fill="#1E2128"/>
<g opacity="0.7">
<circle cx="518.601" cy="237.181" r="8.38164" fill="url(#paint6_linear_5802_15050)"/>
<g filter="url(#filter7_bi_5802_15050)">
<path fill-rule="evenodd" clip-rule="evenodd" d="M542.969 227.83C542.968 223.449 537.889 219.897 531.624 219.897C525.359 219.897 520.28 223.449 520.28 227.831C520.28 227.846 520.28 227.862 520.28 227.877V244.71C520.28 244.711 520.28 244.711 520.28 244.711C520.28 249.093 525.359 252.645 531.624 252.645C537.89 252.645 542.969 249.093 542.969 244.711C542.969 244.711 542.969 244.711 542.969 244.71V227.83H542.969Z" fill="#BFB5FF" fill-opacity="0.8"/>
</g>
<path d="M524.19 232.272V232.272C528.675 235.329 534.573 235.329 539.058 232.272V232.272" stroke="white" stroke-width="2.72896" stroke-linecap="round" stroke-linejoin="round"/>
<path d="M524.19 240.941V240.941C528.675 243.997 534.573 243.997 539.058 240.941V240.941" stroke="white" stroke-width="2.72896" stroke-linecap="round" stroke-linejoin="round"/>
</g>
<rect x="59.6479" y="84.6064" width="57.1589" height="57.1589" rx="13.842" fill="#1E2128"/>
<g opacity="0.7">
<rect x="75.9883" y="96.8121" width="24.4847" height="16.9754" rx="2.72052" fill="url(#paint7_linear_5802_15050)"/>
<g filter="url(#filter8_bi_5802_15050)">
<path d="M71.8535 107.728C71.8535 105.719 73.4826 104.09 75.4921 104.09H100.962C102.972 104.09 104.601 105.719 104.601 107.728V125.922C104.601 127.931 102.972 129.56 100.962 129.56H75.4921C73.4826 129.56 71.8535 127.931 71.8535 125.922V107.728Z" fill="#B9DDFF" fill-opacity="0.8"/>
</g>
<path d="M77.3789 109.474L88.6171 117.734L99.3498 109.474" stroke="white" stroke-width="2.72896" stroke-linecap="round" stroke-linejoin="round"/>
</g>
<rect x="156.807" y="84.6064" width="57.1589" height="57.1589" rx="13.842" fill="#1E2128"/>
<g opacity="0.7">
<path fill-rule="evenodd" clip-rule="evenodd" d="M175.891 104.594C176.746 105.448 177.904 105.928 179.112 105.928H183.599C183.599 105.928 183.599 105.928 183.599 105.928V105.928C183.599 105.928 183.599 105.928 183.599 105.928H191.796C193.004 105.928 194.162 105.448 195.016 104.594C195.87 103.74 196.35 102.582 196.35 101.374C196.35 100.166 195.87 99.0079 195.016 98.1539C194.162 97.2999 193.004 96.8201 191.796 96.8201C190.039 96.7894 188.317 97.6421 186.854 99.2668C186.67 99.472 186.49 99.6884 186.316 99.9153C185.894 100.466 185.014 100.466 184.591 99.9153C184.417 99.6884 184.238 99.472 184.053 99.2667C182.591 97.642 180.869 96.7894 179.112 96.82C177.904 96.82 176.746 97.2998 175.891 98.1539C175.037 99.0079 174.558 100.166 174.558 101.374C174.558 102.582 175.037 103.74 175.891 104.594Z" fill="#03B39E"/>
<g filter="url(#filter9_bi_5802_15050)">
<path fill-rule="evenodd" clip-rule="evenodd" d="M172.711 104.068C171.311 104.068 170.176 105.203 170.176 106.604V109.984C170.176 111.385 171.311 112.52 172.711 112.52H173.507V125.198C173.507 126.598 174.642 127.733 176.043 127.733H194.742C196.143 127.733 197.278 126.598 197.278 125.198V112.52H198.067C199.467 112.52 200.602 111.385 200.602 109.984V106.604C200.602 105.203 199.467 104.068 198.067 104.068H172.711Z" fill="#C7FFF8" fill-opacity="0.8"/>
</g>
</g>
<rect x="351.124" y="84.6064" width="57.1589" height="57.1589" rx="13.842" fill="#1E2128"/>
<g opacity="0.7" clip-path="url(#clip1_5802_15050)">
<path d="M377.828 112.325C378.66 110.884 380.74 110.884 381.572 112.325L389.663 126.339C390.495 127.78 389.455 129.582 387.79 129.582H371.609C369.945 129.582 368.905 127.78 369.737 126.339L377.828 112.325Z" fill="url(#paint8_linear_5802_15050)"/>
<g filter="url(#filter10_bi_5802_15050)">
<circle cx="379.701" cy="110.002" r="13.19" fill="#EBA4D2" fill-opacity="0.8"/>
</g>
</g>
<rect x="253.965" y="84.6064" width="57.1589" height="57.1589" rx="13.842" fill="#1E2128"/>
<g opacity="0.7">
<path fill-rule="evenodd" clip-rule="evenodd" d="M287.912 113.184C287.912 113.182 287.911 113.181 287.91 113.181C287.833 113.184 287.756 113.186 287.679 113.186C284.468 113.186 281.864 110.582 281.864 107.371C281.864 104.16 284.468 101.556 287.679 101.556C289.775 101.556 291.613 102.666 292.636 104.33C292.902 104.763 293.44 104.977 293.941 104.882C294.195 104.834 294.458 104.809 294.726 104.809C297.04 104.809 298.915 106.684 298.915 108.997C298.915 111.311 297.04 113.186 294.726 113.186C294.71 113.186 294.693 113.186 294.677 113.186H287.915C287.913 113.186 287.912 113.185 287.912 113.184V113.184Z" fill="url(#paint9_linear_5802_15050)"/>
<g filter="url(#filter11_bi_5802_15050)">
<path fill-rule="evenodd" clip-rule="evenodd" d="M271.961 125.785C271.943 125.785 271.924 125.785 271.906 125.785C268.738 125.785 266.169 123.217 266.169 120.049C266.169 116.881 268.738 114.313 271.906 114.313V114.313C271.96 114.313 272.003 114.265 271.998 114.211C271.969 113.925 271.954 113.634 271.954 113.34C271.954 108.402 276.157 104.398 281.342 104.398C285.917 104.398 289.727 107.516 290.56 111.642C290.672 112.193 291.205 112.58 291.766 112.537C291.936 112.524 292.108 112.517 292.281 112.517C295.945 112.517 298.915 115.487 298.915 119.151C298.915 122.815 295.945 125.785 292.281 125.785C292.157 125.785 292.033 125.782 291.91 125.775C291.833 125.782 291.755 125.785 291.676 125.785H272.011C271.994 125.785 271.978 125.785 271.961 125.785Z" fill="#BFB5FF" fill-opacity="0.8"/>
</g>
</g>
<rect x="448.283" y="84.6064" width="57.1589" height="57.1589" rx="13.842" fill="#1E2128"/>
<g opacity="0.7">
<rect x="476.263" y="122.203" width="24.4847" height="16.9754" rx="2.72052" transform="rotate(-90 476.263 122.203)" fill="url(#paint10_linear_5802_15050)"/>
<g filter="url(#filter12_bi_5802_15050)">
<path d="M469.922 130.015C470.897 130.616 472.098 130.616 473.072 130.015C476.115 128.137 482.502 123.446 482.502 117.158V110.05C482.502 108.533 481.561 107.175 480.141 106.643L472.775 103.88C471.951 103.572 471.043 103.572 470.22 103.88L462.853 106.643C461.433 107.175 460.492 108.533 460.492 110.05V117.158C460.492 123.446 466.88 128.137 469.922 130.015Z" fill="#B9DDFF" fill-opacity="0.8"/>
</g>
<path d="M471.493 117.557C473.205 117.557 474.592 116.169 474.592 114.458C474.592 112.746 473.205 111.359 471.493 111.359C469.782 111.359 468.395 112.746 468.395 114.458C468.395 116.169 469.782 117.557 471.493 117.557Z" fill="white"/>
<path d="M471.492 116.215C472.093 116.215 472.581 116.718 472.581 117.339V121.833C472.581 122.453 472.094 122.956 471.492 122.956C470.892 122.956 470.404 122.454 470.404 121.833V117.339C470.404 116.719 470.891 116.215 471.492 116.215Z" fill="white"/>
</g>
<rect x="13" y="207.162" width="57.1589" height="57.1589" rx="13.842" fill="#1E2128"/>
<g opacity="0.7">
<rect x="32.4844" y="219.368" width="18.1931" height="18.1931" rx="2.72896" fill="url(#paint11_linear_5802_15050)"/>
<g filter="url(#filter13_bi_5802_15050)">
<rect x="25.2041" y="233.922" width="32.7476" height="18.1931" rx="2.72896" fill="#EBA4D2" fill-opacity="0.8"/>
</g>
</g>
<rect x="110.159" y="207.162" width="57.1589" height="57.1589" rx="13.842" fill="#1E2128"/>
<g opacity="0.7">
<rect x="138.743" y="236.652" width="16.3711" height="16.3711" rx="2.72896" fill="url(#paint12_linear_5802_15050)"/>
<g filter="url(#filter14_i_5802_15050)">
<path d="M126.002 246.657C123.992 246.657 122.363 245.028 122.363 243.019L122.363 223.007C122.363 220.997 123.992 219.368 126.002 219.368L146.014 219.368C148.024 219.368 149.653 220.997 149.653 223.007L149.653 243.019C149.653 245.028 148.024 246.657 146.014 246.657L126.002 246.657Z" fill="#BFB5FF" fill-opacity="0.8"/>
</g>
<path d="M128.013 230.648C130.148 228.555 133.018 227.383 136.007 227.383C138.996 227.383 141.866 228.555 144.001 230.648" stroke="white" stroke-width="2.72896" stroke-linecap="round" stroke-linejoin="round"/>
<path d="M132.011 234.644C133.079 233.598 134.514 233.012 136.008 233.012C137.503 233.012 138.938 233.598 140.005 234.644" stroke="white" stroke-width="2.72896" stroke-linecap="round" stroke-linejoin="round"/>
<path d="M136.008 238.642H136.018" stroke="white" stroke-width="3.63861" stroke-linecap="round" stroke-linejoin="round"/>
</g>
</g>
<g opacity="0.6" filter="url(#filter15_f_5802_15050)">
<rect x="167.317" y="119.989" width="231.512" height="231.512" rx="54.285" fill="url(#paint13_radial_5802_15050)"/>
<rect x="167.317" y="119.989" width="231.512" height="231.512" rx="54.285" fill="url(#paint14_radial_5802_15050)" style="mix-blend-mode:color-dodge"/>
</g>
<g filter="url(#filter16_d_5802_15050)">
<rect x="178.462" y="131.136" width="209.218" height="209.218" rx="50.666" fill="url(#paint15_linear_5802_15050)"/>
<rect x="178.236" y="130.91" width="209.671" height="209.671" rx="50.8921" stroke="url(#paint16_linear_5802_15050)" stroke-width="0.452375" stroke-linecap="round" stroke-linejoin="round" style="mix-blend-mode:soft-light"/>
<g clip-path="url(#clip2_5802_15050)">
<path d="M321.267 201.49C321.959 201.635 322.612 201.927 323.182 202.346C323.825 202.85 324.317 203.519 324.606 204.282C326.415 208.81 328.228 213.335 330.047 217.858L336.107 232.96C337.165 235.604 338.216 238.24 339.29 240.876C339.518 241.414 339.636 241.993 339.636 242.578C339.636 243.162 339.518 243.741 339.29 244.279C336.219 251.934 333.145 259.595 330.069 267.26C329.819 267.978 329.373 268.612 328.782 269.091C328.191 269.57 327.478 269.874 326.723 269.971C325.79 270.145 324.826 269.992 323.992 269.539C323.159 269.086 322.507 268.36 322.146 267.483C320.417 263.239 318.725 258.979 317.018 254.72C314.116 247.506 311.221 240.288 308.334 233.064C305.755 226.635 303.179 220.211 300.605 213.792C299.748 211.662 298.92 209.517 298.026 207.395C297.78 206.82 297.663 206.198 297.685 205.573C297.706 204.948 297.864 204.336 298.149 203.779C298.433 203.222 298.837 202.734 299.331 202.35C299.825 201.966 300.397 201.695 301.007 201.557C301.082 201.557 301.149 201.512 301.224 201.49H321.267Z" fill="white"/>
<path d="M321.267 201.49C321.959 201.635 322.612 201.927 323.182 202.346C323.825 202.85 324.317 203.519 324.606 204.282C326.415 208.81 328.228 213.335 330.047 217.858L336.107 232.96C337.165 235.604 338.216 238.24 339.29 240.876C339.518 241.414 339.636 241.993 339.636 242.578C339.636 243.162 339.518 243.741 339.29 244.279C336.219 251.934 333.145 259.595 330.069 267.26C329.819 267.978 329.373 268.612 328.782 269.091C328.191 269.57 327.478 269.874 326.723 269.971C325.79 270.145 324.826 269.992 323.992 269.539C323.159 269.086 322.507 268.36 322.146 267.483C320.417 263.239 318.725 258.979 317.018 254.72C314.116 247.506 311.221 240.288 308.334 233.064C305.755 226.635 303.179 220.211 300.605 213.792C299.748 211.662 298.92 209.517 298.026 207.395C297.78 206.82 297.663 206.198 297.685 205.573C297.706 204.948 297.864 204.336 298.149 203.779C298.433 203.222 298.837 202.734 299.331 202.35C299.825 201.966 300.397 201.695 301.007 201.557C301.082 201.557 301.149 201.512 301.224 201.49H321.267Z" fill="url(#paint17_linear_5802_15050)"/>
<path d="M250.039 201.49C250.27 201.557 250.494 201.609 250.717 201.683C251.297 201.864 251.828 202.172 252.273 202.584C252.718 202.996 253.065 203.503 253.289 204.066C255.276 208.976 257.249 213.886 259.207 218.796C261.165 223.706 263.153 228.671 265.17 233.69L268.099 240.973C268.319 241.491 268.432 242.048 268.432 242.611C268.432 243.174 268.319 243.731 268.099 244.249C267.011 246.975 265.918 249.705 264.82 252.441L258.805 267.402C258.489 268.179 257.949 268.845 257.254 269.316C256.558 269.787 255.739 270.04 254.899 270.045C254.013 270.058 253.145 269.797 252.412 269.299C251.68 268.8 251.119 268.088 250.807 267.26C248.943 262.561 247.08 257.87 245.172 253.178L237.532 234.144L229.765 214.782C228.789 212.34 227.812 209.89 226.783 207.447C226.349 206.43 226.328 205.284 226.725 204.251C227.121 203.219 227.904 202.381 228.908 201.914C229.274 201.766 229.65 201.644 230.033 201.549L250.039 201.49Z" fill="url(#paint18_linear_5802_15050)"/>
<path d="M303.999 243.251C303.463 245.098 302.68 246.841 301.935 248.643C299.912 253.702 297.877 258.763 295.83 263.827C295.36 265.026 294.883 266.143 294.429 267.312C294.104 268.132 293.532 268.831 292.792 269.313C292.053 269.794 291.181 270.035 290.299 270C289.457 269.978 288.641 269.705 287.955 269.217C287.268 268.729 286.743 268.048 286.446 267.26C283.494 259.883 280.537 252.505 277.576 245.128C275.022 238.783 272.458 232.424 269.884 226.049C267.399 219.809 264.914 213.568 262.43 207.328C262.189 206.758 262.077 206.141 262.101 205.523C262.125 204.904 262.285 204.298 262.569 203.748C262.854 203.198 263.256 202.718 263.747 202.34C264.238 201.963 264.806 201.698 265.411 201.564L265.657 201.49H285.685L285.872 201.549C286.577 201.698 287.234 202.023 287.779 202.494C288.324 202.966 288.74 203.569 288.987 204.245C290.15 207.149 291.318 210.056 292.491 212.965C295.547 220.591 298.603 228.216 301.659 235.842C302.464 237.853 303.358 239.826 304.014 241.889L303.999 243.251Z" fill="white"/>
<path d="M303.999 243.251C303.463 245.098 302.68 246.841 301.935 248.643C299.912 253.702 297.877 258.763 295.83 263.827C295.36 265.026 294.883 266.143 294.429 267.312C294.104 268.132 293.532 268.831 292.792 269.313C292.053 269.794 291.181 270.035 290.299 270C289.457 269.978 288.641 269.705 287.955 269.217C287.268 268.729 286.743 268.048 286.446 267.26C283.494 259.883 280.537 252.505 277.576 245.128C275.022 238.783 272.458 232.424 269.884 226.049C267.399 219.809 264.914 213.568 262.43 207.328C262.189 206.758 262.077 206.141 262.101 205.523C262.125 204.904 262.285 204.298 262.569 203.748C262.854 203.198 263.256 202.718 263.747 202.34C264.238 201.963 264.806 201.698 265.411 201.564L265.657 201.49H285.685L285.872 201.549C286.577 201.698 287.234 202.023 287.779 202.494C288.324 202.966 288.74 203.569 288.987 204.245C290.15 207.149 291.318 210.056 292.491 212.965C295.547 220.591 298.603 228.216 301.659 235.842C302.464 237.853 303.358 239.826 304.014 241.889L303.999 243.251Z" fill="url(#paint19_linear_5802_15050)"/>
</g>
</g>
<defs>
<filter id="filter0_f_5802_15050" x="0.0224609" y="0.114868" width="563.682" height="465.796" filterUnits="userSpaceOnUse" color-interpolation-filters="sRGB">
<feFlood flood-opacity="0" result="BackgroundImageFix"/>
<feBlend mode="normal" in="SourceGraphic" in2="BackgroundImageFix" result="shape"/>
<feGaussianBlur stdDeviation="65" result="effect1_foregroundBlur_5802_15050"/>
</filter>
<filter id="filter1_i_5802_15050" x="74.7568" y="342.452" width="24.7529" height="32.9294" filterUnits="userSpaceOnUse" color-interpolation-filters="sRGB">
<feFlood flood-opacity="0" result="BackgroundImageFix"/>
<feBlend mode="normal" in="SourceGraphic" in2="BackgroundImageFix" result="shape"/>
<feColorMatrix in="SourceAlpha" type="matrix" values="0 0 0 0 0 0 0 0 0 0 0 0 0 0 0 0 0 0 127 0" result="hardAlpha"/>
<feOffset dy="0.363861"/>
<feGaussianBlur stdDeviation="0.0909653"/>
<feComposite in2="hardAlpha" operator="arithmetic" k2="-1" k3="1"/>
<feColorMatrix type="matrix" values="0 0 0 0 1 0 0 0 0 1 0 0 0 0 1 0 0 0 1 0"/>
<feBlend mode="normal" in2="shape" result="effect1_innerShadow_5802_15050"/>
</filter>
<filter id="filter2_i_5802_15050" x="177.525" y="360.427" width="14.3594" height="13.1003" filterUnits="userSpaceOnUse" color-interpolation-filters="sRGB">
<feFlood flood-opacity="0" result="BackgroundImageFix"/>
<feBlend mode="normal" in="SourceGraphic" in2="BackgroundImageFix" result="shape"/>
<feColorMatrix in="SourceAlpha" type="matrix" values="0 0 0 0 0 0 0 0 0 0 0 0 0 0 0 0 0 0 127 0" result="hardAlpha"/>
<feOffset dy="0.363861"/>
<feGaussianBlur stdDeviation="0.0909653"/>
<feComposite in2="hardAlpha" operator="arithmetic" k2="-1" k3="1"/>
<feColorMatrix type="matrix" values="0 0 0 0 1 0 0 0 0 1 0 0 0 0 1 0 0 0 1 0"/>
<feBlend mode="normal" in2="shape" result="effect1_innerShadow_5802_15050"/>
</filter>
<filter id="filter3_bi_5802_15050" x="261.851" y="346.091" width="40.0248" height="32.7474" filterUnits="userSpaceOnUse" color-interpolation-filters="sRGB">
<feFlood flood-opacity="0" result="BackgroundImageFix"/>
<feGaussianBlur in="BackgroundImageFix" stdDeviation="1.81931"/>
<feComposite in2="SourceAlpha" operator="in" result="effect1_backgroundBlur_5802_15050"/>
<feBlend mode="normal" in="SourceGraphic" in2="effect1_backgroundBlur_5802_15050" result="shape"/>
<feColorMatrix in="SourceAlpha" type="matrix" values="0 0 0 0 0 0 0 0 0 0 0 0 0 0 0 0 0 0 127 0" result="hardAlpha"/>
<feOffset dy="0.363861"/>
<feGaussianBlur stdDeviation="0.0909653"/>
<feComposite in2="hardAlpha" operator="arithmetic" k2="-1" k3="1"/>
<feColorMatrix type="matrix" values="0 0 0 0 1 0 0 0 0 1 0 0 0 0 1 0 0 0 1 0"/>
<feBlend mode="normal" in2="shape" result="effect2_innerShadow_5802_15050"/>
</filter>
<filter id="filter4_bi_5802_15050" x="360.825" y="347" width="36.3661" height="30.9282" filterUnits="userSpaceOnUse" color-interpolation-filters="sRGB">
<feFlood flood-opacity="0" result="BackgroundImageFix"/>
<feGaussianBlur in="BackgroundImageFix" stdDeviation="1.81931"/>
<feComposite in2="SourceAlpha" operator="in" result="effect1_backgroundBlur_5802_15050"/>
<feBlend mode="normal" in="SourceGraphic" in2="effect1_backgroundBlur_5802_15050" result="shape"/>
<feColorMatrix in="SourceAlpha" type="matrix" values="0 0 0 0 0 0 0 0 0 0 0 0 0 0 0 0 0 0 127 0" result="hardAlpha"/>
<feOffset dy="0.363861"/>
<feGaussianBlur stdDeviation="0.181931"/>
<feComposite in2="hardAlpha" operator="arithmetic" k2="-1" k3="1"/>
<feColorMatrix type="matrix" values="0 0 0 0 1 0 0 0 0 1 0 0 0 0 1 0 0 0 1 0"/>
<feBlend mode="normal" in2="shape" result="effect2_innerShadow_5802_15050"/>
</filter>
<filter id="filter5_bi_5802_15050" x="457.378" y="338.796" width="37.6132" height="39.8534" filterUnits="userSpaceOnUse" color-interpolation-filters="sRGB">
<feFlood flood-opacity="0" result="BackgroundImageFix"/>
<feGaussianBlur in="BackgroundImageFix" stdDeviation="1.81931"/>
<feComposite in2="SourceAlpha" operator="in" result="effect1_backgroundBlur_5802_15050"/>
<feBlend mode="normal" in="SourceGraphic" in2="effect1_backgroundBlur_5802_15050" result="shape"/>
<feColorMatrix in="SourceAlpha" type="matrix" values="0 0 0 0 0 0 0 0 0 0 0 0 0 0 0 0 0 0 127 0" result="hardAlpha"/>
<feOffset dy="0.363861"/>
<feGaussianBlur stdDeviation="0.0909653"/>
<feComposite in2="hardAlpha" operator="arithmetic" k2="-1" k3="1"/>
<feColorMatrix type="matrix" values="0 0 0 0 1 0 0 0 0 1 0 0 0 0 1 0 0 0 1 0"/>
<feBlend mode="normal" in2="shape" result="effect2_innerShadow_5802_15050"/>
</filter>
<filter id="filter6_bi_5802_15050" x="414.412" y="215.729" width="30.3739" height="40.0315" filterUnits="userSpaceOnUse" color-interpolation-filters="sRGB">
<feFlood flood-opacity="0" result="BackgroundImageFix"/>
<feGaussianBlur in="BackgroundImageFix" stdDeviation="1.81931"/>
<feComposite in2="SourceAlpha" operator="in" result="effect1_backgroundBlur_5802_15050"/>
<feBlend mode="normal" in="SourceGraphic" in2="effect1_backgroundBlur_5802_15050" result="shape"/>
<feColorMatrix in="SourceAlpha" type="matrix" values="0 0 0 0 0 0 0 0 0 0 0 0 0 0 0 0 0 0 127 0" result="hardAlpha"/>
<feOffset dy="0.363861"/>
<feGaussianBlur stdDeviation="0.0909653"/>
<feComposite in2="hardAlpha" operator="arithmetic" k2="-1" k3="1"/>
<feColorMatrix type="matrix" values="0 0 0 0 1 0 0 0 0 1 0 0 0 0 1 0 0 0 1 0"/>
<feBlend mode="normal" in2="shape" result="effect2_innerShadow_5802_15050"/>
</filter>
<filter id="filter7_bi_5802_15050" x="516.641" y="216.259" width="29.9662" height="40.0245" filterUnits="userSpaceOnUse" color-interpolation-filters="sRGB">
<feFlood flood-opacity="0" result="BackgroundImageFix"/>
<feGaussianBlur in="BackgroundImageFix" stdDeviation="1.81931"/>
<feComposite in2="SourceAlpha" operator="in" result="effect1_backgroundBlur_5802_15050"/>
<feBlend mode="normal" in="SourceGraphic" in2="effect1_backgroundBlur_5802_15050" result="shape"/>
<feColorMatrix in="SourceAlpha" type="matrix" values="0 0 0 0 0 0 0 0 0 0 0 0 0 0 0 0 0 0 127 0" result="hardAlpha"/>
<feOffset dy="0.363861"/>
<feGaussianBlur stdDeviation="0.0909653"/>
<feComposite in2="hardAlpha" operator="arithmetic" k2="-1" k3="1"/>
<feColorMatrix type="matrix" values="0 0 0 0 1 0 0 0 0 1 0 0 0 0 1 0 0 0 1 0"/>
<feBlend mode="normal" in2="shape" result="effect2_innerShadow_5802_15050"/>
</filter>
<filter id="filter8_bi_5802_15050" x="68.2149" y="100.451" width="40.0248" height="32.7474" filterUnits="userSpaceOnUse" color-interpolation-filters="sRGB">
<feFlood flood-opacity="0" result="BackgroundImageFix"/>
<feGaussianBlur in="BackgroundImageFix" stdDeviation="1.81931"/>
<feComposite in2="SourceAlpha" operator="in" result="effect1_backgroundBlur_5802_15050"/>
<feBlend mode="normal" in="SourceGraphic" in2="effect1_backgroundBlur_5802_15050" result="shape"/>
<feColorMatrix in="SourceAlpha" type="matrix" values="0 0 0 0 0 0 0 0 0 0 0 0 0 0 0 0 0 0 127 0" result="hardAlpha"/>
<feOffset dy="0.363861"/>
<feGaussianBlur stdDeviation="0.0909653"/>
<feComposite in2="hardAlpha" operator="arithmetic" k2="-1" k3="1"/>
<feColorMatrix type="matrix" values="0 0 0 0 1 0 0 0 0 1 0 0 0 0 1 0 0 0 1 0"/>
<feBlend mode="normal" in2="shape" result="effect2_innerShadow_5802_15050"/>
</filter>
<filter id="filter9_bi_5802_15050" x="166.537" y="100.43" width="37.704" height="30.9424" filterUnits="userSpaceOnUse" color-interpolation-filters="sRGB">
<feFlood flood-opacity="0" result="BackgroundImageFix"/>
<feGaussianBlur in="BackgroundImageFix" stdDeviation="1.81931"/>
<feComposite in2="SourceAlpha" operator="in" result="effect1_backgroundBlur_5802_15050"/>
<feBlend mode="normal" in="SourceGraphic" in2="effect1_backgroundBlur_5802_15050" result="shape"/>
<feColorMatrix in="SourceAlpha" type="matrix" values="0 0 0 0 0 0 0 0 0 0 0 0 0 0 0 0 0 0 127 0" result="hardAlpha"/>
<feOffset dy="0.363861"/>
<feGaussianBlur stdDeviation="0.0909653"/>
<feComposite in2="hardAlpha" operator="arithmetic" k2="-1" k3="1"/>
<feColorMatrix type="matrix" values="0 0 0 0 1 0 0 0 0 1 0 0 0 0 1 0 0 0 1 0"/>
<feBlend mode="normal" in2="shape" result="effect2_innerShadow_5802_15050"/>
</filter>
<filter id="filter10_bi_5802_15050" x="362.873" y="93.1735" width="33.6571" height="33.6571" filterUnits="userSpaceOnUse" color-interpolation-filters="sRGB">
<feFlood flood-opacity="0" result="BackgroundImageFix"/>
<feGaussianBlur in="BackgroundImageFix" stdDeviation="1.81931"/>
<feComposite in2="SourceAlpha" operator="in" result="effect1_backgroundBlur_5802_15050"/>
<feBlend mode="normal" in="SourceGraphic" in2="effect1_backgroundBlur_5802_15050" result="shape"/>
<feColorMatrix in="SourceAlpha" type="matrix" values="0 0 0 0 0 0 0 0 0 0 0 0 0 0 0 0 0 0 127 0" result="hardAlpha"/>
<feOffset dy="0.363861"/>
<feGaussianBlur stdDeviation="0.0909653"/>
<feComposite in2="hardAlpha" operator="arithmetic" k2="-1" k3="1"/>
<feColorMatrix type="matrix" values="0 0 0 0 1 0 0 0 0 1 0 0 0 0 1 0 0 0 1 0"/>
<feBlend mode="normal" in2="shape" result="effect2_innerShadow_5802_15050"/>
</filter>
<filter id="filter11_bi_5802_15050" x="262.531" y="100.76" width="40.0233" height="28.6641" filterUnits="userSpaceOnUse" color-interpolation-filters="sRGB">
<feFlood flood-opacity="0" result="BackgroundImageFix"/>
<feGaussianBlur in="BackgroundImageFix" stdDeviation="1.81931"/>
<feComposite in2="SourceAlpha" operator="in" result="effect1_backgroundBlur_5802_15050"/>
<feBlend mode="normal" in="SourceGraphic" in2="effect1_backgroundBlur_5802_15050" result="shape"/>
<feColorMatrix in="SourceAlpha" type="matrix" values="0 0 0 0 0 0 0 0 0 0 0 0 0 0 0 0 0 0 127 0" result="hardAlpha"/>
<feOffset dy="0.363861"/>
<feGaussianBlur stdDeviation="0.0909653"/>
<feComposite in2="hardAlpha" operator="arithmetic" k2="-1" k3="1"/>
<feColorMatrix type="matrix" values="0 0 0 0 1 0 0 0 0 1 0 0 0 0 1 0 0 0 1 0"/>
<feBlend mode="normal" in2="shape" result="effect2_innerShadow_5802_15050"/>
</filter>
<filter id="filter12_bi_5802_15050" x="456.854" y="100.01" width="29.2875" height="34.0945" filterUnits="userSpaceOnUse" color-interpolation-filters="sRGB">
<feFlood flood-opacity="0" result="BackgroundImageFix"/>
<feGaussianBlur in="BackgroundImageFix" stdDeviation="1.81931"/>
<feComposite in2="SourceAlpha" operator="in" result="effect1_backgroundBlur_5802_15050"/>
<feBlend mode="normal" in="SourceGraphic" in2="effect1_backgroundBlur_5802_15050" result="shape"/>
<feColorMatrix in="SourceAlpha" type="matrix" values="0 0 0 0 0 0 0 0 0 0 0 0 0 0 0 0 0 0 127 0" result="hardAlpha"/>
<feOffset dy="0.363861"/>
<feGaussianBlur stdDeviation="0.0909653"/>
<feComposite in2="hardAlpha" operator="arithmetic" k2="-1" k3="1"/>
<feColorMatrix type="matrix" values="0 0 0 0 1 0 0 0 0 1 0 0 0 0 1 0 0 0 1 0"/>
<feBlend mode="normal" in2="shape" result="effect2_innerShadow_5802_15050"/>
</filter>
<filter id="filter13_bi_5802_15050" x="21.5655" y="230.283" width="40.0248" height="25.4702" filterUnits="userSpaceOnUse" color-interpolation-filters="sRGB">
<feFlood flood-opacity="0" result="BackgroundImageFix"/>
<feGaussianBlur in="BackgroundImageFix" stdDeviation="1.81931"/>
<feComposite in2="SourceAlpha" operator="in" result="effect1_backgroundBlur_5802_15050"/>
<feBlend mode="normal" in="SourceGraphic" in2="effect1_backgroundBlur_5802_15050" result="shape"/>
<feColorMatrix in="SourceAlpha" type="matrix" values="0 0 0 0 0 0 0 0 0 0 0 0 0 0 0 0 0 0 127 0" result="hardAlpha"/>
<feOffset dy="0.363861"/>
<feGaussianBlur stdDeviation="0.0909653"/>
<feComposite in2="hardAlpha" operator="arithmetic" k2="-1" k3="1"/>
<feColorMatrix type="matrix" values="0 0 0 0 1 0 0 0 0 1 0 0 0 0 1 0 0 0 1 0"/>
<feBlend mode="normal" in2="shape" result="effect2_innerShadow_5802_15050"/>
</filter>
<filter id="filter14_i_5802_15050" x="122.363" y="219.368" width="27.2896" height="27.7923" filterUnits="userSpaceOnUse" color-interpolation-filters="sRGB">
<feFlood flood-opacity="0" result="BackgroundImageFix"/>
<feBlend mode="normal" in="SourceGraphic" in2="BackgroundImageFix" result="shape"/>
<feColorMatrix in="SourceAlpha" type="matrix" values="0 0 0 0 0 0 0 0 0 0 0 0 0 0 0 0 0 0 127 0" result="hardAlpha"/>
<feOffset dy="0.502798"/>
<feGaussianBlur stdDeviation="0.251399"/>
<feComposite in2="hardAlpha" operator="arithmetic" k2="-1" k3="1"/>
<feColorMatrix type="matrix" values="0 0 0 0 1 0 0 0 0 1 0 0 0 0 1 0 0 0 1 0"/>
<feBlend mode="normal" in2="shape" result="effect1_innerShadow_5802_15050"/>
</filter>
<filter id="filter15_f_5802_15050" x="131.127" y="83.7988" width="303.892" height="303.892" filterUnits="userSpaceOnUse" color-interpolation-filters="sRGB">
<feFlood flood-opacity="0" result="BackgroundImageFix"/>
<feBlend mode="normal" in="SourceGraphic" in2="BackgroundImageFix" result="shape"/>
<feGaussianBlur stdDeviation="18.095" result="effect1_foregroundBlur_5802_15050"/>
</filter>
<filter id="filter16_d_5802_15050" x="171.942" y="124.616" width="222.258" height="222.258" filterUnits="userSpaceOnUse" color-interpolation-filters="sRGB">
<feFlood flood-opacity="0" result="BackgroundImageFix"/>
<feColorMatrix in="SourceAlpha" type="matrix" values="0 0 0 0 0 0 0 0 0 0 0 0 0 0 0 0 0 0 127 0" result="hardAlpha"/>
<feOffset/>
<feGaussianBlur stdDeviation="3.03377"/>
<feColorMatrix type="matrix" values="0 0 0 0 1 0 0 0 0 1 0 0 0 0 1 0 0 0 1 0"/>
<feBlend mode="overlay" in2="BackgroundImageFix" result="effect1_dropShadow_5802_15050"/>
<feBlend mode="normal" in="SourceGraphic" in2="effect1_dropShadow_5802_15050" result="shape"/>
</filter>
<radialGradient id="paint0_radial_5802_15050" cx="0" cy="0" r="1" gradientUnits="userSpaceOnUse" gradientTransform="translate(281.863 233.013) rotate(95.2763) scale(279.846 421.701)">
<stop stop-color="#9835C7"/>
<stop offset="0.291667" stop-color="#612A90"/>
<stop offset="1" stop-color="#612A90" stop-opacity="0"/>
</radialGradient>
<linearGradient id="paint1_linear_5802_15050" x1="89.3673" y1="344.191" x2="113.05" y2="372.126" gradientUnits="userSpaceOnUse">
<stop stop-color="#F4009F"/>
<stop offset="1" stop-color="#F856C8"/>
</linearGradient>
<linearGradient id="paint2_linear_5802_15050" x1="168.973" y1="374.872" x2="202.648" y2="359.697" gradientUnits="userSpaceOnUse">
<stop stop-color="#2567FF"/>
<stop offset="1" stop-color="#22A7FF"/>
</linearGradient>
<linearGradient id="paint3_linear_5802_15050" x1="287.37" y1="377.856" x2="266.823" y2="386.631" gradientUnits="userSpaceOnUse">
<stop stop-color="#2567FF"/>
<stop offset="1" stop-color="#22A7FF"/>
</linearGradient>
<linearGradient id="paint4_linear_5802_15050" x1="449.332" y1="373.002" x2="497.525" y2="342.699" gradientUnits="userSpaceOnUse">
<stop stop-color="#F4009F"/>
<stop offset="1" stop-color="#F856C8"/>
</linearGradient>
<linearGradient id="paint5_linear_5802_15050" x1="409.142" y1="247.097" x2="446.861" y2="224.548" gradientUnits="userSpaceOnUse">
<stop stop-color="#F4009F"/>
<stop offset="1" stop-color="#F856C8"/>
</linearGradient>
<linearGradient id="paint6_linear_5802_15050" x1="513.027" y1="242.537" x2="544.35" y2="231.713" gradientUnits="userSpaceOnUse">
<stop stop-color="#3F2DAF"/>
<stop offset="1" stop-color="#917FFB"/>
</linearGradient>
<linearGradient id="paint7_linear_5802_15050" x1="95.6202" y1="103.923" x2="77.321" y2="111.926" gradientUnits="userSpaceOnUse">
<stop stop-color="#2567FF"/>
<stop offset="1" stop-color="#22A7FF"/>
</linearGradient>
<linearGradient id="paint8_linear_5802_15050" x1="355.507" y1="132.221" x2="390.758" y2="102.335" gradientUnits="userSpaceOnUse">
<stop stop-color="#F4009F"/>
<stop offset="1" stop-color="#F856C8"/>
</linearGradient>
<linearGradient id="paint9_linear_5802_15050" x1="284.72" y1="111.087" x2="313.1" y2="96.7089" gradientUnits="userSpaceOnUse">
<stop stop-color="#3F2DAF"/>
<stop offset="1" stop-color="#917FFB"/>
</linearGradient>
<linearGradient id="paint10_linear_5802_15050" x1="495.895" y1="129.315" x2="477.595" y2="137.318" gradientUnits="userSpaceOnUse">
<stop stop-color="#2567FF"/>
<stop offset="1" stop-color="#22A7FF"/>
</linearGradient>
<linearGradient id="paint11_linear_5802_15050" x1="25.4775" y1="234.769" x2="48.9417" y2="214.876" gradientUnits="userSpaceOnUse">
<stop stop-color="#F4009F"/>
<stop offset="1" stop-color="#F856C8"/>
</linearGradient>
<linearGradient id="paint12_linear_5802_15050" x1="141.485" y1="250.069" x2="172.075" y2="239.498" gradientUnits="userSpaceOnUse">
<stop stop-color="#3F2DAF"/>
<stop offset="1" stop-color="#917FFB"/>
</linearGradient>
<radialGradient id="paint13_radial_5802_15050" cx="0" cy="0" r="1" gradientUnits="userSpaceOnUse" gradientTransform="translate(167.317 351.501) rotate(-45) scale(163.704 229.969)">
<stop stop-color="#E81D72"/>
<stop offset="1" stop-color="#FF0000" stop-opacity="0"/>
</radialGradient>
<radialGradient id="paint14_radial_5802_15050" cx="0" cy="0" r="1" gradientUnits="userSpaceOnUse" gradientTransform="translate(182.872 208.686) rotate(7.14187) scale(217.646 129.025)">
<stop stop-color="#A46CFF"/>
<stop offset="1" stop-color="#9E00FF"/>
</radialGradient>
<linearGradient id="paint15_linear_5802_15050" x1="178.462" y1="131.136" x2="387.68" y2="340.354" gradientUnits="userSpaceOnUse">
<stop stop-color="#1E2128"/>
<stop offset="1" stop-color="#101011"/>
</linearGradient>
<linearGradient id="paint16_linear_5802_15050" x1="256.499" y1="76.4413" x2="316.163" y2="308.232" gradientUnits="userSpaceOnUse">
<stop stop-color="white"/>
<stop offset="1" stop-color="white" stop-opacity="0"/>
</linearGradient>
<linearGradient id="paint17_linear_5802_15050" x1="309.284" y1="198.496" x2="339.494" y2="269.775" gradientUnits="userSpaceOnUse">
<stop stop-color="#DE35A0"/>
<stop offset="1" stop-color="#9120AC"/>
</linearGradient>
<linearGradient id="paint18_linear_5802_15050" x1="238.054" y1="198.495" x2="268.249" y2="269.797" gradientUnits="userSpaceOnUse">
<stop stop-color="#DE35A0"/>
<stop offset="1" stop-color="#9120AC"/>
</linearGradient>
<linearGradient id="paint19_linear_5802_15050" x1="273.689" y1="198.497" x2="303.89" y2="269.731" gradientUnits="userSpaceOnUse">
<stop stop-color="#DE35A0"/>
<stop offset="1" stop-color="#9120AC"/>
</linearGradient>
<clipPath id="clip0_5802_15050">
<rect width="43.6633" height="43.6633" fill="white" transform="translate(162.875 336.994)"/>
</clipPath>
<clipPath id="clip1_5802_15050">
<rect width="43.6633" height="43.6633" fill="white" transform="translate(357.87 91.3542)"/>
</clipPath>
<clipPath id="clip2_5802_15050">
<rect width="113.17" height="68.5107" fill="white" transform="translate(226.485 201.49)"/>
</clipPath>
</defs>
</svg>
