<svg width="80" height="80" viewBox="0 0 80 80" fill="none" xmlns="http://www.w3.org/2000/svg">
<rect width="80" height="80" rx="12" fill="white"/>
<path d="M44.1514 26.3562C38.8882 26.3562 33.7508 28.3856 29.9103 31.9857C25.6979 35.9354 23.0321 41.7684 21.504 47.2554C20.5032 50.8461 20.0018 54.5702 20.0018 58.296C20.0018 59.4227 20.048 60.5401 20.1369 61.6445C20.246 62.9875 21.554 63.9181 22.8563 63.5666C23.9922 63.2613 25.1873 63.0967 26.4194 63.0967C28.9502 63.0967 31.3219 63.7849 33.355 64.9874C33.4049 65.017 33.453 65.0466 33.5029 65.0743C36.807 67.0446 40.7049 68.1268 44.8618 67.9881C55.7045 67.6291 64.5621 58.8066 64.9618 47.9657C65.3984 36.1056 55.9153 26.3544 44.1533 26.3544L44.1514 26.3562ZM44.1514 56.694C38.8956 56.694 34.6352 52.4335 34.6352 47.1796C34.6352 41.9256 38.8956 37.6632 44.1514 37.6632C49.4072 37.6632 53.6677 41.9238 53.6677 47.1796C53.6677 52.4352 49.4072 56.694 44.1514 56.694Z" fill="#14AAFF"/>
<path d="M35.5897 19.7958C35.5897 22.5393 34.1524 25.0848 31.7918 26.4834C30.3099 27.3622 28.9206 28.4 27.6626 29.5821C24.8711 32.198 22.7879 35.4078 21.2451 38.5897C20.9417 39.2168 20 38.9949 20 38.2974V19.7958C20 15.4909 23.4909 12 27.7958 12C32.1007 12 35.5916 15.4909 35.5916 19.7958H35.5897Z" fill="#0075FF"/>
</svg>
