<svg width="80" height="80" viewBox="0 0 80 80" fill="none" xmlns="http://www.w3.org/2000/svg">
<path d="M0 21.4174C0 13.9206 0 10.1722 1.4536 7.30878C2.73224 4.79008 4.77247 2.74232 7.28191 1.45897C10.1348 0 13.8694 0 21.3387 0H58.6613C66.1306 0 69.8652 0 72.7181 1.45897C75.2276 2.74232 77.2677 4.79008 78.5464 7.30878C80 10.1722 80 13.9206 80 21.4174V58.5826C80 66.0794 80 69.8278 78.5464 72.6912C77.2677 75.21 75.2276 77.2576 72.7181 78.541C69.8652 80 66.1306 80 58.6613 80H21.3387C13.8694 80 10.1348 80 7.28191 78.541C4.77247 77.2576 2.73224 75.21 1.4536 72.6912C0 69.8278 0 66.0794 0 58.5826V21.4174Z" fill="#262D34"/>
<mask id="mask0_24_78" style="mask-type:luminance" maskUnits="userSpaceOnUse" x="17" y="17" width="47" height="47">
<path d="M63.6667 17H17V63.6667H63.6667V17Z" fill="white"/>
</mask>
<g mask="url(#mask0_24_78)">
<path d="M61.1417 40.0738V22.3717C61.1417 20.8152 59.864 19.5332 58.3125 19.5332H40.6375C40.455 19.5332 40.3028 19.4722 40.1508 19.3502L38.0213 17.2137C37.8997 17.0915 37.717 17 37.5345 17H19.8292C18.2777 17 17 18.2513 17 19.8385V37.5407C17 37.7238 17.0608 37.8763 17.1825 38.029L19.312 40.1655C19.4337 40.2875 19.525 40.4707 19.525 40.6538V58.356C19.525 59.9125 20.8027 61.1945 22.3542 61.1945H40.0595C40.242 61.1945 40.3942 61.2555 40.5463 61.3777L42.6758 63.514C42.7975 63.6362 42.98 63.6972 43.1625 63.6972H60.8678C62.4193 63.6972 63.6972 62.4458 63.6972 60.8587V43.1565C63.6972 42.9733 63.6362 42.8208 63.5145 42.6682L61.385 40.5317C61.233 40.4097 61.1417 40.257 61.1417 40.0738ZM49.1252 49.5355H31.572C31.359 49.5355 31.1765 49.3523 31.1765 49.1387V31.5585C31.1765 31.3448 31.359 31.1618 31.572 31.1618H49.1252C49.3382 31.1618 49.5207 31.3448 49.5207 31.5585V49.1387C49.551 49.3523 49.3685 49.5355 49.1252 49.5355Z" fill="#D6F9F8"/>
</g>
</svg>
