<svg width="48" height="48" viewBox="0 0 48 48" fill="none" xmlns="http://www.w3.org/2000/svg">
<g clip-path="url(#clip0_3685_6702)">
<rect width="48" height="48" rx="8" fill="url(#paint0_linear_3685_6702)"/>
<rect x="-1" y="-1" width="50" height="50" rx="9.8" fill="url(#paint1_linear_3685_6702)"/>
<path d="M17 11C13.6875 11 11 13.6875 11 17C11 20.3125 13.6875 23 17 23C17.5531 23 18 23.4469 18 24C18 24.5531 17.5531 25 17 25C12.5813 25 9 21.4187 9 17C9 12.5813 12.5813 9 17 9C21.4187 9 25 12.5813 25 17V18C25 19.6562 23.6562 21 22 21C21.0844 21 20.2625 20.5875 19.7125 19.9406C19 20.5969 18.0469 21 17 21C14.7906 21 13 19.2094 13 17C13 14.7906 14.7906 13 17 13C17.8719 13 18.6781 13.2781 19.3344 13.7531C19.5125 13.5969 19.7438 13.5 20 13.5C20.5531 13.5 21 13.9469 21 14.5V18C21 18.5531 21.4469 19 22 19C22.5531 19 23 18.5531 23 18V17C23 13.6875 20.3125 11 17 11ZM19 17C19 16.4696 18.7893 15.9609 18.4142 15.5858C18.0391 15.2107 17.5304 15 17 15C16.4696 15 15.9609 15.2107 15.5858 15.5858C15.2107 15.9609 15 16.4696 15 17C15 17.5304 15.2107 18.0391 15.5858 18.4142C15.9609 18.7893 16.4696 19 17 19C17.5304 19 18.0391 18.7893 18.4142 18.4142C18.7893 18.0391 19 17.5304 19 17Z" fill="white"/>
<path d="M27.8384 33.2644L28.2429 33.6907C28.2429 33.6907 29.2055 34.7034 31.8322 31.9383C34.4588 29.1731 33.4962 28.1604 33.4962 28.1604L33.2419 27.8912C32.6135 27.2305 32.5539 26.1689 33.1024 25.3934L34.2224 23.8094C34.9015 22.8494 36.2126 22.7223 36.9904 23.5412L38.3859 25.0094C38.7708 25.416 39.0286 25.9411 38.9975 26.5247C38.9175 28.0183 38.2792 31.2305 34.7202 34.9783C30.9451 38.9519 27.4029 39.11 25.9549 38.9669C25.4962 38.9218 25.098 38.6752 24.7771 38.3363L23.5149 37.0074C22.6616 36.1105 22.9016 34.5717 23.9931 33.9439L25.6909 32.966C26.4073 32.5538 27.2784 32.6752 27.8384 33.2644Z" fill="white"/>
</g>
<defs>
<linearGradient id="paint0_linear_3685_6702" x1="25.5" y1="-6.29572e-06" x2="30.2016" y2="47.535" gradientUnits="userSpaceOnUse">
<stop stop-color="#8358BA"/>
<stop offset="1" stop-color="#7B1CF7"/>
</linearGradient>
<linearGradient id="paint1_linear_3685_6702" x1="25.5625" y1="-1.00001" x2="30.46" y2="48.5156" gradientUnits="userSpaceOnUse">
<stop stop-color="#8358BA"/>
<stop offset="1" stop-color="#7B1CF7"/>
</linearGradient>
<clipPath id="clip0_3685_6702">
<rect width="48" height="48" rx="8" fill="white"/>
</clipPath>
</defs>
</svg>
