<svg width="80" height="80" viewBox="0 0 80 80" fill="none" xmlns="http://www.w3.org/2000/svg">
<rect width="80" height="80" rx="12" fill="#FFE6CE"/>
<path d="M64.9712 14.179L43.2903 30.2817L47.2996 20.7814L64.9712 14.179Z" fill="#E2761B" stroke="#E2761B" stroke-width="0.124514" stroke-linecap="round" stroke-linejoin="round"/>
<path d="M14.9198 14.179L36.4264 30.4343L32.6132 20.7814L14.9198 14.179ZM57.1704 51.5051L51.3961 60.3518L63.751 63.751L67.3027 51.7012L57.1704 51.5051ZM12.6319 51.7012L16.1619 63.751L28.5167 60.3518L22.7424 51.5051L12.6319 51.7012Z" fill="#E4761B" stroke="#E4761B" stroke-width="0.124514" stroke-linecap="round" stroke-linejoin="round"/>
<path d="M27.8194 36.5572L24.3766 41.765L36.6444 42.3097L36.2086 29.1268L27.8194 36.5572ZM52.0716 36.5572L43.5735 28.9743L43.2903 42.3097L55.5362 41.765L52.0716 36.5572ZM28.5167 60.3517L35.8817 56.7564L29.5191 51.7883L28.5167 60.3517ZM44.0093 56.7564L51.3961 60.3517L50.372 51.7883L44.0093 56.7564Z" fill="#E4761B" stroke="#E4761B" stroke-width="0.124514" stroke-linecap="round" stroke-linejoin="round"/>
<path d="M51.3961 60.3517L44.0093 56.7564L44.5977 61.572L44.5323 63.5984L51.3961 60.3517ZM28.5167 60.3517L35.3805 63.5984L35.337 61.572L35.8817 56.7564L28.5167 60.3517Z" fill="#D7C1B3" stroke="#D7C1B3" stroke-width="0.124514" stroke-linecap="round" stroke-linejoin="round"/>
<path d="M35.4895 48.607L29.3447 46.7984L33.6809 44.8156L35.4895 48.607ZM44.4015 48.607L46.2101 44.8156L50.5681 46.7984L44.4015 48.607Z" fill="#233447" stroke="#233447" stroke-width="0.124514" stroke-linecap="round" stroke-linejoin="round"/>
<path d="M28.5167 60.3517L29.5626 51.505L22.7424 51.7011L28.5167 60.3517ZM50.3502 51.505L51.3961 60.3517L57.1704 51.7011L50.3502 51.505ZM55.5362 41.765L43.2903 42.3097L44.4233 48.607L46.2319 44.8155L50.5899 46.7984L55.5362 41.765ZM29.3447 46.7984L33.7027 44.8155L35.4895 48.607L36.6443 42.3097L24.3766 41.765L29.3447 46.7984Z" fill="#CD6116" stroke="#CD6116" stroke-width="0.124514" stroke-linecap="round" stroke-linejoin="round"/>
<path d="M24.3766 41.765L29.5191 51.7883L29.3447 46.7984L24.3766 41.765ZM50.5899 46.7984L50.372 51.7883L55.5362 41.765L50.5899 46.7984ZM36.6444 42.3097L35.4895 48.607L36.9276 56.0373L37.2545 46.2537L36.6444 42.3097ZM43.2903 42.3097L42.7019 46.2319L42.9634 56.0373L44.4233 48.607L43.2903 42.3097Z" fill="#E4751F" stroke="#E4751F" stroke-width="0.124514" stroke-linecap="round" stroke-linejoin="round"/>
<path d="M44.4233 48.607L42.9634 56.0374L44.0093 56.7564L50.372 51.7883L50.5899 46.7985L44.4233 48.607ZM29.3447 46.7985L29.519 51.7883L35.8817 56.7564L36.9276 56.0374L35.4895 48.607L29.3447 46.7985Z" fill="#F6851B" stroke="#F6851B" stroke-width="0.124514" stroke-linecap="round" stroke-linejoin="round"/>
<path d="M44.5323 63.5984L44.5977 61.572L44.0529 61.0926H35.8381L35.337 61.572L35.3805 63.5984L28.5167 60.3517L30.9136 62.3128L35.7728 65.6903H44.1183L48.9992 62.3128L51.3961 60.3517L44.5323 63.5984Z" fill="#C0AD9E" stroke="#C0AD9E" stroke-width="0.124514" stroke-linecap="round" stroke-linejoin="round"/>
<path d="M44.0093 56.7564L42.9634 56.0374H36.9276L35.8817 56.7564L35.337 61.572L35.8381 61.0926H44.0529L44.5977 61.572L44.0093 56.7564Z" fill="#161616" stroke="#161616" stroke-width="0.124514" stroke-linecap="round" stroke-linejoin="round"/>
<path d="M65.8864 31.3277L67.7385 22.4374L64.9712 14.179L44.0093 29.737L52.0716 36.5572L63.4677 39.8911L65.9953 36.9494L64.9058 36.165L66.649 34.5743L65.2981 33.5284L67.0412 32.1992L65.8864 31.3277ZM12.1743 22.4374L14.0265 31.3277L12.8498 32.1992L14.593 33.5284L13.2638 34.5743L15.007 36.165L13.9175 36.9494L16.4233 39.8911L27.8195 36.5572L35.8817 29.737L14.9198 14.179L12.1743 22.4374Z" fill="#763D16" stroke="#763D16" stroke-width="0.124514" stroke-linecap="round" stroke-linejoin="round"/>
<path d="M63.4677 39.891L52.0716 36.5572L55.5362 41.765L50.372 51.7883L57.1704 51.7012H67.3027L63.4677 39.891ZM27.8194 36.5572L16.4233 39.891L12.6319 51.7012H22.7424L29.5191 51.7883L24.3766 41.765L27.8194 36.5572ZM43.2903 42.3097L44.0093 29.737L47.3214 20.7813H32.6132L35.8817 29.737L36.6443 42.3097L36.9058 46.2755L36.9276 56.0373H42.9634L43.007 46.2755L43.2903 42.3097Z" fill="#F6851B" stroke="#F6851B" stroke-width="0.124514" stroke-linecap="round" stroke-linejoin="round"/>
</svg>
