<svg width="80" height="80" viewBox="0 0 80 80" fill="none" xmlns="http://www.w3.org/2000/svg">
<rect width="80" height="80" rx="12" fill="black"/>
<path d="M46.0284 32.9668H33.0199C32.4677 32.9668 32.015 33.4195 32.015 33.9716V46.9801C32.015 47.5323 32.4677 47.985 33.0199 47.985H46.0284C46.5805 47.985 47.0332 47.5323 47.0332 46.9801V33.9716C47.0332 33.4195 46.5805 32.9668 46.0284 32.9668Z" fill="white"/>
<path d="M31.0133 18H18.0049C17.4527 18 17 18.4527 17 19.0049V32.0133C17 32.5655 17.4527 33.0182 18.0049 33.0182H31.0133C31.5655 33.0182 32.0182 32.5655 32.0182 32.0133V19.0049C32.015 18.4527 31.5655 18 31.0133 18Z" fill="white"/>
<path d="M60.9952 18H47.9867C47.4345 18 46.9818 18.4527 46.9818 19.0049V32.0133C46.9818 32.5655 47.4345 33.0182 47.9867 33.0182H60.9952C61.5473 33.0182 62 32.5655 62 32.0133V19.0049C62 18.4527 61.5473 18 60.9952 18Z" fill="white"/>
<path d="M31.0133 47.9337H18.0049C17.4527 47.9337 17 48.3864 17 48.9386V61.9471C17 62.4992 17.4527 62.9519 18.0049 62.9519H31.0133C31.5655 62.9519 32.0182 62.4992 32.0182 61.9471V48.9386C32.015 48.3864 31.5655 47.9337 31.0133 47.9337Z" fill="white"/>
<path d="M60.9952 47.9337H47.9867C47.4345 47.9337 46.9818 48.3864 46.9818 48.9386V61.9471C46.9818 62.4992 47.4345 62.9519 47.9867 62.9519H60.9952C61.5473 62.9519 62 62.4992 62 61.9471V48.9386C62 48.3864 61.5473 47.9337 60.9952 47.9337Z" fill="white"/>
</svg>
