<svg width="80" height="80" viewBox="0 0 80 80" fill="none" xmlns="http://www.w3.org/2000/svg">
<rect width="80" height="80" rx="12" fill="#5701E4"/>
<path d="M60.75 54H48V45.7143H42.305C39.8825 50.7271 34.655 54 28.875 54C20.6725 54 14 47.4957 14 39.5C14 31.5043 20.6725 25 28.875 25C34.655 25 39.8612 28.2729 42.305 33.2857H65V45.7143H60.75V54ZM52.25 49.8571H56.5V41.5714H60.75V37.4286H39.3725L38.8838 36.0407C37.3963 31.9186 33.3587 29.1429 28.875 29.1429C23.01 29.1429 18.25 33.7829 18.25 39.5C18.25 45.2171 23.01 49.8571 28.875 49.8571C33.3587 49.8571 37.3963 47.0814 38.8838 42.9593L39.3725 41.5714H52.25V49.8571ZM28.875 45.7143C25.3688 45.7143 22.5 42.9179 22.5 39.5C22.5 36.0821 25.3688 33.2857 28.875 33.2857C32.3812 33.2857 35.25 36.0821 35.25 39.5C35.25 42.9179 32.3812 45.7143 28.875 45.7143ZM28.875 37.4286C27.7062 37.4286 26.75 38.3607 26.75 39.5C26.75 40.6393 27.7062 41.5714 28.875 41.5714C30.0438 41.5714 31 40.6393 31 39.5C31 38.3607 30.0438 37.4286 28.875 37.4286Z" fill="white"/>
</svg>
