<svg width="80" height="80" viewBox="0 0 80 80" fill="none" xmlns="http://www.w3.org/2000/svg">
<rect width="80" height="80" rx="12" fill="#7B7DFF"/>
<mask id="mask0_53_24" style="mask-type:luminance" maskUnits="userSpaceOnUse" x="12" y="16" width="55" height="49">
<path d="M67 16H12V64.8889H67V16Z" fill="white"/>
</mask>
<g mask="url(#mask0_53_24)">
<path d="M65.6475 44.3415C67.7654 39.3166 57.2951 25.2781 47.2924 19.4293C40.9874 14.8984 34.4177 15.5208 33.087 17.5103C30.167 21.8763 42.7563 25.5758 51.1759 29.8929C49.3661 30.7277 47.6605 32.2259 46.6575 34.1419C43.5187 30.5024 36.6293 27.3684 28.5452 29.8929C23.0976 31.5942 18.5702 35.6049 16.8204 41.6625C16.3952 41.4619 15.9245 41.3504 15.4292 41.3504C13.5353 41.3504 12 42.981 12 44.9923C12 47.0038 13.5353 48.6343 15.4292 48.6343C15.7802 48.6343 16.8778 48.3843 16.8778 48.3843L34.4177 48.5192C27.4031 60.3375 21.8596 62.0651 21.8596 64.1125C21.8596 66.16 27.1637 65.6051 29.1553 64.842C38.6892 61.1885 48.9291 49.8022 50.6862 46.5245C58.0652 47.5022 64.2665 47.6178 65.6475 44.3415Z" fill="url(#paint0_linear_53_24)"/>
<path fill-rule="evenodd" clip-rule="evenodd" d="M51.1745 29.8935C51.5647 29.7303 51.503 29.1187 51.3959 28.638C51.1495 27.5331 46.8998 23.0763 42.9093 21.0801C37.4717 18.3603 33.4677 18.5003 32.8757 19.7537C33.9831 22.1648 39.1184 24.4286 44.4818 26.7929C46.77 27.8016 49.0984 28.829 51.1745 29.8935Z" fill="url(#paint1_linear_53_24)"/>
<path fill-rule="evenodd" clip-rule="evenodd" d="M44.274 54.1596C43.1743 53.7132 41.9321 53.3038 40.5198 52.9322C42.0256 50.0705 42.3415 45.834 40.9195 43.1555C38.9234 39.3964 36.418 37.3956 30.596 37.3956C27.3937 37.3956 18.7722 38.5412 18.6191 46.1848C18.6031 46.9867 18.6187 47.7217 18.6734 48.3976L34.4171 48.5188C32.2945 52.0948 30.3067 54.7471 28.5665 56.7637C30.656 57.3324 32.3803 57.8096 33.9633 58.248C35.4653 58.6638 36.8403 59.0445 38.2792 59.4344C40.45 57.7548 42.4906 55.9233 44.274 54.1596Z" fill="url(#paint2_linear_53_24)"/>
<path d="M16.6104 47.6126C17.2536 53.4191 20.3607 55.6947 26.71 56.3682C33.0593 57.0416 36.7012 56.5899 41.5499 57.0583C45.5996 57.4497 49.2155 59.6413 50.5569 58.884C51.7642 58.2023 51.0887 55.7396 49.4733 54.1598C47.3795 52.1116 44.4814 50.6877 39.3821 50.1825C40.3984 47.2275 40.1136 43.0841 38.5353 40.8299C36.2533 37.5704 32.041 36.0968 26.71 36.7407C21.1402 37.4133 15.8032 40.3256 16.6104 47.6126Z" fill="url(#paint3_linear_53_24)"/>
</g>
<defs>
<linearGradient id="paint0_linear_53_24" x1="27.9109" y1="39.8918" x2="65.5089" y2="49.931" gradientUnits="userSpaceOnUse">
<stop stop-color="white"/>
<stop offset="1" stop-color="white"/>
</linearGradient>
<linearGradient id="paint1_linear_53_24" x1="58.9132" y1="39.1391" x2="30.3922" y2="12.2188" gradientUnits="userSpaceOnUse">
<stop stop-color="#8697FF"/>
<stop offset="1" stop-color="#8697FF" stop-opacity="0"/>
</linearGradient>
<linearGradient id="paint2_linear_53_24" x1="45.0223" y1="55.1571" x2="18.4332" y2="40.7633" gradientUnits="userSpaceOnUse">
<stop stop-color="#8697FF"/>
<stop offset="1" stop-color="#8697FF" stop-opacity="0"/>
</linearGradient>
<linearGradient id="paint3_linear_53_24" x1="30.1366" y1="39.5964" x2="48.9181" y2="62.066" gradientUnits="userSpaceOnUse">
<stop stop-color="white"/>
<stop offset="0.983895" stop-color="#D1D8FF"/>
</linearGradient>
</defs>
</svg>
