<svg width="80" height="80" viewBox="0 0 80 80" fill="none" xmlns="http://www.w3.org/2000/svg">
<rect width="80" height="80" rx="12" fill="#12FF80"/>
<mask id="mask0_1_48" style="mask-type:luminance" maskUnits="userSpaceOnUse" x="12" y="12" width="56" height="56">
<path d="M40 68C55.464 68 68 55.464 68 40C68 24.536 55.464 12 40 12C24.536 12 12 24.536 12 40C12 55.464 24.536 68 40 68Z" fill="white"/>
</mask>
<g mask="url(#mask0_1_48)">
<path d="M68.1375 7.42676H9.33752V71.9948H68.1375V7.42676Z" fill="#12FF80"/>
</g>
<path d="M55.6683 40.0046H51.8429C50.7005 40.0046 49.7748 40.9309 49.7748 42.0727V47.6246C49.7748 48.767 48.8486 49.6927 47.7068 49.6927H32.4876C31.3452 49.6927 30.4196 50.6189 30.4196 51.7607V55.5861C30.4196 56.7285 31.3458 57.6542 32.4876 57.6542H48.5876C49.73 57.6542 50.6434 56.7279 50.6434 55.5861V52.5173C50.6434 51.3749 51.5696 50.564 52.7115 50.564H55.6683C56.8107 50.564 57.7364 49.6378 57.7364 48.4959V42.0481C57.7364 40.9057 56.8101 40.0041 55.6683 40.0041V40.0046Z" fill="#121312"/>
<path d="M30.424 32.3997C30.424 31.2573 31.3503 30.3316 32.4921 30.3316H47.7017C48.8441 30.3316 49.7698 29.4054 49.7698 28.2636V24.4382C49.7698 23.2958 48.8436 22.3701 47.7017 22.3701H31.6107C30.4683 22.3701 29.5426 23.2964 29.5426 24.4382V27.3855C29.5426 28.5279 28.6164 29.4536 27.4745 29.4536H24.5306C23.3882 29.4536 22.4625 30.3798 22.4625 31.5216V37.9762C22.4625 39.1186 23.3921 39.9978 24.5345 39.9978H28.3599C29.5023 39.9978 30.428 39.0716 30.428 37.9297L30.4246 32.4003L30.424 32.3997Z" fill="#121312"/>
<path d="M38.2929 35.975H41.9676C43.1649 35.975 44.1371 36.9471 44.1371 38.1444V41.8191C44.1371 43.0164 43.1649 43.9886 41.9676 43.9886H38.2929C37.0956 43.9886 36.1235 43.0164 36.1235 41.8191V38.1444C36.1235 36.9471 37.0956 35.975 38.2929 35.975Z" fill="#121312"/>
</svg>
