<svg width="80" height="80" viewBox="0 0 80 80" fill="none" xmlns="http://www.w3.org/2000/svg">
<rect width="80" height="80" rx="12" fill="url(#paint0_linear_1_91)"/>
<path d="M39.9969 18L40.2333 18.0156L40.3513 18.0333L40.4736 18.0622L40.6958 18.1378C40.8494 18.2006 40.9954 18.2842 41.1305 18.3867L41.3387 18.5689L41.8493 19.0533C45.8891 22.7768 50.9947 24.7762 56.2458 24.6911L56.9307 24.6689C57.3783 24.6462 57.82 24.7909 58.1849 25.0798C58.5498 25.3687 58.8167 25.785 58.9431 26.2622C59.9271 29.9769 60.2283 33.8731 59.8287 37.7194C59.4289 41.5658 58.3367 45.2836 56.6165 48.6523C54.8965 52.0207 52.5836 54.9714 49.8156 57.3285C47.0476 59.6856 43.8809 61.4012 40.5036 62.3734C40.174 62.4683 39.828 62.4683 39.4982 62.3734C36.1209 61.4014 32.9538 59.686 30.1856 57.3289C27.4176 54.9718 25.1045 52.0214 23.3842 48.6529C21.6638 45.2843 20.5713 41.5662 20.1715 37.7198C19.7717 33.8734 20.0727 29.9769 21.0567 26.2622C21.1831 25.785 21.4501 25.3687 21.815 25.0798C22.1799 24.7909 22.6215 24.6462 23.0693 24.6689C28.5513 24.947 33.9293 22.9444 38.1507 19.0533L38.6773 18.5533L38.8696 18.3867C39.0047 18.2842 39.1505 18.2006 39.304 18.1378L39.5282 18.0622C39.6069 18.0412 39.6865 18.0256 39.7667 18.0156L39.9969 18ZM40.0009 33.5556C38.9905 33.5551 38.0173 33.9787 37.2765 34.7411C36.5356 35.5036 36.0816 36.5485 36.0058 37.6667L35.9958 38L36.0058 38.3334C36.0551 39.0547 36.2625 39.7518 36.6098 40.364C36.9569 40.9762 37.4336 41.4851 37.9985 41.8467V45.7778L38.0125 46.0378C38.0727 46.6003 38.3242 47.1158 38.7156 47.4794C39.1071 47.8429 39.6087 48.0269 40.1182 47.9938C40.6278 47.9605 41.1067 47.7127 41.4571 47.3009C41.8076 46.8889 42.0029 46.3443 42.0036 45.7778L42.0056 41.8489C42.7691 41.3596 43.366 40.6042 43.7034 39.7002C44.0407 38.796 44.0996 37.7938 43.8711 36.8487C43.6427 35.9036 43.1396 35.0685 42.4398 34.4731C41.74 33.8776 40.8827 33.5551 40.0009 33.5556Z" fill="url(#paint1_linear_1_91)"/>
<defs>
<linearGradient id="paint0_linear_1_91" x1="40" y1="0" x2="40" y2="80" gradientUnits="userSpaceOnUse">
<stop stop-color="#8356BD"/>
<stop offset="1" stop-color="#7C20F4"/>
</linearGradient>
<linearGradient id="paint1_linear_1_91" x1="40" y1="18" x2="40" y2="62.4445" gradientUnits="userSpaceOnUse">
<stop stop-color="white"/>
<stop offset="1" stop-color="#E1D8FB"/>
</linearGradient>
</defs>
</svg>
