<svg width="80" height="80" viewBox="0 0 80 80" fill="none" xmlns="http://www.w3.org/2000/svg">
<rect width="80" height="80" rx="12" fill="#1C7DFC"/>
<rect width="80" height="80" rx="12" fill="url(#paint0_radial_1_46)"/>
<path d="M26.4227 31.4731C33.9171 24.1756 46.0829 24.1756 53.5773 31.4731L54.4796 32.358C54.858 32.7207 54.858 33.3155 54.4796 33.6782L51.3945 36.6813C51.2053 36.8699 50.8997 36.8699 50.7105 36.6813L49.4736 35.4772C44.2347 30.385 35.7653 30.385 30.5264 35.4772L29.2021 36.7684C29.013 36.957 28.7074 36.957 28.5182 36.7684L25.4331 33.7653C25.0547 33.4026 25.0547 32.8078 25.4331 32.4451L26.4227 31.4731ZM59.9658 37.6824L62.7162 40.3518C63.0946 40.7145 63.0946 41.3093 62.7162 41.672L50.3322 53.728C49.9538 54.0907 49.3426 54.0907 48.9788 53.728L40.1892 45.1684C40.1019 45.0813 39.9418 45.0813 39.8545 45.1684L31.0649 53.728C30.6865 54.0907 30.0753 54.0907 29.7115 53.728L17.2838 41.672C16.9054 41.3093 16.9054 40.7145 17.2838 40.3518L20.0342 37.6824C20.4125 37.3197 21.0237 37.3197 21.3875 37.6824L30.1772 46.242C30.2645 46.329 30.4245 46.329 30.5119 46.242L39.3015 37.6824C39.6799 37.3197 40.291 37.3197 40.6549 37.6824L49.4445 46.242C49.5318 46.329 49.6919 46.329 49.7792 46.242L58.5688 37.6824C58.9763 37.3197 59.5875 37.3197 59.9658 37.6824Z" fill="white"/>
<defs>
<radialGradient id="paint0_radial_1_46" cx="0" cy="0" r="1" gradientUnits="userSpaceOnUse" gradientTransform="translate(0.000247955 40.0012) scale(80)">
<stop stop-color="#5D9DF6"/>
<stop offset="1" stop-color="#006FFF"/>
</radialGradient>
</defs>
</svg>
