<svg width="512" height="522" viewBox="0 0 512 522" fill="none" xmlns="http://www.w3.org/2000/svg">
<path d="M307.009 292.786C267.403 317.461 214.391 330.168 160.702 327.454C115.561 325.233 78.5387 308.948 56.1529 282.176C36.4731 258.241 28.8471 226.657 34.0131 190.323C35.7639 178.248 39.3522 166.515 44.6524 155.532L45.3905 153.99C63.9719 118.107 91.5478 87.6954 125.404 65.7484C159.261 43.8014 198.231 31.0751 238.48 28.8221C278.729 26.5691 318.869 34.867 354.95 52.8991C391.031 70.9312 421.809 98.0762 444.255 131.662C466.702 165.248 480.043 204.118 482.965 244.446C485.888 284.775 478.292 325.171 460.924 361.66C443.555 398.149 417.015 429.474 383.913 452.55C350.811 475.626 312.289 489.66 272.139 493.269L274.599 521.584C319.678 517.556 362.933 501.818 400.103 475.921C437.274 450.024 467.077 414.86 486.577 373.894C506.076 332.928 514.6 287.574 511.308 242.298C508.015 197.023 493.021 153.389 467.801 115.695C442.582 78.0006 408.007 47.5469 367.484 27.3336C326.961 7.12032 281.887 -2.15507 236.702 0.421192C191.518 2.99745 147.782 17.3365 109.803 42.0256C71.824 66.7148 40.9128 100.902 20.1142 141.22L19.1302 143.256C12.5551 156.885 8.11595 171.45 5.96934 186.437C-0.180601 230.728 9.35175 270.147 34.259 300.497C61.5032 333.684 105.844 353.424 159.041 356.015C223.8 359.285 288.19 341.58 333.884 309.009L307.009 292.786Z" fill="#4476F2"/>
<path d="M361.186 324.985C335.418 347.439 275.517 388.153 176.134 393.705C64.8819 399.874 18.5113 363.602 18.0808 363.231L9.10188 374.335L18.1423 363.416L0 385.254C1.96798 386.919 46.4319 422.945 150.858 422.945C159.406 422.945 168.385 422.945 177.733 422.204C297.842 415.48 363.83 362.923 386.831 340.469L361.186 324.985Z" fill="#4476F2"/>
<path d="M409.412 354.352C394.175 374.442 375.419 391.583 354.063 404.936C278.787 453.669 183.033 459.961 115.998 456.568L114.584 485.006C125.838 485.561 136.662 485.808 147.179 485.808C336.228 485.808 412.61 399.446 433.95 368.602L409.351 354.105" fill="#4476F2"/>
<path d="M402.211 246.675C414.743 246.675 424.902 236.485 424.902 223.915C424.902 211.345 414.743 201.154 402.211 201.154C389.679 201.154 379.52 211.345 379.52 223.915C379.52 236.485 389.679 246.675 402.211 246.675Z" fill="#4476F2"/>
</svg>
