<svg width="2400" height="598" viewBox="0 0 2400 598" fill="none" xmlns="http://www.w3.org/2000/svg">
<path d="M1773.86 299L1753.86 287.453L1753.86 310.547L1773.86 299ZM1422.5 301L1755.86 301L1755.86 297L1422.5 297L1422.5 301Z" fill="#777777"/>
<path d="M977.5 299L957.5 287.453L957.5 310.547L977.5 299ZM626.143 301L959.5 301L959.5 297L626.143 297L626.143 301Z" fill="#777777"/>
<rect x="1001.5" y="93.5" width="397" height="411" rx="32" fill="url(#paint0_linear_3655_1858)"/>
<path fill-rule="evenodd" clip-rule="evenodd" d="M1195.98 214.089C1191.74 212.425 1187.18 211.748 1182.64 212.108C1178.1 212.467 1173.71 213.855 1169.78 216.166C1165.86 218.477 1162.52 221.65 1160 225.445C1157.49 229.239 1155.87 233.557 1155.27 238.069C1154.67 242.582 1155.11 247.172 1156.55 251.491C1157.99 255.81 1160.39 259.745 1163.57 262.998C1165.5 264.971 1165.47 268.137 1163.5 270.069C1161.52 272 1158.36 271.966 1156.43 269.993C1152.18 265.655 1148.98 260.408 1147.06 254.65C1145.14 248.891 1144.56 242.771 1145.36 236.754C1146.16 230.738 1148.32 224.981 1151.67 219.921C1155.02 214.862 1159.48 210.631 1164.71 207.55C1169.94 204.469 1175.8 202.619 1181.85 202.139C1187.9 201.659 1193.98 202.562 1199.63 204.78C1205.28 206.999 1210.35 210.473 1214.46 214.942C1217.71 218.479 1220.29 222.565 1222.09 227H1227.5C1227.5 227 1227.5 227 1227.5 227C1233.4 227 1239.14 228.897 1243.88 232.411C1248.62 235.926 1252.11 240.872 1253.82 246.518C1255.53 252.164 1255.38 258.212 1253.39 263.767C1251.41 269.322 1247.68 274.091 1242.78 277.368C1240.48 278.902 1237.38 278.284 1235.84 275.988C1234.31 273.691 1234.93 270.586 1237.22 269.053C1240.35 266.967 1242.71 263.933 1243.98 260.397C1245.24 256.862 1245.34 253.014 1244.25 249.421C1243.16 245.828 1240.94 242.68 1237.93 240.444C1234.91 238.207 1231.26 237 1227.5 237H1218.55C1216.34 237 1214.39 235.549 1213.76 233.431C1212.46 229.069 1210.18 225.061 1207.1 221.71C1204.02 218.358 1200.21 215.752 1195.98 214.089Z" fill="white"/>
<path fill-rule="evenodd" clip-rule="evenodd" d="M1200 247C1202.76 247 1205 249.239 1205 252V297C1205 299.761 1202.76 302 1200 302C1197.24 302 1195 299.761 1195 297V252C1195 249.239 1197.24 247 1200 247Z" fill="white"/>
<path fill-rule="evenodd" clip-rule="evenodd" d="M1196.46 248.464C1198.42 246.512 1201.58 246.512 1203.54 248.464L1223.54 268.464C1225.49 270.417 1225.49 273.583 1223.54 275.536C1221.58 277.488 1218.42 277.488 1216.46 275.536L1200 259.071L1183.54 275.536C1181.58 277.488 1178.42 277.488 1176.46 275.536C1174.51 273.583 1174.51 270.417 1176.46 268.464L1196.46 248.464Z" fill="white"/>
<path d="M1130.98 372.612C1130.67 371.642 1130.25 370.774 1129.73 370.007C1129.22 369.229 1128.61 368.569 1127.89 368.026C1127.18 367.472 1126.36 367.051 1125.45 366.763C1124.54 366.475 1123.55 366.332 1122.46 366.332C1120.62 366.332 1118.95 366.806 1117.47 367.754C1115.99 368.702 1114.82 370.092 1113.96 371.925C1113.1 373.746 1112.68 375.978 1112.68 378.62C1112.68 381.273 1113.11 383.516 1113.97 385.348C1114.84 387.18 1116.02 388.571 1117.52 389.519C1119.02 390.467 1120.73 390.941 1122.65 390.941C1124.43 390.941 1125.98 390.579 1127.3 389.854C1128.63 389.13 1129.66 388.107 1130.38 386.786C1131.12 385.455 1131.49 383.888 1131.49 382.088L1132.77 382.328H1123.4V378.253H1136.27V381.976C1136.27 384.725 1135.68 387.111 1134.51 389.135C1133.35 391.149 1131.74 392.704 1129.68 393.801C1127.64 394.899 1125.29 395.447 1122.65 395.447C1119.69 395.447 1117.09 394.766 1114.85 393.402C1112.63 392.038 1110.89 390.105 1109.64 387.601C1108.4 385.087 1107.77 382.104 1107.77 378.652C1107.77 376.042 1108.13 373.699 1108.86 371.621C1109.58 369.544 1110.6 367.781 1111.91 366.332C1113.23 364.872 1114.78 363.759 1116.56 362.992C1118.35 362.214 1120.31 361.825 1122.43 361.825C1124.2 361.825 1125.84 362.086 1127.36 362.608C1128.9 363.13 1130.26 363.871 1131.46 364.83C1132.66 365.788 1133.66 366.928 1134.44 368.249C1135.23 369.56 1135.76 371.014 1136.04 372.612H1130.98ZM1149.29 395.543C1147.74 395.543 1146.33 395.256 1145.07 394.68C1143.82 394.094 1142.82 393.248 1142.09 392.14C1141.36 391.032 1141 389.673 1141 388.065C1141 386.68 1141.27 385.54 1141.8 384.645C1142.33 383.75 1143.05 383.042 1143.96 382.52C1144.86 381.998 1145.87 381.603 1146.99 381.337C1148.11 381.071 1149.25 380.868 1150.41 380.73C1151.88 380.559 1153.08 380.421 1153.99 380.314C1154.91 380.197 1155.57 380.011 1155.99 379.755C1156.4 379.499 1156.61 379.084 1156.61 378.509V378.397C1156.61 377.001 1156.22 375.92 1155.43 375.153C1154.65 374.386 1153.49 374.002 1151.95 374.002C1150.34 374.002 1149.07 374.359 1148.14 375.073C1147.23 375.776 1146.59 376.559 1146.24 377.422L1141.75 376.399C1142.28 374.908 1143.06 373.704 1144.08 372.788C1145.12 371.861 1146.3 371.19 1147.65 370.774C1148.99 370.348 1150.4 370.135 1151.88 370.135C1152.86 370.135 1153.9 370.252 1155 370.487C1156.11 370.71 1157.14 371.126 1158.1 371.733C1159.07 372.34 1159.86 373.208 1160.48 374.338C1161.1 375.456 1161.41 376.911 1161.41 378.7V395H1156.74V391.644H1156.55C1156.24 392.262 1155.78 392.869 1155.16 393.466C1154.54 394.062 1153.75 394.558 1152.78 394.952C1151.81 395.346 1150.65 395.543 1149.29 395.543ZM1150.33 391.708C1151.65 391.708 1152.78 391.447 1153.72 390.925C1154.67 390.403 1155.39 389.721 1155.88 388.88C1156.38 388.027 1156.63 387.116 1156.63 386.147V382.983C1156.46 383.153 1156.13 383.313 1155.64 383.462C1155.16 383.601 1154.61 383.723 1153.99 383.83C1153.37 383.926 1152.77 384.016 1152.19 384.102C1151.6 384.176 1151.11 384.24 1150.72 384.293C1149.79 384.411 1148.94 384.608 1148.17 384.885C1147.42 385.162 1146.81 385.561 1146.35 386.083C1145.91 386.594 1145.68 387.276 1145.68 388.129C1145.68 389.311 1146.12 390.206 1146.99 390.813C1147.87 391.41 1148.98 391.708 1150.33 391.708ZM1179.23 370.455V374.29H1165.82V370.455H1179.23ZM1169.42 364.574H1174.19V387.793C1174.19 388.72 1174.33 389.418 1174.61 389.886C1174.89 390.344 1175.24 390.659 1175.68 390.829C1176.13 390.989 1176.61 391.069 1177.13 391.069C1177.52 391.069 1177.85 391.042 1178.14 390.989C1178.43 390.936 1178.65 390.893 1178.81 390.861L1179.68 394.808C1179.4 394.915 1179 395.021 1178.49 395.128C1177.98 395.245 1177.34 395.309 1176.58 395.32C1175.32 395.341 1174.15 395.117 1173.06 394.648C1171.97 394.18 1171.09 393.455 1170.42 392.475C1169.75 391.495 1169.42 390.265 1169.42 388.784V364.574ZM1194.83 395.495C1192.41 395.495 1190.33 394.979 1188.58 393.945C1186.84 392.901 1185.5 391.436 1184.55 389.551C1183.62 387.654 1183.15 385.433 1183.15 382.887C1183.15 380.373 1183.62 378.157 1184.55 376.239C1185.5 374.322 1186.82 372.825 1188.52 371.749C1190.22 370.673 1192.21 370.135 1194.49 370.135C1195.88 370.135 1197.22 370.364 1198.52 370.822C1199.82 371.28 1200.99 371.999 1202.02 372.979C1203.05 373.96 1203.87 375.233 1204.46 376.799C1205.06 378.354 1205.36 380.245 1205.36 382.472V384.165H1185.85V380.586H1200.68C1200.68 379.329 1200.42 378.216 1199.91 377.246C1199.4 376.266 1198.68 375.494 1197.75 374.929C1196.84 374.364 1195.76 374.082 1194.52 374.082C1193.18 374.082 1192.01 374.412 1191.01 375.073C1190.02 375.723 1189.25 376.575 1188.71 377.63C1188.18 378.674 1187.91 379.808 1187.91 381.033V383.83C1187.91 385.471 1188.2 386.866 1188.77 388.017C1189.36 389.167 1190.17 390.046 1191.22 390.653C1192.26 391.25 1193.48 391.548 1194.88 391.548C1195.78 391.548 1196.61 391.42 1197.35 391.165C1198.1 390.898 1198.74 390.504 1199.29 389.982C1199.83 389.46 1200.25 388.816 1200.53 388.049L1205.06 388.864C1204.69 390.195 1204.04 391.362 1203.11 392.363C1202.18 393.354 1201.01 394.126 1199.61 394.68C1198.21 395.224 1196.62 395.495 1194.83 395.495ZM1215.94 395L1208.72 370.455H1213.65L1218.46 388.48H1218.7L1223.53 370.455H1228.47L1233.26 388.4H1233.5L1238.28 370.455H1243.22L1236.01 395H1231.14L1226.15 377.278H1225.78L1220.8 395H1215.94ZM1254.89 395.543C1253.34 395.543 1251.93 395.256 1250.67 394.68C1249.42 394.094 1248.42 393.248 1247.69 392.14C1246.96 391.032 1246.6 389.673 1246.6 388.065C1246.6 386.68 1246.87 385.54 1247.4 384.645C1247.93 383.75 1248.65 383.042 1249.56 382.52C1250.46 381.998 1251.47 381.603 1252.59 381.337C1253.71 381.071 1254.85 380.868 1256.01 380.73C1257.48 380.559 1258.68 380.421 1259.59 380.314C1260.51 380.197 1261.17 380.011 1261.59 379.755C1262 379.499 1262.21 379.084 1262.21 378.509V378.397C1262.21 377.001 1261.82 375.92 1261.03 375.153C1260.25 374.386 1259.09 374.002 1257.55 374.002C1255.94 374.002 1254.67 374.359 1253.74 375.073C1252.83 375.776 1252.19 376.559 1251.84 377.422L1247.35 376.399C1247.88 374.908 1248.66 373.704 1249.68 372.788C1250.72 371.861 1251.91 371.19 1253.25 370.774C1254.59 370.348 1256 370.135 1257.48 370.135C1258.46 370.135 1259.5 370.252 1260.6 370.487C1261.71 370.71 1262.74 371.126 1263.7 371.733C1264.67 372.34 1265.46 373.208 1266.08 374.338C1266.7 375.456 1267.01 376.911 1267.01 378.7V395H1262.34V391.644H1262.15C1261.84 392.262 1261.38 392.869 1260.76 393.466C1260.14 394.062 1259.35 394.558 1258.38 394.952C1257.41 395.346 1256.25 395.543 1254.89 395.543ZM1255.93 391.708C1257.25 391.708 1258.38 391.447 1259.32 390.925C1260.27 390.403 1260.99 389.721 1261.48 388.88C1261.98 388.027 1262.23 387.116 1262.23 386.147V382.983C1262.06 383.153 1261.73 383.313 1261.24 383.462C1260.76 383.601 1260.21 383.723 1259.59 383.83C1258.97 383.926 1258.37 384.016 1257.79 384.102C1257.2 384.176 1256.71 384.24 1256.32 384.293C1255.39 384.411 1254.54 384.608 1253.78 384.885C1253.02 385.162 1252.41 385.561 1251.95 386.083C1251.51 386.594 1251.28 387.276 1251.28 388.129C1251.28 389.311 1251.72 390.206 1252.59 390.813C1253.47 391.41 1254.58 391.708 1255.93 391.708ZM1275.51 404.205C1274.8 404.205 1274.15 404.146 1273.56 404.029C1272.98 403.922 1272.54 403.805 1272.25 403.677L1273.4 399.762C1274.28 399.996 1275.05 400.098 1275.74 400.066C1276.42 400.034 1277.02 399.778 1277.54 399.299C1278.07 398.819 1278.54 398.036 1278.95 396.95L1279.54 395.32L1270.56 370.455H1275.67L1281.89 389.503H1282.14L1288.36 370.455H1293.49L1283.37 398.276C1282.91 399.554 1282.31 400.636 1281.58 401.52C1280.86 402.415 1280 403.086 1279 403.533C1277.99 403.981 1276.83 404.205 1275.51 404.205Z" fill="white"/>
<rect x="205.143" y="93.5" width="397" height="411" rx="32" fill="url(#paint1_linear_3655_1858)"/>
<path fill-rule="evenodd" clip-rule="evenodd" d="M370.965 269.322C375.654 264.634 382.012 262 388.643 262H418.643C425.273 262 431.632 264.634 436.32 269.322C441.009 274.011 443.643 280.37 443.643 287V297C443.643 299.761 441.404 302 438.643 302C435.881 302 433.643 299.761 433.643 297V287C433.643 283.022 432.062 279.206 429.249 276.393C426.436 273.58 422.621 272 418.643 272H388.643C384.665 272 380.849 273.58 378.036 276.393C375.223 279.206 373.643 283.022 373.643 287V297C373.643 299.761 371.404 302 368.643 302C365.881 302 363.643 299.761 363.643 297V287C363.643 280.37 366.277 274.011 370.965 269.322Z" fill="white"/>
<path fill-rule="evenodd" clip-rule="evenodd" d="M403.643 212C395.359 212 388.643 218.716 388.643 227C388.643 235.284 395.359 242 403.643 242C411.927 242 418.643 235.284 418.643 227C418.643 218.716 411.927 212 403.643 212ZM378.643 227C378.643 213.193 389.836 202 403.643 202C417.45 202 428.643 213.193 428.643 227C428.643 240.807 417.45 252 403.643 252C389.836 252 378.643 240.807 378.643 227Z" fill="white"/>
<path d="M377.791 362.273H382.745V383.798C382.745 386.088 382.207 388.118 381.131 389.886C380.055 391.644 378.542 393.029 376.592 394.041C374.643 395.043 372.358 395.543 369.737 395.543C367.127 395.543 364.847 395.043 362.898 394.041C360.948 393.029 359.435 391.644 358.359 389.886C357.283 388.118 356.745 386.088 356.745 383.798V362.273H361.683V383.398C361.683 384.879 362.008 386.195 362.658 387.346C363.318 388.496 364.251 389.402 365.454 390.062C366.658 390.712 368.086 391.037 369.737 391.037C371.399 391.037 372.832 390.712 374.036 390.062C375.25 389.402 376.177 388.496 376.816 387.346C377.466 386.195 377.791 384.879 377.791 383.398V362.273ZM407.933 376.447L403.603 377.214C403.422 376.66 403.134 376.133 402.74 375.632C402.356 375.131 401.834 374.721 401.174 374.402C400.513 374.082 399.688 373.922 398.697 373.922C397.344 373.922 396.215 374.226 395.309 374.833C394.404 375.43 393.951 376.202 393.951 377.15C393.951 377.971 394.255 378.631 394.862 379.132C395.469 379.632 396.449 380.043 397.802 380.362L401.701 381.257C403.96 381.779 405.643 382.583 406.751 383.67C407.859 384.757 408.413 386.168 408.413 387.905C408.413 389.375 407.987 390.685 407.134 391.836C406.293 392.976 405.116 393.871 403.603 394.521C402.101 395.17 400.359 395.495 398.377 395.495C395.629 395.495 393.386 394.909 391.65 393.738C389.913 392.555 388.848 390.877 388.454 388.704L393.072 388.001C393.36 389.205 393.951 390.115 394.846 390.733C395.741 391.341 396.907 391.644 398.345 391.644C399.911 391.644 401.163 391.319 402.101 390.669C403.038 390.009 403.507 389.205 403.507 388.256C403.507 387.489 403.219 386.845 402.644 386.323C402.079 385.801 401.211 385.407 400.039 385.14L395.884 384.229C393.594 383.707 391.9 382.876 390.803 381.737C389.716 380.597 389.173 379.153 389.173 377.406C389.173 375.957 389.578 374.689 390.387 373.603C391.197 372.516 392.316 371.669 393.743 371.062C395.171 370.444 396.806 370.135 398.649 370.135C401.302 370.135 403.39 370.71 404.913 371.861C406.437 373.001 407.443 374.529 407.933 376.447ZM424.245 395.495C421.827 395.495 419.744 394.979 417.997 393.945C416.26 392.901 414.918 391.436 413.97 389.551C413.032 387.654 412.564 385.433 412.564 382.887C412.564 380.373 413.032 378.157 413.97 376.239C414.918 374.322 416.239 372.825 417.933 371.749C419.638 370.673 421.63 370.135 423.91 370.135C425.295 370.135 426.637 370.364 427.937 370.822C429.236 371.28 430.403 371.999 431.436 372.979C432.47 373.96 433.285 375.233 433.881 376.799C434.478 378.354 434.776 380.245 434.776 382.472V384.165H415.264V380.586H430.094C430.094 379.329 429.838 378.216 429.327 377.246C428.815 376.266 428.096 375.494 427.17 374.929C426.253 374.364 425.177 374.082 423.942 374.082C422.599 374.082 421.427 374.412 420.426 375.073C419.435 375.723 418.668 376.575 418.125 377.63C417.592 378.674 417.326 379.808 417.326 381.033V383.83C417.326 385.471 417.613 386.866 418.189 388.017C418.775 389.167 419.59 390.046 420.634 390.653C421.678 391.25 422.898 391.548 424.293 391.548C425.199 391.548 426.024 391.42 426.77 391.165C427.516 390.898 428.16 390.504 428.704 389.982C429.247 389.46 429.662 388.816 429.95 388.049L434.472 388.864C434.11 390.195 433.46 391.362 432.523 392.363C431.596 393.354 430.429 394.126 429.023 394.68C427.628 395.224 426.035 395.495 424.245 395.495ZM440.077 395V370.455H444.696V374.354H444.951C445.399 373.033 446.187 371.994 447.316 371.238C448.456 370.471 449.745 370.087 451.184 370.087C451.482 370.087 451.834 370.098 452.238 370.119C452.654 370.14 452.979 370.167 453.213 370.199V374.769C453.021 374.716 452.68 374.657 452.19 374.593C451.7 374.519 451.21 374.482 450.72 374.482C449.591 374.482 448.584 374.721 447.7 375.201C446.826 375.669 446.134 376.325 445.623 377.166C445.111 377.997 444.856 378.945 444.856 380.011V395H440.077Z" fill="white"/>
<rect x="1797.86" y="93.5" width="397" height="411" rx="32" fill="url(#paint2_linear_3655_1858)"/>
<path fill-rule="evenodd" clip-rule="evenodd" d="M1956.36 190L1956.36 190L1956.36 190C1956.36 190.005 1956.36 190.026 1956.37 190.076C1956.39 190.132 1956.43 190.242 1956.53 190.407C1956.74 190.753 1957.18 191.273 1957.99 191.912C1959.64 193.213 1962.34 194.603 1966.12 195.863C1973.63 198.366 1984.32 200 1996.36 200C2008.4 200 2019.09 198.366 2026.6 195.863C2030.38 194.603 2033.08 193.213 2034.73 191.912C2035.54 191.273 2035.97 190.753 2036.18 190.407C2036.28 190.242 2036.32 190.132 2036.34 190.076C2036.36 190.026 2036.36 190.005 2036.36 190V190C2036.36 189.996 2036.36 189.975 2036.34 189.924C2036.32 189.868 2036.28 189.758 2036.18 189.593C2035.97 189.247 2035.54 188.727 2034.73 188.088C2033.08 186.787 2030.38 185.397 2026.6 184.137C2019.09 181.634 2008.4 180 1996.36 180C1984.32 180 1973.63 181.634 1966.12 184.137C1962.34 185.397 1959.64 186.787 1957.99 188.088C1957.18 188.727 1956.74 189.247 1956.53 189.593C1956.43 189.758 1956.39 189.868 1956.37 189.924C1956.36 189.974 1956.36 189.995 1956.36 190ZM1962.96 174.65C1971.73 171.724 1983.54 170 1996.36 170C2009.17 170 2020.98 171.724 2029.76 174.65C2034.12 176.104 2038.01 177.946 2040.92 180.234C2043.76 182.478 2046.36 185.74 2046.36 190C2046.36 194.26 2043.76 197.522 2040.92 199.766C2038.01 202.054 2034.12 203.896 2029.76 205.35C2020.98 208.276 2009.17 210 1996.36 210C1983.54 210 1971.73 208.276 1962.96 205.35C1958.59 203.896 1954.7 202.054 1951.8 199.766C1948.95 197.522 1946.36 194.26 1946.36 190C1946.36 185.74 1948.95 182.478 1951.8 180.234C1954.7 177.946 1958.59 176.104 1962.96 174.65Z" fill="white"/>
<path fill-rule="evenodd" clip-rule="evenodd" d="M1951.36 185C1954.12 185 1956.36 187.239 1956.36 190V260L1956.36 260.001L1956.36 260.008C1956.36 260.014 1956.36 260.03 1956.37 260.055C1956.38 260.106 1956.42 260.21 1956.52 260.369C1956.72 260.7 1957.13 261.211 1957.92 261.845C1959.52 263.137 1962.21 264.56 1966.12 265.863C1973.91 268.459 1984.79 270 1996.36 270C2007.93 270 2018.81 268.459 2026.6 265.863C2030.51 264.56 2033.19 263.137 2034.8 261.845C2035.59 261.211 2036 260.7 2036.2 260.369C2036.29 260.21 2036.33 260.106 2036.35 260.055C2036.35 260.03 2036.36 260.014 2036.36 260.008L2036.36 260.001L2036.36 260V190C2036.36 187.239 2038.6 185 2041.36 185C2044.12 185 2046.36 187.239 2046.36 190V260C2046.36 264.126 2043.9 267.359 2041.07 269.636C2038.19 271.949 2034.29 273.841 2029.76 275.35C2020.67 278.38 2008.66 280 1996.36 280C1984.06 280 1972.05 278.38 1962.96 275.35C1958.43 273.841 1954.52 271.949 1951.65 269.636C1948.82 267.359 1946.36 264.126 1946.36 260V190C1946.36 187.239 1948.6 185 1951.36 185Z" fill="white"/>
<path fill-rule="evenodd" clip-rule="evenodd" d="M1951.36 220C1954.12 220 1956.36 222.239 1956.36 225L1956.36 225.001L1956.36 225.008C1956.36 225.014 1956.36 225.03 1956.37 225.055C1956.38 225.106 1956.42 225.21 1956.52 225.369C1956.72 225.7 1957.13 226.211 1957.92 226.845C1959.52 228.137 1962.21 229.56 1966.12 230.863C1973.91 233.459 1984.79 235 1996.36 235C2007.93 235 2018.81 233.459 2026.6 230.863C2030.51 229.56 2033.19 228.137 2034.8 226.845C2035.59 226.211 2036 225.7 2036.2 225.369C2036.29 225.21 2036.33 225.106 2036.35 225.055C2036.35 225.03 2036.36 225.014 2036.36 225.008L2036.36 225.001L2036.36 225C2036.36 222.239 2038.6 220 2041.36 220C2044.12 220 2046.36 222.239 2046.36 225C2046.36 229.126 2043.9 232.359 2041.07 234.636C2038.19 236.949 2034.29 238.841 2029.76 240.35C2020.67 243.38 2008.66 245 1996.36 245C1984.06 245 1972.05 243.38 1962.96 240.35C1958.43 238.841 1954.52 236.949 1951.65 234.636C1948.82 232.359 1946.36 229.126 1946.36 225C1946.36 222.239 1948.6 220 1951.36 220Z" fill="white"/>
<path d="M1861.42 368H1850.82V335.273H1861.75C1864.96 335.273 1867.72 335.928 1870.02 337.238C1872.32 338.538 1874.08 340.408 1875.31 342.847C1876.54 345.276 1877.16 348.19 1877.16 351.588C1877.16 354.998 1876.54 357.927 1875.29 360.377C1874.05 362.828 1872.26 364.713 1869.92 366.034C1867.58 367.345 1864.74 368 1861.42 368ZM1855.76 363.685H1861.15C1863.64 363.685 1865.71 363.217 1867.36 362.279C1869.01 361.331 1870.25 359.962 1871.07 358.172C1871.89 356.372 1872.3 354.177 1872.3 351.588C1872.3 349.021 1871.89 346.842 1871.07 345.053C1870.26 343.263 1869.05 341.904 1867.44 340.978C1865.83 340.051 1863.84 339.587 1861.45 339.587H1855.76V363.685ZM1893.5 368.495C1891.08 368.495 1888.99 367.979 1887.25 366.945C1885.51 365.901 1884.17 364.436 1883.22 362.551C1882.28 360.654 1881.81 358.433 1881.81 355.887C1881.81 353.373 1882.28 351.157 1883.22 349.239C1884.17 347.322 1885.49 345.825 1887.18 344.749C1888.89 343.673 1890.88 343.135 1893.16 343.135C1894.54 343.135 1895.89 343.364 1897.19 343.822C1898.49 344.28 1899.65 344.999 1900.69 345.979C1901.72 346.96 1902.53 348.233 1903.13 349.799C1903.73 351.354 1904.03 353.245 1904.03 355.472V357.165H1884.51V353.586H1899.34C1899.34 352.329 1899.09 351.216 1898.58 350.246C1898.07 349.266 1897.35 348.494 1896.42 347.929C1895.5 347.364 1894.43 347.082 1893.19 347.082C1891.85 347.082 1890.68 347.412 1889.68 348.073C1888.69 348.723 1887.92 349.575 1887.37 350.63C1886.84 351.674 1886.58 352.808 1886.58 354.033V356.83C1886.58 358.471 1886.86 359.866 1887.44 361.017C1888.02 362.167 1888.84 363.046 1889.88 363.653C1890.93 364.25 1892.15 364.548 1893.54 364.548C1894.45 364.548 1895.27 364.42 1896.02 364.165C1896.77 363.898 1897.41 363.504 1897.95 362.982C1898.5 362.46 1898.91 361.816 1899.2 361.049L1903.72 361.864C1903.36 363.195 1902.71 364.362 1901.77 365.363C1900.85 366.354 1899.68 367.126 1898.27 367.68C1896.88 368.224 1895.28 368.495 1893.5 368.495ZM1919.67 368.495C1917.29 368.495 1915.25 367.957 1913.53 366.881C1911.83 365.795 1910.52 364.298 1909.6 362.391C1908.68 360.484 1908.22 358.3 1908.22 355.839C1908.22 353.346 1908.69 351.146 1909.63 349.239C1910.57 347.322 1911.89 345.825 1913.59 344.749C1915.3 343.673 1917.31 343.135 1919.62 343.135C1921.48 343.135 1923.14 343.481 1924.6 344.174C1926.06 344.855 1927.24 345.814 1928.14 347.05C1929.04 348.286 1929.58 349.729 1929.75 351.381H1925.1C1924.84 350.23 1924.26 349.239 1923.34 348.408C1922.44 347.577 1921.22 347.162 1919.7 347.162C1918.37 347.162 1917.2 347.513 1916.2 348.217C1915.21 348.909 1914.44 349.9 1913.88 351.189C1913.33 352.467 1913.05 353.98 1913.05 355.727C1913.05 357.517 1913.32 359.062 1913.87 360.362C1914.41 361.661 1915.18 362.668 1916.17 363.382C1917.17 364.096 1918.35 364.452 1919.7 364.452C1920.6 364.452 1921.42 364.287 1922.16 363.957C1922.91 363.616 1923.53 363.131 1924.03 362.503C1924.54 361.874 1924.9 361.118 1925.1 360.234H1929.75C1929.58 361.821 1929.06 363.238 1928.2 364.484C1927.34 365.731 1926.18 366.711 1924.73 367.425C1923.29 368.138 1921.61 368.495 1919.67 368.495ZM1945.44 368.495C1943.02 368.495 1940.94 367.979 1939.19 366.945C1937.45 365.901 1936.11 364.436 1935.16 362.551C1934.23 360.654 1933.76 358.433 1933.76 355.887C1933.76 353.373 1934.23 351.157 1935.16 349.239C1936.11 347.322 1937.43 345.825 1939.13 344.749C1940.83 343.673 1942.82 343.135 1945.1 343.135C1946.49 343.135 1947.83 343.364 1949.13 343.822C1950.43 344.28 1951.6 344.999 1952.63 345.979C1953.66 346.96 1954.48 348.233 1955.07 349.799C1955.67 351.354 1955.97 353.245 1955.97 355.472V357.165H1936.46V353.586H1951.29C1951.29 352.329 1951.03 351.216 1950.52 350.246C1950.01 349.266 1949.29 348.494 1948.36 347.929C1947.45 347.364 1946.37 347.082 1945.13 347.082C1943.79 347.082 1942.62 347.412 1941.62 348.073C1940.63 348.723 1939.86 349.575 1939.32 350.63C1938.79 351.674 1938.52 352.808 1938.52 354.033V356.83C1938.52 358.471 1938.81 359.866 1939.38 361.017C1939.97 362.167 1940.78 363.046 1941.83 363.653C1942.87 364.25 1944.09 364.548 1945.49 364.548C1946.39 364.548 1947.22 364.42 1947.96 364.165C1948.71 363.898 1949.35 363.504 1949.9 362.982C1950.44 362.46 1950.86 361.816 1951.14 361.049L1955.67 361.864C1955.3 363.195 1954.65 364.362 1953.72 365.363C1952.79 366.354 1951.62 367.126 1950.22 367.68C1948.82 368.224 1947.23 368.495 1945.44 368.495ZM1966.05 353.426V368H1961.27V343.455H1965.86V347.45H1966.16C1966.73 346.15 1967.61 345.106 1968.81 344.317C1970.03 343.529 1971.56 343.135 1973.4 343.135C1975.07 343.135 1976.54 343.487 1977.79 344.19C1979.05 344.882 1980.03 345.915 1980.72 347.29C1981.41 348.664 1981.76 350.363 1981.76 352.387V368H1976.98V352.963C1976.98 351.184 1976.52 349.793 1975.59 348.792C1974.66 347.78 1973.39 347.274 1971.77 347.274C1970.66 347.274 1969.68 347.513 1968.81 347.993C1967.96 348.472 1967.28 349.175 1966.78 350.102C1966.29 351.018 1966.05 352.126 1966.05 353.426ZM1999.62 343.455V347.29H1986.22V343.455H1999.62ZM1989.81 337.574H1994.59V360.793C1994.59 361.72 1994.73 362.418 1995 362.886C1995.28 363.344 1995.64 363.659 1996.08 363.829C1996.52 363.989 1997.01 364.069 1997.53 364.069C1997.91 364.069 1998.25 364.042 1998.54 363.989C1998.82 363.936 1999.05 363.893 1999.21 363.861L2000.07 367.808C1999.79 367.915 1999.4 368.021 1998.89 368.128C1998.38 368.245 1997.74 368.309 1996.97 368.32C1995.71 368.341 1994.54 368.117 1993.45 367.648C1992.37 367.18 1991.49 366.455 1990.82 365.475C1990.15 364.495 1989.81 363.265 1989.81 361.784V337.574ZM2004.91 368V343.455H2009.53V347.354H2009.78C2010.23 346.033 2011.02 344.994 2012.15 344.238C2013.29 343.471 2014.58 343.087 2016.01 343.087C2016.31 343.087 2016.66 343.098 2017.07 343.119C2017.48 343.14 2017.81 343.167 2018.04 343.199V347.769C2017.85 347.716 2017.51 347.657 2017.02 347.593C2016.53 347.519 2016.04 347.482 2015.55 347.482C2014.42 347.482 2013.42 347.721 2012.53 348.201C2011.66 348.669 2010.96 349.325 2010.45 350.166C2009.94 350.997 2009.69 351.945 2009.69 353.011V368H2004.91ZM2029.1 368.543C2027.55 368.543 2026.14 368.256 2024.88 367.68C2023.63 367.094 2022.63 366.248 2021.9 365.14C2021.17 364.032 2020.81 362.673 2020.81 361.065C2020.81 359.68 2021.08 358.54 2021.61 357.645C2022.14 356.75 2022.86 356.042 2023.77 355.52C2024.67 354.998 2025.68 354.603 2026.8 354.337C2027.92 354.071 2029.06 353.868 2030.22 353.73C2031.69 353.559 2032.88 353.421 2033.8 353.314C2034.72 353.197 2035.38 353.011 2035.8 352.755C2036.21 352.499 2036.42 352.084 2036.42 351.509V351.397C2036.42 350.001 2036.03 348.92 2035.24 348.153C2034.46 347.386 2033.3 347.002 2031.76 347.002C2030.15 347.002 2028.88 347.359 2027.95 348.073C2027.04 348.776 2026.4 349.559 2026.05 350.422L2021.56 349.399C2022.09 347.908 2022.87 346.704 2023.89 345.788C2024.93 344.861 2026.11 344.19 2027.46 343.774C2028.8 343.348 2030.21 343.135 2031.69 343.135C2032.67 343.135 2033.71 343.252 2034.81 343.487C2035.92 343.71 2036.95 344.126 2037.91 344.733C2038.88 345.34 2039.67 346.208 2040.29 347.338C2040.91 348.456 2041.22 349.911 2041.22 351.7V368H2036.55V364.644H2036.36C2036.05 365.262 2035.59 365.869 2034.97 366.466C2034.35 367.062 2033.56 367.558 2032.59 367.952C2031.62 368.346 2030.46 368.543 2029.1 368.543ZM2030.14 364.708C2031.46 364.708 2032.59 364.447 2033.53 363.925C2034.48 363.403 2035.2 362.721 2035.69 361.88C2036.19 361.027 2036.44 360.116 2036.44 359.147V355.983C2036.27 356.153 2035.94 356.313 2035.45 356.462C2034.97 356.601 2034.42 356.723 2033.8 356.83C2033.18 356.926 2032.58 357.016 2031.99 357.102C2031.41 357.176 2030.92 357.24 2030.52 357.293C2029.6 357.411 2028.75 357.608 2027.98 357.885C2027.23 358.162 2026.62 358.561 2026.16 359.083C2025.71 359.594 2025.49 360.276 2025.49 361.129C2025.49 362.311 2025.93 363.206 2026.8 363.813C2027.67 364.41 2028.79 364.708 2030.14 364.708ZM2052.36 335.273V368H2047.58V335.273H2052.36ZM2058.79 368V343.455H2063.56V368H2058.79ZM2061.2 339.667C2060.37 339.667 2059.65 339.39 2059.06 338.836C2058.47 338.272 2058.18 337.6 2058.18 336.823C2058.18 336.034 2058.47 335.363 2059.06 334.809C2059.65 334.245 2060.37 333.962 2061.2 333.962C2062.03 333.962 2062.74 334.245 2063.32 334.809C2063.92 335.363 2064.22 336.034 2064.22 336.823C2064.22 337.6 2063.92 338.272 2063.32 338.836C2062.74 339.39 2062.03 339.667 2061.2 339.667ZM2069.48 368V364.724L2082.78 347.833V347.609H2069.91V343.455H2088.74V346.938L2075.95 363.621V363.845H2089.18V368H2069.48ZM2104.7 368.495C2102.28 368.495 2100.2 367.979 2098.45 366.945C2096.71 365.901 2095.37 364.436 2094.42 362.551C2093.48 360.654 2093.01 358.433 2093.01 355.887C2093.01 353.373 2093.48 351.157 2094.42 349.239C2095.37 347.322 2096.69 345.825 2098.38 344.749C2100.09 343.673 2102.08 343.135 2104.36 343.135C2105.75 343.135 2107.09 343.364 2108.39 343.822C2109.69 344.28 2110.85 344.999 2111.89 345.979C2112.92 346.96 2113.74 348.233 2114.33 349.799C2114.93 351.354 2115.23 353.245 2115.23 355.472V357.165H2095.72V353.586H2110.55C2110.55 352.329 2110.29 351.216 2109.78 350.246C2109.27 349.266 2108.55 348.494 2107.62 347.929C2106.7 347.364 2105.63 347.082 2104.39 347.082C2103.05 347.082 2101.88 347.412 2100.88 348.073C2099.89 348.723 2099.12 349.575 2098.58 350.63C2098.04 351.674 2097.78 352.808 2097.78 354.033V356.83C2097.78 358.471 2098.06 359.866 2098.64 361.017C2099.23 362.167 2100.04 363.046 2101.08 363.653C2102.13 364.25 2103.35 364.548 2104.74 364.548C2105.65 364.548 2106.48 364.42 2107.22 364.165C2107.97 363.898 2108.61 363.504 2109.15 362.982C2109.7 362.46 2110.11 361.816 2110.4 361.049L2114.92 361.864C2114.56 363.195 2113.91 364.362 2112.97 365.363C2112.05 366.354 2110.88 367.126 2109.47 367.68C2108.08 368.224 2106.49 368.495 2104.7 368.495ZM2129.72 368.479C2127.74 368.479 2125.97 367.973 2124.41 366.961C2122.87 365.939 2121.65 364.484 2120.77 362.599C2119.89 360.702 2119.46 358.428 2119.46 355.775C2119.46 353.123 2119.9 350.853 2120.78 348.968C2121.68 347.082 2122.9 345.638 2124.46 344.637C2126.02 343.636 2127.78 343.135 2129.75 343.135C2131.27 343.135 2132.5 343.391 2133.42 343.902C2134.36 344.403 2135.09 344.989 2135.6 345.66C2136.12 346.331 2136.52 346.922 2136.81 347.434H2137.1V335.273H2141.88V368H2137.21V364.181H2136.81C2136.52 364.703 2136.11 365.299 2135.57 365.971C2135.03 366.642 2134.3 367.228 2133.36 367.728C2132.42 368.229 2131.21 368.479 2129.72 368.479ZM2130.77 364.404C2132.15 364.404 2133.31 364.042 2134.26 363.318C2135.21 362.583 2135.94 361.565 2136.43 360.266C2136.93 358.966 2137.18 357.453 2137.18 355.727C2137.18 354.023 2136.93 352.531 2136.44 351.253C2135.95 349.974 2135.24 348.978 2134.29 348.265C2133.34 347.551 2132.17 347.194 2130.77 347.194C2129.33 347.194 2128.14 347.567 2127.18 348.312C2126.22 349.058 2125.49 350.076 2125 351.365C2124.52 352.654 2124.28 354.108 2124.28 355.727C2124.28 357.368 2124.53 358.843 2125.02 360.154C2125.51 361.464 2126.23 362.503 2127.19 363.27C2128.16 364.026 2129.36 364.404 2130.77 364.404ZM1933.1 397.87C1932.93 396.357 1932.22 395.185 1930.99 394.354C1929.75 393.513 1928.2 393.092 1926.32 393.092C1924.98 393.092 1923.82 393.305 1922.84 393.731C1921.86 394.147 1921.1 394.722 1920.55 395.457C1920.02 396.181 1919.75 397.007 1919.75 397.934C1919.75 398.712 1919.94 399.383 1920.3 399.947C1920.67 400.512 1921.16 400.986 1921.75 401.37C1922.36 401.743 1923.01 402.057 1923.7 402.312C1924.39 402.558 1925.06 402.76 1925.7 402.92L1928.9 403.751C1929.94 404.006 1931.01 404.353 1932.11 404.789C1933.2 405.226 1934.22 405.801 1935.16 406.515C1936.1 407.229 1936.85 408.113 1937.43 409.168C1938.01 410.223 1938.31 411.485 1938.31 412.955C1938.31 414.809 1937.83 416.455 1936.87 417.893C1935.92 419.331 1934.54 420.466 1932.73 421.297C1930.93 422.128 1928.75 422.543 1926.19 422.543C1923.74 422.543 1921.62 422.154 1919.83 421.377C1918.04 420.599 1916.64 419.496 1915.63 418.069C1914.62 416.631 1914.06 414.926 1913.95 412.955H1918.91C1919 414.138 1919.39 415.123 1920.06 415.912C1920.74 416.689 1921.61 417.27 1922.66 417.653C1923.73 418.026 1924.89 418.213 1926.16 418.213C1927.56 418.213 1928.8 417.994 1929.89 417.558C1930.98 417.11 1931.85 416.492 1932.47 415.704C1933.1 414.905 1933.42 413.973 1933.42 412.907C1933.42 411.938 1933.14 411.144 1932.59 410.526C1932.04 409.908 1931.3 409.397 1930.37 408.992C1929.44 408.587 1928.39 408.23 1927.22 407.922L1923.35 406.867C1920.73 406.153 1918.65 405.104 1917.12 403.719C1915.59 402.334 1914.83 400.501 1914.83 398.222C1914.83 396.336 1915.34 394.69 1916.37 393.284C1917.39 391.877 1918.77 390.786 1920.52 390.008C1922.27 389.219 1924.24 388.825 1926.43 388.825C1928.65 388.825 1930.61 389.214 1932.3 389.992C1934 390.77 1935.35 391.84 1936.33 393.204C1937.31 394.557 1937.82 396.112 1937.86 397.87H1933.1ZM1955.28 397.455V401.29H1941.87V397.455H1955.28ZM1945.47 391.574H1950.25V414.793C1950.25 415.72 1950.39 416.418 1950.66 416.886C1950.94 417.344 1951.3 417.659 1951.73 417.829C1952.18 417.989 1952.67 418.069 1953.19 418.069C1953.57 418.069 1953.91 418.042 1954.2 417.989C1954.48 417.936 1954.71 417.893 1954.87 417.861L1955.73 421.808C1955.45 421.915 1955.06 422.021 1954.55 422.128C1954.04 422.245 1953.4 422.309 1952.63 422.32C1951.37 422.341 1950.2 422.117 1949.11 421.648C1948.03 421.18 1947.15 420.455 1946.48 419.475C1945.81 418.495 1945.47 417.265 1945.47 415.784V391.574ZM1970.64 422.495C1968.34 422.495 1966.33 421.968 1964.62 420.913C1962.9 419.859 1961.57 418.383 1960.62 416.487C1959.68 414.591 1959.2 412.375 1959.2 409.839C1959.2 407.293 1959.68 405.066 1960.62 403.159C1961.57 401.252 1962.9 399.772 1964.62 398.717C1966.33 397.662 1968.34 397.135 1970.64 397.135C1972.94 397.135 1974.95 397.662 1976.67 398.717C1978.38 399.772 1979.71 401.252 1980.66 403.159C1981.61 405.066 1982.08 407.293 1982.08 409.839C1982.08 412.375 1981.61 414.591 1980.66 416.487C1979.71 418.383 1978.38 419.859 1976.67 420.913C1974.95 421.968 1972.94 422.495 1970.64 422.495ZM1970.66 418.484C1972.15 418.484 1973.39 418.09 1974.37 417.302C1975.35 416.513 1976.07 415.464 1976.54 414.154C1977.02 412.843 1977.26 411.4 1977.26 409.823C1977.26 408.257 1977.02 406.819 1976.54 405.509C1976.07 404.187 1975.35 403.127 1974.37 402.328C1973.39 401.529 1972.15 401.13 1970.66 401.13C1969.16 401.13 1967.91 401.529 1966.92 402.328C1965.94 403.127 1965.21 404.187 1964.73 405.509C1964.26 406.819 1964.03 408.257 1964.03 409.823C1964.03 411.4 1964.26 412.843 1964.73 414.154C1965.21 415.464 1965.94 416.513 1966.92 417.302C1967.91 418.09 1969.16 418.484 1970.66 418.484ZM1987.42 422V397.455H1992.04V401.354H1992.29C1992.74 400.033 1993.53 398.994 1994.66 398.238C1995.8 397.471 1997.09 397.087 1998.52 397.087C1998.82 397.087 1999.17 397.098 1999.58 397.119C1999.99 397.14 2000.32 397.167 2000.55 397.199V401.769C2000.36 401.716 2000.02 401.657 1999.53 401.593C1999.04 401.519 1998.55 401.482 1998.06 401.482C1996.93 401.482 1995.93 401.721 1995.04 402.201C1994.17 402.669 1993.47 403.325 1992.96 404.166C1992.45 404.997 1992.2 405.945 1992.2 407.011V422H1987.42ZM2011.61 422.543C2010.06 422.543 2008.65 422.256 2007.39 421.68C2006.14 421.094 2005.14 420.248 2004.41 419.14C2003.68 418.032 2003.32 416.673 2003.32 415.065C2003.32 413.68 2003.58 412.54 2004.12 411.645C2004.65 410.75 2005.37 410.042 2006.27 409.52C2007.18 408.998 2008.19 408.603 2009.31 408.337C2010.43 408.071 2011.57 407.868 2012.73 407.73C2014.2 407.559 2015.39 407.421 2016.31 407.314C2017.23 407.197 2017.89 407.011 2018.31 406.755C2018.72 406.499 2018.93 406.084 2018.93 405.509V405.397C2018.93 404.001 2018.54 402.92 2017.75 402.153C2016.97 401.386 2015.81 401.002 2014.26 401.002C2012.66 401.002 2011.39 401.359 2010.46 402.073C2009.55 402.776 2008.91 403.559 2008.56 404.422L2004.07 403.399C2004.6 401.908 2005.38 400.704 2006.4 399.788C2007.44 398.861 2008.62 398.19 2009.97 397.774C2011.31 397.348 2012.72 397.135 2014.2 397.135C2015.18 397.135 2016.22 397.252 2017.32 397.487C2018.43 397.71 2019.46 398.126 2020.42 398.733C2021.39 399.34 2022.18 400.208 2022.8 401.338C2023.42 402.456 2023.73 403.911 2023.73 405.7V422H2019.06V418.644H2018.87C2018.56 419.262 2018.09 419.869 2017.48 420.466C2016.86 421.062 2016.07 421.558 2015.1 421.952C2014.13 422.346 2012.97 422.543 2011.61 422.543ZM2012.65 418.708C2013.97 418.708 2015.1 418.447 2016.04 417.925C2016.99 417.403 2017.71 416.721 2018.2 415.88C2018.7 415.027 2018.95 414.116 2018.95 413.147V409.983C2018.78 410.153 2018.45 410.313 2017.96 410.462C2017.48 410.601 2016.93 410.723 2016.31 410.83C2015.69 410.926 2015.09 411.016 2014.5 411.102C2013.92 411.176 2013.43 411.24 2013.03 411.293C2012.11 411.411 2011.26 411.608 2010.49 411.885C2009.74 412.162 2009.13 412.561 2008.67 413.083C2008.22 413.594 2008 414.276 2008 415.129C2008 416.311 2008.44 417.206 2009.31 417.813C2010.18 418.41 2011.3 418.708 2012.65 418.708ZM2040.38 431.716C2038.43 431.716 2036.75 431.46 2035.35 430.949C2033.95 430.438 2032.81 429.761 2031.93 428.919C2031.04 428.078 2030.38 427.156 2029.95 426.155L2034.05 424.461C2034.34 424.93 2034.72 425.425 2035.2 425.947C2035.69 426.48 2036.35 426.933 2037.18 427.305C2038.03 427.678 2039.11 427.865 2040.43 427.865C2042.24 427.865 2043.74 427.423 2044.92 426.538C2046.1 425.665 2046.69 424.269 2046.69 422.352V417.526H2046.39C2046.1 418.048 2045.69 418.628 2045.14 419.267C2044.61 419.907 2043.87 420.461 2042.94 420.929C2042 421.398 2040.78 421.632 2039.28 421.632C2037.34 421.632 2035.59 421.18 2034.04 420.274C2032.49 419.358 2031.27 418.01 2030.36 416.231C2029.47 414.441 2029.02 412.241 2029.02 409.631C2029.02 407.021 2029.46 404.784 2030.34 402.92C2031.24 401.055 2032.46 399.628 2034.02 398.637C2035.58 397.636 2037.34 397.135 2039.31 397.135C2040.83 397.135 2042.06 397.391 2043 397.902C2043.94 398.403 2044.67 398.989 2045.19 399.66C2045.72 400.331 2046.13 400.922 2046.42 401.434H2046.77V397.455H2051.45V422.543C2051.45 424.653 2050.96 426.384 2049.98 427.737C2049 429.09 2047.68 430.091 2046.01 430.741C2044.34 431.391 2042.47 431.716 2040.38 431.716ZM2040.33 417.669C2041.71 417.669 2042.87 417.35 2043.82 416.711C2044.77 416.061 2045.5 415.134 2045.99 413.93C2046.49 412.716 2046.74 411.261 2046.74 409.567C2046.74 407.916 2046.5 406.462 2046.01 405.205C2045.52 403.948 2044.8 402.968 2043.85 402.265C2042.9 401.551 2041.73 401.194 2040.33 401.194C2038.89 401.194 2037.7 401.567 2036.74 402.312C2035.78 403.048 2035.05 404.049 2034.56 405.317C2034.08 406.585 2033.84 408.001 2033.84 409.567C2033.84 411.176 2034.09 412.588 2034.58 413.802C2035.07 415.017 2035.79 415.965 2036.75 416.647C2037.72 417.328 2038.92 417.669 2040.33 417.669ZM2068.44 422.495C2066.02 422.495 2063.94 421.979 2062.19 420.945C2060.46 419.901 2059.11 418.436 2058.17 416.551C2057.23 414.654 2056.76 412.433 2056.76 409.887C2056.76 407.373 2057.23 405.157 2058.17 403.239C2059.11 401.322 2060.44 399.825 2062.13 398.749C2063.83 397.673 2065.83 397.135 2068.11 397.135C2069.49 397.135 2070.83 397.364 2072.13 397.822C2073.43 398.28 2074.6 398.999 2075.63 399.979C2076.67 400.96 2077.48 402.233 2078.08 403.799C2078.67 405.354 2078.97 407.245 2078.97 409.472V411.165H2059.46V407.586H2074.29C2074.29 406.329 2074.03 405.216 2073.52 404.246C2073.01 403.266 2072.29 402.494 2071.37 401.929C2070.45 401.364 2069.37 401.082 2068.14 401.082C2066.8 401.082 2065.62 401.412 2064.62 402.073C2063.63 402.723 2062.86 403.575 2062.32 404.63C2061.79 405.674 2061.52 406.808 2061.52 408.033V410.83C2061.52 412.471 2061.81 413.866 2062.39 415.017C2062.97 416.167 2063.79 417.046 2064.83 417.653C2065.87 418.25 2067.09 418.548 2068.49 418.548C2069.39 418.548 2070.22 418.42 2070.97 418.165C2071.71 417.898 2072.36 417.504 2072.9 416.982C2073.44 416.46 2073.86 415.816 2074.15 415.049L2078.67 415.864C2078.31 417.195 2077.66 418.362 2076.72 419.363C2075.79 420.354 2074.63 421.126 2073.22 421.68C2071.82 422.224 2070.23 422.495 2068.44 422.495Z" fill="white"/>
<path d="M689.886 270.131V251.04H693.602V270.131H689.886ZM691.763 248.094C691.117 248.094 690.561 247.879 690.097 247.448C689.642 247.009 689.414 246.487 689.414 245.882C689.414 245.269 689.642 244.747 690.097 244.316C690.561 243.877 691.117 243.657 691.763 243.657C692.409 243.657 692.96 243.877 693.416 244.316C693.88 244.747 694.112 245.269 694.112 245.882C694.112 246.487 693.88 247.009 693.416 247.448C692.96 247.879 692.409 248.094 691.763 248.094ZM702.318 258.796V270.131H698.602V251.04H702.169V254.147H702.405C702.844 253.136 703.532 252.324 704.468 251.711C705.413 251.098 706.602 250.791 708.035 250.791C709.336 250.791 710.476 251.065 711.453 251.612C712.431 252.15 713.189 252.954 713.728 254.023C714.267 255.092 714.536 256.413 714.536 257.988V270.131H710.82V258.435C710.82 257.051 710.459 255.97 709.738 255.191C709.017 254.404 708.027 254.01 706.768 254.01C705.906 254.01 705.14 254.197 704.468 254.57C703.805 254.943 703.279 255.49 702.89 256.21C702.509 256.923 702.318 257.785 702.318 258.796ZM728.431 251.04V254.023L718.003 254.023V251.04H728.431ZM720.8 246.466H724.516V264.525C724.516 265.246 724.624 265.789 724.839 266.154C725.055 266.51 725.332 266.754 725.672 266.887C726.02 267.011 726.397 267.073 726.803 267.073C727.102 267.073 727.363 267.053 727.586 267.011C727.81 266.97 727.984 266.937 728.108 266.912L728.779 269.982C728.564 270.065 728.257 270.147 727.86 270.23C727.462 270.321 726.965 270.371 726.368 270.379C725.39 270.396 724.479 270.222 723.634 269.857C722.789 269.493 722.105 268.929 721.583 268.167C721.061 267.405 720.8 266.448 720.8 265.296V246.466ZM740.565 270.516C738.684 270.516 737.064 270.114 735.705 269.311C734.355 268.499 733.311 267.359 732.573 265.893C731.844 264.418 731.48 262.69 731.48 260.71C731.48 258.754 731.844 257.031 732.573 255.539C733.311 254.048 734.338 252.884 735.656 252.047C736.982 251.21 738.531 250.791 740.304 250.791C741.381 250.791 742.425 250.97 743.436 251.326C744.447 251.682 745.354 252.241 746.158 253.004C746.962 253.766 747.596 254.756 748.06 255.974C748.524 257.184 748.756 258.655 748.756 260.387V261.704H733.58V258.92H745.114C745.114 257.942 744.915 257.076 744.518 256.322C744.12 255.56 743.561 254.959 742.84 254.52C742.127 254.081 741.29 253.861 740.329 253.861C739.285 253.861 738.374 254.118 737.595 254.632C736.824 255.137 736.227 255.8 735.805 256.621C735.391 257.433 735.183 258.315 735.183 259.268V261.443C735.183 262.719 735.407 263.805 735.855 264.699C736.31 265.594 736.944 266.278 737.756 266.75C738.568 267.214 739.517 267.446 740.602 267.446C741.307 267.446 741.949 267.347 742.529 267.148C743.109 266.941 743.61 266.634 744.033 266.228C744.455 265.822 744.779 265.321 745.002 264.724L748.52 265.358C748.238 266.394 747.733 267.301 747.003 268.08C746.283 268.851 745.375 269.451 744.281 269.882C743.196 270.305 741.957 270.516 740.565 270.516ZM752.879 270.131V251.04H756.471V254.073H756.67C757.018 253.045 757.631 252.237 758.51 251.649C759.396 251.052 760.399 250.754 761.517 250.754C761.749 250.754 762.023 250.762 762.338 250.779C762.661 250.796 762.914 250.816 763.096 250.841V254.396C762.947 254.354 762.682 254.309 762.3 254.259C761.919 254.201 761.538 254.172 761.157 254.172C760.279 254.172 759.496 254.358 758.808 254.731C758.128 255.096 757.59 255.606 757.192 256.26C756.794 256.906 756.595 257.644 756.595 258.472V270.131H752.879ZM771.697 270.553C770.487 270.553 769.393 270.33 768.415 269.882C767.438 269.427 766.663 268.768 766.091 267.906C765.528 267.044 765.246 265.988 765.246 264.737C765.246 263.66 765.453 262.773 765.867 262.077C766.282 261.381 766.841 260.83 767.545 260.424C768.25 260.018 769.037 259.711 769.907 259.504C770.777 259.297 771.664 259.14 772.567 259.032C773.71 258.899 774.638 258.791 775.351 258.709C776.063 258.617 776.581 258.472 776.904 258.274C777.228 258.075 777.389 257.752 777.389 257.304V257.217C777.389 256.132 777.083 255.291 776.469 254.694C775.865 254.097 774.961 253.799 773.76 253.799C772.509 253.799 771.523 254.077 770.802 254.632C770.089 255.179 769.596 255.788 769.323 256.459L765.83 255.664C766.244 254.503 766.849 253.567 767.645 252.855C768.449 252.134 769.372 251.612 770.416 251.289C771.461 250.957 772.558 250.791 773.71 250.791C774.472 250.791 775.28 250.883 776.134 251.065C776.996 251.239 777.799 251.562 778.545 252.034C779.299 252.507 779.916 253.182 780.397 254.06C780.878 254.93 781.118 256.061 781.118 257.453V270.131H777.489V267.521H777.339C777.099 268.001 776.739 268.474 776.258 268.938C775.778 269.402 775.16 269.787 774.406 270.094C773.652 270.4 772.749 270.553 771.697 270.553ZM772.505 267.57C773.532 267.57 774.41 267.367 775.14 266.961C775.877 266.555 776.436 266.025 776.817 265.371C777.207 264.708 777.402 263.999 777.402 263.245V260.784C777.269 260.917 777.012 261.041 776.631 261.157C776.258 261.265 775.831 261.36 775.351 261.443C774.87 261.518 774.402 261.588 773.946 261.654C773.491 261.712 773.109 261.762 772.803 261.803C772.082 261.895 771.423 262.048 770.827 262.263C770.238 262.479 769.766 262.789 769.41 263.195C769.062 263.593 768.888 264.124 768.888 264.786C768.888 265.706 769.227 266.402 769.907 266.874C770.586 267.338 771.452 267.57 772.505 267.57ZM794.109 270.516C792.261 270.516 790.671 270.098 789.337 269.261C788.011 268.416 786.992 267.251 786.279 265.768C785.566 264.285 785.21 262.586 785.21 260.672C785.21 258.733 785.575 257.022 786.304 255.539C787.033 254.048 788.06 252.884 789.386 252.047C790.712 251.21 792.274 250.791 794.072 250.791C795.522 250.791 796.815 251.061 797.95 251.599C799.085 252.13 800.001 252.875 800.697 253.836C801.401 254.798 801.819 255.92 801.952 257.205H798.335C798.136 256.31 797.68 255.539 796.968 254.893C796.264 254.247 795.319 253.923 794.134 253.923C793.098 253.923 792.191 254.197 791.412 254.744C790.642 255.282 790.041 256.053 789.61 257.056C789.179 258.05 788.964 259.227 788.964 260.585C788.964 261.977 789.175 263.179 789.598 264.19C790.02 265.201 790.617 265.984 791.387 266.539C792.166 267.094 793.082 267.372 794.134 267.372C794.838 267.372 795.476 267.243 796.048 266.986C796.628 266.721 797.113 266.344 797.502 265.855C797.9 265.366 798.178 264.778 798.335 264.09H801.952C801.819 265.325 801.417 266.427 800.746 267.396C800.075 268.366 799.176 269.128 798.049 269.683C796.931 270.239 795.617 270.516 794.109 270.516ZM814.838 251.04V254.023H804.41V251.04H814.838ZM807.206 246.466H810.923V264.525C810.923 265.246 811.03 265.789 811.246 266.154C811.461 266.51 811.739 266.754 812.078 266.887C812.426 267.011 812.803 267.073 813.209 267.073C813.508 267.073 813.769 267.053 813.992 267.011C814.216 266.97 814.39 266.937 814.515 266.912L815.186 269.982C814.97 270.065 814.664 270.147 814.266 270.23C813.868 270.321 813.371 270.371 812.774 270.379C811.797 270.396 810.885 270.222 810.04 269.857C809.195 269.493 808.511 268.929 807.989 268.167C807.467 267.405 807.206 266.448 807.206 265.296V246.466ZM832.947 255.701L829.578 256.297C829.438 255.867 829.214 255.456 828.907 255.067C828.609 254.677 828.203 254.358 827.689 254.11C827.175 253.861 826.533 253.737 825.763 253.737C824.71 253.737 823.832 253.973 823.128 254.445C822.423 254.91 822.071 255.51 822.071 256.248C822.071 256.886 822.307 257.399 822.78 257.789C823.252 258.178 824.014 258.497 825.067 258.746L828.099 259.442C829.856 259.848 831.165 260.474 832.027 261.319C832.889 262.164 833.32 263.262 833.32 264.612C833.32 265.756 832.988 266.775 832.325 267.67C831.671 268.557 830.755 269.253 829.578 269.758C828.41 270.263 827.055 270.516 825.514 270.516C823.376 270.516 821.632 270.06 820.282 269.149C818.931 268.229 818.102 266.924 817.796 265.234L821.388 264.687C821.611 265.623 822.071 266.332 822.767 266.812C823.463 267.285 824.371 267.521 825.489 267.521C826.707 267.521 827.681 267.268 828.41 266.763C829.139 266.249 829.504 265.623 829.504 264.886C829.504 264.289 829.28 263.788 828.833 263.382C828.394 262.976 827.718 262.669 826.807 262.462L823.575 261.754C821.794 261.348 820.476 260.701 819.623 259.815C818.778 258.928 818.355 257.805 818.355 256.447C818.355 255.32 818.67 254.334 819.3 253.488C819.929 252.643 820.799 251.985 821.91 251.512C823.02 251.032 824.292 250.791 825.725 250.791C827.789 250.791 829.413 251.239 830.598 252.134C831.782 253.02 832.566 254.209 832.947 255.701ZM850.807 270.131L845.189 251.04H849.03L852.771 265.06H852.957L856.711 251.04H860.551L864.28 264.998H864.467L868.183 251.04H872.023L866.418 270.131H862.627L858.749 256.347H858.463L854.586 270.131H850.807ZM875.55 270.131V251.04H879.266V270.131H875.55ZM877.427 248.094C876.781 248.094 876.225 247.879 875.761 247.448C875.306 247.009 875.078 246.487 875.078 245.882C875.078 245.269 875.306 244.747 875.761 244.316C876.225 243.877 876.781 243.657 877.427 243.657C878.073 243.657 878.624 243.877 879.08 244.316C879.544 244.747 879.776 245.269 879.776 245.882C879.776 246.487 879.544 247.009 879.08 247.448C878.624 247.879 878.073 248.094 877.427 248.094ZM893.178 251.04V254.023L882.75 254.023V251.04L893.178 251.04ZM885.546 246.466H889.262V264.525C889.262 265.246 889.37 265.789 889.586 266.154C889.801 266.51 890.079 266.754 890.418 266.887C890.766 267.011 891.143 267.073 891.549 267.073C891.848 267.073 892.109 267.053 892.332 267.011C892.556 266.97 892.73 266.937 892.854 266.912L893.526 269.982C893.31 270.065 893.003 270.147 892.606 270.23C892.208 270.321 891.711 270.371 891.114 270.379C890.137 270.396 889.225 270.222 888.38 269.857C887.535 269.493 886.851 268.929 886.329 268.167C885.807 267.405 885.546 266.448 885.546 265.296V246.466ZM901.415 258.796V270.131H897.699V244.676H901.365V254.147H901.601C902.049 253.12 902.732 252.304 903.652 251.699C904.572 251.094 905.773 250.791 907.256 250.791C908.566 250.791 909.709 251.061 910.687 251.599C911.673 252.138 912.435 252.942 912.974 254.01C913.521 255.071 913.794 256.397 913.794 257.988V270.131H910.078V258.435C910.078 257.035 909.717 255.949 908.996 255.179C908.276 254.4 907.273 254.01 905.989 254.01C905.11 254.01 904.323 254.197 903.627 254.57C902.939 254.943 902.397 255.49 901.999 256.21C901.61 256.923 901.415 257.785 901.415 258.796Z" fill="#777777"/>
<path d="M1494.57 270V250.909H1498.16V253.942H1498.36C1498.7 252.914 1499.32 252.106 1500.2 251.518C1501.08 250.922 1502.09 250.623 1503.2 250.623C1503.44 250.623 1503.71 250.632 1504.02 250.648C1504.35 250.665 1504.6 250.685 1504.78 250.71V254.265C1504.63 254.223 1504.37 254.178 1503.99 254.128C1503.61 254.07 1503.22 254.041 1502.84 254.041C1501.97 254.041 1501.18 254.228 1500.49 254.6C1499.82 254.965 1499.28 255.475 1498.88 256.129C1498.48 256.776 1498.28 257.513 1498.28 258.342V270H1494.57ZM1515.54 270.385C1513.66 270.385 1512.04 269.983 1510.68 269.18C1509.33 268.368 1508.29 267.228 1507.55 265.762C1506.82 264.287 1506.46 262.559 1506.46 260.579C1506.46 258.623 1506.82 256.9 1507.55 255.408C1508.29 253.917 1509.32 252.753 1510.63 251.916C1511.96 251.079 1513.51 250.661 1515.28 250.661C1516.36 250.661 1517.4 250.839 1518.41 251.195C1519.42 251.551 1520.33 252.111 1521.14 252.873C1521.94 253.635 1522.57 254.625 1523.04 255.843C1523.5 257.053 1523.73 258.524 1523.73 260.256V261.573H1508.56V258.789H1520.09C1520.09 257.811 1519.89 256.945 1519.5 256.191C1519.1 255.429 1518.54 254.828 1517.82 254.389C1517.1 253.95 1516.27 253.73 1515.31 253.73C1514.26 253.73 1513.35 253.987 1512.57 254.501C1511.8 255.007 1511.21 255.669 1510.78 256.49C1510.37 257.302 1510.16 258.184 1510.16 259.137V261.312C1510.16 262.588 1510.38 263.674 1510.83 264.569C1511.29 265.463 1511.92 266.147 1512.73 266.619C1513.55 267.083 1514.49 267.315 1515.58 267.315C1516.28 267.315 1516.93 267.216 1517.51 267.017C1518.09 266.81 1518.59 266.503 1519.01 266.097C1519.43 265.691 1519.76 265.19 1519.98 264.593L1523.5 265.227C1523.22 266.263 1522.71 267.17 1521.98 267.949C1521.26 268.72 1520.35 269.321 1519.26 269.751C1518.17 270.174 1516.93 270.385 1515.54 270.385ZM1536.77 250.909V253.892H1526.34V250.909H1536.77ZM1529.14 246.335H1532.85V264.395C1532.85 265.115 1532.96 265.658 1533.18 266.023C1533.39 266.379 1533.67 266.623 1534.01 266.756C1534.36 266.88 1534.73 266.942 1535.14 266.942C1535.44 266.942 1535.7 266.922 1535.92 266.88C1536.15 266.839 1536.32 266.806 1536.45 266.781L1537.12 269.851C1536.9 269.934 1536.59 270.017 1536.2 270.099C1535.8 270.191 1535.3 270.24 1534.71 270.249C1533.73 270.265 1532.82 270.091 1531.97 269.727C1531.13 269.362 1530.44 268.799 1529.92 268.036C1529.4 267.274 1529.14 266.317 1529.14 265.165V246.335ZM1540.88 270V250.909H1544.47V253.942H1544.67C1545.02 252.914 1545.63 252.106 1546.51 251.518C1547.4 250.922 1548.4 250.623 1549.52 250.623C1549.75 250.623 1550.02 250.632 1550.34 250.648C1550.66 250.665 1550.91 250.685 1551.1 250.71V254.265C1550.95 254.223 1550.68 254.178 1550.3 254.128C1549.92 254.07 1549.54 254.041 1549.16 254.041C1548.28 254.041 1547.5 254.228 1546.81 254.6C1546.13 254.965 1545.59 255.475 1545.19 256.129C1544.79 256.776 1544.6 257.513 1544.6 258.342V270H1540.88ZM1554.31 270V250.909H1558.03V270H1554.31ZM1556.19 247.963C1555.54 247.963 1554.99 247.748 1554.52 247.317C1554.07 246.878 1553.84 246.356 1553.84 245.751C1553.84 245.138 1554.07 244.616 1554.52 244.185C1554.99 243.746 1555.54 243.526 1556.19 243.526C1556.84 243.526 1557.39 243.746 1557.84 244.185C1558.31 244.616 1558.54 245.138 1558.54 245.751C1558.54 246.356 1558.31 246.878 1557.84 247.317C1557.39 247.748 1556.84 247.963 1556.19 247.963ZM1571.26 270.385C1569.37 270.385 1567.76 269.983 1566.4 269.18C1565.05 268.368 1564 267.228 1563.26 265.762C1562.53 264.287 1562.17 262.559 1562.17 260.579C1562.17 258.623 1562.53 256.9 1563.26 255.408C1564 253.917 1565.03 252.753 1566.35 251.916C1567.67 251.079 1569.22 250.661 1570.99 250.661C1572.07 250.661 1573.12 250.839 1574.13 251.195C1575.14 251.551 1576.05 252.111 1576.85 252.873C1577.65 253.635 1578.29 254.625 1578.75 255.843C1579.21 257.053 1579.45 258.524 1579.45 260.256V261.573H1564.27V258.789H1575.8C1575.8 257.811 1575.61 256.945 1575.21 256.191C1574.81 255.429 1574.25 254.828 1573.53 254.389C1572.82 253.95 1571.98 253.73 1571.02 253.73C1569.98 253.73 1569.06 253.987 1568.29 254.501C1567.51 255.007 1566.92 255.669 1566.5 256.49C1566.08 257.302 1565.87 258.184 1565.87 259.137V261.312C1565.87 262.588 1566.1 263.674 1566.55 264.569C1567 265.463 1567.63 266.147 1568.45 266.619C1569.26 267.083 1570.21 267.315 1571.29 267.315C1572 267.315 1572.64 267.216 1573.22 267.017C1573.8 266.81 1574.3 266.503 1574.72 266.097C1575.15 265.691 1575.47 265.19 1575.69 264.593L1579.21 265.227C1578.93 266.263 1578.42 267.17 1577.69 267.949C1576.97 268.72 1576.07 269.321 1574.97 269.751C1573.89 270.174 1572.65 270.385 1571.26 270.385ZM1599.35 250.909L1592.43 270H1588.45L1581.52 250.909H1585.51L1590.34 265.6H1590.54L1595.36 250.909H1599.35ZM1610.43 270.385C1608.54 270.385 1606.92 269.983 1605.57 269.18C1604.22 268.368 1603.17 267.228 1602.43 265.762C1601.7 264.287 1601.34 262.559 1601.34 260.579C1601.34 258.623 1601.7 256.9 1602.43 255.408C1603.17 253.917 1604.2 252.753 1605.52 251.916C1606.84 251.079 1608.39 250.661 1610.16 250.661C1611.24 250.661 1612.29 250.839 1613.3 251.195C1614.31 251.551 1615.22 252.111 1616.02 252.873C1616.82 253.635 1617.46 254.625 1617.92 255.843C1618.38 257.053 1618.62 258.524 1618.62 260.256V261.573L1603.44 261.573V258.789L1614.97 258.789C1614.97 257.811 1614.78 256.945 1614.38 256.191C1613.98 255.429 1613.42 254.828 1612.7 254.389C1611.99 253.95 1611.15 253.73 1610.19 253.73C1609.15 253.73 1608.23 253.987 1607.46 254.501C1606.68 255.007 1606.09 255.669 1605.67 256.49C1605.25 257.302 1605.04 258.184 1605.04 259.137V261.312C1605.04 262.588 1605.27 263.674 1605.72 264.569C1606.17 265.463 1606.8 266.147 1607.62 266.619C1608.43 267.083 1609.38 267.315 1610.46 267.315C1611.17 267.315 1611.81 267.216 1612.39 267.017C1612.97 266.81 1613.47 266.503 1613.89 266.097C1614.32 265.691 1614.64 265.19 1614.86 264.593L1618.38 265.227C1618.1 266.263 1617.59 267.17 1616.86 267.949C1616.14 268.72 1615.24 269.321 1614.14 269.751C1613.06 270.174 1611.82 270.385 1610.43 270.385ZM1639.15 270.373C1637.61 270.373 1636.23 269.979 1635.02 269.192C1633.82 268.397 1632.88 267.266 1632.19 265.799C1631.51 264.324 1631.17 262.555 1631.17 260.492C1631.17 258.429 1631.51 256.664 1632.2 255.197C1632.9 253.73 1633.85 252.608 1635.06 251.829C1636.27 251.05 1637.64 250.661 1639.17 250.661C1640.36 250.661 1641.31 250.859 1642.03 251.257C1642.76 251.647 1643.33 252.102 1643.72 252.624C1644.13 253.146 1644.44 253.606 1644.67 254.004H1644.89V244.545H1648.61V270H1644.98V267.029H1644.67C1644.44 267.435 1644.12 267.9 1643.7 268.422C1643.28 268.944 1642.71 269.399 1641.98 269.789C1641.25 270.178 1640.31 270.373 1639.15 270.373ZM1639.97 267.203C1641.04 267.203 1641.94 266.922 1642.68 266.358C1643.42 265.787 1643.99 264.995 1644.37 263.984C1644.76 262.973 1644.95 261.797 1644.95 260.455C1644.95 259.129 1644.76 257.969 1644.38 256.974C1644 255.98 1643.44 255.205 1642.7 254.65C1641.97 254.095 1641.05 253.817 1639.97 253.817C1638.85 253.817 1637.92 254.107 1637.17 254.688C1636.43 255.268 1635.86 256.059 1635.48 257.061C1635.11 258.064 1634.92 259.195 1634.92 260.455C1634.92 261.731 1635.11 262.878 1635.5 263.897C1635.88 264.917 1636.44 265.724 1637.19 266.321C1637.94 266.909 1638.87 267.203 1639.97 267.203ZM1659.47 270.423C1658.26 270.423 1657.16 270.199 1656.19 269.751C1655.21 269.296 1654.43 268.637 1653.86 267.775C1653.3 266.913 1653.02 265.857 1653.02 264.606C1653.02 263.529 1653.22 262.642 1653.64 261.946C1654.05 261.25 1654.61 260.699 1655.32 260.293C1656.02 259.887 1656.81 259.58 1657.68 259.373C1658.55 259.166 1659.43 259.009 1660.34 258.901C1661.48 258.768 1662.41 258.661 1663.12 258.578C1663.83 258.487 1664.35 258.342 1664.68 258.143C1665 257.944 1665.16 257.621 1665.16 257.173V257.086C1665.16 256.001 1664.85 255.16 1664.24 254.563C1663.64 253.967 1662.73 253.668 1661.53 253.668C1660.28 253.668 1659.29 253.946 1658.57 254.501C1657.86 255.048 1657.37 255.657 1657.09 256.328L1653.6 255.533C1654.02 254.373 1654.62 253.436 1655.42 252.724C1656.22 252.003 1657.14 251.481 1658.19 251.158C1659.23 250.826 1660.33 250.661 1661.48 250.661C1662.24 250.661 1663.05 250.752 1663.9 250.934C1664.77 251.108 1665.57 251.431 1666.32 251.903C1667.07 252.376 1667.69 253.051 1668.17 253.929C1668.65 254.799 1668.89 255.93 1668.89 257.322V270H1665.26V267.39H1665.11C1664.87 267.871 1664.51 268.343 1664.03 268.807C1663.55 269.271 1662.93 269.656 1662.18 269.963C1661.42 270.269 1660.52 270.423 1659.47 270.423ZM1660.28 267.44C1661.3 267.44 1662.18 267.237 1662.91 266.831C1663.65 266.425 1664.21 265.894 1664.59 265.24C1664.98 264.577 1665.17 263.868 1665.17 263.114V260.653C1665.04 260.786 1664.78 260.91 1664.4 261.026C1664.03 261.134 1663.6 261.229 1663.12 261.312C1662.64 261.387 1662.17 261.457 1661.72 261.523C1661.26 261.581 1660.88 261.631 1660.57 261.673C1659.85 261.764 1659.19 261.917 1658.6 262.132C1658.01 262.348 1657.54 262.659 1657.18 263.065C1656.83 263.462 1656.66 263.993 1656.66 264.656C1656.66 265.575 1657 266.271 1657.68 266.744C1658.36 267.208 1659.22 267.44 1660.28 267.44ZM1682.75 250.909V253.892L1672.32 253.892V250.909L1682.75 250.909ZM1675.12 246.335H1678.83V264.395C1678.83 265.115 1678.94 265.658 1679.16 266.023C1679.37 266.379 1679.65 266.623 1679.99 266.756C1680.34 266.88 1680.72 266.942 1681.12 266.942C1681.42 266.942 1681.68 266.922 1681.9 266.88C1682.13 266.839 1682.3 266.806 1682.43 266.781L1683.1 269.851C1682.88 269.934 1682.58 270.017 1682.18 270.099C1681.78 270.191 1681.28 270.24 1680.69 270.249C1679.71 270.265 1678.8 270.091 1677.95 269.727C1677.11 269.362 1676.42 268.799 1675.9 268.036C1675.38 267.274 1675.12 266.317 1675.12 265.165V246.335ZM1692.42 270.423C1691.21 270.423 1690.11 270.199 1689.14 269.751C1688.16 269.296 1687.38 268.637 1686.81 267.775C1686.25 266.913 1685.97 265.857 1685.97 264.606C1685.97 263.529 1686.17 262.642 1686.59 261.946C1687 261.25 1687.56 260.699 1688.27 260.293C1688.97 259.887 1689.76 259.58 1690.63 259.373C1691.5 259.166 1692.38 259.009 1693.29 258.901C1694.43 258.768 1695.36 258.661 1696.07 258.578C1696.78 258.487 1697.3 258.342 1697.62 258.143C1697.95 257.944 1698.11 257.621 1698.11 257.173V257.086C1698.11 256.001 1697.8 255.16 1697.19 254.563C1696.58 253.967 1695.68 253.668 1694.48 253.668C1693.23 253.668 1692.24 253.946 1691.52 254.501C1690.81 255.048 1690.32 255.657 1690.04 256.328L1686.55 255.533C1686.96 254.373 1687.57 253.436 1688.36 252.724C1689.17 252.003 1690.09 251.481 1691.14 251.158C1692.18 250.826 1693.28 250.661 1694.43 250.661C1695.19 250.661 1696 250.752 1696.85 250.934C1697.72 251.108 1698.52 251.431 1699.26 251.903C1700.02 252.376 1700.64 253.051 1701.12 253.929C1701.6 254.799 1701.84 255.93 1701.84 257.322V270H1698.21V267.39H1698.06C1697.82 267.871 1697.46 268.343 1696.98 268.807C1696.5 269.271 1695.88 269.656 1695.13 269.963C1694.37 270.269 1693.47 270.423 1692.42 270.423ZM1693.22 267.44C1694.25 267.44 1695.13 267.237 1695.86 266.831C1696.6 266.425 1697.16 265.894 1697.54 265.24C1697.93 264.577 1698.12 263.868 1698.12 263.114V260.653C1697.99 260.786 1697.73 260.91 1697.35 261.026C1696.98 261.134 1696.55 261.229 1696.07 261.312C1695.59 261.387 1695.12 261.457 1694.67 261.523C1694.21 261.581 1693.83 261.631 1693.52 261.673C1692.8 261.764 1692.14 261.917 1691.55 262.132C1690.96 262.348 1690.49 262.659 1690.13 263.065C1689.78 263.462 1689.61 263.993 1689.61 264.656C1689.61 265.575 1689.95 266.271 1690.63 266.744C1691.31 267.208 1692.17 267.44 1693.22 267.44Z" fill="#777777"/>
<defs>
<linearGradient id="paint0_linear_3655_1858" x1="1200" y1="93.5" x2="1200" y2="2010.39" gradientUnits="userSpaceOnUse">
<stop stop-color="#9933FF"/>
<stop offset="1" stop-color="#FF9AB1"/>
<stop offset="1" stop-color="#EA8FA4"/>
</linearGradient>
<linearGradient id="paint1_linear_3655_1858" x1="403.643" y1="93.5" x2="403.643" y2="2010.39" gradientUnits="userSpaceOnUse">
<stop stop-color="#9933FF"/>
<stop offset="1" stop-color="#FF9AB1"/>
<stop offset="1" stop-color="#EA8FA4"/>
</linearGradient>
<linearGradient id="paint2_linear_3655_1858" x1="1996.36" y1="93.5" x2="1996.36" y2="2010.39" gradientUnits="userSpaceOnUse">
<stop stop-color="#9933FF"/>
<stop offset="1" stop-color="#FF9AB1"/>
<stop offset="1" stop-color="#EA8FA4"/>
</linearGradient>
</defs>
</svg>
