<svg width="903" height="549" viewBox="0 0 903 549" fill="none" xmlns="http://www.w3.org/2000/svg">
<path d="M475.061 0.925537C480.587 2.07406 485.804 4.39614 490.358 7.73528C495.457 11.7723 499.362 17.1238 501.656 23.2159C516.137 59.447 530.618 95.6561 545.099 131.843C561.124 172.089 577.229 212.341 593.414 252.601C601.849 273.709 610.241 294.839 618.807 315.903C620.629 320.212 621.568 324.844 621.568 329.523C621.568 334.202 620.629 338.834 618.807 343.142L545.208 526.743C540.335 538.895 531.506 546.449 518.526 548.42C502.377 550.851 487.933 542.88 482.098 528.713C468.287 494.752 454.782 460.682 441.168 426.633L371.94 253.433C351.442 202.036 330.915 150.652 310.359 99.2836C303.542 82.2264 296.942 65.0816 289.818 48.1558C287.856 43.5536 286.929 38.5755 287.1 33.5741C287.272 28.5726 288.539 23.6702 290.812 19.2139C293.084 14.7576 296.307 10.8566 300.251 7.78696C304.196 4.71736 308.766 2.55433 313.637 1.45105C314.227 1.31967 314.796 1.10071 315.364 0.925537H475.061Z" fill="url(#paint0_linear_4033_153464)"/>
<path d="M188.239 0.925964C190.052 1.42958 191.866 1.8675 193.636 2.4806C198.245 3.9207 202.472 6.37753 206.008 9.67041C209.544 12.9633 212.298 17.0085 214.068 21.5085C229.875 60.7466 245.609 100.014 261.27 139.31C277.12 178.928 292.97 218.553 308.821 258.185C316.571 277.615 324.358 297.037 332.181 316.451C333.932 320.609 334.834 325.076 334.834 329.589C334.834 334.102 333.932 338.569 332.181 342.727C323.44 364.536 314.699 386.337 305.958 408.131C289.933 448.026 273.908 487.921 257.882 527.816C255.367 534.028 251.065 539.351 245.525 543.109C239.985 546.867 233.455 548.891 226.765 548.924C219.677 549.049 212.723 546.977 206.856 542.991C200.988 539.005 196.493 533.299 193.986 526.656C179.17 489.06 164.048 451.573 149.057 414.043C128.968 363.229 108.776 312.452 88.4822 261.711C67.8243 210.065 47.1738 158.411 26.5305 106.751C18.7073 87.1973 10.9497 67.6001 3.01724 48.0686C-0.448593 39.9305 -0.616668 30.7602 2.54861 22.5001C5.71389 14.2399 11.9639 7.53886 19.9747 3.81627C22.881 2.63941 25.8679 1.67348 28.9124 0.925964L188.239 0.925964Z" fill="url(#paint1_linear_4033_153464)"/>
<path d="M902.82 334.858C898.45 349.638 891.894 363.586 886.322 377.841C870.195 418.393 853.98 458.923 837.678 499.431C833.941 508.715 830.139 517.977 826.511 527.305C823.958 533.679 819.554 539.138 813.87 542.976C808.185 546.815 801.482 548.855 794.628 548.834C787.773 548.813 781.083 546.731 775.422 542.857C769.761 538.984 765.391 533.497 762.877 527.108L692.119 350.142L630.932 197.284C610.959 147.375 591 97.4735 571.056 47.5791C569.16 43.017 568.286 38.0935 568.495 33.156C568.704 28.2184 569.992 23.387 572.267 19.0024C574.543 14.6177 577.751 10.7867 581.664 7.77934C585.578 4.77199 590.103 2.66159 594.919 1.59695C595.575 1.44368 596.208 1.22472 596.864 1.02765H756.562C757.064 1.18092 757.545 1.37799 758.048 1.48747C763.649 2.65867 768.864 5.22722 773.211 8.95523C777.558 12.6832 780.896 17.4502 782.916 22.8144C792.21 46.1705 801.52 69.4608 810.843 92.6855C835.245 153.674 859.625 214.662 883.983 275.651C890.386 291.723 897.51 307.51 902.755 324.02L902.82 334.858Z" fill="url(#paint2_linear_4033_153464)"/>
<defs>
<linearGradient id="paint0_linear_4033_153464" x1="262.328" y1="45.4188" x2="647.023" y2="429.344" gradientUnits="userSpaceOnUse">
<stop stop-color="#FF00A8"/>
<stop offset="1" stop-color="#6200C6"/>
</linearGradient>
<linearGradient id="paint1_linear_4033_153464" x1="-24.342" y1="45.2878" x2="360.265" y2="429.125" gradientUnits="userSpaceOnUse">
<stop stop-color="#FF00A8"/>
<stop offset="1" stop-color="#6200C6"/>
</linearGradient>
<linearGradient id="paint2_linear_4033_153464" x1="543.762" y1="45.28" x2="928.392" y2="429.14" gradientUnits="userSpaceOnUse">
<stop stop-color="#FF00A8"/>
<stop offset="1" stop-color="#6200C6"/>
</linearGradient>
</defs>
</svg>
