<svg width="24" height="24" viewBox="0 0 24 24" fill="none" xmlns="http://www.w3.org/2000/svg">
<path fill-rule="evenodd" clip-rule="evenodd" d="M4 5V8H9V5H4ZM3 3C2.44772 3 2 3.44772 2 4V9C2 9.55228 2.44772 10 3 10H6.13197L8.07994 13.896C7.40379 14.7487 7 15.8272 7 17C7 19.7614 9.23858 22 12 22C14.7614 22 17 19.7614 17 17C17 15.8272 16.5962 14.7487 15.9201 13.896L17.868 10H21C21.5523 10 22 9.55228 22 9V4C22 3.44772 21.5523 3 21 3H14C13.4477 3 13 3.44772 13 4V9C13 9.55228 13.4477 10 14 10H15.632L14.3415 12.581C13.6429 12.2101 12.846 12 12 12C11.154 12 10.3571 12.2101 9.65854 12.581L8.36803 10H10C10.5523 10 11 9.55228 11 9V4C11 3.44772 10.5523 3 10 3H3ZM15 5V8H20V5H15ZM9 17C9 15.3431 10.3431 14 12 14C13.6569 14 15 15.3431 15 17C15 18.6569 13.6569 20 12 20C10.3431 20 9 18.6569 9 17Z" fill="url(#paint0_linear_132_1820)"/>
<defs>
<linearGradient id="paint0_linear_132_1820" x1="20.5717" y1="-6.01487" x2="-6.86254" y2="37.4501" gradientUnits="userSpaceOnUse">
<stop stop-color="white"/>
<stop offset="1" stop-color="white" stop-opacity="0"/>
</linearGradient>
</defs>
</svg>
