<svg width="24" height="24" viewBox="0 0 24 24" fill="none" xmlns="http://www.w3.org/2000/svg">
<path fill-rule="evenodd" clip-rule="evenodd" d="M5 15L19 15L19 19L5 19L5 15ZM3 15C3 13.8954 3.89543 13 5 13L19 13C20.1046 13 21 13.8954 21 15L21 19C21 20.1046 20.1046 21 19 21L5 21C3.89543 21 3 20.1046 3 19L3 15ZM13.5 9C13.5 7.89543 14.3954 7 15.5 7C16.6046 7 17.5 7.89543 17.5 9C17.5 10.1046 16.6046 11 15.5 11C14.3954 11 13.5 10.1046 13.5 9ZM8.5 7C7.39543 7 6.5 7.89543 6.5 9C6.5 10.1046 7.39543 11 8.5 11C9.60457 11 10.5 10.1046 10.5 9C10.5 7.89543 9.60457 7 8.5 7ZM10 4C10 2.89543 10.8954 2 12 2C13.1046 2 14 2.89543 14 4C14 5.10457 13.1046 6 12 6C10.8954 6 10 5.10457 10 4ZM3 4C3 2.89543 3.89543 2 5 2C6.10457 2 7 2.89543 7 4C7 5.10457 6.10457 6 5 6C3.89543 6 3 5.10457 3 4ZM19 2C17.8954 2 17 2.89543 17 4C17 5.10457 17.8954 6 19 6C20.1046 6 21 5.10457 21 4C21 2.89543 20.1046 2 19 2Z" fill="url(#paint0_linear_133_2164)"/>
<defs>
<linearGradient id="paint0_linear_133_2164" x1="-2.5" y1="32" x2="33.0007" y2="-9.74387" gradientUnits="userSpaceOnUse">
<stop stop-color="white" stop-opacity="0"/>
<stop offset="1" stop-color="white"/>
</linearGradient>
</defs>
</svg>
