<svg width="24" height="24" viewBox="0 0 24 24" fill="none" xmlns="http://www.w3.org/2000/svg">
<path fill-rule="evenodd" clip-rule="evenodd" d="M3.03578 8.07633C3.48011 5.71251 5.5445 4 7.94972 4H16.054C18.4571 4 20.5203 5.70959 20.9669 8.07085L22.3659 15.4679C22.8026 17.7773 21.0316 19.9146 18.6813 19.9146C17.468 19.9146 16.3296 19.3275 15.6261 18.3389L14.9412 17.3765C14.7536 17.1129 14.45 16.9563 14.1264 16.9563L9.85878 16.9565C9.53935 16.9565 9.23914 17.1091 9.0509 17.3672L8.28785 18.4134C7.60236 19.3532 6.51633 19.9178 5.35326 19.939C2.99856 19.982 1.19832 17.8516 1.63339 15.5371L3.03578 8.07633ZM7.94972 6C6.50659 6 5.26795 7.0275 5.00136 8.4458L3.59896 15.9065C3.39805 16.9754 4.2294 17.9592 5.3168 17.9394C5.85391 17.9296 6.35544 17.6688 6.672 17.2348L7.43505 16.1887C7.99977 15.4144 8.90038 14.9566 9.85869 14.9565L14.1263 14.9563C15.0971 14.9563 16.0078 15.426 16.5707 16.2169L17.2556 17.1793C17.5839 17.6406 18.1151 17.9146 18.6813 17.9146C19.7781 17.9146 20.6045 16.9172 20.4007 15.8396L19.0017 8.44251C18.7338 7.02575 17.4959 6 16.054 6H7.94972ZM7.24997 10.25V9H8.74997V10.25H9.99997V11.75H8.74997V13H7.24997V11.75H5.99997V10.25H7.24997ZM18 10C18 10.5523 17.5523 11 17 11C16.4477 11 16 10.5523 16 10C16 9.44772 16.4477 9 17 9C17.5523 9 18 9.44772 18 10ZM15 13C15.5523 13 16 12.5523 16 12C16 11.4477 15.5523 11 15 11C14.4477 11 14 11.4477 14 12C14 12.5523 14.4477 13 15 13Z" fill="url(#paint0_linear_132_1752)"/>
<defs>
<linearGradient id="paint0_linear_132_1752" x1="20.9423" y1="-3.56284" x2="0.362314" y2="36.982" gradientUnits="userSpaceOnUse">
<stop stop-color="white"/>
<stop offset="1" stop-color="white" stop-opacity="0"/>
</linearGradient>
</defs>
</svg>
