<svg width="25" height="24" viewBox="0 0 25 24" fill="none" xmlns="http://www.w3.org/2000/svg">
<rect x="7.90631" y="3.00146" width="8.99854" height="8.99854" rx="1.5" fill="#9C30B7"/>
<g filter="url(#filter0_b_634_289)">
<path d="M17.1936 8.39999H7.61758C6.72683 8.4002 5.86779 8.73063 5.20651 9.32741C4.54523 9.92419 4.12868 10.7449 4.03738 11.631C4.03198 11.6778 4.02838 11.7219 4.02208 11.7678C3.94918 12.3744 3.40558 16.9104 3.40558 18.3C3.40558 19.0161 3.69004 19.7028 4.19639 20.2092C4.70274 20.7155 5.38949 21 6.10558 21C7.00558 21 7.45558 20.55 7.90558 20.1L9.17818 18.8274C9.51567 18.4898 9.97343 18.3001 10.4508 18.3H14.3604C14.8377 18.3001 15.2955 18.4898 15.633 18.8274L16.9056 20.1C17.3556 20.55 17.8056 21 18.7056 21C19.4217 21 20.1084 20.7155 20.6148 20.2092C21.1211 19.7028 21.4056 19.0161 21.4056 18.3C21.4056 16.9095 20.862 12.3744 20.7891 11.7678C20.7828 11.7228 20.7792 11.6778 20.7738 11.6319C20.6827 10.7457 20.2662 9.92471 19.6049 9.32775C18.9436 8.73078 18.0845 8.40022 17.1936 8.39999Z" fill="url(#paint0_linear_634_289)" fill-opacity="0.8"/>
</g>
<path fill-rule="evenodd" clip-rule="evenodd" d="M9.30459 12.1787C9.30459 11.7645 8.9688 11.4287 8.55459 11.4287C8.14037 11.4287 7.80459 11.7645 7.80459 12.1787V12.8894H7.1546C6.74039 12.8894 6.4046 13.2251 6.4046 13.6394C6.4046 14.0536 6.74039 14.3894 7.1546 14.3894H7.80459V15.1C7.80459 15.5142 8.14037 15.85 8.55459 15.85C8.9688 15.85 9.30459 15.5142 9.30459 15.1V14.3894H10.0746C10.4888 14.3894 10.8246 14.0536 10.8246 13.6394C10.8246 13.2251 10.4888 12.8894 10.0746 12.8894H9.30459V12.1787Z" fill="white"/>
<path fill-rule="evenodd" clip-rule="evenodd" d="M13.9066 14.7C13.9066 14.2029 14.3095 13.8 14.8066 13.8H14.8156C15.3126 13.8 15.7156 14.2029 15.7156 14.7C15.7156 15.197 15.3126 15.6 14.8156 15.6H14.8066C14.3095 15.6 13.9066 15.197 13.9066 14.7Z" fill="white"/>
<path fill-rule="evenodd" clip-rule="evenodd" d="M16.6066 12.9C16.6066 12.4029 17.0095 12 17.5066 12H17.5156C18.0126 12 18.4156 12.4029 18.4156 12.9C18.4156 13.3971 18.0126 13.8 17.5156 13.8H17.5066C17.0095 13.8 16.6066 13.3971 16.6066 12.9Z" fill="white"/>
<defs>
<filter id="filter0_b_634_289" x="1.40558" y="6.39999" width="22" height="16.6" filterUnits="userSpaceOnUse" color-interpolation-filters="sRGB">
<feFlood flood-opacity="0" result="BackgroundImageFix"/>
<feGaussianBlur in="BackgroundImageFix" stdDeviation="1"/>
<feComposite in2="SourceAlpha" operator="in" result="effect1_backgroundBlur_634_289"/>
<feBlend mode="normal" in="SourceGraphic" in2="effect1_backgroundBlur_634_289" result="shape"/>
</filter>
<linearGradient id="paint0_linear_634_289" x1="12.4056" y1="8.39999" x2="12.4056" y2="21" gradientUnits="userSpaceOnUse">
<stop stop-color="#E5A1F5"/>
<stop offset="1" stop-color="#E169FF"/>
</linearGradient>
</defs>
</svg>
