<svg width="20" height="20" viewBox="0 0 20 20" fill="none" xmlns="http://www.w3.org/2000/svg">
<path fill-rule="evenodd" clip-rule="evenodd" d="M12.5567 7.44518V4H16.0018V7.44518H12.5567ZM12.3345 2C11.3526 2 10.5567 2.79599 10.5567 3.77788V7.66729C10.5567 8.64919 11.3526 9.44518 12.3345 9.44518H16.224C17.2059 9.44518 18.0018 8.64919 18.0018 7.66729V3.77788C18.0018 2.79599 17.2059 2 16.224 2H12.3345ZM3.77788 5.11155C3.30636 5.11155 2.85415 5.29886 2.52073 5.63228C2.18731 5.96569 2 6.41791 2 6.88943V11.5567V16.224C2 16.6955 2.18731 17.1478 2.52073 17.4812C2.85415 17.8146 3.30636 18.0019 3.77788 18.0019H8.44518H13.1125C13.584 18.0019 14.0362 17.8146 14.3696 17.4812C14.703 17.1478 14.8904 16.6955 14.8904 16.224V12.3346C14.8904 11.8631 14.703 11.4109 14.3696 11.0775C14.0362 10.744 13.584 10.5567 13.1125 10.5567H9.44518V6.88943C9.44518 6.41791 9.25786 5.96569 8.92445 5.63228C8.59103 5.29886 8.13882 5.11155 7.66729 5.11155H3.77788ZM4 16.0019V12.5567H7.44518V16.0019H4ZM4 10.5567H7.44518V7.11155H4V10.5567ZM9.44518 16.0019V12.5567H12.8904V16.0019H9.44518Z" fill="#646D7A"/>
</svg>
