<svg width="20" height="20" viewBox="0 0 20 20" fill="none" xmlns="http://www.w3.org/2000/svg">
<path fill-rule="evenodd" clip-rule="evenodd" d="M4.55819 4C4.26309 4 4 4.24649 4 4.58021V5.22255C4.18166 5.18158 4.36874 5.1604 4.55819 5.1604H15.4655C15.655 5.1604 15.8421 5.18158 16.0237 5.22255V4.58021C16.0237 4.24649 15.7606 4 15.4655 4H4.55819ZM4.16843 7.32536C4.06217 7.43313 4 7.58224 4 7.74061V8.32076H5.33729C6.16048 8.32076 7.05902 8.62069 7.67709 9.31632L8.46895 9.97337C8.49456 9.99461 8.51909 10.0171 8.54245 10.0408C9.39738 10.9078 10.7043 10.9078 11.5592 10.0408C11.5826 10.0171 11.6071 9.99461 11.6327 9.97337L12.4551 9.291C13.0024 8.75547 13.8529 8.32076 14.7644 8.32076H16.0237V7.74061C16.0237 7.58224 15.9616 7.43313 15.8553 7.32536C15.7495 7.21807 15.609 7.1604 15.4655 7.1604H4.55819C4.41471 7.1604 4.27423 7.21807 4.16843 7.32536ZM16.0237 10.3208H14.7644C14.4512 10.3208 14.074 10.497 13.8403 10.734C13.8169 10.7577 13.7924 10.7802 13.7668 10.8014L12.9458 11.4827C11.3184 13.0939 8.78327 13.0939 7.15588 11.4827L6.33484 10.8014C6.28598 10.7609 6.24109 10.7158 6.20078 10.6667C6.04057 10.4718 5.72951 10.3208 5.33729 10.3208H4V15.6417C4 15.9754 4.26309 16.2219 4.55819 16.2219H15.4655C15.7606 16.2219 16.0237 15.9754 16.0237 15.6417V10.3208ZM2 9.32076V15.6417C2 17.0534 3.13216 18.2219 4.55819 18.2219H15.4655C16.8916 18.2219 18.0237 17.0534 18.0237 15.6417V9.32076V7.74061V4.58021C18.0237 3.16847 16.8916 2 15.4655 2H4.55819C3.13216 2 2 3.16847 2 4.58021V7.74061V9.32076Z" fill="#646D7A"/>
</svg>
