<svg xmlns="http://www.w3.org/2000/svg" width="143" height="23" fill="none" viewBox="0 0 143 23"><path fill="#A5A5A5" d="M8.34433 10.5371C8.451 10.5371 8.52566 10.4838 8.56833 10.3771C8.611 10.2704 8.65367 10.1638 8.69633 10.0571L11.4803 0.745098C11.587 0.425098 11.779 0.265099 12.0563 0.265099H15.5443C15.6723 0.265099 15.779 0.307765 15.8643 0.393099C15.971 0.478432 16.0243 0.595765 16.0243 0.745098V22.1851C16.0243 22.3344 15.971 22.4518 15.8643 22.5371C15.779 22.6224 15.6723 22.6651 15.5443 22.6651H11.9923C11.6723 22.6651 11.5123 22.5051 11.5123 22.1851V13.8011C11.5123 13.4811 11.4163 13.3211 11.2243 13.3211C11.0323 13.3211 10.8617 13.5344 10.7123 13.9611L9.43233 17.1931C9.38966 17.3424 9.30433 17.4598 9.17633 17.5451C9.04833 17.6304 8.92033 17.6731 8.79233 17.6731H7.89633C7.57633 17.6731 7.363 17.5131 7.25633 17.1931L5.97633 13.9611C5.827 13.5344 5.65633 13.3211 5.46433 13.3211C5.27233 13.3211 5.17633 13.4811 5.17633 13.8011V22.1851C5.17633 22.5051 5.01633 22.6651 4.69633 22.6651H1.14433C0.824331 22.6651 0.664331 22.5051 0.664331 22.1851V0.745098C0.664331 0.425098 0.824331 0.265099 1.14433 0.265099H4.60033C4.94166 0.265099 5.14433 0.425098 5.20833 0.745098L7.96033 10.0571C8.003 10.1638 8.04566 10.2704 8.08833 10.3771C8.15233 10.4838 8.23767 10.5371 8.34433 10.5371ZM19.6108 22.6651C19.2908 22.6651 19.1308 22.5051 19.1308 22.1851V4.5851C19.1308 3.09177 19.4722 2.00377 20.1548 1.3211C20.8375 0.617098 21.7762 0.265099 22.9708 0.265099H27.0348C28.2295 0.265099 29.1682 0.617098 29.8508 1.3211C30.5548 2.00377 30.9068 3.09177 30.9068 4.5851V22.1851C30.9068 22.5051 30.7362 22.6651 30.3948 22.6651H26.9068C26.5655 22.6651 26.3948 22.5051 26.3948 22.1851V18.5051C26.3948 18.1851 26.2242 18.0251 25.8828 18.0251H24.0588C23.7815 18.0251 23.6428 18.1638 23.6428 18.4411V22.1851C23.6428 22.5051 23.4828 22.6651 23.1628 22.6651H19.6108ZM25.9468 14.1851C26.2455 14.1424 26.3948 13.9824 26.3948 13.7051V4.5211C26.3948 4.24377 26.2455 4.1051 25.9468 4.1051H24.0588C23.7815 4.1051 23.6428 4.24377 23.6428 4.5211V13.7051C23.6428 14.0251 23.8135 14.1851 24.1548 14.1851H25.9468ZM39.0321 18.5371C38.6907 18.5371 38.5201 18.6758 38.5201 18.9531V22.1851C38.5201 22.5051 38.3601 22.6651 38.0401 22.6651H34.4881C34.3601 22.6651 34.2427 22.6224 34.1361 22.5371C34.0507 22.4518 34.0081 22.3344 34.0081 22.1851V0.745098C34.0081 0.595765 34.0507 0.478432 34.1361 0.393099C34.2427 0.307765 34.3601 0.265099 34.4881 0.265099H41.8801C43.0747 0.265099 44.0134 0.617098 44.6961 1.3211C45.4001 2.00377 45.7521 3.09177 45.7521 4.5851V14.2171C45.7521 15.0704 45.6241 15.7744 45.3681 16.3291C45.1334 16.8838 44.8027 17.2998 44.3761 17.5771C44.2054 17.6838 44.1734 17.8864 44.2801 18.1851L45.8801 22.1211C45.9441 22.2704 45.9441 22.3984 45.8801 22.5051C45.8374 22.6118 45.7307 22.6651 45.5601 22.6651H42.0081C41.7307 22.6651 41.5281 22.5264 41.4001 22.2491L40.0241 18.7931C39.9601 18.6224 39.8321 18.5371 39.6401 18.5371H39.0321ZM41.2401 4.5851C41.2401 4.2651 41.0694 4.1051 40.7281 4.1051H38.9361C38.6587 4.1051 38.5201 4.24377 38.5201 4.5211V14.2171C38.5201 14.5371 38.6907 14.6971 39.0321 14.6971H40.8241C41.1014 14.6971 41.2401 14.5371 41.2401 14.2171V4.5851ZM53.1763 22.1851C53.1763 22.5051 53.0163 22.6651 52.6963 22.6651H49.1443C49.0163 22.6651 48.899 22.6224 48.7923 22.5371C48.707 22.4518 48.6643 22.3344 48.6643 22.1851V0.745098C48.6643 0.595765 48.707 0.478432 48.7923 0.393099C48.899 0.307765 49.0163 0.265099 49.1443 0.265099H52.6963C53.0163 0.265099 53.1763 0.425098 53.1763 0.745098V8.5211C53.1763 8.79843 53.2723 8.9371 53.4643 8.9371C53.635 8.9371 53.7737 8.8091 53.8803 8.5531L56.6323 0.681099C56.7177 0.403765 56.9097 0.265099 57.2083 0.265099H60.7603C60.931 0.265099 61.0377 0.318432 61.0803 0.425098C61.1443 0.531765 61.155 0.659765 61.1123 0.809099L57.8803 9.7051C57.8377 9.81177 57.8163 9.95043 57.8163 10.1211C57.8163 10.2918 57.8377 10.4304 57.8803 10.5371L62.1683 22.1211C62.211 22.2704 62.2003 22.3984 62.1363 22.5051C62.0937 22.6118 61.987 22.6651 61.8163 22.6651H58.2643C57.9657 22.6651 57.7737 22.5264 57.6883 22.2491L54.3923 13.2571C54.2857 12.9371 54.0937 12.7771 53.8163 12.7771H53.5923C53.4217 12.7771 53.3043 12.8304 53.2403 12.9371C53.1977 13.0438 53.1763 13.1611 53.1763 13.2891V22.1851ZM74.7811 22.6651C73.5864 22.6651 72.6477 22.3238 71.9651 21.6411C71.2824 20.9371 70.9411 19.8384 70.9411 18.3451V4.5851C70.9411 3.09177 71.2824 2.00377 71.9651 1.3211C72.6477 0.617098 73.5864 0.265099 74.7811 0.265099H78.8451C80.0397 0.265099 80.9784 0.617098 81.6611 1.3211C82.3651 2.00377 82.7171 3.09177 82.7171 4.5851V6.9531C82.7171 7.2731 82.5464 7.4331 82.2051 7.4331L78.7171 7.5611C78.3757 7.5611 78.2051 7.4011 78.2051 7.0811V4.5211C78.2051 4.24377 78.0344 4.1051 77.6931 4.1051H75.8691C75.5917 4.1051 75.4531 4.24377 75.4531 4.5211V18.3451C75.4531 18.6651 75.6237 18.8251 75.9651 18.8251H77.7571C78.0557 18.8251 78.2051 18.6864 78.2051 18.4091V16.0411C78.2051 15.7211 78.3757 15.5611 78.7171 15.5611L82.2051 15.4331C82.5464 15.4331 82.7171 15.5931 82.7171 15.9131V18.3451C82.7171 19.8384 82.3651 20.9371 81.6611 21.6411C80.9784 22.3238 80.0397 22.6651 78.8451 22.6651H74.7811ZM89.2833 22.6651C88.0887 22.6651 87.15 22.3238 86.4673 21.6411C85.7847 20.9371 85.4433 19.8384 85.4433 18.3451V0.713099C85.4433 0.414432 85.6033 0.265099 85.9233 0.265099H89.4753C89.7953 0.265099 89.9553 0.414432 89.9553 0.713099V18.4091C89.9553 18.6864 90.126 18.8251 90.4673 18.8251H92.5793C92.8567 18.8251 92.9953 18.6864 92.9953 18.4091L93.0273 0.713099C93.0273 0.414432 93.198 0.265099 93.5393 0.265099H97.0273C97.3687 0.265099 97.5393 0.414432 97.5393 0.713099V18.3451C97.5393 19.8384 97.198 20.9371 96.5153 21.6411C95.8327 22.3238 94.8833 22.6651 93.6673 22.6651H89.2833ZM112.697 8.7451C112.697 9.21443 112.59 9.65177 112.377 10.0571C112.185 10.4624 111.918 10.7824 111.577 11.0171C111.47 11.0811 111.417 11.1664 111.417 11.2731C111.417 11.3584 111.47 11.4438 111.577 11.5291C111.897 11.7638 112.164 12.0944 112.377 12.5211C112.59 12.9264 112.697 13.3638 112.697 13.8331V18.3451C112.697 19.8384 112.356 20.9371 111.673 21.6411C110.99 22.3238 110.041 22.6651 108.825 22.6651H101.113C100.985 22.6651 100.868 22.6224 100.761 22.5371C100.676 22.4518 100.633 22.3344 100.633 22.1851V0.745098C100.633 0.595765 100.676 0.478432 100.761 0.393099C100.868 0.307765 100.985 0.265099 101.113 0.265099H108.825C110.041 0.265099 110.99 0.617098 111.673 1.3211C112.356 2.00377 112.697 3.09177 112.697 4.5851V8.7451ZM107.769 18.8251C108.046 18.8251 108.185 18.6971 108.185 18.4411V13.9291C108.185 13.4384 107.929 13.1931 107.417 13.1931H105.561C105.433 13.1931 105.326 13.2464 105.241 13.3531C105.177 13.4384 105.145 13.5451 105.145 13.6731V18.3451C105.145 18.6651 105.316 18.8251 105.657 18.8251H107.769ZM108.185 4.5851C108.185 4.2651 108.025 4.1051 107.705 4.1051H105.657C105.316 4.1051 105.145 4.24377 105.145 4.5211V8.8731C105.145 9.1931 105.316 9.3531 105.657 9.3531H107.417C107.929 9.3531 108.185 9.11843 108.185 8.6491V4.5851ZM116.08 22.6651C115.76 22.6651 115.6 22.5051 115.6 22.1851V4.5851C115.6 3.09177 115.941 2.00377 116.624 1.3211C117.306 0.617098 118.245 0.265099 119.44 0.265099H123.504C124.698 0.265099 125.637 0.617098 126.32 1.3211C127.024 2.00377 127.376 3.09177 127.376 4.5851V22.1851C127.376 22.5051 127.205 22.6651 126.864 22.6651H123.376C123.034 22.6651 122.864 22.5051 122.864 22.1851V18.5051C122.864 18.1851 122.693 18.0251 122.352 18.0251H120.528C120.25 18.0251 120.112 18.1638 120.112 18.4411V22.1851C120.112 22.5051 119.952 22.6651 119.632 22.6651H116.08ZM122.416 14.1851C122.714 14.1424 122.864 13.9824 122.864 13.7051V4.5211C122.864 4.24377 122.714 4.1051 122.416 4.1051H120.528C120.25 4.1051 120.112 4.24377 120.112 4.5211V13.7051C120.112 14.0251 120.282 14.1851 120.624 14.1851H122.416ZM135.821 13.6091C135.671 13.1824 135.49 12.9691 135.277 12.9691C135.085 12.9691 134.989 13.1078 134.989 13.3851V22.1851C134.989 22.5051 134.829 22.6651 134.509 22.6651H130.957C130.637 22.6651 130.477 22.5051 130.477 22.1851V0.745098C130.477 0.425098 130.637 0.265099 130.957 0.265099H133.421C133.613 0.265099 133.751 0.307765 133.837 0.393099C133.943 0.457099 134.029 0.574432 134.093 0.745098L137.517 9.3211C137.709 9.74777 137.89 9.9611 138.061 9.9611C138.274 9.9611 138.381 9.82243 138.381 9.5451V0.745098C138.381 0.425098 138.53 0.265099 138.829 0.265099H142.413C142.711 0.265099 142.861 0.425098 142.861 0.745098V22.1851C142.861 22.5051 142.711 22.6651 142.413 22.6651H139.917C139.725 22.6651 139.575 22.6331 139.469 22.5691C139.383 22.4838 139.309 22.3558 139.245 22.1851L135.821 13.6091Z"/></svg>