<svg width="24" height="25" viewBox="0 0 24 25" fill="none" xmlns="http://www.w3.org/2000/svg">
<path fill-rule="evenodd" clip-rule="evenodd" d="M16.5 12.9509C16.8924 12.9509 17.2105 13.269 17.2105 13.6614V13.9693C17.6641 14.0614 18.0863 14.2399 18.4592 14.4869L18.8397 14.1064C19.1172 13.8289 19.567 13.8289 19.8445 14.1064C20.122 14.3839 20.122 14.8337 19.8445 15.1112L19.464 15.4917C19.711 15.8646 19.8895 16.2868 19.9815 16.7404H20.2895C20.6819 16.7404 21 17.0585 21 17.4509C21 17.8433 20.6819 18.1614 20.2895 18.1614H19.9815C19.8895 18.615 19.711 19.0372 19.464 19.4101L19.8445 19.7906C20.122 20.0681 20.122 20.518 19.8445 20.7954C19.567 21.0729 19.1172 21.0729 18.8397 20.7954L18.4592 20.4149C18.0863 20.6619 17.6641 20.8404 17.2105 20.9324V21.2404C17.2105 21.6328 16.8924 21.9509 16.5 21.9509C16.1076 21.9509 15.7895 21.6328 15.7895 21.2404V20.9324C15.3359 20.8404 14.9137 20.6619 14.5408 20.4149L14.1603 20.7954C13.8828 21.0729 13.4329 21.0729 13.1555 20.7954C12.878 20.518 12.878 20.0681 13.1555 19.7906L13.536 19.4101C13.289 19.0372 13.1105 18.615 13.0184 18.1614H12.7105C12.3181 18.1614 12 17.8433 12 17.4509C12 17.0585 12.3181 16.7404 12.7105 16.7404H13.0184C13.1105 16.2868 13.289 15.8646 13.536 15.4917L13.1555 15.1112C12.878 14.8337 12.878 14.3839 13.1555 14.1064C13.4329 13.8289 13.8828 13.8289 14.1603 14.1064L14.5408 14.4869C14.9137 14.2399 15.3359 14.0614 15.7895 13.9693V13.6614C15.7895 13.269 16.1076 12.9509 16.5 12.9509Z" fill="#9C30B7"/>
<path d="M5 18.4516C3.89543 18.4516 3 17.5562 3 16.4516L3 5.45163C3 4.34706 3.89543 3.45163 5 3.45163L16 3.45163C17.1046 3.45163 18 4.34706 18 5.45163L18 16.4516C18 17.5562 17.1046 18.4516 16 18.4516L5 18.4516Z" fill="url(#paint0_linear_618_1490)" fill-opacity="0.8"/>
<path d="M6.5 8.45163H14.5" stroke="white" stroke-width="1.5" stroke-linecap="round" stroke-linejoin="round"/>
<path d="M8.5 7.45163V9.45163" stroke="white" stroke-width="1.5" stroke-linecap="round" stroke-linejoin="round"/>
<path d="M6.5 13.4516H14.5" stroke="white" stroke-width="1.5" stroke-linecap="round" stroke-linejoin="round"/>
<path d="M12.5 12.4516V14.4516" stroke="white" stroke-width="1.5" stroke-linecap="round" stroke-linejoin="round"/>
<defs>
<linearGradient id="paint0_linear_618_1490" x1="3" y1="10.9516" x2="18" y2="10.9516" gradientUnits="userSpaceOnUse">
<stop stop-color="#E5A1F5"/>
<stop offset="1" stop-color="#E169FF"/>
</linearGradient>
</defs>
</svg>
