<svg width="25" height="25" viewBox="0 0 25 25" fill="none" xmlns="http://www.w3.org/2000/svg">
<g filter="url(#filter0_i_195_3495)">
<path d="M5.90515 4.53992C5.90515 3.71149 6.57672 3.03992 7.40515 3.03992H18.0109C18.8393 3.03992 19.5109 3.71149 19.5109 4.53992V19.5399C19.5109 20.3683 18.8393 21.0399 18.0109 21.0399H7.40515C6.57672 21.0399 5.90515 20.3683 5.90515 19.5399V4.53992Z" fill="#EBA4D2" fill-opacity="0.8"/>
</g>
<path d="M22.5132 13.6674C23.1798 14.0523 23.1799 15.0146 22.5132 15.3995L16.5842 18.8226C15.9175 19.2075 15.0842 18.7264 15.0842 17.9566L15.0842 11.1104C15.0842 10.3406 15.9175 9.85944 16.5842 10.2443L22.5132 13.6674Z" fill="url(#paint0_linear_195_3495)"/>
<path d="M9.70801 7.03992L15.708 7.04002" stroke="white" stroke-width="1.5" stroke-linecap="round"/>
<path d="M9.70801 10.0399L12.708 10.04" stroke="white" stroke-width="1.5" stroke-linecap="round"/>
<defs>
<filter id="filter0_i_195_3495" x="5.90515" y="3.03992" width="13.6057" height="18.1" filterUnits="userSpaceOnUse" color-interpolation-filters="sRGB">
<feFlood flood-opacity="0" result="BackgroundImageFix"/>
<feBlend mode="normal" in="SourceGraphic" in2="BackgroundImageFix" result="shape"/>
<feColorMatrix in="SourceAlpha" type="matrix" values="0 0 0 0 0 0 0 0 0 0 0 0 0 0 0 0 0 0 127 0" result="hardAlpha"/>
<feOffset dy="0.2"/>
<feGaussianBlur stdDeviation="0.05"/>
<feComposite in2="hardAlpha" operator="arithmetic" k2="-1" k3="1"/>
<feColorMatrix type="matrix" values="0 0 0 0 1 0 0 0 0 1 0 0 0 0 1 0 0 0 1 0"/>
<feBlend mode="normal" in2="shape" result="effect1_innerShadow_195_3495"/>
</filter>
<linearGradient id="paint0_linear_195_3495" x1="13.9344" y1="3.9956" x2="26.9521" y2="19.3503" gradientUnits="userSpaceOnUse">
<stop stop-color="#F4009F"/>
<stop offset="1" stop-color="#F856C8"/>
</linearGradient>
</defs>
</svg>
