<svg width="25" height="25" viewBox="0 0 25 25" fill="none" xmlns="http://www.w3.org/2000/svg">
<path d="M4.59827 8.06616V5.03402C4.59827 3.34421 6.56406 2.41595 7.86897 3.48957L20.5435 13.9176C21.0052 14.2975 21.2728 14.8641 21.2728 15.462V18.9322C21.2728 20.641 19.2683 21.5628 17.971 20.4506L5.29653 9.58454C4.85333 9.20458 4.59827 8.64994 4.59827 8.06616Z" fill="url(#paint0_linear_195_3394)"/>
<g filter="url(#filter0_bi_195_3394)">
<path d="M21.2726 8.06616V5.03402C21.2726 3.34421 19.3068 2.41595 18.0019 3.48957L5.32737 13.9176C4.86562 14.2975 4.59807 14.8641 4.59807 15.462V18.9322C4.59807 20.641 6.6025 21.5628 7.89981 20.4506L20.5743 9.58454C21.0175 9.20458 21.2726 8.64994 21.2726 8.06616Z" fill="#EBA4D2" fill-opacity="0.8"/>
</g>
<defs>
<filter id="filter0_bi_195_3394" x="2.59802" y="1.03027" width="20.6746" height="21.9058" filterUnits="userSpaceOnUse" color-interpolation-filters="sRGB">
<feFlood flood-opacity="0" result="BackgroundImageFix"/>
<feGaussianBlur in="BackgroundImageFix" stdDeviation="1"/>
<feComposite in2="SourceAlpha" operator="in" result="effect1_backgroundBlur_195_3394"/>
<feBlend mode="normal" in="SourceGraphic" in2="effect1_backgroundBlur_195_3394" result="shape"/>
<feColorMatrix in="SourceAlpha" type="matrix" values="0 0 0 0 0 0 0 0 0 0 0 0 0 0 0 0 0 0 127 0" result="hardAlpha"/>
<feOffset dy="0.2"/>
<feGaussianBlur stdDeviation="0.05"/>
<feComposite in2="hardAlpha" operator="arithmetic" k2="-1" k3="1"/>
<feColorMatrix type="matrix" values="0 0 0 0 1 0 0 0 0 1 0 0 0 0 1 0 0 0 1 0"/>
<feBlend mode="normal" in2="shape" result="effect2_innerShadow_195_3394"/>
</filter>
<linearGradient id="paint0_linear_195_3394" x1="-1.82375" y1="19.8319" x2="24.6662" y2="3.17552" gradientUnits="userSpaceOnUse">
<stop stop-color="#F4009F"/>
<stop offset="1" stop-color="#F856C8"/>
</linearGradient>
</defs>
</svg>
