<svg width="37" height="58" viewBox="0 0 37 58" fill="none" xmlns="http://www.w3.org/2000/svg">
<path opacity="0.45" d="M26 6L18.6629 19H4L11.3315 6H26Z" fill="url(#paint0_linear_158_1235)"/>
<path opacity="0.6" d="M18.3315 19H33L25.6685 6H11L18.3315 19Z" fill="url(#paint1_linear_158_1235)"/>
<path opacity="0.8" d="M11.5 32L19 19.0028L11.5 6L4 19.0028L11.5 32Z" fill="url(#paint2_linear_158_1235)"/>
<path opacity="0.45" d="M11 51L18.3352 38H33L25.6648 51H11Z" fill="url(#paint3_linear_158_1235)"/>
<path opacity="0.6" d="M18.6685 38H4L11.3315 51H26L18.6685 38Z" fill="url(#paint4_linear_158_1235)"/>
<path opacity="0.8" d="M25.9973 25L19 37.9972L25.9973 51L33 37.9972L25.9973 25Z" fill="url(#paint5_linear_158_1235)"/>
<defs>
<linearGradient id="paint0_linear_158_1235" x1="13.1007" y1="21.4375" x2="13.1007" y2="6" gradientUnits="userSpaceOnUse">
<stop stop-color="#6891F7"/>
<stop offset="1" stop-color="#A7BFFA"/>
</linearGradient>
<linearGradient id="paint1_linear_158_1235" x1="20.1007" y1="21.4375" x2="20.1007" y2="6" gradientUnits="userSpaceOnUse">
<stop stop-color="#6891F7"/>
<stop offset="1" stop-color="#A7BFFA"/>
</linearGradient>
<linearGradient id="paint2_linear_158_1235" x1="10.205" y1="36.875" x2="10.205" y2="6" gradientUnits="userSpaceOnUse">
<stop stop-color="#6891F7"/>
<stop offset="1" stop-color="#A7BFFA"/>
</linearGradient>
<linearGradient id="paint3_linear_158_1235" x1="20.1007" y1="53.4375" x2="20.1007" y2="38" gradientUnits="userSpaceOnUse">
<stop stop-color="#6891F7"/>
<stop offset="1" stop-color="#A7BFFA"/>
</linearGradient>
<linearGradient id="paint4_linear_158_1235" x1="13.1007" y1="53.4375" x2="13.1007" y2="38" gradientUnits="userSpaceOnUse">
<stop stop-color="#6891F7"/>
<stop offset="1" stop-color="#A7BFFA"/>
</linearGradient>
<linearGradient id="paint5_linear_158_1235" x1="24.7914" y1="55.875" x2="24.7914" y2="25" gradientUnits="userSpaceOnUse">
<stop stop-color="#6891F7"/>
<stop offset="1" stop-color="#A7BFFA"/>
</linearGradient>
</defs>
</svg>
