<svg width="49" height="49" viewBox="0 0 49 49" fill="none" xmlns="http://www.w3.org/2000/svg">
<path d="M14.2916 12.25H34.7083C37.9572 12.25 41.073 13.5406 43.3704 15.8379C45.6677 18.1353 46.9583 21.2511 46.9583 24.5C46.9583 27.7489 45.6677 30.8647 43.3704 33.1621C41.073 35.4594 37.9572 36.75 34.7083 36.75C31.0741 36.75 27.8279 35.1779 25.582 32.6667H23.4179C21.172 35.1779 17.9258 36.75 14.2916 36.75C11.0427 36.75 7.92689 35.4594 5.62957 33.1621C3.33225 30.8647 2.04163 27.7489 2.04163 24.5C2.04163 21.2511 3.33225 18.1353 5.62957 15.8379C7.92689 13.5406 11.0427 12.25 14.2916 12.25ZM12.25 18.375V22.4583H8.16663V26.5417H12.25V30.625H16.3333V26.5417H20.4166V22.4583H16.3333V18.375H12.25ZM31.6458 24.5C30.8336 24.5 30.0546 24.8227 29.4803 25.397C28.9059 25.9713 28.5833 26.7503 28.5833 27.5625C28.5833 28.3747 28.9059 29.1537 29.4803 29.728C30.0546 30.3023 30.8336 30.625 31.6458 30.625C32.458 30.625 33.237 30.3023 33.8113 29.728C34.3856 29.1537 34.7083 28.3747 34.7083 27.5625C34.7083 26.7503 34.3856 25.9713 33.8113 25.397C33.237 24.8227 32.458 24.5 31.6458 24.5ZM37.7708 18.375C36.9586 18.375 36.1796 18.6977 35.6053 19.272C35.031 19.8463 34.7083 20.6253 34.7083 21.4375C34.7083 22.2497 35.031 23.0287 35.6053 23.603C36.1796 24.1773 36.9586 24.5 37.7708 24.5C38.583 24.5 39.362 24.1773 39.9363 23.603C40.5106 23.0287 40.8333 22.2497 40.8333 21.4375C40.8333 20.6253 40.5106 19.8463 39.9363 19.272C39.362 18.6977 38.583 18.375 37.7708 18.375Z" fill="url(#paint0_linear_160_1326)"/>
<defs>
<linearGradient id="paint0_linear_160_1326" x1="20.6223" y1="41.3437" x2="20.6223" y2="12.25" gradientUnits="userSpaceOnUse">
<stop stop-color="#6891F7"/>
<stop offset="1" stop-color="#A7BFFA"/>
</linearGradient>
</defs>
</svg>
