<svg width="48" height="48" viewBox="0 0 48 48" fill="none" xmlns="http://www.w3.org/2000/svg">
<path d="M18 44C17.4333 44 16.958 43.808 16.574 43.424C16.19 43.04 15.9987 42.5653 16 42C16 41.4333 16.192 40.958 16.576 40.574C16.96 40.19 17.4347 39.9987 18 40H20V36H8C6.9 36 5.958 35.608 5.174 34.824C4.39 34.04 3.99867 33.0987 4 32V10C4 8.9 4.392 7.958 5.176 7.174C5.96 6.39 6.90134 5.99867 8 6H40C41.1 6 42.042 6.392 42.826 7.176C43.61 7.96 44.0013 8.90134 44 10V32C44 33.1 43.608 34.042 42.824 34.826C42.04 35.61 41.0987 36.0013 40 36H28V40H30C30.5667 40 31.042 40.192 31.426 40.576C31.81 40.96 32.0013 41.4347 32 42C32 42.5667 31.808 43.042 31.424 43.426C31.04 43.81 30.5653 44.0013 30 44H18Z" fill="url(#paint0_linear_160_1301)"/>
<rect x="8" y="10" width="32" height="21" rx="4" fill="#5B81E2"/>
<defs>
<linearGradient id="paint0_linear_160_1301" x1="20.5468" y1="51.125" x2="20.5468" y2="6" gradientUnits="userSpaceOnUse">
<stop stop-color="#6891F7"/>
<stop offset="1" stop-color="#A7BFFA"/>
</linearGradient>
</defs>
</svg>
