<svg width="61" height="55" viewBox="0 0 61 55" fill="none" xmlns="http://www.w3.org/2000/svg">
<rect y="0.0396118" width="61" height="54.9604" rx="14.495" fill="#0F0F0F"/>
<path d="M35.7733 34.4L31 31.3333L26.2267 34.4L27.6667 28.9067L23.28 25.3333L28.9467 24.9867L31 19.7333L33.0533 24.9867L38.72 25.3333L34.3333 28.9067M41.6667 28C41.6667 27.2928 41.9476 26.6145 42.4477 26.1144C42.9478 25.6143 43.6261 25.3333 44.3333 25.3333V20C44.3333 19.2928 44.0524 18.6145 43.5523 18.1144C43.0522 17.6143 42.3739 17.3333 41.6667 17.3333H20.3333C19.6261 17.3333 18.9478 17.6143 18.4477 18.1144C17.9476 18.6145 17.6667 19.2928 17.6667 20V25.3333C18.3739 25.3333 19.0522 25.6143 19.5523 26.1144C20.0524 26.6145 20.3333 27.2928 20.3333 28C20.3333 28.7073 20.0524 29.3855 19.5523 29.8856C19.0522 30.3857 18.3739 30.6667 17.6667 30.6667V36C17.6667 36.7073 17.9476 37.3855 18.4477 37.8856C18.9478 38.3857 19.6261 38.6667 20.3333 38.6667H41.6667C42.3739 38.6667 43.0522 38.3857 43.5523 37.8856C44.0524 37.3855 44.3333 36.7073 44.3333 36V30.6667C43.6261 30.6667 42.9478 30.3857 42.4477 29.8856C41.9476 29.3855 41.6667 28.7073 41.6667 28Z" fill="black"/>
<path d="M35.7733 34.4L31 31.3333L26.2267 34.4L27.6667 28.9067L23.28 25.3333L28.9467 24.9867L31 19.7333L33.0533 24.9867L38.72 25.3333L34.3333 28.9067M41.6667 28C41.6667 27.2928 41.9476 26.6145 42.4477 26.1144C42.9478 25.6143 43.6261 25.3333 44.3333 25.3333V20C44.3333 19.2928 44.0524 18.6145 43.5523 18.1144C43.0522 17.6143 42.3739 17.3333 41.6667 17.3333H20.3333C19.6261 17.3333 18.9478 17.6143 18.4477 18.1144C17.9476 18.6145 17.6667 19.2928 17.6667 20V25.3333C18.3739 25.3333 19.0522 25.6143 19.5523 26.1144C20.0524 26.6145 20.3333 27.2928 20.3333 28C20.3333 28.7073 20.0524 29.3855 19.5523 29.8856C19.0522 30.3857 18.3739 30.6667 17.6667 30.6667V36C17.6667 36.7073 17.9476 37.3855 18.4477 37.8856C18.9478 38.3857 19.6261 38.6667 20.3333 38.6667H41.6667C42.3739 38.6667 43.0522 38.3857 43.5523 37.8856C44.0524 37.3855 44.3333 36.7073 44.3333 36V30.6667C43.6261 30.6667 42.9478 30.3857 42.4477 29.8856C41.9476 29.3855 41.6667 28.7073 41.6667 28Z" fill="url(#paint0_linear_180_154)"/>
<defs>
<linearGradient id="paint0_linear_180_154" x1="46.2759" y1="27.6322" x2="21.6006" y2="41.3362" gradientUnits="userSpaceOnUse">
<stop stop-color="#3385FF"/>
<stop offset="0.791667" stop-color="#91B7F0"/>
<stop offset="1" stop-color="#95BBF2"/>
</linearGradient>
</defs>
</svg>
