<svg width="61" height="55" viewBox="0 0 61 55" fill="none" xmlns="http://www.w3.org/2000/svg">
<rect y="0.0396118" width="61" height="54.9604" rx="14.495" fill="#0F0F0F"/>
<path d="M31 28C29.35 28 27.9375 27.4125 26.7625 26.2375C25.5875 25.0625 25 23.65 25 22C25 20.35 25.5875 18.9375 26.7625 17.7625C27.9375 16.5875 29.35 16 31 16C32.65 16 34.0625 16.5875 35.2375 17.7625C36.4125 18.9375 37 20.35 37 22C37 23.65 36.4125 25.0625 35.2375 26.2375C34.0625 27.4125 32.65 28 31 28ZM19 40V35.8C19 34.95 19.219 34.1685 19.657 33.4555C20.095 32.7425 20.676 32.199 21.4 31.825C22.95 31.05 24.525 30.4685 26.125 30.0805C27.725 29.6925 29.35 29.499 31 29.5C32.65 29.5 34.275 29.694 35.875 30.082C37.475 30.47 39.05 31.051 40.6 31.825C41.325 32.2 41.9065 32.744 42.3445 33.457C42.7825 34.17 43.001 34.951 43 35.8V40H19Z" fill="black"/>
<path d="M31 28C29.35 28 27.9375 27.4125 26.7625 26.2375C25.5875 25.0625 25 23.65 25 22C25 20.35 25.5875 18.9375 26.7625 17.7625C27.9375 16.5875 29.35 16 31 16C32.65 16 34.0625 16.5875 35.2375 17.7625C36.4125 18.9375 37 20.35 37 22C37 23.65 36.4125 25.0625 35.2375 26.2375C34.0625 27.4125 32.65 28 31 28ZM19 40V35.8C19 34.95 19.219 34.1685 19.657 33.4555C20.095 32.7425 20.676 32.199 21.4 31.825C22.95 31.05 24.525 30.4685 26.125 30.0805C27.725 29.6925 29.35 29.499 31 29.5C32.65 29.5 34.275 29.694 35.875 30.082C37.475 30.47 39.05 31.051 40.6 31.825C41.325 32.2 41.9065 32.744 42.3445 33.457C42.7825 34.17 43.001 34.951 43 35.8V40H19Z" fill="url(#paint0_linear_180_136)"/>
<defs>
<linearGradient id="paint0_linear_180_136" x1="44.7484" y1="27.5862" x2="20.4811" y2="38.3681" gradientUnits="userSpaceOnUse">
<stop stop-color="#3385FF"/>
<stop offset="0.791667" stop-color="#91B7F0"/>
<stop offset="1" stop-color="#95BBF2"/>
</linearGradient>
</defs>
</svg>
