<svg width="29" height="29" viewBox="0 0 29 29" fill="none" xmlns="http://www.w3.org/2000/svg">
<path fill-rule="evenodd" clip-rule="evenodd" d="M15.4242 1.62886L22.0994 13.3105C22.3575 13.7621 22.2263 14.3361 21.7977 14.6307L15.1225 19.2199C14.7812 19.4546 14.3307 19.4546 13.9894 19.2199L7.31419 14.6307C6.88561 14.3361 6.75444 13.7621 7.01248 13.3105L13.6877 1.62886C14.0716 0.957046 15.0403 0.957047 15.4242 1.62886ZM8.43678 17.79L14.2587 21.8996C14.4359 22.0247 14.6735 22.0213 14.847 21.8911L20.2208 17.8608C20.6705 17.5235 21.2486 18.0704 20.9368 18.5382L14.9595 27.5041C14.7649 27.796 14.3382 27.802 14.1355 27.5158L7.74043 18.4875C7.41557 18.0289 7.97763 17.4659 8.43678 17.79Z" fill="url(#paint0_linear_470_20935)"/>
<defs>
<linearGradient id="paint0_linear_470_20935" x1="22.2313" y1="-1.62976" x2="-14.511" y2="23.2322" gradientUnits="userSpaceOnUse">
<stop stop-color="#F213A4"/>
<stop offset="1" stop-color="#FFDCF5"/>
</linearGradient>
</defs>
</svg>
