<svg width="28" height="28" viewBox="0 0 28 28" fill="none" xmlns="http://www.w3.org/2000/svg">
<path fill-rule="evenodd" clip-rule="evenodd" d="M20.075 4.9079C20.3203 4.66257 20.653 4.52474 21 4.52474C21.1718 4.52474 21.3419 4.55858 21.5006 4.62432C21.6594 4.69006 21.8036 4.78643 21.925 4.9079C22.0465 5.02938 22.1429 5.1736 22.2086 5.33232C22.2744 5.49104 22.3082 5.66115 22.3082 5.83295C22.3082 6.00474 22.2744 6.17486 22.2086 6.33358C22.1429 6.49229 22.0465 6.63651 21.925 6.75799L7.57021 21.1128L5.10343 21.7295L5.72013 19.2627L20.075 4.9079ZM21 2.19141C20.0342 2.19141 19.108 2.57507 18.425 3.25799L3.84171 17.8413C3.69219 17.9908 3.58612 18.1782 3.53484 18.3833L2.36817 23.05C2.26878 23.4476 2.38527 23.8681 2.67505 24.1579C2.96482 24.4477 3.38539 24.5642 3.78296 24.4648L8.44963 23.2981C8.65477 23.2468 8.84211 23.1408 8.99163 22.9912L23.575 8.4079C23.9131 8.06976 24.1813 7.66832 24.3643 7.2265C24.5474 6.78469 24.6415 6.31116 24.6415 5.83295C24.6415 5.35473 24.5474 4.8812 24.3643 4.43939C24.1813 3.99758 23.9131 3.59614 23.575 3.25799C23.2368 2.91984 22.8354 2.65161 22.3936 2.4686C21.9517 2.2856 21.4782 2.19141 21 2.19141ZM14 22.1663C13.3557 22.1663 12.8333 22.6886 12.8333 23.3329C12.8333 23.9773 13.3557 24.4996 14 24.4996H24.5C25.1443 24.4996 25.6667 23.9773 25.6667 23.3329C25.6667 22.6886 25.1443 22.1663 24.5 22.1663H14Z" fill="url(#paint0_linear_470_20957)"/>
<defs>
<linearGradient id="paint0_linear_470_20957" x1="25.6667" y1="-0.118728" x2="-6.84591" y2="39.7576" gradientUnits="userSpaceOnUse">
<stop stop-color="#F213A4"/>
<stop offset="1" stop-color="#FFDCF5"/>
</linearGradient>
</defs>
</svg>
