<svg width="28" height="29" viewBox="0 0 28 29" fill="none" xmlns="http://www.w3.org/2000/svg">
<path fill-rule="evenodd" clip-rule="evenodd" d="M8.22529 3.68395C9.75684 2.15241 11.8341 1.29199 14 1.29199C16.1659 1.29199 18.2432 2.15241 19.7747 3.68395C21.3062 5.2155 22.1667 7.29272 22.1667 9.45866C22.1667 11.2535 21.4806 13.0902 20.0548 14.3871C19.2124 15.2329 18.8118 15.8484 18.644 16.6875C18.5176 17.3193 17.903 17.729 17.2712 17.6027C16.6394 17.4763 16.2296 16.8617 16.356 16.2299C16.6535 14.7422 17.4146 13.7275 18.425 12.717C18.4395 12.7026 18.4543 12.6885 18.4695 12.6748C19.3606 11.8729 19.8333 10.6869 19.8333 9.45866C19.8333 7.91156 19.2187 6.42783 18.1248 5.33387C17.0308 4.23991 15.5471 3.62533 14 3.62533C12.4529 3.62533 10.9692 4.23991 9.87521 5.33387C8.78124 6.42783 8.16666 7.91156 8.16666 9.45866C8.16666 10.397 8.3284 11.4705 9.57495 12.717C10.4572 13.5993 11.3445 14.7323 11.644 16.2299C11.7704 16.8617 11.3606 17.4763 10.7288 17.6027C10.097 17.729 9.48235 17.3193 9.35598 16.6875C9.18883 15.8517 8.6761 15.118 7.92504 14.367C6.13825 12.5802 5.83333 10.8537 5.83333 9.45866C5.83333 7.29272 6.69374 5.2155 8.22529 3.68395ZM9.33333 21.1253C9.33333 20.481 9.85566 19.9587 10.5 19.9587H17.5C18.1443 19.9587 18.6667 20.481 18.6667 21.1253C18.6667 21.7697 18.1443 22.292 17.5 22.292H10.5C9.85566 22.292 9.33333 21.7697 9.33333 21.1253ZM11.6667 24.6254C11.0223 24.6254 10.5 25.1477 10.5 25.792C10.5 26.4364 11.0223 26.9587 11.6667 26.9587H16.3333C16.9777 26.9587 17.5 26.4364 17.5 25.792C17.5 25.1477 16.9777 24.6254 16.3333 24.6254H11.6667Z" fill="url(#paint0_linear_470_20823)"/>
<defs>
<linearGradient id="paint0_linear_470_20823" x1="22.1667" y1="-1.36593" x2="-14.4428" y2="25.9521" gradientUnits="userSpaceOnUse">
<stop stop-color="#F213A4"/>
<stop offset="1" stop-color="#FFDCF5"/>
</linearGradient>
</defs>
</svg>
