<svg width="29" height="29" viewBox="0 0 29 29" fill="none" xmlns="http://www.w3.org/2000/svg">
<path fill-rule="evenodd" clip-rule="evenodd" d="M5.54726 5.95801C5.54726 5.31901 6.07493 4.79134 6.71393 4.79134H9.04726C9.69159 4.79134 10.2139 4.26901 10.2139 3.62467C10.2139 2.98034 9.69159 2.45801 9.04726 2.45801H6.71393C4.78626 2.45801 3.21393 4.03034 3.21393 5.95801V8.29134C3.21393 8.93567 3.73626 9.45801 4.38059 9.45801C5.02493 9.45801 5.54726 8.93567 5.54726 8.29134V5.95801ZM20.7139 2.45801C20.0696 2.45801 19.5473 2.98034 19.5473 3.62467C19.5473 4.26901 20.0696 4.79134 20.7139 4.79134H23.0473C23.6863 4.79134 24.2139 5.31901 24.2139 5.95801V8.29134C24.2139 8.93567 24.7363 9.45801 25.3806 9.45801C26.0249 9.45801 26.5473 8.93567 26.5473 8.29134V5.95801C26.5473 4.03034 24.9749 2.45801 23.0473 2.45801H20.7139ZM25.3806 18.7913C26.0249 18.7913 26.5473 19.3137 26.5473 19.958V22.2913C26.5473 24.219 24.9749 25.7913 23.0473 25.7913H20.7139C20.0696 25.7913 19.5473 25.269 19.5473 24.6247C19.5473 23.9803 20.0696 23.458 20.7139 23.458H23.0473C23.6863 23.458 24.2139 22.9303 24.2139 22.2913V19.958C24.2139 19.3137 24.7363 18.7913 25.3806 18.7913ZM5.54726 19.958C5.54726 19.3137 5.02493 18.7913 4.38059 18.7913C3.73626 18.7913 3.21393 19.3137 3.21393 19.958V22.2913C3.21393 24.219 4.78626 25.7913 6.71393 25.7913H9.04726C9.69159 25.7913 10.2139 25.269 10.2139 24.6247C10.2139 23.9803 9.69159 23.458 9.04726 23.458H6.71393C6.07493 23.458 5.54726 22.9303 5.54726 22.2913V19.958ZM7.88059 9.45803C7.88059 8.16936 8.92526 7.12469 10.2139 7.12469H16.0473C17.3359 7.12469 18.3806 8.16936 18.3806 9.45803V12.958H19.5473C20.8359 12.958 21.8806 14.0027 21.8806 15.2913V18.7913C21.8806 20.08 20.8359 21.1247 19.5473 21.1247H13.7139C12.4253 21.1247 11.3806 20.08 11.3806 18.7913V15.2914H10.2139C8.92526 15.2914 7.88059 14.2467 7.88059 12.958V9.45803ZM16.0473 12.958H13.7139C13.7106 12.958 13.7073 12.958 13.7039 12.958H10.2139V9.45803H16.0473V12.958ZM13.7139 15.2914V18.7913H19.5473V15.2913H16.057C16.0538 15.2914 16.0505 15.2914 16.0473 15.2914H13.7139Z" fill="url(#paint0_linear_470_20847)"/>
<defs>
<linearGradient id="paint0_linear_470_20847" x1="26.5473" y1="0.0417209" x2="-7.73494" y2="40.2412" gradientUnits="userSpaceOnUse">
<stop stop-color="#F213A4"/>
<stop offset="1" stop-color="#FFDCF5"/>
</linearGradient>
</defs>
</svg>
