<svg width="29" height="28" viewBox="0 0 29 28" fill="none" xmlns="http://www.w3.org/2000/svg">
<path fill-rule="evenodd" clip-rule="evenodd" d="M12.206 5.0087C12.6616 5.46431 12.6616 6.20301 12.206 6.65862L7.53931 11.3253C7.0837 11.7809 6.34501 11.7809 5.8894 11.3253L3.55606 8.99195C3.10045 8.53634 3.10045 7.79765 3.55606 7.34203C4.01168 6.88642 4.75037 6.88642 5.20598 7.34203L6.71436 8.85041L10.5561 5.0087C11.0117 4.55309 11.7504 4.55309 12.206 5.0087ZM12.206 16.6753C12.6616 17.1309 12.6616 17.8696 12.206 18.3252L7.53931 22.9919C7.0837 23.4475 6.34501 23.4475 5.8894 22.9919L3.55606 20.6586C3.10045 20.203 3.10045 19.4643 3.55606 19.0087C4.01168 18.553 4.75037 18.553 5.20598 19.0087L6.71436 20.517L10.5561 16.6753C11.0117 16.2197 11.7504 16.2197 12.206 16.6753ZM16.0476 5.83362C15.4033 5.83362 14.881 6.35595 14.881 7.00028C14.881 7.64462 15.4033 8.16695 16.0476 8.16695H25.381C26.0253 8.16695 26.5476 7.64462 26.5476 7.00028C26.5476 6.35595 26.0253 5.83362 25.381 5.83362H16.0476ZM14.881 14.0003C14.881 13.356 15.4033 12.8336 16.0476 12.8336H25.381C26.0253 12.8336 26.5476 13.356 26.5476 14.0003C26.5476 14.6446 26.0253 15.167 25.381 15.167H16.0476C15.4033 15.167 14.881 14.6446 14.881 14.0003ZM16.0476 19.8336C15.4033 19.8336 14.881 20.356 14.881 21.0003C14.881 21.6446 15.4033 22.167 16.0476 22.167H25.381C26.0253 22.167 26.5476 21.6446 26.5476 21.0003C26.5476 20.356 26.0253 19.8336 25.381 19.8336H16.0476Z" fill="url(#paint0_linear_470_20761)"/>
<defs>
<linearGradient id="paint0_linear_470_20761" x1="31.2779" y1="3.24083" x2="5.41281" y2="31.4763" gradientUnits="userSpaceOnUse">
<stop stop-color="#1F7AFF"/>
<stop offset="1" stop-color="#C9E1FF"/>
</linearGradient>
</defs>
</svg>
