<svg width="29" height="28" viewBox="0 0 29 28" fill="none" xmlns="http://www.w3.org/2000/svg">
<path fill-rule="evenodd" clip-rule="evenodd" d="M9.04746 1.16504C7.99567 1.16504 6.98669 1.58155 6.24116 2.32347L6.23917 2.32546L3.20583 5.35879L3.20384 5.36079C2.46192 6.10632 2.04541 7.1153 2.04541 8.16709C2.04541 9.21887 2.46192 10.2279 3.20384 10.9734L3.20583 10.9754L7.39751 15.1671L4.13913 18.4254C3.99557 18.569 3.89195 18.7475 3.83853 18.9434L2.08853 25.3601C1.97837 25.764 2.09309 26.196 2.38913 26.492C2.68517 26.788 3.11715 26.9028 3.52106 26.7926L9.93773 25.0426C10.1336 24.9892 10.3122 24.8856 10.4557 24.742L13.7141 21.4836L17.9058 25.6753C19.4581 27.2276 21.9701 27.2276 23.5224 25.6753L26.5557 22.642C28.108 21.0897 28.108 18.5777 26.5557 17.0254L25.0432 15.5129C25.0418 15.5115 25.0405 15.5101 25.0391 15.5088C25.0377 15.5074 25.0363 15.506 25.0349 15.5046L22.364 12.8337L23.8677 11.33L23.8724 11.3253L23.8771 11.3207L26.404 8.79367C27.2417 7.95604 27.7123 6.81997 27.7123 5.63538C27.7123 4.45079 27.2417 3.31472 26.404 2.47709C25.5664 1.63946 24.4303 1.16888 23.2458 1.16888C22.0612 1.16888 20.9251 1.63946 20.0875 2.47709L17.5558 5.00876L16.0474 6.51713L11.8558 2.32546L11.8538 2.32347C11.1082 1.58155 10.0992 1.16504 9.04746 1.16504ZM19.8891 12.0088L21.3975 10.5004L18.3808 7.48362L16.8802 8.98423L16.8724 8.99204L16.8646 8.99979L9.88015 15.9842L9.87242 15.992L9.86461 15.9998L6.00813 19.8563L4.87685 24.0043L9.02488 22.873L12.8891 19.0088L19.8891 12.0088ZM15.364 19.8337L20.7141 14.4836L22.5642 16.3337L21.0558 17.8421C20.6002 18.2977 20.6002 19.0364 21.0558 19.492C21.5114 19.9476 22.2501 19.9476 22.7057 19.492L24.2141 17.9836L24.9058 18.6753C25.5469 19.3164 25.5469 20.351 24.9058 20.9921L21.8725 24.0254C21.2314 24.6665 20.1968 24.6665 19.5557 24.0254L15.364 19.8337ZM14.3975 8.16705L12.5474 6.31699L11.039 7.82539C10.5834 8.281 9.84475 8.281 9.38913 7.82539C8.93352 7.36977 8.93352 6.63108 9.38913 6.17547L10.8975 4.66707L10.2078 3.97737L10.2069 3.97644C9.89872 3.67025 9.48192 3.49837 9.04746 3.49837C8.61296 3.49837 8.19612 3.67027 7.88794 3.97652L7.88708 3.97737L4.85774 7.00671L4.85689 7.00757C4.55065 7.31575 4.37874 7.73259 4.37874 8.16709C4.37874 8.60155 4.55062 9.01835 4.85681 9.32653L4.85774 9.32746L9.04742 13.5171L14.3975 8.16705ZM23.0474 8.85046L24.7541 7.14376C25.1542 6.74371 25.3789 6.20113 25.3789 5.63538C25.3789 5.06963 25.1542 4.52705 24.7541 4.12701C24.3541 3.72696 23.8115 3.50222 23.2458 3.50222C22.68 3.50222 22.1374 3.72696 21.7374 4.12701L20.0307 5.83371L23.0474 8.85046Z" fill="url(#paint0_linear_470_20782)"/>
<defs>
<linearGradient id="paint0_linear_470_20782" x1="32.9248" y1="-0.796534" x2="-2.46234" y2="30.1076" gradientUnits="userSpaceOnUse">
<stop stop-color="#1F7AFF"/>
<stop offset="1" stop-color="#C9E1FF"/>
</linearGradient>
</defs>
</svg>
