<svg width="29" height="28" viewBox="0 0 29 28" fill="none" xmlns="http://www.w3.org/2000/svg">
<path fill-rule="evenodd" clip-rule="evenodd" d="M10.3935 2.31004C10.2266 1.6877 9.58677 1.31851 8.96444 1.48543C8.3421 1.65234 7.97291 2.29216 8.13982 2.9145L9.04632 6.29433C9.21324 6.91667 9.85305 7.28586 10.4754 7.11894C11.0977 6.95203 11.4669 6.31221 11.3 5.68987L10.3935 2.31004ZM17.9806 5.55006C18.4362 5.09445 18.4362 4.35576 17.9806 3.90014C17.525 3.44453 16.7863 3.44453 16.3307 3.90014L13.855 6.37581C13.3994 6.83142 13.3994 7.57011 13.855 8.02573C14.3106 8.48134 15.0493 8.48134 15.505 8.02573L17.9806 5.55006ZM3.79379 7.25924C3.17144 7.09237 2.53166 7.46162 2.3648 8.08397C2.19793 8.70632 2.56718 9.34611 3.18953 9.51297L6.57053 10.4195C7.19288 10.5863 7.83267 10.2171 7.99953 9.59473C8.16639 8.97238 7.79715 8.3326 7.17479 8.16574L3.79379 7.25924ZM8.90551 14.624C9.36091 14.1682 9.36056 13.4295 8.90473 12.9741C8.44891 12.5187 7.71021 12.519 7.25482 12.9749L4.78148 15.4505C4.32609 15.9064 4.32643 16.6451 4.78226 17.1004C5.23809 17.5558 5.97678 17.5555 6.43218 17.0997L8.90551 14.624ZM10.5557 9.67513C10.89 9.34084 11.393 9.24133 11.8294 9.42316L25.8294 15.2565C26.2774 15.4432 26.5631 15.8877 26.5467 16.3728C26.5303 16.8579 26.2153 17.2822 25.7557 17.4382L21.4353 18.9048L25.4053 22.8748C25.8609 23.3304 25.8609 24.0691 25.4053 24.5247C24.9497 24.9803 24.211 24.9803 23.7554 24.5247L19.7853 20.5547L18.3188 24.8751C18.1627 25.3347 17.7385 25.6497 17.2534 25.6661C16.7683 25.6825 16.3238 25.3968 16.1371 24.9488L10.3037 10.9488C10.1219 10.5124 10.2214 10.0094 10.5557 9.67513ZM13.5473 12.6668L17.1025 21.1991L18.1789 18.0281C18.2955 17.6846 18.5652 17.4149 18.9087 17.2983L22.0797 16.2219L13.5473 12.6668Z" fill="url(#paint0_linear_470_20736)"/>
<defs>
<linearGradient id="paint0_linear_470_20736" x1="31.4579" y1="-0.405243" x2="-1.92671" y2="28.7514" gradientUnits="userSpaceOnUse">
<stop stop-color="#1F7AFF"/>
<stop offset="1" stop-color="#C9E1FF"/>
</linearGradient>
</defs>
</svg>
