<svg width="29" height="29" viewBox="0 0 29 29" fill="none" xmlns="http://www.w3.org/2000/svg">
<path fill-rule="evenodd" clip-rule="evenodd" d="M15.4244 1.56636L22.0997 13.248C22.3577 13.6996 22.2266 14.2736 21.798 14.5682L15.1227 19.1574C14.7815 19.3921 14.3309 19.3921 13.9897 19.1574L7.31443 14.5682C6.88586 14.2736 6.75468 13.6996 7.01272 13.248L13.688 1.56636C14.0719 0.894546 15.0406 0.894547 15.4244 1.56636ZM8.43703 17.7275L14.2589 21.8371C14.4361 21.9622 14.6738 21.9588 14.8473 21.8286L20.221 17.7983C20.6708 17.461 21.2489 18.0079 20.937 18.4757L14.9597 27.4416C14.7652 27.7335 14.3384 27.7395 14.1357 27.4533L7.74067 18.425C7.41581 17.9664 7.97787 17.4034 8.43703 17.7275Z" fill="url(#paint0_linear_470_20790)"/>
<defs>
<linearGradient id="paint0_linear_470_20790" x1="25.3436" y1="-0.969919" x2="-4.39767" y2="14.0182" gradientUnits="userSpaceOnUse">
<stop stop-color="#1F7AFF"/>
<stop offset="1" stop-color="#C9E1FF"/>
</linearGradient>
</defs>
</svg>
