<svg width="29" height="28" viewBox="0 0 29 28" fill="none" xmlns="http://www.w3.org/2000/svg">
<path fill-rule="evenodd" clip-rule="evenodd" d="M11.5812 4.86716C12.4564 3.99199 13.6434 3.50033 14.881 3.50033C16.1187 3.50033 17.3057 3.99199 18.1809 4.86716C19.056 5.74233 19.5477 6.92932 19.5477 8.16699V11.667H10.2144V8.16699C10.2144 6.92932 10.706 5.74233 11.5812 4.86716ZM7.88104 11.667V8.16699C7.88104 6.31048 8.61854 4.53 9.93129 3.21724C11.244 1.90449 13.0245 1.16699 14.881 1.16699C16.7376 1.16699 18.518 1.90449 19.8308 3.21724C21.1435 4.53 21.881 6.31048 21.881 8.16699V11.667H23.0477C24.9807 11.667 26.5477 13.234 26.5477 15.167V23.3337C26.5477 25.2667 24.9807 26.8337 23.0477 26.8337H6.71436C4.78136 26.8337 3.21436 25.2667 3.21436 23.3337V15.167C3.21436 13.234 4.78136 11.667 6.71436 11.667H7.88104ZM20.7144 14.0003H9.04771L6.71436 14.0003C6.07002 14.0003 5.54769 14.5227 5.54769 15.167V23.3337C5.54769 23.978 6.07002 24.5003 6.71436 24.5003H23.0477C23.692 24.5003 24.2144 23.978 24.2144 23.3337V15.167C24.2144 14.5227 23.692 14.0003 23.0477 14.0003L20.7144 14.0003Z" fill="url(#paint0_linear_470_20720)"/>
<defs>
<linearGradient id="paint0_linear_470_20720" x1="31.278" y1="-0.793981" x2="-3.49345" y2="26.8118" gradientUnits="userSpaceOnUse">
<stop stop-color="#1F7AFF"/>
<stop offset="1" stop-color="#C9E1FF"/>
</linearGradient>
</defs>
</svg>
