<svg width="29" height="28" viewBox="0 0 29 28" fill="none" xmlns="http://www.w3.org/2000/svg">
<path fill-rule="evenodd" clip-rule="evenodd" d="M6.71436 4.66634C6.07002 4.66634 5.54769 5.18868 5.54769 5.83301V7.19986C5.91893 7.0686 6.31309 6.99969 6.71436 6.99969H23.0477C23.449 6.99969 23.8431 7.0686 24.2144 7.19986V5.83301C24.2144 5.18868 23.692 4.66634 23.0477 4.66634H6.71436ZM5.8894 9.67474C5.6706 9.89353 5.54769 10.1903 5.54769 10.4997V11.6663H7.88102C9.04175 11.6663 10.2954 12.0859 11.1479 13.044L12.3531 14.03C12.3831 14.0546 12.4119 14.0806 12.4393 14.108C13.8504 15.5191 16.0283 15.5191 17.4394 14.108C17.4668 14.0806 17.4956 14.0546 17.5256 14.03L18.7675 13.0139C19.5364 12.2674 20.7331 11.6663 21.9977 11.6663H24.2144V10.4997C24.2144 10.1903 24.0914 9.89353 23.8726 9.67474C23.6539 9.45594 23.3571 9.33303 23.0477 9.33303H6.71436C6.40494 9.33303 6.10819 9.45594 5.8894 9.67474ZM24.2144 13.9997H21.9977C21.4204 13.9997 20.7726 14.308 20.3726 14.7079C20.3452 14.7354 20.3165 14.7614 20.2865 14.7859L19.0458 15.801C16.7362 18.0659 13.1425 18.0659 10.8329 15.801L9.59224 14.7859C9.53492 14.739 9.48218 14.6868 9.43476 14.6299C9.12087 14.2532 8.55039 13.9997 7.88102 13.9997H5.54769V22.1663C5.54769 22.8107 6.07002 23.333 6.71436 23.333H23.0477C23.692 23.333 24.2144 22.8107 24.2144 22.1663V13.9997ZM3.21436 12.833V22.1663C3.21436 24.0993 4.78136 25.6663 6.71436 25.6663H23.0477C24.9807 25.6663 26.5477 24.0993 26.5477 22.1663V12.833V10.4997V5.83301C26.5477 3.90001 24.9807 2.33301 23.0477 2.33301H6.71436C4.78136 2.33301 3.21436 3.90001 3.21436 5.83301V10.4997V12.833Z" fill="url(#paint0_linear_470_20741)"/>
<defs>
<linearGradient id="paint0_linear_470_20741" x1="31.278" y1="0.550305" x2="-0.882343" y2="28.6363" gradientUnits="userSpaceOnUse">
<stop stop-color="#1F7AFF"/>
<stop offset="1" stop-color="#C9E1FF"/>
</linearGradient>
</defs>
</svg>
