<svg width="29" height="28" viewBox="0 0 29 28" fill="none" xmlns="http://www.w3.org/2000/svg">
<path d="M23.0477 16.3333C24.786 14.63 26.5477 12.5883 26.5477 9.91667C26.5477 8.21486 25.8716 6.58276 24.6683 5.3794C23.4649 4.17604 21.8328 3.5 20.131 3.5C18.0777 3.5 16.631 4.08333 14.881 5.83333C13.131 4.08333 11.6844 3.5 9.63102 3.5C7.92922 3.5 6.29711 4.17604 5.09375 5.3794C3.8904 6.58276 3.21436 8.21486 3.21436 9.91667C3.21436 12.6 4.96436 14.6417 6.71436 16.3333L14.881 24.5L23.0477 16.3333Z" stroke="url(#paint0_linear_470_20794)" stroke-width="2.33333" stroke-linecap="round" stroke-linejoin="round"/>
<defs>
<linearGradient id="paint0_linear_470_20794" x1="31.278" y1="1.89557" x2="2.08095" y2="30.2269" gradientUnits="userSpaceOnUse">
<stop stop-color="#1F7AFF"/>
<stop offset="1" stop-color="#C9E1FF"/>
</linearGradient>
</defs>
</svg>
