<svg width="29" height="28" viewBox="0 0 29 28" fill="none" xmlns="http://www.w3.org/2000/svg">
<path fill-rule="evenodd" clip-rule="evenodd" d="M3.07264 4.52513C3.72901 3.86875 4.61925 3.5 5.54751 3.5H24.2142C25.1424 3.5 26.0327 3.86875 26.6891 4.52513C27.3454 5.1815 27.7142 6.07174 27.7142 7V8.14705C27.7144 8.1594 27.7144 8.17175 27.7142 8.18408V15.1667C27.7142 15.811 27.1918 16.3333 26.5475 16.3333C25.9032 16.3333 25.3808 15.811 25.3808 15.1667V10.2903L16.7082 15.8013L16.7019 15.8053L16.7019 15.8053C16.1561 16.1473 15.525 16.3287 14.8808 16.3287C14.2367 16.3287 13.6056 16.1473 13.0598 15.8053L13.0534 15.8014L13.0535 15.8013L4.38084 10.2903V21C4.38084 21.639 4.90851 22.1667 5.54751 22.1667H14.8808C15.5252 22.1667 16.0475 22.689 16.0475 23.3333C16.0475 23.9777 15.5252 24.5 14.8808 24.5H5.54751C3.61985 24.5 2.04751 22.9277 2.04751 21V8.18415C2.04731 8.17177 2.04731 8.15938 2.04751 8.14698V7C2.04751 6.07174 2.41626 5.1815 3.07264 4.52513ZM25.3808 7V7.52574L15.4631 13.828L15.4605 13.8296C15.2866 13.9379 15.0858 13.9953 14.8808 13.9953C14.6759 13.9953 14.4751 13.9379 14.3012 13.8296L4.38084 7.52574V7C4.38084 6.69058 4.50376 6.39383 4.72255 6.17504C4.94135 5.95625 5.23809 5.83333 5.54751 5.83333H24.2142C24.5236 5.83333 24.8203 5.95625 25.0391 6.17504C25.2579 6.39383 25.3808 6.69058 25.3808 7ZM27.3725 20.6584C27.8281 20.2028 27.8281 19.4641 27.3725 19.0085C26.9169 18.5528 26.1782 18.5528 25.7226 19.0085L21.8808 22.8502L20.3725 21.3418C19.9169 20.8862 19.1782 20.8862 18.7226 21.3418C18.2669 21.7974 18.2669 22.5361 18.7226 22.9917L21.0559 25.325C21.5115 25.7807 22.2502 25.7807 22.7058 25.325L27.3725 20.6584Z" fill="url(#paint0_linear_470_20710)"/>
<defs>
<linearGradient id="paint0_linear_470_20710" x1="32.9177" y1="1.80643" x2="2.08646" y2="32.9834" gradientUnits="userSpaceOnUse">
<stop stop-color="#1F7AFF"/>
<stop offset="1" stop-color="#C9E1FF"/>
</linearGradient>
</defs>
</svg>
