<svg width="29" height="28" viewBox="0 0 29 28" fill="none" xmlns="http://www.w3.org/2000/svg">
<path fill-rule="evenodd" clip-rule="evenodd" d="M10.7247 4.7084C11.7935 4.60696 12.8713 4.75273 13.8748 5.13442C14.8782 5.51611 15.7804 6.1235 16.5116 6.90961C17.2428 7.69572 17.7834 8.63948 18.0915 9.6679C18.2394 10.1616 18.6937 10.4997 19.2091 10.4997H21.2891C22.152 10.5129 22.9887 10.7992 23.6789 11.3175C24.371 11.8374 24.8801 12.5637 25.1325 13.3918C25.3849 14.2198 25.3677 15.1066 25.0833 15.9241C24.7989 16.7417 24.262 17.4478 23.5502 17.9403C23.0204 18.307 22.8881 19.0337 23.2547 19.5636C23.6214 20.0934 24.3481 20.2257 24.878 19.8591C25.9966 19.085 26.8402 17.9755 27.2871 16.6908C27.734 15.406 27.7611 14.0124 27.3644 12.7113C26.9677 11.4101 26.1678 10.2687 25.0801 9.45182C23.9925 8.63492 22.6733 8.18481 21.3132 8.16647L21.2974 8.16637H20.034C19.6082 7.11766 18.9943 6.15278 18.2201 5.32045C17.2452 4.27231 16.0423 3.46245 14.7043 2.95353C13.3664 2.44461 11.9293 2.25026 10.5042 2.3855C9.07919 2.52075 7.70434 2.98197 6.48602 3.73349C5.26771 4.48502 4.23858 5.5067 3.47824 6.71953C2.7179 7.93236 2.24671 9.30383 2.10113 10.7279C1.95555 12.1519 2.13947 13.5903 2.63867 14.9319C3.13787 16.2735 3.93897 17.4823 4.98001 18.4648C5.44861 18.9071 6.18699 18.8857 6.62924 18.4171C7.07148 17.9485 7.05012 17.2101 6.58153 16.7679C5.80075 16.031 5.19992 15.1244 4.82552 14.1182C4.45112 13.112 4.31318 12.0332 4.42236 10.9652C4.53155 9.89714 4.88494 8.86854 5.4552 7.95892C6.02545 7.0493 6.7973 6.28303 7.71104 5.71939C8.62477 5.15575 9.65591 4.80983 10.7247 4.7084ZM14.2031 17.5997C14.4176 17.5347 14.6451 17.4997 14.8808 17.4997C15.7295 17.4997 16.4724 17.9529 16.8807 18.6304C16.8944 18.7097 16.9165 18.7887 16.9476 18.8663C16.9902 18.9727 17.0466 19.0694 17.1141 19.1552C17.1791 19.3697 17.2141 19.5973 17.2141 19.833C17.2141 20.6817 16.7611 21.4245 16.0837 21.8328C16.0044 21.8465 15.9253 21.8686 15.8475 21.8997C15.741 21.9423 15.6442 21.9989 15.5584 22.0665C15.3439 22.1314 15.1164 22.1664 14.8808 22.1664C14.0321 22.1664 13.2893 21.7133 12.8809 21.0358C12.8672 20.9565 12.8451 20.8774 12.814 20.7997C12.7714 20.6932 12.7149 20.5964 12.6474 20.5106C12.5824 20.2962 12.5474 20.0687 12.5474 19.833C12.5474 18.9844 13.0005 18.2415 13.678 17.8332C13.7573 17.8195 13.8364 17.7974 13.9141 17.7663C14.0206 17.7237 14.1173 17.6672 14.2031 17.5997ZM19.4911 19.1055C19.5282 19.3425 19.5474 19.5855 19.5474 19.833C19.5474 20.0057 19.5381 20.1762 19.5198 20.344L19.5664 20.3596C20.1776 20.5633 20.508 21.224 20.3042 21.8353C20.1005 22.4466 19.4398 22.7769 18.8285 22.5732L18.6915 22.5275C18.4272 22.9005 18.1096 23.233 17.7497 23.5139L17.8307 23.7163C18.07 24.3146 17.779 24.9935 17.1808 25.2328C16.5825 25.4721 15.9035 25.1812 15.6642 24.5829L15.6084 24.4433C15.3713 24.4804 15.1283 24.4997 14.8808 24.4997C14.7081 24.4997 14.5376 24.4903 14.3697 24.4721L14.3542 24.5186C14.1505 25.1299 13.4898 25.4602 12.8785 25.2564C12.2672 25.0527 11.9369 24.392 12.1406 23.7807L12.1863 23.6437C11.8133 23.3794 11.4807 23.0618 11.1998 22.7019L10.9974 22.7828C10.3992 23.0221 9.7202 22.7312 9.48091 22.1329C9.24161 21.5347 9.53259 20.8557 10.1308 20.6164L10.2705 20.5605C10.2334 20.3235 10.2141 20.0805 10.2141 19.833C10.2141 19.6603 10.2235 19.4898 10.2418 19.322L10.1952 19.3064C9.58393 19.1027 9.25358 18.442 9.45733 17.8307C9.66109 17.2194 10.3218 16.8891 10.9331 17.0928L11.0702 17.1385C11.3344 16.7655 11.652 16.433 12.0119 16.1521L11.9309 15.9497C11.6916 15.3514 11.9826 14.6725 12.5809 14.4332C13.1791 14.1939 13.8581 14.4849 14.0974 15.0831L14.1532 15.2228C14.3903 15.1856 14.6333 15.1664 14.8808 15.1664C15.0535 15.1664 15.224 15.1758 15.3918 15.194L15.4073 15.1475C15.6111 14.5362 16.2718 14.2058 16.883 14.4096C17.4943 14.6134 17.8247 15.2741 17.6209 15.8853L17.5752 16.0224C17.9482 16.2866 18.2808 16.6042 18.5617 16.9641L18.7642 16.8831C19.3624 16.6438 20.0414 16.9348 20.2807 17.5331C20.52 18.1313 20.229 18.8103 19.6308 19.0496L19.4911 19.1055Z" fill="url(#paint0_linear_470_20724)"/>
<defs>
<linearGradient id="paint0_linear_470_20724" x1="32.8312" y1="0.588586" x2="0.888888" y2="31.6629" gradientUnits="userSpaceOnUse">
<stop stop-color="#1F7AFF"/>
<stop offset="1" stop-color="#C9E1FF"/>
</linearGradient>
</defs>
</svg>
