<svg width="29" height="28" viewBox="0 0 29 28" fill="none" xmlns="http://www.w3.org/2000/svg">
<path fill-rule="evenodd" clip-rule="evenodd" d="M14.4712 1.24127C14.7353 1.14223 15.0264 1.14223 15.2905 1.24127L24.6238 4.74127C25.0792 4.91203 25.3809 5.34734 25.3809 5.83366V14.0003C25.3809 18.0212 22.7188 21.234 20.3158 23.3367C19.0897 24.4094 17.8692 25.248 16.9575 25.8178C16.5005 26.1034 16.1179 26.3235 15.8469 26.4735C15.7114 26.5485 15.6035 26.6062 15.528 26.6458C15.4902 26.6657 15.4605 26.681 15.4394 26.6918L15.4143 26.7046L15.4068 26.7084L15.4043 26.7097L15.4033 26.7101C15.4029 26.7103 15.4026 26.7105 14.8809 25.667C14.3591 26.7105 14.3588 26.7103 14.3584 26.7101L14.3575 26.7097L14.3549 26.7084L14.3474 26.7046L14.3223 26.6918C14.3012 26.681 14.2715 26.6657 14.2337 26.6458C14.1582 26.6062 14.0503 26.5485 13.9148 26.4735C13.6438 26.3235 13.2613 26.1034 12.8042 25.8178C11.8925 25.248 10.672 24.4094 9.44594 23.3367C7.0429 21.234 4.38086 18.0212 4.38086 14.0003V5.83366C4.38086 5.34734 4.68253 4.91203 5.13788 4.74127L14.4712 1.24127ZM14.8809 25.667L14.3591 26.7105C14.6876 26.8747 15.0742 26.8747 15.4026 26.7105L14.8809 25.667ZM14.8809 24.3402C15.1044 24.2135 15.3903 24.0457 15.7209 23.8391C16.5592 23.3152 17.672 22.5495 18.7793 21.5807C21.0429 19.6 23.0475 16.9795 23.0475 14.0003V6.64216L14.8809 3.57966L6.71419 6.64216V14.0003C6.71419 16.9795 8.71882 19.6 10.9824 21.5807C12.0898 22.5495 13.2026 23.3152 14.0409 23.8391C14.3714 24.0457 14.6573 24.2135 14.8809 24.3402Z" fill="url(#paint0_linear_470_20768)"/>
<defs>
<linearGradient id="paint0_linear_470_20768" x1="29.6381" y1="-0.793981" x2="-4.13723" y2="23.3395" gradientUnits="userSpaceOnUse">
<stop stop-color="#1F7AFF"/>
<stop offset="1" stop-color="#C9E1FF"/>
</linearGradient>
</defs>
</svg>
