<svg width="29" height="28" viewBox="0 0 29 28" fill="none" xmlns="http://www.w3.org/2000/svg">
<g clip-path="url(#clip0_470_20701)">
<path fill-rule="evenodd" clip-rule="evenodd" d="M2.15768 0C2.86284 0 3.43449 0.57165 3.43449 1.27682V25.5671H27.6036C28.3088 25.5671 28.8805 26.1387 28.8805 26.8439C28.8805 27.549 28.3088 28.1207 27.6036 28.1207H2.15768C1.45251 28.1207 0.880859 27.549 0.880859 26.8439V1.27682C0.880859 0.57165 1.45251 0 2.15768 0ZM18.7513 5.10634C18.7513 4.40118 19.323 3.82953 20.0281 3.82953H27.604C27.9427 3.82953 28.2674 3.96405 28.5069 4.2035C28.7463 4.44296 28.8809 4.76772 28.8809 5.10636L28.8808 12.8411C28.8808 13.5463 28.3091 14.1179 27.6039 14.1179C26.8988 14.1179 26.3271 13.5462 26.3271 12.8411L26.3272 8.16104L19.2214 15.4533C18.7307 15.9569 17.9252 15.969 17.4196 15.4803L14.7979 12.9464L7.63204 19.8909C7.12565 20.3816 6.31731 20.3689 5.82657 19.8625C5.33582 19.3561 5.34851 18.5478 5.8549 18.0571L13.9082 10.2526C14.4029 9.77317 15.1888 9.77265 15.6841 10.2514L18.28 12.7604L24.4941 6.38316H20.0281C19.323 6.38316 18.7513 5.81151 18.7513 5.10634Z" fill="url(#paint0_linear_470_20701)"/>
</g>
<defs>
<linearGradient id="paint0_linear_470_20701" x1="34.5572" y1="-2.14846" x2="-4.17874" y2="31.535" gradientUnits="userSpaceOnUse">
<stop stop-color="#1F7AFF"/>
<stop offset="1" stop-color="#C9E1FF"/>
</linearGradient>
<clipPath id="clip0_470_20701">
<rect width="28" height="28" fill="white" transform="translate(0.880859)"/>
</clipPath>
</defs>
</svg>
