<svg width="29" height="29" viewBox="0 0 29 29" fill="none" xmlns="http://www.w3.org/2000/svg">
<path fill-rule="evenodd" clip-rule="evenodd" d="M18.381 2.39551C17.0923 2.39551 16.0477 3.44018 16.0477 4.72884V10.5622C16.0477 11.8508 17.0923 12.8955 18.381 12.8955H24.2143C25.503 12.8955 26.5477 11.8508 26.5477 10.5622V4.72884C26.5477 3.44018 25.503 2.39551 24.2143 2.39551H18.381ZM18.381 4.72884H24.2143V10.5622H18.381V4.72884ZM5.54769 7.06219C4.92885 7.06219 4.33536 7.30803 3.89777 7.74561C3.46019 8.1832 3.21436 8.77669 3.21436 9.39553V16.3955V23.3955C3.21436 24.0144 3.46019 24.6079 3.89777 25.0454C4.33536 25.483 4.92885 25.7289 5.54769 25.7289H12.5477H19.5477C20.1665 25.7289 20.76 25.483 21.1976 25.0454C21.6352 24.6079 21.881 24.0144 21.881 23.3955V17.5622C21.881 16.9434 21.6352 16.3499 21.1976 15.9123C20.76 15.4747 20.1665 15.2289 19.5477 15.2289H13.7144V9.39553C13.7144 8.77669 13.4685 8.1832 13.0309 7.74561C12.5934 7.30803 11.9999 7.06219 11.381 7.06219H5.54769ZM5.54769 23.3955V17.5622H11.381V23.3955H5.54769ZM5.54769 15.2289H11.381V9.39553L5.54769 9.39553V15.2289ZM13.7144 23.3955V17.5622H19.5477V23.3955H13.7144Z" fill="url(#paint0_linear_470_20706)"/>
<defs>
<linearGradient id="paint0_linear_470_20706" x1="31.278" y1="0.612803" x2="-0.882389" y2="28.6988" gradientUnits="userSpaceOnUse">
<stop stop-color="#1F7AFF"/>
<stop offset="1" stop-color="#C9E1FF"/>
</linearGradient>
</defs>
</svg>
