<svg width="29" height="28" viewBox="0 0 29 28" fill="none" xmlns="http://www.w3.org/2000/svg">
<path fill-rule="evenodd" clip-rule="evenodd" d="M15.2905 1.24127C15.0264 1.14223 14.7353 1.14223 14.4712 1.24127L5.13788 4.74127C4.68253 4.91203 4.38086 5.34734 4.38086 5.83366V14.0003C4.38086 18.0212 7.0429 21.234 9.44594 23.3367C10.672 24.4094 11.8925 25.248 12.8042 25.8178C13.2613 26.1034 13.6438 26.3235 13.9148 26.4735C14.0503 26.5485 14.1582 26.6062 14.2337 26.6458C14.2715 26.6657 14.3012 26.681 14.3223 26.6918L14.3474 26.7046L14.3549 26.7084L14.3575 26.7097L14.3584 26.7101C14.3588 26.7103 14.3591 26.7105 14.8809 25.667L14.3591 26.7105C14.6876 26.8747 15.0742 26.8747 15.4026 26.7105L14.8809 25.667C15.4026 26.7105 15.403 26.7103 15.4033 26.7101L15.4043 26.7097L15.4068 26.7084L15.4143 26.7046L15.4394 26.6918C15.4605 26.681 15.4902 26.6657 15.528 26.6458C15.6035 26.6062 15.7114 26.5485 15.8469 26.4735C16.1179 26.3235 16.5005 26.1034 16.9575 25.8178C17.8692 25.248 19.0898 24.4094 20.3158 23.3367C22.7188 21.234 25.3809 18.0212 25.3809 14.0003V5.83366C25.3809 5.34734 25.0792 4.91203 24.6238 4.74127L15.2905 1.24127ZM15.7209 23.8391C15.3903 24.0457 15.1044 24.2135 14.8809 24.3402C14.6573 24.2135 14.3714 24.0457 14.0409 23.8391C13.2026 23.3152 12.0898 22.5495 10.9824 21.5807C8.71882 19.6 6.71419 16.9795 6.71419 14.0003V6.64216L14.8809 3.57966L23.0475 6.64216V14.0003C23.0475 16.9795 21.0429 19.6 18.7793 21.5807C17.672 22.5495 16.5592 23.3152 15.7209 23.8391ZM19.2058 12.492C19.6614 12.0364 19.6614 11.2977 19.2058 10.8421C18.7502 10.3865 18.0115 10.3865 17.5559 10.8421L13.7142 14.6838L12.2058 13.1754C11.7502 12.7198 11.0115 12.7198 10.5559 13.1754C10.1003 13.631 10.1003 14.3697 10.5559 14.8253L12.8892 17.1587C13.3448 17.6143 14.0835 17.6143 14.5391 17.1587L19.2058 12.492Z" fill="url(#paint0_linear_470_20776)"/>
<defs>
<linearGradient id="paint0_linear_470_20776" x1="29.6381" y1="-0.793981" x2="-4.13723" y2="23.3395" gradientUnits="userSpaceOnUse">
<stop stop-color="#1F7AFF"/>
<stop offset="1" stop-color="#C9E1FF"/>
</linearGradient>
</defs>
</svg>
