<svg width="25" height="25" viewBox="0 0 25 25" fill="none" xmlns="http://www.w3.org/2000/svg">
<rect x="12.407" y="12.7511" width="8.99854" height="8.99854" rx="1.5" fill="#9C30B7"/>
<path d="M5.40558 18.2504C4.30101 18.2504 3.40558 17.3549 3.40558 16.2504L3.40558 5.25037C3.40558 4.1458 4.30101 3.25037 5.40558 3.25037L16.4056 3.25037C17.5101 3.25037 18.4056 4.1458 18.4056 5.25037L18.4056 16.2504C18.4056 17.3549 17.5101 18.2504 16.4056 18.2504L5.40558 18.2504Z" fill="url(#paint0_linear_631_204)" fill-opacity="0.8"/>
<g clip-path="url(#clip0_631_204)">
<path d="M6.83009 11.1912C6.68863 11.2762 6.57151 11.3963 6.49009 11.5398C6.40866 11.6833 6.36569 11.8455 6.36533 12.0105V13.5629C6.36569 13.7279 6.40866 13.8901 6.49009 14.0336C6.57151 14.1772 6.68863 14.2972 6.83009 14.3822L8.2675 15.2447C8.41654 15.3342 8.58713 15.3815 8.76101 15.3815C8.93488 15.3815 9.10548 15.3342 9.25452 15.2447L11.1567 14.1043V11.4691L8.76101 10.0317L6.83009 11.1912Z" stroke="white" stroke-width="0.958272" stroke-linecap="round" stroke-linejoin="round"/>
<path d="M8.761 12.9065L6.4899 11.5409" stroke="white" stroke-width="0.958272" stroke-linecap="round" stroke-linejoin="round"/>
<path d="M8.76099 12.9065L11.1567 11.4691" stroke="white" stroke-width="0.958272" stroke-linecap="round" stroke-linejoin="round"/>
<path d="M8.76099 12.9065V15.3836" stroke="white" stroke-width="0.958272" stroke-linecap="round" stroke-linejoin="round"/>
<path d="M11.1567 11.4691V14.1043L13.0588 15.2447C13.2079 15.3342 13.3785 15.3815 13.5524 15.3815C13.7262 15.3815 13.8968 15.3342 14.0459 15.2447L15.4833 14.3822C15.6247 14.2972 15.7419 14.1772 15.8233 14.0336C15.9047 13.8901 15.9477 13.7279 15.948 13.5629V12.0105C15.9477 11.8455 15.9047 11.6833 15.8233 11.5398C15.7419 11.3963 15.6247 11.2762 15.4833 11.1912L13.5524 10.0317L11.1567 11.4691Z" stroke="white" stroke-width="0.958272" stroke-linecap="round" stroke-linejoin="round"/>
<path d="M13.5524 12.9065L11.1567 11.4691" stroke="white" stroke-width="0.958272" stroke-linecap="round" stroke-linejoin="round"/>
<path d="M13.5524 12.9065L15.8235 11.5409" stroke="white" stroke-width="0.958272" stroke-linecap="round" stroke-linejoin="round"/>
<path d="M13.5524 12.9065V15.3836" stroke="white" stroke-width="0.958272" stroke-linecap="round" stroke-linejoin="round"/>
<path d="M9.22575 7.11853C9.08429 7.20352 8.96717 7.3236 8.88575 7.46714C8.80432 7.61068 8.76135 7.77282 8.76099 7.93785V10.0317L11.1567 11.4691L13.5523 10.0317V7.93785C13.552 7.77282 13.509 7.61068 13.4276 7.46714C13.3462 7.3236 13.229 7.20352 13.0876 7.11853L11.6502 6.25608C11.5011 6.16654 11.3305 6.11923 11.1567 6.11923C10.9828 6.11923 10.8122 6.16654 10.6632 6.25608L9.22575 7.11853Z" stroke="white" stroke-width="0.958272" stroke-linecap="round" stroke-linejoin="round"/>
<path d="M11.1567 8.83383L8.88559 7.46829" stroke="white" stroke-width="0.958272" stroke-linecap="round" stroke-linejoin="round"/>
<path d="M11.1567 8.83383L13.4278 7.46829" stroke="white" stroke-width="0.958272" stroke-linecap="round" stroke-linejoin="round"/>
<path d="M11.1567 11.4691V8.83383" stroke="white" stroke-width="0.958272" stroke-linecap="round" stroke-linejoin="round"/>
</g>
<defs>
<linearGradient id="paint0_linear_631_204" x1="3.40558" y1="10.7504" x2="18.4056" y2="10.7504" gradientUnits="userSpaceOnUse">
<stop stop-color="#E5A1F5"/>
<stop offset="1" stop-color="#E169FF"/>
</linearGradient>
<clipPath id="clip0_631_204">
<rect width="11.4993" height="11.4993" fill="white" transform="translate(5.40704 5.00073)"/>
</clipPath>
</defs>
</svg>
