<svg width="24" height="24" viewBox="0 0 24 24" fill="none" xmlns="http://www.w3.org/2000/svg">
<path fill-rule="evenodd" clip-rule="evenodd" d="M7.59604 4.25259C7.77909 4.08988 8.01548 4 8.2604 4H15.7396C15.9845 4 16.2209 4.08988 16.404 4.25259L18.3698 6H5.6302L7.59604 4.25259ZM2.33938 6.24926L6.26731 2.75777C6.81646 2.26964 7.52566 2 8.2604 2H15.7396C16.4743 2 17.1835 2.26964 17.7327 2.75777L21.6608 6.24939C21.8448 6.41148 21.9687 6.64017 21.9948 6.89776C21.9983 6.93137 22 6.96548 22 7V10C22 10.7636 21.7279 11.5144 21.2161 12.0832C20.8836 12.4526 20.4647 12.7271 20 12.8753V20C20 21.1046 19.1046 22 18 22H6C4.89543 22 4 21.1046 4 20V12.8753C3.53531 12.7271 3.11638 12.4526 2.78391 12.0832C2.27205 11.5144 2 10.7636 2 10V7C2 6.70093 2.13129 6.43252 2.33938 6.24926ZM6 12.7136V20H8V18C8 16.3431 9.34315 15 11 15H13C14.6569 15 16 16.3431 16 18V20H18V12.7136C17.7892 12.6178 17.5882 12.4996 17.4 12.3612C16.8933 12.7338 16.2942 12.9594 15.661 12.9981C15.6204 13.0006 15.5796 13.0006 15.539 12.9981C14.9058 12.9594 14.3067 12.7338 13.8 12.3612C13.2933 12.7338 12.6942 12.9594 12.061 12.9981C12.0204 13.0006 11.9796 13.0006 11.939 12.9981C11.3058 12.9594 10.7067 12.7338 10.2 12.3612C9.69331 12.7338 9.09421 12.9594 8.46104 12.9981C8.42038 13.0006 8.37961 13.0006 8.33896 12.9981C7.70579 12.9594 7.10669 12.7338 6.6 12.3612C6.41176 12.4996 6.21076 12.6178 6 12.7136ZM14 18V20H10V18C10 17.4477 10.4477 17 11 17H13C13.5523 17 14 17.4477 14 18ZM4 10V8L20 8V10C20 10.2972 19.8928 10.5638 19.7295 10.7452C19.5777 10.9139 19.3963 10.9917 19.2278 10.9994C18.9566 10.9751 18.6842 10.8567 18.452 10.6395C18.4336 10.6224 18.4147 10.606 18.3951 10.5902C18.1177 10.3676 17.7697 10.2374 17.4 10.2374C17.0303 10.2374 16.6823 10.3676 16.4049 10.5902C16.3853 10.606 16.3664 10.6224 16.348 10.6395C16.1237 10.8493 15.862 10.9669 15.6 10.9965C15.338 10.9669 15.0763 10.8493 14.8519 10.6395C14.8336 10.6224 14.8147 10.606 14.7951 10.5902C14.5177 10.3676 14.1697 10.2374 13.8 10.2374C13.4303 10.2374 13.0823 10.3676 12.8049 10.5902C12.7853 10.606 12.7664 10.6224 12.748 10.6395C12.5237 10.8493 12.262 10.9669 12 10.9965C11.738 10.9669 11.4763 10.8493 11.252 10.6395C11.2336 10.6224 11.2147 10.606 11.1951 10.5902C10.9177 10.3676 10.5697 10.2374 10.2 10.2374C9.83029 10.2374 9.48226 10.3676 9.20491 10.5902C9.18535 10.606 9.16638 10.6224 9.14805 10.6395C8.92372 10.8493 8.66199 10.9669 8.4 10.9965C8.13801 10.9669 7.87628 10.8493 7.65195 10.6395C7.63362 10.6224 7.61465 10.606 7.59509 10.5902C7.31774 10.3676 6.96971 10.2374 6.6 10.2374C6.23029 10.2374 5.88226 10.3676 5.60491 10.5902C5.58535 10.606 5.56638 10.6224 5.54805 10.6395C5.31578 10.8567 5.04341 10.9751 4.77218 10.9994C4.6037 10.9917 4.42225 10.9139 4.2705 10.7452C4.10723 10.5638 4 10.2972 4 10Z" fill="url(#paint0_linear_132_1800)"/>
<defs>
<linearGradient id="paint0_linear_132_1800" x1="20.5717" y1="-7.48934" x2="-8.9187" y2="36.8972" gradientUnits="userSpaceOnUse">
<stop stop-color="white"/>
<stop offset="1" stop-color="white" stop-opacity="0"/>
</linearGradient>
</defs>
</svg>
