<svg width="25" height="24" viewBox="0 0 25 24" fill="none" xmlns="http://www.w3.org/2000/svg">
<path d="M20.9188 5.44888L17.3465 3.31258C17.0255 3.12059 16.6241 3.12383 16.3062 3.32098L12.8785 5.44666C12.5845 5.62903 12.4056 5.95047 12.4056 6.2965V10.1798C12.4056 10.5376 12.5967 10.8681 12.9068 11.0466L16.4122 13.0637C16.7222 13.2421 17.1038 13.2413 17.4131 13.0617L20.9077 11.0326C21.2159 10.8536 21.4056 10.5242 21.4056 10.1678V6.30712C21.4056 5.95534 21.2207 5.62943 20.9188 5.44888Z" fill="#9C30B7"/>
<path d="M17.4324 7.14809L11.9073 3.70456C11.2173 3.27451 10.341 3.28172 9.65815 3.72305L4.36502 7.14413C3.76684 7.53075 3.40558 8.19438 3.40558 8.90663V15.3013C3.40558 16.0386 3.7925 16.7218 4.42481 17.1011L9.84173 20.3497C10.5087 20.7498 11.3422 20.7481 12.0076 20.3454L17.4089 17.0768C18.0371 16.6966 18.421 16.0157 18.421 15.2814V8.92909C18.421 8.20458 18.0472 7.53131 17.4324 7.14809Z" fill="url(#paint0_linear_651_193)" fill-opacity="0.8"/>
<mask id="path-3-outside-1_651_193" maskUnits="userSpaceOnUse" x="4.41327" y="9" width="13" height="6" fill="black">
<rect fill="white" x="4.41327" y="9" width="13" height="6"/>
<path d="M5.68391 9.89184H5.80492C5.95819 9.89184 6.08726 9.97654 6.19214 10.146L8.27344 13.1711V10.1278C8.27344 10.0431 8.29159 9.98259 8.3279 9.94629C8.3642 9.90999 8.42268 9.89184 8.50335 9.89184H8.55781C8.71512 9.89184 8.79377 9.97049 8.79377 10.1278V13.7096C8.79377 13.7943 8.7736 13.8649 8.73327 13.9213C8.69293 13.9738 8.63444 14 8.55781 14H8.47915C8.32588 14 8.17865 13.8971 8.03748 13.6914L5.96222 10.6723V13.7701C5.96222 13.9234 5.88962 14 5.74441 14H5.68391C5.52257 14 5.4419 13.9234 5.4419 13.7701V10.1883C5.4419 9.99066 5.52257 9.89184 5.68391 9.89184ZM10.372 9.89184H12.4473C12.6006 9.89184 12.6772 9.96848 12.6772 10.1218C12.6772 10.271 12.6006 10.3456 12.4473 10.3456H10.6625V11.6404H12.2113C12.3606 11.6404 12.4352 11.717 12.4352 11.8703C12.4352 12.0195 12.3606 12.0942 12.2113 12.0942H10.6625V13.7761C10.6625 13.9254 10.5838 14 10.4265 14H10.372C10.2147 14 10.1361 13.9234 10.1361 13.7701V10.1218C10.1361 9.96848 10.2147 9.89184 10.372 9.89184ZM13.9865 9.89184H16.564C16.7173 9.89184 16.7939 9.96848 16.7939 10.1218C16.7939 10.271 16.7173 10.3456 16.564 10.3456H15.5354V13.7701C15.5354 13.9234 15.4568 14 15.2995 14H15.245C15.0877 14 15.009 13.9234 15.009 13.7701V10.3456H13.9865C13.8333 10.3456 13.7566 10.271 13.7566 10.1218C13.7566 9.96848 13.8333 9.89184 13.9865 9.89184Z"/>
</mask>
<path d="M5.68391 9.89184H5.80492C5.95819 9.89184 6.08726 9.97654 6.19214 10.146L8.27344 13.1711V10.1278C8.27344 10.0431 8.29159 9.98259 8.3279 9.94629C8.3642 9.90999 8.42268 9.89184 8.50335 9.89184H8.55781C8.71512 9.89184 8.79377 9.97049 8.79377 10.1278V13.7096C8.79377 13.7943 8.7736 13.8649 8.73327 13.9213C8.69293 13.9738 8.63444 14 8.55781 14H8.47915C8.32588 14 8.17865 13.8971 8.03748 13.6914L5.96222 10.6723V13.7701C5.96222 13.9234 5.88962 14 5.74441 14H5.68391C5.52257 14 5.4419 13.9234 5.4419 13.7701V10.1883C5.4419 9.99066 5.52257 9.89184 5.68391 9.89184ZM10.372 9.89184H12.4473C12.6006 9.89184 12.6772 9.96848 12.6772 10.1218C12.6772 10.271 12.6006 10.3456 12.4473 10.3456H10.6625V11.6404H12.2113C12.3606 11.6404 12.4352 11.717 12.4352 11.8703C12.4352 12.0195 12.3606 12.0942 12.2113 12.0942H10.6625V13.7761C10.6625 13.9254 10.5838 14 10.4265 14H10.372C10.2147 14 10.1361 13.9234 10.1361 13.7701V10.1218C10.1361 9.96848 10.2147 9.89184 10.372 9.89184ZM13.9865 9.89184H16.564C16.7173 9.89184 16.7939 9.96848 16.7939 10.1218C16.7939 10.271 16.7173 10.3456 16.564 10.3456H15.5354V13.7701C15.5354 13.9234 15.4568 14 15.2995 14H15.245C15.0877 14 15.009 13.9234 15.009 13.7701V10.3456H13.9865C13.8333 10.3456 13.7566 10.271 13.7566 10.1218C13.7566 9.96848 13.8333 9.89184 13.9865 9.89184Z" fill="white"/>
<path d="M6.19214 10.146L5.93492 10.3052L5.93876 10.3114L5.94291 10.3174L6.19214 10.146ZM8.27344 13.1711L8.02422 13.3426L8.57596 14.1445V13.1711H8.27344ZM8.73327 13.9213L8.9732 14.1059L8.97943 14.0972L8.73327 13.9213ZM8.03748 13.6914L8.28691 13.5203L8.28678 13.5201L8.03748 13.6914ZM5.96222 10.6723L6.21152 10.501L5.65971 9.69818V10.6723H5.96222ZM5.68391 10.1944H5.80492V9.58932H5.68391V10.1944ZM5.80492 10.1944C5.82215 10.1944 5.86644 10.1946 5.93492 10.3052L6.44935 9.98672C6.30809 9.75853 6.09423 9.58932 5.80492 9.58932V10.1944ZM5.94291 10.3174L8.02422 13.3426L8.52267 12.9996L6.44136 9.97448L5.94291 10.3174ZM8.57596 13.1711V10.1278H7.97093V13.1711H8.57596ZM8.57596 10.1278C8.57596 10.1055 8.57852 10.1001 8.57681 10.1058C8.57478 10.1126 8.56632 10.1357 8.54181 10.1602L8.11398 9.73238C7.99357 9.8528 7.97093 10.0124 7.97093 10.1278H8.57596ZM8.54181 10.1602C8.51914 10.1829 8.4973 10.1917 8.48865 10.1944C8.48133 10.1966 8.48437 10.1944 8.50335 10.1944V9.58932C8.3869 9.58932 8.23218 9.61419 8.11398 9.73238L8.54181 10.1602ZM8.50335 10.1944H8.55781V9.58932H8.50335V10.1944ZM8.55781 10.1944C8.58983 10.1944 8.55828 10.2022 8.52087 10.1647C8.48345 10.1273 8.49125 10.0958 8.49125 10.1278H9.09629C9.09629 10.0025 9.06476 9.85299 8.94869 9.73692C8.83262 9.62085 8.68309 9.58932 8.55781 9.58932V10.1944ZM8.49125 10.1278V13.7096H9.09629V10.1278H8.49125ZM8.49125 13.7096C8.49125 13.728 8.48905 13.7385 8.48777 13.7429C8.48663 13.7469 8.48604 13.747 8.4871 13.7455L8.97943 14.0972C9.06386 13.979 9.09629 13.8432 9.09629 13.7096H8.49125ZM8.49349 13.7369C8.50281 13.7248 8.51749 13.7123 8.5354 13.7043C8.55194 13.6969 8.56169 13.6975 8.55781 13.6975V14.3025C8.71153 14.3025 8.86591 14.2451 8.97305 14.1058L8.49349 13.7369ZM8.55781 13.6975H8.47915V14.3025H8.55781V13.6975ZM8.47915 13.6975C8.47571 13.6975 8.40769 13.6963 8.28691 13.5203L7.78805 13.8626C7.94962 14.098 8.17605 14.3025 8.47915 14.3025V13.6975ZM8.28678 13.5201L6.21152 10.501L5.71292 10.8437L7.78818 13.8628L8.28678 13.5201ZM5.65971 10.6723V13.7701H6.26474V10.6723H5.65971ZM5.65971 13.7701C5.65971 13.8041 5.65137 13.7733 5.68816 13.7345C5.70606 13.7156 5.72554 13.7051 5.7393 13.7003C5.75143 13.696 5.75495 13.6975 5.74441 13.6975V14.3025C5.86795 14.3025 6.01508 14.2691 6.12738 14.1506C6.23678 14.0351 6.26474 13.8894 6.26474 13.7701H5.65971ZM5.74441 13.6975H5.68391V14.3025H5.74441V13.6975ZM5.68391 13.6975C5.64611 13.6975 5.67395 13.6882 5.71076 13.7232C5.72859 13.7401 5.73821 13.7584 5.74248 13.7705C5.74617 13.781 5.74441 13.7827 5.74441 13.7701H5.13938C5.13938 13.8974 5.17366 14.0475 5.29404 14.1618C5.41152 14.2734 5.56037 14.3025 5.68391 14.3025V13.6975ZM5.74441 13.7701V10.1883H5.13938V13.7701H5.74441ZM5.74441 10.1883C5.74441 10.1585 5.74756 10.143 5.74892 10.138C5.75011 10.1337 5.74829 10.1431 5.73675 10.1573C5.72415 10.1727 5.70772 10.1842 5.69239 10.1904C5.67891 10.1959 5.67388 10.1944 5.68391 10.1944V9.58932C5.53856 9.58932 5.38057 9.63682 5.26805 9.77465C5.16513 9.90073 5.13938 10.0561 5.13938 10.1883H5.74441ZM10.6625 10.3456V10.0431H10.3599V10.3456H10.6625ZM10.6625 11.6404H10.3599V11.9429H10.6625V11.6404ZM10.6625 12.0942V11.7916H10.3599V12.0942H10.6625ZM10.372 10.1944H12.4473V9.58932H10.372V10.1944ZM12.4473 10.1944C12.4773 10.1944 12.4443 10.2017 12.4058 10.1632C12.3674 10.1248 12.3747 10.0917 12.3747 10.1218H12.9797C12.9797 9.99848 12.9487 9.85047 12.8337 9.73541C12.7186 9.62034 12.5706 9.58932 12.4473 9.58932V10.1944ZM12.3747 10.1218C12.3747 10.1477 12.3685 10.112 12.4087 10.0729C12.4474 10.0353 12.4793 10.0431 12.4473 10.0431V10.6481C12.5686 10.6481 12.7155 10.6187 12.8308 10.5064C12.9476 10.3927 12.9797 10.2451 12.9797 10.1218H12.3747ZM12.4473 10.0431H10.6625V10.6481H12.4473V10.0431ZM10.3599 10.3456V11.6404H10.965V10.3456H10.3599ZM10.6625 11.9429H12.2113V11.3379H10.6625V11.9429ZM12.2113 11.9429C12.2373 11.9429 12.2016 11.9491 12.1625 11.9089C12.1248 11.8702 12.1327 11.8383 12.1327 11.8703H12.7377C12.7377 11.749 12.7083 11.6021 12.596 11.4868C12.4823 11.37 12.3347 11.3379 12.2113 11.3379V11.9429ZM12.1327 11.8703C12.1327 11.8983 12.1259 11.8637 12.1653 11.8243C12.2048 11.7848 12.2393 11.7916 12.2113 11.7916V12.3967C12.3326 12.3967 12.4791 12.3661 12.5932 12.2521C12.7072 12.138 12.7377 11.9915 12.7377 11.8703H12.1327ZM12.2113 11.7916H10.6625V12.3967H12.2113V11.7916ZM10.3599 12.0942V13.7761H10.965V12.0942H10.3599ZM10.3599 13.7761C10.3599 13.7877 10.3583 13.7851 10.3623 13.7738C10.3669 13.7608 10.3769 13.742 10.3953 13.7246C10.4331 13.6887 10.4624 13.6975 10.4265 13.6975V14.3025C10.5479 14.3025 10.6952 14.274 10.8117 14.1635C10.9311 14.0502 10.965 13.9016 10.965 13.7761H10.3599ZM10.4265 13.6975H10.372V14.3025H10.4265V13.6975ZM10.372 13.6975C10.3381 13.6975 10.3685 13.6892 10.4062 13.7259C10.4453 13.764 10.4386 13.7981 10.4386 13.7701H9.83357C9.83357 13.8954 9.8662 14.0444 9.98396 14.1592C10.1003 14.2725 10.2487 14.3025 10.372 14.3025V13.6975ZM10.4386 13.7701V10.1218H9.83357V13.7701H10.4386ZM10.4386 10.1218C10.4386 10.0938 10.4453 10.1279 10.4062 10.166C10.3685 10.2027 10.3381 10.1944 10.372 10.1944V9.58932C10.2487 9.58932 10.1003 9.61932 9.98396 9.73265C9.8662 9.84739 9.83357 9.99646 9.83357 10.1218H10.4386ZM15.5354 10.3456V10.0431H15.2329V10.3456H15.5354ZM15.009 10.3456H15.3116V10.0431H15.009V10.3456ZM13.9865 10.1944H16.564V9.58932H13.9865V10.1944ZM16.564 10.1944C16.594 10.1944 16.5609 10.2017 16.5225 10.1632C16.4841 10.1248 16.4914 10.0917 16.4914 10.1218H17.0964C17.0964 9.99848 17.0654 9.85047 16.9503 9.73541C16.8353 9.62034 16.6872 9.58932 16.564 9.58932V10.1944ZM16.4914 10.1218C16.4914 10.1477 16.4852 10.112 16.5254 10.0729C16.564 10.0353 16.596 10.0431 16.564 10.0431V10.6481C16.6853 10.6481 16.8321 10.6187 16.9475 10.5064C17.0643 10.3927 17.0964 10.2451 17.0964 10.1218H16.4914ZM16.564 10.0431H15.5354V10.6481H16.564V10.0431ZM15.2329 10.3456V13.7701H15.8379V10.3456H15.2329ZM15.2329 13.7701C15.2329 13.7981 15.2262 13.764 15.2653 13.7259C15.303 13.6892 15.3334 13.6975 15.2995 13.6975V14.3025C15.4228 14.3025 15.5712 14.2725 15.6875 14.1592C15.8053 14.0444 15.8379 13.8954 15.8379 13.7701H15.2329ZM15.2995 13.6975H15.245V14.3025H15.2995V13.6975ZM15.245 13.6975C15.211 13.6975 15.2415 13.6892 15.2792 13.7259C15.3183 13.764 15.3116 13.7981 15.3116 13.7701H14.7065C14.7065 13.8954 14.7392 14.0444 14.8569 14.1592C14.9732 14.2725 15.1217 14.3025 15.245 14.3025V13.6975ZM15.3116 13.7701V10.3456H14.7065V13.7701H15.3116ZM15.009 10.0431H13.9865V10.6481H15.009V10.0431ZM13.9865 10.0431C13.9545 10.0431 13.9865 10.0353 14.0251 10.0729C14.0653 10.112 14.0591 10.1477 14.0591 10.1218H13.4541C13.4541 10.2451 13.4863 10.3927 13.6031 10.5064C13.7184 10.6187 13.8653 10.6481 13.9865 10.6481V10.0431ZM14.0591 10.1218C14.0591 10.0917 14.0664 10.1248 14.028 10.1632C13.9896 10.2017 13.9565 10.1944 13.9865 10.1944V9.58932C13.8633 9.58932 13.7153 9.62034 13.6002 9.73541C13.4851 9.85047 13.4541 9.99848 13.4541 10.1218H14.0591Z" fill="white" mask="url(#path-3-outside-1_651_193)"/>
<defs>
<linearGradient id="paint0_linear_651_193" x1="10.9133" y1="3" x2="10.9133" y2="21" gradientUnits="userSpaceOnUse">
<stop stop-color="#E5A1F5"/>
<stop offset="1" stop-color="#E169FF"/>
</linearGradient>
</defs>
</svg>
