<svg width="24" height="24" viewBox="0 0 24 24" fill="none" xmlns="http://www.w3.org/2000/svg">
<path fill-rule="evenodd" clip-rule="evenodd" d="M6.5 7C6.5 5.89543 7.39543 5 8.5 5C9.60457 5 10.5 5.89543 10.5 7C10.5 8.10457 9.60457 9 8.5 9C7.39543 9 6.5 8.10457 6.5 7ZM8.5 3C6.29086 3 4.5 4.79086 4.5 7C4.5 9.20914 6.29086 11 8.5 11C10.7091 11 12.5 9.20914 12.5 7C12.5 4.79086 10.7091 3 8.5 3ZM14 13H18.5043L17.2705 14.3161L16.5865 15.0456L18.0456 16.4135L18.7295 15.6839L21.7295 12.4839C21.9112 12.2902 22.0083 12.0321 21.9994 11.7666C21.9906 11.5012 21.8765 11.2502 21.6823 11.0689L18.6823 8.26894L17.9513 7.58663L16.5866 9.04874L17.3177 9.73106L18.6773 11H18.607H14V13ZM4 17C4 15.3431 5.34315 14 7 14H10C11.6569 14 13 15.3431 13 17V20H15V17C15 14.2386 12.7614 12 10 12H7C4.23858 12 2 14.2386 2 17V20H4V17Z" fill="url(#paint0_linear_132_2024)"/>
<defs>
<linearGradient id="paint0_linear_132_2024" x1="20.5717" y1="-5.06594" x2="-2.71399" y2="36.1666" gradientUnits="userSpaceOnUse">
<stop stop-color="white"/>
<stop offset="1" stop-color="white" stop-opacity="0"/>
</linearGradient>
</defs>
</svg>
