<svg width="597" height="52" viewBox="0 0 597 52" fill="none" xmlns="http://www.w3.org/2000/svg">
<g clip-path="url(#clip0_1438_686)">
<path fill-rule="evenodd" clip-rule="evenodd" d="M51.8387 25.7737C51.8387 40.0081 40.2723 51.5475 26.0045 51.5475C12.468 51.5475 1.36313 41.1608 0.260254 27.9402H34.4071V23.6072H0.260254C1.36313 10.3866 12.468 0 26.0045 0C40.2723 0 51.8387 11.5393 51.8387 25.7737ZM147.616 46.8778C156.567 46.8778 162.438 42.0562 162.438 34.7946C162.438 28.0558 158.02 24.8607 151.336 23.7569L145.407 22.7693C140.873 22.0141 137.85 20.0389 137.85 15.6819C137.85 11.2669 141.222 7.89749 147.616 7.89749C153.835 7.89749 157.032 11.0345 157.381 15.5077H161.857C161.508 9.5822 156.974 4.29571 147.674 4.29571C138.489 4.29571 133.433 9.46597 133.433 15.8563C133.433 22.6531 138.024 25.7902 144.302 26.8358L150.29 27.7653C155.289 28.6367 158.079 30.67 158.079 34.9689C158.079 40.023 153.952 43.2762 147.674 43.2762C141.164 43.2762 137.094 40.1392 136.746 34.7946H132.328C132.677 41.7658 138.024 46.8778 147.616 46.8778ZM81.6231 46.0646H65.3471V5.16711H81.0418C87.9592 5.16711 92.7835 9.23361 92.7835 15.7401C92.7835 20.4456 90.1098 23.5826 85.8085 24.6283V24.8026C90.9235 25.7902 94.0623 29.2758 94.0623 34.7365C94.0623 41.7658 88.8892 46.0646 81.6231 46.0646ZM80.4606 23.1179C85.4017 23.1179 88.4242 20.4456 88.4242 16.2629V15.6819C88.4242 11.4993 85.4017 8.88507 80.4606 8.88507H69.707V23.1179H80.4606ZM80.9837 42.3467C86.3898 42.3467 89.7029 39.384 89.7029 34.8527V34.2717C89.7029 29.5662 86.3317 26.7197 80.9256 26.7197H69.707V42.3467H80.9837ZM129.268 46.0646H124.617L121.13 34.9689H104.854L101.366 46.0646H96.9484L110.376 5.16711H115.666L129.268 46.0646ZM113.224 9.64029H112.876L106.016 31.309H120.025L113.224 9.64029ZM168.986 46.0646V5.16711H195.26V8.94316H173.346V23.0017H193.517V26.7197H173.346V42.2886H195.26V46.0646H168.986Z" fill="white"/>
</g>
<path fill-rule="evenodd" clip-rule="evenodd" d="M266.183 40.0669L269.397 36.8533L258.544 25.9996L269.396 15.1467L266.183 11.933L255.33 22.786L244.475 11.9307L241.261 15.1444L252.116 25.9996L241.26 36.8556L244.474 40.0692L255.33 29.2133L266.183 40.0669Z" fill="white"/>
<path fill-rule="evenodd" clip-rule="evenodd" d="M446.735 7.6727C444.353 7.6727 442.401 9.51852 442.401 11.8719C442.401 14.1792 444.353 16.025 446.735 16.025C449.116 16.025 451.069 14.1792 451.069 11.8719C451.069 9.51852 449.116 7.6727 446.735 7.6727ZM450.545 18.1477H442.972V43.0201H450.545V18.1477ZM398.774 8.59563H406.157V18.1477H411.824V24.7927H406.157V33.5603C406.157 34.8524 407.204 35.8676 408.49 35.8676H411.777V42.9279H408.49C403.156 42.9279 398.774 38.7286 398.774 33.5142V24.7465H395.345V18.1016H398.774V8.59563ZM429.875 17.594C426.446 17.594 423.731 18.9784 422.683 21.1472V8.59563H415.11V42.974H422.683V29.0381C422.683 26.1309 424.636 24.1005 427.398 24.1005C430.208 24.1005 431.78 25.854 431.78 28.8073V43.0201H439.353V27.8844C439.353 21.4241 435.923 17.594 429.875 17.594ZM461.356 18.1016V21.5163C462.499 19.0245 465.262 17.594 468.738 17.5478C469.262 17.5478 469.929 17.594 470.739 17.6863V24.6081C469.977 24.4696 469.12 24.3774 468.215 24.3774C463.881 24.3774 461.356 26.7308 461.356 30.8377V42.974H453.784V18.1016H461.356ZM492.028 21.3779C491.266 19.2091 488.266 17.6863 484.408 17.6863C480.788 17.6863 477.74 18.9322 475.311 21.4241C472.93 23.8698 471.692 26.9615 471.692 30.5609C471.692 34.1602 472.93 37.2058 475.311 39.7438C477.74 42.1895 480.788 43.4355 484.408 43.4355C488.266 43.4355 491.266 41.9127 492.028 39.7438V43.0202H499.601V8.59563H492.028V21.3779ZM490.504 34.9909C489.218 36.1906 487.647 36.7444 485.789 36.7444C483.979 36.7444 482.408 36.1445 481.169 34.9909C479.883 33.7449 479.264 32.2683 479.264 30.5609C479.264 28.8535 479.883 27.3768 481.169 26.1771C482.455 24.9311 483.979 24.3312 485.789 24.3312C487.694 24.3312 489.266 24.9311 490.504 26.1771C491.838 27.3768 492.505 28.8535 492.505 30.5609C492.505 32.2683 491.838 33.7449 490.504 34.9909ZM521.462 18.24L528.32 30.0532L532.94 18.1477H540.37L529.797 44.4506L521.462 30.1455L513.127 44.4506L502.602 18.1477H510.031L514.604 30.0532L521.462 18.24ZM552.848 17.5478C548.942 17.5478 545.656 18.7476 543.084 21.1472C540.56 23.5006 539.274 26.6385 539.274 30.5147V30.7454C539.274 34.6216 540.56 37.7595 543.084 40.1129C545.704 42.4202 549.038 43.62 553.229 43.62C557.134 43.62 560.325 42.8817 562.754 41.3589V34.9447C560.373 36.5597 557.325 37.3442 553.658 37.3442C549.657 37.3442 547.037 35.4523 546.894 32.4989H565.707C565.802 31.7606 565.85 30.93 565.85 30.0994C565.85 26.5462 564.612 23.5929 562.23 21.1933C559.849 18.7476 556.658 17.5478 552.848 17.5478ZM546.894 27.746C546.942 26.5923 547.561 25.6233 548.704 24.8388C549.895 24.0543 551.229 23.639 552.848 23.639C555.848 23.639 558.182 25.531 558.182 27.746H546.894ZM583.901 17.6863C587.521 17.6863 590.569 18.9322 592.95 21.4241C595.379 23.9159 596.618 26.9154 596.618 30.5147C596.618 34.1141 595.379 37.1597 592.95 39.6977C590.569 42.1434 587.521 43.3893 583.901 43.3893C580.043 43.3893 577.043 41.8665 576.281 39.6977V42.974H568.708V8.59563H576.281V21.3779C577.043 19.2091 580.043 17.6863 583.901 17.6863ZM582.52 36.7444C584.33 36.7444 585.854 36.1906 587.14 34.9908C588.426 33.7449 589.045 32.2683 589.045 30.5609C589.045 28.8535 588.426 27.3768 587.14 26.1771C585.901 24.9311 584.33 24.3312 582.52 24.3312C580.662 24.3312 579.091 24.9311 577.757 26.1771C576.471 27.3768 575.804 28.8535 575.804 30.5609C575.804 32.2683 576.471 33.7449 577.757 34.9908C579.043 36.1445 580.615 36.7444 582.52 36.7444Z" fill="white"/>
<g clip-path="url(#clip1_1438_686)">
<path fill-rule="evenodd" clip-rule="evenodd" d="M315.577 9.6139C314.917 8.02029 316.147 6.29861 317.947 6.29861H329.122C330.172 6.29861 331.102 6.89622 331.492 7.82108L340.388 29.0503C340.628 29.6194 340.628 30.2597 340.388 30.8431L334.792 44.1754C333.937 46.2101 330.907 46.2101 330.052 44.1754L315.577 9.6139ZM337.163 9.54276C336.563 7.96337 337.793 6.29861 339.563 6.29861H349.298C350.378 6.29861 351.338 6.93891 351.698 7.89223L359.784 29.1214C359.979 29.6479 359.979 30.2313 359.784 30.772L354.923 43.5351C354.113 45.6694 350.933 45.6694 350.123 43.5351L337.163 9.54276ZM359.019 6.29861C357.219 6.29861 355.989 8.02029 356.649 9.6139L371.124 44.1754C371.979 46.2101 375.01 46.2101 375.865 44.1754L381.46 30.8431C381.7 30.2597 381.7 29.6194 381.46 29.0503L372.564 7.82108C372.174 6.89622 371.244 6.29861 370.194 6.29861H359.019Z" fill="white"/>
</g>
<defs>
<clipPath id="clip0_1438_686">
<rect width="195" height="52" fill="white" transform="translate(0.260254)"/>
</clipPath>
<clipPath id="clip1_1438_686">
<rect width="66.2245" height="39.4028" fill="white" transform="translate(315.397 6.29861)"/>
</clipPath>
</defs>
</svg>
