<svg width="1682" height="193" viewBox="0 0 1682 193" fill="none" xmlns="http://www.w3.org/2000/svg">
<path fill-rule="evenodd" clip-rule="evenodd" d="M781.888 133.875L790.572 125.191L761.242 95.8619L790.572 66.5323L781.888 57.8484L752.558 87.178L723.227 57.8464L714.543 66.5303L743.875 95.8619L714.543 125.193L723.227 133.877L752.558 104.546L781.888 133.875Z" fill="white"/>
<path fill-rule="evenodd" clip-rule="evenodd" d="M348.357 0.0288086H373.024V0.0302078L409.552 102.628H383.537L375.45 80.0833L341.886 91.0175L337.977 102.627H311.558L348.357 0.0288086ZM360.556 37.693L350.918 64.9626L367.902 59.968L360.556 37.693ZM307.518 1.64901H229.338L243.493 12.7187V103.438H307.518V80.082H269.642V63.4781H299.431V40.2581H269.642V25.0032H307.518V1.64901ZM0.189453 1.6491H99.3297L79.3054 56.7117L60.6215 42.0285V59.8453L80.1098 71.5739L77.6068 76.5876L68.6675 72.2006L54.8999 103.627L60.6215 106.85L57.5816 113.207L48.5525 115.535L53.6484 132.188L70.0977 127.442L68.2204 118.847L71.5279 114.37L84.4013 122.339L137.949 169.165L90.4802 191.995L13.3304 155.287V16.1534L0.189453 3.61916V1.6491ZM180.142 1.6491H155.558L105.407 71.0371L126.415 79.2734L110.86 88.2272L91.1928 77.4832L87.528 84.0191L92.9812 86.526L97.9873 103L166.823 128.964V14.7211L180.142 1.6491ZM471.695 63.4781L485.308 59.4284V10.9629L472.637 0.0288086H412.655V102.627H438.67V73.6028L447.701 71.7129L465.224 102.627H494.07L471.695 63.4781ZM461.315 40.9332L438.535 48.6285V22.8434H461.315V40.9332ZM501.213 0.0288086V102.627H527.498V48.6285L563.621 102.627H586.941V11.7737L603.655 0.0288086H560.926V54.9734L524.396 0.0288086H501.213ZM276.986 134.89H262.9L242.816 191.995H257.981L259.801 185.244L277.863 179.305L281.773 191.995H296.667L276.987 134.89H276.986ZM265.125 169.99L269.742 156.219L273.887 167.424L265.126 169.99H265.125ZM409.082 134.89H423.168H423.169L442.849 191.995H427.955L424.046 179.305L405.983 185.244L404.163 191.995H388.999L409.082 134.89ZM415.923 156.219L411.305 169.99H411.307L420.068 167.424L415.923 156.219ZM298.621 134.89V191.995H331.377V178.697H313.853V134.89H298.621ZM335.151 191.995V134.89H350.383V178.697H367.905V191.995H335.151ZM386.774 134.89H371.744V191.995H386.774V134.89ZM444.602 134.89V191.995H459.429V162.16L479.783 191.995H491.913V141.911H493.093V136.14L491.846 134.89H477.693V163.983L457.878 134.89H444.602ZM542.594 155.141V140.764L536.663 134.824H507.279L499.595 141.303H501.213V186.865L506.369 192.029H538.281L543.419 186.882V172.286H528.711V179.239H515.299V148.323H527.969V155.141H542.594ZM551.289 192.028V134.89H586.807V148.931H565.712V156.626H582.089V169.922H565.712V178.832H586.807V192.028H551.289Z" fill="white"/>
<path fill-rule="evenodd" clip-rule="evenodd" d="M1276.52 46.5049C1270.09 46.5049 1264.81 51.4926 1264.81 57.8519C1264.81 64.0866 1270.09 69.0743 1276.52 69.0743C1282.96 69.0743 1288.23 64.0866 1288.23 57.8519C1288.23 51.4926 1282.96 46.5049 1276.52 46.5049ZM1286.82 74.8102H1266.35V142.02H1286.82V74.8102ZM1146.92 48.9991H1166.87V74.8105H1182.19V92.7662H1166.87V116.458C1166.87 119.949 1169.7 122.692 1173.18 122.692H1182.06V141.771H1173.18C1158.76 141.771 1146.92 130.423 1146.92 116.333V92.6415H1137.66V74.6858H1146.92V48.9991ZM1230.96 73.3142C1221.69 73.3142 1214.36 77.0549 1211.53 82.9155V48.9991H1191.06V141.895H1211.53V104.238C1211.53 96.3823 1216.8 90.8958 1224.27 90.8958C1231.86 90.8958 1236.11 95.6342 1236.11 103.615V142.02H1256.57V101.121C1256.57 83.6637 1247.31 73.3142 1230.96 73.3142ZM1316.03 74.6855V83.9128C1319.12 77.1793 1326.58 73.3139 1335.98 73.1892C1337.39 73.1892 1339.19 73.3139 1341.38 73.5633V92.2672C1339.32 91.8931 1337.01 91.6437 1334.56 91.6437C1322.85 91.6437 1316.03 98.003 1316.03 109.101V141.895H1295.57V74.6855H1316.03ZM1398.91 83.539C1396.85 77.6784 1388.74 73.5636 1378.32 73.5636C1368.54 73.5636 1360.3 76.9303 1353.74 83.6637C1347.3 90.2724 1343.96 98.6268 1343.96 108.353C1343.96 118.079 1347.3 126.309 1353.74 133.167C1360.3 139.775 1368.54 143.142 1378.32 143.142C1388.74 143.142 1396.85 139.027 1398.91 133.167V142.02H1419.37V48.9991H1398.91V83.539ZM1394.79 120.323C1391.32 123.565 1387.07 125.062 1382.05 125.062C1377.16 125.062 1372.91 123.441 1369.57 120.323C1366.09 116.957 1364.42 112.966 1364.42 108.353C1364.42 103.739 1366.09 99.749 1369.57 96.507C1373.04 93.1403 1377.16 91.5193 1382.05 91.5193C1387.2 91.5193 1391.45 93.1403 1394.79 96.507C1398.39 99.749 1400.2 103.739 1400.2 108.353C1400.2 112.966 1398.39 116.957 1394.79 120.323ZM1478.44 75.0596L1496.98 106.981L1509.46 74.8102H1529.54L1500.97 145.885L1478.44 107.23L1455.92 145.885L1427.48 74.8102H1447.56L1459.91 106.981L1478.44 75.0596ZM1563.25 73.1892C1552.7 73.1892 1543.82 76.4312 1536.87 82.9152C1530.05 89.2745 1526.58 97.7536 1526.58 108.228V108.851C1526.58 119.325 1530.05 127.805 1536.87 134.164C1543.95 140.399 1552.96 143.641 1564.28 143.641C1574.84 143.641 1583.46 141.645 1590.02 137.531V120.198C1583.59 124.563 1575.35 126.682 1565.44 126.682C1554.63 126.682 1547.55 121.57 1547.17 113.59H1598C1598.26 111.595 1598.39 109.35 1598.39 107.106C1598.39 97.5043 1595.04 89.5239 1588.61 83.0399C1582.17 76.4312 1573.55 73.1892 1563.25 73.1892ZM1547.17 100.746C1547.3 97.6289 1548.97 95.0104 1552.06 92.8906C1555.28 90.7708 1558.88 89.6486 1563.25 89.6486C1571.36 89.6486 1577.67 94.761 1577.67 100.746H1547.17ZM1647.16 73.5635C1656.95 73.5635 1665.18 76.9302 1671.62 83.6637C1678.18 90.3971 1681.53 98.5021 1681.53 108.228C1681.53 117.954 1678.18 126.184 1671.62 133.042C1665.18 139.651 1656.95 143.017 1647.16 143.017C1636.74 143.017 1628.63 138.903 1626.57 133.042V141.895H1606.11V48.9991H1626.57V83.539C1628.63 77.6784 1636.74 73.5635 1647.16 73.5635ZM1643.43 125.062C1648.32 125.062 1652.44 123.565 1655.92 120.323C1659.39 116.957 1661.06 112.966 1661.06 108.353C1661.06 103.739 1659.39 99.749 1655.92 96.507C1652.57 93.1403 1648.32 91.5193 1643.43 91.5193C1638.41 91.5193 1634.17 93.1403 1630.56 96.507C1627.09 99.749 1625.29 103.739 1625.29 108.353C1625.29 112.966 1627.09 116.957 1630.56 120.323C1634.04 123.441 1638.28 125.062 1643.43 125.062Z" fill="white"/>
<g clip-path="url(#clip0_2993_10532)">
<path fill-rule="evenodd" clip-rule="evenodd" d="M922.11 51.7504C920.327 47.4442 923.65 42.792 928.515 42.792H958.712C961.55 42.792 964.063 44.4068 965.117 46.906L989.153 104.271C989.802 105.809 989.802 107.539 989.153 109.115L974.034 145.141C971.724 150.639 963.536 150.639 961.225 145.141L922.11 51.7504ZM980.439 51.5582C978.818 47.2904 982.141 42.792 986.924 42.792H1013.23C1016.15 42.792 1018.74 44.5222 1019.72 47.0982L1041.56 104.463C1042.09 105.886 1042.09 107.462 1041.56 108.923L1028.43 143.411C1026.24 149.178 1017.65 149.178 1015.46 143.411L980.439 51.5582ZM1039.5 42.792C1034.63 42.792 1031.31 47.4442 1033.09 51.7504L1072.21 145.141C1074.52 150.639 1082.71 150.639 1085.02 145.141L1100.14 109.115C1100.79 107.539 1100.79 105.809 1100.14 104.271L1076.1 46.906C1075.05 44.4068 1072.53 42.792 1069.7 42.792H1039.5Z" fill="white"/>
</g>
<defs>
<clipPath id="clip0_2993_10532">
<rect width="178.95" height="106.473" fill="white" transform="translate(921.624 42.792)"/>
</clipPath>
</defs>
</svg>
