<svg width="48" height="48" viewBox="0 0 48 48" fill="none" xmlns="http://www.w3.org/2000/svg">
<path d="M1.5 15V42H46.5V15M1.5 6H46.5V15H1.5V6Z" stroke="white" stroke-opacity="0.2" stroke-width="2" stroke-linecap="round" stroke-linejoin="round"/>
<path d="M6 11.25C6.41421 11.25 6.75 10.9142 6.75 10.5C6.75 10.0858 6.41421 9.75 6 9.75C5.58579 9.75 5.25 10.0858 5.25 10.5C5.25 10.9142 5.58579 11.25 6 11.25Z" stroke="white" stroke-opacity="0.2" stroke-width="2" stroke-linecap="round" stroke-linejoin="round"/>
<path d="M11.25 11.25C11.6642 11.25 12 10.9142 12 10.5C12 10.0858 11.6642 9.75 11.25 9.75C10.8358 9.75 10.5 10.0858 10.5 10.5C10.5 10.9142 10.8358 11.25 11.25 11.25Z" stroke="white" stroke-opacity="0.2" stroke-width="2" stroke-linecap="round" stroke-linejoin="round"/>
<path d="M16.5 11.25C16.9142 11.25 17.25 10.9142 17.25 10.5C17.25 10.0858 16.9142 9.75 16.5 9.75C16.0858 9.75 15.75 10.0858 15.75 10.5C15.75 10.9142 16.0858 11.25 16.5 11.25Z" stroke="white" stroke-opacity="0.2" stroke-width="2" stroke-linecap="round" stroke-linejoin="round"/>
<g clip-path="url(#clip0_3694_5670)">
<path d="M19.5441 33.2108C16.6708 33.2108 14.3333 30.8732 14.3333 27.9999C14.3333 25.1267 16.6708 22.7891 19.5441 22.7891C22.0232 22.7891 24.1033 24.5294 24.6273 26.8525H33.1858C33.8185 26.8525 34.3332 27.3672 34.3332 27.9999C34.3332 28.6326 33.8185 29.1474 33.1858 29.1474H32.8175V30.692C32.8175 31.1329 32.4773 31.4916 32.0591 31.4916C31.6408 31.4916 31.3006 31.1329 31.3006 30.692V30.661C31.3006 30.5141 31.181 30.3945 31.034 30.3945H30.6097C30.4627 30.3945 30.3432 30.5141 30.3432 30.661V30.692C30.3432 31.1329 30.0029 31.4916 29.5846 31.4916C29.1664 31.4916 28.8261 31.1329 28.8261 30.692V29.1474H24.6274C24.1033 31.4705 22.0232 33.2108 19.5441 33.2108ZM22.4771 27.9999C22.4771 26.3801 21.1639 25.0669 19.5441 25.0669C17.9242 25.0669 16.6111 26.3801 16.6111 27.9999C16.6111 29.6198 17.9242 30.933 19.5441 30.933C21.1639 30.933 22.4771 29.6198 22.4771 27.9999Z" fill="url(#paint0_linear_3694_5670)"/>
</g>
<defs>
<linearGradient id="paint0_linear_3694_5670" x1="8.83325" y1="28" x2="42.3333" y2="27" gradientUnits="userSpaceOnUse">
<stop stop-color="white" stop-opacity="0"/>
<stop offset="1" stop-color="white"/>
</linearGradient>
<clipPath id="clip0_3694_5670">
<rect width="20" height="20" fill="white" transform="matrix(0 1 1 0 14.3333 18)"/>
</clipPath>
</defs>
</svg>
