<svg width="1440" height="1939" viewBox="0 0 1440 1939" fill="none" xmlns="http://www.w3.org/2000/svg">
<g opacity="0.6" filter="url(#filter0_f_4258_351)">
<ellipse cx="646.034" cy="985.119" rx="500.549" ry="333.988" fill="#5E19F0"/>
</g>
<g opacity="0.6" filter="url(#filter1_f_4258_351)">
<ellipse cx="1132.54" cy="1234.79" rx="555.085" ry="202.467" transform="rotate(10.9608 1132.54 1234.79)" fill="#5E19F0"/>
</g>
<g opacity="0.6" filter="url(#filter2_f_4258_351)">
<ellipse cx="659.868" cy="1276.44" rx="335.803" ry="224.062" transform="rotate(20.5639 659.868 1276.44)" fill="#5E19F0"/>
</g>
<g opacity="0.6" filter="url(#filter3_f_4258_351)">
<circle cx="258.829" cy="1094.45" r="304.88" fill="#3719F0"/>
</g>
<g filter="url(#filter4_f_4258_351)">
<path d="M471.112 935.009C307.894 933.688 -81.128 1002.41 -53.3744 1402.87C-53.3744 1402.87 1521.41 1418.42 1548.9 1416.31C1583.26 1413.67 1817.83 1124.67 1827.74 1114.75C1837.65 1104.84 1881.92 1014.97 1597.78 783.681C1313.63 552.394 1073.76 730.32 907.241 847.12C740.719 963.921 634.33 936.331 471.112 935.009Z" fill="url(#paint0_linear_4258_351)"/>
</g>
<mask id="mask0_4258_351" style="mask-type:alpha" maskUnits="userSpaceOnUse" x="850" y="657" width="740" height="641">
<ellipse cx="1219.97" cy="977.446" rx="419.253" ry="250.734" transform="rotate(-36.2854 1219.97 977.446)" fill="url(#paint1_radial_4258_351)"/>
</mask>
<g mask="url(#mask0_4258_351)">
<path d="M852.815 1201.64C800.512 1221.71 789.02 1242.28 758.082 1290.48L1261.52 1477.51C1389.8 1282.34 1612.13 908.598 1523.85 873.265C1431.47 836.293 1290.63 851.692 1204.26 894.014C1117.89 936.336 1048.29 1077.63 1015.59 1127.92C985.296 1174.51 905.118 1181.57 852.815 1201.64Z" fill="#7B5FE7"/>
<g filter="url(#filter5_f_4258_351)">
<path d="M852.815 1200.77C800.512 1220.85 789.02 1241.41 758.082 1289.61L1261.52 1476.65C1389.8 1281.48 1580.54 850.862 1492.25 815.529C1422.44 787.59 1295.55 854.745 1230.51 893.334C1209.48 905.809 1224.36 919.947 1211.19 920.837C1115.22 927.315 1048.29 1076.77 1015.59 1127.06C985.296 1173.65 905.118 1180.7 852.815 1200.77Z" fill="#7B5FE7"/>
</g>
<g filter="url(#filter6_f_4258_351)">
<path d="M838.972 1194.72C786.669 1214.79 775.177 1235.36 744.238 1283.55L1261.52 1477.51C1389.8 1282.34 1501.38 887.832 1413.1 852.499C1330.28 819.356 1282.33 858.707 1215.37 897.162C1207.63 901.605 1220.13 903.475 1211.19 907.858C1124.82 950.18 1034.45 1070.71 1001.75 1121C971.452 1167.59 891.274 1174.64 838.972 1194.72Z" fill="#7B5FE7"/>
</g>
<g filter="url(#filter7_f_4258_351)">
<path d="M825.128 1187.8C772.825 1207.87 761.333 1228.43 730.395 1276.63L1261.52 1477.51C1389.8 1282.34 1632.9 839.378 1544.61 804.045C1470.1 774.223 1338.28 846.674 1256.47 878.611C1236.85 886.269 1225.29 901.404 1208.59 909.589C1122.22 951.911 1020.6 1063.79 987.904 1114.08C957.608 1160.67 877.431 1167.72 825.128 1187.8Z" fill="#7B5FE7"/>
</g>
<g filter="url(#filter8_f_4258_351)">
<path d="M780.999 1168.89C728.696 1188.97 717.204 1209.53 686.266 1257.73L1231.23 1472.45C1359.51 1277.28 1471.1 882.771 1382.81 847.438C1314.34 820.035 1262.28 876.418 1229.65 896.69C1218.25 903.769 1250.93 915.898 1226.18 915.898C1130.57 915.898 1148.65 1016.54 991.268 1082.89C940.06 1104.48 833.302 1148.82 780.999 1168.89Z" fill="#7B5FE7"/>
</g>
</g>
<g opacity="0.6" filter="url(#filter9_f_4258_351)">
<circle cx="1319.2" cy="1102.36" r="142.334" fill="#B819F0"/>
</g>
<g opacity="0.3" filter="url(#filter10_f_4258_351)">
<ellipse cx="725.804" cy="1056.11" rx="462.854" ry="206.62" transform="rotate(20.3891 725.804 1056.11)" fill="#AE00FF"/>
</g>
<mask id="mask1_4258_351" style="mask-type:alpha" maskUnits="userSpaceOnUse" x="-397" y="736" width="1275" height="676">
<path d="M-211.295 1411.41C-258.851 1136.96 -392.712 891.921 -396.184 878.446L877.191 736.658L816.6 1399.43L-211.295 1411.41Z" fill="url(#paint2_linear_4258_351)"/>
</mask>
<g mask="url(#mask1_4258_351)">
<path d="M168.881 932.945C284.814 912.66 393.871 961.811 404.257 1021.17C414.642 1080.52 381.34 1166.62 256.954 1188.39C195.315 1199.17 127.415 1251.94 49.0108 1235.2C-30.8022 1218.16 -28.0151 1134.24 -33.2539 1104.3C-43.6391 1044.94 52.9481 953.23 168.881 932.945Z" fill="#8A4DEE"/>
<g filter="url(#filter11_f_4258_351)">
<path d="M168.381 938.272C292.717 916.517 391.658 957.856 400.584 1008.87C409.511 1059.89 374.315 1135.06 249.979 1156.81C188.365 1167.59 119.753 1216.11 42.1051 1203.51C-36.9381 1190.69 -32.1688 1118.14 -36.672 1092.4C-45.5987 1041.38 44.0456 960.026 168.381 938.272Z" fill="#8A4DEE"/>
</g>
<g filter="url(#filter12_f_4258_351)">
<path d="M172.151 937.613C311.507 913.23 423.516 965.941 434.522 1028.84C445.527 1091.74 407.392 1183.49 268.036 1207.87C198.979 1219.95 123.798 1284.17 36.2715 1267.2C-52.8278 1249.93 -49.7777 1155.49 -55.3295 1123.76C-66.3351 1060.86 32.7949 961.996 172.151 937.613Z" fill="#8A4DEE"/>
</g>
<g filter="url(#filter13_f_4258_351)">
<path d="M189.537 942.249C364.291 927.574 521.082 984.22 533.963 1057.84C546.844 1131.45 473.441 1226.32 306.312 1255.56C223.491 1270.05 131.062 1368.91 26.2495 1349.47C-80.4459 1329.68 -75.2372 1225.29 -81.7349 1188.15C-94.6155 1114.54 -12.9054 959.249 189.537 942.249Z" fill="#8A4DEE"/>
</g>
<g filter="url(#filter14_f_4258_351)">
<path d="M252.714 961.899C432.669 930.413 604.186 998.155 616.779 1070.13C629.373 1142.11 548.959 1236.37 369.004 1267.85C279.827 1283.46 176.357 1329.87 64.1364 1312.57C-50.1 1294.95 -42.752 1192.49 -49.1048 1156.19C-61.6982 1084.21 72.7587 993.386 252.714 961.899Z" fill="#8A4DEE"/>
</g>
<g filter="url(#filter15_f_4258_351)">
<path d="M327.786 978.374C513.753 945.836 690.824 1014.84 703.705 1088.45C716.585 1162.07 633.341 1258.65 447.374 1291.19C355.218 1307.32 248.24 1354.99 132.337 1337.49C14.3518 1319.67 22.1275 1214.83 15.6299 1177.7C2.74924 1104.08 141.819 1010.91 327.786 978.374Z" fill="#8A4DEE"/>
</g>
<g filter="url(#filter16_f_4258_351)">
<path d="M185.866 991.141C348.587 962.67 505.646 1035.17 518.527 1108.79C531.407 1182.4 460.309 1276.86 297.588 1305.34C216.952 1319.44 122.471 1356.16 20.2538 1336.26C-83.7994 1316.01 -79.1915 1211.72 -85.6892 1174.58C-98.5698 1100.97 23.1451 1019.61 185.866 991.141Z" fill="#8A4DEE"/>
</g>
</g>
<g opacity="0.6" filter="url(#filter17_f_4258_351)">
<ellipse cx="988.074" cy="1064.79" rx="142.334" ry="42.1529" transform="rotate(-41.2443 988.074 1064.79)" fill="#28009B"/>
</g>
<defs>
<filter id="filter0_f_4258_351" x="-211" y="294.647" width="1714.07" height="1380.95" filterUnits="userSpaceOnUse" color-interpolation-filters="sRGB">
<feFlood flood-opacity="0" result="BackgroundImageFix"/>
<feBlend mode="normal" in="SourceGraphic" in2="BackgroundImageFix" result="shape"/>
<feGaussianBlur stdDeviation="178.242" result="effect1_foregroundBlur_4258_351"/>
</filter>
<filter id="filter1_f_4258_351" x="229.711" y="653.203" width="1805.65" height="1163.17" filterUnits="userSpaceOnUse" color-interpolation-filters="sRGB">
<feFlood flood-opacity="0" result="BackgroundImageFix"/>
<feBlend mode="normal" in="SourceGraphic" in2="BackgroundImageFix" result="shape"/>
<feGaussianBlur stdDeviation="178.242" result="effect1_foregroundBlur_4258_351"/>
</filter>
<filter id="filter2_f_4258_351" x="-20.801" y="679.241" width="1361.34" height="1194.4" filterUnits="userSpaceOnUse" color-interpolation-filters="sRGB">
<feFlood flood-opacity="0" result="BackgroundImageFix"/>
<feBlend mode="normal" in="SourceGraphic" in2="BackgroundImageFix" result="shape"/>
<feGaussianBlur stdDeviation="178.242" result="effect1_foregroundBlur_4258_351"/>
</filter>
<filter id="filter3_f_4258_351" x="-402.535" y="433.087" width="1322.73" height="1322.73" filterUnits="userSpaceOnUse" color-interpolation-filters="sRGB">
<feFlood flood-opacity="0" result="BackgroundImageFix"/>
<feBlend mode="normal" in="SourceGraphic" in2="BackgroundImageFix" result="shape"/>
<feGaussianBlur stdDeviation="178.242" result="effect1_foregroundBlur_4258_351"/>
</filter>
<filter id="filter4_f_4258_351" x="-189.765" y="536.052" width="2160.93" height="1015.44" filterUnits="userSpaceOnUse" color-interpolation-filters="sRGB">
<feFlood flood-opacity="0" result="BackgroundImageFix"/>
<feBlend mode="normal" in="SourceGraphic" in2="BackgroundImageFix" result="shape"/>
<feGaussianBlur stdDeviation="67.4898" result="effect1_foregroundBlur_4258_351"/>
</filter>
<filter id="filter5_f_4258_351" x="740.777" y="791.605" width="791.325" height="702.345" filterUnits="userSpaceOnUse" color-interpolation-filters="sRGB">
<feFlood flood-opacity="0" result="BackgroundImageFix"/>
<feBlend mode="normal" in="SourceGraphic" in2="BackgroundImageFix" result="shape"/>
<feGaussianBlur stdDeviation="8.65254" result="effect1_foregroundBlur_4258_351"/>
</filter>
<filter id="filter6_f_4258_351" x="720.011" y="815.83" width="748.911" height="685.908" filterUnits="userSpaceOnUse" color-interpolation-filters="sRGB">
<feFlood flood-opacity="0" result="BackgroundImageFix"/>
<feBlend mode="normal" in="SourceGraphic" in2="BackgroundImageFix" result="shape"/>
<feGaussianBlur stdDeviation="12.1136" result="effect1_foregroundBlur_4258_351"/>
</filter>
<filter id="filter7_f_4258_351" x="699.245" y="765.846" width="895.388" height="742.814" filterUnits="userSpaceOnUse" color-interpolation-filters="sRGB">
<feFlood flood-opacity="0" result="BackgroundImageFix"/>
<feBlend mode="normal" in="SourceGraphic" in2="BackgroundImageFix" result="shape"/>
<feGaussianBlur stdDeviation="15.5746" result="effect1_foregroundBlur_4258_351"/>
</filter>
<filter id="filter8_f_4258_351" x="641.272" y="795.077" width="818.131" height="722.366" filterUnits="userSpaceOnUse" color-interpolation-filters="sRGB">
<feFlood flood-opacity="0" result="BackgroundImageFix"/>
<feBlend mode="normal" in="SourceGraphic" in2="BackgroundImageFix" result="shape"/>
<feGaussianBlur stdDeviation="22.4966" result="effect1_foregroundBlur_4258_351"/>
</filter>
<filter id="filter9_f_4258_351" x="993.429" y="776.593" width="651.536" height="651.536" filterUnits="userSpaceOnUse" color-interpolation-filters="sRGB">
<feFlood flood-opacity="0" result="BackgroundImageFix"/>
<feBlend mode="normal" in="SourceGraphic" in2="BackgroundImageFix" result="shape"/>
<feGaussianBlur stdDeviation="91.7169" result="effect1_foregroundBlur_4258_351"/>
</filter>
<filter id="filter10_f_4258_351" x="102.515" y="620.652" width="1246.58" height="870.917" filterUnits="userSpaceOnUse" color-interpolation-filters="sRGB">
<feFlood flood-opacity="0" result="BackgroundImageFix"/>
<feBlend mode="normal" in="SourceGraphic" in2="BackgroundImageFix" result="shape"/>
<feGaussianBlur stdDeviation="91.7169" result="effect1_foregroundBlur_4258_351"/>
</filter>
<filter id="filter11_f_4258_351" x="-43.8092" y="925.813" width="452.228" height="286.298" filterUnits="userSpaceOnUse" color-interpolation-filters="sRGB">
<feFlood flood-opacity="0" result="BackgroundImageFix"/>
<feBlend mode="normal" in="SourceGraphic" in2="BackgroundImageFix" result="shape"/>
<feGaussianBlur stdDeviation="3.262" result="effect1_foregroundBlur_4258_351"/>
</filter>
<filter id="filter12_f_4258_351" x="-78.998" y="908.699" width="538.137" height="384.17" filterUnits="userSpaceOnUse" color-interpolation-filters="sRGB">
<feFlood flood-opacity="0" result="BackgroundImageFix"/>
<feBlend mode="normal" in="SourceGraphic" in2="BackgroundImageFix" result="shape"/>
<feGaussianBlur stdDeviation="11.417" result="effect1_foregroundBlur_4258_351"/>
</filter>
<filter id="filter13_f_4258_351" x="-115.663" y="907.301" width="683.685" height="477.312" filterUnits="userSpaceOnUse" color-interpolation-filters="sRGB">
<feFlood flood-opacity="0" result="BackgroundImageFix"/>
<feBlend mode="normal" in="SourceGraphic" in2="BackgroundImageFix" result="shape"/>
<feGaussianBlur stdDeviation="16.31" result="effect1_foregroundBlur_4258_351"/>
</filter>
<filter id="filter14_f_4258_351" x="-137.996" y="865.901" width="844.124" height="538.546" filterUnits="userSpaceOnUse" color-interpolation-filters="sRGB">
<feFlood flood-opacity="0" result="BackgroundImageFix"/>
<feBlend mode="normal" in="SourceGraphic" in2="BackgroundImageFix" result="shape"/>
<feGaussianBlur stdDeviation="44.037" result="effect1_foregroundBlur_4258_351"/>
</filter>
<filter id="filter15_f_4258_351" x="-203.749" y="751.547" width="1127.3" height="808.297" filterUnits="userSpaceOnUse" color-interpolation-filters="sRGB">
<feFlood flood-opacity="0" result="BackgroundImageFix"/>
<feBlend mode="normal" in="SourceGraphic" in2="BackgroundImageFix" result="shape"/>
<feGaussianBlur stdDeviation="109.277" result="effect1_foregroundBlur_4258_351"/>
</filter>
<filter id="filter16_f_4258_351" x="-187.747" y="883.684" width="808.873" height="559.48" filterUnits="userSpaceOnUse" color-interpolation-filters="sRGB">
<feFlood flood-opacity="0" result="BackgroundImageFix"/>
<feBlend mode="normal" in="SourceGraphic" in2="BackgroundImageFix" result="shape"/>
<feGaussianBlur stdDeviation="50.5609" result="effect1_foregroundBlur_4258_351"/>
</filter>
<filter id="filter17_f_4258_351" x="694.043" y="782.286" width="588.063" height="565.012" filterUnits="userSpaceOnUse" color-interpolation-filters="sRGB">
<feFlood flood-opacity="0" result="BackgroundImageFix"/>
<feBlend mode="normal" in="SourceGraphic" in2="BackgroundImageFix" result="shape"/>
<feGaussianBlur stdDeviation="91.7169" result="effect1_foregroundBlur_4258_351"/>
</filter>
<linearGradient id="paint0_linear_4258_351" x1="890.701" y1="671.031" x2="890.701" y2="1416.51" gradientUnits="userSpaceOnUse">
<stop stop-color="#6849E1"/>
<stop offset="1" stop-color="#3E1088"/>
</linearGradient>
<radialGradient id="paint1_radial_4258_351" cx="0" cy="0" r="1" gradientUnits="userSpaceOnUse" gradientTransform="translate(1291.82 937.296) rotate(103.875) scale(299.627 482.187)">
<stop offset="0.120131" stop-color="#C4C4C4"/>
<stop offset="0.692585" stop-color="#C4C4C4" stop-opacity="0"/>
</radialGradient>
<linearGradient id="paint2_linear_4258_351" x1="124.52" y1="967.113" x2="217.744" y2="1416.58" gradientUnits="userSpaceOnUse">
<stop stop-color="#C4C4C4"/>
<stop offset="1" stop-color="#C4C4C4" stop-opacity="0"/>
</linearGradient>
</defs>
</svg>
