<svg width="101" height="91" viewBox="0 0 101 91" fill="none" xmlns="http://www.w3.org/2000/svg">
<rect width="101" height="91" rx="24" fill="#0F0F0F"/>
<g clip-path="url(#clip0_180_118)">
<path d="M77.0249 24.3656C79.1342 25.0833 80.872 26.6096 81.8559 28.6086C82.8399 30.6076 82.9895 32.9156 82.2718 35.0249C81.2704 37.9676 78.7916 39.9933 75.9498 40.5645L75.1379 42.9504C75.0183 43.302 74.7639 43.5916 74.4308 43.7556C74.0976 43.9196 73.7129 43.9445 73.3614 43.8249L68.0593 42.0207C67.7078 41.9011 67.4181 41.6467 67.2542 41.3136C67.0902 40.9804 67.0652 40.5957 67.1849 40.2442L67.9967 37.8583C66.0931 35.6724 65.3643 32.5551 66.3656 29.6125C67.0833 27.5032 68.6096 25.7654 70.6086 24.7814C72.6076 23.7974 74.9156 23.6479 77.0249 24.3656ZM72.9103 45.1504L72.4593 46.4759C72.3397 46.8275 72.0853 47.1171 71.7521 47.2811C71.419 47.4451 71.0343 47.47 70.6828 47.3504L68.0317 46.4483C67.6802 46.3287 67.3905 46.0743 67.2265 45.7412C67.0626 45.408 67.0376 45.0233 67.1572 44.6718L67.6083 43.3462L72.9103 45.1504ZM85.3738 34.6015L89.3504 35.9546L88.4483 38.6056L84.4717 37.2525L85.3738 34.6015ZM60.189 26.0318L64.1656 27.3849L63.2635 30.0359L59.287 28.6828L60.189 26.0318ZM80.6056 18.1891L79.2525 22.1656L76.6015 21.2635L77.9546 17.287L80.6056 18.1891ZM68.7679 17.8585L70.626 21.6558L68.1078 22.8843L66.2406 19.1135L68.7679 17.8585ZM83.7531 26.1078L87.5239 24.2407L88.7744 26.7811L84.9948 28.6305L83.7531 26.1078Z" fill="url(#paint0_linear_180_118)"/>
</g>
<path d="M62.125 35.4583C59.5812 34.6562 56.7854 34.3125 54.1042 34.3125C49.6354 34.3125 44.8229 35.2292 41.5 37.75C38.1771 35.2292 33.3646 34.3125 28.8958 34.3125C24.4271 34.3125 19.6146 35.2292 16.2917 37.75V71.3229C16.2917 71.8958 16.8646 72.4688 17.4375 72.4688C17.6667 72.4688 17.7812 72.3542 18.0104 72.3542C21.1042 70.8646 25.5729 69.8333 28.8958 69.8333C33.3646 69.8333 38.1771 70.75 41.5 73.2708C44.5937 71.3229 50.2083 69.8333 54.1042 69.8333C57.8854 69.8333 61.7812 70.5208 64.9896 72.2396C65.2187 72.3542 65.3333 72.3542 65.5625 72.3542C66.1354 72.3542 66.7083 71.7813 66.7083 71.2083V37.75C65.3333 36.7188 63.8437 36.0313 62.125 35.4583ZM62.125 66.3958C59.6042 65.5938 56.8542 65.25 54.1042 65.25C50.2083 65.25 44.5937 66.7396 41.5 68.6875V42.3333C44.5937 40.3854 50.2083 38.8958 54.1042 38.8958C56.8542 38.8958 59.6042 39.2396 62.125 40.0417V66.3958Z" fill="black"/>
<path d="M62.125 35.4583C59.5812 34.6562 56.7854 34.3125 54.1042 34.3125C49.6354 34.3125 44.8229 35.2292 41.5 37.75C38.1771 35.2292 33.3646 34.3125 28.8958 34.3125C24.4271 34.3125 19.6146 35.2292 16.2917 37.75V71.3229C16.2917 71.8958 16.8646 72.4688 17.4375 72.4688C17.6667 72.4688 17.7812 72.3542 18.0104 72.3542C21.1042 70.8646 25.5729 69.8333 28.8958 69.8333C33.3646 69.8333 38.1771 70.75 41.5 73.2708C44.5937 71.3229 50.2083 69.8333 54.1042 69.8333C57.8854 69.8333 61.7812 70.5208 64.9896 72.2396C65.2187 72.3542 65.3333 72.3542 65.5625 72.3542C66.1354 72.3542 66.7083 71.7813 66.7083 71.2083V37.75C65.3333 36.7188 63.8437 36.0313 62.125 35.4583ZM62.125 66.3958C59.6042 65.5938 56.8542 65.25 54.1042 65.25C50.2083 65.25 44.5937 66.7396 41.5 68.6875V42.3333C44.5937 40.3854 50.2083 38.8958 54.1042 38.8958C56.8542 38.8958 59.6042 39.2396 62.125 40.0417V66.3958Z" fill="url(#paint1_linear_180_118)"/>
<path d="M54.1042 48.0625C56.1208 48.0625 58.0687 48.2688 59.8333 48.6583V45.175C58.0229 44.8312 56.075 44.625 54.1042 44.625C50.2083 44.625 46.6792 45.2896 43.7917 46.5271V50.3312C46.3812 48.8646 49.9792 48.0625 54.1042 48.0625ZM43.7917 52.6229V56.4271C46.3812 54.9604 49.9792 54.1583 54.1042 54.1583C56.1208 54.1583 58.0687 54.3646 59.8333 54.7542V51.2708C58.0229 50.9271 56.075 50.7208 54.1042 50.7208C50.2083 50.7208 46.6792 51.4083 43.7917 52.6229ZM54.1042 56.8396C50.2083 56.8396 46.6792 57.5042 43.7917 58.7417V62.5458C46.3812 61.0792 49.9792 60.2771 54.1042 60.2771C56.1208 60.2771 58.0687 60.4833 59.8333 60.8729V57.3896C58.0229 57.0229 56.075 56.8396 54.1042 56.8396Z" fill="black"/>
<path d="M54.1042 48.0625C56.1208 48.0625 58.0687 48.2688 59.8333 48.6583V45.175C58.0229 44.8312 56.075 44.625 54.1042 44.625C50.2083 44.625 46.6792 45.2896 43.7917 46.5271V50.3312C46.3812 48.8646 49.9792 48.0625 54.1042 48.0625ZM43.7917 52.6229V56.4271C46.3812 54.9604 49.9792 54.1583 54.1042 54.1583C56.1208 54.1583 58.0687 54.3646 59.8333 54.7542V51.2708C58.0229 50.9271 56.075 50.7208 54.1042 50.7208C50.2083 50.7208 46.6792 51.4083 43.7917 52.6229ZM54.1042 56.8396C50.2083 56.8396 46.6792 57.5042 43.7917 58.7417V62.5458C46.3812 61.0792 49.9792 60.2771 54.1042 60.2771C56.1208 60.2771 58.0687 60.4833 59.8333 60.8729V57.3896C58.0229 57.0229 56.075 56.8396 54.1042 56.8396Z" fill="url(#paint2_linear_180_118)"/>
<defs>
<linearGradient id="paint0_linear_180_118" x1="85.5278" y1="28.3797" x2="59.0378" y2="31.7748" gradientUnits="userSpaceOnUse">
<stop stop-color="#BFA3DA"/>
<stop offset="0.416667" stop-color="#84309C"/>
<stop offset="1" stop-color="#C735B0"/>
</linearGradient>
<linearGradient id="paint1_linear_180_118" x1="56.7914" y1="44.5086" x2="22.0689" y2="66.5178" gradientUnits="userSpaceOnUse">
<stop stop-color="#BFA3DA"/>
<stop offset="0.416667" stop-color="#84309C"/>
<stop offset="1" stop-color="#C735B0"/>
</linearGradient>
<linearGradient id="paint2_linear_180_118" x1="56.6779" y1="49.3152" x2="43.6881" y2="55.0105" gradientUnits="userSpaceOnUse">
<stop stop-color="#BFA3DA"/>
<stop offset="0.416667" stop-color="#84309C"/>
<stop offset="1" stop-color="#C735B0"/>
</linearGradient>
<clipPath id="clip0_180_118">
<rect width="33.6036" height="33.6036" fill="white" transform="translate(63.825 11) rotate(18.7921)"/>
</clipPath>
</defs>
</svg>
