<svg width="101" height="91" viewBox="0 0 101 91" fill="none" xmlns="http://www.w3.org/2000/svg">
<rect width="101" height="91" rx="24" fill="#0F0F0F"/>
<g clip-path="url(#clip0_180_164)">
<path d="M45.5625 74.0001C44.9897 74.003 44.4297 73.831 43.9572 73.5071C43.4848 73.1832 43.1224 72.7229 42.9185 72.1876L38.4054 60.4516C38.314 60.2151 38.1742 60.0004 37.9949 59.8211C37.8156 59.6418 37.6009 59.502 37.3644 59.4106L25.625 54.894C25.0903 54.6888 24.6303 54.3262 24.3059 53.8542C23.9814 53.3822 23.8078 52.8228 23.8078 52.2501C23.8078 51.6773 23.9814 51.118 24.3059 50.6459C24.6303 50.1739 25.0903 49.8113 25.625 49.6061L37.361 45.0929C37.5975 45.0015 37.8122 44.8617 37.9915 44.6824C38.1708 44.5032 38.3106 44.2884 38.402 44.0519L42.9185 32.3126C43.1238 31.7778 43.4863 31.3179 43.9584 30.9934C44.4304 30.669 44.9897 30.4953 45.5625 30.4953C46.1353 30.4953 46.6946 30.669 47.1667 30.9934C47.6387 31.3179 48.0013 31.7778 48.2065 32.3126L52.7196 44.0485C52.811 44.285 52.9509 44.4998 53.1302 44.679C53.3094 44.8583 53.5242 44.9981 53.7607 45.0895L65.4287 49.5789C65.9852 49.7852 66.4646 50.1579 66.8017 50.6464C67.1388 51.1349 67.3172 51.7155 67.3125 52.309C67.3039 52.8718 67.1265 53.419 66.8034 53.8799C66.4802 54.3408 66.0262 54.6941 65.5 54.894L53.7641 59.4072C53.5276 59.4986 53.3128 59.6384 53.1336 59.8177C52.9543 59.997 52.8144 60.2117 52.723 60.4482L48.2065 72.1876C48.0027 72.7229 47.6403 73.1832 47.1678 73.5071C46.6954 73.831 46.1353 74.003 45.5625 74.0001ZM31.9688 35.9376C31.633 35.9375 31.305 35.8358 31.0282 35.6457C30.7514 35.4556 30.5386 35.1861 30.418 34.8727L28.508 29.9065C28.4666 29.7978 28.4028 29.6992 28.3206 29.617C28.2384 29.5348 28.1397 29.4709 28.0311 29.4295L23.0649 27.5196C22.7515 27.399 22.4821 27.1862 22.292 26.9093C22.102 26.6325 22.0002 26.3046 22.0002 25.9688C22.0002 25.633 22.102 25.3051 22.292 25.0283C22.4821 24.7514 22.7515 24.5387 23.0649 24.418L28.0311 22.5081C28.1396 22.4665 28.2382 22.4025 28.3203 22.3204C28.4025 22.2382 28.4665 22.1397 28.508 22.0311L30.401 17.1091C30.5077 16.8193 30.6914 16.5641 30.9323 16.3709C31.1732 16.1777 31.4622 16.0538 31.7683 16.0125C32.1357 15.9678 32.5075 16.0471 32.8248 16.2378C33.142 16.4284 33.3866 16.7195 33.5196 17.0649L35.4295 22.0311C35.4711 22.1397 35.5351 22.2382 35.6172 22.3204C35.6994 22.4025 35.7979 22.4665 35.9064 22.5081L40.8727 24.418C41.186 24.5387 41.4555 24.7514 41.6455 25.0283C41.8356 25.3051 41.9373 25.633 41.9373 25.9688C41.9373 26.3046 41.8356 26.6325 41.6455 26.9093C41.4555 27.1862 41.186 27.399 40.8727 27.5196L35.9064 29.4295C35.7978 29.4709 35.6992 29.5348 35.617 29.617C35.5348 29.6992 35.4709 29.7978 35.4295 29.9065L33.5196 34.8727C33.399 35.1861 33.1862 35.4556 32.9094 35.6457C32.6325 35.8358 32.3046 35.9375 31.9688 35.9376ZM67.3125 45.0001C66.9462 44.9999 66.5885 44.8888 66.2866 44.6813C65.9846 44.4739 65.7527 44.1797 65.6212 43.8378L63.0339 37.1123C62.9884 36.9938 62.9185 36.8861 62.8287 36.7964C62.7389 36.7066 62.6313 36.6367 62.5128 36.5912L55.7873 34.0038C55.4456 33.8722 55.1518 33.6401 54.9446 33.3382C54.7374 33.0363 54.6265 32.6787 54.6265 32.3126C54.6265 31.9464 54.7374 31.5888 54.9446 31.2869C55.1518 30.985 55.4456 30.7529 55.7873 30.6213L62.5128 28.0339C62.6313 27.9884 62.7389 27.9185 62.8287 27.8287C62.9185 27.739 62.9884 27.6313 63.0339 27.5128L65.602 20.8349C65.7192 20.5191 65.9199 20.241 66.1826 20.0302C66.4453 19.8193 66.7602 19.6836 67.0939 19.6375C67.4949 19.589 67.9005 19.6757 68.2465 19.8841C68.5926 20.0924 68.8591 20.4103 69.0038 20.7873L71.5912 27.5128C71.6367 27.6313 71.7066 27.739 71.7964 27.8287C71.8861 27.9185 71.9937 27.9884 72.1123 28.0339L78.8378 30.6213C79.1794 30.7529 79.4732 30.985 79.6805 31.2869C79.8877 31.5888 79.9986 31.9464 79.9986 32.3126C79.9986 32.6787 79.8877 33.0363 79.6805 33.3382C79.4732 33.6401 79.1794 33.8722 78.8378 34.0038L72.1123 36.5912C71.9937 36.6367 71.8861 36.7066 71.7964 36.7964C71.7066 36.8861 71.6367 36.9938 71.5912 37.1123L69.0038 43.8378C68.8724 44.1797 68.6404 44.4739 68.3385 44.6813C68.0366 44.8888 67.6789 44.9999 67.3125 45.0001Z" fill="black"/>
<path d="M45.5625 74.0001C44.9897 74.003 44.4297 73.831 43.9572 73.5071C43.4848 73.1832 43.1224 72.7229 42.9185 72.1876L38.4054 60.4516C38.314 60.2151 38.1742 60.0004 37.9949 59.8211C37.8156 59.6418 37.6009 59.502 37.3644 59.4106L25.625 54.894C25.0903 54.6888 24.6303 54.3262 24.3059 53.8542C23.9814 53.3822 23.8078 52.8228 23.8078 52.2501C23.8078 51.6773 23.9814 51.118 24.3059 50.6459C24.6303 50.1739 25.0903 49.8113 25.625 49.6061L37.361 45.0929C37.5975 45.0015 37.8122 44.8617 37.9915 44.6824C38.1708 44.5032 38.3106 44.2884 38.402 44.0519L42.9185 32.3126C43.1238 31.7778 43.4863 31.3179 43.9584 30.9934C44.4304 30.669 44.9897 30.4953 45.5625 30.4953C46.1353 30.4953 46.6946 30.669 47.1667 30.9934C47.6387 31.3179 48.0013 31.7778 48.2065 32.3126L52.7196 44.0485C52.811 44.285 52.9509 44.4998 53.1302 44.679C53.3094 44.8583 53.5242 44.9981 53.7607 45.0895L65.4287 49.5789C65.9852 49.7852 66.4646 50.1579 66.8017 50.6464C67.1388 51.1349 67.3172 51.7155 67.3125 52.309C67.3039 52.8718 67.1265 53.419 66.8034 53.8799C66.4802 54.3408 66.0262 54.6941 65.5 54.894L53.7641 59.4072C53.5276 59.4986 53.3128 59.6384 53.1336 59.8177C52.9543 59.997 52.8144 60.2117 52.723 60.4482L48.2065 72.1876C48.0027 72.7229 47.6403 73.1832 47.1678 73.5071C46.6954 73.831 46.1353 74.003 45.5625 74.0001ZM31.9688 35.9376C31.633 35.9375 31.305 35.8358 31.0282 35.6457C30.7514 35.4556 30.5386 35.1861 30.418 34.8727L28.508 29.9065C28.4666 29.7978 28.4028 29.6992 28.3206 29.617C28.2384 29.5348 28.1397 29.4709 28.0311 29.4295L23.0649 27.5196C22.7515 27.399 22.4821 27.1862 22.292 26.9093C22.102 26.6325 22.0002 26.3046 22.0002 25.9688C22.0002 25.633 22.102 25.3051 22.292 25.0283C22.4821 24.7514 22.7515 24.5387 23.0649 24.418L28.0311 22.5081C28.1396 22.4665 28.2382 22.4025 28.3203 22.3204C28.4025 22.2382 28.4665 22.1397 28.508 22.0311L30.401 17.1091C30.5077 16.8193 30.6914 16.5641 30.9323 16.3709C31.1732 16.1777 31.4622 16.0538 31.7683 16.0125C32.1357 15.9678 32.5075 16.0471 32.8248 16.2378C33.142 16.4284 33.3866 16.7195 33.5196 17.0649L35.4295 22.0311C35.4711 22.1397 35.5351 22.2382 35.6172 22.3204C35.6994 22.4025 35.7979 22.4665 35.9064 22.5081L40.8727 24.418C41.186 24.5387 41.4555 24.7514 41.6455 25.0283C41.8356 25.3051 41.9373 25.633 41.9373 25.9688C41.9373 26.3046 41.8356 26.6325 41.6455 26.9093C41.4555 27.1862 41.186 27.399 40.8727 27.5196L35.9064 29.4295C35.7978 29.4709 35.6992 29.5348 35.617 29.617C35.5348 29.6992 35.4709 29.7978 35.4295 29.9065L33.5196 34.8727C33.399 35.1861 33.1862 35.4556 32.9094 35.6457C32.6325 35.8358 32.3046 35.9375 31.9688 35.9376ZM67.3125 45.0001C66.9462 44.9999 66.5885 44.8888 66.2866 44.6813C65.9846 44.4739 65.7527 44.1797 65.6212 43.8378L63.0339 37.1123C62.9884 36.9938 62.9185 36.8861 62.8287 36.7964C62.7389 36.7066 62.6313 36.6367 62.5128 36.5912L55.7873 34.0038C55.4456 33.8722 55.1518 33.6401 54.9446 33.3382C54.7374 33.0363 54.6265 32.6787 54.6265 32.3126C54.6265 31.9464 54.7374 31.5888 54.9446 31.2869C55.1518 30.985 55.4456 30.7529 55.7873 30.6213L62.5128 28.0339C62.6313 27.9884 62.7389 27.9185 62.8287 27.8287C62.9185 27.739 62.9884 27.6313 63.0339 27.5128L65.602 20.8349C65.7192 20.5191 65.9199 20.241 66.1826 20.0302C66.4453 19.8193 66.7602 19.6836 67.0939 19.6375C67.4949 19.589 67.9005 19.6757 68.2465 19.8841C68.5926 20.0924 68.8591 20.4103 69.0038 20.7873L71.5912 27.5128C71.6367 27.6313 71.7066 27.739 71.7964 27.8287C71.8861 27.9185 71.9937 27.9884 72.1123 28.0339L78.8378 30.6213C79.1794 30.7529 79.4732 30.985 79.6805 31.2869C79.8877 31.5888 79.9986 31.9464 79.9986 32.3126C79.9986 32.6787 79.8877 33.0363 79.6805 33.3382C79.4732 33.6401 79.1794 33.8722 78.8378 34.0038L72.1123 36.5912C71.9937 36.6367 71.8861 36.7066 71.7964 36.7964C71.7066 36.8861 71.6367 36.9938 71.5912 37.1123L69.0038 43.8378C68.8724 44.1797 68.6404 44.4739 68.3385 44.6813C68.0366 44.8888 67.6789 44.9999 67.3125 45.0001Z" fill="url(#paint0_linear_180_164)"/>
</g>
<defs>
<linearGradient id="paint0_linear_180_164" x1="68.5904" y1="31.18" x2="23.4311" y2="53.2984" gradientUnits="userSpaceOnUse">
<stop stop-color="#BFA3DA"/>
<stop offset="0.416667" stop-color="#84309C"/>
<stop offset="1" stop-color="#C735B0"/>
</linearGradient>
<clipPath id="clip0_180_164">
<rect width="58" height="58" fill="white" transform="translate(22 16)"/>
</clipPath>
</defs>
</svg>
