<svg width="101" height="91" viewBox="0 0 101 91" fill="none" xmlns="http://www.w3.org/2000/svg">
<rect width="101" height="91" rx="24" fill="#0F0F0F"/>
<path d="M31 58.3334H57.6667V56.5C57.6667 54.0556 56.4444 52.0834 54 50.5834C51.5556 49.0834 48.3333 48.3334 44.3333 48.3334C40.3333 48.3334 37.1111 49.0834 34.6667 50.5834C32.2222 52.0834 31 54.0556 31 56.5V58.3334ZM44.3333 45C46.1667 45 47.7367 44.3467 49.0433 43.04C50.35 41.7334 51.0022 40.1645 51 38.3334C51 36.5 50.3467 34.93 49.04 33.6234C47.7333 32.3167 46.1644 31.6645 44.3333 31.6667C42.5 31.6667 40.93 32.32 39.6233 33.6267C38.3167 34.9334 37.6644 36.5023 37.6667 38.3334C37.6667 40.1667 38.32 41.7367 39.6267 43.0434C40.9333 44.35 42.5022 45.0023 44.3333 45ZM24.3333 71.6667C22.5 71.6667 20.93 71.0134 19.6233 69.7067C18.3167 68.4001 17.6644 66.8312 17.6667 65V25C17.6667 23.1667 18.32 21.5967 19.6267 20.29C20.9333 18.9834 22.5022 18.3312 24.3333 18.3334H64.3333C66.1667 18.3334 67.7367 18.9867 69.0433 20.2934C70.35 21.6 71.0022 23.1689 71 25V40L84.3333 26.6667V63.3334L71 50V65C71 66.8334 70.3467 68.4034 69.04 69.71C67.7333 71.0167 66.1644 71.6689 64.3333 71.6667H24.3333Z" fill="black"/>
<path d="M31 58.3334H57.6667V56.5C57.6667 54.0556 56.4444 52.0834 54 50.5834C51.5556 49.0834 48.3333 48.3334 44.3333 48.3334C40.3333 48.3334 37.1111 49.0834 34.6667 50.5834C32.2222 52.0834 31 54.0556 31 56.5V58.3334ZM44.3333 45C46.1667 45 47.7367 44.3467 49.0433 43.04C50.35 41.7334 51.0022 40.1645 51 38.3334C51 36.5 50.3467 34.93 49.04 33.6234C47.7333 32.3167 46.1644 31.6645 44.3333 31.6667C42.5 31.6667 40.93 32.32 39.6233 33.6267C38.3167 34.9334 37.6644 36.5023 37.6667 38.3334C37.6667 40.1667 38.32 41.7367 39.6267 43.0434C40.9333 44.35 42.5022 45.0023 44.3333 45ZM24.3333 71.6667C22.5 71.6667 20.93 71.0134 19.6233 69.7067C18.3167 68.4001 17.6644 66.8312 17.6667 65V25C17.6667 23.1667 18.32 21.5967 19.6267 20.29C20.9333 18.9834 22.5022 18.3312 24.3333 18.3334H64.3333C66.1667 18.3334 67.7367 18.9867 69.0433 20.2934C70.35 21.6 71.0022 23.1689 71 25V40L84.3333 26.6667V63.3334L71 50V65C71 66.8334 70.3467 68.4034 69.04 69.71C67.7333 71.0167 66.1644 71.6689 64.3333 71.6667H24.3333Z" fill="url(#paint0_linear_180_159)"/>
<defs>
<linearGradient id="paint0_linear_180_159" x1="71.2201" y1="32.2917" x2="24.4068" y2="60.9531" gradientUnits="userSpaceOnUse">
<stop stop-color="#BFA3DA"/>
<stop offset="0.416667" stop-color="#84309C"/>
<stop offset="1" stop-color="#C735B0"/>
</linearGradient>
</defs>
</svg>
