<svg width="61" height="55" viewBox="0 0 61 55" fill="none" xmlns="http://www.w3.org/2000/svg">
<rect y="0.0396118" width="61" height="54.9604" rx="14.495" fill="#0F0F0F"/>
<path d="M36.3333 40.625H24.6667C24.2799 40.625 23.909 40.4714 23.6355 40.1979C23.362 39.9244 23.2083 39.5534 23.2083 39.1667V27.6021L21.3125 29.0604C21.1776 29.1956 21.0173 29.3029 20.8409 29.376C20.6645 29.4492 20.4754 29.4869 20.2844 29.4869C20.0934 29.4869 19.9043 29.4492 19.7278 29.376C19.5514 29.3029 19.3912 29.1956 19.2562 29.0604L15.1292 25.0063C14.994 24.8713 14.8867 24.7111 14.8135 24.5347C14.7404 24.3582 14.7027 24.1691 14.7027 23.9781C14.7027 23.7871 14.7404 23.598 14.8135 23.4216C14.8867 23.2452 14.994 23.0849 15.1292 22.95L23.7042 14.375H26.125C26.125 15.9792 28.0792 17.2917 30.5 17.2917C32.9208 17.2917 34.875 15.9792 34.875 14.375H37.2958L45.8708 22.95C46.4396 23.5188 46.4396 24.4375 45.8708 25.0063L41.7437 29.1333C41.175 29.6875 40.2562 29.6875 39.6875 29.1333L37.7917 27.675V39.1667C37.7917 39.5534 37.638 39.9244 37.3645 40.1979C37.091 40.4714 36.7201 40.625 36.3333 40.625Z" fill="black"/>
<path d="M36.3333 40.625H24.6667C24.2799 40.625 23.909 40.4714 23.6355 40.1979C23.362 39.9244 23.2083 39.5534 23.2083 39.1667V27.6021L21.3125 29.0604C21.1776 29.1956 21.0173 29.3029 20.8409 29.376C20.6645 29.4492 20.4754 29.4869 20.2844 29.4869C20.0934 29.4869 19.9043 29.4492 19.7278 29.376C19.5514 29.3029 19.3912 29.1956 19.2562 29.0604L15.1292 25.0063C14.994 24.8713 14.8867 24.7111 14.8135 24.5347C14.7404 24.3582 14.7027 24.1691 14.7027 23.9781C14.7027 23.7871 14.7404 23.598 14.8135 23.4216C14.8867 23.2452 14.994 23.0849 15.1292 22.95L23.7042 14.375H26.125C26.125 15.9792 28.0792 17.2917 30.5 17.2917C32.9208 17.2917 34.875 15.9792 34.875 14.375H37.2958L45.8708 22.95C46.4396 23.5188 46.4396 24.4375 45.8708 25.0063L41.7437 29.1333C41.175 29.6875 40.2562 29.6875 39.6875 29.1333L37.7917 27.675V39.1667C37.7917 39.5534 37.638 39.9244 37.3645 40.1979C37.091 40.4714 36.7201 40.625 36.3333 40.625Z" fill="url(#paint0_linear_203_3)"/>
<defs>
<linearGradient id="paint0_linear_203_3" x1="48.599" y1="27.0474" x2="18.8528" y2="42.9546" gradientUnits="userSpaceOnUse">
<stop stop-color="#3385FF"/>
<stop offset="0.791667" stop-color="#91B7F0"/>
<stop offset="1" stop-color="#95BBF2"/>
</linearGradient>
</defs>
</svg>
