<svg width="61" height="55" viewBox="0 0 61 55" fill="none" xmlns="http://www.w3.org/2000/svg">
<rect y="0.0396118" width="61" height="54.9604" rx="14.495" fill="#0F0F0F"/>
<path d="M26.125 40.625V33.3333C24.6181 33.2118 23.1412 33.0417 21.6946 32.8229C20.2479 32.6042 18.8081 32.2882 17.375 31.875L18.1042 28.9583C20.1215 29.5174 22.1632 29.9004 24.2292 30.1075C26.2951 30.3146 28.3854 30.4176 30.5 30.4167C32.5903 30.4167 34.6684 30.3131 36.7344 30.106C38.8003 29.899 40.8542 29.5164 42.8958 28.9583L43.625 31.875C42.1667 32.2882 40.7142 32.6042 39.2675 32.8229C37.8208 33.0417 36.3567 33.2118 34.875 33.3333V40.625H26.125ZM30.5 28.9583C29.6736 28.9583 28.9809 28.6788 28.4219 28.1198C27.8628 27.5608 27.5833 26.868 27.5833 26.0417C27.5833 25.2396 27.8628 24.5527 28.4219 23.981C28.9809 23.4094 29.6736 23.124 30.5 23.125C31.3021 23.125 31.989 23.4108 32.5606 23.9825C33.1323 24.5542 33.4176 25.2405 33.4167 26.0417C33.4167 26.868 33.1308 27.5608 32.5592 28.1198C31.9875 28.6788 31.3011 28.9583 30.5 28.9583ZM19.5625 24.5833C18.9306 24.5833 18.408 24.3767 17.9948 23.9635C17.5816 23.5503 17.375 23.0278 17.375 22.3958C17.375 21.7882 17.5816 21.2715 17.9948 20.8456C18.408 20.4198 18.9306 20.2074 19.5625 20.2083C20.1701 20.2083 20.6869 20.4212 21.1127 20.8471C21.5385 21.2729 21.751 21.7892 21.75 22.3958C21.75 23.0278 21.5371 23.5503 21.1112 23.9635C20.6854 24.3767 20.1692 24.5833 19.5625 24.5833ZM41.4375 24.5833C40.8056 24.5833 40.283 24.3767 39.8698 23.9635C39.4566 23.5503 39.25 23.0278 39.25 22.3958C39.25 21.7882 39.4566 21.2715 39.8698 20.8456C40.283 20.4198 40.8056 20.2074 41.4375 20.2083C42.0451 20.2083 42.5619 20.4212 42.9877 20.8471C43.4135 21.2729 43.626 21.7892 43.625 22.3958C43.625 23.0278 43.4121 23.5503 42.9862 23.9635C42.5604 24.3767 42.0442 24.5833 41.4375 24.5833ZM23.5729 19.1146C22.941 19.1146 22.4184 18.908 22.0052 18.4948C21.592 18.0816 21.3854 17.559 21.3854 16.9271C21.3854 16.3194 21.592 15.8027 22.0052 15.3769C22.4184 14.951 22.941 14.7386 23.5729 14.7396C24.1806 14.7396 24.6973 14.9525 25.1231 15.3783C25.549 15.8042 25.7614 16.3204 25.7604 16.9271C25.7604 17.559 25.5475 18.0816 25.1217 18.4948C24.6958 18.908 24.1796 19.1146 23.5729 19.1146ZM37.4271 19.1146C36.7951 19.1146 36.2726 18.908 35.8594 18.4948C35.4462 18.0816 35.2396 17.559 35.2396 16.9271C35.2396 16.3194 35.4462 15.8027 35.8594 15.3769C36.2726 14.951 36.7951 14.7386 37.4271 14.7396C38.0347 14.7396 38.5515 14.9525 38.9773 15.3783C39.4031 15.8042 39.6156 16.3204 39.6146 16.9271C39.6146 17.559 39.4017 18.0816 38.9758 18.4948C38.55 18.908 38.0337 19.1146 37.4271 19.1146ZM30.5 17.2917C29.8681 17.2917 29.3455 17.0851 28.9323 16.6719C28.5191 16.2587 28.3125 15.7361 28.3125 15.1042C28.3125 14.4965 28.5191 13.9798 28.9323 13.554C29.3455 13.1281 29.8681 12.9157 30.5 12.9167C31.1076 12.9167 31.6244 13.1296 32.0502 13.5554C32.476 13.9812 32.6885 14.4975 32.6875 15.1042C32.6875 15.7361 32.4746 16.2587 32.0487 16.6719C31.6229 17.0851 31.1067 17.2917 30.5 17.2917Z" fill="black"/>
<path d="M26.125 40.625V33.3333C24.6181 33.2118 23.1412 33.0417 21.6946 32.8229C20.2479 32.6042 18.8081 32.2882 17.375 31.875L18.1042 28.9583C20.1215 29.5174 22.1632 29.9004 24.2292 30.1075C26.2951 30.3146 28.3854 30.4176 30.5 30.4167C32.5903 30.4167 34.6684 30.3131 36.7344 30.106C38.8003 29.899 40.8542 29.5164 42.8958 28.9583L43.625 31.875C42.1667 32.2882 40.7142 32.6042 39.2675 32.8229C37.8208 33.0417 36.3567 33.2118 34.875 33.3333V40.625H26.125ZM30.5 28.9583C29.6736 28.9583 28.9809 28.6788 28.4219 28.1198C27.8628 27.5608 27.5833 26.868 27.5833 26.0417C27.5833 25.2396 27.8628 24.5527 28.4219 23.981C28.9809 23.4094 29.6736 23.124 30.5 23.125C31.3021 23.125 31.989 23.4108 32.5606 23.9825C33.1323 24.5542 33.4176 25.2405 33.4167 26.0417C33.4167 26.868 33.1308 27.5608 32.5592 28.1198C31.9875 28.6788 31.3011 28.9583 30.5 28.9583ZM19.5625 24.5833C18.9306 24.5833 18.408 24.3767 17.9948 23.9635C17.5816 23.5503 17.375 23.0278 17.375 22.3958C17.375 21.7882 17.5816 21.2715 17.9948 20.8456C18.408 20.4198 18.9306 20.2074 19.5625 20.2083C20.1701 20.2083 20.6869 20.4212 21.1127 20.8471C21.5385 21.2729 21.751 21.7892 21.75 22.3958C21.75 23.0278 21.5371 23.5503 21.1112 23.9635C20.6854 24.3767 20.1692 24.5833 19.5625 24.5833ZM41.4375 24.5833C40.8056 24.5833 40.283 24.3767 39.8698 23.9635C39.4566 23.5503 39.25 23.0278 39.25 22.3958C39.25 21.7882 39.4566 21.2715 39.8698 20.8456C40.283 20.4198 40.8056 20.2074 41.4375 20.2083C42.0451 20.2083 42.5619 20.4212 42.9877 20.8471C43.4135 21.2729 43.626 21.7892 43.625 22.3958C43.625 23.0278 43.4121 23.5503 42.9862 23.9635C42.5604 24.3767 42.0442 24.5833 41.4375 24.5833ZM23.5729 19.1146C22.941 19.1146 22.4184 18.908 22.0052 18.4948C21.592 18.0816 21.3854 17.559 21.3854 16.9271C21.3854 16.3194 21.592 15.8027 22.0052 15.3769C22.4184 14.951 22.941 14.7386 23.5729 14.7396C24.1806 14.7396 24.6973 14.9525 25.1231 15.3783C25.549 15.8042 25.7614 16.3204 25.7604 16.9271C25.7604 17.559 25.5475 18.0816 25.1217 18.4948C24.6958 18.908 24.1796 19.1146 23.5729 19.1146ZM37.4271 19.1146C36.7951 19.1146 36.2726 18.908 35.8594 18.4948C35.4462 18.0816 35.2396 17.559 35.2396 16.9271C35.2396 16.3194 35.4462 15.8027 35.8594 15.3769C36.2726 14.951 36.7951 14.7386 37.4271 14.7396C38.0347 14.7396 38.5515 14.9525 38.9773 15.3783C39.4031 15.8042 39.6156 16.3204 39.6146 16.9271C39.6146 17.559 39.4017 18.0816 38.9758 18.4948C38.55 18.908 38.0337 19.1146 37.4271 19.1146ZM30.5 17.2917C29.8681 17.2917 29.3455 17.0851 28.9323 16.6719C28.5191 16.2587 28.3125 15.7361 28.3125 15.1042C28.3125 14.4965 28.5191 13.9798 28.9323 13.554C29.3455 13.1281 29.8681 12.9157 30.5 12.9167C31.1076 12.9167 31.6244 13.1296 32.0502 13.5554C32.476 13.9812 32.6885 14.4975 32.6875 15.1042C32.6875 15.7361 32.4746 16.2587 32.0487 16.6719C31.6229 17.0851 31.1067 17.2917 30.5 17.2917Z" fill="url(#paint0_linear_180_148)"/>
<defs>
<linearGradient id="paint0_linear_180_148" x1="45.5373" y1="26.2931" x2="18.5388" y2="37.6571" gradientUnits="userSpaceOnUse">
<stop stop-color="#3385FF"/>
<stop offset="0.791667" stop-color="#91B7F0"/>
<stop offset="1" stop-color="#95BBF2"/>
</linearGradient>
</defs>
</svg>
