<svg width="28" height="29" viewBox="0 0 28 29" fill="none" xmlns="http://www.w3.org/2000/svg">
<g clip-path="url(#clip0_310_334)">
<path fill-rule="evenodd" clip-rule="evenodd" d="M1.27682 0.278809C1.98198 0.278809 2.55363 0.850459 2.55363 1.55563V25.8459H26.7228C27.4279 25.8459 27.9996 26.4175 27.9996 27.1227C27.9996 27.8279 27.4279 28.3995 26.7228 28.3995H1.27682C0.57165 28.3995 0 27.8279 0 27.1227V1.55563C0 0.850459 0.57165 0.278809 1.27682 0.278809ZM17.8704 5.38515C17.8704 4.67999 18.4421 4.10834 19.1473 4.10834H26.7232C27.0618 4.10834 27.3866 4.24286 27.626 4.48231C27.8655 4.72177 28 5.04653 28 5.38517L27.9999 13.1199C27.9999 13.8251 27.4282 14.3967 26.7231 14.3967C26.0179 14.3967 25.4463 13.825 25.4463 13.1199L25.4463 8.43985L18.3406 15.7321C17.8498 16.2357 17.0443 16.2478 16.5387 15.7591L13.9171 13.2252L6.75118 20.1697C6.24479 20.6604 5.43645 20.6477 4.94571 20.1413C4.45496 19.635 4.46765 18.8266 4.97404 18.3359L13.0273 10.5314C13.522 10.052 14.3079 10.0515 14.8032 10.5302L17.3991 13.0392L23.6132 6.66197H19.1473C18.4421 6.66197 17.8704 6.09032 17.8704 5.38515Z" fill="url(#paint0_linear_310_334)"/>
</g>
<defs>
<linearGradient id="paint0_linear_310_334" x1="26.0003" y1="-13.0635" x2="-15.533" y2="49.1808" gradientUnits="userSpaceOnUse">
<stop stop-color="white"/>
<stop offset="1" stop-color="white" stop-opacity="0"/>
</linearGradient>
<clipPath id="clip0_310_334">
<rect width="28" height="28" fill="white" transform="translate(0 0.278809)"/>
</clipPath>
</defs>
</svg>
