<svg width="29" height="28" viewBox="0 0 29 28" fill="none" xmlns="http://www.w3.org/2000/svg">
<path fill-rule="evenodd" clip-rule="evenodd" d="M10.4483 2.31004C10.2813 1.6877 9.64152 1.31851 9.01918 1.48543C8.39685 1.65234 8.02766 2.29216 8.19457 2.9145L9.10107 6.29433C9.26799 6.91667 9.9078 7.28586 10.5301 7.11894C11.1525 6.95203 11.5217 6.31221 11.3548 5.68987L10.4483 2.31004ZM18.0354 5.55006C18.491 5.09445 18.491 4.35576 18.0354 3.90014C17.5798 3.44453 16.8411 3.44453 16.3855 3.90014L13.9098 6.37581C13.4542 6.83142 13.4542 7.57011 13.9098 8.02573C14.3654 8.48134 15.1041 8.48134 15.5597 8.02573L18.0354 5.55006ZM3.84854 7.25924C3.22619 7.09237 2.58641 7.46162 2.41955 8.08397C2.25268 8.70632 2.62193 9.34611 3.24428 9.51297L6.62528 10.4195C7.24763 10.5863 7.88742 10.2171 8.05428 9.59473C8.22114 8.97238 7.85189 8.3326 7.22954 8.16574L3.84854 7.25924ZM8.96026 14.624C9.41566 14.1682 9.41531 13.4295 8.95948 12.9741C8.50365 12.5187 7.76496 12.519 7.30957 12.9749L4.83623 15.4505C4.38084 15.9064 4.38118 16.6451 4.83701 17.1004C5.29284 17.5558 6.03153 17.5555 6.48693 17.0997L8.96026 14.624ZM10.6105 9.67513C10.9448 9.34084 11.4477 9.24133 11.8841 9.42316L25.8841 15.2565C26.3322 15.4432 26.6178 15.8877 26.6014 16.3728C26.585 16.8579 26.27 17.2822 25.8104 17.4382L21.49 18.9048L25.4601 22.8748C25.9157 23.3304 25.9157 24.0691 25.4601 24.5247C25.0044 24.9803 24.2658 24.9803 23.8101 24.5247L19.8401 20.5547L18.3735 24.8751C18.2175 25.3347 17.7932 25.6497 17.3081 25.6661C16.8231 25.6825 16.3785 25.3968 16.1918 24.9488L10.3585 10.9488C10.1767 10.5124 10.2762 10.0094 10.6105 9.67513ZM13.6021 12.6668L17.1572 21.1991L18.2337 18.0281C18.3503 17.6846 18.6199 17.4149 18.9634 17.2983L22.1344 16.2219L13.6021 12.6668Z" fill="url(#paint0_linear_129_229)"/>
<defs>
<linearGradient id="paint0_linear_129_229" x1="24.8722" y1="-10.047" x2="-10.8421" y2="43.7099" gradientUnits="userSpaceOnUse">
<stop stop-color="white"/>
<stop offset="1" stop-color="white" stop-opacity="0"/>
</linearGradient>
</defs>
</svg>
