<svg width="29" height="28" viewBox="0 0 29 28" fill="none" xmlns="http://www.w3.org/2000/svg">
<path fill-rule="evenodd" clip-rule="evenodd" d="M18.9591 5.21548C20.6772 4.27054 22.572 3.70312 24.5174 3.54525C24.2792 6.54669 23.0256 10.8732 18.1029 14.1837C18.0973 14.1873 18.0917 14.1909 18.0862 14.1946C16.8965 14.9452 15.6457 15.5934 14.3473 16.1325L11.9355 13.7207C12.4772 12.4347 13.128 11.1969 13.8809 10.0209L13.8809 10.0209L13.8875 10.0104C15.1413 8.00567 16.8872 6.35502 18.9591 5.21548ZM17.9632 16.9763C17.078 17.465 16.1661 17.9042 15.2317 18.2918V21.823C15.3438 21.7864 15.4591 21.7469 15.5762 21.7044C16.5825 21.3394 17.4216 20.8595 17.7615 20.3522C17.9285 20.1013 18.0523 19.714 18.1016 19.1834C18.15 18.6622 18.1193 18.084 18.0471 17.5238C18.0227 17.3345 17.994 17.1508 17.9632 16.9763ZM12.8983 17.9834L10.0817 15.1668H4.73168C4.38579 15.1668 4.05774 15.0133 3.83608 14.7478C3.61441 14.4822 3.522 14.132 3.58377 13.7917L4.73168 14.0001C3.58377 13.7917 3.58381 13.7915 3.58386 13.7912L3.58397 13.7906L3.58422 13.7892L3.58492 13.7855L3.58705 13.7741L3.59428 13.7364C3.60044 13.7049 3.60931 13.6606 3.62099 13.6052C3.64434 13.4946 3.67905 13.3386 3.72602 13.1492C3.81953 12.7722 3.96381 12.2541 4.16723 11.6933C4.54576 10.6497 5.23225 9.15582 6.41632 8.36372L6.41786 8.36269C7.11202 7.89992 7.92611 7.70895 8.66585 7.64019C9.41564 7.57051 10.1776 7.61851 10.8396 7.70382C11.4528 7.78285 12.0071 7.89751 12.4258 7.9977C13.8385 6.00403 15.6866 4.35239 17.8346 3.17098C20.2553 1.83961 22.9763 1.14968 25.7389 1.16682C26.3804 1.17079 26.8983 1.69195 26.8983 2.33346C26.8983 5.61214 25.9786 11.3258 20.0706 15.6528C20.17 16.07 20.2831 16.6189 20.3613 17.2256C20.4466 17.8875 20.4946 18.6495 20.4249 19.3993C20.3562 20.139 20.1652 20.9531 19.7024 21.6473L19.7014 21.6488C18.9093 22.8329 17.4154 23.5194 16.3718 23.8979C15.811 24.1013 15.2929 24.2456 14.9159 24.3391C14.7265 24.3861 14.5705 24.4208 14.4599 24.4441C14.4045 24.4558 14.3602 24.4647 14.3287 24.4709L14.291 24.4781L14.2796 24.4802L14.2759 24.4809L14.2745 24.4812L14.2739 24.4813C14.2736 24.4813 14.2734 24.4814 14.065 23.3335L14.2734 24.4814C13.9331 24.5431 13.5829 24.4507 13.3173 24.2291C13.0518 24.0074 12.8983 23.6793 12.8983 23.3335V17.9834ZM10.5413 10.018C10.7384 10.0434 10.9294 10.0734 11.1103 10.1057C10.6149 10.9888 10.1699 11.8995 9.77735 12.8334H6.24213C6.27875 12.7213 6.31825 12.606 6.36071 12.4889C6.72574 11.4826 7.2056 10.6436 7.71291 10.3036C7.96377 10.1367 8.35111 10.0128 8.88178 9.96351C9.40292 9.91508 9.98116 9.94582 10.5413 10.018ZM7.06868 17.4867C6.15499 17.4584 5.26304 17.7685 4.56391 18.3574C3.94933 18.8739 3.49808 19.5854 3.16385 20.2697C2.82297 20.9676 2.56392 21.7207 2.37042 22.3972C2.17585 23.0774 2.04062 23.7047 1.95398 24.1611C1.91051 24.39 1.87888 24.578 1.85788 24.7104C1.84738 24.7767 1.83951 24.8292 1.83414 24.8662L1.82791 24.9098L1.82616 24.9225L1.82562 24.9265L1.82543 24.9279L1.82536 24.9284C1.82533 24.9286 1.8253 24.9288 2.98168 25.0834L1.8253 24.9288C1.77713 25.2892 1.89967 25.6513 2.15672 25.9084C2.41377 26.1655 2.77596 26.288 3.13628 26.2398L2.98168 25.0834C3.13628 26.2398 3.13649 26.2398 3.13672 26.2398L3.13727 26.2397L3.13866 26.2395L3.14264 26.239L3.15532 26.2372L3.19894 26.231C3.23591 26.2256 3.28843 26.2177 3.3547 26.2072C3.48715 26.1862 3.67508 26.1546 3.90405 26.1111C4.36037 26.0245 4.98774 25.8893 5.66794 25.6947C6.34443 25.5012 7.09756 25.2422 7.79544 24.9013C8.47941 24.5672 9.19065 24.1162 9.70709 23.502C10.8984 22.0913 10.9162 19.8939 9.5297 18.5249L9.51553 18.5112C8.85404 17.8798 7.98267 17.515 7.06868 17.4867ZM5.02625 23.4513C4.83345 23.5065 4.64475 23.5564 4.46387 23.6013C4.50874 23.4204 4.55863 23.2317 4.61378 23.0389C4.78486 22.4408 4.99977 21.8274 5.26044 21.2938C5.52765 20.7467 5.80534 20.3619 6.0654 20.1434L6.06684 20.1422C6.3263 19.9236 6.65739 19.8084 6.99654 19.8189C7.33233 19.8293 7.65261 19.9621 7.89715 20.1921C8.34713 20.644 8.38598 21.4504 7.92399 21.997L7.92169 21.9997C7.70324 22.2598 7.3184 22.5375 6.77135 22.8047C6.23768 23.0654 5.62435 23.2803 5.02625 23.4513Z" fill="url(#paint0_linear_129_211)"/>
<defs>
<linearGradient id="paint0_linear_129_211" x1="25.107" y1="-10.7348" x2="-11.8794" y2="44.9335" gradientUnits="userSpaceOnUse">
<stop stop-color="white"/>
<stop offset="1" stop-color="white" stop-opacity="0"/>
</linearGradient>
</defs>
</svg>
