<svg width="29" height="28" viewBox="0 0 29 28" fill="none" xmlns="http://www.w3.org/2000/svg">
<path fill-rule="evenodd" clip-rule="evenodd" d="M5.46055 2.19187C6.11693 1.5355 7.00717 1.16675 7.93542 1.16675H17.2688H17.8521C18.1615 1.16675 18.4583 1.28966 18.677 1.50846L25.0937 7.92512C25.3125 8.14392 25.4354 8.44066 25.4354 8.75008V9.33342V23.3334C25.4354 24.2617 25.0667 25.1519 24.4103 25.8083C23.7539 26.4647 22.8637 26.8334 21.9354 26.8334H7.93542C7.00717 26.8334 6.11693 26.4647 5.46055 25.8083C4.80417 25.1519 4.43542 24.2617 4.43542 23.3334V4.66675C4.43542 3.73849 4.80417 2.84825 5.46055 2.19187ZM7.93542 3.50008H16.1021V9.33342C16.1021 9.97775 16.6244 10.5001 17.2688 10.5001H23.1021V23.3334C23.1021 23.6428 22.9792 23.9396 22.7604 24.1584C22.5416 24.3772 22.2448 24.5001 21.9354 24.5001H7.93542C7.62601 24.5001 7.32926 24.3772 7.11047 24.1584C6.89167 23.9396 6.76876 23.6428 6.76876 23.3334V4.66675C6.76876 4.35733 6.89167 4.06058 7.11047 3.84179C7.32926 3.623 7.62601 3.50008 7.93542 3.50008ZM18.4354 8.16675H22.0355L18.4354 4.56666V8.16675ZM10.2688 14.0001C9.62442 14.0001 9.10209 14.5225 9.10209 15.1668C9.10209 15.8111 9.62442 16.3335 10.2688 16.3335H19.6021C20.2464 16.3335 20.7688 15.8111 20.7688 15.1668C20.7688 14.5225 20.2464 14.0001 19.6021 14.0001H10.2688ZM9.10209 19.8334C9.10209 19.1891 9.62442 18.6667 10.2688 18.6667H19.6021C20.2464 18.6667 20.7688 19.1891 20.7688 19.8334C20.7688 20.4777 20.2464 21.0001 19.6021 21.0001H10.2688C9.62442 21.0001 9.10209 20.4777 9.10209 19.8334ZM10.2688 9.33344C9.62442 9.33344 9.10209 9.85577 9.10209 10.5001C9.10209 11.1444 9.62442 11.6668 10.2688 11.6668H12.6021C13.2464 11.6668 13.7688 11.1444 13.7688 10.5001C13.7688 9.85577 13.2464 9.33344 12.6021 9.33344H10.2688Z" fill="url(#paint0_linear_129_217)"/>
<defs>
<linearGradient id="paint0_linear_129_217" x1="23.9357" y1="-11.0112" x2="-16.2441" y2="38.4686" gradientUnits="userSpaceOnUse">
<stop stop-color="white"/>
<stop offset="1" stop-color="white" stop-opacity="0"/>
</linearGradient>
</defs>
</svg>
