<svg width="28" height="28" viewBox="0 0 28 28" fill="none" xmlns="http://www.w3.org/2000/svg">
<g clip-path="url(#clip0_129_163)">
<path fill-rule="evenodd" clip-rule="evenodd" d="M1.27682 0C1.98198 0 2.55363 0.57165 2.55363 1.27682V25.5671H26.7228C27.4279 25.5671 27.9996 26.1387 27.9996 26.8439C27.9996 27.549 27.4279 28.1207 26.7228 28.1207H1.27682C0.57165 28.1207 0 27.549 0 26.8439V1.27682C0 0.57165 0.57165 0 1.27682 0ZM17.8704 5.10634C17.8704 4.40118 18.4421 3.82953 19.1473 3.82953H26.7232C27.0618 3.82953 27.3866 3.96405 27.626 4.2035C27.8655 4.44296 28 4.76772 28 5.10636L27.9999 12.8411C27.9999 13.5463 27.4282 14.1179 26.7231 14.1179C26.0179 14.1179 25.4463 13.5462 25.4463 12.8411L25.4463 8.16104L18.3406 15.4533C17.8498 15.9569 17.0443 15.969 16.5387 15.4803L13.9171 12.9464L6.75118 19.8909C6.24479 20.3816 5.43645 20.3689 4.94571 19.8625C4.45496 19.3561 4.46765 18.5478 4.97404 18.0571L13.0273 10.2526C13.522 9.77317 14.3079 9.77265 14.8032 10.2514L17.3991 12.7604L23.6132 6.38316H19.1473C18.4421 6.38316 17.8704 5.81151 17.8704 5.10634Z" fill="url(#paint0_linear_129_163)"/>
</g>
<defs>
<linearGradient id="paint0_linear_129_163" x1="26.0003" y1="-13.3423" x2="-15.533" y2="48.902" gradientUnits="userSpaceOnUse">
<stop stop-color="white"/>
<stop offset="1" stop-color="white" stop-opacity="0"/>
</linearGradient>
<clipPath id="clip0_129_163">
<rect width="28" height="28" fill="white"/>
</clipPath>
</defs>
</svg>
