<svg width="28" height="28" viewBox="0 0 28 28" fill="none" xmlns="http://www.w3.org/2000/svg">
<path fill-rule="evenodd" clip-rule="evenodd" d="M8.42828 3.80863C8.57831 3.6586 8.7818 3.57432 8.99397 3.57432H19.0178C19.23 3.57432 19.4335 3.6586 19.5835 3.80863L22.7748 6.99993H5.23699L8.42828 3.80863ZM1.16667 8.27995C1.1377 7.93967 1.25341 7.58939 1.51379 7.32901L6.73123 2.11158C7.33134 1.51146 8.14528 1.17432 8.99397 1.17432H19.0178C19.8665 1.17432 20.6804 1.51146 21.2806 2.11157L26.4354 7.26639C26.4891 7.32017 26.5368 7.37777 26.5782 7.43834C26.7379 7.63793 26.8333 7.89111 26.8333 8.16659V11.6666C26.8333 12.5949 26.4646 13.4851 25.8082 14.1415C25.4356 14.5141 24.9876 14.794 24.5 14.9664V23.3332C24.5 24.2615 24.1313 25.1517 23.4749 25.8081C22.8185 26.4645 21.9283 26.8332 21 26.8332H17.5068L17.5 26.8333L17.4933 26.8332H10.5068L10.5 26.8333L10.4933 26.8332H7.00001C6.07175 26.8332 5.18151 26.4645 4.52514 25.8081C3.86876 25.1517 3.50001 24.2615 3.50001 23.3332V14.9664C3.01245 14.794 2.56444 14.5141 2.1918 14.1415C1.53542 13.4851 1.16667 12.5949 1.16667 11.6666L1.16667 8.27995ZM3.50001 11.6666V9.33326H24.5V11.6666C24.5 11.976 24.3771 12.2728 24.1583 12.4916C23.9466 12.7032 23.662 12.8251 23.3636 12.8329C22.9467 12.8028 22.5497 12.6417 22.2295 12.3722C22.2075 12.3538 22.1849 12.3361 22.1617 12.3193C21.8236 12.075 21.4171 11.9435 21 11.9435C20.5829 11.9435 20.1764 12.075 19.8383 12.3193C19.8151 12.3361 19.7925 12.3538 19.7705 12.3722C19.458 12.6352 19.0725 12.7949 18.6667 12.8305C18.2609 12.7949 17.8753 12.6352 17.5628 12.3722C17.5409 12.3538 17.5183 12.3361 17.495 12.3193C17.1569 12.075 16.7504 11.9435 16.3333 11.9435C15.9162 11.9435 15.5097 12.075 15.1717 12.3193C15.1484 12.3361 15.1258 12.3538 15.1039 12.3722C14.7914 12.6352 14.4058 12.7949 14 12.8305C13.5942 12.7949 13.2086 12.6352 12.8962 12.3722C12.8742 12.3538 12.8516 12.3361 12.8283 12.3193C12.4903 12.075 12.0838 11.9435 11.6667 11.9435C11.2496 11.9435 10.8431 12.075 10.505 12.3193C10.4818 12.3361 10.4591 12.3538 10.4372 12.3722C10.1247 12.6352 9.73912 12.7949 9.33334 12.8305C8.92756 12.7949 8.54197 12.6352 8.22949 12.3722C8.20755 12.3538 8.18492 12.3361 8.16167 12.3193C7.8236 12.075 7.41711 11.9435 7.00001 11.9435C6.5829 11.9435 6.17641 12.075 5.83834 12.3193C5.81509 12.3361 5.79247 12.3538 5.77052 12.3722C5.45029 12.6417 5.05328 12.8028 4.63643 12.8329C4.33797 12.8251 4.05337 12.7032 3.84172 12.4916C3.62292 12.2728 3.50001 11.976 3.50001 11.6666ZM5.83334 23.3332V14.9582C6.24846 14.8226 6.64208 14.6244 7.00001 14.3691C7.66384 14.8426 8.4504 15.1198 9.26922 15.1648C9.31194 15.1672 9.35474 15.1672 9.39746 15.1648C10.2163 15.1198 11.0028 14.8426 11.6667 14.3691C12.3305 14.8426 13.1171 15.1198 13.9359 15.1648C13.9786 15.1672 14.0214 15.1672 14.0641 15.1648C14.8829 15.1198 15.6695 14.8426 16.3333 14.3691C16.9972 14.8426 17.7837 15.1198 18.6026 15.1648C18.6453 15.1672 18.6881 15.1672 18.7308 15.1648C19.5496 15.1198 20.3362 14.8426 21 14.3691C21.3579 14.6244 21.7516 14.8226 22.1667 14.9582V23.3332C22.1667 23.6427 22.0438 23.9394 21.825 24.1582C21.6062 24.377 21.3094 24.4999 21 24.4999H18.6667V20.9999C18.6667 20.0717 18.2979 19.1814 17.6416 18.5251C16.9852 17.8687 16.0949 17.4999 15.1667 17.4999H12.8333C11.9051 17.4999 11.0148 17.8687 10.3585 18.5251C9.7021 19.1814 9.33335 20.0717 9.33335 20.9999V24.4999H7.00001C6.69059 24.4999 6.39384 24.377 6.17505 24.1582C5.95626 23.9394 5.83334 23.6427 5.83334 23.3332ZM16.3333 24.4999H11.6667V20.9999C11.6667 20.6905 11.7896 20.3938 12.0084 20.175C12.2272 19.9562 12.5239 19.8333 12.8333 19.8333H15.1667C15.4761 19.8333 15.7728 19.9562 15.9916 20.175C16.2104 20.3938 16.3333 20.6905 16.3333 20.9999V24.4999Z" fill="url(#paint0_linear_129_256)"/>
<defs>
<linearGradient id="paint0_linear_129_256" x1="25" y1="-11" x2="-12.8277" y2="45.962" gradientUnits="userSpaceOnUse">
<stop stop-color="white"/>
<stop offset="1" stop-color="white" stop-opacity="0"/>
</linearGradient>
</defs>
</svg>
