<svg width="28" height="28" viewBox="0 0 28 28" fill="none" xmlns="http://www.w3.org/2000/svg">
<path fill-rule="evenodd" clip-rule="evenodd" d="M14 4.6501C12.0578 4.6501 10.4833 6.22456 10.4833 8.16676C10.4833 10.109 12.0578 11.6834 14 11.6834C15.9422 11.6834 17.5167 10.109 17.5167 8.16676C17.5167 6.22456 15.9422 4.6501 14 4.6501ZM8.18332 8.16676C8.18332 4.95431 10.7875 2.3501 14 2.3501C17.2124 2.3501 19.8167 4.95431 19.8167 8.16676C19.8167 11.3792 17.2124 13.9834 14 13.9834C10.7875 13.9834 8.18332 11.3792 8.18332 8.16676ZM6.38698 18.0538C7.47782 16.9629 8.95731 16.3501 10.5 16.3501H17.5C19.0427 16.3501 20.5222 16.9629 21.613 18.0538C22.0621 18.5029 22.0621 19.231 21.613 19.6801C21.1639 20.1292 20.4357 20.1292 19.9866 19.6801C19.3271 19.0206 18.4327 18.6501 17.5 18.6501H10.5C9.56731 18.6501 8.67283 19.0206 8.01333 19.6801C7.35382 20.3396 6.98332 21.2341 6.98332 22.1668V24.5001C6.98332 25.1352 6.46845 25.6501 5.83332 25.6501C5.19819 25.6501 4.68332 25.1352 4.68332 24.5001V22.1668C4.68332 20.6241 5.29614 19.1446 6.38698 18.0538ZM26.4798 21.6467C26.9289 21.1976 26.9289 20.4694 26.4798 20.0203C26.0307 19.5712 25.3026 19.5712 24.8535 20.0203L21 23.8738L19.4798 22.3537C19.0307 21.9046 18.3026 21.9046 17.8535 22.3537C17.4044 22.8028 17.4044 23.5309 17.8535 23.98L20.1868 26.3133C20.6359 26.7624 21.3641 26.7624 21.8132 26.3133L26.4798 21.6467Z" fill="url(#paint0_linear_129_236)"/>
<defs>
<linearGradient id="paint0_linear_129_236" x1="25.236" y1="-9.17948" x2="-11.7748" y2="41.5591" gradientUnits="userSpaceOnUse">
<stop stop-color="white"/>
<stop offset="1" stop-color="white" stop-opacity="0"/>
</linearGradient>
</defs>
</svg>
