<svg width="29" height="28" viewBox="0 0 29 28" fill="none" xmlns="http://www.w3.org/2000/svg">
<path fill-rule="evenodd" clip-rule="evenodd" d="M17.5646 2.33325C16.2759 2.33325 15.2312 3.37792 15.2312 4.66658V10.4999C15.2312 11.7886 16.2759 12.8333 17.5646 12.8333H23.3979C24.6866 12.8333 25.7312 11.7886 25.7312 10.4999V4.66658C25.7312 3.37792 24.6866 2.33325 23.3979 2.33325H17.5646ZM17.5646 4.66658H23.3979V10.4999H17.5646V4.66658ZM4.73125 6.99994C4.11241 6.99994 3.51892 7.24577 3.08134 7.68336C2.64375 8.12094 2.39792 8.71443 2.39792 9.33327V16.3333V23.3333C2.39792 23.9521 2.64375 24.5456 3.08134 24.9832C3.51892 25.4208 4.11242 25.6666 4.73125 25.6666H11.7313H18.7313C19.3501 25.6666 19.9436 25.4208 20.3812 24.9832C20.8188 24.5456 21.0646 23.9521 21.0646 23.3333V17.4999C21.0646 16.8811 20.8188 16.2876 20.3812 15.85C19.9436 15.4124 19.3501 15.1666 18.7313 15.1666H12.8979V9.33327C12.8979 8.71443 12.6521 8.12094 12.2145 7.68336C11.7769 7.24577 11.1834 6.99994 10.5646 6.99994H4.73125ZM4.73125 23.3333V17.4999H10.5646V23.3333H4.73125ZM4.73125 15.1666H10.5646V9.33327L4.73125 9.33327V15.1666ZM12.8979 23.3333V17.4999H18.7313V23.3333H12.8979Z" fill="url(#paint0_linear_129_207)"/>
<defs>
<linearGradient id="paint0_linear_129_207" x1="24.0648" y1="-8.73765" x2="-10.3406" y2="43.0466" gradientUnits="userSpaceOnUse">
<stop stop-color="white"/>
<stop offset="1" stop-color="white" stop-opacity="0"/>
</linearGradient>
</defs>
</svg>
