<svg width="29" height="28" viewBox="0 0 29 28" fill="none" xmlns="http://www.w3.org/2000/svg">
<g clip-path="url(#clip0_129_267)">
<path fill-rule="evenodd" clip-rule="evenodd" d="M25.7303 2.39668C25.748 1.98992 25.5948 1.59428 25.3079 1.30546C25.0209 1.01664 24.6262 0.860931 24.2194 0.876001C22.0961 0.954642 20.4388 1.35145 19.0982 1.97851C17.7498 2.6092 16.7961 3.43824 16.0435 4.27443C15.9903 4.33358 15.942 4.39698 15.8991 4.46402C14.7049 6.33043 14.0685 8.49573 14.0597 10.7057C13.8849 11.0319 13.7403 11.3584 13.6217 11.6839C13.0044 10.6575 12.2403 9.7297 11.2769 9.02908C9.27898 7.57603 6.51765 6.82483 2.14198 7.6062C1.73161 7.67948 1.37221 7.92488 1.15456 8.28041C0.936911 8.63595 0.881816 9.06763 1.00319 9.46643C2.0972 13.061 3.89577 15.3502 6.10129 16.4612C8.27147 17.6223 10.6597 17.6407 13.3862 17.1611L13.4038 17.2727C13.4332 17.4579 13.4624 17.6361 13.4908 17.8092L13.4908 17.8094L13.4909 17.8095C13.5682 18.2814 13.6394 18.7158 13.693 19.1538C13.838 20.3394 13.8018 21.216 13.4471 21.963C13.1239 22.6438 12.4309 23.4294 10.824 24.2083H6.77334C5.96792 24.2083 5.31501 24.8612 5.31501 25.6666C5.31501 26.472 5.96792 27.1249 6.77334 27.1249H11.1058C11.1347 27.1258 11.1636 27.1258 11.1926 27.1249H21.3567C22.1621 27.1249 22.815 26.472 22.815 25.6666C22.815 24.8612 22.1621 24.2083 21.3567 24.2083H15.4857C15.7194 23.8913 15.9176 23.5601 16.082 23.2139C16.7983 21.7049 16.753 20.148 16.5881 18.7997C16.5267 18.2975 16.4414 17.7774 16.3611 17.288C16.3346 17.1262 16.3086 16.9678 16.2843 16.8146C16.1822 16.1726 16.0997 15.5746 16.0707 14.9919C16.0259 14.0918 16.1108 13.2674 16.443 12.4767C19.0326 12.2242 21.1153 11.4523 22.7052 10.1804C22.7472 10.1468 22.7873 10.1109 22.8254 10.0729C24.6012 8.297 25.5727 6.02147 25.7303 2.39668ZM17.0729 9.45496C17.2487 8.28256 17.6616 7.15283 18.2922 6.13701C18.8341 5.55065 19.4654 5.02671 20.3339 4.62045C20.9409 4.33654 21.6958 4.09524 22.6604 3.94465C22.3621 5.90396 21.7037 7.04934 20.8204 7.95245C19.9328 8.64314 18.7225 9.18187 17.0729 9.45496ZM4.39137 10.2493C5.27817 12.2703 6.38977 13.3446 7.42553 13.8624C7.4387 13.869 7.45177 13.8758 7.46474 13.8828C8.58737 14.4873 9.90904 14.6688 11.772 14.4523C11.1723 13.099 10.4515 12.0352 9.56142 11.3879C8.55186 10.6537 7.05882 10.0399 4.39137 10.2493Z" fill="url(#paint0_linear_129_267)"/>
</g>
<defs>
<linearGradient id="paint0_linear_129_267" x1="23.9611" y1="-11.58" x2="-15.5573" y2="44.5943" gradientUnits="userSpaceOnUse">
<stop stop-color="white"/>
<stop offset="1" stop-color="white" stop-opacity="0"/>
</linearGradient>
<clipPath id="clip0_129_267">
<rect width="28" height="28" fill="white" transform="translate(0.0650024)"/>
</clipPath>
</defs>
</svg>
