<svg width="28" height="29" viewBox="0 0 28 29" fill="none" xmlns="http://www.w3.org/2000/svg">
<path fill-rule="evenodd" clip-rule="evenodd" d="M7 8.98055C7 7.04755 8.56701 5.48055 10.5 5.48055C12.433 5.48055 14 7.04755 14 8.98055C14 10.9135 12.433 12.4805 10.5 12.4805C8.56701 12.4805 7 10.9135 7 8.98055ZM10.5 3.14722C7.27834 3.14722 4.66667 5.75889 4.66667 8.98055C4.66667 12.2022 7.27834 14.8139 10.5 14.8139C13.7217 14.8139 16.3333 12.2022 16.3333 8.98055C16.3333 5.75889 13.7217 3.14722 10.5 3.14722ZM7 17.1472C5.45291 17.1472 3.96918 17.7618 2.87522 18.8558C1.78125 19.9497 1.16667 21.4335 1.16667 22.9805V25.3139C1.16667 25.9582 1.68901 26.4805 2.33334 26.4805C2.97767 26.4805 3.50001 25.9582 3.50001 25.3139V22.9805C3.50001 22.0523 3.86875 21.1621 4.52513 20.5057C5.18151 19.8493 6.07175 19.4805 7 19.4805H14C14.9283 19.4805 15.8185 19.8493 16.4749 20.5057C17.1313 21.1621 17.5 22.0523 17.5 22.9805V25.3139C17.5 25.9582 18.0223 26.4805 18.6667 26.4805C19.311 26.4805 19.8333 25.9582 19.8333 25.3139V22.9805C19.8333 21.4335 19.2188 19.9497 18.1248 18.8558C17.0308 17.7618 15.5471 17.1472 14 17.1472H7ZM21.037 18.1739C21.1981 17.55 21.8344 17.1749 22.4583 17.3359C23.7098 17.6591 24.8184 18.3886 25.6103 19.4101C26.4022 20.4316 26.8324 21.6872 26.8333 22.9797V22.9806V25.3139C26.8333 25.9582 26.311 26.4806 25.6667 26.4806C25.0223 26.4806 24.5 25.9582 24.5 25.3139V22.9814V22.9811C24.4993 22.2057 24.2412 21.4525 23.7662 20.8397C23.2911 20.2268 22.6258 19.789 21.875 19.5952C21.2511 19.4341 20.8759 18.7978 21.037 18.1739ZM18.956 3.33535C18.3318 3.17553 17.6963 3.55198 17.5364 4.17618C17.3766 4.80037 17.7531 5.43594 18.3773 5.59576C19.1301 5.78853 19.7974 6.22638 20.274 6.84029C20.7505 7.45419 21.0091 8.20924 21.0091 8.98639C21.0091 9.76354 20.7505 10.5186 20.274 11.1325C19.7974 11.7464 19.1301 12.1842 18.3773 12.377C17.7531 12.5368 17.3766 13.1724 17.5364 13.7966C17.6963 14.4208 18.3318 14.7973 18.956 14.6374C20.2108 14.3162 21.323 13.5864 22.1172 12.5632C22.9114 11.54 23.3425 10.2816 23.3425 8.98639C23.3425 7.69114 22.9114 6.43273 22.1172 5.40955C21.323 4.38637 20.2108 3.65662 18.956 3.33535Z" fill="url(#paint0_linear_129_193)"/>
<defs>
<linearGradient id="paint0_linear_129_193" x1="25.0003" y1="-7.92368" x2="-8.0331" y2="46.7674" gradientUnits="userSpaceOnUse">
<stop stop-color="white"/>
<stop offset="1" stop-color="white" stop-opacity="0"/>
</linearGradient>
</defs>
</svg>
