<svg width="29" height="28" viewBox="0 0 29 28" fill="none" xmlns="http://www.w3.org/2000/svg">
<path fill-rule="evenodd" clip-rule="evenodd" d="M6.76874 4.66683C6.12441 4.66683 5.60207 5.18916 5.60207 5.8335V9.3335H11.4354H24.2687V5.8335C24.2687 5.18916 23.7464 4.66683 23.1021 4.66683H6.76874ZM10.2687 11.6668H5.60207V22.1668C5.60207 22.8112 6.12441 23.3335 6.76874 23.3335H10.2687V11.6668ZM12.6021 23.3335V11.6668H24.2687V22.1668C24.2687 22.8112 23.7464 23.3335 23.1021 23.3335H12.6021ZM11.4354 25.6668H6.76874C4.83574 25.6668 3.26874 24.0998 3.26874 22.1668V10.5002V5.8335C3.26874 3.9005 4.83574 2.3335 6.76874 2.3335H23.1021C25.0351 2.3335 26.6021 3.9005 26.6021 5.8335V10.5002V22.1668C26.6021 24.0998 25.0351 25.6668 23.1021 25.6668H11.4354Z" fill="url(#paint0_linear_129_224)"/>
<defs>
<linearGradient id="paint0_linear_129_224" x1="24.9357" y1="-8.7374" x2="-9.46975" y2="43.0469" gradientUnits="userSpaceOnUse">
<stop stop-color="white"/>
<stop offset="1" stop-color="white" stop-opacity="0"/>
</linearGradient>
</defs>
</svg>
