<svg width="28" height="28" viewBox="0 0 28 28" fill="none" xmlns="http://www.w3.org/2000/svg">
<path fill-rule="evenodd" clip-rule="evenodd" d="M10.5 10.4999C10.5 9.85559 9.97768 9.33325 9.33334 9.33325C8.68901 9.33325 8.16668 9.85559 8.16668 10.4999V11.6666H7.00001C6.35568 11.6666 5.83334 12.1889 5.83334 12.8332C5.83334 13.4776 6.35568 13.9999 7.00001 13.9999H8.16668V15.1666C8.16668 15.8109 8.68901 16.3333 9.33334 16.3333C9.97768 16.3333 10.5 15.8109 10.5 15.1666V13.9999H11.6667C12.311 13.9999 12.8333 13.4776 12.8333 12.8332C12.8333 12.1889 12.311 11.6666 11.6667 11.6666H10.5V10.4999Z" fill="url(#paint0_linear_129_249)"/>
<path fill-rule="evenodd" clip-rule="evenodd" d="M16.3333 13.9999C16.3333 13.3556 16.8557 12.8333 17.5 12.8333H17.5117C18.156 12.8333 18.6783 13.3556 18.6783 13.9999C18.6783 14.6443 18.156 15.1666 17.5117 15.1666H17.5C16.8557 15.1666 16.3333 14.6443 16.3333 13.9999Z" fill="url(#paint1_linear_129_249)"/>
<path fill-rule="evenodd" clip-rule="evenodd" d="M19.8333 11.6667C19.8333 11.0223 20.3557 10.5 21 10.5H21.0117C21.656 10.5 22.1783 11.0223 22.1783 11.6667C22.1783 12.311 21.656 12.8333 21.0117 12.8333H21C20.3557 12.8333 19.8333 12.311 19.8333 11.6667Z" fill="url(#paint2_linear_129_249)"/>
<path d="M20.2067 5.83325H7.79334C6.63867 5.83352 5.52509 6.26186 4.66788 7.03546C3.81067 7.80906 3.2707 8.87299 3.15234 10.0216C3.14534 10.0823 3.14068 10.1394 3.13251 10.1989C3.03801 10.9853 2.33334 16.8653 2.33334 18.6666C2.33334 19.5948 2.70209 20.4851 3.35847 21.1415C4.01485 21.7978 4.90509 22.1666 5.83334 22.1666C7.00001 22.1666 7.58334 21.5833 8.16668 20.9999L9.81634 19.3503C10.2538 18.9126 10.8472 18.6667 11.466 18.6666H16.534C17.1528 18.6667 17.7462 18.9126 18.1837 19.3503L19.8333 20.9999C20.4167 21.5833 21 22.1666 22.1667 22.1666C23.0949 22.1666 23.9852 21.7978 24.6416 21.1415C25.2979 20.4851 25.6667 19.5948 25.6667 18.6666C25.6667 16.8641 24.962 10.9853 24.8675 10.1989C24.8593 10.1406 24.8547 10.0823 24.8477 10.0228C24.7296 8.87395 24.1897 7.80973 23.3325 7.03589C22.4753 6.26205 21.3615 5.83355 20.2067 5.83325Z" stroke="url(#paint3_linear_129_249)" stroke-width="2.33333" stroke-linecap="round" stroke-linejoin="round"/>
<defs>
<linearGradient id="paint0_linear_129_249" x1="12.3334" y1="6.01198" x2="2.0118" y2="21.5473" gradientUnits="userSpaceOnUse">
<stop stop-color="white"/>
<stop offset="1" stop-color="white" stop-opacity="0"/>
</linearGradient>
<linearGradient id="paint1_linear_129_249" x1="18.5109" y1="11.7262" x2="15.077" y2="16.9204" gradientUnits="userSpaceOnUse">
<stop stop-color="white"/>
<stop offset="1" stop-color="white" stop-opacity="0"/>
</linearGradient>
<linearGradient id="paint2_linear_129_249" x1="22.0109" y1="9.39291" x2="18.577" y2="14.5871" gradientUnits="userSpaceOnUse">
<stop stop-color="white"/>
<stop offset="1" stop-color="white" stop-opacity="0"/>
</linearGradient>
<linearGradient id="paint3_linear_129_249" x1="24.0003" y1="-1.91637" x2="4.02122" y2="41.042" gradientUnits="userSpaceOnUse">
<stop stop-color="white"/>
<stop offset="1" stop-color="white" stop-opacity="0"/>
</linearGradient>
</defs>
</svg>
