<svg width="28" height="29" viewBox="0 0 28 29" fill="none" xmlns="http://www.w3.org/2000/svg">
<path fill-rule="evenodd" clip-rule="evenodd" d="M8.74999 2.61206C6.73876 2.61206 4.80991 3.41102 3.38776 4.83317C1.96561 6.25532 1.16666 8.18417 1.16666 10.1954C1.16666 13.403 3.26013 15.7464 5.01529 17.4439L13.175 25.6037C13.6306 26.0593 14.3693 26.0593 14.8249 25.6037L18.325 22.1036L22.9875 17.4412C23.7387 16.7048 24.5604 15.8474 25.2508 14.8521C25.2863 14.8073 25.3181 14.7606 25.3462 14.7124C26.202 13.4391 26.8333 11.9447 26.8333 10.1954C26.8333 8.18417 26.0344 6.25532 24.6122 4.83317C23.1901 3.41102 21.2612 2.61206 19.25 2.61206C18.1064 2.61206 17.0646 2.77561 16.0454 3.21953C15.3303 3.53095 14.6625 3.96466 14 4.52463C13.3374 3.96466 12.6696 3.53095 11.9546 3.21953C10.9354 2.77561 9.89354 2.61206 8.74999 2.61206ZM17.5 19.6288L15.9916 18.1204C15.536 17.6648 14.7973 17.6648 14.3417 18.1204C13.8861 18.576 13.8861 19.3147 14.3417 19.7703L15.8501 21.2787L14 23.1288L6.65828 15.7871L6.64418 15.7732C4.90081 14.088 3.49999 12.3501 3.49999 10.1954C3.49999 8.80301 4.05311 7.46765 5.03768 6.48308C6.02224 5.49852 7.3576 4.94539 8.74999 4.94539C9.65978 4.94539 10.3679 5.07351 11.0229 5.35876C11.4353 5.53838 11.8549 5.79268 12.3081 6.15412L9.72305 8.73912C9.37755 9.08255 9.1033 9.49085 8.91605 9.94059C8.72851 10.391 8.63195 10.8742 8.63195 11.3621C8.63195 11.85 8.72851 12.3332 8.91605 12.7836C9.10332 13.2334 9.3776 13.6417 9.72314 13.9852C11.1242 15.3847 13.3561 15.4265 14.8255 14.1091L14.8255 14.1092L14.8356 14.0999L17.2479 11.8858C17.6382 11.5325 18.146 11.3369 18.6725 11.3369C19.2 11.3369 19.7087 11.5333 20.0993 11.8878L20.1035 11.8915L22.7566 14.2757C22.3334 14.7854 21.8557 15.2833 21.3501 15.7788L21.3501 15.7787L21.3417 15.7871L21 16.1288L19.4916 14.6204C19.036 14.1648 18.2973 14.1648 17.8417 14.6204C17.3861 15.076 17.3861 15.8147 17.8417 16.2703L19.3501 17.7787L17.5 19.6288ZM24.0378 12.29C24.331 11.6301 24.5 10.9371 24.5 10.1954C24.5 8.80301 23.9469 7.46765 22.9623 6.48308C21.9777 5.49852 20.6424 4.94539 19.25 4.94539C18.3402 4.94539 17.632 5.07351 16.9771 5.35876C16.3162 5.64662 15.6366 6.12627 14.8306 6.93136L14.8249 6.93706L11.3716 10.3904L11.3686 10.3934L11.3686 10.3934C11.2408 10.5203 11.1394 10.6712 11.0701 10.8374C11.0009 11.0037 10.9653 11.182 10.9653 11.3621C10.9653 11.5422 11.0009 11.7205 11.0701 11.8868C11.1394 12.053 11.2408 12.2039 11.3686 12.3308L11.3716 12.3338C11.8827 12.8449 12.7035 12.8738 13.2635 12.3756L15.6727 10.1643L15.6777 10.1598L15.6777 10.1598C16.4977 9.41573 17.5652 9.00356 18.6725 9.00356C19.7788 9.00356 20.8454 9.415 21.6651 10.1578L21.6673 10.1598L24.0378 12.29Z" fill="url(#paint0_linear_310_363)"/>
<defs>
<linearGradient id="paint0_linear_310_363" x1="25.0003" y1="-8.45883" x2="-8.03308" y2="46.2322" gradientUnits="userSpaceOnUse">
<stop stop-color="white"/>
<stop offset="1" stop-color="white" stop-opacity="0"/>
</linearGradient>
</defs>
</svg>
