<svg width="28" height="29" viewBox="0 0 28 29" fill="none" xmlns="http://www.w3.org/2000/svg">
<path fill-rule="evenodd" clip-rule="evenodd" d="M9.51283 2.58885C9.34591 1.96651 8.7061 1.59732 8.08376 1.76424C7.46142 1.93115 7.09223 2.57097 7.25915 3.19331L8.16565 6.57314C8.33256 7.19548 8.97238 7.56467 9.59472 7.39775C10.2171 7.23083 10.5862 6.59102 10.4193 5.96868L9.51283 2.58885ZM17.0999 5.82887C17.5556 5.37326 17.5556 4.63456 17.0999 4.17895C16.6443 3.72334 15.9056 3.72334 15.45 4.17895L12.9744 6.65462C12.5188 7.11023 12.5188 7.84892 12.9744 8.30453C13.43 8.76015 14.1687 8.76015 14.6243 8.30453L17.0999 5.82887ZM2.91312 7.53804C2.29077 7.37118 1.65098 7.74043 1.48412 8.36278C1.31726 8.98513 1.68651 9.62492 2.30886 9.79178L5.68986 10.6983C6.31221 10.8651 6.95199 10.4959 7.11885 9.87354C7.28572 9.25119 6.91647 8.61141 6.29412 8.44454L2.91312 7.53804ZM8.02483 14.9028C8.48023 14.447 8.47988 13.7083 8.02406 13.2529C7.56823 12.7975 6.82954 12.7978 6.37414 13.2537L3.90081 15.7293C3.44541 16.1852 3.44576 16.9239 3.90159 17.3793C4.35741 17.8347 5.0961 17.8343 5.5515 17.3785L8.02483 14.9028ZM9.67504 9.95394C10.0093 9.61964 10.5123 9.52014 10.9487 9.70197L24.9487 15.5353C25.3967 15.722 25.6824 16.1665 25.666 16.6516C25.6496 17.1367 25.3346 17.561 24.875 17.717L20.5546 19.1836L24.5246 23.1536C24.9802 23.6092 24.9802 24.3479 24.5246 24.8035C24.069 25.2591 23.3303 25.2591 22.8747 24.8035L18.9047 20.8335L17.4381 25.1539C17.2821 25.6135 16.8578 25.9285 16.3727 25.9449C15.8876 25.9613 15.4431 25.6756 15.2564 25.2276L9.42307 11.2276C9.24124 10.7912 9.34074 10.2882 9.67504 9.95394ZM12.6667 12.9456L16.2218 21.4779L17.2982 18.3069C17.4148 17.9634 17.6845 17.6937 18.028 17.5771L21.199 16.5007L12.6667 12.9456Z" fill="url(#paint0_linear_310_339)"/>
<defs>
<linearGradient id="paint0_linear_310_339" x1="23.9368" y1="-9.76815" x2="-11.7775" y2="43.9887" gradientUnits="userSpaceOnUse">
<stop stop-color="white"/>
<stop offset="1" stop-color="white" stop-opacity="0"/>
</linearGradient>
</defs>
</svg>
