<svg width="28" height="29" viewBox="0 0 28 29" fill="none" xmlns="http://www.w3.org/2000/svg">
<path fill-rule="evenodd" clip-rule="evenodd" d="M10.5002 10.5622C10.5002 9.91784 9.97783 9.39551 9.3335 9.39551C8.68916 9.39551 8.16683 9.91784 8.16683 10.5622V11.7288H7.00016C6.35583 11.7288 5.8335 12.2512 5.8335 12.8955C5.8335 13.5398 6.35583 14.0622 7.00016 14.0622H8.16683V15.2288C8.16683 15.8732 8.68916 16.3955 9.3335 16.3955C9.97783 16.3955 10.5002 15.8732 10.5002 15.2288V14.0622H11.6668C12.3112 14.0622 12.8335 13.5398 12.8335 12.8955C12.8335 12.2512 12.3112 11.7288 11.6668 11.7288H10.5002V10.5622Z" fill="url(#paint0_linear_470_20675)"/>
<path fill-rule="evenodd" clip-rule="evenodd" d="M16.3335 14.0622C16.3335 13.4178 16.8558 12.8955 17.5002 12.8955H17.5118C18.1562 12.8955 18.6785 13.4178 18.6785 14.0622C18.6785 14.7065 18.1562 15.2288 17.5118 15.2288H17.5002C16.8558 15.2288 16.3335 14.7065 16.3335 14.0622Z" fill="url(#paint1_linear_470_20675)"/>
<path fill-rule="evenodd" clip-rule="evenodd" d="M19.8335 11.7292C19.8335 11.0848 20.3558 10.5625 21.0002 10.5625H21.0118C21.6562 10.5625 22.1785 11.0848 22.1785 11.7292C22.1785 12.3735 21.6562 12.8958 21.0118 12.8958H21.0002C20.3558 12.8958 19.8335 12.3735 19.8335 11.7292Z" fill="url(#paint2_linear_470_20675)"/>
<path d="M20.2068 5.89551H7.7935C6.63882 5.89578 5.52525 6.32411 4.66804 7.09772C3.81082 7.87132 3.27085 8.93525 3.1525 10.0838C3.1455 10.1445 3.14083 10.2017 3.13266 10.2612C3.03816 11.0475 2.3335 16.9275 2.3335 18.7288C2.3335 19.6571 2.70225 20.5473 3.35862 21.2037C4.015 21.8601 4.90524 22.2288 5.8335 22.2288C7.00016 22.2288 7.5835 21.6455 8.16683 21.0622L9.8165 19.4125C10.254 18.9749 10.8474 18.729 11.4662 18.7288H16.5342C17.153 18.729 17.7463 18.9749 18.1838 19.4125L19.8335 21.0622C20.4168 21.6455 21.0002 22.2288 22.1668 22.2288C23.0951 22.2288 23.9853 21.8601 24.6417 21.2037C25.2981 20.5473 25.6668 19.6571 25.6668 18.7288C25.6668 16.9263 24.9622 11.0475 24.8677 10.2612C24.8595 10.2028 24.8548 10.1445 24.8478 10.085C24.7297 8.9362 24.1899 7.87199 23.3326 7.09815C22.4754 6.32431 21.3617 5.89581 20.2068 5.89551Z" stroke="url(#paint3_linear_470_20675)" stroke-width="2.33333" stroke-linecap="round" stroke-linejoin="round"/>
<defs>
<linearGradient id="paint0_linear_470_20675" x1="12.8334" y1="8.66408" x2="5.84082" y2="16.2347" gradientUnits="userSpaceOnUse">
<stop stop-color="#5E2AF0"/>
<stop offset="1" stop-color="#9786DF"/>
</linearGradient>
<linearGradient id="paint1_linear_470_20675" x1="18.6785" y1="12.6517" x2="16.3486" y2="15.1868" gradientUnits="userSpaceOnUse">
<stop stop-color="#5E2AF0"/>
<stop offset="1" stop-color="#9786DF"/>
</linearGradient>
<linearGradient id="paint2_linear_470_20675" x1="22.1785" y1="10.3187" x2="19.8486" y2="12.8538" gradientUnits="userSpaceOnUse">
<stop stop-color="#5E2AF0"/>
<stop offset="1" stop-color="#9786DF"/>
</linearGradient>
<linearGradient id="paint3_linear_470_20675" x1="25.6667" y1="4.18884" x2="10.7409" y2="27.2736" gradientUnits="userSpaceOnUse">
<stop stop-color="#5E2AF0"/>
<stop offset="1" stop-color="#9786DF"/>
</linearGradient>
</defs>
</svg>
