<svg width="28" height="28" viewBox="0 0 28 28" fill="none" xmlns="http://www.w3.org/2000/svg">
<path fill-rule="evenodd" clip-rule="evenodd" d="M14.5436 1.50386L21.2188 13.1855C21.4769 13.6371 21.3457 14.2111 20.9171 14.5057L14.2419 19.0949C13.9006 19.3296 13.4501 19.3296 13.1088 19.0949L6.43357 14.5057C6.005 14.2111 5.87382 13.6371 6.13186 13.1855L12.8071 1.50386C13.191 0.832046 14.1597 0.832047 14.5436 1.50386ZM7.55617 17.665L13.3781 21.7746C13.5553 21.8997 13.7929 21.8963 13.9664 21.7661L19.3402 17.7358C19.7899 17.3985 20.368 17.9454 20.0562 18.4132L14.0789 27.3791C13.8843 27.671 13.4576 27.677 13.2548 27.3908L6.85982 18.3625C6.53495 17.9039 7.09701 17.3409 7.55617 17.665Z" fill="url(#paint0_linear_470_20668)"/>
<defs>
<linearGradient id="paint0_linear_470_20668" x1="21.3506" y1="-1.77962" x2="-2.60709" y2="13.1879" gradientUnits="userSpaceOnUse">
<stop stop-color="#5E2AF0"/>
<stop offset="1" stop-color="#9786DF"/>
</linearGradient>
</defs>
</svg>
