<svg width="28" height="28" viewBox="0 0 28 28" fill="none" xmlns="http://www.w3.org/2000/svg">
<path d="M14.2572 2.33301H13.7438C13.125 2.33301 12.5315 2.57884 12.0939 3.01643C11.6563 3.45401 11.4105 4.0475 11.4105 4.66634V4.87634C11.4101 5.28552 11.3021 5.6874 11.0973 6.04165C10.8925 6.39591 10.5982 6.69008 10.2438 6.89467L9.74216 7.18634C9.38745 7.39113 8.98508 7.49895 8.57549 7.49895C8.1659 7.49895 7.76354 7.39113 7.40882 7.18634L7.23382 7.09301C6.6984 6.78415 6.0623 6.70036 5.46516 6.86003C4.86802 7.01971 4.35863 7.4098 4.04882 7.94467L3.79216 8.38801C3.4833 8.92343 3.39951 9.55953 3.55918 10.1567C3.71886 10.7538 4.10895 11.2632 4.64382 11.573L4.81882 11.6897C5.17148 11.8933 5.46471 12.1856 5.66938 12.5376C5.87405 12.8897 5.98303 13.2891 5.98549 13.6963V14.2913C5.98712 14.7025 5.88008 15.1068 5.67521 15.4633C5.47033 15.8197 5.1749 16.1158 4.81882 16.3213L4.64382 16.4263C4.10895 16.7362 3.71886 17.2455 3.55918 17.8427C3.39951 18.4398 3.4833 19.0759 3.79216 19.6113L4.04882 20.0547C4.35863 20.5895 4.86802 20.9796 5.46516 21.1393C6.0623 21.299 6.6984 21.2152 7.23382 20.9063L7.40882 20.813C7.76354 20.6082 8.1659 20.5004 8.57549 20.5004C8.98508 20.5004 9.38745 20.6082 9.74216 20.813L10.2438 21.1047C10.5982 21.3093 10.8925 21.6034 11.0973 21.9577C11.3021 22.312 11.4101 22.7138 11.4105 23.123V23.333C11.4105 23.9518 11.6563 24.5453 12.0939 24.9829C12.5315 25.4205 13.125 25.6663 13.7438 25.6663H14.2572C14.876 25.6663 15.4695 25.4205 15.9071 24.9829C16.3447 24.5453 16.5905 23.9518 16.5905 23.333V23.123C16.5909 22.7138 16.6989 22.312 16.9037 21.9577C17.1085 21.6034 17.4028 21.3093 17.7572 21.1047L18.2588 20.813C18.6135 20.6082 19.0159 20.5004 19.4255 20.5004C19.8351 20.5004 20.2374 20.6082 20.5922 20.813L20.7672 20.9063C21.3026 21.2152 21.9387 21.299 22.5358 21.1393C23.133 20.9796 23.6423 20.5895 23.9522 20.0547L24.2088 19.5997C24.5177 19.0642 24.6015 18.4281 24.4418 17.831C24.2821 17.2339 23.892 16.7245 23.3572 16.4147L23.1822 16.3213C22.8261 16.1158 22.5306 15.8197 22.3258 15.4633C22.1209 15.1068 22.0139 14.7025 22.0155 14.2913V13.708C22.0139 13.2969 22.1209 12.8926 22.3258 12.5361C22.5306 12.1796 22.8261 11.8836 23.1822 11.678L23.3572 11.573C23.892 11.2632 24.2821 10.7538 24.4418 10.1567C24.6015 9.55953 24.5177 8.92343 24.2088 8.38801L23.9522 7.94467C23.6423 7.4098 23.133 7.01971 22.5358 6.86003C21.9387 6.70036 21.3026 6.78415 20.7672 7.09301L20.5922 7.18634C20.2374 7.39113 19.8351 7.49895 19.4255 7.49895C19.0159 7.49895 18.6135 7.39113 18.2588 7.18634L17.7572 6.89467C17.4028 6.69008 17.1085 6.39591 16.9037 6.04165C16.6989 5.6874 16.5909 5.28552 16.5905 4.87634V4.66634C16.5905 4.0475 16.3447 3.45401 15.9071 3.01643C15.4695 2.57884 14.876 2.33301 14.2572 2.33301Z" stroke="url(#paint0_linear_470_20672)" stroke-width="2.33333" stroke-linecap="round" stroke-linejoin="round"/>
<path d="M14.0005 17.5C15.9335 17.5 17.5005 15.933 17.5005 14C17.5005 12.067 15.9335 10.5 14.0005 10.5C12.0675 10.5 10.5005 12.067 10.5005 14C10.5005 15.933 12.0675 17.5 14.0005 17.5Z" stroke="url(#paint1_linear_470_20672)" stroke-width="2.33333" stroke-linecap="round" stroke-linejoin="round"/>
<defs>
<linearGradient id="paint0_linear_470_20672" x1="24.5209" y1="-0.105095" x2="1.14529" y2="22.7162" gradientUnits="userSpaceOnUse">
<stop stop-color="#5E2AF0"/>
<stop offset="1" stop-color="#9786DF"/>
</linearGradient>
<linearGradient id="paint1_linear_470_20672" x1="17.5004" y1="9.76857" x2="10.5078" y2="17.3391" gradientUnits="userSpaceOnUse">
<stop stop-color="#5E2AF0"/>
<stop offset="1" stop-color="#9786DF"/>
</linearGradient>
</defs>
</svg>
