<svg width="29" height="29" viewBox="0 0 29 29" fill="none" xmlns="http://www.w3.org/2000/svg">
<path fill-rule="evenodd" clip-rule="evenodd" d="M19.7749 5.2775C21.493 4.33255 23.3879 3.76513 25.3332 3.60726C25.0951 6.6087 23.8415 10.9352 18.9188 14.2457C18.9132 14.2493 18.9076 14.2529 18.902 14.2566C17.7123 15.0072 16.4615 15.6554 15.1632 16.1945L12.7513 13.7827C13.293 12.4967 13.9438 11.2589 14.6967 10.0829L14.6968 10.0829L14.7033 10.0724C15.9572 8.06768 17.7031 6.41703 19.7749 5.2775ZM18.7791 17.0383C17.8939 17.527 16.982 17.9662 16.0475 18.3538V21.885C16.1596 21.8484 16.2749 21.8089 16.392 21.7664C17.3984 21.4014 18.2375 20.9215 18.5774 20.4142C18.7443 20.1633 18.8681 19.776 18.9174 19.2454C18.9659 18.7242 18.9351 18.146 18.8629 17.5858C18.8385 17.3965 18.8099 17.2128 18.7791 17.0383ZM13.7142 18.0454L10.8976 15.2288H5.54754C5.20165 15.2288 4.8736 15.0753 4.65193 14.8098C4.43027 14.5442 4.33785 14.1941 4.39963 13.8537L5.54754 14.0621C4.39963 13.8537 4.39967 13.8535 4.39972 13.8532L4.39982 13.8527L4.40008 13.8512L4.40078 13.8475L4.4029 13.8361L4.41014 13.7984C4.4163 13.7669 4.42517 13.7227 4.43685 13.6673C4.46019 13.5566 4.4949 13.4006 4.54188 13.2112C4.63539 12.8342 4.77967 12.3161 4.98308 11.7553C5.36162 10.7117 6.04811 9.21783 7.23218 8.42573L7.23372 8.4247C7.92788 7.96193 8.74197 7.77096 9.4817 7.70221C10.2315 7.63252 10.9935 7.68052 11.6554 7.76583C12.2686 7.84486 12.8229 7.95953 13.2417 8.05972C14.6543 6.06604 16.5024 4.4144 18.6505 3.23299C21.0711 1.90162 23.7922 1.21169 26.5548 1.22883C27.1963 1.23281 27.7142 1.75396 27.7142 2.39547C27.7142 5.67415 26.7945 11.3878 20.8865 15.7148C20.9859 16.132 21.099 16.681 21.1771 17.2876C21.2624 17.9495 21.3104 18.7115 21.2408 19.4613C21.172 20.201 20.981 21.0151 20.5183 21.7093L20.5172 21.7108C19.7251 22.8949 18.2312 23.5814 17.1877 23.9599C16.6269 24.1633 16.1088 24.3076 15.7318 24.4011C15.5424 24.4481 15.3864 24.4828 15.2757 24.5062C15.2203 24.5178 15.1761 24.5267 15.1446 24.5329L15.1069 24.5401L15.0955 24.5422L15.0917 24.5429L15.0903 24.5432L15.0897 24.5433C15.0895 24.5433 15.0892 24.5434 14.8809 23.3955L15.0892 24.5434C14.7489 24.6052 14.3987 24.5127 14.1332 24.2911C13.8677 24.0694 13.7142 23.7414 13.7142 23.3955V18.0454ZM11.3572 10.08C11.5542 10.1054 11.7452 10.1354 11.9261 10.1677C11.4308 11.0509 10.9858 11.9616 10.5932 12.8954H7.05799C7.0946 12.7833 7.13411 12.668 7.17657 12.551C7.5416 11.5446 8.02146 10.7056 8.52876 10.3657C8.77963 10.1987 9.16697 10.0748 9.69764 10.0255C10.2188 9.97709 10.797 10.0078 11.3572 10.08ZM7.88453 17.5487C6.97084 17.5205 6.0789 17.8305 5.37976 18.4194C4.76519 18.9359 4.31394 19.6474 3.97971 20.3317C3.63882 21.0296 3.37977 21.7827 3.18627 22.4592C2.99171 23.1394 2.85648 23.7668 2.76984 24.2231C2.72636 24.4521 2.69474 24.64 2.67374 24.7724C2.66324 24.8387 2.65537 24.8912 2.64999 24.9282L2.64377 24.9718L2.64202 24.9845L2.64148 24.9885L2.64129 24.9899L2.64122 24.9904C2.64119 24.9906 2.64116 24.9909 3.79754 25.1455L2.64116 24.9909C2.59299 25.3512 2.71553 25.7134 2.97258 25.9704C3.22963 26.2275 3.59181 26.35 3.95213 26.3018L3.79754 25.1455C3.95213 26.3018 3.95235 26.3018 3.95258 26.3018L3.95312 26.3017L3.95452 26.3015L3.9585 26.301L3.97118 26.2992L4.01479 26.293C4.05177 26.2876 4.10429 26.2798 4.17056 26.2692C4.30301 26.2483 4.49094 26.2166 4.71991 26.1732C5.17623 26.0865 5.80359 25.9513 6.4838 25.7567C7.16028 25.5632 7.91341 25.3042 8.6113 24.9633C9.29527 24.6292 10.0065 24.1782 10.523 23.564C11.7143 22.1533 11.7321 19.9559 10.3456 18.5869L10.3314 18.5732C9.66989 17.9418 8.79853 17.577 7.88453 17.5487ZM5.84211 23.5134C5.6493 23.5685 5.46061 23.6184 5.27972 23.6633C5.3246 23.4824 5.37448 23.2937 5.42963 23.1009C5.60072 22.5028 5.81562 21.8895 6.0763 21.3558C6.3435 20.8087 6.6212 20.4239 6.88126 20.2054L6.88269 20.2042C7.14216 19.9856 7.47324 19.8704 7.8124 19.8809C8.14819 19.8913 8.46846 20.0241 8.71301 20.2541C9.16298 20.7061 9.20184 21.5124 8.73985 22.059L8.73755 22.0617C8.5191 22.3218 8.13425 22.5995 7.58721 22.8667C7.05354 23.1274 6.44021 23.3423 5.84211 23.5134Z" fill="url(#paint0_linear_470_20630)"/>
<defs>
<linearGradient id="paint0_linear_470_20630" x1="27.714" y1="-1.39247" x2="2.65681" y2="25.7355" gradientUnits="userSpaceOnUse">
<stop stop-color="#5E2AF0"/>
<stop offset="1" stop-color="#9786DF"/>
</linearGradient>
</defs>
</svg>
