<svg width="28" height="28" viewBox="0 0 28 28" fill="none" xmlns="http://www.w3.org/2000/svg">
<path fill-rule="evenodd" clip-rule="evenodd" d="M12.1979 2.05612C12.7422 1.7293 13.365 1.55664 13.9998 1.55664C14.6347 1.55664 15.2575 1.7293 15.8018 2.05612L15.802 2.05629L15.8023 2.05647L19.3018 4.15612L19.3023 4.15647C19.819 4.46689 20.2468 4.90548 20.5442 5.42975C20.8416 5.95403 20.9985 6.54622 20.9998 7.14897L20.9998 7.15153L20.9998 11.5896L25.1355 14.0731L25.1357 14.0732C25.6523 14.3836 26.0801 14.8222 26.3775 15.3465C26.6749 15.8708 26.8319 16.4629 26.8332 17.0657L26.8332 17.0683L26.8332 20.8483L26.8332 20.8508C26.8319 21.4536 26.6749 22.0458 26.3775 22.57C26.0801 23.0943 25.6523 23.5329 25.1357 23.8433L25.1351 23.8437L21.6357 25.9433L21.6351 25.9437C21.1295 26.2473 20.556 26.4179 19.968 26.4405C19.9238 26.4456 19.8788 26.4483 19.8332 26.4483C19.7876 26.4483 19.7426 26.4456 19.6983 26.4405C19.1106 26.4179 18.5372 26.2474 18.0316 25.9439L18.2437 23.3505L18.6665 23.604V19.9105L18.5315 19.8295L18.2437 23.3505L18.2429 23.35L18.5309 19.8291L15.1665 17.8105V21.5057L18.2429 23.35L18.0307 25.9433L13.9998 23.5268L9.969 25.9433L9.96824 25.9438L9.96804 25.9439C9.46251 26.2474 8.88914 26.4179 8.30138 26.4405C8.25713 26.4456 8.21213 26.4483 8.16651 26.4483C8.1209 26.4483 8.07591 26.4456 8.03166 26.4405C7.44374 26.4179 6.87022 26.2473 6.36459 25.9437L6.364 25.9433L2.86459 23.8437L2.86401 23.8433C2.34733 23.5329 1.91958 23.0943 1.62218 22.57C1.32479 22.0458 1.16783 21.4536 1.16651 20.8508L1.1665 20.8483V17.0683L1.16651 17.0657C1.16783 16.4629 1.32479 15.8708 1.62218 15.3465C1.91958 14.8222 2.34733 14.3836 2.86401 14.0732L2.86423 14.0731L6.99985 11.5896V7.15153L6.99985 7.14897C7.00117 6.54622 7.15813 5.95403 7.45553 5.42975C7.75292 4.90548 8.18068 4.46689 8.69735 4.15647L8.69794 4.15612L12.1973 2.05647L12.1979 2.05612ZM18.999 14.1109L18.9988 14.111L18.9988 14.1111L16.2674 15.7499L18.7432 17.2354L18.9988 14.1111L18.999 14.111L18.7436 17.2356L19.8326 17.889L23.3929 15.7483L19.8329 13.6106L18.999 14.111L18.999 14.1109ZM13.9998 3.88997C13.7882 3.88997 13.5805 3.94757 13.399 4.05659L13.3984 4.05694L10.4404 5.83174L13.9998 7.9719L17.5593 5.83174L14.6013 4.05694L14.6007 4.05659C14.4192 3.94757 14.2115 3.88997 13.9998 3.88997ZM15.1665 9.99306V13.6893L18.6665 11.5893V7.88863L15.1665 9.99306ZM12.8332 13.6893V9.99306L9.33318 7.88863V11.5893L12.8332 13.6893ZM20.9999 23.6037L23.934 21.8432L23.9345 21.8429L23.9346 21.8428C24.1066 21.7394 24.2489 21.5933 24.348 21.4188C24.4469 21.2443 24.4992 21.0473 24.4998 20.8468V17.8054L20.9999 19.9098V23.6037ZM9.33318 23.604L12.8332 21.5057V17.8105L9.33318 19.9105V23.604ZM6.99985 19.9098L3.49984 17.8054V20.8468C3.50046 21.0473 3.55277 21.2443 3.65173 21.4188C3.75075 21.5933 3.89312 21.7394 4.06508 21.8428L4.06522 21.8429L4.06567 21.8432L6.99985 23.6037V19.9098ZM8.16675 13.6106L11.7322 15.7499L8.16711 17.889L4.60684 15.7483L8.16675 13.6106Z" fill="url(#paint0_linear_470_20682)"/>
<defs>
<linearGradient id="paint0_linear_470_20682" x1="26.833" y1="-1.04429" x2="2.03952" y2="26.6342" gradientUnits="userSpaceOnUse">
<stop stop-color="#5E2AF0"/>
<stop offset="1" stop-color="#9786DF"/>
</linearGradient>
</defs>
</svg>
