<svg width="28" height="28" viewBox="0 0 28 28" fill="none" xmlns="http://www.w3.org/2000/svg">
<path fill-rule="evenodd" clip-rule="evenodd" d="M14.4096 1.24127C14.1455 1.14223 13.8545 1.14223 13.5904 1.24127L4.25702 4.74127C3.80167 4.91203 3.5 5.34734 3.5 5.83366V14.0003C3.5 18.0212 6.16204 21.234 8.56508 23.3367C9.79111 24.4094 11.0116 25.248 11.9233 25.8178C12.3804 26.1034 12.763 26.3235 13.0339 26.4735C13.1695 26.5485 13.2773 26.6062 13.3529 26.6458C13.3907 26.6657 13.4204 26.681 13.4415 26.6918L13.4665 26.7046L13.4741 26.7084L13.4766 26.7097L13.4775 26.7101C13.4779 26.7103 13.4783 26.7105 14 25.667L13.4783 26.7105C13.8067 26.8747 14.1933 26.8747 14.5217 26.7105L14 25.667C14.5217 26.7105 14.5221 26.7103 14.5225 26.7101L14.5234 26.7097L14.5259 26.7084L14.5335 26.7046L14.5585 26.6918C14.5796 26.681 14.6093 26.6657 14.6471 26.6458C14.7227 26.6062 14.8305 26.5485 14.9661 26.4735C15.237 26.3235 15.6196 26.1034 16.0767 25.8178C16.9884 25.248 18.2089 24.4094 19.4349 23.3367C21.838 21.234 24.5 18.0212 24.5 14.0003V5.83366C24.5 5.34734 24.1983 4.91203 23.743 4.74127L14.4096 1.24127ZM14.84 23.8391C14.5095 24.0457 14.2236 24.2135 14 24.3402C13.7764 24.2135 13.4905 24.0457 13.16 23.8391C12.3217 23.3152 11.2089 22.5495 10.1016 21.5807C7.83796 19.6 5.83333 16.9795 5.83333 14.0003V6.64216L14 3.57966L22.1667 6.64216V14.0003C22.1667 16.9795 20.162 19.6 17.8984 21.5807C16.7911 22.5495 15.6783 23.3152 14.84 23.8391ZM18.325 12.492C18.7806 12.0364 18.7806 11.2977 18.325 10.8421C17.8693 10.3865 17.1307 10.3865 16.675 10.8421L12.8333 14.6838L11.325 13.1754C10.8693 12.7198 10.1307 12.7198 9.67504 13.1754C9.21943 13.631 9.21943 14.3697 9.67504 14.8253L12.0084 17.1587C12.464 17.6143 13.2027 17.6143 13.6583 17.1587L18.325 12.492Z" fill="url(#paint0_linear_470_20696)"/>
<defs>
<linearGradient id="paint0_linear_470_20696" x1="24.4999" y1="-1.51492" x2="-1.03273" y2="21.102" gradientUnits="userSpaceOnUse">
<stop stop-color="#5E2AF0"/>
<stop offset="1" stop-color="#9786DF"/>
</linearGradient>
</defs>
</svg>
