<svg width="28" height="28" viewBox="0 0 28 28" fill="none" xmlns="http://www.w3.org/2000/svg">
<path fill-rule="evenodd" clip-rule="evenodd" d="M4.66699 2.33301C3.73873 2.33301 2.8485 2.70176 2.19212 3.35813C1.53574 4.01451 1.16699 4.90475 1.16699 5.83301V20.9997C1.16699 22.9273 2.73933 24.4997 4.66699 24.4997H23.3337C24.2619 24.4997 25.1522 24.1309 25.8085 23.4745C26.4649 22.8182 26.8337 21.9279 26.8337 20.9997V9.33301C26.8337 8.40475 26.4649 7.51451 25.8085 6.85813C25.1522 6.20176 24.2619 5.83301 23.3337 5.83301H14.0855C13.8942 5.83161 13.7062 5.78319 13.538 5.692C13.3691 5.60041 13.2254 5.46851 13.1197 5.30802L13.1086 5.29145L12.157 3.89886C11.8405 3.42154 11.4117 3.02912 10.9081 2.7561C10.4013 2.48134 9.8345 2.33601 9.25803 2.33302L9.25803 2.33301H9.25199H4.66699ZM3.84203 5.00805C4.06083 4.78926 4.35757 4.66634 4.66699 4.66634H9.24846C9.43975 4.66774 9.62779 4.71616 9.79598 4.80735C9.96491 4.89894 10.1086 5.03084 10.2143 5.19133L10.2254 5.2079L11.177 6.60049C11.4935 7.07781 11.9223 7.47023 12.4259 7.74325C12.9327 8.01801 13.4995 8.16334 14.076 8.16633V8.16634H14.082H23.3337C23.6431 8.16634 23.9398 8.28926 24.1586 8.50805C24.3774 8.72684 24.5003 9.02359 24.5003 9.33301V20.9997C24.5003 21.3091 24.3774 21.6058 24.1586 21.8246C23.9398 22.0434 23.6431 22.1663 23.3337 22.1663H4.66699C4.02799 22.1663 3.50033 21.6387 3.50033 20.9997V5.83301C3.50033 5.52359 3.62324 5.22684 3.84203 5.00805ZM18.3253 13.6579C18.7809 13.2023 18.7809 12.4636 18.3253 12.008C17.8697 11.5524 17.131 11.5524 16.6754 12.008L12.8337 15.8497L11.3253 14.3413C10.8697 13.8857 10.131 13.8857 9.67537 14.3413C9.21976 14.7969 9.21976 15.5356 9.67537 15.9912L12.0087 18.3246C12.4643 18.7802 13.203 18.7802 13.6586 18.3246L18.3253 13.6579Z" fill="url(#paint0_linear_470_20646)"/>
<defs>
<linearGradient id="paint0_linear_470_20646" x1="26.8335" y1="0.0168102" x2="5.17584" y2="27.1668" gradientUnits="userSpaceOnUse">
<stop stop-color="#5E2AF0"/>
<stop offset="1" stop-color="#9786DF"/>
</linearGradient>
</defs>
</svg>
