<svg width="28" height="29" viewBox="0 0 28 29" fill="none" xmlns="http://www.w3.org/2000/svg">
<path fill-rule="evenodd" clip-rule="evenodd" d="M5.8335 4.66634C5.18916 4.66634 4.66683 5.18868 4.66683 5.83301V9.33301H10.5002H23.3335V5.83301C23.3335 5.18868 22.8112 4.66634 22.1668 4.66634H5.8335ZM9.3335 11.6663H4.66683V22.1663C4.66683 22.8107 5.18916 23.333 5.8335 23.333H9.3335V11.6663ZM11.6668 23.333V11.6663H23.3335V22.1663C23.3335 22.8107 22.8112 23.333 22.1668 23.333H11.6668ZM10.5002 25.6663H5.8335C3.9005 25.6663 2.3335 24.0993 2.3335 22.1663V10.4997V5.83301C2.3335 3.90001 3.9005 2.33301 5.8335 2.33301H22.1668C24.0998 2.33301 25.6668 3.90001 25.6668 5.83301V10.4997V22.1663C25.6668 24.0993 24.0998 25.6663 22.1668 25.6663H10.5002Z" fill="url(#paint0_linear_470_20981)"/>
<defs>
<linearGradient id="paint0_linear_470_20981" x1="25.6667" y1="-0.105095" x2="2.35791" y2="25.1302" gradientUnits="userSpaceOnUse">
<stop stop-color="#5E2AF0"/>
<stop offset="1" stop-color="#9786DF"/>
</linearGradient>
</defs>
</svg>
