<svg width="28" height="28" viewBox="0 0 28 28" fill="none" xmlns="http://www.w3.org/2000/svg">
<path fill-rule="evenodd" clip-rule="evenodd" d="M8.42807 3.80912C8.5781 3.65909 8.78158 3.5748 8.99376 3.5748H19.0176C19.2298 3.5748 19.4333 3.65909 19.5833 3.80912L22.7746 7.00041H5.23678L8.42807 3.80912ZM1.16646 8.28043C1.13749 7.94016 1.2532 7.58988 1.51358 7.3295L6.73101 2.11206C7.33113 1.51195 8.14506 1.1748 8.99376 1.1748H19.0176C19.8663 1.1748 20.6802 1.51195 21.2803 2.11206L26.4352 7.26688C26.4889 7.32065 26.5365 7.37826 26.578 7.43882C26.7376 7.63842 26.8331 7.8916 26.8331 8.16708V11.6671C26.8331 12.5953 26.4644 13.4856 25.808 14.142C25.4354 14.5146 24.9873 14.7945 24.4998 14.9669V23.3337C24.4998 24.262 24.131 25.1522 23.4747 25.8086C22.8183 26.465 21.9281 26.8337 20.9998 26.8337H17.5065L17.4998 26.8337L17.4931 26.8337H10.5065L10.4998 26.8337L10.4931 26.8337H6.9998C6.07154 26.8337 5.1813 26.465 4.52492 25.8086C3.86855 25.1522 3.4998 24.262 3.4998 23.3337V14.9669C3.01224 14.7945 2.56423 14.5146 2.19159 14.142C1.53521 13.4856 1.16646 12.5953 1.16646 11.6671L1.16646 8.28043ZM3.49979 11.6671V9.33375H24.4998V11.6671C24.4998 11.9765 24.3769 12.2732 24.1581 12.492C23.9464 12.7037 23.6618 12.8256 23.3634 12.8334C22.9465 12.8033 22.5495 12.6422 22.2293 12.3727C22.2073 12.3543 22.1847 12.3366 22.1615 12.3198C21.8234 12.0755 21.4169 11.944 20.9998 11.944C20.5827 11.944 20.1762 12.0755 19.8381 12.3198C19.8149 12.3366 19.7923 12.3543 19.7703 12.3727C19.4578 12.6357 19.0722 12.7954 18.6665 12.8309C18.2607 12.7954 17.8751 12.6357 17.5626 12.3727C17.5407 12.3543 17.518 12.3366 17.4948 12.3198C17.1567 12.0755 16.7502 11.944 16.3331 11.944C15.916 11.944 15.5095 12.0755 15.1715 12.3198C15.1482 12.3366 15.1256 12.3543 15.1036 12.3727C14.7912 12.6357 14.4056 12.7954 13.9998 12.8309C13.594 12.7954 13.2084 12.6357 12.8959 12.3727C12.874 12.3543 12.8514 12.3366 12.8281 12.3198C12.4901 12.0755 12.0836 11.944 11.6665 11.944C11.2494 11.944 10.8429 12.0755 10.5048 12.3198C10.4815 12.3366 10.4589 12.3543 10.437 12.3727C10.1245 12.6357 9.73891 12.7954 9.33313 12.8309C8.92734 12.7954 8.54175 12.6357 8.22928 12.3727C8.20733 12.3543 8.18471 12.3366 8.16146 12.3198C7.82339 12.0755 7.4169 11.944 6.99979 11.944C6.58269 11.944 6.1762 12.0755 5.83813 12.3198C5.81488 12.3366 5.79226 12.3543 5.77031 12.3727C5.45008 12.6422 5.05306 12.8033 4.63622 12.8334C4.33776 12.8256 4.05316 12.7037 3.8415 12.492C3.62271 12.2732 3.49979 11.9765 3.49979 11.6671ZM5.83313 23.3337V14.9587C6.24825 14.8231 6.64186 14.6249 6.99979 14.3696C7.66362 14.8431 8.45019 15.1203 9.26901 15.1653C9.31172 15.1677 9.35453 15.1677 9.39724 15.1653C10.2161 15.1203 11.0026 14.8431 11.6665 14.3696C12.3303 14.8431 13.1169 15.1203 13.9357 15.1653C13.9784 15.1677 14.0212 15.1677 14.0639 15.1653C14.8827 15.1203 15.6693 14.8431 16.3331 14.3696C16.997 14.8431 17.7835 15.1203 18.6023 15.1653C18.6451 15.1677 18.6879 15.1677 18.7306 15.1653C19.5494 15.1203 20.336 14.8431 20.9998 14.3696C21.3577 14.6249 21.7513 14.8231 22.1665 14.9587V23.3337C22.1665 23.6431 22.0435 23.9399 21.8248 24.1587C21.606 24.3775 21.3092 24.5004 20.9998 24.5004H18.6665V21.0004C18.6665 20.0722 18.2977 19.1819 17.6413 18.5255C16.985 17.8692 16.0947 17.5004 15.1665 17.5004H12.8331C11.9049 17.5004 11.0146 17.8692 10.3583 18.5255C9.70188 19.1819 9.33313 20.0722 9.33313 21.0004V24.5004H6.9998C6.69038 24.5004 6.39363 24.3775 6.17484 24.1587C5.95605 23.9399 5.83313 23.6431 5.83313 23.3337ZM16.3331 24.5004H11.6665V21.0004C11.6665 20.691 11.7894 20.3943 12.0082 20.1755C12.227 19.9567 12.5237 19.8337 12.8331 19.8337H15.1665C15.4759 19.8337 15.7726 19.9567 15.9914 20.1755C16.2102 20.3943 16.3331 20.691 16.3331 21.0004V24.5004Z" fill="url(#paint0_linear_470_20654)"/>
<defs>
<linearGradient id="paint0_linear_470_20654" x1="26.833" y1="-1.5063" x2="1.20199" y2="26.2561" gradientUnits="userSpaceOnUse">
<stop stop-color="#5E2AF0"/>
<stop offset="1" stop-color="#9786DF"/>
</linearGradient>
</defs>
</svg>
