<svg width="28" height="28" viewBox="0 0 28 28" fill="none" xmlns="http://www.w3.org/2000/svg">
<path fill-rule="evenodd" clip-rule="evenodd" d="M14.4505 2.4229C14.5816 2.47763 14.7048 2.55735 14.8128 2.66206C14.8176 2.66675 14.8224 2.67149 14.8272 2.67626L20.6589 8.50805C21.1146 8.96366 21.1146 9.70235 20.6589 10.158C20.2033 10.6136 19.4646 10.6136 19.009 10.158L15.1673 6.31626V17.4997C15.1673 18.144 14.645 18.6663 14.0007 18.6663C13.3563 18.6663 12.834 18.144 12.834 17.4997V6.31626L8.99227 10.158C8.53666 10.6136 7.79797 10.6136 7.34236 10.158C6.88675 9.70235 6.88675 8.96366 7.34236 8.50805L13.1757 2.67472C13.4026 2.4478 13.6997 2.3339 13.9971 2.33301C13.9983 2.33301 13.9995 2.33301 14.0007 2.33301C14.0018 2.33301 14.003 2.33301 14.0041 2.33301C14.1623 2.33348 14.3131 2.36542 14.4505 2.4229ZM3.50065 16.333C4.14498 16.333 4.66732 16.8553 4.66732 17.4997V22.1663C4.66732 22.4758 4.79023 22.7725 5.00903 22.9913C5.22782 23.2101 5.52457 23.333 5.83398 23.333H22.1673C22.4767 23.333 22.7735 23.2101 22.9923 22.9913C23.2111 22.7725 23.334 22.4758 23.334 22.1663V17.4997C23.334 16.8553 23.8563 16.333 24.5007 16.333C25.145 16.333 25.6673 16.8553 25.6673 17.4997V22.1663C25.6673 23.0946 25.2986 23.9848 24.6422 24.6412C23.9858 25.2976 23.0956 25.6663 22.1673 25.6663H5.83398C4.90573 25.6663 4.01549 25.2976 3.35911 24.6412C2.70273 23.9848 2.33398 23.0946 2.33398 22.1663V17.4997C2.33398 16.8553 2.85632 16.333 3.50065 16.333Z" fill="url(#paint0_linear_470_20636)"/>
<defs>
<linearGradient id="paint0_linear_470_20636" x1="25.6672" y1="-0.105095" x2="2.3584" y2="25.1302" gradientUnits="userSpaceOnUse">
<stop stop-color="#5E2AF0"/>
<stop offset="1" stop-color="#9786DF"/>
</linearGradient>
</defs>
</svg>
