<svg xmlns="http://www.w3.org/2000/svg" width="420" height="420" fill="none" viewBox="0 0 420 420"><rect width="420" height="420" fill="#fff" fill-opacity=".1" rx="210"/><path fill="#fff" d="M221.248 257.544H185.664V252.168C185.664 243.805 187.029 236.808 189.76 231.176C192.661 225.373 196.245 220.339 200.512 216.072C204.949 211.805 209.301 207.965 213.568 204.552C217.152 201.651 220.395 198.835 223.296 196.104C226.368 193.373 228.757 190.387 230.464 187.144C232.341 183.731 233.28 179.976 233.28 175.88C233.28 170.931 232.341 166.749 230.464 163.336C228.757 159.923 226.197 157.363 222.784 155.656C219.541 153.779 215.445 152.84 210.496 152.84C205.376 152.84 200.853 154.035 196.928 156.424C193.173 158.813 190.272 162.227 188.224 166.664C186.176 170.931 185.152 176.051 185.152 182.024H143.936C143.936 168.883 146.752 157.363 152.384 147.464C158.187 137.565 166.123 129.885 176.192 124.424C186.432 118.792 198.208 115.976 211.52 115.976C225.003 115.976 236.523 118.28 246.08 122.888C255.637 127.325 262.976 133.811 268.096 142.344C273.216 150.877 275.776 161.117 275.776 173.064C275.776 182.28 274.069 190.131 270.656 196.616C267.243 202.931 262.976 208.221 257.856 212.488C252.907 216.755 247.957 220.595 243.008 224.008C237.205 227.933 232.085 232.029 227.648 236.296C223.381 240.563 221.248 245.853 221.248 252.168V257.544ZM204.608 312.328C198.123 312.328 192.576 310.109 187.968 305.672C183.36 301.064 181.056 295.603 181.056 289.288C181.056 282.803 183.36 277.341 187.968 272.904C192.576 268.296 198.123 265.992 204.608 265.992C211.093 265.992 216.64 268.296 221.248 272.904C225.856 277.512 228.16 282.973 228.16 289.288C228.16 295.432 225.856 300.808 221.248 305.416C216.64 310.024 211.093 312.328 204.608 312.328Z"/></svg>