<svg width="127" height="38" viewBox="0 0 127 38" fill="none" xmlns="http://www.w3.org/2000/svg">
<rect x="0.3" y="0.3" width="126.4" height="37.4" rx="6.7" fill="black" stroke="#DADCE0" stroke-width="0.6"/>
<path d="M44.5609 27.2222C43.5513 27.2222 42.7048 26.8805 42.024 26.1971C41.3405 25.5137 40.9988 24.662 40.9988 23.6395C40.9988 22.617 41.3405 21.7653 42.024 21.0819C42.7074 20.3985 43.5539 20.0568 44.5609 20.0568C45.5679 20.0568 46.4351 20.4295 47.0797 21.1777L46.4661 21.7705C46.0002 21.1906 45.366 20.8981 44.5609 20.8981C43.8127 20.8981 43.1837 21.1492 42.6685 21.654C42.1534 22.1588 41.8971 22.8189 41.8971 23.6369C41.8971 24.4549 42.1534 25.115 42.6685 25.6198C43.1811 26.1246 43.8127 26.3757 44.5609 26.3757C45.3841 26.3757 46.0882 26.0444 46.6681 25.3791L47.2816 25.9926C46.9683 26.3706 46.5749 26.6683 46.1037 26.8883C45.63 27.1083 45.1174 27.2196 44.5609 27.2196V27.2222Z" fill="#E5E5E5"/>
<path d="M48.9502 20.2123V22.3764L48.9114 23.0288H48.9502C49.0771 22.8061 49.279 22.6146 49.5534 22.4593C49.8278 22.3039 50.1203 22.2237 50.4335 22.2237C51.0134 22.2237 51.4587 22.4023 51.7641 22.7595C52.0696 23.1168 52.2249 23.5957 52.2249 24.1963V27.0697H51.3448V24.3309C51.3448 23.4637 50.959 23.0288 50.185 23.0288C49.82 23.0288 49.5249 23.1737 49.2945 23.4637C49.0641 23.7536 48.9502 24.0901 48.9502 24.4733V27.0697H48.0701V20.2123H48.9502Z" fill="#E5E5E5"/>
<path d="M54.1397 27.0698H53.2596V22.3765H54.1035V23.1427H54.1423C54.2329 22.8864 54.4141 22.6768 54.6937 22.5111C54.9707 22.3454 55.2399 22.2626 55.504 22.2626C55.768 22.2626 55.9855 22.3014 56.1641 22.3765L55.8276 23.1997C55.7137 23.1557 55.5557 23.1324 55.359 23.1324C55.0406 23.1324 54.7558 23.2592 54.5125 23.5103C54.2666 23.7614 54.1449 24.0928 54.1449 24.5018V27.0698H54.1397Z" fill="#E5E5E5"/>
<path d="M56.86 22.9357C57.313 22.4594 57.8903 22.2212 58.5944 22.2212C59.2986 22.2212 59.8758 22.4594 60.3289 22.9357C60.7819 23.412 61.0097 24.0074 61.0097 24.7219C61.0097 25.4363 60.7819 26.0317 60.3289 26.5081C59.8758 26.9844 59.2986 27.2225 58.5944 27.2225C57.8903 27.2225 57.313 26.9844 56.86 26.5081C56.407 26.0317 56.1792 25.4363 56.1792 24.7219C56.1792 24.0074 56.407 23.412 56.86 22.9357ZM57.515 25.9541C57.8178 26.2647 58.1777 26.4174 58.5919 26.4174C59.006 26.4174 59.3659 26.2621 59.6687 25.9541C59.9716 25.6434 60.1244 25.2344 60.1244 24.7244C60.1244 24.2145 59.9716 23.8029 59.6687 23.4948C59.3659 23.1842 59.006 23.0315 58.5919 23.0315C58.1777 23.0315 57.8178 23.1868 57.515 23.4948C57.2121 23.8029 57.0594 24.2145 57.0594 24.7244C57.0594 25.2344 57.2121 25.646 57.515 25.9541Z" fill="#E5E5E5"/>
<path d="M61.714 27.0698V22.3765H62.5579V23.0288H62.5967C62.7313 22.8062 62.9358 22.6146 63.2154 22.4593C63.4924 22.304 63.7694 22.2238 64.0438 22.2238C64.7712 22.2238 65.2657 22.524 65.5271 23.1246C65.9102 22.524 66.4565 22.2238 67.1658 22.2238C67.7223 22.2238 68.1391 22.3998 68.4213 22.7544C68.7034 23.1091 68.8432 23.5906 68.8432 24.1963V27.0698H67.9631V24.3309C67.9631 23.8572 67.8776 23.5233 67.7042 23.3265C67.5308 23.1298 67.2693 23.0288 66.9198 23.0288C66.5704 23.0288 66.2882 23.1764 66.063 23.4689C65.8352 23.7614 65.7239 24.098 65.7239 24.4733V27.0698H64.8437V24.3309C64.8437 23.8572 64.7583 23.5233 64.5848 23.3265C64.4114 23.1298 64.1499 23.0288 63.8005 23.0288C63.451 23.0288 63.1688 23.1764 62.9436 23.4689C62.7158 23.7614 62.6045 24.098 62.6045 24.4733V27.0698H61.7243H61.714Z" fill="#E5E5E5"/>
<path d="M72.0011 27.2225C71.2918 27.2225 70.7171 26.987 70.2718 26.5132C69.8292 26.0421 69.6065 25.4441 69.6065 24.7219C69.6065 24.0384 69.8214 23.4508 70.2537 22.959C70.686 22.4671 71.2348 22.2212 71.9053 22.2212C72.5757 22.2212 73.1582 22.449 73.5776 22.902C73.9969 23.355 74.204 23.9608 74.204 24.7219L74.1937 24.8849H70.4867C70.5126 25.3587 70.6705 25.7314 70.9604 26.0058C71.2503 26.2802 71.5921 26.4174 71.9804 26.4174C72.612 26.4174 73.0391 26.1482 73.2643 25.6124L74.0487 25.9385C73.896 26.3035 73.6423 26.6064 73.2928 26.8523C72.9408 27.0983 72.511 27.2199 71.9985 27.2199L72.0011 27.2225ZM73.2643 24.1575C73.2462 23.8883 73.122 23.6346 72.8968 23.3913C72.6689 23.1479 72.3324 23.0263 71.8872 23.0263C71.561 23.0263 71.2788 23.1298 71.0407 23.3317C70.8025 23.5337 70.6368 23.8106 70.5462 24.1549H73.2669L73.2643 24.1575Z" fill="#E5E5E5"/>
<path d="M84.8739 20.2123L83.0437 27.0697H82.1428L80.6673 22.5499H80.6285L79.1529 27.0697H78.252L76.3468 20.2123H77.2658L78.7128 25.6045H78.7517L80.2376 21.1313H81.0608L82.5467 25.6045H82.5855L83.9549 20.2123H84.8739Z" fill="#E5E5E5"/>
<path d="M87.1651 27.2225C86.4558 27.2225 85.8811 26.987 85.4358 26.5132C84.9932 26.0421 84.7705 25.4441 84.7705 24.7219C84.7705 24.0384 84.9854 23.4508 85.4177 22.959C85.85 22.4671 86.3988 22.2212 87.0693 22.2212C87.7398 22.2212 88.3222 22.449 88.7416 22.902C89.1609 23.355 89.368 23.9608 89.368 24.7219L89.3577 24.8849H85.6507C85.6766 25.3587 85.8345 25.7314 86.1244 26.0058C86.4144 26.2802 86.7561 26.4174 87.1444 26.4174C87.776 26.4174 88.2031 26.1482 88.4283 25.6124L89.2127 25.9385C89.06 26.3035 88.8063 26.6064 88.4568 26.8523C88.1048 27.0983 87.675 27.2199 87.1625 27.2199L87.1651 27.2225ZM88.4283 24.1575C88.4102 23.8883 88.286 23.6346 88.0608 23.3913C87.833 23.1479 87.4964 23.0263 87.0512 23.0263C86.725 23.0263 86.4428 23.1298 86.2047 23.3317C85.9665 23.5337 85.8008 23.8106 85.7102 24.1549H88.4309L88.4283 24.1575Z" fill="#E5E5E5"/>
<path d="M92.653 27.2224C92.2958 27.2224 91.9748 27.1448 91.6901 26.992C91.4053 26.8393 91.193 26.6477 91.0532 26.4174H91.0144V27.0697H90.1705V20.2123H91.0507V22.3764L91.0118 23.0288H91.0507C91.1904 22.7984 91.4027 22.6068 91.6875 22.4541C91.9722 22.3013 92.2932 22.2237 92.6505 22.2237C93.2562 22.2237 93.7817 22.4618 94.2218 22.9408C94.6619 23.4197 94.8819 24.0125 94.8819 24.7218C94.8819 25.4311 94.6619 26.0239 94.2218 26.5028C93.7817 26.9817 93.2588 27.2198 92.6505 27.2198L92.653 27.2224ZM92.5081 26.4174C92.9171 26.4174 93.2692 26.262 93.5617 25.954C93.8542 25.6459 94.0017 25.2343 94.0017 24.7244C94.0017 24.2144 93.8542 23.8028 93.5617 23.4947C93.2692 23.1867 92.9171 23.0314 92.5081 23.0314C92.0991 23.0314 91.7392 23.1841 91.4493 23.4921C91.1594 23.7976 91.0144 24.2092 91.0144 24.7269C91.0144 25.2447 91.1594 25.6563 91.4493 25.9617C91.7392 26.2672 92.0913 26.4225 92.5081 26.4225V26.4174Z" fill="#E5E5E5"/>
<path d="M99.5954 27.2225C99.0984 27.2225 98.6117 27.0594 98.1354 26.7332C97.6591 26.4071 97.3484 25.9515 97.2009 25.3638L98.0059 25.0377C98.1017 25.4156 98.2985 25.7314 98.5962 25.9903C98.8939 26.2492 99.2278 26.3786 99.598 26.3786C99.9682 26.3786 100.307 26.2776 100.579 26.0757C100.851 25.8738 100.986 25.602 100.986 25.2577C100.986 24.8746 100.851 24.5795 100.579 24.3724C100.307 24.1653 99.8776 23.9711 99.2899 23.7925C98.6842 23.6009 98.2234 23.3524 97.9102 23.0495C97.5969 22.7467 97.4416 22.3584 97.4416 21.8846C97.4416 21.4109 97.6358 20.9657 98.0267 20.6007C98.415 20.2357 98.9223 20.0544 99.5488 20.0544C100.129 20.0544 100.602 20.1994 100.967 20.4893C101.332 20.7793 101.568 21.0977 101.677 21.442L100.872 21.7759C100.815 21.5585 100.672 21.3566 100.444 21.1728C100.217 20.989 99.9267 20.8958 99.5695 20.8958C99.2304 20.8958 98.943 20.989 98.7023 21.1779C98.4616 21.3669 98.3425 21.5999 98.3425 21.8821C98.3425 22.1383 98.4538 22.3532 98.6738 22.5292C98.8939 22.7053 99.2174 22.8632 99.6472 23.003C99.9863 23.1117 100.268 23.2178 100.494 23.3188C100.721 23.4197 100.949 23.5569 101.182 23.7252C101.415 23.8935 101.591 24.1057 101.71 24.3568C101.829 24.6079 101.886 24.9005 101.886 25.2318C101.886 25.5632 101.816 25.8609 101.679 26.1223C101.542 26.3838 101.361 26.5909 101.133 26.7462C100.905 26.8989 100.662 27.0154 100.4 27.0957C100.139 27.1759 99.8698 27.2147 99.5954 27.2147V27.2225Z" fill="#E5E5E5"/>
<path d="M104.595 27.1448C104.103 27.1448 103.728 27.0154 103.469 26.7513C103.21 26.4873 103.081 26.1197 103.081 25.6408V23.1789H102.258V22.3739H103.081V20.9371H103.961V22.3739H105.11V23.1789H103.961V25.5735C103.961 26.0834 104.171 26.3397 104.593 26.3397C104.753 26.3397 104.885 26.3138 104.994 26.2621L105.299 27.018C105.108 27.1008 104.872 27.1422 104.59 27.1422L104.595 27.1448Z" fill="#E5E5E5"/>
<path d="M106.32 22.9357C106.773 22.4594 107.35 22.2212 108.054 22.2212C108.758 22.2212 109.336 22.4594 109.789 22.9357C110.242 23.412 110.469 24.0074 110.469 24.7219C110.469 25.4363 110.242 26.0317 109.789 26.5081C109.336 26.9844 108.758 27.2225 108.054 27.2225C107.35 27.2225 106.773 26.9844 106.32 26.5081C105.867 26.0317 105.639 25.4363 105.639 24.7219C105.639 24.0074 105.867 23.412 106.32 22.9357ZM106.975 25.9541C107.278 26.2647 107.637 26.4174 108.052 26.4174C108.466 26.4174 108.826 26.2621 109.128 25.9541C109.431 25.6434 109.584 25.2344 109.584 24.7244C109.584 24.2145 109.431 23.8029 109.128 23.4948C108.826 23.1842 108.466 23.0315 108.052 23.0315C107.637 23.0315 107.278 23.1868 106.975 23.4948C106.672 23.8029 106.519 24.2145 106.519 24.7244C106.519 25.2344 106.669 25.646 106.975 25.9541Z" fill="#E5E5E5"/>
<path d="M112.056 27.0698H111.176V22.3765H112.02V23.1427H112.059C112.149 22.8864 112.33 22.6768 112.61 22.5111C112.887 22.3454 113.159 22.2626 113.42 22.2626C113.682 22.2626 113.902 22.3014 114.08 22.3765L113.746 23.1997C113.632 23.1557 113.475 23.1324 113.278 23.1324C112.959 23.1324 112.675 23.2592 112.431 23.5103C112.185 23.7614 112.064 24.0928 112.064 24.5018V27.0698H112.056Z" fill="#E5E5E5"/>
<path d="M116.492 27.2225C115.783 27.2225 115.208 26.987 114.763 26.5132C114.32 26.0421 114.097 25.4441 114.097 24.7219C114.097 24.0384 114.312 23.4508 114.745 22.959C115.177 22.4671 115.726 22.2212 116.396 22.2212C117.067 22.2212 117.649 22.449 118.068 22.902C118.488 23.355 118.695 23.9608 118.695 24.7219L118.685 24.8849H114.978C115.003 25.3587 115.161 25.7314 115.451 26.0058C115.741 26.2802 116.083 26.4174 116.471 26.4174C117.103 26.4174 117.53 26.1482 117.755 25.6124L118.54 25.9385C118.387 26.3035 118.133 26.6064 117.784 26.8523C117.432 27.0983 117.002 27.2199 116.489 27.2199L116.492 27.2225ZM117.755 24.1575C117.737 23.8883 117.613 23.6346 117.388 23.3913C117.16 23.1479 116.823 23.0263 116.378 23.0263C116.052 23.0263 115.77 23.1298 115.532 23.3317C115.293 23.5337 115.128 23.8106 115.037 24.1549H117.758L117.755 24.1575Z" fill="#E5E5E5"/>
<path d="M41.507 16.4225L43.464 11.2322H44.2173L46.1744 16.4225H45.434L44.9344 15.0168H42.7521L42.2448 16.4225H41.5044H41.507ZM42.9774 14.393H44.7014L43.8523 12.0528H43.8239L42.9748 14.393H42.9774Z" fill="#E5E5E5"/>
<path d="M47.3599 16.4226L45.9257 12.871H46.6506L47.6938 15.6253H47.7093L48.7681 12.871H49.4774L48.0277 16.4226H47.3599Z" fill="#E5E5E5"/>
<path d="M50.9675 16.539C50.5896 16.539 50.2763 16.4303 50.0227 16.2128C49.769 15.9954 49.6421 15.708 49.6421 15.3508C49.6421 14.9651 49.7923 14.6596 50.0926 14.4422C50.3928 14.2221 50.7604 14.1134 51.2005 14.1134C51.5914 14.1134 51.9124 14.1859 52.1635 14.3309V14.2299C52.1635 13.9684 52.0729 13.7613 51.8943 13.6034C51.7157 13.4455 51.4956 13.3679 51.2342 13.3679C51.04 13.3679 50.8666 13.4145 50.7087 13.5051C50.5508 13.5983 50.4446 13.7225 50.3851 13.883L49.7767 13.6216C49.8596 13.4093 50.0201 13.2125 50.2634 13.0313C50.5042 12.8501 50.8251 12.7595 51.2212 12.7595C51.6742 12.7595 52.0522 12.8915 52.3525 13.1582C52.6528 13.4248 52.8029 13.7976 52.8029 14.2817V16.4277H52.1661V15.9358H52.1376C51.871 16.3423 51.4827 16.5442 50.9701 16.5442L50.9675 16.539ZM51.0763 15.9307C51.3507 15.9307 51.6018 15.8271 51.827 15.6226C52.0522 15.4181 52.1635 15.1748 52.1635 14.8952C51.9745 14.7399 51.6924 14.6622 51.3144 14.6622C50.9908 14.6622 50.7475 14.7321 50.5818 14.8719C50.4187 15.0117 50.3359 15.1773 50.3359 15.3637C50.3359 15.5372 50.411 15.6744 50.5611 15.7779C50.7112 15.8789 50.8821 15.9307 51.0763 15.9307Z" fill="#E5E5E5"/>
<path d="M54.278 11.9778C54.1874 12.0684 54.0761 12.115 53.9441 12.115C53.8121 12.115 53.7034 12.0684 53.6102 11.9778C53.5196 11.8872 53.473 11.7759 53.473 11.6439C53.473 11.5118 53.5196 11.4031 53.6102 11.3099C53.7008 11.2193 53.8121 11.1727 53.9441 11.1727C54.0761 11.1727 54.1848 11.2193 54.278 11.3099C54.3686 11.4031 54.4152 11.5118 54.4152 11.6439C54.4152 11.7759 54.3686 11.8846 54.278 11.9778ZM54.278 16.42H53.6102V12.8683H54.278V16.42Z" fill="#E5E5E5"/>
<path d="M55.8121 16.4225H55.1443V11.2322H55.8121V16.4225Z" fill="#E5E5E5"/>
<path d="M57.7118 16.539C57.3339 16.539 57.0207 16.4303 56.767 16.2128C56.5133 15.9954 56.3864 15.708 56.3864 15.3508C56.3864 14.9651 56.5366 14.6596 56.8369 14.4422C57.1372 14.2221 57.5048 14.1134 57.9448 14.1134C58.3357 14.1134 58.6567 14.1859 58.9078 14.3309V14.2299C58.9078 13.9684 58.8172 13.7613 58.6386 13.6034C58.46 13.4455 58.2399 13.3679 57.9785 13.3679C57.7843 13.3679 57.6109 13.4145 57.453 13.5051C57.2951 13.5983 57.1889 13.7225 57.1294 13.883L56.5211 13.6216C56.6039 13.4093 56.7644 13.2125 57.0077 13.0313C57.2485 12.8501 57.5695 12.7595 57.9655 12.7595C58.4186 12.7595 58.7965 12.8915 59.0968 13.1582C59.3971 13.4248 59.5472 13.7976 59.5472 14.2817V16.4277H58.9104V15.9358H58.8819C58.6153 16.3423 58.227 16.5442 57.7144 16.5442L57.7118 16.539ZM57.8206 15.9307C58.095 15.9307 58.3461 15.8271 58.5713 15.6226C58.7965 15.4181 58.9078 15.1748 58.9078 14.8952C58.7188 14.7399 58.4367 14.6622 58.0587 14.6622C57.7351 14.6622 57.4918 14.7321 57.3261 14.8719C57.163 15.0117 57.0802 15.1773 57.0802 15.3637C57.0802 15.5372 57.1553 15.6744 57.3054 15.7779C57.4556 15.8789 57.6264 15.9307 57.8206 15.9307Z" fill="#E5E5E5"/>
<path d="M62.1773 16.539C61.9055 16.539 61.6647 16.482 61.4499 16.3655C61.235 16.249 61.0745 16.1041 60.9684 15.9306H60.9399V16.4225H60.3031V11.2322H60.971V12.8708L60.9425 13.3627H60.971C61.0771 13.1892 61.2376 13.0443 61.4525 12.9278C61.6673 12.8113 61.9107 12.7543 62.1799 12.7543C62.6381 12.7543 63.0342 12.9355 63.3681 13.2979C63.702 13.6604 63.8677 14.1108 63.8677 14.6467C63.8677 15.1825 63.702 15.6329 63.3681 15.9954C63.0342 16.3578 62.6381 16.539 62.1799 16.539H62.1773ZM62.0686 15.9306C62.3766 15.9306 62.6433 15.8141 62.8659 15.5786C63.0885 15.343 63.1998 15.035 63.1998 14.6467C63.1998 14.2583 63.0885 13.9503 62.8659 13.7147C62.6433 13.4792 62.3766 13.3627 62.0686 13.3627C61.7605 13.3627 61.4887 13.4792 61.2687 13.7095C61.0486 13.9425 60.9399 14.2532 60.9399 14.6441C60.9399 15.035 61.0486 15.3482 61.2687 15.5786C61.4887 15.8116 61.7554 15.9255 62.0686 15.9255V15.9306Z" fill="#E5E5E5"/>
<path d="M65.1063 16.4225H64.4384V11.2322H65.1063V16.4225Z" fill="#E5E5E5"/>
<path d="M67.4906 16.539C66.9548 16.539 66.5173 16.3604 66.1834 16.0032C65.8468 15.646 65.6786 15.1929 65.6786 14.6467C65.6786 14.129 65.8416 13.6863 66.1678 13.3135C66.494 12.9408 66.9108 12.7544 67.4182 12.7544C67.9255 12.7544 68.3656 12.9252 68.684 13.2695C69.0024 13.6138 69.1577 14.072 69.1577 14.6467L69.15 14.771H66.3439C66.362 15.1282 66.4836 15.4104 66.7037 15.6201C66.9237 15.8272 67.18 15.9307 67.4751 15.9307C67.954 15.9307 68.2776 15.7288 68.4459 15.3224L69.0413 15.5683C68.9248 15.8427 68.7332 16.0757 68.4692 16.2595C68.2025 16.4459 67.8764 16.539 67.4906 16.539ZM68.4485 14.2196C68.4329 14.0177 68.3397 13.8235 68.1689 13.6397C67.998 13.4559 67.7417 13.3653 67.4052 13.3653C67.1593 13.3653 66.9444 13.443 66.7632 13.5983C66.582 13.7536 66.4578 13.9607 66.3904 14.2222H68.4485V14.2196Z" fill="#E5E5E5"/>
<path d="M72.0858 11.9778C71.9952 12.0684 71.8839 12.115 71.7519 12.115C71.6199 12.115 71.5112 12.0684 71.418 11.9778C71.3248 11.8872 71.2808 11.7759 71.2808 11.6439C71.2808 11.5118 71.3274 11.4031 71.418 11.3099C71.5086 11.2193 71.6199 11.1727 71.7519 11.1727C71.8839 11.1727 71.9927 11.2193 72.0858 11.3099C72.1764 11.4031 72.223 11.5118 72.223 11.6439C72.223 11.7759 72.1764 11.8846 72.0858 11.9778ZM72.0858 16.42H71.418V12.8683H72.0858V16.42Z" fill="#E5E5E5"/>
<path d="M73.594 12.8709V13.3628H73.6225C73.7183 13.1945 73.871 13.0495 74.0781 12.9305C74.2852 12.8114 74.5078 12.7518 74.746 12.7518C75.1861 12.7518 75.5226 12.8864 75.753 13.1583C75.986 13.4275 76.0999 13.7925 76.0999 14.2455V16.42H75.432V14.3465C75.432 13.6889 75.1395 13.3602 74.5544 13.3602C74.28 13.3602 74.0548 13.4689 73.8814 13.6889C73.7079 13.909 73.6199 14.1627 73.6199 14.4526V16.4174H72.952V12.8657H73.5888L73.594 12.8709Z" fill="#E5E5E5"/>
<path d="M80.0159 16.4795C79.6431 16.4795 79.3609 16.3811 79.1642 16.1818C78.9675 15.9824 78.8717 15.7029 78.8717 15.3404V13.4766H78.2478V12.8683H78.8717V11.781H79.5396V12.8683H80.4094V13.4766H79.5396V15.2887C79.5396 15.6744 79.7001 15.8685 80.0185 15.8685C80.1401 15.8685 80.2411 15.8504 80.3239 15.8116L80.5569 16.3837C80.4119 16.4458 80.2333 16.4769 80.0211 16.4769L80.0159 16.4795Z" fill="#E5E5E5"/>
<path d="M81.748 11.2322V12.8709L81.7195 13.3627H81.748C81.8438 13.1944 81.9965 13.0495 82.2036 12.9304C82.4107 12.8113 82.6333 12.7518 82.8715 12.7518C83.3115 12.7518 83.6481 12.8864 83.8785 13.1582C84.1114 13.4274 84.2253 13.7924 84.2253 14.2455V16.4199H83.5575V14.3464C83.5575 13.6889 83.265 13.3601 82.6799 13.3601C82.4055 13.3601 82.1803 13.4689 82.0069 13.6889C81.8334 13.9089 81.7454 14.1626 81.7454 14.4525V16.4174H81.0775V11.2271H81.7454L81.748 11.2322Z" fill="#E5E5E5"/>
<path d="M86.6162 16.539C86.0804 16.539 85.6429 16.3604 85.3089 16.0032C84.9724 15.646 84.8041 15.1929 84.8041 14.6467C84.8041 14.129 84.9672 13.6863 85.2934 13.3135C85.6196 12.9408 86.0364 12.7544 86.5437 12.7544C87.0511 12.7544 87.4912 12.9252 87.8096 13.2695C88.128 13.6138 88.2833 14.072 88.2833 14.6467L88.2756 14.771H85.4694C85.4876 15.1282 85.6092 15.4104 85.8293 15.6201C86.0493 15.8272 86.3056 15.9307 86.6007 15.9307C87.0796 15.9307 87.4032 15.7288 87.5714 15.3224L88.1668 15.5683C88.0503 15.8427 87.8588 16.0757 87.5947 16.2595C87.3281 16.4459 87.0019 16.539 86.6162 16.539ZM87.574 14.2196C87.5585 14.0177 87.4653 13.8235 87.2944 13.6397C87.1236 13.4559 86.8673 13.3653 86.5308 13.3653C86.2849 13.3653 86.07 13.443 85.8888 13.5983C85.7076 13.7536 85.5833 13.9607 85.516 14.2222H87.574V14.2196Z" fill="#E5E5E5"/>
<mask id="mask0_6_114" style="mask-type:luminance" maskUnits="userSpaceOnUse" x="5" y="6" width="30" height="26">
<path d="M5.92578 6.87805V29.573C5.92578 30.6422 6.80076 31.5171 7.86988 31.5171H32.509C33.5781 31.5171 34.4531 30.6422 34.4531 29.573V6.87805H5.92578ZM23.433 12.0658H16.9484C16.2313 12.0658 15.6515 11.4859 15.6515 10.7688C15.6515 10.0518 16.2313 9.47191 16.9484 9.47191H23.433C24.1501 9.47191 24.73 10.0518 24.73 10.7688C24.73 11.4859 24.1501 12.0658 23.433 12.0658Z" fill="white"/>
</mask>
<g mask="url(#mask0_6_114)">
<path d="M5.92578 6.87805H34.4556V31.5171H5.92578V6.87805Z" fill="#EEEEEE"/>
</g>
<mask id="mask1_6_114" style="mask-type:luminance" maskUnits="userSpaceOnUse" x="5" y="6" width="30" height="26">
<path d="M5.92578 6.87805V29.573C5.92578 30.6422 6.80076 31.5171 7.86988 31.5171H32.509C33.5781 31.5171 34.4531 30.6422 34.4531 29.573V6.87805H5.92578ZM23.433 12.0658H16.9484C16.2313 12.0658 15.6515 11.4859 15.6515 10.7688C15.6515 10.0518 16.2313 9.47191 16.9484 9.47191H23.433C24.1501 9.47191 24.73 10.0518 24.73 10.7688C24.73 11.4859 24.1501 12.0658 23.433 12.0658Z" fill="white"/>
</mask>
<g mask="url(#mask1_6_114)">
<path d="M23.4313 9.47205H16.9466C16.2296 9.47205 15.6497 10.0519 15.6497 10.769C15.6497 11.486 16.2296 12.0659 16.9466 12.0659H23.4313C24.1483 12.0659 24.7282 11.486 24.7282 10.769C24.7282 10.0519 24.1483 9.47205 23.4313 9.47205Z" fill="white"/>
</g>
<mask id="mask2_6_114" style="mask-type:luminance" maskUnits="userSpaceOnUse" x="5" y="6" width="30" height="26">
<path d="M5.92578 6.87805V29.573C5.92578 30.6422 6.80076 31.5171 7.86988 31.5171H32.509C33.5781 31.5171 34.4531 30.6422 34.4531 29.573V6.87805H5.92578ZM23.433 12.0658H16.9484C16.2313 12.0658 15.6515 11.4859 15.6515 10.7688C15.6515 10.0518 16.2313 9.47191 16.9484 9.47191H23.433C24.1501 9.47191 24.73 10.0518 24.73 10.7688C24.73 11.4859 24.1501 12.0658 23.433 12.0658Z" fill="white"/>
</mask>
<g mask="url(#mask2_6_114)">
<mask id="mask3_6_114" style="mask-type:luminance" maskUnits="userSpaceOnUse" x="7" y="17" width="26" height="25">
<mask id="mask4_6_114" style="mask-type:luminance" maskUnits="userSpaceOnUse" x="7" y="17" width="26" height="25">
<mask id="mask5_6_114" style="mask-type:luminance" maskUnits="userSpaceOnUse" x="7" y="17" width="26" height="25">
<mask id="mask6_6_114" style="mask-type:luminance" maskUnits="userSpaceOnUse" x="7" y="17" width="26" height="25">
<path d="M20.215 41.8927C27.0189 41.8927 32.5346 36.3771 32.5346 29.5732C32.5346 22.7693 27.0189 17.2537 20.215 17.2537C13.4111 17.2537 7.89548 22.7693 7.89548 29.5732C7.89548 36.3771 13.4111 41.8927 20.215 41.8927Z" fill="white"/>
</mask>
<g mask="url(#mask6_6_114)">
<path d="M20.2148 41.8927C27.0187 41.8927 32.5344 36.3771 32.5344 29.5732C32.5344 22.7693 27.0187 17.2537 20.2148 17.2537C13.4109 17.2537 7.89529 22.7693 7.89529 29.5732C7.89529 36.3771 13.4109 41.8927 20.2148 41.8927Z" fill="white"/>
</g>
</mask>
<g mask="url(#mask5_6_114)">
<path d="M20.2067 41.8927C27.0106 41.8927 32.5262 36.3771 32.5262 29.5732C32.5262 22.7693 27.0106 17.2537 20.2067 17.2537C13.4028 17.2537 7.88715 22.7693 7.88715 29.5732C7.88715 36.3771 13.4028 41.8927 20.2067 41.8927Z" fill="white"/>
</g>
</mask>
<g mask="url(#mask4_6_114)">
<path d="M20.1985 41.8926C27.0024 41.8926 32.518 36.377 32.518 29.5731C32.518 22.7692 27.0024 17.2535 20.1985 17.2535C13.3946 17.2535 7.87897 22.7692 7.87897 29.5731C7.87897 36.377 13.3946 41.8926 20.1985 41.8926Z" fill="white"/>
</g>
</mask>
<g mask="url(#mask3_6_114)">
<path d="M9.83093 17.2535V32.374H15.3448L20.196 23.9738H32.5156V17.2535H9.83093ZM9.83093 17.2535V32.374H15.3448L20.196 23.9738H32.5156V17.2535H9.83093Z" fill="#DB4437"/>
<path d="M7.87363 41.8927H19.6004L25.0444 36.4487V32.3741H15.3446L7.87363 19.5627V41.8927ZM7.87363 41.8927H19.6004L25.0444 36.4487V32.3741H15.3446L7.87363 19.5627V41.8927Z" fill="#0F9D58"/>
<path d="M20.1934 23.9712L25.0446 32.3715L19.6031 41.8926H32.5155V23.9712H20.196H20.1934ZM20.1934 23.9712L25.0446 32.3715L19.6031 41.8926H32.5155V23.9712H20.196H20.1934Z" fill="#FFCD40"/>
<path d="M20.1933 35.175C23.2872 35.175 25.7952 32.6669 25.7952 29.5731C25.7952 26.4793 23.2872 23.9712 20.1933 23.9712C17.0995 23.9712 14.5914 26.4793 14.5914 29.5731C14.5914 32.6669 17.0995 35.175 20.1933 35.175Z" fill="#F1F1F1"/>
<path d="M20.1898 34.0541C22.6646 34.0541 24.6708 32.0478 24.6708 29.573C24.6708 27.0983 22.6646 25.092 20.1898 25.092C17.715 25.092 15.7088 27.0983 15.7088 29.573C15.7088 32.0478 17.715 34.0541 20.1898 34.0541Z" fill="#4285F4"/>
</g>
<mask id="mask7_6_114" style="mask-type:luminance" maskUnits="userSpaceOnUse" x="5" y="6" width="30" height="26">
<path d="M5.92563 6.87805V29.573C5.92563 30.6422 6.8006 31.5171 7.86973 31.5171H32.5088C33.5779 31.5171 34.4529 30.6422 34.4529 29.573V6.87805H5.92563ZM23.4329 12.0658H16.9482C16.2312 12.0658 15.6513 11.4859 15.6513 10.7688C15.6513 10.0518 16.2312 9.47191 16.9482 9.47191H23.4329C24.15 9.47191 24.7298 10.0518 24.7298 10.7688C24.7298 11.4859 24.15 12.0658 23.4329 12.0658Z" fill="white"/>
</mask>
<g mask="url(#mask7_6_114)">
<path d="M5.92563 6.87805H34.4555V19.1976H5.92563V6.87805Z" fill="#747474" fill-opacity="0.13"/>
</g>
<path d="M16.9526 9.4719H23.4373C24.1258 9.4719 24.6876 10.0103 24.729 10.6886C24.729 10.6601 24.7342 10.6342 24.7342 10.6083C24.7342 9.89127 24.1543 9.3114 23.4373 9.3114H16.9526C16.2355 9.3114 15.6557 9.89127 15.6557 10.6083C15.6557 10.6368 15.6557 10.6627 15.6609 10.6886C15.7023 10.0103 16.264 9.4719 16.9526 9.4719ZM32.5132 31.3566H7.87409C6.80497 31.3566 5.92999 30.4816 5.92999 29.4125V29.5756C5.92999 30.6447 6.80497 31.5197 7.87409 31.5197H32.5132C33.5823 31.5197 34.4573 30.6447 34.4573 29.5756V29.4125C34.4573 30.4816 33.5823 31.3566 32.5132 31.3566Z" fill="black"/>
<path d="M5.92593 6.87817V29.5731C5.92593 30.6423 6.80091 31.5173 7.87003 31.5173H32.5091C33.5782 31.5173 34.4532 30.6423 34.4532 29.5731V6.87817H5.92593ZM23.4332 12.0659H16.9485C16.2315 12.0659 15.6516 11.486 15.6516 10.769C15.6516 10.0519 16.2315 9.47203 16.9485 9.47203H23.4332C24.1503 9.47203 24.7301 10.0519 24.7301 10.769C24.7301 11.486 24.1503 12.0659 23.4332 12.0659Z" fill="url(#paint0_radial_6_114)"/>
</g>
<defs>
<radialGradient id="paint0_radial_6_114" cx="0" cy="0" r="1" gradientUnits="userSpaceOnUse" gradientTransform="translate(5.84633 6.77269) scale(36.8939)">
<stop stop-color="white" stop-opacity="0.1"/>
<stop offset="1" stop-color="white" stop-opacity="0"/>
</radialGradient>
</defs>
</svg>
