<svg width="130" height="40" viewBox="0 0 130 40" fill="none" xmlns="http://www.w3.org/2000/svg">
<path d="M121.66 1.25305H8.31563C4.1297 1.25305 0.736328 4.64642 0.736328 8.83235V31.1678C0.736328 35.3537 4.1297 38.7471 8.31563 38.7471H121.66C125.846 38.7471 129.239 35.3537 129.239 31.1678V8.83235C129.239 4.64642 125.846 1.25305 121.66 1.25305Z" fill="black"/>
<path d="M45.752 10.6145C45.752 11.4194 45.5124 12.0614 45.0333 12.5309C44.4967 13.0962 43.7972 13.3837 42.9253 13.3837C42.0533 13.3837 41.3826 13.0962 40.8077 12.5213C40.2328 11.9464 39.9453 11.2277 39.9453 10.3845C39.9453 9.54131 40.2328 8.82266 40.8077 8.24775C41.3826 7.67283 42.0917 7.37579 42.9253 7.37579C43.3469 7.37579 43.7493 7.45245 44.123 7.59618C44.4967 7.74949 44.8033 7.96029 45.0429 8.22858L44.5159 8.75559C44.3434 8.54479 44.1134 8.37231 43.826 8.25733C43.5481 8.13277 43.2415 8.07527 42.9253 8.07527C42.3025 8.07527 41.7659 8.29566 41.3347 8.72684C40.9035 9.16761 40.6927 9.71378 40.6927 10.3749C40.6927 11.0361 40.9035 11.5823 41.3347 12.023C41.7659 12.4542 42.2929 12.6746 42.9253 12.6746C43.5002 12.6746 43.9697 12.5117 44.353 12.1955C44.7363 11.8793 44.9567 11.4289 45.0141 10.8732H42.9253V10.1833H45.7136C45.7424 10.3366 45.752 10.4803 45.752 10.6145Z" fill="white" stroke="white" stroke-width="0.191638" stroke-miterlimit="10"/>
<path d="M50.1662 7.51001V8.21907H47.5503V10.0396H49.9075V10.7295H47.5503V12.5501H50.1662V13.2592H46.8125V7.51001H50.1662Z" fill="white" stroke="white" stroke-width="0.191638" stroke-miterlimit="10"/>
<path d="M53.2831 8.21907V13.2592H52.5453V8.21907H50.9355V7.51001H54.8833V8.21907H53.2735H53.2831Z" fill="white" stroke="white" stroke-width="0.191638" stroke-miterlimit="10"/>
<path d="M58.4859 13.2592H57.748V7.51001H58.4859V13.2592Z" fill="white" stroke="white" stroke-width="0.191638" stroke-miterlimit="10"/>
<path d="M61.7636 8.21907V13.2592H61.0258V8.21907H59.416V7.51001H63.3638V8.21907H61.754H61.7636Z" fill="white" stroke="white" stroke-width="0.191638" stroke-miterlimit="10"/>
<path d="M71.6912 10.3845C71.6912 11.2373 71.4037 11.9464 70.8384 12.5213C70.2635 13.0962 69.564 13.3837 68.7303 13.3837C67.8967 13.3837 67.1972 13.0962 66.6223 12.5213C66.057 11.9464 65.7695 11.2373 65.7695 10.3845C65.7695 9.53172 66.057 8.82266 66.6223 8.24775C67.1877 7.67283 67.8871 7.37579 68.7303 7.37579C69.5736 7.37579 70.2635 7.66325 70.8384 8.24775C71.4037 8.82266 71.6912 9.53172 71.6912 10.3749V10.3845ZM66.5361 10.3845C66.5361 11.0457 66.7469 11.6014 67.1589 12.0326C67.5805 12.4638 68.1075 12.6842 68.7303 12.6842C69.3532 12.6842 69.8802 12.4638 70.2922 12.0326C70.7138 11.6014 70.9246 11.0553 70.9246 10.3845C70.9246 9.71378 70.7138 9.16761 70.2922 8.73643C69.8706 8.30524 69.3532 8.08486 68.7303 8.08486C68.1075 8.08486 67.5805 8.30524 67.1589 8.73643C66.7373 9.16761 66.5361 9.72336 66.5361 10.3845Z" fill="white" stroke="white" stroke-width="0.191638" stroke-miterlimit="10"/>
<path d="M73.4644 13.2592H72.7266V7.51001H73.6273L76.4252 11.9848H76.4539L76.4252 10.8733V7.51001H77.163V13.2592H76.3964L73.474 8.5736H73.4452L73.474 9.68511V13.2687L73.4644 13.2592Z" fill="white" stroke="white" stroke-width="0.191638" stroke-miterlimit="10"/>
<path d="M65.6078 21.6434C63.3561 21.6434 61.5163 23.3586 61.5163 25.7157C61.5163 28.0729 63.3561 29.788 65.6078 29.788C67.8596 29.788 69.6993 28.0633 69.6993 25.7157C69.6993 23.3681 67.8596 21.6434 65.6078 21.6434ZM65.6078 28.1878C64.3717 28.1878 63.3081 27.1722 63.3081 25.7157C63.3081 24.2593 64.3717 23.2436 65.6078 23.2436C66.8439 23.2436 67.9075 24.2497 67.9075 25.7157C67.9075 27.1817 66.8439 28.1878 65.6078 28.1878ZM56.687 21.6434C54.4353 21.6434 52.5956 23.3586 52.5956 25.7157C52.5956 28.0729 54.4353 29.788 56.687 29.788C58.9388 29.788 60.7785 28.0633 60.7785 25.7157C60.7785 23.3681 58.9388 21.6434 56.687 21.6434ZM56.687 28.1878C55.451 28.1878 54.3874 27.1722 54.3874 25.7157C54.3874 24.2593 55.451 23.2436 56.687 23.2436C57.9231 23.2436 58.9867 24.2497 58.9867 25.7157C58.9867 27.1817 57.9231 28.1878 56.687 28.1878ZM46.0703 22.889V24.6138H50.2097C50.0851 25.5816 49.7593 26.3002 49.2706 26.7889C48.667 27.3925 47.7279 28.0537 46.0799 28.0537C43.5311 28.0537 41.538 26.0032 41.538 23.4544C41.538 20.9056 43.5311 18.8551 46.0799 18.8551C47.4501 18.8551 48.4562 19.3916 49.194 20.0911L50.4109 18.8742C49.376 17.8873 48.0058 17.1303 46.0703 17.1303C42.5825 17.1303 39.6504 19.9666 39.6504 23.464C39.6504 26.9614 42.5825 29.7976 46.0703 29.7976C47.9579 29.7976 49.376 29.1844 50.4875 28.025C51.6278 26.8847 51.9823 25.2749 51.9823 23.9814C51.9823 23.5789 51.9536 23.2052 51.8865 22.8986H46.0703V22.889ZM89.486 24.2305C89.1506 23.3202 88.1157 21.6338 85.9981 21.6338C83.8805 21.6338 82.1558 23.2819 82.1558 25.7061C82.1558 27.9866 83.8805 29.7784 86.1994 29.7784C88.0678 29.7784 89.1506 28.6382 89.5914 27.977L88.202 27.0476C87.742 27.7279 87.1096 28.1783 86.1994 28.1783C85.2891 28.1783 84.6375 27.7662 84.2255 26.9422L89.6776 24.6904L89.4955 24.2305H89.486ZM83.9284 25.5911C83.8805 24.0197 85.1453 23.2148 86.0556 23.2148C86.7647 23.2148 87.3683 23.5694 87.5696 24.0772L83.9284 25.5911ZM79.5016 29.5389H81.2934V17.5615H79.5016V29.5389ZM76.5695 22.5441H76.512C76.1096 22.065 75.343 21.6338 74.3657 21.6338C72.3247 21.6338 70.4563 23.4256 70.4563 25.7253C70.4563 28.025 72.3247 29.788 74.3657 29.788C75.3335 29.788 76.1096 29.3568 76.512 28.8586H76.5695V29.4431C76.5695 31.0049 75.7359 31.8386 74.3944 31.8386C73.3021 31.8386 72.6218 31.0528 72.3439 30.3917L70.782 31.0433C71.2324 32.126 72.4206 33.4483 74.3944 33.4483C76.4929 33.4483 78.2655 32.2123 78.2655 29.2035V21.8829H76.5695V22.5441ZM74.519 28.1783C73.2829 28.1783 72.2481 27.1434 72.2481 25.7253C72.2481 24.3072 73.2829 23.2436 74.519 23.2436C75.7551 23.2436 76.6941 24.2976 76.6941 25.7253C76.6941 27.153 75.7359 28.1783 74.519 28.1783ZM97.8797 17.5615H93.5966V29.5389H95.3884V24.9971H97.8893C99.8728 24.9971 101.818 23.5598 101.818 21.2793C101.818 18.9988 99.8728 17.5615 97.8893 17.5615H97.8797ZM97.9276 23.3394H95.3884V19.2287H97.9276C99.2691 19.2287 100.026 20.3403 100.026 21.2793C100.026 22.2183 99.2691 23.3298 97.9276 23.3298V23.3394ZM108.976 21.6146C107.682 21.6146 106.341 22.1896 105.785 23.4448L107.375 24.1059C107.711 23.4448 108.343 23.2244 109.004 23.2244C109.924 23.2244 110.873 23.7802 110.882 24.7671V24.8917C110.557 24.7096 109.867 24.4317 109.014 24.4317C107.299 24.4317 105.564 25.3708 105.564 27.1243C105.564 28.7244 106.963 29.7593 108.535 29.7593C109.733 29.7593 110.403 29.2227 110.815 28.5903H110.873V29.5102H112.598V24.9204C112.598 22.7932 111.007 21.6051 108.956 21.6051L108.976 21.6146ZM108.755 28.1783C108.171 28.1783 107.356 27.8812 107.356 27.1626C107.356 26.2427 108.372 25.8882 109.253 25.8882C110.039 25.8882 110.413 26.0607 110.882 26.2906C110.748 27.4021 109.79 28.1878 108.755 28.1878V28.1783ZM118.893 21.8734L116.842 27.0668H116.785L114.658 21.8734H112.732L115.922 29.1365L114.102 33.1704H115.97L120.886 21.8734H118.902H118.893ZM102.786 29.5389H104.577V17.5615H102.786V29.5389Z" fill="white"/>
<path d="M20.1637 19.4108L9.95898 30.2384C10.2752 31.417 11.3484 32.2793 12.6228 32.2793C13.1306 32.2793 13.6097 32.1452 14.0217 31.8961L14.0505 31.8769L25.5296 25.2558L20.1541 19.4012L20.1637 19.4108Z" fill="#EA4335"/>
<path d="M30.4872 17.571H30.4776L25.5238 14.6869L19.9375 19.6599L25.5429 25.2653L30.4776 22.4195C31.34 21.95 31.9245 21.0397 31.9245 19.9953C31.9245 18.9508 31.3496 18.0406 30.4872 17.5806V17.571Z" fill="#FBBC04"/>
<path d="M9.96301 9.69464C9.90552 9.92461 9.86719 10.1546 9.86719 10.4037V29.5388C9.86719 29.7879 9.89593 30.0179 9.96301 30.2479L20.5127 19.6982L9.96301 9.69464Z" fill="#4285F4"/>
<path d="M20.2404 19.9665L25.52 14.6869L14.0505 8.03705C13.6384 7.78792 13.1498 7.6442 12.6228 7.6442C11.3484 7.6442 10.2752 8.51615 9.95898 9.68515L20.2404 19.957V19.9665Z" fill="#34A853"/>
<path d="M121.66 1.25305H8.31563C4.1297 1.25305 0.736328 4.64642 0.736328 8.83235V31.1678C0.736328 35.3537 4.1297 38.7471 8.31563 38.7471H121.66C125.846 38.7471 129.239 35.3537 129.239 31.1678V8.83235C129.239 4.64642 125.846 1.25305 121.66 1.25305Z" stroke="#A6A6A6" stroke-width="0.958192" stroke-miterlimit="10"/>
</svg>
