<svg xmlns="http://www.w3.org/2000/svg" width="16" height="16" fill="none" viewBox="0 0 16 16"><g clip-path="url(#clip0_1108_14413)"><path fill="#3385FF" d="M14.7504 8.70619L8.70668 14.7499C8.61427 14.8433 8.50427 14.9174 8.38305 14.968C8.26182 15.0185 8.13178 15.0446 8.00042 15.0446C7.86907 15.0446 7.73903 15.0185 7.6178 14.968C7.49658 14.9174 7.38658 14.8433 7.29417 14.7499L1.25042 8.70619C1.06492 8.51792 0.960937 8.26423 0.960938 7.99994C0.960938 7.73564 1.06492 7.48195 1.25042 7.29369L7.29417 1.24994C7.48244 1.06443 7.73613 0.960449 8.00042 0.960449C8.26472 0.960449 8.51841 1.06443 8.70668 1.24994L14.7504 7.29369C14.9359 7.48195 15.0399 7.73564 15.0399 7.99994C15.0399 8.26423 14.9359 8.51792 14.7504 8.70619Z"/><g clip-path="url(#clip1_1108_14413)"><path fill="#fff" d="M6.80353 9.36054L10.3312 6.14966C10.4408 6.04989 10.5803 6 10.7497 6C10.9191 6 11.0586 6.04989 11.1683 6.14966C11.2779 6.24943 11.3327 6.37642 11.3327 6.53061C11.3327 6.68481 11.2779 6.81179 11.1683 6.91156L7.22207 10.5034C7.10249 10.6122 6.96298 10.6667 6.80353 10.6667C6.64409 10.6667 6.50458 10.6122 6.385 10.5034L4.83044 9.08844C4.72082 8.98866 4.66602 8.86168 4.66602 8.70748C4.66602 8.55329 4.72082 8.4263 4.83044 8.32653C4.94006 8.22676 5.07957 8.17687 5.24898 8.17687C5.41838 8.17687 5.55789 8.22676 5.66751 8.32653L6.80353 9.36054Z"/></g></g><defs><clipPath id="clip0_1108_14413"><rect width="16" height="16" fill="#fff"/></clipPath><clipPath id="clip1_1108_14413"><rect width="8.17" height="8.17" fill="#fff" transform="translate(4.08594 4.76611)"/></clipPath></defs></svg>