<svg width="117" height="97" viewBox="0 0 117 97" fill="none" xmlns="http://www.w3.org/2000/svg">
<g clip-path="url(#clip0_1_2)">
<path d="M60.075 73.75L75.75 82.3V92.5H49.5C45.3375 92.5 42 89.1625 42 85V25C42 23.0109 42.7902 21.1032 44.1967 19.6967C45.6032 18.2902 47.5109 17.5 49.5 17.5H53.25V43.75L62.625 38.125L72 43.75V17.5H94.5C96.4891 17.5 98.3968 18.2902 99.8033 19.6967C101.21 21.1032 102 23.0109 102 25V57.025L96.375 53.95L60.075 73.75ZM117 73.75L96.375 62.5L75.75 73.75L96.375 85L117 73.75ZM83.25 81.5875V89.0875L96.375 96.25L109.5 89.0875V81.5875L96.375 88.75L83.25 81.5875Z" fill="black"/>
<path d="M60.075 73.75L75.75 82.3V92.5H49.5C45.3375 92.5 42 89.1625 42 85V25C42 23.0109 42.7902 21.1032 44.1967 19.6967C45.6032 18.2902 47.5109 17.5 49.5 17.5H53.25V43.75L62.625 38.125L72 43.75V17.5H94.5C96.4891 17.5 98.3968 18.2902 99.8033 19.6967C101.21 21.1032 102 23.0109 102 25V57.025L96.375 53.95L60.075 73.75ZM117 73.75L96.375 62.5L75.75 73.75L96.375 85L117 73.75ZM83.25 81.5875V89.0875L96.375 96.25L109.5 89.0875V81.5875L96.375 88.75L83.25 81.5875Z" fill="url(#paint0_linear_1_2)"/>
<mask id="mask0_1_2" style="mask-type:luminance" maskUnits="userSpaceOnUse" x="0" y="0" width="34" height="34">
<path d="M34 0H0V34H34V0Z" fill="white"/>
</mask>
<g mask="url(#mask0_1_2)">
<path d="M13.8129 34.0002C13.4771 34.0019 13.1488 33.9011 12.8718 33.7112C12.5949 33.5214 12.3824 33.2515 12.2629 32.9377L9.61732 26.058C9.56373 25.9194 9.48176 25.7935 9.37667 25.6884C9.27157 25.5833 9.14567 25.5013 9.00704 25.4477L2.12536 22.8001C1.81189 22.6798 1.54226 22.4673 1.35207 22.1905C1.16188 21.9138 1.06007 21.586 1.06007 21.2502C1.06007 20.9144 1.16188 20.5865 1.35207 20.3098C1.54226 20.0331 1.81189 19.8206 2.12536 19.7003L9.00505 17.0546C9.14368 17.0011 9.26958 16.9191 9.37468 16.814C9.47977 16.7089 9.56174 16.583 9.61532 16.4444L12.2629 9.56268C12.3833 9.24921 12.5958 8.97958 12.8725 8.78939C13.1492 8.5992 13.4771 8.49739 13.8129 8.49739C14.1486 8.49739 14.4765 8.5992 14.7532 8.78939C15.0299 8.97958 15.2425 9.24921 15.3628 9.56268L18.0084 16.4424C18.062 16.581 18.144 16.7069 18.2491 16.812C18.3541 16.9171 18.4801 16.9991 18.6187 17.0526L25.4585 19.6843C25.7848 19.8053 26.0658 20.0238 26.2634 20.3101C26.461 20.5965 26.5656 20.9368 26.5629 21.2847C26.5578 21.6146 26.4538 21.9354 26.2644 22.2056C26.075 22.4758 25.8088 22.6829 25.5004 22.8001L18.6207 25.4457C18.482 25.4993 18.3561 25.5813 18.251 25.6864C18.146 25.7915 18.064 25.9174 18.0104 26.056L15.3628 32.9377C15.2433 33.2515 15.0309 33.5214 14.7539 33.7112C14.477 33.9011 14.1486 34.0019 13.8129 34.0002ZM5.84411 11.6877C5.64725 11.6877 5.45502 11.628 5.29273 11.5166C5.13045 11.4052 5.00573 11.2472 4.93501 11.0635L3.8154 8.15222C3.79114 8.08854 3.75368 8.03072 3.7055 7.98254C3.65732 7.93436 3.5995 7.89691 3.53583 7.87264L0.624582 6.75303C0.440888 6.6823 0.282933 6.55757 0.171526 6.39529C0.0601197 6.233 0.000488281 6.04078 0.000488281 5.84393C0.000488281 5.64709 0.0601197 5.45486 0.171526 5.29258C0.282933 5.1303 0.440888 5.00557 0.624582 4.93483L3.53583 3.81522C3.59944 3.79085 3.6572 3.75336 3.70537 3.70519C3.75354 3.65702 3.79103 3.59926 3.8154 3.53565L4.92505 0.6503C4.98763 0.480434 5.09532 0.330833 5.23654 0.217576C5.37776 0.104319 5.54717 0.0316871 5.72657 0.00748724C5.94196 -0.0186966 6.15993 0.0277736 6.3459 0.139529C6.53188 0.251284 6.67523 0.421928 6.75321 0.624401L7.87282 3.53565C7.8972 3.59926 7.93469 3.65702 7.98286 3.70519C8.03102 3.75336 8.08879 3.79085 8.15239 3.81522L11.0636 4.93483C11.2473 5.00557 11.4053 5.1303 11.5167 5.29258C11.6281 5.45486 11.6877 5.64709 11.6877 5.84393C11.6877 6.04078 11.6281 6.233 11.5167 6.39529C11.4053 6.55757 11.2473 6.6823 11.0636 6.75303L8.15239 7.87264C8.08872 7.89691 8.0309 7.93436 7.98272 7.98254C7.93454 8.03072 7.89709 8.08854 7.87282 8.15222L6.75321 11.0635C6.6825 11.2472 6.55778 11.4052 6.39549 11.5166C6.23321 11.628 6.04097 11.6877 5.84411 11.6877ZM26.5629 17.0002C26.3481 17.0001 26.1384 16.935 25.9614 16.8133C25.7844 16.6917 25.6485 16.5193 25.5714 16.3189L24.0547 12.3763C24.028 12.3068 23.987 12.2438 23.9344 12.1911C23.8818 12.1385 23.8187 12.0975 23.7492 12.0708L19.8067 10.5541C19.6064 10.4769 19.4342 10.3409 19.3127 10.1639C19.1912 9.98696 19.1262 9.77734 19.1262 9.56268C19.1262 9.34803 19.1912 9.13841 19.3127 8.96143C19.4342 8.78445 19.6064 8.64842 19.8067 8.57124L23.7492 7.05452C23.8187 7.02784 23.8818 6.98686 23.9344 6.93424C23.987 6.88161 24.028 6.81852 24.0547 6.74905L25.5601 2.8344C25.6289 2.64928 25.7465 2.48625 25.9005 2.36266C26.0545 2.23906 26.2391 2.15952 26.4347 2.13249C26.6697 2.10404 26.9075 2.1549 27.1104 2.27701C27.3132 2.39912 27.4695 2.58548 27.5543 2.80651L29.071 6.74905C29.0977 6.81852 29.1387 6.88161 29.1913 6.93424C29.2439 6.98686 29.307 7.02784 29.3765 7.05452L33.319 8.57124C33.5193 8.64842 33.6916 8.78445 33.813 8.96143C33.9345 9.13841 33.9995 9.34803 33.9995 9.56268C33.9995 9.77734 33.9345 9.98696 33.813 10.1639C33.6916 10.3409 33.5193 10.4769 33.319 10.5541L29.3765 12.0708C29.307 12.0975 29.2439 12.1385 29.1913 12.1911C29.1387 12.2438 29.0977 12.3068 29.071 12.3763L27.5543 16.3189C27.4773 16.5193 27.3413 16.6917 27.1643 16.8133C26.9873 16.935 26.7776 17.0001 26.5629 17.0002Z" fill="black"/>
<path d="M13.8129 34.0002C13.4771 34.0019 13.1488 33.9011 12.8718 33.7112C12.5949 33.5214 12.3824 33.2515 12.2629 32.9377L9.61732 26.058C9.56373 25.9194 9.48176 25.7935 9.37667 25.6884C9.27157 25.5833 9.14567 25.5013 9.00704 25.4477L2.12536 22.8001C1.81189 22.6798 1.54226 22.4673 1.35207 22.1905C1.16188 21.9138 1.06007 21.586 1.06007 21.2502C1.06007 20.9144 1.16188 20.5865 1.35207 20.3098C1.54226 20.0331 1.81189 19.8206 2.12536 19.7003L9.00505 17.0546C9.14368 17.0011 9.26958 16.9191 9.37468 16.814C9.47977 16.7089 9.56174 16.583 9.61532 16.4444L12.2629 9.56268C12.3833 9.24921 12.5958 8.97958 12.8725 8.78939C13.1492 8.5992 13.4771 8.49739 13.8129 8.49739C14.1486 8.49739 14.4765 8.5992 14.7532 8.78939C15.0299 8.97958 15.2425 9.24921 15.3628 9.56268L18.0084 16.4424C18.062 16.581 18.144 16.7069 18.2491 16.812C18.3541 16.9171 18.4801 16.9991 18.6187 17.0526L25.4585 19.6843C25.7848 19.8053 26.0658 20.0238 26.2634 20.3101C26.461 20.5965 26.5656 20.9368 26.5629 21.2847C26.5578 21.6146 26.4538 21.9354 26.2644 22.2056C26.075 22.4758 25.8088 22.6829 25.5004 22.8001L18.6207 25.4457C18.482 25.4993 18.3561 25.5813 18.251 25.6864C18.146 25.7915 18.064 25.9174 18.0104 26.056L15.3628 32.9377C15.2433 33.2515 15.0309 33.5214 14.7539 33.7112C14.477 33.9011 14.1486 34.0019 13.8129 34.0002ZM5.84411 11.6877C5.64725 11.6877 5.45502 11.628 5.29273 11.5166C5.13045 11.4052 5.00573 11.2472 4.93501 11.0635L3.8154 8.15222C3.79114 8.08854 3.75368 8.03072 3.7055 7.98254C3.65732 7.93436 3.5995 7.89691 3.53583 7.87264L0.624582 6.75303C0.440888 6.6823 0.282933 6.55757 0.171526 6.39529C0.0601197 6.233 0.000488281 6.04078 0.000488281 5.84393C0.000488281 5.64709 0.0601197 5.45486 0.171526 5.29258C0.282933 5.1303 0.440888 5.00557 0.624582 4.93483L3.53583 3.81522C3.59944 3.79085 3.6572 3.75336 3.70537 3.70519C3.75354 3.65702 3.79103 3.59926 3.8154 3.53565L4.92505 0.6503C4.98763 0.480434 5.09532 0.330833 5.23654 0.217576C5.37776 0.104319 5.54717 0.0316871 5.72657 0.00748724C5.94196 -0.0186966 6.15993 0.0277736 6.3459 0.139529C6.53188 0.251284 6.67523 0.421928 6.75321 0.624401L7.87282 3.53565C7.8972 3.59926 7.93469 3.65702 7.98286 3.70519C8.03102 3.75336 8.08879 3.79085 8.15239 3.81522L11.0636 4.93483C11.2473 5.00557 11.4053 5.1303 11.5167 5.29258C11.6281 5.45486 11.6877 5.64709 11.6877 5.84393C11.6877 6.04078 11.6281 6.233 11.5167 6.39529C11.4053 6.55757 11.2473 6.6823 11.0636 6.75303L8.15239 7.87264C8.08872 7.89691 8.0309 7.93436 7.98272 7.98254C7.93454 8.03072 7.89709 8.08854 7.87282 8.15222L6.75321 11.0635C6.6825 11.2472 6.55778 11.4052 6.39549 11.5166C6.23321 11.628 6.04097 11.6877 5.84411 11.6877ZM26.5629 17.0002C26.3481 17.0001 26.1384 16.935 25.9614 16.8133C25.7844 16.6917 25.6485 16.5193 25.5714 16.3189L24.0547 12.3763C24.028 12.3068 23.987 12.2438 23.9344 12.1911C23.8818 12.1385 23.8187 12.0975 23.7492 12.0708L19.8067 10.5541C19.6064 10.4769 19.4342 10.3409 19.3127 10.1639C19.1912 9.98696 19.1262 9.77734 19.1262 9.56268C19.1262 9.34803 19.1912 9.13841 19.3127 8.96143C19.4342 8.78445 19.6064 8.64842 19.8067 8.57124L23.7492 7.05452C23.8187 7.02784 23.8818 6.98686 23.9344 6.93424C23.987 6.88161 24.028 6.81852 24.0547 6.74905L25.5601 2.8344C25.6289 2.64928 25.7465 2.48625 25.9005 2.36266C26.0545 2.23906 26.2391 2.15952 26.4347 2.13249C26.6697 2.10404 26.9075 2.1549 27.1104 2.27701C27.3132 2.39912 27.4695 2.58548 27.5543 2.80651L29.071 6.74905C29.0977 6.81852 29.1387 6.88161 29.1913 6.93424C29.2439 6.98686 29.307 7.02784 29.3765 7.05452L33.319 8.57124C33.5193 8.64842 33.6916 8.78445 33.813 8.96143C33.9345 9.13841 33.9995 9.34803 33.9995 9.56268C33.9995 9.77734 33.9345 9.98696 33.813 10.1639C33.6916 10.3409 33.5193 10.4769 33.319 10.5541L29.3765 12.0708C29.307 12.0975 29.2439 12.1385 29.1913 12.1911C29.1387 12.2438 29.0977 12.3068 29.071 12.3763L27.5543 16.3189C27.4773 16.5193 27.3413 16.6917 27.1643 16.8133C26.9873 16.935 26.7776 17.0001 26.5629 17.0002Z" fill="url(#paint1_linear_1_2)"/>
</g>
</g>
<defs>
<linearGradient id="paint0_linear_1_2" x1="102.248" y1="38.1104" x2="42.7811" y2="65.85" gradientUnits="userSpaceOnUse">
<stop stop-color="#BFA3DA"/>
<stop offset="0.416667" stop-color="#84309C"/>
<stop offset="1" stop-color="#C735B0"/>
</linearGradient>
<linearGradient id="paint1_linear_1_2" x1="27.3119" y1="8.89877" x2="0.839266" y2="21.8648" gradientUnits="userSpaceOnUse">
<stop stop-color="#BFA3DA"/>
<stop offset="0.416667" stop-color="#84309C"/>
<stop offset="1" stop-color="#C735B0"/>
</linearGradient>
<clipPath id="clip0_1_2">
<rect width="117" height="97" fill="white"/>
</clipPath>
</defs>
</svg>
