<svg width="126" height="111" viewBox="0 0 126 111" fill="none" xmlns="http://www.w3.org/2000/svg">
<path d="M26.5 84.5C22.8562 84.5 19.737 83.2026 17.1422 80.6078C14.5474 78.013 13.25 74.8938 13.25 71.25C13.25 67.6063 14.5474 64.487 17.1422 61.8922C19.737 59.2974 22.8562 58 26.5 58C30.1437 58 33.263 59.2974 35.8578 61.8922C38.4526 64.487 39.75 67.6063 39.75 71.25C39.75 74.8938 38.4526 78.013 35.8578 80.6078C33.263 83.2026 30.1437 84.5 26.5 84.5ZM0 111V101.725C0 99.8479 0.483626 98.1221 1.45088 96.5476C2.41813 94.973 3.70117 93.7728 5.3 92.9469C8.72291 91.2354 12.201 89.9513 15.7344 89.0944C19.2677 88.2376 22.8562 87.8103 26.5 87.8125C30.1437 87.8125 33.7323 88.2409 37.2656 89.0977C40.799 89.9546 44.2771 91.2376 47.7 92.9469C49.301 93.775 50.5852 94.9763 51.5524 96.5509C52.5197 98.1254 53.0022 99.8501 53 101.725V111H0Z" fill="url(#paint0_linear_1_3)"/>
<path d="M57.5 70.5C51.9312 70.5 47.1641 68.5172 43.1984 64.5516C39.2328 60.5859 37.25 55.8188 37.25 50.25C37.25 44.6812 39.2328 39.9141 43.1984 35.9484C47.1641 31.9828 51.9312 30 57.5 30C63.0687 30 67.8359 31.9828 71.8015 35.9484C75.7672 39.9141 77.75 44.6812 77.75 50.25C77.75 55.8188 75.7672 60.5859 71.8015 64.5516C67.8359 68.5172 63.0687 70.5 57.5 70.5ZM17 111V96.825C17 93.9563 17.7391 91.3187 19.2174 88.9123C20.6956 86.5059 22.6565 84.6716 25.1 83.4094C30.3312 80.7938 35.6469 78.8312 41.0469 77.5217C46.4469 76.2122 51.9312 75.5591 57.5 75.5625C63.0687 75.5625 68.5531 76.2172 73.9531 77.5267C79.3531 78.8363 84.6687 80.7971 89.9 83.4094C92.3469 84.675 94.3094 86.511 95.7877 88.9174C97.2659 91.3237 98.0034 93.9596 98 96.825V111H17Z" fill="url(#paint1_linear_1_3)"/>
<mask id="mask0_1_3" style="mask-type:luminance" maskUnits="userSpaceOnUse" x="71" y="0" width="55" height="55">
<path d="M125.234 13.769L84.769 0L71 40.4645L111.465 54.2336L125.234 13.769Z" fill="white"/>
</mask>
<g mask="url(#mask0_1_3)">
<path d="M101.559 17.0007C104.242 17.9136 106.452 19.855 107.704 22.3977C108.956 24.9404 109.146 27.8761 108.233 30.5591C106.959 34.3021 103.806 36.8788 100.192 37.6053L99.1589 40.6401C99.0067 41.0873 98.6832 41.4557 98.2594 41.6643C97.8356 41.8729 97.3463 41.9046 96.8991 41.7524L90.1551 39.4576C89.7079 39.3054 89.3395 38.9819 89.1309 38.5581C88.9223 38.1343 88.8906 37.645 89.0427 37.1979L90.0754 34.163C87.6541 31.3826 86.727 27.4175 88.0006 23.6746C88.9136 20.9916 90.8549 18.7812 93.3976 17.5296C95.9403 16.278 98.8761 16.0878 101.559 17.0007ZM96.3254 43.4385L95.7517 45.1245C95.5996 45.5716 95.276 45.94 94.8522 46.1486C94.4284 46.3572 93.9391 46.389 93.492 46.2368L90.1199 45.0894C89.6728 44.9372 89.3044 44.6137 89.0958 44.1899C88.8872 43.7661 88.8555 43.2768 89.0076 42.8296L89.5813 41.1436L96.3254 43.4385ZM112.179 30.0205L117.237 31.7416L116.089 35.1137L111.031 33.3925L112.179 30.0205ZM80.1442 19.12L85.2023 20.8411L84.0549 24.2132L78.9968 22.492L80.1442 19.12ZM106.114 9.14428L104.392 14.2024L101.02 13.0549L102.742 7.99686L106.114 9.14428ZM91.0563 8.72376L93.4198 13.5539L90.2167 15.1165L87.8417 10.3201L91.0563 8.72376ZM110.117 19.2167L114.914 16.8418L116.504 20.0732L111.697 22.4256L110.117 19.2167Z" fill="url(#paint2_linear_1_3)"/>
</g>
<defs>
<linearGradient id="paint0_linear_1_3" x1="42.575" y1="71.8711" x2="1.30793" y2="92.0837" gradientUnits="userSpaceOnUse">
<stop stop-color="#BFA3DA"/>
<stop offset="0.416667" stop-color="#84309C"/>
<stop offset="1" stop-color="#C735B0"/>
</linearGradient>
<linearGradient id="paint1_linear_1_3" x1="82.0674" y1="51.1992" x2="18.9989" y2="82.0901" gradientUnits="userSpaceOnUse">
<stop stop-color="#BFA3DA"/>
<stop offset="0.416667" stop-color="#84309C"/>
<stop offset="1" stop-color="#C735B0"/>
</linearGradient>
<linearGradient id="paint2_linear_1_3" x1="112.374" y1="22.1065" x2="78.6799" y2="26.425" gradientUnits="userSpaceOnUse">
<stop stop-color="#BFA3DA"/>
<stop offset="0.416667" stop-color="#84309C"/>
<stop offset="1" stop-color="#C735B0"/>
</linearGradient>
</defs>
</svg>
