<svg width="28" height="28" viewBox="0 0 28 28" fill="none" xmlns="http://www.w3.org/2000/svg">
<path fill-rule="evenodd" clip-rule="evenodd" d="M5.83337 4.66671C5.18904 4.66671 4.66671 5.18904 4.66671 5.83337V7.20023C5.03795 7.06897 5.43211 7.00006 5.83337 7.00006H22.1667C22.568 7.00006 22.9621 7.06897 23.3334 7.20023V5.83337C23.3334 5.18904 22.811 4.66671 22.1667 4.66671H5.83337ZM5.00842 9.6751C4.78962 9.8939 4.66671 10.1906 4.66671 10.5001V11.6667H7.00004C8.16077 11.6667 9.41445 12.0863 10.2669 13.0443L11.4722 14.0304C11.5022 14.055 11.5309 14.081 11.5583 14.1084C12.9694 15.5195 15.1474 15.5195 16.5584 14.1084C16.5858 14.081 16.6146 14.055 16.6446 14.0304L17.8865 13.0143C18.6554 12.2678 19.8521 11.6667 21.1167 11.6667H23.3334V10.5001C23.3334 10.1906 23.2105 9.8939 22.9917 9.6751C22.7729 9.45631 22.4761 9.33339 22.1667 9.33339H5.83337C5.52395 9.33339 5.22721 9.45631 5.00842 9.6751ZM23.3334 14H21.1167C20.5395 14 19.8916 14.3084 19.4917 14.7083C19.4643 14.7357 19.4355 14.7618 19.4055 14.7863L18.1649 15.8014C15.8552 18.0662 12.2616 18.0662 9.95189 15.8014L8.71126 14.7863C8.65393 14.7394 8.6012 14.6871 8.55378 14.6302C8.23988 14.2536 7.66941 14 7.00004 14H4.66671V22.1667C4.66671 22.811 5.18904 23.3334 5.83337 23.3334H22.1667C22.811 23.3334 23.3334 22.811 23.3334 22.1667V14ZM2.33337 12.8334V22.1667C2.33337 24.0997 3.90038 25.6667 5.83337 25.6667H22.1667C24.0997 25.6667 25.6667 24.0997 25.6667 22.1667V12.8334V10.5001V5.83337C25.6667 3.90038 24.0997 2.33337 22.1667 2.33337H5.83337C3.90038 2.33337 2.33337 3.90038 2.33337 5.83337V10.5001V12.8334Z" fill="url(#paint0_linear_3166_646)"/>
<defs>
<linearGradient id="paint0_linear_3166_646" x1="24.0003" y1="-8.73752" x2="-10.4051" y2="43.0467" gradientUnits="userSpaceOnUse">
<stop stop-color="white"/>
<stop offset="1" stop-color="white" stop-opacity="0"/>
</linearGradient>
</defs>
</svg>
