<svg width="28" height="28" viewBox="0 0 28 28" fill="none" xmlns="http://www.w3.org/2000/svg">
<path fill-rule="evenodd" clip-rule="evenodd" d="M5.83337 4.66671C5.18904 4.66671 4.66671 5.18904 4.66671 5.83337V9.33337H10.5H23.3334V5.83337C23.3334 5.18904 22.811 4.66671 22.1667 4.66671H5.83337ZM9.33337 11.6667H4.66671V22.1667C4.66671 22.811 5.18904 23.3334 5.83337 23.3334H9.33337V11.6667ZM11.6667 23.3334V11.6667H23.3334V22.1667C23.3334 22.811 22.811 23.3334 22.1667 23.3334H11.6667ZM10.5 25.6667H5.83337C3.90038 25.6667 2.33337 24.0997 2.33337 22.1667V10.5V5.83337C2.33337 3.90038 3.90038 2.33337 5.83337 2.33337H22.1667C24.0997 2.33337 25.6667 3.90038 25.6667 5.83337V10.5V22.1667C25.6667 24.0997 24.0997 25.6667 22.1667 25.6667H10.5Z" fill="url(#paint0_linear_3166_618)"/>
<defs>
<linearGradient id="paint0_linear_3166_618" x1="24.0003" y1="-8.73752" x2="-10.4051" y2="43.0467" gradientUnits="userSpaceOnUse">
<stop stop-color="white"/>
<stop offset="1" stop-color="white" stop-opacity="0"/>
</linearGradient>
</defs>
</svg>
