<svg xmlns="http://www.w3.org/2000/svg" width="64" height="15" fill="none" viewBox="0 0 64 15"><g clip-path="url(#clip0_71_39657)"><path fill="#FFFEF0" d="M10.9873 0.566284V6.36127H2.89698V0.566284H0.373535V14.2247H2.89698V8.59159H10.9847V14.2247H13.5133V0.566284H10.9873Z"/><path fill="#FFFEF0" d="M25.0844 0.566284H22.5354L16.4575 14.2247H19.0612L20.4186 11.1775H27.2038L28.5611 14.2247H31.1699L25.0844 0.566284ZM21.419 8.9255L23.8125 3.57275L26.2021 8.9255H21.419Z"/><path fill="#FFFEF0" d="M39.8781 14.5013C36.0661 14.5013 33.4216 12.3067 33.4216 8.34817V0.566284H35.9476V8.16719C35.9476 10.6626 37.5152 12.1818 39.9367 12.1894C42.3582 12.1971 43.834 10.4714 43.834 8.16719V0.566284H46.3345V8.34817C46.3345 12.1856 43.5422 14.5013 39.8781 14.5013Z"/><path fill="#FFFEF0" d="M53.6705 0.538234L61.1248 11.4642L61.1745 0.614703L63.6266 0.644015L63.466 14.2884L60.025 14.2477L52.8994 3.70146L52.772 14.1725L50.3237 14.1444L50.483 0.5L53.6705 0.538234Z"/></g><defs><clipPath id="clip0_71_39657"><rect width="63.253" height="14" fill="#fff" transform="translate(0.373535 0.5)"/></clipPath></defs></svg>