<svg width="2400" height="740" viewBox="0 0 2400 740" fill="none" xmlns="http://www.w3.org/2000/svg">
<path d="M1654.62 302.5L1634.62 290.953L1634.62 314.047L1654.62 302.5ZM744.655 304.5L1636.62 304.5L1636.62 300.5L744.655 300.5L744.655 304.5Z" fill="#777777"/>
<path d="M900.54 259V233.545H909.613C911.594 233.545 913.234 233.906 914.535 234.627C915.836 235.348 916.81 236.334 917.456 237.585C918.102 238.828 918.425 240.228 918.425 241.786C918.425 243.352 918.098 244.761 917.444 246.012C916.797 247.255 915.819 248.241 914.51 248.97C913.209 249.691 911.573 250.051 909.601 250.051H903.362V246.795H909.253C910.504 246.795 911.519 246.579 912.298 246.148C913.077 245.709 913.649 245.113 914.013 244.359C914.378 243.605 914.56 242.747 914.56 241.786C914.56 240.825 914.378 239.971 914.013 239.225C913.649 238.48 913.073 237.896 912.286 237.473C911.507 237.05 910.479 236.839 909.203 236.839H904.381V259H900.54ZM945.039 246.273C945.039 248.991 944.542 251.327 943.548 253.283C942.553 255.23 941.19 256.73 939.458 257.782C937.735 258.826 935.775 259.348 933.579 259.348C931.375 259.348 929.407 258.826 927.676 257.782C925.952 256.73 924.593 255.226 923.599 253.27C922.605 251.315 922.108 248.982 922.108 246.273C922.108 243.555 922.605 241.222 923.599 239.275C924.593 237.32 925.952 235.82 927.676 234.776C929.407 233.724 931.375 233.197 933.579 233.197C935.775 233.197 937.735 233.724 939.458 234.776C941.19 235.82 942.553 237.32 943.548 239.275C944.542 241.222 945.039 243.555 945.039 246.273ZM941.236 246.273C941.236 244.201 940.9 242.457 940.229 241.04C939.566 239.615 938.655 238.538 937.495 237.809C936.343 237.071 935.038 236.702 933.579 236.702C932.113 236.702 930.804 237.071 929.652 237.809C928.5 238.538 927.589 239.615 926.918 241.04C926.255 242.457 925.923 244.201 925.923 246.273C925.923 248.344 926.255 250.093 926.918 251.518C927.589 252.935 928.5 254.012 929.652 254.749C930.804 255.478 932.113 255.843 933.579 255.843C935.038 255.843 936.343 255.478 937.495 254.749C938.655 254.012 939.566 252.935 940.229 251.518C940.9 250.093 941.236 248.344 941.236 246.273ZM963.71 240.232C963.578 239.056 963.031 238.144 962.07 237.498C961.109 236.843 959.899 236.516 958.441 236.516C957.396 236.516 956.493 236.682 955.731 237.013C954.969 237.336 954.376 237.784 953.954 238.355C953.539 238.919 953.332 239.561 953.332 240.282C953.332 240.887 953.473 241.409 953.755 241.848C954.045 242.287 954.422 242.656 954.886 242.954C955.358 243.244 955.864 243.489 956.402 243.688C956.941 243.878 957.459 244.036 957.956 244.16L960.442 244.806C961.254 245.005 962.086 245.274 962.94 245.614C963.793 245.954 964.585 246.401 965.314 246.956C966.043 247.511 966.631 248.199 967.079 249.02C967.534 249.84 967.762 250.822 967.762 251.965C967.762 253.407 967.389 254.687 966.644 255.806C965.906 256.924 964.833 257.807 963.425 258.453C962.024 259.099 960.33 259.423 958.341 259.423C956.435 259.423 954.786 259.12 953.394 258.515C952.002 257.91 950.913 257.053 950.126 255.942C949.338 254.824 948.903 253.498 948.821 251.965H952.673C952.748 252.885 953.046 253.651 953.568 254.265C954.099 254.869 954.774 255.321 955.594 255.619C956.423 255.909 957.33 256.054 958.316 256.054C959.402 256.054 960.367 255.884 961.212 255.545C962.066 255.197 962.737 254.716 963.226 254.103C963.715 253.482 963.959 252.757 963.959 251.928C963.959 251.174 963.744 250.557 963.313 250.076C962.89 249.595 962.314 249.198 961.585 248.883C960.864 248.568 960.048 248.29 959.137 248.05L956.129 247.23C954.09 246.675 952.475 245.858 951.281 244.781C950.097 243.704 949.504 242.279 949.504 240.506C949.504 239.039 949.902 237.759 950.697 236.665C951.493 235.571 952.57 234.722 953.929 234.117C955.288 233.504 956.821 233.197 958.528 233.197C960.251 233.197 961.771 233.5 963.089 234.105C964.415 234.71 965.459 235.542 966.221 236.603C966.983 237.655 967.381 238.865 967.414 240.232H963.71ZM971.096 236.852V233.545H990.796V236.852H982.854V259H979.026V236.852H971.096ZM1018.42 244.57L1015.05 245.167C1014.91 244.736 1014.69 244.326 1014.38 243.936C1014.08 243.547 1013.68 243.228 1013.16 242.979C1012.65 242.73 1012.01 242.606 1011.24 242.606C1010.18 242.606 1009.31 242.842 1008.6 243.315C1007.9 243.779 1007.54 244.379 1007.54 245.117C1007.54 245.755 1007.78 246.269 1008.25 246.658C1008.73 247.047 1009.49 247.366 1010.54 247.615L1013.57 248.311C1015.33 248.717 1016.64 249.343 1017.5 250.188C1018.36 251.033 1018.79 252.131 1018.79 253.482C1018.79 254.625 1018.46 255.644 1017.8 256.539C1017.14 257.426 1016.23 258.122 1015.05 258.627C1013.88 259.133 1012.53 259.385 1010.99 259.385C1008.85 259.385 1007.11 258.93 1005.75 258.018C1004.4 257.098 1003.58 255.793 1003.27 254.103L1006.86 253.556C1007.08 254.492 1007.54 255.201 1008.24 255.681C1008.94 256.154 1009.84 256.39 1010.96 256.39C1012.18 256.39 1013.15 256.137 1013.88 255.632C1014.61 255.118 1014.98 254.492 1014.98 253.755C1014.98 253.158 1014.75 252.657 1014.31 252.251C1013.87 251.845 1013.19 251.538 1012.28 251.331L1009.05 250.623C1007.27 250.217 1005.95 249.571 1005.1 248.684C1004.25 247.797 1003.83 246.675 1003.83 245.316C1003.83 244.189 1004.14 243.203 1004.77 242.358C1005.4 241.512 1006.27 240.854 1007.38 240.381C1008.49 239.901 1009.76 239.661 1011.2 239.661C1013.26 239.661 1014.89 240.108 1016.07 241.003C1017.26 241.889 1018.04 243.078 1018.42 244.57ZM1022.88 259V239.909H1026.59V259H1022.88ZM1024.76 236.963C1024.11 236.963 1023.55 236.748 1023.09 236.317C1022.63 235.878 1022.41 235.356 1022.41 234.751C1022.41 234.138 1022.63 233.616 1023.09 233.185C1023.55 232.746 1024.11 232.526 1024.76 232.526C1025.4 232.526 1025.95 232.746 1026.41 233.185C1026.87 233.616 1027.1 234.138 1027.1 234.751C1027.1 235.356 1026.87 235.878 1026.41 236.317C1025.95 236.748 1025.4 236.963 1024.76 236.963ZM1039.6 266.557C1038.08 266.557 1036.78 266.358 1035.68 265.96C1034.6 265.563 1033.71 265.036 1033.02 264.382C1032.34 263.727 1031.82 263.01 1031.48 262.232L1034.68 260.914C1034.9 261.279 1035.2 261.664 1035.57 262.07C1035.95 262.484 1036.47 262.836 1037.11 263.126C1037.77 263.416 1038.61 263.561 1039.64 263.561C1041.04 263.561 1042.21 263.218 1043.13 262.53C1044.05 261.85 1044.51 260.765 1044.51 259.273V255.52H1044.27C1044.05 255.926 1043.73 256.377 1043.3 256.875C1042.89 257.372 1042.32 257.803 1041.59 258.167C1040.86 258.532 1039.91 258.714 1038.74 258.714C1037.23 258.714 1035.87 258.362 1034.66 257.658C1033.46 256.945 1032.51 255.897 1031.81 254.513C1031.11 253.121 1030.76 251.41 1030.76 249.38C1030.76 247.35 1031.11 245.61 1031.79 244.16C1032.49 242.71 1033.44 241.599 1034.65 240.829C1035.86 240.05 1037.23 239.661 1038.77 239.661C1039.95 239.661 1040.91 239.859 1041.64 240.257C1042.37 240.647 1042.93 241.102 1043.34 241.624C1043.75 242.146 1044.07 242.606 1044.3 243.004H1044.57V239.909H1048.21V259.423C1048.21 261.063 1047.83 262.41 1047.07 263.462C1046.31 264.514 1045.27 265.293 1043.97 265.799C1042.68 266.304 1041.22 266.557 1039.6 266.557ZM1039.56 255.632C1040.63 255.632 1041.53 255.383 1042.27 254.886C1043.02 254.381 1043.58 253.66 1043.96 252.723C1044.35 251.779 1044.55 250.648 1044.55 249.33C1044.55 248.046 1044.35 246.915 1043.97 245.937C1043.59 244.959 1043.03 244.197 1042.3 243.65C1041.56 243.095 1040.65 242.817 1039.56 242.817C1038.44 242.817 1037.51 243.107 1036.76 243.688C1036.02 244.259 1035.46 245.038 1035.07 246.024C1034.7 247.01 1034.52 248.112 1034.52 249.33C1034.52 250.581 1034.71 251.679 1035.09 252.624C1035.47 253.569 1036.03 254.306 1036.78 254.836C1037.53 255.367 1038.46 255.632 1039.56 255.632ZM1056.91 247.665V259H1053.2V239.909H1056.76V243.016H1057C1057.44 242.005 1058.13 241.193 1059.06 240.58C1060.01 239.967 1061.2 239.661 1062.63 239.661C1063.93 239.661 1065.07 239.934 1066.05 240.481C1067.03 241.019 1067.78 241.823 1068.32 242.892C1068.86 243.961 1069.13 245.283 1069.13 246.857V259H1065.41V247.304C1065.41 245.921 1065.05 244.839 1064.33 244.06C1063.61 243.273 1062.62 242.88 1061.36 242.88C1060.5 242.88 1059.73 243.066 1059.06 243.439C1058.4 243.812 1057.87 244.359 1057.48 245.08C1057.1 245.792 1056.91 246.654 1056.91 247.665ZM1082.34 259.385C1080.46 259.385 1078.84 258.983 1077.48 258.18C1076.13 257.368 1075.09 256.228 1074.35 254.762C1073.62 253.287 1073.26 251.559 1073.26 249.579C1073.26 247.623 1073.62 245.9 1074.35 244.408C1075.09 242.917 1076.11 241.753 1077.43 240.916C1078.76 240.079 1080.31 239.661 1082.08 239.661C1083.16 239.661 1084.2 239.839 1085.21 240.195C1086.22 240.551 1087.13 241.111 1087.93 241.873C1088.74 242.635 1089.37 243.625 1089.84 244.843C1090.3 246.053 1090.53 247.524 1090.53 249.256V250.573H1075.36V247.789H1086.89C1086.89 246.811 1086.69 245.945 1086.29 245.191C1085.9 244.429 1085.34 243.828 1084.62 243.389C1083.9 242.95 1083.07 242.73 1082.11 242.73C1081.06 242.73 1080.15 242.987 1079.37 243.501C1078.6 244.007 1078 244.669 1077.58 245.49C1077.17 246.302 1076.96 247.184 1076.96 248.137V250.312C1076.96 251.588 1077.18 252.674 1077.63 253.569C1078.09 254.463 1078.72 255.147 1079.53 255.619C1080.34 256.083 1081.29 256.315 1082.38 256.315C1083.08 256.315 1083.73 256.216 1084.31 256.017C1084.89 255.81 1085.39 255.503 1085.81 255.097C1086.23 254.691 1086.56 254.19 1086.78 253.593L1090.3 254.227C1090.01 255.263 1089.51 256.17 1088.78 256.949C1088.06 257.72 1087.15 258.321 1086.06 258.751C1084.97 259.174 1083.73 259.385 1082.34 259.385ZM1101.8 259.373C1100.26 259.373 1098.89 258.979 1097.68 258.192C1096.47 257.397 1095.53 256.266 1094.84 254.799C1094.16 253.324 1093.82 251.555 1093.82 249.492C1093.82 247.429 1094.17 245.664 1094.85 244.197C1095.55 242.73 1096.5 241.608 1097.71 240.829C1098.92 240.05 1100.29 239.661 1101.83 239.661C1103.01 239.661 1103.97 239.859 1104.69 240.257C1105.42 240.647 1105.98 241.102 1106.38 241.624C1106.78 242.146 1107.1 242.606 1107.32 243.004H1107.54V233.545H1111.26V259H1107.63V256.029H1107.32C1107.1 256.435 1106.77 256.9 1106.35 257.422C1105.94 257.944 1105.37 258.399 1104.64 258.789C1103.91 259.178 1102.96 259.373 1101.8 259.373ZM1102.62 256.203C1103.69 256.203 1104.59 255.922 1105.33 255.358C1106.08 254.787 1106.64 253.995 1107.02 252.984C1107.41 251.973 1107.61 250.797 1107.61 249.455C1107.61 248.129 1107.42 246.969 1107.04 245.974C1106.65 244.98 1106.09 244.205 1105.36 243.65C1104.62 243.095 1103.71 242.817 1102.62 242.817C1101.5 242.817 1100.57 243.107 1099.83 243.688C1099.08 244.268 1098.52 245.059 1098.14 246.061C1097.76 247.064 1097.58 248.195 1097.58 249.455C1097.58 250.731 1097.77 251.878 1098.15 252.897C1098.53 253.917 1099.09 254.724 1099.84 255.321C1100.59 255.909 1101.52 256.203 1102.62 256.203ZM1129.54 233.545V259H1125.83V233.545H1129.54ZM1142.59 259.385C1140.8 259.385 1139.23 258.975 1137.9 258.155C1136.57 257.335 1135.53 256.187 1134.79 254.712C1134.05 253.237 1133.69 251.514 1133.69 249.542C1133.69 247.561 1134.05 245.829 1134.79 244.346C1135.53 242.863 1136.57 241.711 1137.9 240.891C1139.23 240.071 1140.8 239.661 1142.59 239.661C1144.37 239.661 1145.94 240.071 1147.27 240.891C1148.6 241.711 1149.64 242.863 1150.38 244.346C1151.12 245.829 1151.48 247.561 1151.48 249.542C1151.48 251.514 1151.12 253.237 1150.38 254.712C1149.64 256.187 1148.6 257.335 1147.27 258.155C1145.94 258.975 1144.37 259.385 1142.59 259.385ZM1142.6 256.266C1143.76 256.266 1144.72 255.959 1145.48 255.346C1146.24 254.733 1146.81 253.917 1147.17 252.897C1147.54 251.878 1147.73 250.755 1147.73 249.529C1147.73 248.311 1147.54 247.192 1147.17 246.173C1146.81 245.146 1146.24 244.321 1145.48 243.7C1144.72 243.078 1143.76 242.768 1142.6 242.768C1141.43 242.768 1140.46 243.078 1139.69 243.7C1138.93 244.321 1138.36 245.146 1137.99 246.173C1137.62 247.192 1137.44 248.311 1137.44 249.529C1137.44 250.755 1137.62 251.878 1137.99 252.897C1138.36 253.917 1138.93 254.733 1139.69 255.346C1140.46 255.959 1141.43 256.266 1142.6 256.266ZM1163.64 266.557C1162.12 266.557 1160.82 266.358 1159.72 265.96C1158.64 265.563 1157.75 265.036 1157.06 264.382C1156.37 263.727 1155.86 263.01 1155.52 262.232L1158.71 260.914C1158.94 261.279 1159.24 261.664 1159.61 262.07C1159.99 262.484 1160.5 262.836 1161.15 263.126C1161.81 263.416 1162.65 263.561 1163.67 263.561C1165.08 263.561 1166.25 263.218 1167.17 262.53C1168.09 261.85 1168.55 260.765 1168.55 259.273V255.52H1168.31C1168.09 255.926 1167.76 256.377 1167.34 256.875C1166.93 257.372 1166.35 257.803 1165.63 258.167C1164.9 258.532 1163.95 258.714 1162.78 258.714C1161.27 258.714 1159.91 258.362 1158.7 257.658C1157.5 256.945 1156.55 255.897 1155.84 254.513C1155.15 253.121 1154.8 251.41 1154.8 249.38C1154.8 247.35 1155.14 245.61 1155.83 244.16C1156.53 242.71 1157.48 241.599 1158.69 240.829C1159.9 240.05 1161.27 239.661 1162.8 239.661C1163.99 239.661 1164.95 239.859 1165.68 240.257C1166.4 240.647 1166.97 241.102 1167.38 241.624C1167.79 242.146 1168.11 242.606 1168.33 243.004H1168.61V239.909H1172.25V259.423C1172.25 261.063 1171.87 262.41 1171.11 263.462C1170.34 264.514 1169.31 265.293 1168.01 265.799C1166.72 266.304 1165.26 266.557 1163.64 266.557ZM1163.6 255.632C1164.67 255.632 1165.57 255.383 1166.31 254.886C1167.05 254.381 1167.62 253.66 1168 252.723C1168.39 251.779 1168.58 250.648 1168.58 249.33C1168.58 248.046 1168.39 246.915 1168.01 245.937C1167.63 244.959 1167.07 244.197 1166.33 243.65C1165.6 243.095 1164.68 242.817 1163.6 242.817C1162.48 242.817 1161.55 243.107 1160.8 243.688C1160.06 244.259 1159.49 245.038 1159.11 246.024C1158.74 247.01 1158.55 248.112 1158.55 249.33C1158.55 250.581 1158.74 251.679 1159.13 252.624C1159.51 253.569 1160.07 254.306 1160.82 254.836C1161.57 255.367 1162.5 255.632 1163.6 255.632ZM1177.23 259V239.909H1180.95V259H1177.23ZM1179.11 236.963C1178.46 236.963 1177.91 236.748 1177.45 236.317C1176.99 235.878 1176.76 235.356 1176.76 234.751C1176.76 234.138 1176.99 233.616 1177.45 233.185C1177.91 232.746 1178.46 232.526 1179.11 232.526C1179.76 232.526 1180.31 232.746 1180.76 233.185C1181.23 233.616 1181.46 234.138 1181.46 234.751C1181.46 235.356 1181.23 235.878 1180.76 236.317C1180.31 236.748 1179.76 236.963 1179.11 236.963ZM1189.67 247.665V259H1185.95V239.909H1189.52V243.016H1189.75C1190.19 242.005 1190.88 241.193 1191.82 240.58C1192.76 239.967 1193.95 239.661 1195.38 239.661C1196.68 239.661 1197.82 239.934 1198.8 240.481C1199.78 241.019 1200.54 241.823 1201.08 242.892C1201.61 243.961 1201.88 245.283 1201.88 246.857V259H1198.17V247.304C1198.17 245.921 1197.81 244.839 1197.09 244.06C1196.37 243.273 1195.38 242.88 1194.12 242.88C1193.25 242.88 1192.49 243.066 1191.82 243.439C1191.15 243.812 1190.63 244.359 1190.24 245.08C1189.86 245.792 1189.67 246.654 1189.67 247.665ZM1216.13 266.159V239.909H1219.76V243.004H1220.07C1220.29 242.606 1220.6 242.146 1221 241.624C1221.41 241.102 1221.97 240.647 1222.69 240.257C1223.41 239.859 1224.37 239.661 1225.55 239.661C1227.09 239.661 1228.47 240.05 1229.68 240.829C1230.89 241.608 1231.84 242.73 1232.52 244.197C1233.22 245.664 1233.57 247.429 1233.57 249.492C1233.57 251.555 1233.22 253.324 1232.54 254.799C1231.85 256.266 1230.9 257.397 1229.7 258.192C1228.5 258.979 1227.13 259.373 1225.59 259.373C1224.43 259.373 1223.48 259.178 1222.74 258.789C1222.01 258.399 1221.44 257.944 1221.03 257.422C1220.61 256.9 1220.29 256.435 1220.07 256.029H1219.85V266.159H1216.13ZM1219.77 249.455C1219.77 250.797 1219.97 251.973 1220.36 252.984C1220.75 253.995 1221.31 254.787 1222.05 255.358C1222.78 255.922 1223.69 256.203 1224.76 256.203C1225.87 256.203 1226.79 255.909 1227.54 255.321C1228.29 254.724 1228.85 253.917 1229.23 252.897C1229.62 251.878 1229.81 250.731 1229.81 249.455C1229.81 248.195 1229.62 247.064 1229.24 246.061C1228.87 245.059 1228.31 244.268 1227.55 243.688C1226.81 243.107 1225.87 242.817 1224.76 242.817C1223.68 242.817 1222.77 243.095 1222.02 243.65C1221.28 244.205 1220.73 244.98 1220.34 245.974C1219.96 246.969 1219.77 248.129 1219.77 249.455ZM1243.29 259.423C1242.08 259.423 1240.98 259.199 1240.01 258.751C1239.03 258.296 1238.25 257.637 1237.68 256.775C1237.12 255.913 1236.84 254.857 1236.84 253.606C1236.84 252.529 1237.04 251.642 1237.46 250.946C1237.87 250.25 1238.43 249.699 1239.14 249.293C1239.84 248.887 1240.63 248.58 1241.5 248.373C1242.37 248.166 1243.25 248.009 1244.16 247.901C1245.3 247.768 1246.23 247.661 1246.94 247.578C1247.65 247.487 1248.17 247.342 1248.5 247.143C1248.82 246.944 1248.98 246.621 1248.98 246.173V246.086C1248.98 245.001 1248.67 244.16 1248.06 243.563C1247.46 242.967 1246.55 242.668 1245.35 242.668C1244.1 242.668 1243.11 242.946 1242.39 243.501C1241.68 244.048 1241.19 244.657 1240.91 245.328L1237.42 244.533C1237.84 243.373 1238.44 242.436 1239.24 241.724C1240.04 241.003 1240.96 240.481 1242.01 240.158C1243.05 239.826 1244.15 239.661 1245.3 239.661C1246.06 239.661 1246.87 239.752 1247.72 239.934C1248.59 240.108 1249.39 240.431 1250.14 240.903C1250.89 241.376 1251.51 242.051 1251.99 242.929C1252.47 243.799 1252.71 244.93 1252.71 246.322V259H1249.08V256.39H1248.93C1248.69 256.871 1248.33 257.343 1247.85 257.807C1247.37 258.271 1246.75 258.656 1246 258.963C1245.24 259.269 1244.34 259.423 1243.29 259.423ZM1244.1 256.44C1245.12 256.44 1246 256.237 1246.73 255.831C1247.47 255.425 1248.03 254.894 1248.41 254.24C1248.8 253.577 1248.99 252.868 1248.99 252.114V249.653C1248.86 249.786 1248.6 249.91 1248.22 250.026C1247.85 250.134 1247.42 250.229 1246.94 250.312C1246.46 250.387 1245.99 250.457 1245.54 250.523C1245.08 250.581 1244.7 250.631 1244.39 250.673C1243.67 250.764 1243.01 250.917 1242.42 251.132C1241.83 251.348 1241.36 251.659 1241 252.065C1240.65 252.462 1240.48 252.993 1240.48 253.656C1240.48 254.575 1240.82 255.271 1241.5 255.744C1242.18 256.208 1243.04 256.44 1244.1 256.44ZM1259.32 266.159C1258.77 266.159 1258.26 266.114 1257.81 266.022C1257.35 265.94 1257.01 265.848 1256.79 265.749L1257.68 262.704C1258.36 262.886 1258.97 262.965 1259.5 262.94C1260.03 262.915 1260.5 262.716 1260.9 262.343C1261.32 261.971 1261.68 261.362 1262 260.516L1262.46 259.249L1255.47 239.909H1259.45L1264.28 254.724H1264.48L1269.32 239.909H1273.31L1265.44 261.548C1265.07 262.542 1264.61 263.383 1264.05 264.071C1263.48 264.767 1262.81 265.289 1262.03 265.637C1261.25 265.985 1260.35 266.159 1259.32 266.159ZM1280.52 233.545V259H1276.8V233.545H1280.52ZM1293.56 259.385C1291.77 259.385 1290.21 258.975 1288.87 258.155C1287.54 257.335 1286.5 256.187 1285.76 254.712C1285.03 253.237 1284.66 251.514 1284.66 249.542C1284.66 247.561 1285.03 245.829 1285.76 244.346C1286.5 242.863 1287.54 241.711 1288.87 240.891C1290.21 240.071 1291.77 239.661 1293.56 239.661C1295.35 239.661 1296.91 240.071 1298.24 240.891C1299.58 241.711 1300.61 242.863 1301.35 244.346C1302.09 245.829 1302.46 247.561 1302.46 249.542C1302.46 251.514 1302.09 253.237 1301.35 254.712C1300.61 256.187 1299.58 257.335 1298.24 258.155C1296.91 258.975 1295.35 259.385 1293.56 259.385ZM1293.57 256.266C1294.73 256.266 1295.69 255.959 1296.45 255.346C1297.22 254.733 1297.78 253.917 1298.14 252.897C1298.52 251.878 1298.7 250.755 1298.7 249.529C1298.7 248.311 1298.52 247.192 1298.14 246.173C1297.78 245.146 1297.22 244.321 1296.45 243.7C1295.69 243.078 1294.73 242.768 1293.57 242.768C1292.4 242.768 1291.43 243.078 1290.66 243.7C1289.9 244.321 1289.33 245.146 1288.96 246.173C1288.59 247.192 1288.41 248.311 1288.41 249.529C1288.41 250.755 1288.59 251.878 1288.96 252.897C1289.33 253.917 1289.9 254.733 1290.66 255.346C1291.43 255.959 1292.4 256.266 1293.57 256.266ZM1312.16 259.423C1310.95 259.423 1309.86 259.199 1308.88 258.751C1307.9 258.296 1307.13 257.637 1306.55 256.775C1305.99 255.913 1305.71 254.857 1305.71 253.606C1305.71 252.529 1305.92 251.642 1306.33 250.946C1306.75 250.25 1307.3 249.699 1308.01 249.293C1308.71 248.887 1309.5 248.58 1310.37 248.373C1311.24 248.166 1312.13 248.009 1313.03 247.901C1314.17 247.768 1315.1 247.661 1315.81 247.578C1316.53 247.487 1317.04 247.342 1317.37 247.143C1317.69 246.944 1317.85 246.621 1317.85 246.173V246.086C1317.85 245.001 1317.55 244.16 1316.93 243.563C1316.33 242.967 1315.42 242.668 1314.22 242.668C1312.97 242.668 1311.99 242.946 1311.27 243.501C1310.55 244.048 1310.06 244.657 1309.79 245.328L1306.29 244.533C1306.71 243.373 1307.31 242.436 1308.11 241.724C1308.91 241.003 1309.84 240.481 1310.88 240.158C1311.92 239.826 1313.02 239.661 1314.17 239.661C1314.94 239.661 1315.74 239.752 1316.6 239.934C1317.46 240.108 1318.26 240.431 1319.01 240.903C1319.76 241.376 1320.38 242.051 1320.86 242.929C1321.34 243.799 1321.58 244.93 1321.58 246.322V259H1317.95V256.39H1317.8C1317.56 256.871 1317.2 257.343 1316.72 257.807C1316.24 258.271 1315.62 258.656 1314.87 258.963C1314.12 259.269 1313.21 259.423 1312.16 259.423ZM1312.97 256.44C1314 256.44 1314.87 256.237 1315.6 255.831C1316.34 255.425 1316.9 254.894 1317.28 254.24C1317.67 253.577 1317.86 252.868 1317.86 252.114V249.653C1317.73 249.786 1317.48 249.91 1317.09 250.026C1316.72 250.134 1316.29 250.229 1315.81 250.312C1315.33 250.387 1314.87 250.457 1314.41 250.523C1313.95 250.581 1313.57 250.631 1313.27 250.673C1312.55 250.764 1311.89 250.917 1311.29 251.132C1310.7 251.348 1310.23 251.659 1309.87 252.065C1309.52 252.462 1309.35 252.993 1309.35 253.656C1309.35 254.575 1309.69 255.271 1310.37 255.744C1311.05 256.208 1311.92 256.44 1312.97 256.44ZM1333.68 259.373C1332.14 259.373 1330.76 258.979 1329.55 258.192C1328.35 257.397 1327.41 256.266 1326.72 254.799C1326.04 253.324 1325.7 251.555 1325.7 249.492C1325.7 247.429 1326.04 245.664 1326.73 244.197C1327.43 242.73 1328.38 241.608 1329.59 240.829C1330.8 240.05 1332.17 239.661 1333.7 239.661C1334.89 239.661 1335.84 239.859 1336.56 240.257C1337.29 240.647 1337.85 241.102 1338.25 241.624C1338.66 242.146 1338.97 242.606 1339.2 243.004H1339.42V233.545H1343.14V259H1339.51V256.029H1339.2C1338.97 256.435 1338.65 256.9 1338.23 257.422C1337.81 257.944 1337.24 258.399 1336.51 258.789C1335.78 259.178 1334.84 259.373 1333.68 259.373ZM1334.5 256.203C1335.57 256.203 1336.47 255.922 1337.21 255.358C1337.95 254.787 1338.52 253.995 1338.9 252.984C1339.29 251.973 1339.48 250.797 1339.48 249.455C1339.48 248.129 1339.29 246.969 1338.91 245.974C1338.53 244.98 1337.97 244.205 1337.23 243.65C1336.49 243.095 1335.58 242.817 1334.5 242.817C1333.38 242.817 1332.45 243.107 1331.7 243.688C1330.96 244.268 1330.39 245.059 1330.01 246.061C1329.64 247.064 1329.45 248.195 1329.45 249.455C1329.45 250.731 1329.64 251.878 1330.02 252.897C1330.4 253.917 1330.97 254.724 1331.71 255.321C1332.47 255.909 1333.4 256.203 1334.5 256.203ZM1366.61 239.909V242.892H1356.19V239.909L1366.61 239.909ZM1358.98 235.335H1362.7V253.395C1362.7 254.115 1362.81 254.658 1363.02 255.023C1363.24 255.379 1363.52 255.623 1363.86 255.756C1364.2 255.88 1364.58 255.942 1364.99 255.942C1365.28 255.942 1365.55 255.922 1365.77 255.88C1365.99 255.839 1366.17 255.806 1366.29 255.781L1366.96 258.851C1366.75 258.934 1366.44 259.017 1366.04 259.099C1365.64 259.191 1365.15 259.24 1364.55 259.249C1363.57 259.265 1362.66 259.091 1361.82 258.727C1360.97 258.362 1360.29 257.799 1359.77 257.036C1359.24 256.274 1358.98 255.317 1358.98 254.165V235.335ZM1378.56 259.385C1376.77 259.385 1375.21 258.975 1373.88 258.155C1372.54 257.335 1371.51 256.187 1370.77 254.712C1370.03 253.237 1369.66 251.514 1369.66 249.542C1369.66 247.561 1370.03 245.829 1370.77 244.346C1371.51 242.863 1372.54 241.711 1373.88 240.891C1375.21 240.071 1376.77 239.661 1378.56 239.661C1380.35 239.661 1381.91 240.071 1383.25 240.891C1384.58 241.711 1385.62 242.863 1386.35 244.346C1387.09 245.829 1387.46 247.561 1387.46 249.542C1387.46 251.514 1387.09 253.237 1386.35 254.712C1385.62 256.187 1384.58 257.335 1383.25 258.155C1381.91 258.975 1380.35 259.385 1378.56 259.385ZM1378.57 256.266C1379.73 256.266 1380.7 255.959 1381.46 255.346C1382.22 254.733 1382.78 253.917 1383.15 252.897C1383.52 251.878 1383.71 250.755 1383.71 249.529C1383.71 248.311 1383.52 247.192 1383.15 246.173C1382.78 245.146 1382.22 244.321 1381.46 243.7C1380.7 243.078 1379.73 242.768 1378.57 242.768C1377.41 242.768 1376.44 243.078 1375.67 243.7C1374.9 244.321 1374.34 245.146 1373.96 246.173C1373.6 247.192 1373.42 248.311 1373.42 249.529C1373.42 250.755 1373.6 251.878 1373.96 252.897C1374.34 253.917 1374.9 254.733 1375.67 255.346C1376.44 255.959 1377.41 256.266 1378.57 256.266ZM1410.57 232.352L1402.36 262.828H1399.04L1407.25 232.352H1410.57ZM1426.7 233.545V259H1422.99V233.545H1426.7ZM1439.74 259.385C1437.95 259.385 1436.39 258.975 1435.06 258.155C1433.72 257.335 1432.69 256.187 1431.95 254.712C1431.21 253.237 1430.84 251.514 1430.84 249.542C1430.84 247.561 1431.21 245.829 1431.95 244.346C1432.69 242.863 1433.72 241.711 1435.06 240.891C1436.39 240.071 1437.95 239.661 1439.74 239.661C1441.53 239.661 1443.1 240.071 1444.43 240.891C1445.76 241.711 1446.8 242.863 1447.54 244.346C1448.27 245.829 1448.64 247.561 1448.64 249.542C1448.64 251.514 1448.27 253.237 1447.54 254.712C1446.8 256.187 1445.76 257.335 1444.43 258.155C1443.1 258.975 1441.53 259.385 1439.74 259.385ZM1439.76 256.266C1440.92 256.266 1441.88 255.959 1442.64 255.346C1443.4 254.733 1443.97 253.917 1444.33 252.897C1444.7 251.878 1444.89 250.755 1444.89 249.529C1444.89 248.311 1444.7 247.192 1444.33 246.173C1443.97 245.146 1443.4 244.321 1442.64 243.7C1441.88 243.078 1440.92 242.768 1439.76 242.768C1438.59 242.768 1437.62 243.078 1436.85 243.7C1436.09 244.321 1435.52 245.146 1435.14 246.173C1434.78 247.192 1434.6 248.311 1434.6 249.529C1434.6 250.755 1434.78 251.878 1435.14 252.897C1435.52 253.917 1436.09 254.733 1436.85 255.346C1437.62 255.959 1438.59 256.266 1439.76 256.266ZM1460.79 266.557C1459.28 266.557 1457.97 266.358 1456.88 265.96C1455.79 265.563 1454.91 265.036 1454.22 264.382C1453.53 263.727 1453.02 263.01 1452.68 262.232L1455.87 260.914C1456.1 261.279 1456.4 261.664 1456.77 262.07C1457.15 262.484 1457.66 262.836 1458.31 263.126C1458.96 263.416 1459.8 263.561 1460.83 263.561C1462.24 263.561 1463.41 263.218 1464.32 262.53C1465.24 261.85 1465.7 260.765 1465.7 259.273V255.52H1465.47C1465.24 255.926 1464.92 256.377 1464.5 256.875C1464.08 257.372 1463.51 257.803 1462.78 258.167C1462.05 258.532 1461.11 258.714 1459.94 258.714C1458.43 258.714 1457.07 258.362 1455.86 257.658C1454.66 256.945 1453.71 255.897 1453 254.513C1452.31 253.121 1451.96 251.41 1451.96 249.38C1451.96 247.35 1452.3 245.61 1452.99 244.16C1453.69 242.71 1454.64 241.599 1455.85 240.829C1457.06 240.05 1458.43 239.661 1459.96 239.661C1461.15 239.661 1462.1 239.859 1462.83 240.257C1463.56 240.647 1464.13 241.102 1464.54 241.624C1464.95 242.146 1465.27 242.606 1465.49 243.004H1465.77V239.909H1469.41V259.423C1469.41 261.063 1469.03 262.41 1468.26 263.462C1467.5 264.514 1466.47 265.293 1465.17 265.799C1463.88 266.304 1462.42 266.557 1460.79 266.557ZM1460.76 255.632C1461.83 255.632 1462.73 255.383 1463.47 254.886C1464.21 254.381 1464.78 253.66 1465.16 252.723C1465.55 251.779 1465.74 250.648 1465.74 249.33C1465.74 248.046 1465.55 246.915 1465.17 245.937C1464.79 244.959 1464.23 244.197 1463.49 243.65C1462.75 243.095 1461.84 242.817 1460.76 242.817C1459.64 242.817 1458.71 243.107 1457.96 243.688C1457.22 244.259 1456.65 245.038 1456.27 246.024C1455.9 247.01 1455.71 248.112 1455.71 249.33C1455.71 250.581 1455.9 251.679 1456.28 252.624C1456.66 253.569 1457.23 254.306 1457.97 254.836C1458.73 255.367 1459.66 255.632 1460.76 255.632ZM1474.39 259V239.909H1478.11V259H1474.39ZM1476.27 236.963C1475.62 236.963 1475.07 236.748 1474.6 236.317C1474.15 235.878 1473.92 235.356 1473.92 234.751C1473.92 234.138 1474.15 233.616 1474.6 233.185C1475.07 232.746 1475.62 232.526 1476.27 232.526C1476.92 232.526 1477.47 232.746 1477.92 233.185C1478.39 233.616 1478.62 234.138 1478.62 234.751C1478.62 235.356 1478.39 235.878 1477.92 236.317C1477.47 236.748 1476.92 236.963 1476.27 236.963ZM1486.82 247.665V259H1483.11V239.909H1486.68V243.016H1486.91C1487.35 242.005 1488.04 241.193 1488.97 240.58C1489.92 239.967 1491.11 239.661 1492.54 239.661C1493.84 239.661 1494.98 239.934 1495.96 240.481C1496.94 241.019 1497.7 241.823 1498.23 242.892C1498.77 243.961 1499.04 245.283 1499.04 246.857V259H1495.33V247.304C1495.33 245.921 1494.97 244.839 1494.24 244.06C1493.52 243.273 1492.53 242.88 1491.27 242.88C1490.41 242.88 1489.65 243.066 1488.97 243.439C1488.31 243.812 1487.79 244.359 1487.4 245.08C1487.01 245.792 1486.82 246.654 1486.82 247.665Z" fill="#777777"/>
<path d="M744.655 450L764.655 461.547L764.655 438.453L744.655 450ZM762.655 452L1654.62 452L1654.62 448L762.655 448L762.655 452Z" fill="#777777"/>
<path d="M980.35 406.5V381.045H989.423C991.395 381.045 993.031 381.385 994.332 382.065C995.641 382.744 996.619 383.685 997.266 384.886C997.912 386.079 998.235 387.459 998.235 389.025C998.235 390.583 997.908 391.954 997.253 393.139C996.607 394.315 995.629 395.231 994.32 395.886C993.019 396.54 991.383 396.868 989.41 396.868H982.537V393.561H989.062C990.305 393.561 991.316 393.383 992.095 393.027C992.882 392.671 993.458 392.153 993.823 391.473C994.187 390.794 994.37 389.978 994.37 389.025C994.37 388.064 994.183 387.231 993.81 386.527C993.446 385.822 992.87 385.284 992.083 384.911C991.304 384.53 990.28 384.339 989.013 384.339H984.19V406.5H980.35ZM992.915 395.016L999.204 406.5H994.829L988.665 395.016H992.915ZM1010.6 406.885C1008.72 406.885 1007.1 406.483 1005.74 405.68C1004.39 404.868 1003.34 403.728 1002.61 402.262C1001.88 400.787 1001.51 399.059 1001.51 397.079C1001.51 395.123 1001.88 393.4 1002.61 391.908C1003.34 390.417 1004.37 389.253 1005.69 388.416C1007.02 387.579 1008.56 387.161 1010.34 387.161C1011.41 387.161 1012.46 387.339 1013.47 387.695C1014.48 388.051 1015.39 388.611 1016.19 389.373C1017 390.135 1017.63 391.125 1018.09 392.343C1018.56 393.553 1018.79 395.024 1018.79 396.756V398.073H1003.61V395.289H1015.15C1015.15 394.311 1014.95 393.445 1014.55 392.691C1014.15 391.929 1013.59 391.328 1012.87 390.889C1012.16 390.45 1011.32 390.23 1010.36 390.23C1009.32 390.23 1008.41 390.487 1007.63 391.001C1006.86 391.507 1006.26 392.169 1005.84 392.99C1005.42 393.802 1005.22 394.684 1005.22 395.637V397.812C1005.22 399.088 1005.44 400.174 1005.89 401.069C1006.34 401.963 1006.98 402.647 1007.79 403.119C1008.6 403.583 1009.55 403.815 1010.64 403.815C1011.34 403.815 1011.98 403.716 1012.56 403.517C1013.14 403.31 1013.64 403.003 1014.07 402.597C1014.49 402.191 1014.81 401.69 1015.04 401.093L1018.55 401.727C1018.27 402.763 1017.77 403.67 1017.04 404.449C1016.32 405.22 1015.41 405.821 1014.32 406.251C1013.23 406.674 1011.99 406.885 1010.6 406.885ZM1031.82 387.409V390.392H1021.4V387.409H1031.82ZM1024.19 382.835H1027.91V400.895C1027.91 401.615 1028.02 402.158 1028.23 402.523C1028.45 402.879 1028.73 403.123 1029.07 403.256C1029.41 403.38 1029.79 403.442 1030.2 403.442C1030.49 403.442 1030.76 403.422 1030.98 403.38C1031.2 403.339 1031.38 403.306 1031.5 403.281L1032.17 406.351C1031.96 406.434 1031.65 406.517 1031.25 406.599C1030.85 406.691 1030.36 406.74 1029.76 406.749C1028.78 406.765 1027.87 406.591 1027.03 406.227C1026.18 405.862 1025.5 405.299 1024.98 404.536C1024.45 403.774 1024.19 402.817 1024.19 401.665V382.835ZM1048.03 398.583V387.409H1051.76V406.5H1048.1V403.194H1047.9C1047.47 404.213 1046.76 405.062 1045.79 405.742C1044.83 406.413 1043.63 406.749 1042.2 406.749C1040.97 406.749 1039.89 406.479 1038.94 405.941C1038.01 405.394 1037.27 404.586 1036.73 403.517C1036.2 402.448 1035.94 401.127 1035.94 399.552V387.409H1039.65V399.105C1039.65 400.406 1040.01 401.441 1040.73 402.212C1041.45 402.983 1042.39 403.368 1043.54 403.368C1044.24 403.368 1044.93 403.194 1045.62 402.846C1046.31 402.498 1046.89 401.972 1047.35 401.267C1047.81 400.563 1048.04 399.668 1048.03 398.583ZM1056.75 406.5V387.409H1060.34V390.442H1060.54C1060.89 389.414 1061.5 388.606 1062.38 388.018C1063.27 387.422 1064.27 387.123 1065.39 387.123C1065.62 387.123 1065.89 387.132 1066.21 387.148C1066.53 387.165 1066.78 387.185 1066.97 387.21V390.765C1066.82 390.723 1066.55 390.678 1066.17 390.628C1065.79 390.57 1065.41 390.541 1065.03 390.541C1064.15 390.541 1063.37 390.728 1062.68 391.1C1062 391.465 1061.46 391.975 1061.06 392.629C1060.67 393.276 1060.47 394.013 1060.47 394.842V406.5H1056.75ZM1073.9 395.165V406.5H1070.18V387.409H1073.75V390.516H1073.99C1074.43 389.505 1075.11 388.693 1076.05 388.08C1076.99 387.467 1078.18 387.161 1079.62 387.161C1080.92 387.161 1082.06 387.434 1083.03 387.981C1084.01 388.519 1084.77 389.323 1085.31 390.392C1085.85 391.461 1086.12 392.783 1086.12 394.357V406.5H1082.4V394.804C1082.4 393.421 1082.04 392.339 1081.32 391.56C1080.6 390.773 1079.61 390.38 1078.35 390.38C1077.49 390.38 1076.72 390.566 1076.05 390.939C1075.39 391.312 1074.86 391.859 1074.47 392.58C1074.09 393.292 1073.9 394.154 1073.9 395.165ZM1110.56 381.045H1114.38V399.092C1114.38 400.725 1114.06 402.121 1113.41 403.281C1112.78 404.441 1111.88 405.328 1110.72 405.941C1109.56 406.546 1108.2 406.848 1106.64 406.848C1105.21 406.848 1103.92 406.587 1102.78 406.065C1101.64 405.543 1100.74 404.785 1100.08 403.79C1099.42 402.788 1099.1 401.57 1099.1 400.136H1102.91C1102.91 400.841 1103.07 401.45 1103.4 401.963C1103.73 402.477 1104.18 402.879 1104.75 403.169C1105.33 403.451 1105.99 403.592 1106.74 403.592C1107.55 403.592 1108.24 403.422 1108.8 403.082C1109.37 402.734 1109.81 402.224 1110.11 401.553C1110.41 400.882 1110.56 400.062 1110.56 399.092V381.045ZM1124.96 406.5L1117.9 381.045H1121.94L1126.9 400.758H1127.13L1132.29 381.045H1136.29L1141.45 400.77H1141.69L1146.63 381.045H1150.69L1143.61 406.5H1139.75L1134.39 387.434H1134.19L1128.84 406.5H1124.96ZM1152.93 384.352V381.045H1172.63V384.352H1164.69V406.5H1160.86V384.352H1152.93ZM1194.86 387.409V390.392H1184.43V387.409H1194.86ZM1187.23 382.835H1190.95V400.895C1190.95 401.615 1191.05 402.158 1191.27 402.523C1191.48 402.879 1191.76 403.123 1192.1 403.256C1192.45 403.38 1192.83 403.442 1193.23 403.442C1193.53 403.442 1193.79 403.422 1194.02 403.38C1194.24 403.339 1194.41 403.306 1194.54 403.281L1195.21 406.351C1194.99 406.434 1194.69 406.517 1194.29 406.599C1193.89 406.691 1193.39 406.74 1192.8 406.749C1191.82 406.765 1190.91 406.591 1190.06 406.227C1189.22 405.862 1188.54 405.299 1188.01 404.536C1187.49 403.774 1187.23 402.817 1187.23 401.665V382.835ZM1206.81 406.885C1205.02 406.885 1203.46 406.475 1202.12 405.655C1200.79 404.835 1199.75 403.687 1199.02 402.212C1198.28 400.737 1197.91 399.014 1197.91 397.042C1197.91 395.061 1198.28 393.329 1199.02 391.846C1199.75 390.363 1200.79 389.211 1202.12 388.391C1203.46 387.571 1205.02 387.161 1206.81 387.161C1208.6 387.161 1210.16 387.571 1211.49 388.391C1212.83 389.211 1213.86 390.363 1214.6 391.846C1215.34 393.329 1215.71 395.061 1215.71 397.042C1215.71 399.014 1215.34 400.737 1214.6 402.212C1213.86 403.687 1212.83 404.835 1211.49 405.655C1210.16 406.475 1208.6 406.885 1206.81 406.885ZM1206.82 403.766C1207.98 403.766 1208.94 403.459 1209.7 402.846C1210.47 402.233 1211.03 401.417 1211.4 400.397C1211.77 399.378 1211.95 398.255 1211.95 397.029C1211.95 395.811 1211.77 394.692 1211.4 393.673C1211.03 392.646 1210.47 391.821 1209.7 391.2C1208.94 390.578 1207.98 390.268 1206.82 390.268C1205.65 390.268 1204.68 390.578 1203.91 391.2C1203.15 391.821 1202.58 392.646 1202.21 393.673C1201.85 394.692 1201.66 395.811 1201.66 397.029C1201.66 398.255 1201.85 399.378 1202.21 400.397C1202.58 401.417 1203.15 402.233 1203.91 402.846C1204.68 403.459 1205.65 403.766 1206.82 403.766ZM1223.27 400.025L1223.25 395.488H1223.9L1231.5 387.409H1235.95L1227.28 396.607H1226.69L1223.27 400.025ZM1219.86 406.5V381.045H1223.57V406.5H1219.86ZM1231.91 406.5L1225.08 397.427L1227.64 394.829L1236.47 406.5H1231.91ZM1246.78 406.885C1244.9 406.885 1243.28 406.483 1241.92 405.68C1240.57 404.868 1239.53 403.728 1238.79 402.262C1238.06 400.787 1237.69 399.059 1237.69 397.079C1237.69 395.123 1238.06 393.4 1238.79 391.908C1239.53 390.417 1240.55 389.253 1241.87 388.416C1243.2 387.579 1244.75 387.161 1246.52 387.161C1247.6 387.161 1248.64 387.339 1249.65 387.695C1250.66 388.051 1251.57 388.611 1252.37 389.373C1253.18 390.135 1253.81 391.125 1254.28 392.343C1254.74 393.553 1254.97 395.024 1254.97 396.756V398.073H1239.8V395.289H1251.33C1251.33 394.311 1251.13 393.445 1250.73 392.691C1250.34 391.929 1249.78 391.328 1249.05 390.889C1248.34 390.45 1247.51 390.23 1246.54 390.23C1245.5 390.23 1244.59 390.487 1243.81 391.001C1243.04 391.507 1242.44 392.169 1242.02 392.99C1241.61 393.802 1241.4 394.684 1241.4 395.637V397.812C1241.4 399.088 1241.62 400.174 1242.07 401.069C1242.53 401.963 1243.16 402.647 1243.97 403.119C1244.78 403.583 1245.73 403.815 1246.82 403.815C1247.52 403.815 1248.16 403.716 1248.74 403.517C1249.32 403.31 1249.83 403.003 1250.25 402.597C1250.67 402.191 1250.99 401.69 1251.22 401.093L1254.73 401.727C1254.45 402.763 1253.95 403.67 1253.22 404.449C1252.5 405.22 1251.59 405.821 1250.5 406.251C1249.41 406.674 1248.17 406.885 1246.78 406.885ZM1262.81 395.165V406.5H1259.09V387.409H1262.66V390.516H1262.9C1263.34 389.505 1264.02 388.693 1264.96 388.08C1265.91 387.467 1267.09 387.161 1268.53 387.161C1269.83 387.161 1270.97 387.434 1271.95 387.981C1272.92 388.519 1273.68 389.323 1274.22 390.392C1274.76 391.461 1275.03 392.783 1275.03 394.357V406.5H1271.31V394.804C1271.31 393.421 1270.95 392.339 1270.23 391.56C1269.51 390.773 1268.52 390.38 1267.26 390.38C1266.4 390.38 1265.63 390.566 1264.96 390.939C1264.3 391.312 1263.77 391.859 1263.38 392.58C1263 393.292 1262.81 394.154 1262.81 395.165ZM1298.19 387.409V390.392H1287.76V387.409H1298.19ZM1290.56 382.835H1294.27V400.895C1294.27 401.615 1294.38 402.158 1294.59 402.523C1294.81 402.879 1295.09 403.123 1295.43 403.256C1295.78 403.38 1296.15 403.442 1296.56 403.442C1296.86 403.442 1297.12 403.422 1297.34 403.38C1297.57 403.339 1297.74 403.306 1297.86 403.281L1298.53 406.351C1298.32 406.434 1298.01 406.517 1297.61 406.599C1297.22 406.691 1296.72 406.74 1296.12 406.749C1295.15 406.765 1294.23 406.591 1293.39 406.227C1292.54 405.862 1291.86 405.299 1291.34 404.536C1290.82 403.774 1290.56 402.817 1290.56 401.665V382.835ZM1310.13 406.885C1308.34 406.885 1306.78 406.475 1305.45 405.655C1304.11 404.835 1303.08 403.687 1302.34 402.212C1301.6 400.737 1301.23 399.014 1301.23 397.042C1301.23 395.061 1301.6 393.329 1302.34 391.846C1303.08 390.363 1304.11 389.211 1305.45 388.391C1306.78 387.571 1308.34 387.161 1310.13 387.161C1311.92 387.161 1313.49 387.571 1314.82 388.391C1316.15 389.211 1317.19 390.363 1317.93 391.846C1318.66 393.329 1319.03 395.061 1319.03 397.042C1319.03 399.014 1318.66 400.737 1317.93 402.212C1317.19 403.687 1316.15 404.835 1314.82 405.655C1313.49 406.475 1311.92 406.885 1310.13 406.885ZM1310.15 403.766C1311.31 403.766 1312.27 403.459 1313.03 402.846C1313.79 402.233 1314.36 401.417 1314.72 400.397C1315.09 399.378 1315.28 398.255 1315.28 397.029C1315.28 395.811 1315.09 394.692 1314.72 393.673C1314.36 392.646 1313.79 391.821 1313.03 391.2C1312.27 390.578 1311.31 390.268 1310.15 390.268C1308.98 390.268 1308.01 390.578 1307.24 391.2C1306.48 391.821 1305.91 392.646 1305.54 393.673C1305.17 394.692 1304.99 395.811 1304.99 397.029C1304.99 398.255 1305.17 399.378 1305.54 400.397C1305.91 401.417 1306.48 402.233 1307.24 402.846C1308.01 403.459 1308.98 403.766 1310.15 403.766ZM1340.49 406.885C1338.64 406.885 1337.05 406.467 1335.71 405.63C1334.39 404.785 1333.37 403.621 1332.66 402.137C1331.94 400.654 1331.59 398.956 1331.59 397.042C1331.59 395.103 1331.95 393.392 1332.68 391.908C1333.41 390.417 1334.44 389.253 1335.76 388.416C1337.09 387.579 1338.65 387.161 1340.45 387.161C1341.9 387.161 1343.19 387.43 1344.33 387.968C1345.46 388.499 1346.38 389.244 1347.07 390.206C1347.78 391.167 1348.2 392.29 1348.33 393.574H1344.71C1344.51 392.679 1344.06 391.908 1343.34 391.262C1342.64 390.616 1341.7 390.293 1340.51 390.293C1339.47 390.293 1338.57 390.566 1337.79 391.113C1337.02 391.652 1336.42 392.422 1335.99 393.425C1335.56 394.419 1335.34 395.596 1335.34 396.955C1335.34 398.347 1335.55 399.548 1335.97 400.559C1336.4 401.57 1336.99 402.353 1337.76 402.908C1338.54 403.463 1339.46 403.741 1340.51 403.741C1341.21 403.741 1341.85 403.612 1342.42 403.355C1343 403.09 1343.49 402.713 1343.88 402.224C1344.28 401.736 1344.55 401.147 1344.71 400.46H1348.33C1348.2 401.694 1347.79 402.796 1347.12 403.766C1346.45 404.735 1345.55 405.497 1344.43 406.053C1343.31 406.608 1341.99 406.885 1340.49 406.885ZM1356.02 381.045V406.5H1352.3V381.045H1356.02ZM1361.02 406.5V387.409H1364.73V406.5H1361.02ZM1362.9 384.463C1362.25 384.463 1361.69 384.248 1361.23 383.817C1360.77 383.378 1360.55 382.856 1360.55 382.251C1360.55 381.638 1360.77 381.116 1361.23 380.685C1361.69 380.246 1362.25 380.026 1362.9 380.026C1363.54 380.026 1364.09 380.246 1364.55 380.685C1365.01 381.116 1365.24 381.638 1365.24 382.251C1365.24 382.856 1365.01 383.378 1364.55 383.817C1364.09 384.248 1363.54 384.463 1362.9 384.463ZM1377.96 406.885C1376.08 406.885 1374.46 406.483 1373.1 405.68C1371.75 404.868 1370.71 403.728 1369.97 402.262C1369.24 400.787 1368.88 399.059 1368.88 397.079C1368.88 395.123 1369.24 393.4 1369.97 391.908C1370.71 390.417 1371.74 389.253 1373.05 388.416C1374.38 387.579 1375.93 387.161 1377.7 387.161C1378.78 387.161 1379.82 387.339 1380.83 387.695C1381.84 388.051 1382.75 388.611 1383.56 389.373C1384.36 390.135 1384.99 391.125 1385.46 392.343C1385.92 393.553 1386.15 395.024 1386.15 396.756V398.073H1370.98V395.289H1382.51C1382.51 394.311 1382.31 393.445 1381.91 392.691C1381.52 391.929 1380.96 391.328 1380.24 390.889C1379.52 390.45 1378.69 390.23 1377.73 390.23C1376.68 390.23 1375.77 390.487 1374.99 391.001C1374.22 391.507 1373.62 392.169 1373.2 392.99C1372.79 393.802 1372.58 394.684 1372.58 395.637V397.812C1372.58 399.088 1372.8 400.174 1373.25 401.069C1373.71 401.963 1374.34 402.647 1375.15 403.119C1375.97 403.583 1376.91 403.815 1378 403.815C1378.7 403.815 1379.35 403.716 1379.93 403.517C1380.51 403.31 1381.01 403.003 1381.43 402.597C1381.85 402.191 1382.18 401.69 1382.4 401.093L1385.92 401.727C1385.63 402.763 1385.13 403.67 1384.4 404.449C1383.68 405.22 1382.77 405.821 1381.68 406.251C1380.59 406.674 1379.35 406.885 1377.96 406.885ZM1393.99 395.165V406.5H1390.28V387.409H1393.84V390.516H1394.08C1394.52 389.505 1395.21 388.693 1396.14 388.08C1397.09 387.467 1398.28 387.161 1399.71 387.161C1401.01 387.161 1402.15 387.434 1403.13 387.981C1404.11 388.519 1404.86 389.323 1405.4 390.392C1405.94 391.461 1406.21 392.783 1406.21 394.357V406.5H1402.49V394.804C1402.49 393.421 1402.13 392.339 1401.41 391.56C1400.69 390.773 1399.7 390.38 1398.44 390.38C1397.58 390.38 1396.81 390.566 1396.14 390.939C1395.48 391.312 1394.95 391.859 1394.56 392.58C1394.18 393.292 1393.99 394.154 1393.99 395.165ZM1420.11 387.409V390.392H1409.68V387.409H1420.11ZM1412.47 382.835H1416.19V400.895C1416.19 401.615 1416.3 402.158 1416.51 402.523C1416.73 402.879 1417.01 403.123 1417.35 403.256C1417.69 403.38 1418.07 403.442 1418.48 403.442C1418.78 403.442 1419.04 403.422 1419.26 403.38C1419.48 403.339 1419.66 403.306 1419.78 403.281L1420.45 406.351C1420.24 406.434 1419.93 406.517 1419.53 406.599C1419.14 406.691 1418.64 406.74 1418.04 406.749C1417.06 406.765 1416.15 406.591 1415.31 406.227C1414.46 405.862 1413.78 405.299 1413.26 404.536C1412.74 403.774 1412.47 402.817 1412.47 401.665V382.835Z" fill="#777777"/>
<rect x="1678.27" y="68" width="397" height="604" rx="32" fill="url(#paint0_linear_3791_106)"/>
<path fill-rule="evenodd" clip-rule="evenodd" d="M1836.77 278C1834.01 278 1831.77 280.239 1831.77 283V303C1831.77 305.761 1834.01 308 1836.77 308H1916.77C1919.53 308 1921.77 305.761 1921.77 303V283C1921.77 280.239 1919.53 278 1916.77 278H1836.77ZM1821.77 283C1821.77 274.716 1828.49 268 1836.77 268H1916.77C1925.06 268 1931.77 274.716 1931.77 283V303C1931.77 311.284 1925.06 318 1916.77 318H1836.77C1828.49 318 1821.77 311.284 1821.77 303V283Z" fill="white"/>
<path fill-rule="evenodd" clip-rule="evenodd" d="M1836.77 338C1834.01 338 1831.77 340.239 1831.77 343V363C1831.77 365.761 1834.01 368 1836.77 368H1916.77C1919.53 368 1921.77 365.761 1921.77 363V343C1921.77 340.239 1919.53 338 1916.77 338H1836.77ZM1821.77 343C1821.77 334.716 1828.49 328 1836.77 328H1916.77C1925.06 328 1931.77 334.716 1931.77 343V363C1931.77 371.284 1925.06 378 1916.77 378H1836.77C1828.49 378 1821.77 371.284 1821.77 363V343Z" fill="white"/>
<path fill-rule="evenodd" clip-rule="evenodd" d="M1841.77 293C1841.77 290.239 1844.01 288 1846.77 288H1846.82C1849.58 288 1851.82 290.239 1851.82 293C1851.82 295.761 1849.58 298 1846.82 298H1846.77C1844.01 298 1841.77 295.761 1841.77 293Z" fill="white"/>
<path fill-rule="evenodd" clip-rule="evenodd" d="M1841.77 353C1841.77 350.239 1844.01 348 1846.77 348H1846.82C1849.58 348 1851.82 350.239 1851.82 353C1851.82 355.761 1849.58 358 1846.82 358H1846.77C1844.01 358 1841.77 355.761 1841.77 353Z" fill="white"/>
<path d="M1827.35 441.87C1827.18 440.357 1826.48 439.185 1825.25 438.354C1824.01 437.513 1822.45 437.092 1820.58 437.092C1819.24 437.092 1818.08 437.305 1817.1 437.731C1816.12 438.147 1815.35 438.722 1814.81 439.457C1814.28 440.181 1814.01 441.007 1814.01 441.934C1814.01 442.712 1814.19 443.383 1814.55 443.947C1814.93 444.512 1815.41 444.986 1816.01 445.37C1816.62 445.743 1817.27 446.057 1817.96 446.312C1818.65 446.558 1819.32 446.76 1819.96 446.92L1823.15 447.751C1824.2 448.006 1825.27 448.353 1826.36 448.789C1827.46 449.226 1828.48 449.801 1829.42 450.515C1830.35 451.229 1831.11 452.113 1831.69 453.168C1832.27 454.223 1832.56 455.485 1832.56 456.955C1832.56 458.809 1832.09 460.455 1831.13 461.893C1830.18 463.331 1828.8 464.466 1826.99 465.297C1825.19 466.128 1823.01 466.543 1820.45 466.543C1818 466.543 1815.88 466.154 1814.09 465.377C1812.3 464.599 1810.9 463.496 1809.89 462.069C1808.88 460.631 1808.32 458.926 1808.21 456.955H1813.16C1813.26 458.138 1813.64 459.123 1814.32 459.912C1815 460.689 1815.87 461.27 1816.92 461.653C1817.99 462.026 1819.15 462.213 1820.42 462.213C1821.82 462.213 1823.06 461.994 1824.14 461.558C1825.24 461.11 1826.1 460.492 1826.73 459.704C1827.36 458.905 1827.67 457.973 1827.67 456.907C1827.67 455.938 1827.4 455.144 1826.84 454.526C1826.3 453.908 1825.56 453.397 1824.62 452.992C1823.7 452.587 1822.65 452.23 1821.47 451.922L1817.61 450.867C1814.99 450.153 1812.91 449.104 1811.37 447.719C1809.85 446.334 1809.09 444.501 1809.09 442.222C1809.09 440.336 1809.6 438.69 1810.62 437.284C1811.65 435.877 1813.03 434.786 1814.78 434.008C1816.53 433.219 1818.5 432.825 1820.69 432.825C1822.91 432.825 1824.86 433.214 1826.56 433.992C1828.26 434.77 1829.6 435.84 1830.58 437.204C1831.56 438.557 1832.07 440.112 1832.12 441.87H1827.35ZM1848.66 466.495C1846.24 466.495 1844.16 465.979 1842.41 464.945C1840.68 463.901 1839.33 462.436 1838.39 460.551C1837.45 458.654 1836.98 456.433 1836.98 453.887C1836.98 451.373 1837.45 449.157 1838.39 447.239C1839.33 445.322 1840.65 443.825 1842.35 442.749C1844.05 441.673 1846.05 441.135 1848.32 441.135C1849.71 441.135 1851.05 441.364 1852.35 441.822C1853.65 442.28 1854.82 442.999 1855.85 443.979C1856.88 444.96 1857.7 446.233 1858.3 447.799C1858.89 449.354 1859.19 451.245 1859.19 453.472V455.165H1839.68V451.586H1854.51C1854.51 450.329 1854.25 449.216 1853.74 448.246C1853.23 447.266 1852.51 446.494 1851.58 445.929C1850.67 445.364 1849.59 445.082 1848.36 445.082C1847.01 445.082 1845.84 445.412 1844.84 446.073C1843.85 446.723 1843.08 447.575 1842.54 448.63C1842.01 449.674 1841.74 450.808 1841.74 452.033V454.83C1841.74 456.471 1842.03 457.866 1842.6 459.017C1843.19 460.167 1844 461.046 1845.05 461.653C1846.09 462.25 1847.31 462.548 1848.71 462.548C1849.61 462.548 1850.44 462.42 1851.19 462.165C1851.93 461.898 1852.58 461.504 1853.12 460.982C1853.66 460.46 1854.08 459.816 1854.37 459.049L1858.89 459.864C1858.53 461.195 1857.88 462.362 1856.94 463.363C1856.01 464.354 1854.84 465.126 1853.44 465.68C1852.04 466.224 1850.45 466.495 1848.66 466.495ZM1864.49 466V441.455H1869.11V445.354H1869.37C1869.81 444.033 1870.6 442.994 1871.73 442.238C1872.87 441.471 1874.16 441.087 1875.6 441.087C1875.9 441.087 1876.25 441.098 1876.65 441.119C1877.07 441.14 1877.39 441.167 1877.63 441.199V445.769C1877.44 445.716 1877.1 445.657 1876.61 445.593C1876.12 445.519 1875.63 445.482 1875.14 445.482C1874.01 445.482 1873 445.721 1872.12 446.201C1871.24 446.669 1870.55 447.325 1870.04 448.166C1869.53 448.997 1869.27 449.945 1869.27 451.011V466H1864.49ZM1903.51 441.455L1894.61 466H1889.49L1880.58 441.455H1885.71L1891.92 460.343H1892.18L1898.38 441.455H1903.51ZM1917.74 466.495C1915.32 466.495 1913.24 465.979 1911.49 464.945C1909.76 463.901 1908.42 462.436 1907.47 460.551C1906.53 458.654 1906.06 456.433 1906.06 453.887C1906.06 451.373 1906.53 449.157 1907.47 447.239C1908.42 445.322 1909.74 443.825 1911.43 442.749C1913.13 441.673 1915.13 441.135 1917.41 441.135C1918.79 441.135 1920.13 441.364 1921.43 441.822C1922.73 442.28 1923.9 442.999 1924.93 443.979C1925.97 444.96 1926.78 446.233 1927.38 447.799C1927.98 449.354 1928.27 451.245 1928.27 453.472V455.165H1908.76V451.586H1923.59C1923.59 450.329 1923.34 449.216 1922.82 448.246C1922.31 447.266 1921.59 446.494 1920.67 445.929C1919.75 445.364 1918.67 445.082 1917.44 445.082C1916.1 445.082 1914.92 445.412 1913.92 446.073C1912.93 446.723 1912.17 447.575 1911.62 448.63C1911.09 449.674 1910.82 450.808 1910.82 452.033V454.83C1910.82 456.471 1911.11 457.866 1911.69 459.017C1912.27 460.167 1913.09 461.046 1914.13 461.653C1915.18 462.25 1916.39 462.548 1917.79 462.548C1918.7 462.548 1919.52 462.42 1920.27 462.165C1921.01 461.898 1921.66 461.504 1922.2 460.982C1922.74 460.46 1923.16 459.816 1923.45 459.049L1927.97 459.864C1927.61 461.195 1926.96 462.362 1926.02 463.363C1925.09 464.354 1923.93 465.126 1922.52 465.68C1921.12 466.224 1919.53 466.495 1917.74 466.495ZM1933.57 466V441.455H1938.19V445.354H1938.45C1938.9 444.033 1939.68 442.994 1940.81 442.238C1941.95 441.471 1943.24 441.087 1944.68 441.087C1944.98 441.087 1945.33 441.098 1945.74 441.119C1946.15 441.14 1946.48 441.167 1946.71 441.199V445.769C1946.52 445.716 1946.18 445.657 1945.69 445.593C1945.2 445.519 1944.71 445.482 1944.22 445.482C1943.09 445.482 1942.08 445.721 1941.2 446.201C1940.32 446.669 1939.63 447.325 1939.12 448.166C1938.61 448.997 1938.35 449.945 1938.35 451.011V466H1933.57Z" fill="white"/>
<rect x="324" y="68" width="397" height="604" rx="32" fill="url(#paint1_linear_3791_106)"/>
<path fill-rule="evenodd" clip-rule="evenodd" d="M488.016 278C481.112 278 475.516 283.596 475.516 290.5V337.419C475.168 337.943 474.867 338.504 474.618 339.099L468.336 354.148C465.586 360.735 470.425 368 477.564 368H567.436C574.575 368 579.414 360.735 576.664 354.148L570.382 339.099C570.133 338.504 569.832 337.943 569.484 337.419V290.5C569.484 283.596 563.888 278 556.984 278H488.016ZM561.153 342.951H483.847L477.564 358H567.436L561.153 342.951ZM559.484 332.951V290.5C559.484 289.119 558.365 288 556.984 288H488.016C486.635 288 485.516 289.119 485.516 290.5V332.951H559.484Z" fill="white"/>
<path d="M490.502 443.915H485.516C485.324 442.85 484.967 441.913 484.445 441.103C483.923 440.293 483.284 439.606 482.528 439.042C481.771 438.477 480.924 438.051 479.987 437.763C479.06 437.475 478.075 437.332 477.031 437.332C475.145 437.332 473.456 437.806 471.965 438.754C470.484 439.702 469.312 441.092 468.449 442.925C467.597 444.757 467.171 446.994 467.171 449.636C467.171 452.3 467.597 454.548 468.449 456.38C469.312 458.212 470.489 459.597 471.981 460.535C473.472 461.472 475.15 461.941 477.015 461.941C478.048 461.941 479.028 461.803 479.955 461.526C480.892 461.238 481.739 460.817 482.496 460.263C483.252 459.709 483.891 459.033 484.413 458.234C484.946 457.424 485.314 456.497 485.516 455.453L490.502 455.469C490.235 457.078 489.719 458.559 488.952 459.912C488.195 461.254 487.221 462.415 486.027 463.395C484.845 464.365 483.492 465.116 481.968 465.648C480.445 466.181 478.783 466.447 476.983 466.447C474.149 466.447 471.624 465.776 469.408 464.434C467.192 463.081 465.445 461.147 464.167 458.633C462.899 456.119 462.265 453.12 462.265 449.636C462.265 446.142 462.904 443.143 464.183 440.64C465.461 438.125 467.208 436.197 469.424 434.855C471.64 433.502 474.159 432.825 476.983 432.825C478.719 432.825 480.338 433.076 481.841 433.576C483.353 434.066 484.712 434.791 485.916 435.75C487.119 436.698 488.115 437.859 488.904 439.233C489.692 440.597 490.225 442.158 490.502 443.915ZM500.805 433.273V466H496.027V433.273H500.805ZM507.233 466V441.455H512.011V466H507.233ZM509.646 437.667C508.815 437.667 508.101 437.39 507.505 436.836C506.919 436.272 506.626 435.6 506.626 434.823C506.626 434.034 506.919 433.363 507.505 432.809C508.101 432.245 508.815 431.962 509.646 431.962C510.477 431.962 511.185 432.245 511.771 432.809C512.368 433.363 512.666 434.034 512.666 434.823C512.666 435.6 512.368 436.272 511.771 436.836C511.185 437.39 510.477 437.667 509.646 437.667ZM529.018 466.495C526.6 466.495 524.517 465.979 522.77 464.945C521.033 463.901 519.691 462.436 518.743 460.551C517.805 458.654 517.336 456.433 517.336 453.887C517.336 451.373 517.805 449.157 518.743 447.239C519.691 445.322 521.012 443.825 522.706 442.749C524.41 441.673 526.402 441.135 528.682 441.135C530.067 441.135 531.41 441.364 532.709 441.822C534.009 442.28 535.176 442.999 536.209 443.979C537.242 444.96 538.057 446.233 538.654 447.799C539.25 449.354 539.549 451.245 539.549 453.472V455.165H520.037V451.586H534.867C534.867 450.329 534.611 449.216 534.1 448.246C533.588 447.266 532.869 446.494 531.942 445.929C531.026 445.364 529.95 445.082 528.714 445.082C527.372 445.082 526.2 445.412 525.199 446.073C524.208 446.723 523.441 447.575 522.898 448.63C522.365 449.674 522.099 450.808 522.099 452.033V454.83C522.099 456.471 522.386 457.866 522.961 459.017C523.547 460.167 524.362 461.046 525.406 461.653C526.45 462.25 527.67 462.548 529.066 462.548C529.971 462.548 530.797 462.42 531.543 462.165C532.288 461.898 532.933 461.504 533.476 460.982C534.02 460.46 534.435 459.816 534.723 459.049L539.245 459.864C538.883 461.195 538.233 462.362 537.296 463.363C536.369 464.354 535.202 465.126 533.796 465.68C532.4 466.224 530.808 466.495 529.018 466.495ZM549.628 451.426V466H544.85V441.455H549.436V445.45H549.74C550.305 444.15 551.189 443.106 552.393 442.317C553.607 441.529 555.136 441.135 556.979 441.135C558.652 441.135 560.117 441.487 561.374 442.19C562.631 442.882 563.606 443.915 564.298 445.29C564.99 446.664 565.337 448.363 565.337 450.387V466H560.559V450.963C560.559 449.184 560.095 447.793 559.168 446.792C558.242 445.78 556.968 445.274 555.349 445.274C554.241 445.274 553.256 445.513 552.393 445.993C551.541 446.472 550.864 447.175 550.363 448.102C549.873 449.018 549.628 450.126 549.628 451.426ZM583.202 441.455V445.29H569.795V441.455H583.202ZM573.391 435.574H578.169V458.793C578.169 459.72 578.307 460.418 578.584 460.886C578.861 461.344 579.218 461.659 579.655 461.829C580.102 461.989 580.587 462.069 581.109 462.069C581.493 462.069 581.828 462.042 582.116 461.989C582.403 461.936 582.627 461.893 582.787 461.861L583.65 465.808C583.373 465.915 582.979 466.021 582.467 466.128C581.956 466.245 581.317 466.309 580.55 466.32C579.293 466.341 578.121 466.117 577.034 465.648C575.947 465.18 575.069 464.455 574.397 463.475C573.726 462.495 573.391 461.265 573.391 459.784V435.574Z" fill="white"/>
<defs>
<linearGradient id="paint0_linear_3791_106" x1="1629.02" y1="-24.6433" x2="1587.83" y2="703.882" gradientUnits="userSpaceOnUse">
<stop offset="0.0061055" stop-color="#0085FF"/>
<stop offset="1" stop-color="#00C2FF"/>
</linearGradient>
<linearGradient id="paint1_linear_3791_106" x1="274.746" y1="-24.6433" x2="233.558" y2="703.882" gradientUnits="userSpaceOnUse">
<stop offset="0.0061055" stop-color="#0085FF"/>
<stop offset="1" stop-color="#00C2FF"/>
</linearGradient>
</defs>
</svg>
