<svg width="2400" height="740" viewBox="0 0 2400 740" fill="none" xmlns="http://www.w3.org/2000/svg">
<path d="M1654.62 302.5L1634.62 290.953L1634.62 314.047L1654.62 302.5ZM744.655 304.5L1636.62 304.5L1636.62 300.5L744.655 300.5L744.655 304.5Z" fill="#777777"/>
<path d="M1132.14 241.587C1131.9 240.833 1131.58 240.158 1131.17 239.561C1130.77 238.956 1130.3 238.442 1129.74 238.02C1129.19 237.589 1128.55 237.262 1127.84 237.038C1127.14 236.814 1126.36 236.702 1125.52 236.702C1124.08 236.702 1122.79 237.071 1121.64 237.809C1120.49 238.546 1119.58 239.627 1118.9 241.053C1118.24 242.469 1117.91 244.205 1117.91 246.26C1117.91 248.324 1118.25 250.068 1118.92 251.493C1119.59 252.918 1120.51 253.999 1121.68 254.737C1122.84 255.474 1124.17 255.843 1125.67 255.843C1127.05 255.843 1128.26 255.561 1129.28 254.998C1130.32 254.434 1131.12 253.639 1131.68 252.612C1132.25 251.576 1132.54 250.358 1132.54 248.957L1133.53 249.144H1126.25V245.974H1136.26V248.87C1136.26 251.008 1135.8 252.864 1134.89 254.439C1133.99 256.005 1132.73 257.214 1131.13 258.068C1129.54 258.921 1127.72 259.348 1125.67 259.348C1123.36 259.348 1121.34 258.818 1119.6 257.757C1117.87 256.696 1116.52 255.193 1115.55 253.245C1114.58 251.29 1114.09 248.97 1114.09 246.285C1114.09 244.255 1114.38 242.432 1114.94 240.816C1115.5 239.201 1116.29 237.829 1117.31 236.702C1118.34 235.567 1119.55 234.701 1120.93 234.105C1122.32 233.5 1123.84 233.197 1125.49 233.197C1126.87 233.197 1128.15 233.4 1129.33 233.806C1130.53 234.212 1131.59 234.788 1132.51 235.534C1133.45 236.28 1134.23 237.166 1134.84 238.194C1135.45 239.213 1135.87 240.344 1136.08 241.587H1132.14ZM1141.13 259V233.545H1157.09V236.852H1144.97V244.607H1156.26V247.901H1144.97V255.694H1157.24V259H1141.13ZM1160.96 236.852V233.545H1180.66V236.852H1172.72V259H1168.89V236.852H1160.96ZM1203.68 232.352L1195.47 262.828H1192.16L1200.36 232.352H1203.68ZM1228.19 251.083V239.909H1231.92V259H1228.26V255.694H1228.07C1227.63 256.713 1226.92 257.562 1225.95 258.242C1224.99 258.913 1223.79 259.249 1222.36 259.249C1221.13 259.249 1220.05 258.979 1219.1 258.441C1218.17 257.894 1217.43 257.086 1216.89 256.017C1216.36 254.948 1216.1 253.627 1216.1 252.052V239.909H1219.81V251.605C1219.81 252.906 1220.17 253.941 1220.89 254.712C1221.61 255.483 1222.55 255.868 1223.7 255.868C1224.4 255.868 1225.09 255.694 1225.78 255.346C1226.47 254.998 1227.05 254.472 1227.51 253.767C1227.97 253.063 1228.2 252.168 1228.19 251.083ZM1251.22 244.57L1247.85 245.167C1247.71 244.736 1247.48 244.326 1247.18 243.936C1246.88 243.547 1246.47 243.228 1245.96 242.979C1245.45 242.73 1244.8 242.606 1244.03 242.606C1242.98 242.606 1242.1 242.842 1241.4 243.315C1240.69 243.779 1240.34 244.379 1240.34 245.117C1240.34 245.755 1240.58 246.269 1241.05 246.658C1241.52 247.047 1242.29 247.366 1243.34 247.615L1246.37 248.311C1248.13 248.717 1249.44 249.343 1250.3 250.188C1251.16 251.033 1251.59 252.131 1251.59 253.482C1251.59 254.625 1251.26 255.644 1250.6 256.539C1249.94 257.426 1249.03 258.122 1247.85 258.627C1246.68 259.133 1245.33 259.385 1243.78 259.385C1241.65 259.385 1239.9 258.93 1238.55 258.018C1237.2 257.098 1236.37 255.793 1236.07 254.103L1239.66 253.556C1239.88 254.492 1240.34 255.201 1241.04 255.681C1241.73 256.154 1242.64 256.39 1243.76 256.39C1244.98 256.39 1245.95 256.137 1246.68 255.632C1247.41 255.118 1247.77 254.492 1247.77 253.755C1247.77 253.158 1247.55 252.657 1247.1 252.251C1246.66 251.845 1245.99 251.538 1245.08 251.331L1241.85 250.623C1240.06 250.217 1238.75 249.571 1237.89 248.684C1237.05 247.797 1236.63 246.675 1236.63 245.316C1236.63 244.189 1236.94 243.203 1237.57 242.358C1238.2 241.512 1239.07 240.854 1240.18 240.381C1241.29 239.901 1242.56 239.661 1244 239.661C1246.06 239.661 1247.68 240.108 1248.87 241.003C1250.05 241.889 1250.84 243.078 1251.22 244.57ZM1263.9 259.385C1262.02 259.385 1260.4 258.983 1259.04 258.18C1257.69 257.368 1256.65 256.228 1255.91 254.762C1255.18 253.287 1254.82 251.559 1254.82 249.579C1254.82 247.623 1255.18 245.9 1255.91 244.408C1256.65 242.917 1257.68 241.753 1258.99 240.916C1260.32 240.079 1261.87 239.661 1263.64 239.661C1264.72 239.661 1265.76 239.839 1266.78 240.195C1267.79 240.551 1268.69 241.111 1269.5 241.873C1270.3 242.635 1270.94 243.625 1271.4 244.843C1271.86 246.053 1272.1 247.524 1272.1 249.256V250.573H1256.92V247.789H1268.45C1268.45 246.811 1268.25 245.945 1267.86 245.191C1267.46 244.429 1266.9 243.828 1266.18 243.389C1265.47 242.95 1264.63 242.73 1263.67 242.73C1262.62 242.73 1261.71 242.987 1260.93 243.501C1260.16 244.007 1259.57 244.669 1259.14 245.49C1258.73 246.302 1258.52 247.184 1258.52 248.137V250.312C1258.52 251.588 1258.75 252.674 1259.19 253.569C1259.65 254.463 1260.28 255.147 1261.1 255.619C1261.91 256.083 1262.86 256.315 1263.94 256.315C1264.65 256.315 1265.29 256.216 1265.87 256.017C1266.45 255.81 1266.95 255.503 1267.37 255.097C1267.79 254.691 1268.12 254.19 1268.34 253.593L1271.86 254.227C1271.58 255.263 1271.07 256.17 1270.34 256.949C1269.62 257.72 1268.71 258.321 1267.62 258.751C1266.54 259.174 1265.3 259.385 1263.9 259.385ZM1276.22 259V239.909H1279.81V242.942H1280.01C1280.36 241.914 1280.97 241.106 1281.85 240.518C1282.74 239.922 1283.74 239.623 1284.86 239.623C1285.09 239.623 1285.36 239.632 1285.68 239.648C1286 239.665 1286.25 239.685 1286.44 239.71V243.265C1286.29 243.223 1286.02 243.178 1285.64 243.128C1285.26 243.07 1284.88 243.041 1284.5 243.041C1283.62 243.041 1282.83 243.228 1282.15 243.6C1281.47 243.965 1280.93 244.475 1280.53 245.129C1280.13 245.776 1279.93 246.513 1279.93 247.342V259H1276.22Z" fill="#777777"/>
<path d="M744.655 450L764.655 461.547L764.655 438.453L744.655 450ZM762.655 452L1654.62 452L1654.62 448L762.655 448L762.655 452Z" fill="#777777"/>
<path d="M962.747 406.5V381.045H971.82C973.792 381.045 975.429 381.385 976.73 382.065C978.039 382.744 979.017 383.685 979.663 384.886C980.309 386.079 980.632 387.459 980.632 389.025C980.632 390.583 980.305 391.954 979.651 393.139C979.004 394.315 978.027 395.231 976.717 395.886C975.416 396.54 973.78 396.868 971.808 396.868H964.935V393.561H971.46C972.703 393.561 973.714 393.383 974.493 393.027C975.28 392.671 975.856 392.153 976.22 391.473C976.585 390.794 976.767 389.978 976.767 389.025C976.767 388.064 976.581 387.231 976.208 386.527C975.843 385.822 975.267 385.284 974.48 384.911C973.701 384.53 972.678 384.339 971.41 384.339H966.588V406.5H962.747ZM975.313 395.016L981.602 406.5H977.227L971.062 395.016H975.313ZM992.996 406.885C991.115 406.885 989.495 406.483 988.136 405.68C986.786 404.868 985.742 403.728 985.004 402.262C984.275 400.787 983.911 399.059 983.911 397.079C983.911 395.123 984.275 393.4 985.004 391.908C985.742 390.417 986.769 389.253 988.087 388.416C989.413 387.579 990.962 387.161 992.735 387.161C993.812 387.161 994.856 387.339 995.867 387.695C996.878 388.051 997.785 388.611 998.589 389.373C999.393 390.135 1000.03 391.125 1000.49 392.343C1000.95 393.553 1001.19 395.024 1001.19 396.756V398.073H986.011V395.289H997.545C997.545 394.311 997.346 393.445 996.949 392.691C996.551 391.929 995.992 391.328 995.271 390.889C994.558 390.45 993.721 390.23 992.76 390.23C991.716 390.23 990.805 390.487 990.026 391.001C989.255 391.507 988.658 392.169 988.236 392.99C987.822 393.802 987.614 394.684 987.614 395.637V397.812C987.614 399.088 987.838 400.174 988.286 401.069C988.741 401.963 989.375 402.647 990.187 403.119C990.999 403.583 991.948 403.815 993.033 403.815C993.738 403.815 994.38 403.716 994.96 403.517C995.54 403.31 996.041 403.003 996.464 402.597C996.886 402.191 997.21 401.69 997.433 401.093L1000.95 401.727C1000.67 402.763 1000.16 403.67 999.434 404.449C998.714 405.22 997.806 405.821 996.712 406.251C995.627 406.674 994.388 406.885 992.996 406.885ZM1014.22 387.409V390.392H1003.79V387.409H1014.22ZM1006.59 382.835H1010.31V400.895C1010.31 401.615 1010.41 402.158 1010.63 402.523C1010.85 402.879 1011.12 403.123 1011.46 403.256C1011.81 403.38 1012.19 403.442 1012.59 403.442C1012.89 403.442 1013.15 403.422 1013.38 403.38C1013.6 403.339 1013.77 403.306 1013.9 403.281L1014.57 406.351C1014.35 406.434 1014.05 406.517 1013.65 406.599C1013.25 406.691 1012.76 406.74 1012.16 406.749C1011.18 406.765 1010.27 406.591 1009.42 406.227C1008.58 405.862 1007.9 405.299 1007.37 404.536C1006.85 403.774 1006.59 402.817 1006.59 401.665V382.835ZM1030.43 398.583V387.409H1034.15V406.5H1030.5V403.194H1030.3C1029.86 404.213 1029.16 405.062 1028.19 405.742C1027.23 406.413 1026.03 406.749 1024.6 406.749C1023.37 406.749 1022.29 406.479 1021.34 405.941C1020.4 405.394 1019.67 404.586 1019.13 403.517C1018.6 402.448 1018.33 401.127 1018.33 399.552V387.409H1022.05V399.105C1022.05 400.406 1022.41 401.441 1023.13 402.212C1023.85 402.983 1024.79 403.368 1025.94 403.368C1026.64 403.368 1027.33 403.194 1028.01 402.846C1028.71 402.498 1029.29 401.972 1029.74 401.267C1030.21 400.563 1030.43 399.668 1030.43 398.583ZM1039.15 406.5V387.409H1042.74V390.442H1042.94C1043.29 389.414 1043.9 388.606 1044.78 388.018C1045.67 387.422 1046.67 387.123 1047.79 387.123C1048.02 387.123 1048.29 387.132 1048.61 387.148C1048.93 387.165 1049.18 387.185 1049.36 387.21V390.765C1049.22 390.723 1048.95 390.678 1048.57 390.628C1048.19 390.57 1047.81 390.541 1047.43 390.541C1046.55 390.541 1045.76 390.728 1045.08 391.1C1044.4 391.465 1043.86 391.975 1043.46 392.629C1043.06 393.276 1042.86 394.013 1042.86 394.842V406.5H1039.15ZM1056.3 395.165V406.5H1052.58V387.409H1056.15V390.516H1056.38C1056.82 389.505 1057.51 388.693 1058.45 388.08C1059.39 387.467 1060.58 387.161 1062.01 387.161C1063.32 387.161 1064.45 387.434 1065.43 387.981C1066.41 388.519 1067.17 389.323 1067.71 390.392C1068.25 391.461 1068.51 392.783 1068.51 394.357V406.5H1064.8V394.804C1064.8 393.421 1064.44 392.339 1063.72 391.56C1063 390.773 1062.01 390.38 1060.75 390.38C1059.88 390.38 1059.12 390.566 1058.45 390.939C1057.78 391.312 1057.26 391.859 1056.87 392.58C1056.49 393.292 1056.3 394.154 1056.3 395.165ZM1086.48 395.165V406.5H1082.76V387.409H1086.33V390.516H1086.56C1087 389.505 1087.69 388.693 1088.63 388.08C1089.57 387.467 1090.76 387.161 1092.19 387.161C1093.5 387.161 1094.64 387.434 1095.61 387.981C1096.59 388.519 1097.35 389.323 1097.89 390.392C1098.43 391.461 1098.7 392.783 1098.7 394.357V406.5H1094.98V394.804C1094.98 393.421 1094.62 392.339 1093.9 391.56C1093.18 390.773 1092.19 390.38 1090.93 390.38C1090.07 390.38 1089.3 390.566 1088.63 390.939C1087.96 391.312 1087.44 391.859 1087.05 392.58C1086.67 393.292 1086.48 394.154 1086.48 395.165ZM1115.77 398.583V387.409H1119.5V406.5H1115.85V403.194H1115.65C1115.21 404.213 1114.5 405.062 1113.54 405.742C1112.57 406.413 1111.38 406.749 1109.94 406.749C1108.72 406.749 1107.63 406.479 1106.69 405.941C1105.75 405.394 1105.01 404.586 1104.47 403.517C1103.94 402.448 1103.68 401.127 1103.68 399.552V387.409H1107.4V399.105C1107.4 400.406 1107.76 401.441 1108.48 402.212C1109.2 402.983 1110.13 403.368 1111.29 403.368C1111.98 403.368 1112.67 403.194 1113.36 402.846C1114.06 402.498 1114.63 401.972 1115.09 401.267C1115.55 400.563 1115.78 399.668 1115.77 398.583ZM1128.21 381.045V406.5H1124.49V381.045H1128.21ZM1136.93 381.045V406.5H1133.21V381.045H1136.93ZM1146.76 403.02L1146.57 404.375C1146.45 405.369 1146.24 406.405 1145.94 407.482C1145.65 408.567 1145.35 409.574 1145.03 410.502C1144.73 411.43 1144.47 412.168 1144.28 412.714H1141.64C1141.75 412.201 1141.9 411.505 1142.09 410.626C1142.28 409.756 1142.47 408.783 1142.65 407.706C1142.83 406.628 1142.97 405.531 1143.06 404.412L1143.18 403.02H1146.76ZM1168.9 406.885C1167.11 406.885 1165.55 406.475 1164.22 405.655C1162.88 404.835 1161.85 403.687 1161.11 402.212C1160.37 400.737 1160 399.014 1160 397.042C1160 395.061 1160.37 393.329 1161.11 391.846C1161.85 390.363 1162.88 389.211 1164.22 388.391C1165.55 387.571 1167.11 387.161 1168.9 387.161C1170.69 387.161 1172.26 387.571 1173.59 388.391C1174.92 389.211 1175.96 390.363 1176.7 391.846C1177.43 393.329 1177.8 395.061 1177.8 397.042C1177.8 399.014 1177.43 400.737 1176.7 402.212C1175.96 403.687 1174.92 404.835 1173.59 405.655C1172.26 406.475 1170.69 406.885 1168.9 406.885ZM1168.92 403.766C1170.08 403.766 1171.04 403.459 1171.8 402.846C1172.56 402.233 1173.13 401.417 1173.49 400.397C1173.86 399.378 1174.05 398.255 1174.05 397.029C1174.05 395.811 1173.86 394.692 1173.49 393.673C1173.13 392.646 1172.56 391.821 1171.8 391.2C1171.04 390.578 1170.08 390.268 1168.92 390.268C1167.75 390.268 1166.78 390.578 1166.01 391.2C1165.25 391.821 1164.68 392.646 1164.3 393.673C1163.94 394.692 1163.76 395.811 1163.76 397.029C1163.76 398.255 1163.94 399.378 1164.3 400.397C1164.68 401.417 1165.25 402.233 1166.01 402.846C1166.78 403.459 1167.75 403.766 1168.92 403.766ZM1181.95 406.5V387.409H1185.54V390.442H1185.74C1186.09 389.414 1186.7 388.606 1187.58 388.018C1188.47 387.422 1189.47 387.123 1190.59 387.123C1190.82 387.123 1191.09 387.132 1191.41 387.148C1191.73 387.165 1191.99 387.185 1192.17 387.21V390.765C1192.02 390.723 1191.75 390.678 1191.37 390.628C1190.99 390.57 1190.61 390.541 1190.23 390.541C1189.35 390.541 1188.57 390.728 1187.88 391.1C1187.2 391.465 1186.66 391.975 1186.26 392.629C1185.87 393.276 1185.67 394.013 1185.67 394.842V406.5H1181.95ZM1208.36 381.045V406.5H1204.65V381.045H1208.36ZM1221.4 406.885C1219.61 406.885 1218.05 406.475 1216.72 405.655C1215.38 404.835 1214.35 403.687 1213.61 402.212C1212.87 400.737 1212.5 399.014 1212.5 397.042C1212.5 395.061 1212.87 393.329 1213.61 391.846C1214.35 390.363 1215.38 389.211 1216.72 388.391C1218.05 387.571 1219.61 387.161 1221.4 387.161C1223.19 387.161 1224.76 387.571 1226.09 388.391C1227.42 389.211 1228.46 390.363 1229.2 391.846C1229.93 393.329 1230.3 395.061 1230.3 397.042C1230.3 399.014 1229.93 400.737 1229.2 402.212C1228.46 403.687 1227.42 404.835 1226.09 405.655C1224.76 406.475 1223.19 406.885 1221.4 406.885ZM1221.42 403.766C1222.58 403.766 1223.54 403.459 1224.3 402.846C1225.06 402.233 1225.63 401.417 1225.99 400.397C1226.36 399.378 1226.55 398.255 1226.55 397.029C1226.55 395.811 1226.36 394.692 1225.99 393.673C1225.63 392.646 1225.06 391.821 1224.3 391.2C1223.54 390.578 1222.58 390.268 1221.42 390.268C1220.25 390.268 1219.28 390.578 1218.51 391.2C1217.75 391.821 1217.18 392.646 1216.8 393.673C1216.44 394.692 1216.26 395.811 1216.26 397.029C1216.26 398.255 1216.44 399.378 1216.8 400.397C1217.18 401.417 1217.75 402.233 1218.51 402.846C1219.28 403.459 1220.25 403.766 1221.42 403.766ZM1242.46 414.057C1240.94 414.057 1239.63 413.858 1238.54 413.46C1237.45 413.063 1236.57 412.536 1235.88 411.882C1235.19 411.227 1234.68 410.51 1234.34 409.732L1237.53 408.414C1237.76 408.779 1238.06 409.164 1238.43 409.57C1238.81 409.984 1239.32 410.336 1239.97 410.626C1240.62 410.916 1241.46 411.061 1242.49 411.061C1243.9 411.061 1245.07 410.718 1245.98 410.03C1246.9 409.35 1247.36 408.265 1247.36 406.773V403.02H1247.13C1246.9 403.426 1246.58 403.877 1246.16 404.375C1245.74 404.872 1245.17 405.303 1244.44 405.667C1243.71 406.032 1242.77 406.214 1241.6 406.214C1240.09 406.214 1238.73 405.862 1237.52 405.158C1236.32 404.445 1235.37 403.397 1234.66 402.013C1233.97 400.621 1233.62 398.91 1233.62 396.88C1233.62 394.85 1233.96 393.11 1234.65 391.66C1235.35 390.21 1236.3 389.099 1237.51 388.329C1238.72 387.55 1240.09 387.161 1241.62 387.161C1242.81 387.161 1243.76 387.359 1244.49 387.757C1245.22 388.147 1245.79 388.602 1246.2 389.124C1246.61 389.646 1246.93 390.106 1247.15 390.504H1247.43V387.409H1251.07V406.923C1251.07 408.563 1250.69 409.91 1249.92 410.962C1249.16 412.014 1248.13 412.793 1246.83 413.299C1245.54 413.804 1244.08 414.057 1242.46 414.057ZM1242.42 403.132C1243.49 403.132 1244.39 402.883 1245.13 402.386C1245.87 401.881 1246.44 401.16 1246.82 400.223C1247.21 399.279 1247.4 398.148 1247.4 396.83C1247.4 395.546 1247.21 394.415 1246.83 393.437C1246.45 392.459 1245.89 391.697 1245.15 391.15C1244.41 390.595 1243.5 390.317 1242.42 390.317C1241.3 390.317 1240.37 390.607 1239.62 391.188C1238.88 391.759 1238.31 392.538 1237.93 393.524C1237.56 394.51 1237.37 395.612 1237.37 396.83C1237.37 398.081 1237.56 399.179 1237.94 400.124C1238.32 401.069 1238.89 401.806 1239.63 402.336C1240.39 402.867 1241.32 403.132 1242.42 403.132ZM1264.06 414.057C1262.54 414.057 1261.24 413.858 1260.14 413.46C1259.06 413.063 1258.17 412.536 1257.48 411.882C1256.79 411.227 1256.28 410.51 1255.94 409.732L1259.13 408.414C1259.36 408.779 1259.66 409.164 1260.03 409.57C1260.41 409.984 1260.92 410.336 1261.57 410.626C1262.23 410.916 1263.07 411.061 1264.09 411.061C1265.5 411.061 1266.67 410.718 1267.59 410.03C1268.51 409.35 1268.97 408.265 1268.97 406.773V403.02H1268.73C1268.51 403.426 1268.18 403.877 1267.76 404.375C1267.35 404.872 1266.77 405.303 1266.05 405.667C1265.32 406.032 1264.37 406.214 1263.2 406.214C1261.69 406.214 1260.33 405.862 1259.12 405.158C1257.92 404.445 1256.97 403.397 1256.26 402.013C1255.57 400.621 1255.22 398.91 1255.22 396.88C1255.22 394.85 1255.56 393.11 1256.25 391.66C1256.95 390.21 1257.9 389.099 1259.11 388.329C1260.32 387.55 1261.69 387.161 1263.22 387.161C1264.41 387.161 1265.37 387.359 1266.1 387.757C1266.82 388.147 1267.39 388.602 1267.8 389.124C1268.21 389.646 1268.53 390.106 1268.75 390.504H1269.03V387.409L1272.67 387.409V406.923C1272.67 408.563 1272.29 409.91 1271.53 410.962C1270.76 412.014 1269.73 412.793 1268.43 413.299C1267.14 413.804 1265.68 414.057 1264.06 414.057ZM1264.02 403.132C1265.09 403.132 1265.99 402.883 1266.73 402.386C1267.47 401.881 1268.04 401.16 1268.42 400.223C1268.81 399.279 1269 398.148 1269 396.83C1269 395.546 1268.81 394.415 1268.43 393.437C1268.05 392.459 1267.49 391.697 1266.75 391.15C1266.02 390.595 1265.1 390.317 1264.02 390.317C1262.9 390.317 1261.97 390.607 1261.22 391.188C1260.48 391.759 1259.91 392.538 1259.53 393.524C1259.16 394.51 1258.97 395.612 1258.97 396.83C1258.97 398.081 1259.16 399.179 1259.54 400.124C1259.93 401.069 1260.49 401.806 1261.24 402.336C1261.99 402.867 1262.92 403.132 1264.02 403.132ZM1285.88 406.885C1284 406.885 1282.38 406.483 1281.02 405.68C1279.67 404.868 1278.63 403.728 1277.89 402.262C1277.16 400.787 1276.8 399.059 1276.8 397.079C1276.8 395.123 1277.16 393.4 1277.89 391.908C1278.63 390.417 1279.66 389.253 1280.97 388.416C1282.3 387.579 1283.85 387.161 1285.62 387.161C1286.7 387.161 1287.74 387.339 1288.75 387.695C1289.76 388.051 1290.67 388.611 1291.48 389.373C1292.28 390.135 1292.91 391.125 1293.38 392.343C1293.84 393.553 1294.07 395.024 1294.07 396.756V398.073H1278.9V395.289H1290.43C1290.43 394.311 1290.23 393.445 1289.83 392.691C1289.44 391.929 1288.88 391.328 1288.16 390.889C1287.44 390.45 1286.61 390.23 1285.65 390.23C1284.6 390.23 1283.69 390.487 1282.91 391.001C1282.14 391.507 1281.54 392.169 1281.12 392.99C1280.71 393.802 1280.5 394.684 1280.5 395.637V397.812C1280.5 399.088 1280.72 400.174 1281.17 401.069C1281.63 401.963 1282.26 402.647 1283.07 403.119C1283.89 403.583 1284.83 403.815 1285.92 403.815C1286.62 403.815 1287.27 403.716 1287.85 403.517C1288.43 403.31 1288.93 403.003 1289.35 402.597C1289.77 402.191 1290.1 401.69 1290.32 401.093L1293.84 401.727C1293.55 402.763 1293.05 403.67 1292.32 404.449C1291.6 405.22 1290.69 405.821 1289.6 406.251C1288.51 406.674 1287.27 406.885 1285.88 406.885ZM1305.34 406.873C1303.8 406.873 1302.43 406.479 1301.22 405.692C1300.01 404.897 1299.07 403.766 1298.38 402.299C1297.7 400.824 1297.36 399.055 1297.36 396.992C1297.36 394.929 1297.71 393.164 1298.39 391.697C1299.09 390.23 1300.04 389.108 1301.25 388.329C1302.46 387.55 1303.83 387.161 1305.37 387.161C1306.55 387.161 1307.51 387.359 1308.23 387.757C1308.96 388.147 1309.52 388.602 1309.92 389.124C1310.32 389.646 1310.64 390.106 1310.86 390.504H1311.08V381.045H1314.8V406.5H1311.17V403.529H1310.86C1310.64 403.935 1310.31 404.4 1309.89 404.922C1309.48 405.444 1308.91 405.899 1308.18 406.289C1307.45 406.678 1306.5 406.873 1305.34 406.873ZM1306.16 403.703C1307.23 403.703 1308.14 403.422 1308.87 402.858C1309.62 402.287 1310.18 401.495 1310.56 400.484C1310.95 399.473 1311.15 398.297 1311.15 396.955C1311.15 395.629 1310.96 394.469 1310.58 393.474C1310.19 392.48 1309.63 391.705 1308.9 391.15C1308.16 390.595 1307.25 390.317 1306.16 390.317C1305.04 390.317 1304.11 390.607 1303.37 391.188C1302.62 391.768 1302.06 392.559 1301.68 393.561C1301.3 394.564 1301.12 395.695 1301.12 396.955C1301.12 398.231 1301.31 399.378 1301.69 400.397C1302.07 401.417 1302.63 402.224 1303.38 402.821C1304.13 403.409 1305.06 403.703 1306.16 403.703ZM1329.37 406.5V387.409H1333.08V406.5H1329.37ZM1331.24 384.463C1330.6 384.463 1330.04 384.248 1329.58 383.817C1329.12 383.378 1328.9 382.856 1328.9 382.251C1328.9 381.638 1329.12 381.116 1329.58 380.685C1330.04 380.246 1330.6 380.026 1331.24 380.026C1331.89 380.026 1332.44 380.246 1332.9 380.685C1333.36 381.116 1333.59 381.638 1333.59 382.251C1333.59 382.856 1333.36 383.378 1332.9 383.817C1332.44 384.248 1331.89 384.463 1331.24 384.463ZM1341.8 395.165V406.5H1338.08V387.409H1341.65V390.516H1341.89C1342.33 389.505 1343.01 388.693 1343.95 388.08C1344.89 387.467 1346.08 387.161 1347.52 387.161C1348.82 387.161 1349.96 387.434 1350.94 387.981C1351.91 388.519 1352.67 389.323 1353.21 390.392C1353.75 391.461 1354.02 392.783 1354.02 394.357V406.5H1350.3V394.804C1350.3 393.421 1349.94 392.339 1349.22 391.56C1348.5 390.773 1347.51 390.38 1346.25 390.38C1345.39 390.38 1344.62 390.566 1343.95 390.939C1343.29 391.312 1342.76 391.859 1342.37 392.58C1341.99 393.292 1341.8 394.154 1341.8 395.165ZM1380.36 398.583V387.409H1384.09V406.5H1380.43V403.194H1380.23C1379.79 404.213 1379.09 405.062 1378.12 405.742C1377.16 406.413 1375.96 406.749 1374.53 406.749C1373.3 406.749 1372.22 406.479 1371.27 405.941C1370.34 405.394 1369.6 404.586 1369.06 403.517C1368.53 402.448 1368.26 401.127 1368.26 399.552V387.409H1371.98V399.105C1371.98 400.406 1372.34 401.441 1373.06 402.212C1373.78 402.983 1374.72 403.368 1375.87 403.368C1376.57 403.368 1377.26 403.194 1377.95 402.846C1378.64 402.498 1379.22 401.972 1379.67 401.267C1380.14 400.563 1380.37 399.668 1380.36 398.583ZM1403.39 392.07L1400.02 392.667C1399.88 392.236 1399.65 391.826 1399.35 391.436C1399.05 391.047 1398.64 390.728 1398.13 390.479C1397.61 390.23 1396.97 390.106 1396.2 390.106C1395.15 390.106 1394.27 390.342 1393.57 390.815C1392.86 391.279 1392.51 391.879 1392.51 392.617C1392.51 393.255 1392.75 393.769 1393.22 394.158C1393.69 394.547 1394.45 394.866 1395.51 395.115L1398.54 395.811C1400.29 396.217 1401.6 396.843 1402.47 397.688C1403.33 398.533 1403.76 399.631 1403.76 400.982C1403.76 402.125 1403.43 403.144 1402.76 404.039C1402.11 404.926 1401.19 405.622 1400.02 406.127C1398.85 406.633 1397.49 406.885 1395.95 406.885C1393.82 406.885 1392.07 406.43 1390.72 405.518C1389.37 404.598 1388.54 403.293 1388.23 401.603L1391.83 401.056C1392.05 401.992 1392.51 402.701 1393.21 403.181C1393.9 403.654 1394.81 403.89 1395.93 403.89C1397.15 403.89 1398.12 403.637 1398.85 403.132C1399.58 402.618 1399.94 401.992 1399.94 401.255C1399.94 400.658 1399.72 400.157 1399.27 399.751C1398.83 399.345 1398.16 399.038 1397.25 398.831L1394.01 398.123C1392.23 397.717 1390.92 397.071 1390.06 396.184C1389.22 395.297 1388.79 394.175 1388.79 392.816C1388.79 391.689 1389.11 390.703 1389.74 389.858C1390.37 389.012 1391.24 388.354 1392.35 387.881C1393.46 387.401 1394.73 387.161 1396.16 387.161C1398.23 387.161 1399.85 387.608 1401.04 388.503C1402.22 389.389 1403 390.578 1403.39 392.07ZM1416.07 406.885C1414.19 406.885 1412.57 406.483 1411.21 405.68C1409.86 404.868 1408.82 403.728 1408.08 402.262C1407.35 400.787 1406.99 399.059 1406.99 397.079C1406.99 395.123 1407.35 393.4 1408.08 391.908C1408.82 390.417 1409.85 389.253 1411.16 388.416C1412.49 387.579 1414.04 387.161 1415.81 387.161C1416.89 387.161 1417.93 387.339 1418.94 387.695C1419.95 388.051 1420.86 388.611 1421.67 389.373C1422.47 390.135 1423.1 391.125 1423.57 392.343C1424.03 393.553 1424.26 395.024 1424.26 396.756V398.073H1409.09V395.289H1420.62C1420.62 394.311 1420.42 393.445 1420.02 392.691C1419.63 391.929 1419.07 391.328 1418.35 390.889C1417.63 390.45 1416.8 390.23 1415.84 390.23C1414.79 390.23 1413.88 390.487 1413.1 391.001C1412.33 391.507 1411.73 392.169 1411.31 392.99C1410.9 393.802 1410.69 394.684 1410.69 395.637V397.812C1410.69 399.088 1410.91 400.174 1411.36 401.069C1411.82 401.963 1412.45 402.647 1413.26 403.119C1414.08 403.583 1415.02 403.815 1416.11 403.815C1416.81 403.815 1417.46 403.716 1418.04 403.517C1418.62 403.31 1419.12 403.003 1419.54 402.597C1419.96 402.191 1420.29 401.69 1420.51 401.093L1424.03 401.727C1423.75 402.763 1423.24 403.67 1422.51 404.449C1421.79 405.22 1420.88 405.821 1419.79 406.251C1418.7 406.674 1417.46 406.885 1416.07 406.885ZM1428.39 406.5V387.409H1431.98V390.442H1432.18C1432.53 389.414 1433.14 388.606 1434.02 388.018C1434.9 387.422 1435.91 387.123 1437.02 387.123C1437.26 387.123 1437.53 387.132 1437.84 387.148C1438.17 387.165 1438.42 387.185 1438.6 387.21V390.765C1438.45 390.723 1438.19 390.678 1437.81 390.628C1437.43 390.57 1437.05 390.541 1436.66 390.541C1435.79 390.541 1435 390.728 1434.32 391.1C1433.64 391.465 1433.1 391.975 1432.7 392.629C1432.3 393.276 1432.1 394.013 1432.1 394.842V406.5H1428.39Z" fill="#777777"/>
<rect x="1678.27" y="68" width="397" height="604" rx="32" fill="url(#paint0_linear_3791_127)"/>
<path fill-rule="evenodd" clip-rule="evenodd" d="M1836.77 278C1834.01 278 1831.77 280.239 1831.77 283V303C1831.77 305.761 1834.01 308 1836.77 308H1916.77C1919.53 308 1921.77 305.761 1921.77 303V283C1921.77 280.239 1919.53 278 1916.77 278H1836.77ZM1821.77 283C1821.77 274.716 1828.49 268 1836.77 268H1916.77C1925.06 268 1931.77 274.716 1931.77 283V303C1931.77 311.284 1925.06 318 1916.77 318H1836.77C1828.49 318 1821.77 311.284 1821.77 303V283Z" fill="white"/>
<path fill-rule="evenodd" clip-rule="evenodd" d="M1836.77 338C1834.01 338 1831.77 340.239 1831.77 343V363C1831.77 365.761 1834.01 368 1836.77 368H1916.77C1919.53 368 1921.77 365.761 1921.77 363V343C1921.77 340.239 1919.53 338 1916.77 338H1836.77ZM1821.77 343C1821.77 334.716 1828.49 328 1836.77 328H1916.77C1925.06 328 1931.77 334.716 1931.77 343V363C1931.77 371.284 1925.06 378 1916.77 378H1836.77C1828.49 378 1821.77 371.284 1821.77 363V343Z" fill="white"/>
<path fill-rule="evenodd" clip-rule="evenodd" d="M1841.77 293C1841.77 290.239 1844.01 288 1846.77 288H1846.82C1849.58 288 1851.82 290.239 1851.82 293C1851.82 295.761 1849.58 298 1846.82 298H1846.77C1844.01 298 1841.77 295.761 1841.77 293Z" fill="white"/>
<path fill-rule="evenodd" clip-rule="evenodd" d="M1841.77 353C1841.77 350.239 1844.01 348 1846.77 348H1846.82C1849.58 348 1851.82 350.239 1851.82 353C1851.82 355.761 1849.58 358 1846.82 358H1846.77C1844.01 358 1841.77 355.761 1841.77 353Z" fill="white"/>
<path d="M1827.35 441.87C1827.18 440.357 1826.48 439.185 1825.25 438.354C1824.01 437.513 1822.45 437.092 1820.58 437.092C1819.24 437.092 1818.08 437.305 1817.1 437.731C1816.12 438.147 1815.35 438.722 1814.81 439.457C1814.28 440.181 1814.01 441.007 1814.01 441.934C1814.01 442.712 1814.19 443.383 1814.55 443.947C1814.93 444.512 1815.41 444.986 1816.01 445.37C1816.62 445.743 1817.27 446.057 1817.96 446.312C1818.65 446.558 1819.32 446.76 1819.96 446.92L1823.15 447.751C1824.2 448.006 1825.27 448.353 1826.36 448.789C1827.46 449.226 1828.48 449.801 1829.42 450.515C1830.35 451.229 1831.11 452.113 1831.69 453.168C1832.27 454.223 1832.56 455.485 1832.56 456.955C1832.56 458.809 1832.09 460.455 1831.13 461.893C1830.18 463.331 1828.8 464.466 1826.99 465.297C1825.19 466.128 1823.01 466.543 1820.45 466.543C1818 466.543 1815.88 466.154 1814.09 465.377C1812.3 464.599 1810.9 463.496 1809.89 462.069C1808.88 460.631 1808.32 458.926 1808.21 456.955H1813.16C1813.26 458.138 1813.64 459.123 1814.32 459.912C1815 460.689 1815.87 461.27 1816.92 461.653C1817.99 462.026 1819.15 462.213 1820.42 462.213C1821.82 462.213 1823.06 461.994 1824.14 461.558C1825.24 461.11 1826.1 460.492 1826.73 459.704C1827.36 458.905 1827.67 457.973 1827.67 456.907C1827.67 455.938 1827.4 455.144 1826.84 454.526C1826.3 453.908 1825.56 453.397 1824.62 452.992C1823.7 452.587 1822.65 452.23 1821.47 451.922L1817.61 450.867C1814.99 450.153 1812.91 449.104 1811.37 447.719C1809.85 446.334 1809.09 444.501 1809.09 442.222C1809.09 440.336 1809.6 438.69 1810.62 437.284C1811.65 435.877 1813.03 434.786 1814.78 434.008C1816.53 433.219 1818.5 432.825 1820.69 432.825C1822.91 432.825 1824.86 433.214 1826.56 433.992C1828.26 434.77 1829.6 435.84 1830.58 437.204C1831.56 438.557 1832.07 440.112 1832.12 441.87H1827.35ZM1848.66 466.495C1846.24 466.495 1844.16 465.979 1842.41 464.945C1840.68 463.901 1839.33 462.436 1838.39 460.551C1837.45 458.654 1836.98 456.433 1836.98 453.887C1836.98 451.373 1837.45 449.157 1838.39 447.239C1839.33 445.322 1840.65 443.825 1842.35 442.749C1844.05 441.673 1846.05 441.135 1848.32 441.135C1849.71 441.135 1851.05 441.364 1852.35 441.822C1853.65 442.28 1854.82 442.999 1855.85 443.979C1856.88 444.96 1857.7 446.233 1858.3 447.799C1858.89 449.354 1859.19 451.245 1859.19 453.472V455.165H1839.68V451.586H1854.51C1854.51 450.329 1854.25 449.216 1853.74 448.246C1853.23 447.266 1852.51 446.494 1851.58 445.929C1850.67 445.364 1849.59 445.082 1848.36 445.082C1847.01 445.082 1845.84 445.412 1844.84 446.073C1843.85 446.723 1843.08 447.575 1842.54 448.63C1842.01 449.674 1841.74 450.808 1841.74 452.033V454.83C1841.74 456.471 1842.03 457.866 1842.6 459.017C1843.19 460.167 1844 461.046 1845.05 461.653C1846.09 462.25 1847.31 462.548 1848.71 462.548C1849.61 462.548 1850.44 462.42 1851.19 462.165C1851.93 461.898 1852.58 461.504 1853.12 460.982C1853.66 460.46 1854.08 459.816 1854.37 459.049L1858.89 459.864C1858.53 461.195 1857.88 462.362 1856.94 463.363C1856.01 464.354 1854.84 465.126 1853.44 465.68C1852.04 466.224 1850.45 466.495 1848.66 466.495ZM1864.49 466V441.455H1869.11V445.354H1869.37C1869.81 444.033 1870.6 442.994 1871.73 442.238C1872.87 441.471 1874.16 441.087 1875.6 441.087C1875.9 441.087 1876.25 441.098 1876.65 441.119C1877.07 441.14 1877.39 441.167 1877.63 441.199V445.769C1877.44 445.716 1877.1 445.657 1876.61 445.593C1876.12 445.519 1875.63 445.482 1875.14 445.482C1874.01 445.482 1873 445.721 1872.12 446.201C1871.24 446.669 1870.55 447.325 1870.04 448.166C1869.53 448.997 1869.27 449.945 1869.27 451.011V466H1864.49ZM1903.51 441.455L1894.61 466H1889.49L1880.58 441.455H1885.71L1891.92 460.343H1892.18L1898.38 441.455H1903.51ZM1917.74 466.495C1915.32 466.495 1913.24 465.979 1911.49 464.945C1909.76 463.901 1908.42 462.436 1907.47 460.551C1906.53 458.654 1906.06 456.433 1906.06 453.887C1906.06 451.373 1906.53 449.157 1907.47 447.239C1908.42 445.322 1909.74 443.825 1911.43 442.749C1913.13 441.673 1915.13 441.135 1917.41 441.135C1918.79 441.135 1920.13 441.364 1921.43 441.822C1922.73 442.28 1923.9 442.999 1924.93 443.979C1925.97 444.96 1926.78 446.233 1927.38 447.799C1927.98 449.354 1928.27 451.245 1928.27 453.472V455.165H1908.76V451.586H1923.59C1923.59 450.329 1923.34 449.216 1922.82 448.246C1922.31 447.266 1921.59 446.494 1920.67 445.929C1919.75 445.364 1918.67 445.082 1917.44 445.082C1916.1 445.082 1914.92 445.412 1913.92 446.073C1912.93 446.723 1912.17 447.575 1911.62 448.63C1911.09 449.674 1910.82 450.808 1910.82 452.033V454.83C1910.82 456.471 1911.11 457.866 1911.69 459.017C1912.27 460.167 1913.09 461.046 1914.13 461.653C1915.18 462.25 1916.39 462.548 1917.79 462.548C1918.7 462.548 1919.52 462.42 1920.27 462.165C1921.01 461.898 1921.66 461.504 1922.2 460.982C1922.74 460.46 1923.16 459.816 1923.45 459.049L1927.97 459.864C1927.61 461.195 1926.96 462.362 1926.02 463.363C1925.09 464.354 1923.93 465.126 1922.52 465.68C1921.12 466.224 1919.53 466.495 1917.74 466.495ZM1933.57 466V441.455H1938.19V445.354H1938.45C1938.9 444.033 1939.68 442.994 1940.81 442.238C1941.95 441.471 1943.24 441.087 1944.68 441.087C1944.98 441.087 1945.33 441.098 1945.74 441.119C1946.15 441.14 1946.48 441.167 1946.71 441.199V445.769C1946.52 445.716 1946.18 445.657 1945.69 445.593C1945.2 445.519 1944.71 445.482 1944.22 445.482C1943.09 445.482 1942.08 445.721 1941.2 446.201C1940.32 446.669 1939.63 447.325 1939.12 448.166C1938.61 448.997 1938.35 449.945 1938.35 451.011V466H1933.57Z" fill="white"/>
<rect x="324" y="68" width="397" height="604" rx="32" fill="url(#paint1_linear_3791_127)"/>
<path fill-rule="evenodd" clip-rule="evenodd" d="M488.016 278C481.112 278 475.516 283.596 475.516 290.5V337.419C475.168 337.943 474.867 338.504 474.618 339.099L468.336 354.148C465.586 360.735 470.425 368 477.564 368H567.436C574.575 368 579.414 360.735 576.664 354.148L570.382 339.099C570.133 338.504 569.832 337.943 569.484 337.419V290.5C569.484 283.596 563.888 278 556.984 278H488.016ZM561.153 342.951H483.847L477.564 358H567.436L561.153 342.951ZM559.484 332.951V290.5C559.484 289.119 558.365 288 556.984 288H488.016C486.635 288 485.516 289.119 485.516 290.5V332.951H559.484Z" fill="white"/>
<path d="M490.502 443.915H485.516C485.324 442.85 484.967 441.913 484.445 441.103C483.923 440.293 483.284 439.606 482.528 439.042C481.771 438.477 480.924 438.051 479.987 437.763C479.06 437.475 478.075 437.332 477.031 437.332C475.145 437.332 473.456 437.806 471.965 438.754C470.484 439.702 469.312 441.092 468.449 442.925C467.597 444.757 467.171 446.994 467.171 449.636C467.171 452.3 467.597 454.548 468.449 456.38C469.312 458.212 470.489 459.597 471.981 460.535C473.472 461.472 475.15 461.941 477.015 461.941C478.048 461.941 479.028 461.803 479.955 461.526C480.892 461.238 481.739 460.817 482.496 460.263C483.252 459.709 483.891 459.033 484.413 458.234C484.946 457.424 485.314 456.497 485.516 455.453L490.502 455.469C490.235 457.078 489.719 458.559 488.952 459.912C488.195 461.254 487.221 462.415 486.027 463.395C484.845 464.365 483.492 465.116 481.968 465.648C480.445 466.181 478.783 466.447 476.983 466.447C474.149 466.447 471.624 465.776 469.408 464.434C467.192 463.081 465.445 461.147 464.167 458.633C462.899 456.119 462.265 453.12 462.265 449.636C462.265 446.142 462.904 443.143 464.183 440.64C465.461 438.125 467.208 436.197 469.424 434.855C471.64 433.502 474.159 432.825 476.983 432.825C478.719 432.825 480.338 433.076 481.841 433.576C483.353 434.066 484.712 434.791 485.916 435.75C487.119 436.698 488.115 437.859 488.904 439.233C489.692 440.597 490.225 442.158 490.502 443.915ZM500.805 433.273V466H496.027V433.273H500.805ZM507.233 466V441.455H512.011V466H507.233ZM509.646 437.667C508.815 437.667 508.101 437.39 507.505 436.836C506.919 436.272 506.626 435.6 506.626 434.823C506.626 434.034 506.919 433.363 507.505 432.809C508.101 432.245 508.815 431.962 509.646 431.962C510.477 431.962 511.185 432.245 511.771 432.809C512.368 433.363 512.666 434.034 512.666 434.823C512.666 435.6 512.368 436.272 511.771 436.836C511.185 437.39 510.477 437.667 509.646 437.667ZM529.018 466.495C526.6 466.495 524.517 465.979 522.77 464.945C521.033 463.901 519.691 462.436 518.743 460.551C517.805 458.654 517.336 456.433 517.336 453.887C517.336 451.373 517.805 449.157 518.743 447.239C519.691 445.322 521.012 443.825 522.706 442.749C524.41 441.673 526.402 441.135 528.682 441.135C530.067 441.135 531.41 441.364 532.709 441.822C534.009 442.28 535.176 442.999 536.209 443.979C537.242 444.96 538.057 446.233 538.654 447.799C539.25 449.354 539.549 451.245 539.549 453.472V455.165H520.037V451.586H534.867C534.867 450.329 534.611 449.216 534.1 448.246C533.588 447.266 532.869 446.494 531.942 445.929C531.026 445.364 529.95 445.082 528.714 445.082C527.372 445.082 526.2 445.412 525.199 446.073C524.208 446.723 523.441 447.575 522.898 448.63C522.365 449.674 522.099 450.808 522.099 452.033V454.83C522.099 456.471 522.386 457.866 522.961 459.017C523.547 460.167 524.362 461.046 525.406 461.653C526.45 462.25 527.67 462.548 529.066 462.548C529.971 462.548 530.797 462.42 531.543 462.165C532.288 461.898 532.933 461.504 533.476 460.982C534.02 460.46 534.435 459.816 534.723 459.049L539.245 459.864C538.883 461.195 538.233 462.362 537.296 463.363C536.369 464.354 535.202 465.126 533.796 465.68C532.4 466.224 530.808 466.495 529.018 466.495ZM549.628 451.426V466H544.85V441.455H549.436V445.45H549.74C550.305 444.15 551.189 443.106 552.393 442.317C553.607 441.529 555.136 441.135 556.979 441.135C558.652 441.135 560.117 441.487 561.374 442.19C562.631 442.882 563.606 443.915 564.298 445.29C564.99 446.664 565.337 448.363 565.337 450.387V466H560.559V450.963C560.559 449.184 560.095 447.793 559.168 446.792C558.242 445.78 556.968 445.274 555.349 445.274C554.241 445.274 553.256 445.513 552.393 445.993C551.541 446.472 550.864 447.175 550.363 448.102C549.873 449.018 549.628 450.126 549.628 451.426ZM583.202 441.455V445.29H569.795V441.455H583.202ZM573.391 435.574H578.169V458.793C578.169 459.72 578.307 460.418 578.584 460.886C578.861 461.344 579.218 461.659 579.655 461.829C580.102 461.989 580.587 462.069 581.109 462.069C581.493 462.069 581.828 462.042 582.116 461.989C582.403 461.936 582.627 461.893 582.787 461.861L583.65 465.808C583.373 465.915 582.979 466.021 582.467 466.128C581.956 466.245 581.317 466.309 580.55 466.32C579.293 466.341 578.121 466.117 577.034 465.648C575.947 465.18 575.069 464.455 574.397 463.475C573.726 462.495 573.391 461.265 573.391 459.784V435.574Z" fill="white"/>
<defs>
<linearGradient id="paint0_linear_3791_127" x1="1629.02" y1="-24.6433" x2="1587.83" y2="703.882" gradientUnits="userSpaceOnUse">
<stop offset="0.0061055" stop-color="#0085FF"/>
<stop offset="1" stop-color="#00C2FF"/>
</linearGradient>
<linearGradient id="paint1_linear_3791_127" x1="274.746" y1="-24.6433" x2="233.558" y2="703.882" gradientUnits="userSpaceOnUse">
<stop offset="0.0061055" stop-color="#0085FF"/>
<stop offset="1" stop-color="#00C2FF"/>
</linearGradient>
</defs>
</svg>
