<svg width="40" height="40" viewBox="0 0 40 40" fill="none" xmlns="http://www.w3.org/2000/svg">
<rect x="0.5" y="0.5" width="39" height="39" rx="3.5" stroke="#2B2B2D"/>
<path d="M27.619 19.5238H26.1905V15.7143C26.1905 15.2091 25.9898 14.7246 25.6326 14.3674C25.2754 14.0102 24.7909 13.8095 24.2857 13.8095H20.4762V12.381C20.4762 11.7495 20.2253 11.1439 19.7788 10.6974C19.3323 10.2508 18.7267 10 18.0952 10C17.4638 10 16.8582 10.2508 16.4117 10.6974C15.9651 11.1439 15.7143 11.7495 15.7143 12.381V13.8095H11.9048C11.3996 13.8095 10.9151 14.0102 10.5579 14.3674C10.2007 14.7246 10 15.2091 10 15.7143V19.3333H11.4286C12.8571 19.3333 14 20.4762 14 21.9048C14 23.3333 12.8571 24.4762 11.4286 24.4762H10V28.0952C10 28.6004 10.2007 29.0849 10.5579 29.4421C10.9151 29.7993 11.3996 30 11.9048 30H15.5238V28.5714C15.5238 27.1429 16.6667 26 18.0952 26C19.5238 26 20.6667 27.1429 20.6667 28.5714V30H24.2857C24.7909 30 25.2754 29.7993 25.6326 29.4421C25.9898 29.0849 26.1905 28.6004 26.1905 28.0952V24.2857H27.619C28.2505 24.2857 28.8561 24.0349 29.3026 23.5883C29.7492 23.1418 30 22.5362 30 21.9048C30 21.2733 29.7492 20.6677 29.3026 20.2212C28.8561 19.7747 28.2505 19.5238 27.619 19.5238Z" fill="black"/>
<path d="M27.619 19.5238H26.1905V15.7143C26.1905 15.2091 25.9898 14.7246 25.6326 14.3674C25.2754 14.0102 24.7909 13.8095 24.2857 13.8095H20.4762V12.381C20.4762 11.7495 20.2253 11.1439 19.7788 10.6974C19.3323 10.2508 18.7267 10 18.0952 10C17.4638 10 16.8582 10.2508 16.4117 10.6974C15.9651 11.1439 15.7143 11.7495 15.7143 12.381V13.8095H11.9048C11.3996 13.8095 10.9151 14.0102 10.5579 14.3674C10.2007 14.7246 10 15.2091 10 15.7143V19.3333H11.4286C12.8571 19.3333 14 20.4762 14 21.9048C14 23.3333 12.8571 24.4762 11.4286 24.4762H10V28.0952C10 28.6004 10.2007 29.0849 10.5579 29.4421C10.9151 29.7993 11.3996 30 11.9048 30H15.5238V28.5714C15.5238 27.1429 16.6667 26 18.0952 26C19.5238 26 20.6667 27.1429 20.6667 28.5714V30H24.2857C24.7909 30 25.2754 29.7993 25.6326 29.4421C25.9898 29.0849 26.1905 28.6004 26.1905 28.0952V24.2857H27.619C28.2505 24.2857 28.8561 24.0349 29.3026 23.5883C29.7492 23.1418 30 22.5362 30 21.9048C30 21.2733 29.7492 20.6677 29.3026 20.2212C28.8561 19.7747 28.2505 19.5238 27.619 19.5238Z" fill="url(#paint0_linear_5089_4439)"/>
<defs>
<linearGradient id="paint0_linear_5089_4439" x1="11.75" y1="11.75" x2="27.5" y2="29" gradientUnits="userSpaceOnUse">
<stop stop-color="#85BCE5"/>
<stop offset="1" stop-color="#184ACA"/>
</linearGradient>
</defs>
</svg>
