<svg width="40" height="40" viewBox="0 0 40 40" fill="none" xmlns="http://www.w3.org/2000/svg">
<rect x="0.5" y="0.5" width="39" height="39" rx="3.5" stroke="#2B2B2D"/>
<path d="M26.7066 19.8015L17.9566 29.1765C17.8639 29.2755 17.7415 29.3416 17.6079 29.3649C17.4743 29.3882 17.3368 29.3674 17.216 29.3056C17.0953 29.2439 16.9979 29.1446 16.9385 29.0226C16.8792 28.9007 16.8612 28.7627 16.8871 28.6296L18.0324 22.9007L13.5301 21.2101C13.4334 21.1739 13.3471 21.1144 13.2791 21.0367C13.211 20.9591 13.1632 20.8658 13.14 20.7653C13.1168 20.6647 13.1189 20.5599 13.146 20.4603C13.1732 20.3607 13.2246 20.2694 13.2957 20.1945L22.0457 10.8195C22.1384 10.7205 22.2608 10.6544 22.3944 10.6311C22.528 10.6078 22.6655 10.6286 22.7863 10.6904C22.907 10.7521 23.0044 10.8514 23.0637 10.9734C23.1231 11.0953 23.1411 11.2332 23.1152 11.3664L21.9668 17.1015L26.4691 18.7898C26.5651 18.8262 26.6506 18.8857 26.7182 18.963C26.7857 19.0403 26.8331 19.1331 26.8563 19.2331C26.8795 19.3331 26.8777 19.4373 26.851 19.5364C26.8243 19.6356 26.7737 19.7266 26.7035 19.8015H26.7066Z" fill="url(#paint0_linear_5089_4444)"/>
<defs>
<linearGradient id="paint0_linear_5089_4444" x1="14.327" y1="12.2627" x2="28.8057" y2="23.8888" gradientUnits="userSpaceOnUse">
<stop stop-color="#85BCE5"/>
<stop offset="1" stop-color="#184ACA"/>
</linearGradient>
</defs>
</svg>
