<svg width="40" height="40" viewBox="0 0 40 40" fill="none" xmlns="http://www.w3.org/2000/svg">
<rect x="0.5" y="0.5" width="39" height="39" rx="3.5" stroke="#2B2B2D"/>
<g clip-path="url(#clip0_5089_4457)">
<path d="M30.5141 14.4956C30.3879 14.0132 30.1418 13.5735 29.8002 13.2201C29.4586 12.8668 29.0335 12.6121 28.5671 12.4816C26.8599 12 19.9888 12 19.9888 12C19.9888 12 13.1175 12.0146 11.4102 12.4962C10.9439 12.6267 10.5187 12.8814 10.1771 13.2347C9.83554 13.5881 9.58939 14.0279 9.46322 14.5102C8.94682 17.6478 8.7465 22.4288 9.4774 25.4409C9.60359 25.9232 9.84974 26.363 10.1913 26.7163C10.5329 27.0697 10.9581 27.3243 11.4244 27.4548C13.1316 27.9364 20.0029 27.9364 20.0029 27.9364C20.0029 27.9364 26.874 27.9364 28.5811 27.4548C29.0475 27.3243 29.4726 27.0697 29.8142 26.7163C30.1559 26.363 30.402 25.9233 30.5282 25.4409C31.0729 22.2988 31.2407 17.5208 30.5141 14.4956Z" fill="white"/>
<path d="M30.5141 14.4956C30.3879 14.0132 30.1418 13.5735 29.8002 13.2201C29.4586 12.8668 29.0335 12.6121 28.5671 12.4816C26.8599 12 19.9888 12 19.9888 12C19.9888 12 13.1175 12.0146 11.4102 12.4962C10.9439 12.6267 10.5187 12.8814 10.1771 13.2347C9.83554 13.5881 9.58939 14.0279 9.46322 14.5102C8.94682 17.6478 8.7465 22.4288 9.4774 25.4409C9.60359 25.9232 9.84974 26.363 10.1913 26.7163C10.5329 27.0697 10.9581 27.3243 11.4244 27.4548C13.1316 27.9364 20.0029 27.9364 20.0029 27.9364C20.0029 27.9364 26.874 27.9364 28.5811 27.4548C29.0475 27.3243 29.4726 27.0697 29.8142 26.7163C30.1559 26.363 30.402 25.9233 30.5282 25.4409C31.0729 22.2988 31.2407 17.5208 30.5141 14.4956Z" fill="url(#paint0_linear_5089_4457)"/>
<path d="M17.8018 23.3831L23.5018 19.9682L17.8018 16.5532V23.3831Z" fill="white"/>
</g>
<defs>
<linearGradient id="paint0_linear_5089_4457" x1="10.925" y1="13.3944" x2="22.5218" y2="30.9281" gradientUnits="userSpaceOnUse">
<stop stop-color="#85BCE5"/>
<stop offset="1" stop-color="#184ACA"/>
</linearGradient>
<clipPath id="clip0_5089_4457">
<rect width="22" height="16" fill="white" transform="translate(9 12)"/>
</clipPath>
</defs>
</svg>
