<svg width="40" height="40" viewBox="0 0 40 40" fill="none" xmlns="http://www.w3.org/2000/svg">
<rect x="0.5" y="0.5" width="39" height="39" rx="3.5" stroke="#2B2B2D"/>
<path d="M14 30C13.45 30 12.979 29.804 12.587 29.412C12.195 29.02 11.9993 28.5493 12 28V12C12 11.45 12.196 10.979 12.588 10.587C12.98 10.195 13.4507 9.99934 14 10H26C26.55 10 27.021 10.196 27.413 10.588C27.805 10.98 28.0007 11.4507 28 12V28C28 28.55 27.804 29.021 27.412 29.413C27.02 29.805 26.5493 30.0007 26 30H14ZM19 19L21.5 17.5L24 19V12H19V19Z" fill="white"/>
<path d="M14 30C13.45 30 12.979 29.804 12.587 29.412C12.195 29.02 11.9993 28.5493 12 28V12C12 11.45 12.196 10.979 12.588 10.587C12.98 10.195 13.4507 9.99934 14 10H26C26.55 10 27.021 10.196 27.413 10.588C27.805 10.98 28.0007 11.4507 28 12V28C28 28.55 27.804 29.021 27.412 29.413C27.02 29.805 26.5493 30.0007 26 30H14ZM19 19L21.5 17.5L24 19V12H19V19Z" fill="url(#paint0_linear_5089_4466)"/>
<defs>
<linearGradient id="paint0_linear_5089_4466" x1="13.4" y1="11.75" x2="29.0781" y2="25.487" gradientUnits="userSpaceOnUse">
<stop stop-color="#85BCE5"/>
<stop offset="1" stop-color="#184ACA"/>
</linearGradient>
</defs>
</svg>
