<svg width="2400" height="740" viewBox="0 0 2400 740" fill="none" xmlns="http://www.w3.org/2000/svg">
<path d="M1654.62 302.5L1634.62 290.953L1634.62 314.047L1654.62 302.5ZM744.655 304.5L1636.62 304.5L1636.62 300.5L744.655 300.5L744.655 304.5Z" fill="#777777"/>
<path d="M1073.28 259V233.545H1082.36C1084.34 233.545 1085.98 233.906 1087.28 234.627C1088.58 235.348 1089.55 236.334 1090.2 237.585C1090.85 238.828 1091.17 240.228 1091.17 241.786C1091.17 243.352 1090.84 244.761 1090.19 246.012C1089.54 247.255 1088.56 248.241 1087.25 248.97C1085.95 249.691 1084.32 250.051 1082.35 250.051H1076.11V246.795H1082C1083.25 246.795 1084.26 246.579 1085.04 246.148C1085.82 245.709 1086.39 245.113 1086.76 244.359C1087.12 243.605 1087.3 242.747 1087.3 241.786C1087.3 240.825 1087.12 239.971 1086.76 239.225C1086.39 238.48 1085.82 237.896 1085.03 237.473C1084.25 237.05 1083.22 236.839 1081.95 236.839H1077.12V259H1073.28ZM1117.78 246.273C1117.78 248.991 1117.29 251.327 1116.29 253.283C1115.3 255.23 1113.93 256.73 1112.2 257.782C1110.48 258.826 1108.52 259.348 1106.32 259.348C1104.12 259.348 1102.15 258.826 1100.42 257.782C1098.7 256.73 1097.34 255.226 1096.34 253.27C1095.35 251.315 1094.85 248.982 1094.85 246.273C1094.85 243.555 1095.35 241.222 1096.34 239.275C1097.34 237.32 1098.7 235.82 1100.42 234.776C1102.15 233.724 1104.12 233.197 1106.32 233.197C1108.52 233.197 1110.48 233.724 1112.2 234.776C1113.93 235.82 1115.3 237.32 1116.29 239.275C1117.29 241.222 1117.78 243.555 1117.78 246.273ZM1113.98 246.273C1113.98 244.201 1113.64 242.457 1112.97 241.04C1112.31 239.615 1111.4 238.538 1110.24 237.809C1109.09 237.071 1107.78 236.702 1106.32 236.702C1104.86 236.702 1103.55 237.071 1102.4 237.809C1101.24 238.538 1100.33 239.615 1099.66 241.04C1099 242.457 1098.67 244.201 1098.67 246.273C1098.67 248.344 1099 250.093 1099.66 251.518C1100.33 252.935 1101.24 254.012 1102.4 254.749C1103.55 255.478 1104.86 255.843 1106.32 255.843C1107.78 255.843 1109.09 255.478 1110.24 254.749C1111.4 254.012 1112.31 252.935 1112.97 251.518C1113.64 250.093 1113.98 248.344 1113.98 246.273ZM1136.45 240.232C1136.32 239.056 1135.78 238.144 1134.81 237.498C1133.85 236.843 1132.64 236.516 1131.18 236.516C1130.14 236.516 1129.24 236.682 1128.48 237.013C1127.71 237.336 1127.12 237.784 1126.7 238.355C1126.28 238.919 1126.08 239.561 1126.08 240.282C1126.08 240.887 1126.22 241.409 1126.5 241.848C1126.79 242.287 1127.17 242.656 1127.63 242.954C1128.1 243.244 1128.61 243.489 1129.15 243.688C1129.68 243.878 1130.2 244.036 1130.7 244.16L1133.19 244.806C1134 245.005 1134.83 245.274 1135.68 245.614C1136.54 245.954 1137.33 246.401 1138.06 246.956C1138.79 247.511 1139.38 248.199 1139.82 249.02C1140.28 249.84 1140.51 250.822 1140.51 251.965C1140.51 253.407 1140.13 254.687 1139.39 255.806C1138.65 256.924 1137.58 257.807 1136.17 258.453C1134.77 259.099 1133.07 259.423 1131.09 259.423C1129.18 259.423 1127.53 259.12 1126.14 258.515C1124.75 257.91 1123.66 257.053 1122.87 255.942C1122.08 254.824 1121.65 253.498 1121.56 251.965H1125.42C1125.49 252.885 1125.79 253.651 1126.31 254.265C1126.84 254.869 1127.52 255.321 1128.34 255.619C1129.17 255.909 1130.07 256.054 1131.06 256.054C1132.15 256.054 1133.11 255.884 1133.96 255.545C1134.81 255.197 1135.48 254.716 1135.97 254.103C1136.46 253.482 1136.7 252.757 1136.7 251.928C1136.7 251.174 1136.49 250.557 1136.06 250.076C1135.63 249.595 1135.06 249.198 1134.33 248.883C1133.61 248.568 1132.79 248.29 1131.88 248.05L1128.87 247.23C1126.83 246.675 1125.22 245.858 1124.03 244.781C1122.84 243.704 1122.25 242.279 1122.25 240.506C1122.25 239.039 1122.65 237.759 1123.44 236.665C1124.24 235.571 1125.31 234.722 1126.67 234.117C1128.03 233.504 1129.56 233.197 1131.27 233.197C1133 233.197 1134.52 233.5 1135.83 234.105C1137.16 234.71 1138.2 235.542 1138.97 236.603C1139.73 237.655 1140.13 238.865 1140.16 240.232H1136.45ZM1143.84 236.852V233.545H1163.54V236.852H1155.6V259H1151.77V236.852H1143.84ZM1186.55 232.352L1178.35 262.828H1175.03L1183.23 232.352H1186.55ZM1198.97 266.159V239.909H1202.6V243.004H1202.91C1203.13 242.606 1203.44 242.146 1203.84 241.624C1204.25 241.102 1204.81 240.647 1205.53 240.257C1206.26 239.859 1207.21 239.661 1208.39 239.661C1209.93 239.661 1211.31 240.05 1212.52 240.829C1213.73 241.608 1214.68 242.73 1215.37 244.197C1216.06 245.664 1216.41 247.429 1216.41 249.492C1216.41 251.555 1216.07 253.324 1215.38 254.799C1214.69 256.266 1213.75 257.397 1212.54 258.192C1211.34 258.979 1209.97 259.373 1208.43 259.373C1207.27 259.373 1206.32 259.178 1205.58 258.789C1204.86 258.399 1204.28 257.944 1203.87 257.422C1203.46 256.9 1203.14 256.435 1202.91 256.029H1202.69V266.159H1198.97ZM1202.61 249.455C1202.61 250.797 1202.81 251.973 1203.2 252.984C1203.59 253.995 1204.15 254.787 1204.89 255.358C1205.63 255.922 1206.53 256.203 1207.6 256.203C1208.71 256.203 1209.64 255.909 1210.38 255.321C1211.13 254.724 1211.69 253.917 1212.07 252.897C1212.46 251.878 1212.66 250.731 1212.66 249.455C1212.66 248.195 1212.47 247.064 1212.08 246.061C1211.71 245.059 1211.15 244.268 1210.39 243.688C1209.65 243.107 1208.72 242.817 1207.6 242.817C1206.52 242.817 1205.61 243.095 1204.86 243.65C1204.13 244.205 1203.57 244.98 1203.19 245.974C1202.8 246.969 1202.61 248.129 1202.61 249.455ZM1226.13 259.423C1224.92 259.423 1223.83 259.199 1222.85 258.751C1221.87 258.296 1221.1 257.637 1220.52 256.775C1219.96 255.913 1219.68 254.857 1219.68 253.606C1219.68 252.529 1219.89 251.642 1220.3 250.946C1220.71 250.25 1221.27 249.699 1221.98 249.293C1222.68 248.887 1223.47 248.58 1224.34 248.373C1225.21 248.166 1226.1 248.009 1227 247.901C1228.14 247.768 1229.07 247.661 1229.78 247.578C1230.5 247.487 1231.01 247.342 1231.34 247.143C1231.66 246.944 1231.82 246.621 1231.82 246.173V246.086C1231.82 245.001 1231.52 244.16 1230.9 243.563C1230.3 242.967 1229.39 242.668 1228.19 242.668C1226.94 242.668 1225.96 242.946 1225.23 243.501C1224.52 244.048 1224.03 244.657 1223.76 245.328L1220.26 244.533C1220.68 243.373 1221.28 242.436 1222.08 241.724C1222.88 241.003 1223.81 240.481 1224.85 240.158C1225.89 239.826 1226.99 239.661 1228.14 239.661C1228.91 239.661 1229.71 239.752 1230.57 239.934C1231.43 240.108 1232.23 240.431 1232.98 240.903C1233.73 241.376 1234.35 242.051 1234.83 242.929C1235.31 243.799 1235.55 244.93 1235.55 246.322V259H1231.92V256.39H1231.77C1231.53 256.871 1231.17 257.343 1230.69 257.807C1230.21 258.271 1229.59 258.656 1228.84 258.963C1228.09 259.269 1227.18 259.423 1226.13 259.423ZM1226.94 256.44C1227.96 256.44 1228.84 256.237 1229.57 255.831C1230.31 255.425 1230.87 254.894 1231.25 254.24C1231.64 253.577 1231.83 252.868 1231.83 252.114V249.653C1231.7 249.786 1231.45 249.91 1231.06 250.026C1230.69 250.134 1230.26 250.229 1229.78 250.312C1229.3 250.387 1228.84 250.457 1228.38 250.523C1227.92 250.581 1227.54 250.631 1227.24 250.673C1226.51 250.764 1225.86 250.917 1225.26 251.132C1224.67 251.348 1224.2 251.659 1223.84 252.065C1223.49 252.462 1223.32 252.993 1223.32 253.656C1223.32 254.575 1223.66 255.271 1224.34 255.744C1225.02 256.208 1225.89 256.44 1226.94 256.44ZM1242.17 266.159C1241.61 266.159 1241.11 266.114 1240.65 266.022C1240.19 265.94 1239.85 265.848 1239.63 265.749L1240.53 262.704C1241.2 262.886 1241.81 262.965 1242.34 262.94C1242.87 262.915 1243.34 262.716 1243.74 262.343C1244.16 261.971 1244.52 261.362 1244.84 260.516L1245.3 259.249L1238.31 239.909H1242.29L1247.13 254.724H1247.32L1252.16 239.909H1256.15L1248.28 261.548C1247.92 262.542 1247.45 263.383 1246.89 264.071C1246.33 264.767 1245.65 265.289 1244.88 265.637C1244.1 265.985 1243.19 266.159 1242.17 266.159ZM1263.36 233.545V259H1259.64V233.545H1263.36ZM1276.4 259.385C1274.61 259.385 1273.05 258.975 1271.71 258.155C1270.38 257.335 1269.34 256.187 1268.61 254.712C1267.87 253.237 1267.5 251.514 1267.5 249.542C1267.5 247.561 1267.87 245.829 1268.61 244.346C1269.34 242.863 1270.38 241.711 1271.71 240.891C1273.05 240.071 1274.61 239.661 1276.4 239.661C1278.19 239.661 1279.75 240.071 1281.08 240.891C1282.42 241.711 1283.45 242.863 1284.19 244.346C1284.93 245.829 1285.3 247.561 1285.3 249.542C1285.3 251.514 1284.93 253.237 1284.19 254.712C1283.45 256.187 1282.42 257.335 1281.08 258.155C1279.75 258.975 1278.19 259.385 1276.4 259.385ZM1276.41 256.266C1277.57 256.266 1278.53 255.959 1279.29 255.346C1280.06 254.733 1280.62 253.917 1280.98 252.897C1281.36 251.878 1281.54 250.755 1281.54 249.529C1281.54 248.311 1281.36 247.192 1280.98 246.173C1280.62 245.146 1280.06 244.321 1279.29 243.7C1278.53 243.078 1277.57 242.768 1276.41 242.768C1275.24 242.768 1274.27 243.078 1273.5 243.7C1272.74 244.321 1272.17 245.146 1271.8 246.173C1271.44 247.192 1271.25 248.311 1271.25 249.529C1271.25 250.755 1271.44 251.878 1271.8 252.897C1272.17 253.917 1272.74 254.733 1273.5 255.346C1274.27 255.959 1275.24 256.266 1276.41 256.266ZM1295 259.423C1293.79 259.423 1292.7 259.199 1291.72 258.751C1290.74 258.296 1289.97 257.637 1289.4 256.775C1288.83 255.913 1288.55 254.857 1288.55 253.606C1288.55 252.529 1288.76 251.642 1289.17 250.946C1289.59 250.25 1290.15 249.699 1290.85 249.293C1291.55 248.887 1292.34 248.58 1293.21 248.373C1294.08 248.166 1294.97 248.009 1295.87 247.901C1297.02 247.768 1297.94 247.661 1298.66 247.578C1299.37 247.487 1299.89 247.342 1300.21 247.143C1300.53 246.944 1300.69 246.621 1300.69 246.173V246.086C1300.69 245.001 1300.39 244.16 1299.77 243.563C1299.17 242.967 1298.27 242.668 1297.06 242.668C1295.81 242.668 1294.83 242.946 1294.11 243.501C1293.39 244.048 1292.9 244.657 1292.63 245.328L1289.14 244.533C1289.55 243.373 1290.15 242.436 1290.95 241.724C1291.75 241.003 1292.68 240.481 1293.72 240.158C1294.77 239.826 1295.86 239.661 1297.02 239.661C1297.78 239.661 1298.59 239.752 1299.44 239.934C1300.3 240.108 1301.1 240.431 1301.85 240.903C1302.6 241.376 1303.22 242.051 1303.7 242.929C1304.18 243.799 1304.42 244.93 1304.42 246.322V259H1300.79V256.39H1300.64C1300.4 256.871 1300.04 257.343 1299.56 257.807C1299.08 258.271 1298.47 258.656 1297.71 258.963C1296.96 259.269 1296.05 259.423 1295 259.423ZM1295.81 256.44C1296.84 256.44 1297.72 256.237 1298.44 255.831C1299.18 255.425 1299.74 254.894 1300.12 254.24C1300.51 253.577 1300.71 252.868 1300.71 252.114V249.653C1300.57 249.786 1300.32 249.91 1299.94 250.026C1299.56 250.134 1299.14 250.229 1298.66 250.312C1298.18 250.387 1297.71 250.457 1297.25 250.523C1296.8 250.581 1296.41 250.631 1296.11 250.673C1295.39 250.764 1294.73 250.917 1294.13 251.132C1293.54 251.348 1293.07 251.659 1292.71 252.065C1292.37 252.462 1292.19 252.993 1292.19 253.656C1292.19 254.575 1292.53 255.271 1293.21 255.744C1293.89 256.208 1294.76 256.44 1295.81 256.44ZM1316.52 259.373C1314.98 259.373 1313.6 258.979 1312.39 258.192C1311.19 257.397 1310.25 256.266 1309.56 254.799C1308.88 253.324 1308.54 251.555 1308.54 249.492C1308.54 247.429 1308.88 245.664 1309.57 244.197C1310.27 242.73 1311.22 241.608 1312.43 240.829C1313.64 240.05 1315.01 239.661 1316.54 239.661C1317.73 239.661 1318.68 239.859 1319.4 240.257C1320.13 240.647 1320.7 241.102 1321.09 241.624C1321.5 242.146 1321.81 242.606 1322.04 243.004H1322.26V233.545H1325.98V259H1322.35V256.029H1322.04C1321.81 256.435 1321.49 256.9 1321.07 257.422C1320.65 257.944 1320.08 258.399 1319.35 258.789C1318.62 259.178 1317.68 259.373 1316.52 259.373ZM1317.34 256.203C1318.41 256.203 1319.31 255.922 1320.05 255.358C1320.79 254.787 1321.36 253.995 1321.74 252.984C1322.13 251.973 1322.32 250.797 1322.32 249.455C1322.32 248.129 1322.13 246.969 1321.75 245.974C1321.37 244.98 1320.81 244.205 1320.07 243.65C1319.34 243.095 1318.43 242.817 1317.34 242.817C1316.22 242.817 1315.29 243.107 1314.54 243.688C1313.8 244.268 1313.23 245.059 1312.85 246.061C1312.48 247.064 1312.29 248.195 1312.29 249.455C1312.29 250.731 1312.48 251.878 1312.87 252.897C1313.25 253.917 1313.81 254.724 1314.56 255.321C1315.31 255.909 1316.24 256.203 1317.34 256.203Z" fill="#777777"/>
<path d="M744.655 450L764.655 461.547L764.655 438.453L744.655 450ZM762.655 452L1654.62 452L1654.62 448L762.655 448L762.655 452Z" fill="#777777"/>
<path d="M836.607 406.5V381.045H845.68C847.652 381.045 849.289 381.385 850.59 382.065C851.899 382.744 852.877 383.685 853.523 384.886C854.169 386.079 854.492 387.459 854.492 389.025C854.492 390.583 854.165 391.954 853.51 393.139C852.864 394.315 851.886 395.231 850.577 395.886C849.276 396.54 847.64 396.868 845.668 396.868H838.795V393.561H845.32C846.563 393.561 847.574 393.383 848.352 393.027C849.14 392.671 849.715 392.153 850.08 391.473C850.445 390.794 850.627 389.978 850.627 389.025C850.627 388.064 850.44 387.231 850.068 386.527C849.703 385.822 849.127 385.284 848.34 384.911C847.561 384.53 846.538 384.339 845.27 384.339H840.448V406.5H836.607ZM849.173 395.016L855.462 406.5H851.087L844.922 395.016H849.173ZM866.856 406.885C864.975 406.885 863.355 406.483 861.996 405.68C860.646 404.868 859.602 403.728 858.864 402.262C858.135 400.787 857.77 399.059 857.77 397.079C857.77 395.123 858.135 393.4 858.864 391.908C859.602 390.417 860.629 389.253 861.947 388.416C863.272 387.579 864.822 387.161 866.595 387.161C867.672 387.161 868.716 387.339 869.727 387.695C870.738 388.051 871.645 388.611 872.449 389.373C873.253 390.135 873.887 391.125 874.351 392.343C874.815 393.553 875.047 395.024 875.047 396.756V398.073H859.871V395.289H871.405C871.405 394.311 871.206 393.445 870.808 392.691C870.411 391.929 869.851 391.328 869.131 390.889C868.418 390.45 867.581 390.23 866.62 390.23C865.576 390.23 864.664 390.487 863.886 391.001C863.115 391.507 862.518 392.169 862.096 392.99C861.681 393.802 861.474 394.684 861.474 395.637V397.812C861.474 399.088 861.698 400.174 862.145 401.069C862.601 401.963 863.235 402.647 864.047 403.119C864.859 403.583 865.808 403.815 866.893 403.815C867.598 403.815 868.24 403.716 868.82 403.517C869.4 403.31 869.901 403.003 870.324 402.597C870.746 402.191 871.069 401.69 871.293 401.093L874.811 401.727C874.529 402.763 874.023 403.67 873.294 404.449C872.573 405.22 871.666 405.821 870.572 406.251C869.487 406.674 868.248 406.885 866.856 406.885ZM888.082 387.409V390.392H877.654V387.409H888.082ZM880.45 382.835H884.167V400.895C884.167 401.615 884.274 402.158 884.49 402.523C884.705 402.879 884.983 403.123 885.322 403.256C885.67 403.38 886.047 403.442 886.453 403.442C886.752 403.442 887.013 403.422 887.236 403.38C887.46 403.339 887.634 403.306 887.758 403.281L888.43 406.351C888.214 406.434 887.908 406.517 887.51 406.599C887.112 406.691 886.615 406.74 886.018 406.749C885.041 406.765 884.129 406.591 883.284 406.227C882.439 405.862 881.755 405.299 881.233 404.536C880.711 403.774 880.45 402.817 880.45 401.665V382.835ZM904.286 398.583V387.409H908.015V406.5H904.36V403.194H904.162C903.722 404.213 903.018 405.062 902.049 405.742C901.088 406.413 899.89 406.749 898.457 406.749C897.23 406.749 896.145 406.479 895.2 405.941C894.264 405.394 893.527 404.586 892.988 403.517C892.458 402.448 892.193 401.127 892.193 399.552V387.409H895.909V399.105C895.909 400.406 896.269 401.441 896.99 402.212C897.711 402.983 898.647 403.368 899.799 403.368C900.495 403.368 901.187 403.194 901.875 402.846C902.571 402.498 903.147 401.972 903.602 401.267C904.066 400.563 904.294 399.668 904.286 398.583ZM913.008 406.5V387.409H916.6V390.442H916.799C917.147 389.414 917.76 388.606 918.638 388.018C919.525 387.422 920.527 387.123 921.646 387.123C921.878 387.123 922.152 387.132 922.466 387.148C922.79 387.165 923.042 387.185 923.225 387.21V390.765C923.075 390.723 922.81 390.678 922.429 390.628C922.048 390.57 921.667 390.541 921.286 390.541C920.407 390.541 919.624 390.728 918.937 391.1C918.257 391.465 917.719 391.975 917.321 392.629C916.923 393.276 916.724 394.013 916.724 394.842V406.5H913.008ZM930.157 395.165V406.5H926.441V387.409L930.008 387.409V390.516H930.244C930.683 389.505 931.371 388.693 932.307 388.08C933.252 387.467 934.441 387.161 935.874 387.161C937.175 387.161 938.314 387.434 939.292 387.981C940.27 388.519 941.028 389.323 941.567 390.392C942.105 391.461 942.375 392.783 942.375 394.357V406.5H938.658V394.804C938.658 393.421 938.298 392.339 937.577 391.56C936.856 390.773 935.866 390.38 934.606 390.38C933.745 390.38 932.978 390.566 932.307 390.939C931.644 391.312 931.118 391.859 930.729 392.58C930.347 393.292 930.157 394.154 930.157 395.165ZM960.338 381.045V406.5H956.621V381.045H960.338ZM973.379 406.885C971.589 406.885 970.027 406.475 968.693 405.655C967.359 404.835 966.323 403.687 965.586 402.212C964.848 400.737 964.479 399.014 964.479 397.042C964.479 395.061 964.848 393.329 965.586 391.846C966.323 390.363 967.359 389.211 968.693 388.391C970.027 387.571 971.589 387.161 973.379 387.161C975.168 387.161 976.73 387.571 978.064 388.391C979.398 389.211 980.434 390.363 981.172 391.846C981.909 393.329 982.278 395.061 982.278 397.042C982.278 399.014 981.909 400.737 981.172 402.212C980.434 403.687 979.398 404.835 978.064 405.655C976.73 406.475 975.168 406.885 973.379 406.885ZM973.391 403.766C974.551 403.766 975.512 403.459 976.275 402.846C977.037 402.233 977.6 401.417 977.965 400.397C978.338 399.378 978.524 398.255 978.524 397.029C978.524 395.811 978.338 394.692 977.965 393.673C977.6 392.646 977.037 391.821 976.275 391.2C975.512 390.578 974.551 390.268 973.391 390.268C972.223 390.268 971.253 390.578 970.483 391.2C969.72 391.821 969.153 392.646 968.78 393.673C968.415 394.692 968.233 395.811 968.233 397.029C968.233 398.255 968.415 399.378 968.78 400.397C969.153 401.417 969.72 402.233 970.483 402.846C971.253 403.459 972.223 403.766 973.391 403.766ZM994.43 414.057C992.914 414.057 991.609 413.858 990.515 413.46C989.43 413.063 988.543 412.536 987.855 411.882C987.168 411.227 986.654 410.51 986.314 409.732L989.508 408.414C989.732 408.779 990.03 409.164 990.403 409.57C990.784 409.984 991.298 410.336 991.944 410.626C992.599 410.916 993.44 411.061 994.467 411.061C995.876 411.061 997.04 410.718 997.96 410.03C998.88 409.35 999.34 408.265 999.34 406.773V403.02H999.103C998.88 403.426 998.557 403.877 998.134 404.375C997.72 404.872 997.148 405.303 996.419 405.667C995.69 406.032 994.741 406.214 993.573 406.214C992.065 406.214 990.706 405.862 989.496 405.158C988.294 404.445 987.342 403.397 986.637 402.013C985.941 400.621 985.593 398.91 985.593 396.88C985.593 394.85 985.937 393.11 986.625 391.66C987.321 390.21 988.274 389.099 989.483 388.329C990.693 387.55 992.065 387.161 993.597 387.161C994.782 387.161 995.739 387.359 996.469 387.757C997.198 388.147 997.765 388.602 998.171 389.124C998.586 389.646 998.905 390.106 999.128 390.504H999.402V387.409H1003.04V406.923C1003.04 408.563 1002.66 409.91 1001.9 410.962C1001.14 412.014 1000.11 412.793 998.805 413.299C997.513 413.804 996.054 414.057 994.43 414.057ZM994.393 403.132C995.462 403.132 996.365 402.883 997.102 402.386C997.848 401.881 998.412 401.16 998.793 400.223C999.182 399.279 999.377 398.148 999.377 396.83C999.377 395.546 999.186 394.415 998.805 393.437C998.424 392.459 997.865 391.697 997.127 391.15C996.39 390.595 995.478 390.317 994.393 390.317C993.274 390.317 992.342 390.607 991.596 391.188C990.851 391.759 990.287 392.538 989.906 393.524C989.533 394.51 989.347 395.612 989.347 396.83C989.347 398.081 989.537 399.179 989.918 400.124C990.3 401.069 990.863 401.806 991.609 402.336C992.363 402.867 993.291 403.132 994.393 403.132ZM1008.03 406.5V387.409H1011.74V406.5H1008.03ZM1009.9 384.463C1009.26 384.463 1008.7 384.248 1008.24 383.817C1007.78 383.378 1007.56 382.856 1007.56 382.251C1007.56 381.638 1007.78 381.116 1008.24 380.685C1008.7 380.246 1009.26 380.026 1009.9 380.026C1010.55 380.026 1011.1 380.246 1011.56 380.685C1012.02 381.116 1012.25 381.638 1012.25 382.251C1012.25 382.856 1012.02 383.378 1011.56 383.817C1011.1 384.248 1010.55 384.463 1009.9 384.463ZM1020.46 395.165V406.5H1016.74V387.409H1020.31V390.516H1020.55C1020.99 389.505 1021.67 388.693 1022.61 388.08C1023.55 387.467 1024.74 387.161 1026.18 387.161C1027.48 387.161 1028.62 387.434 1029.59 387.981C1030.57 388.519 1031.33 389.323 1031.87 390.392C1032.41 391.461 1032.68 392.783 1032.68 394.357V406.5H1028.96V394.804C1028.96 393.421 1028.6 392.339 1027.88 391.56C1027.16 390.773 1026.17 390.38 1024.91 390.38C1024.05 390.38 1023.28 390.566 1022.61 390.939C1021.95 391.312 1021.42 391.859 1021.03 392.58C1020.65 393.292 1020.46 394.154 1020.46 395.165ZM1046.92 413.659V387.409H1050.55V390.504H1050.86C1051.08 390.106 1051.39 389.646 1051.8 389.124C1052.2 388.602 1052.77 388.147 1053.49 387.757C1054.21 387.359 1055.16 387.161 1056.35 387.161C1057.89 387.161 1059.26 387.55 1060.47 388.329C1061.68 389.108 1062.63 390.23 1063.32 391.697C1064.01 393.164 1064.36 394.929 1064.36 396.992C1064.36 399.055 1064.02 400.824 1063.33 402.299C1062.64 403.766 1061.7 404.897 1060.5 405.692C1059.29 406.479 1057.92 406.873 1056.38 406.873C1055.22 406.873 1054.27 406.678 1053.54 406.289C1052.81 405.899 1052.24 405.444 1051.82 404.922C1051.41 404.4 1051.09 403.935 1050.86 403.529H1050.64V413.659H1046.92ZM1050.57 396.955C1050.57 398.297 1050.76 399.473 1051.15 400.484C1051.54 401.495 1052.1 402.287 1052.84 402.858C1053.58 403.422 1054.48 403.703 1055.55 403.703C1056.66 403.703 1057.59 403.409 1058.33 402.821C1059.08 402.224 1059.64 401.417 1060.02 400.397C1060.41 399.378 1060.61 398.231 1060.61 396.955C1060.61 395.695 1060.42 394.564 1060.04 393.561C1059.66 392.559 1059.1 391.768 1058.35 391.188C1057.6 390.607 1056.67 390.317 1055.55 390.317C1054.47 390.317 1053.56 390.595 1052.82 391.15C1052.08 391.705 1051.52 392.48 1051.14 393.474C1050.76 394.469 1050.57 395.629 1050.57 396.955ZM1074.08 406.923C1072.87 406.923 1071.78 406.699 1070.8 406.251C1069.82 405.796 1069.05 405.137 1068.48 404.275C1067.91 403.413 1067.63 402.357 1067.63 401.106C1067.63 400.029 1067.84 399.142 1068.25 398.446C1068.67 397.75 1069.23 397.199 1069.93 396.793C1070.63 396.387 1071.42 396.08 1072.29 395.873C1073.16 395.666 1074.05 395.509 1074.95 395.401C1076.09 395.268 1077.02 395.161 1077.74 395.078C1078.45 394.987 1078.97 394.842 1079.29 394.643C1079.61 394.444 1079.77 394.121 1079.77 393.673V393.586C1079.77 392.501 1079.47 391.66 1078.85 391.063C1078.25 390.467 1077.35 390.168 1076.14 390.168C1074.89 390.168 1073.91 390.446 1073.19 391.001C1072.47 391.548 1071.98 392.157 1071.71 392.828L1068.21 392.033C1068.63 390.873 1069.23 389.936 1070.03 389.224C1070.83 388.503 1071.76 387.981 1072.8 387.658C1073.85 387.326 1074.94 387.161 1076.09 387.161C1076.86 387.161 1077.66 387.252 1078.52 387.434C1079.38 387.608 1080.18 387.931 1080.93 388.403C1081.68 388.876 1082.3 389.551 1082.78 390.429C1083.26 391.299 1083.5 392.43 1083.5 393.822V406.5H1079.87V403.89H1079.72C1079.48 404.371 1079.12 404.843 1078.64 405.307C1078.16 405.771 1077.54 406.156 1076.79 406.463C1076.04 406.769 1075.13 406.923 1074.08 406.923ZM1074.89 403.94C1075.92 403.94 1076.79 403.737 1077.52 403.331C1078.26 402.925 1078.82 402.394 1079.2 401.74C1079.59 401.077 1079.79 400.368 1079.79 399.614V397.153C1079.65 397.286 1079.4 397.41 1079.02 397.526C1078.64 397.634 1078.22 397.729 1077.74 397.812C1077.25 397.887 1076.79 397.957 1076.33 398.023C1075.88 398.081 1075.49 398.131 1075.19 398.173C1074.47 398.264 1073.81 398.417 1073.21 398.632C1072.62 398.848 1072.15 399.159 1071.79 399.565C1071.45 399.962 1071.27 400.493 1071.27 401.156C1071.27 402.075 1071.61 402.771 1072.29 403.244C1072.97 403.708 1073.84 403.94 1074.89 403.94ZM1090.12 413.659C1089.56 413.659 1089.06 413.614 1088.6 413.522C1088.15 413.44 1087.81 413.348 1087.58 413.249L1088.48 410.204C1089.16 410.386 1089.76 410.465 1090.29 410.44C1090.82 410.415 1091.29 410.216 1091.7 409.843C1092.11 409.471 1092.48 408.862 1092.79 408.016L1093.25 406.749L1086.26 387.409H1090.24L1095.08 402.224H1095.28L1100.11 387.409H1104.1L1096.23 409.048C1095.87 410.042 1095.4 410.883 1094.84 411.571C1094.28 412.267 1093.61 412.789 1092.83 413.137C1092.05 413.485 1091.15 413.659 1090.12 413.659ZM1111.31 381.045V406.5H1107.59V381.045H1111.31ZM1124.35 406.885C1122.56 406.885 1121 406.475 1119.66 405.655C1118.33 404.835 1117.29 403.687 1116.56 402.212C1115.82 400.737 1115.45 399.014 1115.45 397.042C1115.45 395.061 1115.82 393.329 1116.56 391.846C1117.29 390.363 1118.33 389.211 1119.66 388.391C1121 387.571 1122.56 387.161 1124.35 387.161C1126.14 387.161 1127.7 387.571 1129.04 388.391C1130.37 389.211 1131.41 390.363 1132.14 391.846C1132.88 393.329 1133.25 395.061 1133.25 397.042C1133.25 399.014 1132.88 400.737 1132.14 402.212C1131.41 403.687 1130.37 404.835 1129.04 405.655C1127.7 406.475 1126.14 406.885 1124.35 406.885ZM1124.36 403.766C1125.52 403.766 1126.48 403.459 1127.25 402.846C1128.01 402.233 1128.57 401.417 1128.94 400.397C1129.31 399.378 1129.5 398.255 1129.5 397.029C1129.5 395.811 1129.31 394.692 1128.94 393.673C1128.57 392.646 1128.01 391.821 1127.25 391.2C1126.48 390.578 1125.52 390.268 1124.36 390.268C1123.19 390.268 1122.22 390.578 1121.45 391.2C1120.69 391.821 1120.12 392.646 1119.75 393.673C1119.39 394.692 1119.2 395.811 1119.2 397.029C1119.2 398.255 1119.39 399.378 1119.75 400.397C1120.12 401.417 1120.69 402.233 1121.45 402.846C1122.22 403.459 1123.19 403.766 1124.36 403.766ZM1142.95 406.923C1141.74 406.923 1140.65 406.699 1139.67 406.251C1138.69 405.796 1137.92 405.137 1137.35 404.275C1136.78 403.413 1136.5 402.357 1136.5 401.106C1136.5 400.029 1136.71 399.142 1137.12 398.446C1137.54 397.75 1138.1 397.199 1138.8 396.793C1139.51 396.387 1140.29 396.08 1141.16 395.873C1142.03 395.666 1142.92 395.509 1143.82 395.401C1144.97 395.268 1145.89 395.161 1146.61 395.078C1147.32 394.987 1147.84 394.842 1148.16 394.643C1148.48 394.444 1148.65 394.121 1148.65 393.673V393.586C1148.65 392.501 1148.34 391.66 1147.73 391.063C1147.12 390.467 1146.22 390.168 1145.02 390.168C1143.77 390.168 1142.78 390.446 1142.06 391.001C1141.35 391.548 1140.85 392.157 1140.58 392.828L1137.09 392.033C1137.5 390.873 1138.11 389.936 1138.9 389.224C1139.71 388.503 1140.63 387.981 1141.67 387.658C1142.72 387.326 1143.82 387.161 1144.97 387.161C1145.73 387.161 1146.54 387.252 1147.39 387.434C1148.25 387.608 1149.06 387.931 1149.8 388.403C1150.56 388.876 1151.17 389.551 1151.65 390.429C1152.13 391.299 1152.37 392.43 1152.37 393.822V406.5H1148.75V403.89H1148.6C1148.36 404.371 1148 404.843 1147.51 405.307C1147.03 405.771 1146.42 406.156 1145.66 406.463C1144.91 406.769 1144.01 406.923 1142.95 406.923ZM1143.76 403.94C1144.79 403.94 1145.67 403.737 1146.4 403.331C1147.13 402.925 1147.69 402.394 1148.07 401.74C1148.46 401.077 1148.66 400.368 1148.66 399.614V397.153C1148.53 397.286 1148.27 397.41 1147.89 397.526C1147.51 397.634 1147.09 397.729 1146.61 397.812C1146.13 397.887 1145.66 397.957 1145.2 398.023C1144.75 398.081 1144.37 398.131 1144.06 398.173C1143.34 398.264 1142.68 398.417 1142.08 398.632C1141.5 398.848 1141.02 399.159 1140.67 399.565C1140.32 399.962 1140.14 400.493 1140.14 401.156C1140.14 402.075 1140.48 402.771 1141.16 403.244C1141.84 403.708 1142.71 403.94 1143.76 403.94ZM1164.47 406.873C1162.93 406.873 1161.55 406.479 1160.34 405.692C1159.14 404.897 1158.2 403.766 1157.51 402.299C1156.83 400.824 1156.49 399.055 1156.49 396.992C1156.49 394.929 1156.84 393.164 1157.52 391.697C1158.22 390.23 1159.17 389.108 1160.38 388.329C1161.59 387.55 1162.96 387.161 1164.5 387.161C1165.68 387.161 1166.63 387.359 1167.35 387.757C1168.08 388.147 1168.65 388.602 1169.04 389.124C1169.45 389.646 1169.77 390.106 1169.99 390.504H1170.21V381.045H1173.93V406.5H1170.3V403.529H1169.99C1169.77 403.935 1169.44 404.4 1169.02 404.922C1168.61 405.444 1168.03 405.899 1167.3 406.289C1166.58 406.678 1165.63 406.873 1164.47 406.873ZM1165.29 403.703C1166.36 403.703 1167.26 403.422 1168 402.858C1168.75 402.287 1169.31 401.495 1169.69 400.484C1170.08 399.473 1170.28 398.297 1170.28 396.955C1170.28 395.629 1170.08 394.469 1169.7 393.474C1169.32 392.48 1168.76 391.705 1168.03 391.15C1167.29 390.595 1166.38 390.317 1165.29 390.317C1164.17 390.317 1163.24 390.607 1162.49 391.188C1161.75 391.768 1161.19 392.559 1160.8 393.561C1160.43 394.564 1160.25 395.695 1160.25 396.955C1160.25 398.231 1160.44 399.378 1160.82 400.397C1161.2 401.417 1161.76 402.224 1162.51 402.821C1163.26 403.409 1164.19 403.703 1165.29 403.703ZM1197.58 387.409V390.392H1186.79V387.409H1197.58ZM1189.75 406.5V385.197C1189.75 384.004 1190.01 383.013 1190.53 382.226C1191.06 381.431 1191.75 380.838 1192.61 380.449C1193.47 380.051 1194.41 379.852 1195.42 379.852C1196.16 379.852 1196.8 379.914 1197.33 380.039C1197.86 380.155 1198.26 380.262 1198.51 380.362L1197.64 383.37C1197.47 383.32 1197.25 383.262 1196.97 383.196C1196.7 383.121 1196.37 383.084 1195.98 383.084C1195.08 383.084 1194.43 383.308 1194.04 383.755C1193.66 384.202 1193.47 384.849 1193.47 385.694V406.5H1189.75ZM1208.71 406.885C1206.92 406.885 1205.35 406.475 1204.02 405.655C1202.69 404.835 1201.65 403.687 1200.91 402.212C1200.18 400.737 1199.81 399.014 1199.81 397.042C1199.81 395.061 1200.18 393.329 1200.91 391.846C1201.65 390.363 1202.69 389.211 1204.02 388.391C1205.35 387.571 1206.92 387.161 1208.71 387.161C1210.5 387.161 1212.06 387.571 1213.39 388.391C1214.73 389.211 1215.76 390.363 1216.5 391.846C1217.24 393.329 1217.6 395.061 1217.6 397.042C1217.6 399.014 1217.24 400.737 1216.5 402.212C1215.76 403.687 1214.73 404.835 1213.39 405.655C1212.06 406.475 1210.5 406.885 1208.71 406.885ZM1208.72 403.766C1209.88 403.766 1210.84 403.459 1211.6 402.846C1212.36 402.233 1212.93 401.417 1213.29 400.397C1213.66 399.378 1213.85 398.255 1213.85 397.029C1213.85 395.811 1213.66 394.692 1213.29 393.673C1212.93 392.646 1212.36 391.821 1211.6 391.2C1210.84 390.578 1209.88 390.268 1208.72 390.268C1207.55 390.268 1206.58 390.578 1205.81 391.2C1205.05 391.821 1204.48 392.646 1204.11 393.673C1203.74 394.692 1203.56 395.811 1203.56 397.029C1203.56 398.255 1203.74 399.378 1204.11 400.397C1204.48 401.417 1205.05 402.233 1205.81 402.846C1206.58 403.459 1207.55 403.766 1208.72 403.766ZM1221.75 406.5V387.409H1225.35V390.442H1225.54C1225.89 389.414 1226.51 388.606 1227.38 388.018C1228.27 387.422 1229.27 387.123 1230.39 387.123C1230.62 387.123 1230.9 387.132 1231.21 387.148C1231.53 387.165 1231.79 387.185 1231.97 387.21V390.765C1231.82 390.723 1231.56 390.678 1231.17 390.628C1230.79 390.57 1230.41 390.541 1230.03 390.541C1229.15 390.541 1228.37 390.728 1227.68 391.1C1227 391.465 1226.46 391.975 1226.07 392.629C1225.67 393.276 1225.47 394.013 1225.47 394.842V406.5H1221.75ZM1256.54 398.583V387.409H1260.27V406.5H1256.62V403.194H1256.42C1255.98 404.213 1255.27 405.062 1254.3 405.742C1253.34 406.413 1252.15 406.749 1250.71 406.749C1249.49 406.749 1248.4 406.479 1247.46 405.941C1246.52 405.394 1245.78 404.586 1245.24 403.517C1244.71 402.448 1244.45 401.127 1244.45 399.552V387.409H1248.16V399.105C1248.16 400.406 1248.53 401.441 1249.25 402.212C1249.97 402.983 1250.9 403.368 1252.05 403.368C1252.75 403.368 1253.44 403.194 1254.13 402.846C1254.83 402.498 1255.4 401.972 1255.86 401.267C1256.32 400.563 1256.55 399.668 1256.54 398.583ZM1279.57 392.07L1276.2 392.667C1276.06 392.236 1275.84 391.826 1275.53 391.436C1275.23 391.047 1274.83 390.728 1274.31 390.479C1273.8 390.23 1273.16 390.106 1272.39 390.106C1271.33 390.106 1270.46 390.342 1269.75 390.815C1269.05 391.279 1268.69 391.879 1268.69 392.617C1268.69 393.255 1268.93 393.769 1269.4 394.158C1269.88 394.547 1270.64 394.866 1271.69 395.115L1274.72 395.811C1276.48 396.217 1277.79 396.843 1278.65 397.688C1279.51 398.533 1279.94 399.631 1279.94 400.982C1279.94 402.125 1279.61 403.144 1278.95 404.039C1278.29 404.926 1277.38 405.622 1276.2 406.127C1275.03 406.633 1273.68 406.885 1272.14 406.885C1270 406.885 1268.26 406.43 1266.9 405.518C1265.55 404.598 1264.73 403.293 1264.42 401.603L1268.01 401.056C1268.23 401.992 1268.69 402.701 1269.39 403.181C1270.09 403.654 1270.99 403.89 1272.11 403.89C1273.33 403.89 1274.3 403.637 1275.03 403.132C1275.76 402.618 1276.13 401.992 1276.13 401.255C1276.13 400.658 1275.9 400.157 1275.46 399.751C1275.02 399.345 1274.34 399.038 1273.43 398.831L1270.2 398.123C1268.42 397.717 1267.1 397.071 1266.25 396.184C1265.4 395.297 1264.98 394.175 1264.98 392.816C1264.98 391.689 1265.29 390.703 1265.92 389.858C1266.55 389.012 1267.42 388.354 1268.53 387.881C1269.64 387.401 1270.91 387.161 1272.35 387.161C1274.41 387.161 1276.04 387.608 1277.22 388.503C1278.41 389.389 1279.19 390.578 1279.57 392.07ZM1292.26 406.885C1290.38 406.885 1288.76 406.483 1287.4 405.68C1286.05 404.868 1285 403.728 1284.26 402.262C1283.54 400.787 1283.17 399.059 1283.17 397.079C1283.17 395.123 1283.54 393.4 1284.26 391.908C1285 390.417 1286.03 389.253 1287.35 388.416C1288.67 387.579 1290.22 387.161 1292 387.161C1293.07 387.161 1294.12 387.339 1295.13 387.695C1296.14 388.051 1297.05 388.611 1297.85 389.373C1298.65 390.135 1299.29 391.125 1299.75 392.343C1300.22 393.553 1300.45 395.024 1300.45 396.756V398.073H1285.27V395.289H1296.81C1296.81 394.311 1296.61 393.445 1296.21 392.691C1295.81 391.929 1295.25 391.328 1294.53 390.889C1293.82 390.45 1292.98 390.23 1292.02 390.23C1290.98 390.23 1290.06 390.487 1289.29 391.001C1288.52 391.507 1287.92 392.169 1287.5 392.99C1287.08 393.802 1286.87 394.684 1286.87 395.637V397.812C1286.87 399.088 1287.1 400.174 1287.55 401.069C1288 401.963 1288.64 402.647 1289.45 403.119C1290.26 403.583 1291.21 403.815 1292.29 403.815C1293 403.815 1293.64 403.716 1294.22 403.517C1294.8 403.31 1295.3 403.003 1295.72 402.597C1296.15 402.191 1296.47 401.69 1296.69 401.093L1300.21 401.727C1299.93 402.763 1299.42 403.67 1298.69 404.449C1297.97 405.22 1297.07 405.821 1295.97 406.251C1294.89 406.674 1293.65 406.885 1292.26 406.885ZM1304.57 406.5V387.409H1308.16V390.442H1308.36C1308.71 389.414 1309.32 388.606 1310.2 388.018C1311.09 387.422 1312.09 387.123 1313.21 387.123C1313.44 387.123 1313.71 387.132 1314.03 387.148C1314.35 387.165 1314.6 387.185 1314.79 387.21V390.765C1314.64 390.723 1314.37 390.678 1313.99 390.628C1313.61 390.57 1313.23 390.541 1312.85 390.541C1311.97 390.541 1311.19 390.728 1310.5 391.1C1309.82 391.465 1309.28 391.975 1308.88 392.629C1308.49 393.276 1308.29 394.013 1308.29 394.842V406.5H1304.57ZM1331.4 406.5L1325.79 387.409H1329.63L1333.37 401.429H1333.55L1337.31 387.409H1341.15L1344.88 401.367H1345.06L1348.78 387.409H1352.62L1347.02 406.5H1343.22L1339.35 392.716H1339.06L1335.18 406.5H1331.4ZM1361.7 406.923C1360.49 406.923 1359.4 406.699 1358.42 406.251C1357.44 405.796 1356.67 405.137 1356.1 404.275C1355.53 403.413 1355.25 402.357 1355.25 401.106C1355.25 400.029 1355.46 399.142 1355.87 398.446C1356.29 397.75 1356.85 397.199 1357.55 396.793C1358.26 396.387 1359.04 396.08 1359.91 395.873C1360.78 395.666 1361.67 395.509 1362.57 395.401C1363.72 395.268 1364.64 395.161 1365.36 395.078C1366.07 394.987 1366.59 394.842 1366.91 394.643C1367.23 394.444 1367.4 394.121 1367.4 393.673V393.586C1367.4 392.501 1367.09 391.66 1366.48 391.063C1365.87 390.467 1364.97 390.168 1363.77 390.168C1362.52 390.168 1361.53 390.446 1360.81 391.001C1360.1 391.548 1359.6 392.157 1359.33 392.828L1355.84 392.033C1356.25 390.873 1356.86 389.936 1357.65 389.224C1358.46 388.503 1359.38 387.981 1360.42 387.658C1361.47 387.326 1362.57 387.161 1363.72 387.161C1364.48 387.161 1365.29 387.252 1366.14 387.434C1367 387.608 1367.81 387.931 1368.55 388.403C1369.31 388.876 1369.92 389.551 1370.4 390.429C1370.88 391.299 1371.12 392.43 1371.12 393.822V406.5H1367.5V403.89H1367.35C1367.11 404.371 1366.75 404.843 1366.26 405.307C1365.78 405.771 1365.17 406.156 1364.41 406.463C1363.66 406.769 1362.76 406.923 1361.7 406.923ZM1362.51 403.94C1363.54 403.94 1364.42 403.737 1365.15 403.331C1365.88 402.925 1366.44 402.394 1366.82 401.74C1367.21 401.077 1367.41 400.368 1367.41 399.614V397.153C1367.28 397.286 1367.02 397.41 1366.64 397.526C1366.26 397.634 1365.84 397.729 1365.36 397.812C1364.88 397.887 1364.41 397.957 1363.95 398.023C1363.5 398.081 1363.12 398.131 1362.81 398.173C1362.09 398.264 1361.43 398.417 1360.83 398.632C1360.25 398.848 1359.77 399.159 1359.42 399.565C1359.07 399.962 1358.89 400.493 1358.89 401.156C1358.89 402.075 1359.23 402.771 1359.91 403.244C1360.59 403.708 1361.46 403.94 1362.51 403.94ZM1379.79 381.045V406.5H1376.07V381.045H1379.79ZM1388.51 381.045V406.5H1384.79V381.045H1388.51ZM1401.73 406.885C1399.85 406.885 1398.23 406.483 1396.87 405.68C1395.52 404.868 1394.48 403.728 1393.74 402.262C1393.01 400.787 1392.65 399.059 1392.65 397.079C1392.65 395.123 1393.01 393.4 1393.74 391.908C1394.48 390.417 1395.51 389.253 1396.82 388.416C1398.15 387.579 1399.7 387.161 1401.47 387.161C1402.55 387.161 1403.59 387.339 1404.61 387.695C1405.62 388.051 1406.52 388.611 1407.33 389.373C1408.13 390.135 1408.76 391.125 1409.23 392.343C1409.69 393.553 1409.92 395.024 1409.92 396.756V398.073H1394.75V395.289H1406.28C1406.28 394.311 1406.08 393.445 1405.69 392.691C1405.29 391.929 1404.73 391.328 1404.01 390.889C1403.3 390.45 1402.46 390.23 1401.5 390.23C1400.45 390.23 1399.54 390.487 1398.76 391.001C1397.99 391.507 1397.4 392.169 1396.97 392.99C1396.56 393.802 1396.35 394.684 1396.35 395.637V397.812C1396.35 399.088 1396.58 400.174 1397.02 401.069C1397.48 401.963 1398.11 402.647 1398.93 403.119C1399.74 403.583 1400.69 403.815 1401.77 403.815C1402.48 403.815 1403.12 403.716 1403.7 403.517C1404.28 403.31 1404.78 403.003 1405.2 402.597C1405.62 402.191 1405.95 401.69 1406.17 401.093L1409.69 401.727C1409.41 402.763 1408.9 403.67 1408.17 404.449C1407.45 405.22 1406.54 405.821 1405.45 406.251C1404.36 406.674 1403.13 406.885 1401.73 406.885ZM1422.96 387.409V390.392H1412.53V387.409H1422.96ZM1415.33 382.835H1419.04V400.895C1419.04 401.615 1419.15 402.158 1419.37 402.523C1419.58 402.879 1419.86 403.123 1420.2 403.256C1420.55 403.38 1420.93 403.442 1421.33 403.442C1421.63 403.442 1421.89 403.422 1422.11 403.38C1422.34 403.339 1422.51 403.306 1422.64 403.281L1423.31 406.351C1423.09 406.434 1422.79 406.517 1422.39 406.599C1421.99 406.691 1421.49 406.74 1420.9 406.749C1419.92 406.765 1419.01 406.591 1418.16 406.227C1417.32 405.862 1416.63 405.299 1416.11 404.536C1415.59 403.774 1415.33 402.817 1415.33 401.665V382.835ZM1441.07 392.07L1437.7 392.667C1437.56 392.236 1437.34 391.826 1437.03 391.436C1436.73 391.047 1436.32 390.728 1435.81 390.479C1435.3 390.23 1434.66 390.106 1433.88 390.106C1432.83 390.106 1431.95 390.342 1431.25 390.815C1430.55 391.279 1430.19 391.879 1430.19 392.617C1430.19 393.255 1430.43 393.769 1430.9 394.158C1431.37 394.547 1432.14 394.866 1433.19 395.115L1436.22 395.811C1437.98 396.217 1439.29 396.843 1440.15 397.688C1441.01 398.533 1441.44 399.631 1441.44 400.982C1441.44 402.125 1441.11 403.144 1440.45 404.039C1439.79 404.926 1438.88 405.622 1437.7 406.127C1436.53 406.633 1435.18 406.885 1433.64 406.885C1431.5 406.885 1429.75 406.43 1428.4 405.518C1427.05 404.598 1426.22 403.293 1425.92 401.603L1429.51 401.056C1429.73 401.992 1430.19 402.701 1430.89 403.181C1431.59 403.654 1432.49 403.89 1433.61 403.89C1434.83 403.89 1435.8 403.637 1436.53 403.132C1437.26 402.618 1437.63 401.992 1437.63 401.255C1437.63 400.658 1437.4 400.157 1436.95 399.751C1436.52 399.345 1435.84 399.038 1434.93 398.831L1431.7 398.123C1429.92 397.717 1428.6 397.071 1427.74 396.184C1426.9 395.297 1426.48 394.175 1426.48 392.816C1426.48 391.689 1426.79 390.703 1427.42 389.858C1428.05 389.012 1428.92 388.354 1430.03 387.881C1431.14 387.401 1432.41 387.161 1433.85 387.161C1435.91 387.161 1437.53 387.608 1438.72 388.503C1439.9 389.389 1440.69 390.578 1441.07 392.07ZM1463.7 387.409V390.392H1453.27V387.409H1463.7ZM1456.07 382.835H1459.79V400.895C1459.79 401.615 1459.89 402.158 1460.11 402.523C1460.33 402.879 1460.6 403.123 1460.94 403.256C1461.29 403.38 1461.67 403.442 1462.07 403.442C1462.37 403.442 1462.63 403.422 1462.86 403.38C1463.08 403.339 1463.25 403.306 1463.38 403.281L1464.05 406.351C1463.83 406.434 1463.53 406.517 1463.13 406.599C1462.73 406.691 1462.24 406.74 1461.64 406.749C1460.66 406.765 1459.75 406.591 1458.9 406.227C1458.06 405.862 1457.38 405.299 1456.85 404.536C1456.33 403.774 1456.07 402.817 1456.07 401.665V382.835ZM1475.65 406.885C1473.86 406.885 1472.3 406.475 1470.96 405.655C1469.63 404.835 1468.59 403.687 1467.86 402.212C1467.12 400.737 1466.75 399.014 1466.75 397.042C1466.75 395.061 1467.12 393.329 1467.86 391.846C1468.59 390.363 1469.63 389.211 1470.96 388.391C1472.3 387.571 1473.86 387.161 1475.65 387.161C1477.44 387.161 1479 387.571 1480.33 388.391C1481.67 389.211 1482.7 390.363 1483.44 391.846C1484.18 393.329 1484.55 395.061 1484.55 397.042C1484.55 399.014 1484.18 400.737 1483.44 402.212C1482.7 403.687 1481.67 404.835 1480.33 405.655C1479 406.475 1477.44 406.885 1475.65 406.885ZM1475.66 403.766C1476.82 403.766 1477.78 403.459 1478.55 402.846C1479.31 402.233 1479.87 401.417 1480.24 400.397C1480.61 399.378 1480.79 398.255 1480.79 397.029C1480.79 395.811 1480.61 394.692 1480.24 393.673C1479.87 392.646 1479.31 391.821 1478.55 391.2C1477.78 390.578 1476.82 390.268 1475.66 390.268C1474.49 390.268 1473.52 390.578 1472.75 391.2C1471.99 391.821 1471.42 392.646 1471.05 393.673C1470.69 394.692 1470.5 395.811 1470.5 397.029C1470.5 398.255 1470.69 399.378 1471.05 400.397C1471.42 401.417 1471.99 402.233 1472.75 402.846C1473.52 403.459 1474.49 403.766 1475.66 403.766ZM1512.26 392.07L1508.9 392.667C1508.76 392.236 1508.53 391.826 1508.23 391.436C1507.93 391.047 1507.52 390.728 1507.01 390.479C1506.49 390.23 1505.85 390.106 1505.08 390.106C1504.03 390.106 1503.15 390.342 1502.45 390.815C1501.74 391.279 1501.39 391.879 1501.39 392.617C1501.39 393.255 1501.63 393.769 1502.1 394.158C1502.57 394.547 1503.33 394.866 1504.38 395.115L1507.42 395.811C1509.17 396.217 1510.48 396.843 1511.35 397.688C1512.21 398.533 1512.64 399.631 1512.64 400.982C1512.64 402.125 1512.31 403.144 1511.64 404.039C1510.99 404.926 1510.07 405.622 1508.9 406.127C1507.73 406.633 1506.37 406.885 1504.83 406.885C1502.69 406.885 1500.95 406.43 1499.6 405.518C1498.25 404.598 1497.42 403.293 1497.11 401.603L1500.71 401.056C1500.93 401.992 1501.39 402.701 1502.09 403.181C1502.78 403.654 1503.69 403.89 1504.81 403.89C1506.03 403.89 1507 403.637 1507.73 403.132C1508.46 402.618 1508.82 401.992 1508.82 401.255C1508.82 400.658 1508.6 400.157 1508.15 399.751C1507.71 399.345 1507.04 399.038 1506.12 398.831L1502.89 398.123C1501.11 397.717 1499.79 397.071 1498.94 396.184C1498.1 395.297 1497.67 394.175 1497.67 392.816C1497.67 391.689 1497.99 390.703 1498.62 389.858C1499.25 389.012 1500.12 388.354 1501.23 387.881C1502.34 387.401 1503.61 387.161 1505.04 387.161C1507.11 387.161 1508.73 387.608 1509.92 388.503C1511.1 389.389 1511.88 390.578 1512.26 392.07ZM1516.72 406.5V387.409H1520.44V406.5H1516.72ZM1518.6 384.463C1517.95 384.463 1517.4 384.248 1516.94 383.817C1516.48 383.378 1516.25 382.856 1516.25 382.251C1516.25 381.638 1516.48 381.116 1516.94 380.685C1517.4 380.246 1517.95 380.026 1518.6 380.026C1519.25 380.026 1519.8 380.246 1520.25 380.685C1520.72 381.116 1520.95 381.638 1520.95 382.251C1520.95 382.856 1520.72 383.378 1520.25 383.817C1519.8 384.248 1519.25 384.463 1518.6 384.463ZM1533.44 414.057C1531.93 414.057 1530.62 413.858 1529.53 413.46C1528.44 413.063 1527.56 412.536 1526.87 411.882C1526.18 411.227 1525.67 410.51 1525.33 409.732L1528.52 408.414C1528.75 408.779 1529.04 409.164 1529.42 409.57C1529.8 409.984 1530.31 410.336 1530.96 410.626C1531.61 410.916 1532.45 411.061 1533.48 411.061C1534.89 411.061 1536.05 410.718 1536.97 410.03C1537.89 409.35 1538.35 408.265 1538.35 406.773V403.02H1538.12C1537.89 403.426 1537.57 403.877 1537.15 404.375C1536.73 404.872 1536.16 405.303 1535.43 405.667C1534.7 406.032 1533.75 406.214 1532.59 406.214C1531.08 406.214 1529.72 405.862 1528.51 405.158C1527.31 404.445 1526.36 403.397 1525.65 402.013C1524.95 400.621 1524.61 398.91 1524.61 396.88C1524.61 394.85 1524.95 393.11 1525.64 391.66C1526.33 390.21 1527.29 389.099 1528.5 388.329C1529.71 387.55 1531.08 387.161 1532.61 387.161C1533.8 387.161 1534.75 387.359 1535.48 387.757C1536.21 388.147 1536.78 388.602 1537.19 389.124C1537.6 389.646 1537.92 390.106 1538.14 390.504H1538.42V387.409H1542.06V406.923C1542.06 408.563 1541.68 409.91 1540.91 410.962C1540.15 412.014 1539.12 412.793 1537.82 413.299C1536.53 413.804 1535.07 414.057 1533.44 414.057ZM1533.41 403.132C1534.48 403.132 1535.38 402.883 1536.12 402.386C1536.86 401.881 1537.43 401.16 1537.81 400.223C1538.2 399.279 1538.39 398.148 1538.39 396.83C1538.39 395.546 1538.2 394.415 1537.82 393.437C1537.44 392.459 1536.88 391.697 1536.14 391.15C1535.4 390.595 1534.49 390.317 1533.41 390.317C1532.29 390.317 1531.36 390.607 1530.61 391.188C1529.86 391.759 1529.3 392.538 1528.92 393.524C1528.55 394.51 1528.36 395.612 1528.36 396.83C1528.36 398.081 1528.55 399.179 1528.93 400.124C1529.31 401.069 1529.88 401.806 1530.62 402.336C1531.38 402.867 1532.3 403.132 1533.41 403.132ZM1550.76 395.165V406.5H1547.04V387.409H1550.61V390.516H1550.84C1551.28 389.505 1551.97 388.693 1552.91 388.08C1553.85 387.467 1555.04 387.161 1556.47 387.161C1557.78 387.161 1558.92 387.434 1559.89 387.981C1560.87 388.519 1561.63 389.323 1562.17 390.392C1562.71 391.461 1562.98 392.783 1562.98 394.357V406.5H1559.26V394.804C1559.26 393.421 1558.9 392.339 1558.18 391.56C1557.46 390.773 1556.47 390.38 1555.21 390.38C1554.35 390.38 1553.58 390.566 1552.91 390.939C1552.24 391.312 1551.72 391.859 1551.33 392.58C1550.95 393.292 1550.76 394.154 1550.76 395.165Z" fill="#777777"/>
<rect x="1678.27" y="68" width="397" height="604" rx="32" fill="url(#paint0_linear_3791_78)"/>
<path fill-rule="evenodd" clip-rule="evenodd" d="M1836.77 278C1834.01 278 1831.77 280.239 1831.77 283V303C1831.77 305.761 1834.01 308 1836.77 308H1916.77C1919.53 308 1921.77 305.761 1921.77 303V283C1921.77 280.239 1919.53 278 1916.77 278H1836.77ZM1821.77 283C1821.77 274.716 1828.49 268 1836.77 268H1916.77C1925.06 268 1931.77 274.716 1931.77 283V303C1931.77 311.284 1925.06 318 1916.77 318H1836.77C1828.49 318 1821.77 311.284 1821.77 303V283Z" fill="white"/>
<path fill-rule="evenodd" clip-rule="evenodd" d="M1836.77 338C1834.01 338 1831.77 340.239 1831.77 343V363C1831.77 365.761 1834.01 368 1836.77 368H1916.77C1919.53 368 1921.77 365.761 1921.77 363V343C1921.77 340.239 1919.53 338 1916.77 338H1836.77ZM1821.77 343C1821.77 334.716 1828.49 328 1836.77 328H1916.77C1925.06 328 1931.77 334.716 1931.77 343V363C1931.77 371.284 1925.06 378 1916.77 378H1836.77C1828.49 378 1821.77 371.284 1821.77 363V343Z" fill="white"/>
<path fill-rule="evenodd" clip-rule="evenodd" d="M1841.77 293C1841.77 290.239 1844.01 288 1846.77 288H1846.82C1849.58 288 1851.82 290.239 1851.82 293C1851.82 295.761 1849.58 298 1846.82 298H1846.77C1844.01 298 1841.77 295.761 1841.77 293Z" fill="white"/>
<path fill-rule="evenodd" clip-rule="evenodd" d="M1841.77 353C1841.77 350.239 1844.01 348 1846.77 348H1846.82C1849.58 348 1851.82 350.239 1851.82 353C1851.82 355.761 1849.58 358 1846.82 358H1846.77C1844.01 358 1841.77 355.761 1841.77 353Z" fill="white"/>
<path d="M1827.35 441.87C1827.18 440.357 1826.48 439.185 1825.25 438.354C1824.01 437.513 1822.45 437.092 1820.58 437.092C1819.24 437.092 1818.08 437.305 1817.1 437.731C1816.12 438.147 1815.35 438.722 1814.81 439.457C1814.28 440.181 1814.01 441.007 1814.01 441.934C1814.01 442.712 1814.19 443.383 1814.55 443.947C1814.93 444.512 1815.41 444.986 1816.01 445.37C1816.62 445.743 1817.27 446.057 1817.96 446.312C1818.65 446.558 1819.32 446.76 1819.96 446.92L1823.15 447.751C1824.2 448.006 1825.27 448.353 1826.36 448.789C1827.46 449.226 1828.48 449.801 1829.42 450.515C1830.35 451.229 1831.11 452.113 1831.69 453.168C1832.27 454.223 1832.56 455.485 1832.56 456.955C1832.56 458.809 1832.09 460.455 1831.13 461.893C1830.18 463.331 1828.8 464.466 1826.99 465.297C1825.19 466.128 1823.01 466.543 1820.45 466.543C1818 466.543 1815.88 466.154 1814.09 465.377C1812.3 464.599 1810.9 463.496 1809.89 462.069C1808.88 460.631 1808.32 458.926 1808.21 456.955H1813.16C1813.26 458.138 1813.64 459.123 1814.32 459.912C1815 460.689 1815.87 461.27 1816.92 461.653C1817.99 462.026 1819.15 462.213 1820.42 462.213C1821.82 462.213 1823.06 461.994 1824.14 461.558C1825.24 461.11 1826.1 460.492 1826.73 459.704C1827.36 458.905 1827.67 457.973 1827.67 456.907C1827.67 455.938 1827.4 455.144 1826.84 454.526C1826.3 453.908 1825.56 453.397 1824.62 452.992C1823.7 452.587 1822.65 452.23 1821.47 451.922L1817.61 450.867C1814.99 450.153 1812.91 449.104 1811.37 447.719C1809.85 446.334 1809.09 444.501 1809.09 442.222C1809.09 440.336 1809.6 438.69 1810.62 437.284C1811.65 435.877 1813.03 434.786 1814.78 434.008C1816.53 433.219 1818.5 432.825 1820.69 432.825C1822.91 432.825 1824.86 433.214 1826.56 433.992C1828.26 434.77 1829.6 435.84 1830.58 437.204C1831.56 438.557 1832.07 440.112 1832.12 441.87H1827.35ZM1848.66 466.495C1846.24 466.495 1844.16 465.979 1842.41 464.945C1840.68 463.901 1839.33 462.436 1838.39 460.551C1837.45 458.654 1836.98 456.433 1836.98 453.887C1836.98 451.373 1837.45 449.157 1838.39 447.239C1839.33 445.322 1840.65 443.825 1842.35 442.749C1844.05 441.673 1846.05 441.135 1848.32 441.135C1849.71 441.135 1851.05 441.364 1852.35 441.822C1853.65 442.28 1854.82 442.999 1855.85 443.979C1856.88 444.96 1857.7 446.233 1858.3 447.799C1858.89 449.354 1859.19 451.245 1859.19 453.472V455.165H1839.68V451.586H1854.51C1854.51 450.329 1854.25 449.216 1853.74 448.246C1853.23 447.266 1852.51 446.494 1851.58 445.929C1850.67 445.364 1849.59 445.082 1848.36 445.082C1847.01 445.082 1845.84 445.412 1844.84 446.073C1843.85 446.723 1843.08 447.575 1842.54 448.63C1842.01 449.674 1841.74 450.808 1841.74 452.033V454.83C1841.74 456.471 1842.03 457.866 1842.6 459.017C1843.19 460.167 1844 461.046 1845.05 461.653C1846.09 462.25 1847.31 462.548 1848.71 462.548C1849.61 462.548 1850.44 462.42 1851.19 462.165C1851.93 461.898 1852.58 461.504 1853.12 460.982C1853.66 460.46 1854.08 459.816 1854.37 459.049L1858.89 459.864C1858.53 461.195 1857.88 462.362 1856.94 463.363C1856.01 464.354 1854.84 465.126 1853.44 465.68C1852.04 466.224 1850.45 466.495 1848.66 466.495ZM1864.49 466V441.455H1869.11V445.354H1869.37C1869.81 444.033 1870.6 442.994 1871.73 442.238C1872.87 441.471 1874.16 441.087 1875.6 441.087C1875.9 441.087 1876.25 441.098 1876.65 441.119C1877.07 441.14 1877.39 441.167 1877.63 441.199V445.769C1877.44 445.716 1877.1 445.657 1876.61 445.593C1876.12 445.519 1875.63 445.482 1875.14 445.482C1874.01 445.482 1873 445.721 1872.12 446.201C1871.24 446.669 1870.55 447.325 1870.04 448.166C1869.53 448.997 1869.27 449.945 1869.27 451.011V466H1864.49ZM1903.51 441.455L1894.61 466H1889.49L1880.58 441.455H1885.71L1891.92 460.343H1892.18L1898.38 441.455H1903.51ZM1917.74 466.495C1915.32 466.495 1913.24 465.979 1911.49 464.945C1909.76 463.901 1908.42 462.436 1907.47 460.551C1906.53 458.654 1906.06 456.433 1906.06 453.887C1906.06 451.373 1906.53 449.157 1907.47 447.239C1908.42 445.322 1909.74 443.825 1911.43 442.749C1913.13 441.673 1915.13 441.135 1917.41 441.135C1918.79 441.135 1920.13 441.364 1921.43 441.822C1922.73 442.28 1923.9 442.999 1924.93 443.979C1925.97 444.96 1926.78 446.233 1927.38 447.799C1927.98 449.354 1928.27 451.245 1928.27 453.472V455.165H1908.76V451.586H1923.59C1923.59 450.329 1923.34 449.216 1922.82 448.246C1922.31 447.266 1921.59 446.494 1920.67 445.929C1919.75 445.364 1918.67 445.082 1917.44 445.082C1916.1 445.082 1914.92 445.412 1913.92 446.073C1912.93 446.723 1912.17 447.575 1911.62 448.63C1911.09 449.674 1910.82 450.808 1910.82 452.033V454.83C1910.82 456.471 1911.11 457.866 1911.69 459.017C1912.27 460.167 1913.09 461.046 1914.13 461.653C1915.18 462.25 1916.39 462.548 1917.79 462.548C1918.7 462.548 1919.52 462.42 1920.27 462.165C1921.01 461.898 1921.66 461.504 1922.2 460.982C1922.74 460.46 1923.16 459.816 1923.45 459.049L1927.97 459.864C1927.61 461.195 1926.96 462.362 1926.02 463.363C1925.09 464.354 1923.93 465.126 1922.52 465.68C1921.12 466.224 1919.53 466.495 1917.74 466.495ZM1933.57 466V441.455H1938.19V445.354H1938.45C1938.9 444.033 1939.68 442.994 1940.81 442.238C1941.95 441.471 1943.24 441.087 1944.68 441.087C1944.98 441.087 1945.33 441.098 1945.74 441.119C1946.15 441.14 1946.48 441.167 1946.71 441.199V445.769C1946.52 445.716 1946.18 445.657 1945.69 445.593C1945.2 445.519 1944.71 445.482 1944.22 445.482C1943.09 445.482 1942.08 445.721 1941.2 446.201C1940.32 446.669 1939.63 447.325 1939.12 448.166C1938.61 448.997 1938.35 449.945 1938.35 451.011V466H1933.57Z" fill="white"/>
<rect x="324" y="68" width="397" height="604" rx="32" fill="url(#paint1_linear_3791_78)"/>
<path fill-rule="evenodd" clip-rule="evenodd" d="M488.016 278C481.112 278 475.516 283.596 475.516 290.5V337.419C475.168 337.943 474.867 338.504 474.618 339.099L468.336 354.148C465.586 360.735 470.425 368 477.564 368H567.436C574.575 368 579.414 360.735 576.664 354.148L570.382 339.099C570.133 338.504 569.832 337.943 569.484 337.419V290.5C569.484 283.596 563.888 278 556.984 278H488.016ZM561.153 342.951H483.847L477.564 358H567.436L561.153 342.951ZM559.484 332.951V290.5C559.484 289.119 558.365 288 556.984 288H488.016C486.635 288 485.516 289.119 485.516 290.5V332.951H559.484Z" fill="white"/>
<path d="M490.502 443.915H485.516C485.324 442.85 484.967 441.913 484.445 441.103C483.923 440.293 483.284 439.606 482.528 439.042C481.771 438.477 480.924 438.051 479.987 437.763C479.06 437.475 478.075 437.332 477.031 437.332C475.145 437.332 473.456 437.806 471.965 438.754C470.484 439.702 469.312 441.092 468.449 442.925C467.597 444.757 467.171 446.994 467.171 449.636C467.171 452.3 467.597 454.548 468.449 456.38C469.312 458.212 470.489 459.597 471.981 460.535C473.472 461.472 475.15 461.941 477.015 461.941C478.048 461.941 479.028 461.803 479.955 461.526C480.892 461.238 481.739 460.817 482.496 460.263C483.252 459.709 483.891 459.033 484.413 458.234C484.946 457.424 485.314 456.497 485.516 455.453L490.502 455.469C490.235 457.078 489.719 458.559 488.952 459.912C488.195 461.254 487.221 462.415 486.027 463.395C484.845 464.365 483.492 465.116 481.968 465.648C480.445 466.181 478.783 466.447 476.983 466.447C474.149 466.447 471.624 465.776 469.408 464.434C467.192 463.081 465.445 461.147 464.167 458.633C462.899 456.119 462.265 453.12 462.265 449.636C462.265 446.142 462.904 443.143 464.183 440.64C465.461 438.125 467.208 436.197 469.424 434.855C471.64 433.502 474.159 432.825 476.983 432.825C478.719 432.825 480.338 433.076 481.841 433.576C483.353 434.066 484.712 434.791 485.916 435.75C487.119 436.698 488.115 437.859 488.904 439.233C489.692 440.597 490.225 442.158 490.502 443.915ZM500.805 433.273V466H496.027V433.273H500.805ZM507.233 466V441.455H512.011V466H507.233ZM509.646 437.667C508.815 437.667 508.101 437.39 507.505 436.836C506.919 436.272 506.626 435.6 506.626 434.823C506.626 434.034 506.919 433.363 507.505 432.809C508.101 432.245 508.815 431.962 509.646 431.962C510.477 431.962 511.185 432.245 511.771 432.809C512.368 433.363 512.666 434.034 512.666 434.823C512.666 435.6 512.368 436.272 511.771 436.836C511.185 437.39 510.477 437.667 509.646 437.667ZM529.018 466.495C526.6 466.495 524.517 465.979 522.77 464.945C521.033 463.901 519.691 462.436 518.743 460.551C517.805 458.654 517.336 456.433 517.336 453.887C517.336 451.373 517.805 449.157 518.743 447.239C519.691 445.322 521.012 443.825 522.706 442.749C524.41 441.673 526.402 441.135 528.682 441.135C530.067 441.135 531.41 441.364 532.709 441.822C534.009 442.28 535.176 442.999 536.209 443.979C537.242 444.96 538.057 446.233 538.654 447.799C539.25 449.354 539.549 451.245 539.549 453.472V455.165H520.037V451.586H534.867C534.867 450.329 534.611 449.216 534.1 448.246C533.588 447.266 532.869 446.494 531.942 445.929C531.026 445.364 529.95 445.082 528.714 445.082C527.372 445.082 526.2 445.412 525.199 446.073C524.208 446.723 523.441 447.575 522.898 448.63C522.365 449.674 522.099 450.808 522.099 452.033V454.83C522.099 456.471 522.386 457.866 522.961 459.017C523.547 460.167 524.362 461.046 525.406 461.653C526.45 462.25 527.67 462.548 529.066 462.548C529.971 462.548 530.797 462.42 531.543 462.165C532.288 461.898 532.933 461.504 533.476 460.982C534.02 460.46 534.435 459.816 534.723 459.049L539.245 459.864C538.883 461.195 538.233 462.362 537.296 463.363C536.369 464.354 535.202 465.126 533.796 465.68C532.4 466.224 530.808 466.495 529.018 466.495ZM549.628 451.426V466H544.85V441.455H549.436V445.45H549.74C550.305 444.15 551.189 443.106 552.393 442.317C553.607 441.529 555.136 441.135 556.979 441.135C558.652 441.135 560.117 441.487 561.374 442.19C562.631 442.882 563.606 443.915 564.298 445.29C564.99 446.664 565.337 448.363 565.337 450.387V466H560.559V450.963C560.559 449.184 560.095 447.793 559.168 446.792C558.242 445.78 556.968 445.274 555.349 445.274C554.241 445.274 553.256 445.513 552.393 445.993C551.541 446.472 550.864 447.175 550.363 448.102C549.873 449.018 549.628 450.126 549.628 451.426ZM583.202 441.455V445.29H569.795V441.455H583.202ZM573.391 435.574H578.169V458.793C578.169 459.72 578.307 460.418 578.584 460.886C578.861 461.344 579.218 461.659 579.655 461.829C580.102 461.989 580.587 462.069 581.109 462.069C581.493 462.069 581.828 462.042 582.116 461.989C582.403 461.936 582.627 461.893 582.787 461.861L583.65 465.808C583.373 465.915 582.979 466.021 582.467 466.128C581.956 466.245 581.317 466.309 580.55 466.32C579.293 466.341 578.121 466.117 577.034 465.648C575.947 465.18 575.069 464.455 574.397 463.475C573.726 462.495 573.391 461.265 573.391 459.784V435.574Z" fill="white"/>
<defs>
<linearGradient id="paint0_linear_3791_78" x1="1629.02" y1="-24.6433" x2="1587.83" y2="703.882" gradientUnits="userSpaceOnUse">
<stop offset="0.0061055" stop-color="#0085FF"/>
<stop offset="1" stop-color="#00C2FF"/>
</linearGradient>
<linearGradient id="paint1_linear_3791_78" x1="274.746" y1="-24.6433" x2="233.558" y2="703.882" gradientUnits="userSpaceOnUse">
<stop offset="0.0061055" stop-color="#0085FF"/>
<stop offset="1" stop-color="#00C2FF"/>
</linearGradient>
</defs>
</svg>
