<svg width="2400" height="740" viewBox="0 0 2400 740" fill="none" xmlns="http://www.w3.org/2000/svg">
<path d="M1654.62 302.5L1634.62 290.953L1634.62 314.047L1654.62 302.5ZM744.655 304.5L1636.62 304.5L1636.62 300.5L744.655 300.5L744.655 304.5Z" fill="#777777"/>
<path d="M1086.27 259V233.545H1095.35C1097.33 233.545 1098.97 233.906 1100.27 234.627C1101.57 235.348 1102.54 236.334 1103.19 237.585C1103.83 238.828 1104.16 240.228 1104.16 241.786C1104.16 243.352 1103.83 244.761 1103.18 246.012C1102.53 247.255 1101.55 248.241 1100.24 248.97C1098.94 249.691 1097.31 250.051 1095.33 250.051H1089.09V246.795H1094.99C1096.24 246.795 1097.25 246.579 1098.03 246.148C1098.81 245.709 1099.38 245.113 1099.75 244.359C1100.11 243.605 1100.29 242.747 1100.29 241.786C1100.29 240.825 1100.11 239.971 1099.75 239.225C1099.38 238.48 1098.81 237.896 1098.02 237.473C1097.24 237.05 1096.21 236.839 1094.94 236.839H1090.11V259H1086.27ZM1130.77 246.273C1130.77 248.991 1130.27 251.327 1129.28 253.283C1128.29 255.23 1126.92 256.73 1125.19 257.782C1123.47 258.826 1121.51 259.348 1119.31 259.348C1117.11 259.348 1115.14 258.826 1113.41 257.782C1111.68 256.73 1110.33 255.226 1109.33 253.27C1108.34 251.315 1107.84 248.982 1107.84 246.273C1107.84 243.555 1108.34 241.222 1109.33 239.275C1110.33 237.32 1111.68 235.82 1113.41 234.776C1115.14 233.724 1117.11 233.197 1119.31 233.197C1121.51 233.197 1123.47 233.724 1125.19 234.776C1126.92 235.82 1128.29 237.32 1129.28 239.275C1130.27 241.222 1130.77 243.555 1130.77 246.273ZM1126.97 246.273C1126.97 244.201 1126.63 242.457 1125.96 241.04C1125.3 239.615 1124.39 238.538 1123.23 237.809C1122.08 237.071 1120.77 236.702 1119.31 236.702C1117.85 236.702 1116.54 237.071 1115.38 237.809C1114.23 238.538 1113.32 239.615 1112.65 241.04C1111.99 242.457 1111.66 244.201 1111.66 246.273C1111.66 248.344 1111.99 250.093 1112.65 251.518C1113.32 252.935 1114.23 254.012 1115.38 254.749C1116.54 255.478 1117.85 255.843 1119.31 255.843C1120.77 255.843 1122.08 255.478 1123.23 254.749C1124.39 254.012 1125.3 252.935 1125.96 251.518C1126.63 250.093 1126.97 248.344 1126.97 246.273ZM1149.44 240.232C1149.31 239.056 1148.76 238.144 1147.8 237.498C1146.84 236.843 1145.63 236.516 1144.17 236.516C1143.13 236.516 1142.23 236.682 1141.46 237.013C1140.7 237.336 1140.11 237.784 1139.69 238.355C1139.27 238.919 1139.06 239.561 1139.06 240.282C1139.06 240.887 1139.21 241.409 1139.49 241.848C1139.78 242.287 1140.15 242.656 1140.62 242.954C1141.09 243.244 1141.6 243.489 1142.13 243.688C1142.67 243.878 1143.19 244.036 1143.69 244.16L1146.17 244.806C1146.99 245.005 1147.82 245.274 1148.67 245.614C1149.53 245.954 1150.32 246.401 1151.05 246.956C1151.78 247.511 1152.36 248.199 1152.81 249.02C1153.27 249.84 1153.49 250.822 1153.49 251.965C1153.49 253.407 1153.12 254.687 1152.38 255.806C1151.64 256.924 1150.57 257.807 1149.16 258.453C1147.76 259.099 1146.06 259.423 1144.07 259.423C1142.17 259.423 1140.52 259.12 1139.13 258.515C1137.73 257.91 1136.65 257.053 1135.86 255.942C1135.07 254.824 1134.64 253.498 1134.55 251.965H1138.41C1138.48 252.885 1138.78 253.651 1139.3 254.265C1139.83 254.869 1140.51 255.321 1141.33 255.619C1142.16 255.909 1143.06 256.054 1144.05 256.054C1145.13 256.054 1146.1 255.884 1146.94 255.545C1147.8 255.197 1148.47 254.716 1148.96 254.103C1149.45 253.482 1149.69 252.757 1149.69 251.928C1149.69 251.174 1149.48 250.557 1149.05 250.076C1148.62 249.595 1148.05 249.198 1147.32 248.883C1146.6 248.568 1145.78 248.29 1144.87 248.05L1141.86 247.23C1139.82 246.675 1138.21 245.858 1137.01 244.781C1135.83 243.704 1135.24 242.279 1135.24 240.506C1135.24 239.039 1135.63 237.759 1136.43 236.665C1137.23 235.571 1138.3 234.722 1139.66 234.117C1141.02 233.504 1142.55 233.197 1144.26 233.197C1145.98 233.197 1147.5 233.5 1148.82 234.105C1150.15 234.71 1151.19 235.542 1151.95 236.603C1152.72 237.655 1153.11 238.865 1153.15 240.232H1149.44ZM1156.83 236.852V233.545H1176.53V236.852H1168.59V259H1164.76V236.852H1156.83ZM1199.54 232.352L1191.34 262.828H1188.02L1196.22 232.352H1199.54ZM1215.68 233.545V259H1211.96V233.545H1215.68ZM1228.72 259.385C1226.93 259.385 1225.37 258.975 1224.03 258.155C1222.7 257.335 1221.66 256.187 1220.92 254.712C1220.19 253.237 1219.82 251.514 1219.82 249.542C1219.82 247.561 1220.19 245.829 1220.92 244.346C1221.66 242.863 1222.7 241.711 1224.03 240.891C1225.37 240.071 1226.93 239.661 1228.72 239.661C1230.51 239.661 1232.07 240.071 1233.4 240.891C1234.74 241.711 1235.77 242.863 1236.51 244.346C1237.25 245.829 1237.62 247.561 1237.62 249.542C1237.62 251.514 1237.25 253.237 1236.51 254.712C1235.77 256.187 1234.74 257.335 1233.4 258.155C1232.07 258.975 1230.51 259.385 1228.72 259.385ZM1228.73 256.266C1229.89 256.266 1230.85 255.959 1231.61 255.346C1232.38 254.733 1232.94 253.917 1233.3 252.897C1233.68 251.878 1233.86 250.755 1233.86 249.529C1233.86 248.311 1233.68 247.192 1233.3 246.173C1232.94 245.146 1232.38 244.321 1231.61 243.7C1230.85 243.078 1229.89 242.768 1228.73 242.768C1227.56 242.768 1226.59 243.078 1225.82 243.7C1225.06 244.321 1224.49 245.146 1224.12 246.173C1223.75 247.192 1223.57 248.311 1223.57 249.529C1223.57 250.755 1223.75 251.878 1224.12 252.897C1224.49 253.917 1225.06 254.733 1225.82 255.346C1226.59 255.959 1227.56 256.266 1228.73 256.266ZM1249.77 266.557C1248.25 266.557 1246.95 266.358 1245.85 265.96C1244.77 265.563 1243.88 265.036 1243.19 264.382C1242.51 263.727 1241.99 263.01 1241.65 262.232L1244.85 260.914C1245.07 261.279 1245.37 261.664 1245.74 262.07C1246.12 262.484 1246.64 262.836 1247.28 263.126C1247.94 263.416 1248.78 263.561 1249.81 263.561C1251.22 263.561 1252.38 263.218 1253.3 262.53C1254.22 261.85 1254.68 260.765 1254.68 259.273V255.52H1254.44C1254.22 255.926 1253.9 256.377 1253.47 256.875C1253.06 257.372 1252.49 257.803 1251.76 258.167C1251.03 258.532 1250.08 258.714 1248.91 258.714C1247.4 258.714 1246.04 258.362 1244.84 257.658C1243.63 256.945 1242.68 255.897 1241.98 254.513C1241.28 253.121 1240.93 251.41 1240.93 249.38C1240.93 247.35 1241.28 245.61 1241.96 244.16C1242.66 242.71 1243.61 241.599 1244.82 240.829C1246.03 240.05 1247.4 239.661 1248.94 239.661C1250.12 239.661 1251.08 239.859 1251.81 240.257C1252.54 240.647 1253.1 241.102 1253.51 241.624C1253.92 242.146 1254.24 242.606 1254.47 243.004H1254.74V239.909H1258.38V259.423C1258.38 261.063 1258 262.41 1257.24 263.462C1256.48 264.514 1255.45 265.293 1254.14 265.799C1252.85 266.304 1251.39 266.557 1249.77 266.557ZM1249.73 255.632C1250.8 255.632 1251.7 255.383 1252.44 254.886C1253.19 254.381 1253.75 253.66 1254.13 252.723C1254.52 251.779 1254.72 250.648 1254.72 249.33C1254.72 248.046 1254.53 246.915 1254.14 245.937C1253.76 244.959 1253.2 244.197 1252.47 243.65C1251.73 243.095 1250.82 242.817 1249.73 242.817C1248.61 242.817 1247.68 243.107 1246.94 243.688C1246.19 244.259 1245.63 245.038 1245.25 246.024C1244.87 247.01 1244.69 248.112 1244.69 249.33C1244.69 250.581 1244.88 251.679 1245.26 252.624C1245.64 253.569 1246.2 254.306 1246.95 254.836C1247.7 255.367 1248.63 255.632 1249.73 255.632ZM1271.41 259.385C1269.62 259.385 1268.06 258.975 1266.72 258.155C1265.39 257.335 1264.35 256.187 1263.62 254.712C1262.88 253.237 1262.51 251.514 1262.51 249.542C1262.51 247.561 1262.88 245.829 1263.62 244.346C1264.35 242.863 1265.39 241.711 1266.72 240.891C1268.06 240.071 1269.62 239.661 1271.41 239.661C1273.2 239.661 1274.76 240.071 1276.09 240.891C1277.43 241.711 1278.46 242.863 1279.2 244.346C1279.94 245.829 1280.31 247.561 1280.31 249.542C1280.31 251.514 1279.94 253.237 1279.2 254.712C1278.46 256.187 1277.43 257.335 1276.09 258.155C1274.76 258.975 1273.2 259.385 1271.41 259.385ZM1271.42 256.266C1272.58 256.266 1273.54 255.959 1274.3 255.346C1275.07 254.733 1275.63 253.917 1275.99 252.897C1276.37 251.878 1276.55 250.755 1276.55 249.529C1276.55 248.311 1276.37 247.192 1275.99 246.173C1275.63 245.146 1275.07 244.321 1274.3 243.7C1273.54 243.078 1272.58 242.768 1271.42 242.768C1270.25 242.768 1269.28 243.078 1268.51 243.7C1267.75 244.321 1267.18 245.146 1266.81 246.173C1266.45 247.192 1266.26 248.311 1266.26 249.529C1266.26 250.755 1266.45 251.878 1266.81 252.897C1267.18 253.917 1267.75 254.733 1268.51 255.346C1269.28 255.959 1270.25 256.266 1271.42 256.266ZM1296.55 251.083V239.909H1300.28V259H1296.62V255.694H1296.42C1295.99 256.713 1295.28 257.562 1294.31 258.242C1293.35 258.913 1292.15 259.249 1290.72 259.249C1289.49 259.249 1288.41 258.979 1287.46 258.441C1286.53 257.894 1285.79 257.086 1285.25 256.017C1284.72 254.948 1284.46 253.627 1284.46 252.052V239.909H1288.17V251.605C1288.17 252.906 1288.53 253.941 1289.25 254.712C1289.97 255.483 1290.91 255.868 1292.06 255.868C1292.76 255.868 1293.45 255.694 1294.14 255.346C1294.83 254.998 1295.41 254.472 1295.87 253.767C1296.33 253.063 1296.56 252.168 1296.55 251.083ZM1314.18 239.909V242.892H1303.75V239.909H1314.18ZM1306.55 235.335H1310.27V253.395C1310.27 254.115 1310.38 254.658 1310.59 255.023C1310.81 255.379 1311.08 255.623 1311.42 255.756C1311.77 255.88 1312.15 255.942 1312.55 255.942C1312.85 255.942 1313.11 255.922 1313.34 255.88C1313.56 255.839 1313.74 255.806 1313.86 255.781L1314.53 258.851C1314.32 258.934 1314.01 259.017 1313.61 259.099C1313.21 259.191 1312.72 259.24 1312.12 259.249C1311.14 259.265 1310.23 259.091 1309.39 258.727C1308.54 258.362 1307.86 257.799 1307.33 257.036C1306.81 256.274 1306.55 255.317 1306.55 254.165V235.335Z" fill="#777777"/>
<path d="M744.655 450L764.655 461.547L764.655 438.453L744.655 450ZM762.655 452L1654.62 452L1654.62 448L762.655 448L762.655 452Z" fill="#777777"/>
<path d="M1020.41 406.5H1012.17V381.045H1020.67C1023.17 381.045 1025.31 381.555 1027.1 382.574C1028.89 383.585 1030.26 385.039 1031.21 386.937C1032.17 388.826 1032.65 391.092 1032.65 393.735C1032.65 396.387 1032.17 398.666 1031.2 400.571C1030.24 402.477 1028.85 403.944 1027.02 404.971C1025.2 405.99 1023 406.5 1020.41 406.5ZM1016.01 403.144H1020.2C1022.14 403.144 1023.75 402.78 1025.03 402.05C1026.32 401.313 1027.28 400.248 1027.92 398.856C1028.56 397.456 1028.88 395.749 1028.88 393.735C1028.88 391.739 1028.56 390.044 1027.92 388.652C1027.29 387.26 1026.35 386.203 1025.1 385.483C1023.85 384.762 1022.29 384.401 1020.44 384.401H1016.01V403.144ZM1045.36 406.885C1043.48 406.885 1041.86 406.483 1040.5 405.68C1039.15 404.868 1038.11 403.728 1037.37 402.262C1036.64 400.787 1036.27 399.059 1036.27 397.079C1036.27 395.123 1036.64 393.4 1037.37 391.908C1038.11 390.417 1039.13 389.253 1040.45 388.416C1041.78 387.579 1043.33 387.161 1045.1 387.161C1046.18 387.161 1047.22 387.339 1048.23 387.695C1049.24 388.051 1050.15 388.611 1050.95 389.373C1051.76 390.135 1052.39 391.125 1052.85 392.343C1053.32 393.553 1053.55 395.024 1053.55 396.756V398.073H1038.37V395.289H1049.91C1049.91 394.311 1049.71 393.445 1049.31 392.691C1048.91 391.929 1048.35 391.328 1047.63 390.889C1046.92 390.45 1046.08 390.23 1045.12 390.23C1044.08 390.23 1043.17 390.487 1042.39 391.001C1041.62 391.507 1041.02 392.169 1040.6 392.99C1040.18 393.802 1039.98 394.684 1039.98 395.637V397.812C1039.98 399.088 1040.2 400.174 1040.65 401.069C1041.1 401.963 1041.74 402.647 1042.55 403.119C1043.36 403.583 1044.31 403.815 1045.4 403.815C1046.1 403.815 1046.74 403.716 1047.32 403.517C1047.9 403.31 1048.4 403.003 1048.83 402.597C1049.25 402.191 1049.57 401.69 1049.8 401.093L1053.31 401.727C1053.03 402.763 1052.53 403.67 1051.8 404.449C1051.08 405.22 1050.17 405.821 1049.08 406.251C1047.99 406.674 1046.75 406.885 1045.36 406.885ZM1061.39 381.045V406.5H1057.67V381.045H1061.39ZM1074.62 406.885C1072.74 406.885 1071.12 406.483 1069.76 405.68C1068.41 404.868 1067.36 403.728 1066.63 402.262C1065.9 400.787 1065.53 399.059 1065.53 397.079C1065.53 395.123 1065.9 393.4 1066.63 391.908C1067.36 390.417 1068.39 389.253 1069.71 388.416C1071.03 387.579 1072.58 387.161 1074.36 387.161C1075.43 387.161 1076.48 387.339 1077.49 387.695C1078.5 388.051 1079.41 388.611 1080.21 389.373C1081.01 390.135 1081.65 391.125 1082.11 392.343C1082.58 393.553 1082.81 395.024 1082.81 396.756V398.073H1067.63V395.289H1079.17C1079.17 394.311 1078.97 393.445 1078.57 392.691C1078.17 391.929 1077.61 391.328 1076.89 390.889C1076.18 390.45 1075.34 390.23 1074.38 390.23C1073.34 390.23 1072.43 390.487 1071.65 391.001C1070.88 391.507 1070.28 392.169 1069.86 392.99C1069.44 393.802 1069.24 394.684 1069.24 395.637V397.812C1069.24 399.088 1069.46 400.174 1069.91 401.069C1070.36 401.963 1071 402.647 1071.81 403.119C1072.62 403.583 1073.57 403.815 1074.65 403.815C1075.36 403.815 1076 403.716 1076.58 403.517C1077.16 403.31 1077.66 403.003 1078.08 402.597C1078.51 402.191 1078.83 401.69 1079.05 401.093L1082.57 401.727C1082.29 402.763 1081.78 403.67 1081.06 404.449C1080.33 405.22 1079.43 405.821 1078.33 406.251C1077.25 406.674 1076.01 406.885 1074.62 406.885ZM1095.84 387.409V390.392H1085.41V387.409H1095.84ZM1088.21 382.835H1091.93V400.895C1091.93 401.615 1092.04 402.158 1092.25 402.523C1092.47 402.879 1092.74 403.123 1093.08 403.256C1093.43 403.38 1093.81 403.442 1094.21 403.442C1094.51 403.442 1094.77 403.422 1095 403.38C1095.22 403.339 1095.4 403.306 1095.52 403.281L1096.19 406.351C1095.98 406.434 1095.67 406.517 1095.27 406.599C1094.87 406.691 1094.38 406.74 1093.78 406.749C1092.8 406.765 1091.89 406.591 1091.05 406.227C1090.2 405.862 1089.52 405.299 1088.99 404.536C1088.47 403.774 1088.21 402.817 1088.21 401.665V382.835ZM1107.98 406.885C1106.1 406.885 1104.48 406.483 1103.12 405.68C1101.77 404.868 1100.72 403.728 1099.98 402.262C1099.26 400.787 1098.89 399.059 1098.89 397.079C1098.89 395.123 1099.26 393.4 1099.98 391.908C1100.72 390.417 1101.75 389.253 1103.07 388.416C1104.39 387.579 1105.94 387.161 1107.72 387.161C1108.79 387.161 1109.84 387.339 1110.85 387.695C1111.86 388.051 1112.77 388.611 1113.57 389.373C1114.37 390.135 1115.01 391.125 1115.47 392.343C1115.94 393.553 1116.17 395.024 1116.17 396.756V398.073H1100.99V395.289H1112.53C1112.53 394.311 1112.33 393.445 1111.93 392.691C1111.53 391.929 1110.97 391.328 1110.25 390.889C1109.54 390.45 1108.7 390.23 1107.74 390.23C1106.7 390.23 1105.79 390.487 1105.01 391.001C1104.24 391.507 1103.64 392.169 1103.22 392.99C1102.8 393.802 1102.59 394.684 1102.59 395.637V397.812C1102.59 399.088 1102.82 400.174 1103.27 401.069C1103.72 401.963 1104.36 402.647 1105.17 403.119C1105.98 403.583 1106.93 403.815 1108.01 403.815C1108.72 403.815 1109.36 403.716 1109.94 403.517C1110.52 403.31 1111.02 403.003 1111.44 402.597C1111.87 402.191 1112.19 401.69 1112.41 401.093L1115.93 401.727C1115.65 402.763 1115.14 403.67 1114.41 404.449C1113.69 405.22 1112.79 405.821 1111.69 406.251C1110.61 406.674 1109.37 406.885 1107.98 406.885ZM1137.59 406.885C1135.75 406.885 1134.16 406.467 1132.82 405.63C1131.5 404.785 1130.48 403.621 1129.76 402.137C1129.05 400.654 1128.7 398.956 1128.7 397.042C1128.7 395.103 1129.06 393.392 1129.79 391.908C1130.52 390.417 1131.55 389.253 1132.87 388.416C1134.2 387.579 1135.76 387.161 1137.56 387.161C1139.01 387.161 1140.3 387.43 1141.44 387.968C1142.57 388.499 1143.49 389.244 1144.18 390.206C1144.89 391.167 1145.31 392.29 1145.44 393.574H1141.82C1141.62 392.679 1141.17 391.908 1140.45 391.262C1139.75 390.616 1138.8 390.293 1137.62 390.293C1136.58 390.293 1135.68 390.566 1134.9 391.113C1134.13 391.652 1133.53 392.422 1133.1 393.425C1132.66 394.419 1132.45 395.596 1132.45 396.955C1132.45 398.347 1132.66 399.548 1133.08 400.559C1133.51 401.57 1134.1 402.353 1134.87 402.908C1135.65 403.463 1136.57 403.741 1137.62 403.741C1138.32 403.741 1138.96 403.612 1139.53 403.355C1140.11 403.09 1140.6 402.713 1140.99 402.224C1141.39 401.736 1141.66 401.147 1141.82 400.46H1145.44C1145.31 401.694 1144.9 402.796 1144.23 403.766C1143.56 404.735 1142.66 405.497 1141.53 406.053C1140.42 406.608 1139.1 406.885 1137.59 406.885ZM1153.13 381.045V406.5H1149.41V381.045H1153.13ZM1158.13 406.5V387.409H1161.84V406.5H1158.13ZM1160 384.463C1159.36 384.463 1158.8 384.248 1158.34 383.817C1157.88 383.378 1157.66 382.856 1157.66 382.251C1157.66 381.638 1157.88 381.116 1158.34 380.685C1158.8 380.246 1159.36 380.026 1160 380.026C1160.65 380.026 1161.2 380.246 1161.66 380.685C1162.12 381.116 1162.35 381.638 1162.35 382.251C1162.35 382.856 1162.12 383.378 1161.66 383.817C1161.2 384.248 1160.65 384.463 1160 384.463ZM1175.07 406.885C1173.19 406.885 1171.57 406.483 1170.21 405.68C1168.86 404.868 1167.82 403.728 1167.08 402.262C1166.35 400.787 1165.99 399.059 1165.99 397.079C1165.99 395.123 1166.35 393.4 1167.08 391.908C1167.82 390.417 1168.84 389.253 1170.16 388.416C1171.49 387.579 1173.04 387.161 1174.81 387.161C1175.89 387.161 1176.93 387.339 1177.94 387.695C1178.95 388.051 1179.86 388.611 1180.66 389.373C1181.47 390.135 1182.1 391.125 1182.57 392.343C1183.03 393.553 1183.26 395.024 1183.26 396.756V398.073H1168.09V395.289H1179.62C1179.62 394.311 1179.42 393.445 1179.02 392.691C1178.63 391.929 1178.07 391.328 1177.35 390.889C1176.63 390.45 1175.8 390.23 1174.84 390.23C1173.79 390.23 1172.88 390.487 1172.1 391.001C1171.33 391.507 1170.73 392.169 1170.31 392.99C1169.9 393.802 1169.69 394.684 1169.69 395.637V397.812C1169.69 399.088 1169.91 400.174 1170.36 401.069C1170.82 401.963 1171.45 402.647 1172.26 403.119C1173.07 403.583 1174.02 403.815 1175.11 403.815C1175.81 403.815 1176.46 403.716 1177.04 403.517C1177.62 403.31 1178.12 403.003 1178.54 402.597C1178.96 402.191 1179.28 401.69 1179.51 401.093L1183.03 401.727C1182.74 402.763 1182.24 403.67 1181.51 404.449C1180.79 405.22 1179.88 405.821 1178.79 406.251C1177.7 406.674 1176.46 406.885 1175.07 406.885ZM1191.1 395.165V406.5H1187.39V387.409H1190.95V390.516H1191.19C1191.63 389.505 1192.32 388.693 1193.25 388.08C1194.2 387.467 1195.39 387.161 1196.82 387.161C1198.12 387.161 1199.26 387.434 1200.24 387.981C1201.21 388.519 1201.97 389.323 1202.51 390.392C1203.05 391.461 1203.32 392.783 1203.32 394.357V406.5H1199.6V394.804C1199.6 393.421 1199.24 392.339 1198.52 391.56C1197.8 390.773 1196.81 390.38 1195.55 390.38C1194.69 390.38 1193.92 390.566 1193.25 390.939C1192.59 391.312 1192.06 391.859 1191.67 392.58C1191.29 393.292 1191.1 394.154 1191.1 395.165ZM1217.21 387.409V390.392H1206.79V387.409H1217.21ZM1209.58 382.835H1213.3V400.895C1213.3 401.615 1213.41 402.158 1213.62 402.523C1213.84 402.879 1214.12 403.123 1214.46 403.256C1214.8 403.38 1215.18 403.442 1215.59 403.442C1215.89 403.442 1216.15 403.422 1216.37 403.38C1216.59 403.339 1216.77 403.306 1216.89 403.281L1217.56 406.351C1217.35 406.434 1217.04 406.517 1216.64 406.599C1216.25 406.691 1215.75 406.74 1215.15 406.749C1214.17 406.765 1213.26 406.591 1212.42 406.227C1211.57 405.862 1210.89 405.299 1210.37 404.536C1209.84 403.774 1209.58 402.817 1209.58 401.665V382.835ZM1231.92 394.133V397.352H1220.64V394.133H1231.92ZM1251.18 392.07L1247.82 392.667C1247.67 392.236 1247.45 391.826 1247.14 391.436C1246.85 391.047 1246.44 390.728 1245.93 390.479C1245.41 390.23 1244.77 390.106 1244 390.106C1242.95 390.106 1242.07 390.342 1241.36 390.815C1240.66 391.279 1240.31 391.879 1240.31 392.617C1240.31 393.255 1240.54 393.769 1241.02 394.158C1241.49 394.547 1242.25 394.866 1243.3 395.115L1246.34 395.811C1248.09 396.217 1249.4 396.843 1250.26 397.688C1251.13 398.533 1251.56 399.631 1251.56 400.982C1251.56 402.125 1251.22 403.144 1250.56 404.039C1249.91 404.926 1248.99 405.622 1247.82 406.127C1246.65 406.633 1245.29 406.885 1243.75 406.885C1241.61 406.885 1239.87 406.43 1238.52 405.518C1237.17 404.598 1236.34 403.293 1236.03 401.603L1239.62 401.056C1239.85 401.992 1240.31 402.701 1241 403.181C1241.7 403.654 1242.61 403.89 1243.73 403.89C1244.94 403.89 1245.92 403.637 1246.65 403.132C1247.38 402.618 1247.74 401.992 1247.74 401.255C1247.74 400.658 1247.52 400.157 1247.07 399.751C1246.63 399.345 1245.95 399.038 1245.04 398.831L1241.81 398.123C1240.03 397.717 1238.71 397.071 1237.86 396.184C1237.01 395.297 1236.59 394.175 1236.59 392.816C1236.59 391.689 1236.91 390.703 1237.54 389.858C1238.17 389.012 1239.04 388.354 1240.15 387.881C1241.26 387.401 1242.53 387.161 1243.96 387.161C1246.03 387.161 1247.65 387.608 1248.83 388.503C1250.02 389.389 1250.8 390.578 1251.18 392.07ZM1255.64 406.5V387.409H1259.36V406.5H1255.64ZM1257.52 384.463C1256.87 384.463 1256.32 384.248 1255.85 383.817C1255.4 383.378 1255.17 382.856 1255.17 382.251C1255.17 381.638 1255.4 381.116 1255.85 380.685C1256.32 380.246 1256.87 380.026 1257.52 380.026C1258.17 380.026 1258.72 380.246 1259.17 380.685C1259.64 381.116 1259.87 381.638 1259.87 382.251C1259.87 382.856 1259.64 383.378 1259.17 383.817C1258.72 384.248 1258.17 384.463 1257.52 384.463ZM1271.5 406.873C1269.96 406.873 1268.59 406.479 1267.38 405.692C1266.18 404.897 1265.23 403.766 1264.54 402.299C1263.87 400.824 1263.53 399.055 1263.53 396.992C1263.53 394.929 1263.87 393.164 1264.56 391.697C1265.25 390.23 1266.21 389.108 1267.42 388.329C1268.63 387.55 1270 387.161 1271.53 387.161C1272.71 387.161 1273.67 387.359 1274.39 387.757C1275.12 388.147 1275.68 388.602 1276.08 389.124C1276.48 389.646 1276.8 390.106 1277.02 390.504H1277.25V381.045H1280.96V406.5H1277.33V403.529H1277.02C1276.8 403.935 1276.48 404.4 1276.05 404.922C1275.64 405.444 1275.07 405.899 1274.34 406.289C1273.61 406.678 1272.66 406.873 1271.5 406.873ZM1272.33 403.703C1273.39 403.703 1274.3 403.422 1275.03 402.858C1275.78 402.287 1276.34 401.495 1276.72 400.484C1277.11 399.473 1277.31 398.297 1277.31 396.955C1277.31 395.629 1277.12 394.469 1276.74 393.474C1276.36 392.48 1275.8 391.705 1275.06 391.15C1274.32 390.595 1273.41 390.317 1272.33 390.317C1271.21 390.317 1270.27 390.607 1269.53 391.188C1268.78 391.768 1268.22 392.559 1267.84 393.561C1267.47 394.564 1267.28 395.695 1267.28 396.955C1267.28 398.231 1267.47 399.378 1267.85 400.397C1268.23 401.417 1268.8 402.224 1269.54 402.821C1270.29 403.409 1271.22 403.703 1272.33 403.703ZM1294.5 406.885C1292.61 406.885 1290.99 406.483 1289.64 405.68C1288.28 404.868 1287.24 403.728 1286.5 402.262C1285.77 400.787 1285.41 399.059 1285.41 397.079C1285.41 395.123 1285.77 393.4 1286.5 391.908C1287.24 390.417 1288.27 389.253 1289.59 388.416C1290.91 387.579 1292.46 387.161 1294.23 387.161C1295.31 387.161 1296.36 387.339 1297.37 387.695C1298.38 388.051 1299.28 388.611 1300.09 389.373C1300.89 390.135 1301.53 391.125 1301.99 392.343C1302.45 393.553 1302.69 395.024 1302.69 396.756V398.073H1287.51V395.289H1299.04C1299.04 394.311 1298.85 393.445 1298.45 392.691C1298.05 391.929 1297.49 391.328 1296.77 390.889C1296.06 390.45 1295.22 390.23 1294.26 390.23C1293.22 390.23 1292.3 390.487 1291.52 391.001C1290.75 391.507 1290.16 392.169 1289.73 392.99C1289.32 393.802 1289.11 394.684 1289.11 395.637V397.812C1289.11 399.088 1289.34 400.174 1289.78 401.069C1290.24 401.963 1290.87 402.647 1291.69 403.119C1292.5 403.583 1293.45 403.815 1294.53 403.815C1295.24 403.815 1295.88 403.716 1296.46 403.517C1297.04 403.31 1297.54 403.003 1297.96 402.597C1298.39 402.191 1298.71 401.69 1298.93 401.093L1302.45 401.727C1302.17 402.763 1301.66 403.67 1300.93 404.449C1300.21 405.22 1299.31 405.821 1298.21 406.251C1297.13 406.674 1295.89 406.885 1294.5 406.885ZM1326.26 381.045H1330.09V399.092C1330.09 400.725 1329.77 402.121 1329.12 403.281C1328.48 404.441 1327.59 405.328 1326.43 405.941C1325.27 406.546 1323.91 406.848 1322.35 406.848C1320.92 406.848 1319.63 406.587 1318.48 406.065C1317.35 405.543 1316.45 404.785 1315.79 403.79C1315.13 402.788 1314.8 401.57 1314.8 400.136H1318.62C1318.62 400.841 1318.78 401.45 1319.1 401.963C1319.44 402.477 1319.89 402.879 1320.46 403.169C1321.04 403.451 1321.7 403.592 1322.45 403.592C1323.26 403.592 1323.95 403.422 1324.51 403.082C1325.08 402.734 1325.52 402.224 1325.82 401.553C1326.11 400.882 1326.26 400.062 1326.26 399.092V381.045ZM1340.67 406.5L1333.61 381.045H1337.65L1342.6 400.758H1342.84L1348 381.045H1352L1357.16 400.77H1357.4L1362.34 381.045H1366.39L1359.32 406.5H1355.46L1350.1 387.434H1349.9L1344.54 406.5H1340.67ZM1368.64 384.352V381.045H1388.34V384.352H1380.4V406.5H1376.57V384.352H1368.64Z" fill="#777777"/>
<rect x="1678.27" y="68" width="397" height="604" rx="32" fill="url(#paint0_linear_3791_148)"/>
<path fill-rule="evenodd" clip-rule="evenodd" d="M1836.77 278C1834.01 278 1831.77 280.239 1831.77 283V303C1831.77 305.761 1834.01 308 1836.77 308H1916.77C1919.53 308 1921.77 305.761 1921.77 303V283C1921.77 280.239 1919.53 278 1916.77 278H1836.77ZM1821.77 283C1821.77 274.716 1828.49 268 1836.77 268H1916.77C1925.06 268 1931.77 274.716 1931.77 283V303C1931.77 311.284 1925.06 318 1916.77 318H1836.77C1828.49 318 1821.77 311.284 1821.77 303V283Z" fill="white"/>
<path fill-rule="evenodd" clip-rule="evenodd" d="M1836.77 338C1834.01 338 1831.77 340.239 1831.77 343V363C1831.77 365.761 1834.01 368 1836.77 368H1916.77C1919.53 368 1921.77 365.761 1921.77 363V343C1921.77 340.239 1919.53 338 1916.77 338H1836.77ZM1821.77 343C1821.77 334.716 1828.49 328 1836.77 328H1916.77C1925.06 328 1931.77 334.716 1931.77 343V363C1931.77 371.284 1925.06 378 1916.77 378H1836.77C1828.49 378 1821.77 371.284 1821.77 363V343Z" fill="white"/>
<path fill-rule="evenodd" clip-rule="evenodd" d="M1841.77 293C1841.77 290.239 1844.01 288 1846.77 288H1846.82C1849.58 288 1851.82 290.239 1851.82 293C1851.82 295.761 1849.58 298 1846.82 298H1846.77C1844.01 298 1841.77 295.761 1841.77 293Z" fill="white"/>
<path fill-rule="evenodd" clip-rule="evenodd" d="M1841.77 353C1841.77 350.239 1844.01 348 1846.77 348H1846.82C1849.58 348 1851.82 350.239 1851.82 353C1851.82 355.761 1849.58 358 1846.82 358H1846.77C1844.01 358 1841.77 355.761 1841.77 353Z" fill="white"/>
<path d="M1827.35 441.87C1827.18 440.357 1826.48 439.185 1825.25 438.354C1824.01 437.513 1822.45 437.092 1820.58 437.092C1819.24 437.092 1818.08 437.305 1817.1 437.731C1816.12 438.147 1815.35 438.722 1814.81 439.457C1814.28 440.181 1814.01 441.007 1814.01 441.934C1814.01 442.712 1814.19 443.383 1814.55 443.947C1814.93 444.512 1815.41 444.986 1816.01 445.37C1816.62 445.743 1817.27 446.057 1817.96 446.312C1818.65 446.558 1819.32 446.76 1819.96 446.92L1823.15 447.751C1824.2 448.006 1825.27 448.353 1826.36 448.789C1827.46 449.226 1828.48 449.801 1829.42 450.515C1830.35 451.229 1831.11 452.113 1831.69 453.168C1832.27 454.223 1832.56 455.485 1832.56 456.955C1832.56 458.809 1832.09 460.455 1831.13 461.893C1830.18 463.331 1828.8 464.466 1826.99 465.297C1825.19 466.128 1823.01 466.543 1820.45 466.543C1818 466.543 1815.88 466.154 1814.09 465.377C1812.3 464.599 1810.9 463.496 1809.89 462.069C1808.88 460.631 1808.32 458.926 1808.21 456.955H1813.16C1813.26 458.138 1813.64 459.123 1814.32 459.912C1815 460.689 1815.87 461.27 1816.92 461.653C1817.99 462.026 1819.15 462.213 1820.42 462.213C1821.82 462.213 1823.06 461.994 1824.14 461.558C1825.24 461.11 1826.1 460.492 1826.73 459.704C1827.36 458.905 1827.67 457.973 1827.67 456.907C1827.67 455.938 1827.4 455.144 1826.84 454.526C1826.3 453.908 1825.56 453.397 1824.62 452.992C1823.7 452.587 1822.65 452.23 1821.47 451.922L1817.61 450.867C1814.99 450.153 1812.91 449.104 1811.37 447.719C1809.85 446.334 1809.09 444.501 1809.09 442.222C1809.09 440.336 1809.6 438.69 1810.62 437.284C1811.65 435.877 1813.03 434.786 1814.78 434.008C1816.53 433.219 1818.5 432.825 1820.69 432.825C1822.91 432.825 1824.86 433.214 1826.56 433.992C1828.26 434.77 1829.6 435.84 1830.58 437.204C1831.56 438.557 1832.07 440.112 1832.12 441.87H1827.35ZM1848.66 466.495C1846.24 466.495 1844.16 465.979 1842.41 464.945C1840.68 463.901 1839.33 462.436 1838.39 460.551C1837.45 458.654 1836.98 456.433 1836.98 453.887C1836.98 451.373 1837.45 449.157 1838.39 447.239C1839.33 445.322 1840.65 443.825 1842.35 442.749C1844.05 441.673 1846.05 441.135 1848.32 441.135C1849.71 441.135 1851.05 441.364 1852.35 441.822C1853.65 442.28 1854.82 442.999 1855.85 443.979C1856.88 444.96 1857.7 446.233 1858.3 447.799C1858.89 449.354 1859.19 451.245 1859.19 453.472V455.165H1839.68V451.586H1854.51C1854.51 450.329 1854.25 449.216 1853.74 448.246C1853.23 447.266 1852.51 446.494 1851.58 445.929C1850.67 445.364 1849.59 445.082 1848.36 445.082C1847.01 445.082 1845.84 445.412 1844.84 446.073C1843.85 446.723 1843.08 447.575 1842.54 448.63C1842.01 449.674 1841.74 450.808 1841.74 452.033V454.83C1841.74 456.471 1842.03 457.866 1842.6 459.017C1843.19 460.167 1844 461.046 1845.05 461.653C1846.09 462.25 1847.31 462.548 1848.71 462.548C1849.61 462.548 1850.44 462.42 1851.19 462.165C1851.93 461.898 1852.58 461.504 1853.12 460.982C1853.66 460.46 1854.08 459.816 1854.37 459.049L1858.89 459.864C1858.53 461.195 1857.88 462.362 1856.94 463.363C1856.01 464.354 1854.84 465.126 1853.44 465.68C1852.04 466.224 1850.45 466.495 1848.66 466.495ZM1864.49 466V441.455H1869.11V445.354H1869.37C1869.81 444.033 1870.6 442.994 1871.73 442.238C1872.87 441.471 1874.16 441.087 1875.6 441.087C1875.9 441.087 1876.25 441.098 1876.65 441.119C1877.07 441.14 1877.39 441.167 1877.63 441.199V445.769C1877.44 445.716 1877.1 445.657 1876.61 445.593C1876.12 445.519 1875.63 445.482 1875.14 445.482C1874.01 445.482 1873 445.721 1872.12 446.201C1871.24 446.669 1870.55 447.325 1870.04 448.166C1869.53 448.997 1869.27 449.945 1869.27 451.011V466H1864.49ZM1903.51 441.455L1894.61 466H1889.49L1880.58 441.455H1885.71L1891.92 460.343H1892.18L1898.38 441.455H1903.51ZM1917.74 466.495C1915.32 466.495 1913.24 465.979 1911.49 464.945C1909.76 463.901 1908.42 462.436 1907.47 460.551C1906.53 458.654 1906.06 456.433 1906.06 453.887C1906.06 451.373 1906.53 449.157 1907.47 447.239C1908.42 445.322 1909.74 443.825 1911.43 442.749C1913.13 441.673 1915.13 441.135 1917.41 441.135C1918.79 441.135 1920.13 441.364 1921.43 441.822C1922.73 442.28 1923.9 442.999 1924.93 443.979C1925.97 444.96 1926.78 446.233 1927.38 447.799C1927.98 449.354 1928.27 451.245 1928.27 453.472V455.165H1908.76V451.586H1923.59C1923.59 450.329 1923.34 449.216 1922.82 448.246C1922.31 447.266 1921.59 446.494 1920.67 445.929C1919.75 445.364 1918.67 445.082 1917.44 445.082C1916.1 445.082 1914.92 445.412 1913.92 446.073C1912.93 446.723 1912.17 447.575 1911.62 448.63C1911.09 449.674 1910.82 450.808 1910.82 452.033V454.83C1910.82 456.471 1911.11 457.866 1911.69 459.017C1912.27 460.167 1913.09 461.046 1914.13 461.653C1915.18 462.25 1916.39 462.548 1917.79 462.548C1918.7 462.548 1919.52 462.42 1920.27 462.165C1921.01 461.898 1921.66 461.504 1922.2 460.982C1922.74 460.46 1923.16 459.816 1923.45 459.049L1927.97 459.864C1927.61 461.195 1926.96 462.362 1926.02 463.363C1925.09 464.354 1923.93 465.126 1922.52 465.68C1921.12 466.224 1919.53 466.495 1917.74 466.495ZM1933.57 466V441.455H1938.19V445.354H1938.45C1938.9 444.033 1939.68 442.994 1940.81 442.238C1941.95 441.471 1943.24 441.087 1944.68 441.087C1944.98 441.087 1945.33 441.098 1945.74 441.119C1946.15 441.14 1946.48 441.167 1946.71 441.199V445.769C1946.52 445.716 1946.18 445.657 1945.69 445.593C1945.2 445.519 1944.71 445.482 1944.22 445.482C1943.09 445.482 1942.08 445.721 1941.2 446.201C1940.32 446.669 1939.63 447.325 1939.12 448.166C1938.61 448.997 1938.35 449.945 1938.35 451.011V466H1933.57Z" fill="white"/>
<rect x="324" y="68" width="397" height="604" rx="32" fill="url(#paint1_linear_3791_148)"/>
<path fill-rule="evenodd" clip-rule="evenodd" d="M488.016 278C481.112 278 475.516 283.596 475.516 290.5V337.419C475.168 337.943 474.867 338.504 474.618 339.099L468.336 354.148C465.586 360.735 470.425 368 477.564 368H567.436C574.575 368 579.414 360.735 576.664 354.148L570.382 339.099C570.133 338.504 569.832 337.943 569.484 337.419V290.5C569.484 283.596 563.888 278 556.984 278H488.016ZM561.153 342.951H483.847L477.564 358H567.436L561.153 342.951ZM559.484 332.951V290.5C559.484 289.119 558.365 288 556.984 288H488.016C486.635 288 485.516 289.119 485.516 290.5V332.951H559.484Z" fill="white"/>
<path d="M490.502 443.915H485.516C485.324 442.85 484.967 441.913 484.445 441.103C483.923 440.293 483.284 439.606 482.528 439.042C481.771 438.477 480.924 438.051 479.987 437.763C479.06 437.475 478.075 437.332 477.031 437.332C475.145 437.332 473.456 437.806 471.965 438.754C470.484 439.702 469.312 441.092 468.449 442.925C467.597 444.757 467.171 446.994 467.171 449.636C467.171 452.3 467.597 454.548 468.449 456.38C469.312 458.212 470.489 459.597 471.981 460.535C473.472 461.472 475.15 461.941 477.015 461.941C478.048 461.941 479.028 461.803 479.955 461.526C480.892 461.238 481.739 460.817 482.496 460.263C483.252 459.709 483.891 459.033 484.413 458.234C484.946 457.424 485.314 456.497 485.516 455.453L490.502 455.469C490.235 457.078 489.719 458.559 488.952 459.912C488.195 461.254 487.221 462.415 486.027 463.395C484.845 464.365 483.492 465.116 481.968 465.648C480.445 466.181 478.783 466.447 476.983 466.447C474.149 466.447 471.624 465.776 469.408 464.434C467.192 463.081 465.445 461.147 464.167 458.633C462.899 456.119 462.265 453.12 462.265 449.636C462.265 446.142 462.904 443.143 464.183 440.64C465.461 438.125 467.208 436.197 469.424 434.855C471.64 433.502 474.159 432.825 476.983 432.825C478.719 432.825 480.338 433.076 481.841 433.576C483.353 434.066 484.712 434.791 485.916 435.75C487.119 436.698 488.115 437.859 488.904 439.233C489.692 440.597 490.225 442.158 490.502 443.915ZM500.805 433.273V466H496.027V433.273H500.805ZM507.233 466V441.455H512.011V466H507.233ZM509.646 437.667C508.815 437.667 508.101 437.39 507.505 436.836C506.919 436.272 506.626 435.6 506.626 434.823C506.626 434.034 506.919 433.363 507.505 432.809C508.101 432.245 508.815 431.962 509.646 431.962C510.477 431.962 511.185 432.245 511.771 432.809C512.368 433.363 512.666 434.034 512.666 434.823C512.666 435.6 512.368 436.272 511.771 436.836C511.185 437.39 510.477 437.667 509.646 437.667ZM529.018 466.495C526.6 466.495 524.517 465.979 522.77 464.945C521.033 463.901 519.691 462.436 518.743 460.551C517.805 458.654 517.336 456.433 517.336 453.887C517.336 451.373 517.805 449.157 518.743 447.239C519.691 445.322 521.012 443.825 522.706 442.749C524.41 441.673 526.402 441.135 528.682 441.135C530.067 441.135 531.41 441.364 532.709 441.822C534.009 442.28 535.176 442.999 536.209 443.979C537.242 444.96 538.057 446.233 538.654 447.799C539.25 449.354 539.549 451.245 539.549 453.472V455.165H520.037V451.586H534.867C534.867 450.329 534.611 449.216 534.1 448.246C533.588 447.266 532.869 446.494 531.942 445.929C531.026 445.364 529.95 445.082 528.714 445.082C527.372 445.082 526.2 445.412 525.199 446.073C524.208 446.723 523.441 447.575 522.898 448.63C522.365 449.674 522.099 450.808 522.099 452.033V454.83C522.099 456.471 522.386 457.866 522.961 459.017C523.547 460.167 524.362 461.046 525.406 461.653C526.45 462.25 527.67 462.548 529.066 462.548C529.971 462.548 530.797 462.42 531.543 462.165C532.288 461.898 532.933 461.504 533.476 460.982C534.02 460.46 534.435 459.816 534.723 459.049L539.245 459.864C538.883 461.195 538.233 462.362 537.296 463.363C536.369 464.354 535.202 465.126 533.796 465.68C532.4 466.224 530.808 466.495 529.018 466.495ZM549.628 451.426V466H544.85V441.455H549.436V445.45H549.74C550.305 444.15 551.189 443.106 552.393 442.317C553.607 441.529 555.136 441.135 556.979 441.135C558.652 441.135 560.117 441.487 561.374 442.19C562.631 442.882 563.606 443.915 564.298 445.29C564.99 446.664 565.337 448.363 565.337 450.387V466H560.559V450.963C560.559 449.184 560.095 447.793 559.168 446.792C558.242 445.78 556.968 445.274 555.349 445.274C554.241 445.274 553.256 445.513 552.393 445.993C551.541 446.472 550.864 447.175 550.363 448.102C549.873 449.018 549.628 450.126 549.628 451.426ZM583.202 441.455V445.29H569.795V441.455H583.202ZM573.391 435.574H578.169V458.793C578.169 459.72 578.307 460.418 578.584 460.886C578.861 461.344 579.218 461.659 579.655 461.829C580.102 461.989 580.587 462.069 581.109 462.069C581.493 462.069 581.828 462.042 582.116 461.989C582.403 461.936 582.627 461.893 582.787 461.861L583.65 465.808C583.373 465.915 582.979 466.021 582.467 466.128C581.956 466.245 581.317 466.309 580.55 466.32C579.293 466.341 578.121 466.117 577.034 465.648C575.947 465.18 575.069 464.455 574.397 463.475C573.726 462.495 573.391 461.265 573.391 459.784V435.574Z" fill="white"/>
<defs>
<linearGradient id="paint0_linear_3791_148" x1="1629.02" y1="-24.6433" x2="1587.83" y2="703.882" gradientUnits="userSpaceOnUse">
<stop offset="0.0061055" stop-color="#0085FF"/>
<stop offset="1" stop-color="#00C2FF"/>
</linearGradient>
<linearGradient id="paint1_linear_3791_148" x1="274.746" y1="-24.6433" x2="233.558" y2="703.882" gradientUnits="userSpaceOnUse">
<stop offset="0.0061055" stop-color="#0085FF"/>
<stop offset="1" stop-color="#00C2FF"/>
</linearGradient>
</defs>
</svg>
