<svg width="48" height="49" viewBox="0 0 48 49" fill="none" xmlns="http://www.w3.org/2000/svg">
<circle cx="24" cy="24.0869" r="23" stroke="#626262" stroke-width="2"/>
<path fill-rule="evenodd" clip-rule="evenodd" d="M24.7071 16.3798C25.0976 16.7703 25.0976 17.4035 24.7071 17.794L18.4142 24.0869L24.7071 30.3798C25.0976 30.7703 25.0976 31.4035 24.7071 31.794C24.3166 32.1845 23.6834 32.1845 23.2929 31.794L16.2929 24.794C15.9024 24.4035 15.9024 23.7703 16.2929 23.3798L23.2929 16.3798C23.6834 15.9893 24.3166 15.9893 24.7071 16.3798Z" fill="#626262"/>
<path fill-rule="evenodd" clip-rule="evenodd" d="M16 24.0869C16 23.5346 16.4477 23.0869 17 23.0869H31C31.5523 23.0869 32 23.5346 32 24.0869C32 24.6392 31.5523 25.0869 31 25.0869H17C16.4477 25.0869 16 24.6392 16 24.0869Z" fill="#626262"/>
</svg>
