<svg width="697" height="550" viewBox="0 0 697 550" fill="none" xmlns="http://www.w3.org/2000/svg">
<rect x="0.396797" y="0.396797" width="696.206" height="549.206" rx="18.6495" fill="#131418"/>
<rect x="0.396797" y="0.396797" width="696.206" height="549.206" rx="18.6495" stroke="url(#paint0_linear_2951_8090)" stroke-width="0.793594"/>
<path d="M34.5703 35.5837H37.641L41.7533 45.6209H41.9156L46.0279 35.5837H49.0985V49.4355H46.6907V39.9192H46.5622L42.734 49.395H40.9349L37.1067 39.8989H36.9782V49.4355H34.5703V35.5837ZM56.322 49.6385C55.2804 49.6385 54.3809 49.422 53.6234 48.9892C52.8703 48.5518 52.2909 47.934 51.8851 47.1359C51.4793 46.3333 51.2764 45.3887 51.2764 44.302C51.2764 43.2333 51.4793 42.2955 51.8851 41.4883C52.2954 40.6767 52.8681 40.0454 53.6031 39.5945C54.338 39.1391 55.2015 38.9114 56.1935 38.9114C56.8338 38.9114 57.438 39.0151 58.0062 39.2225C58.5788 39.4254 59.0838 39.7411 59.5212 40.1694C59.9631 40.5978 60.3103 41.1434 60.5628 41.8062C60.8153 42.4645 60.9416 43.2491 60.9416 44.16V44.9107H52.4262V43.2604H58.5946C58.5901 42.7915 58.4886 42.3744 58.2902 42.0091C58.0918 41.6394 57.8145 41.3486 57.4583 41.1366C57.1066 40.9247 56.6963 40.8187 56.2273 40.8187C55.7268 40.8187 55.2872 40.9405 54.9084 41.184C54.5297 41.423 54.2343 41.7386 54.0224 42.1309C53.815 42.5187 53.709 42.9448 53.7045 43.4092V44.8498C53.7045 45.4541 53.815 45.9726 54.0359 46.4055C54.2569 46.8338 54.5657 47.163 54.9625 47.3929C55.3593 47.6184 55.8238 47.7311 56.3558 47.7311C56.7121 47.7311 57.0345 47.6815 57.323 47.5823C57.6116 47.4786 57.8619 47.3276 58.0738 47.1292C58.2857 46.9308 58.4458 46.685 58.554 46.3919L60.8401 46.649C60.6958 47.2532 60.4208 47.7807 60.0149 48.2316C59.6136 48.678 59.0996 49.0252 58.4728 49.2732C57.8461 49.5167 57.1291 49.6385 56.322 49.6385ZM63.0129 49.4355V39.0467H65.3531V40.812H65.4748C65.6913 40.2168 66.0497 39.7524 66.5503 39.4187C67.0508 39.0805 67.6482 38.9114 68.3426 38.9114C69.046 38.9114 69.639 39.0828 70.1214 39.4254C70.6084 39.7636 70.9511 40.2258 71.1495 40.812H71.2577C71.4877 40.2348 71.8754 39.7749 72.421 39.4322C72.9711 39.085 73.6227 38.9114 74.3757 38.9114C75.3316 38.9114 76.1117 39.2135 76.7159 39.8177C77.3201 40.4219 77.6222 41.3035 77.6222 42.4623V49.4355H75.1671V42.8411C75.1671 42.1963 74.9957 41.7251 74.653 41.4275C74.3103 41.1254 73.891 40.9743 73.395 40.9743C72.8043 40.9743 72.3421 41.1592 72.0085 41.5289C71.6793 41.8942 71.5147 42.3699 71.5147 42.956V49.4355H69.1137V42.7396C69.1137 42.203 68.9513 41.7747 68.6267 41.4545C68.3065 41.1344 67.8872 40.9743 67.3686 40.9743C67.0169 40.9743 66.6968 41.0645 66.4082 41.2448C66.1196 41.4207 65.8897 41.671 65.7183 41.9956C65.547 42.3157 65.4613 42.69 65.4613 43.1184V49.4355H63.0129ZM80.2144 49.4355V35.5837H82.6628V40.7646H82.7643C82.8905 40.5121 83.0686 40.2438 83.2986 39.9598C83.5285 39.6712 83.8397 39.4254 84.2319 39.2225C84.6242 39.0151 85.1247 38.9114 85.7335 38.9114C86.5361 38.9114 87.2598 39.1166 87.9046 39.5269C88.5539 39.9327 89.0679 40.5347 89.4467 41.3328C89.8299 42.1264 90.0216 43.1003 90.0216 44.2546C90.0216 45.3954 89.8344 46.3649 89.4602 47.163C89.0859 47.9611 88.5764 48.5698 87.9316 48.9892C87.2868 49.4085 86.5564 49.6182 85.7402 49.6182C85.145 49.6182 84.6513 49.519 84.259 49.3206C83.8667 49.1222 83.5511 48.8832 83.3121 48.6036C83.0776 48.3196 82.895 48.0513 82.7643 47.7988H82.6222V49.4355H80.2144ZM82.6155 44.2411C82.6155 44.913 82.7101 45.5014 82.8995 46.0064C83.0934 46.5114 83.3707 46.906 83.7314 47.19C84.0967 47.4696 84.5386 47.6094 85.0571 47.6094C85.5982 47.6094 86.0514 47.4651 86.4166 47.1765C86.7818 46.8834 87.0569 46.4844 87.2417 45.9794C87.4311 45.4698 87.5258 44.8904 87.5258 44.2411C87.5258 43.5963 87.4334 43.0237 87.2485 42.5232C87.0636 42.0227 86.7886 41.6304 86.4233 41.3463C86.0581 41.0622 85.6027 40.9202 85.0571 40.9202C84.5341 40.9202 84.0899 41.0577 83.7247 41.3328C83.3594 41.6078 83.0821 41.9934 82.8928 42.4893C82.7079 42.9853 82.6155 43.5693 82.6155 44.2411ZM96.7023 49.6385C95.6607 49.6385 94.7612 49.422 94.0036 48.9892C93.2506 48.5518 92.6712 47.934 92.2654 47.1359C91.8596 46.3333 91.6567 45.3887 91.6567 44.302C91.6567 43.2333 91.8596 42.2955 92.2654 41.4883C92.6757 40.6767 93.2484 40.0454 93.9833 39.5945C94.7183 39.1391 95.5818 38.9114 96.5738 38.9114C97.2141 38.9114 97.8183 39.0151 98.3864 39.2225C98.9591 39.4254 99.4641 39.7411 99.9015 40.1694C100.343 40.5978 100.691 41.1434 100.943 41.8062C101.196 42.4645 101.322 43.2491 101.322 44.16V44.9107H92.8065V43.2604H98.9749C98.9704 42.7915 98.8689 42.3744 98.6705 42.0091C98.4721 41.6394 98.1948 41.3486 97.8386 41.1366C97.4869 40.9247 97.0766 40.8187 96.6076 40.8187C96.1071 40.8187 95.6675 40.9405 95.2887 41.184C94.91 41.423 94.6146 41.7386 94.4027 42.1309C94.1953 42.5187 94.0893 42.9448 94.0848 43.4092V44.8498C94.0848 45.4541 94.1953 45.9726 94.4162 46.4055C94.6372 46.8338 94.946 47.163 95.3428 47.3929C95.7396 47.6184 96.2041 47.7311 96.7361 47.7311C97.0923 47.7311 97.4147 47.6815 97.7033 47.5823C97.9919 47.4786 98.2421 47.3276 98.4541 47.1292C98.666 46.9308 98.8261 46.685 98.9343 46.3919L101.22 46.649C101.076 47.2532 100.801 47.7807 100.395 48.2316C99.9939 48.678 99.4799 49.0252 98.8531 49.2732C98.2264 49.5167 97.5094 49.6385 96.7023 49.6385ZM103.393 49.4355V39.0467H105.767V40.7782H105.875C106.065 40.1785 106.389 39.7163 106.849 39.3916C107.314 39.0625 107.844 38.8979 108.439 38.8979C108.574 38.8979 108.725 38.9046 108.892 38.9182C109.063 38.9272 109.205 38.943 109.318 38.9655V41.2178C109.214 41.1817 109.05 41.1502 108.824 41.1231C108.603 41.0915 108.389 41.0758 108.182 41.0758C107.735 41.0758 107.334 41.1727 106.978 41.3666C106.626 41.556 106.349 41.8198 106.146 42.1579C105.943 42.4961 105.842 42.8861 105.842 43.328V49.4355H103.393ZM119.156 41.7927L116.924 42.0362C116.861 41.8107 116.75 41.5988 116.592 41.4004C116.439 41.202 116.232 41.0419 115.97 40.9202C115.709 40.7985 115.388 40.7376 115.01 40.7376C114.5 40.7376 114.072 40.8481 113.725 41.069C113.382 41.2899 113.213 41.5763 113.217 41.928C113.213 42.2301 113.323 42.4758 113.549 42.6652C113.779 42.8546 114.157 43.0101 114.685 43.1319L116.457 43.5106C117.44 43.7226 118.17 44.0585 118.648 44.5184C119.131 44.9783 119.374 45.5803 119.379 46.3243C119.374 46.9781 119.183 47.5553 118.804 48.0558C118.43 48.5518 117.909 48.9396 117.242 49.2191C116.574 49.4987 115.808 49.6385 114.942 49.6385C113.67 49.6385 112.647 49.3724 111.871 48.8404C111.096 48.3038 110.634 47.5575 110.485 46.6016L112.872 46.3716C112.981 46.8406 113.211 47.1945 113.562 47.4335C113.914 47.6725 114.372 47.792 114.935 47.792C115.517 47.792 115.984 47.6725 116.335 47.4335C116.692 47.1945 116.87 46.8992 116.87 46.5475C116.87 46.2499 116.755 46.0042 116.525 45.8103C116.299 45.6164 115.948 45.4676 115.47 45.3639L113.697 44.9919C112.701 44.7845 111.964 44.435 111.486 43.9435C111.008 43.4475 110.771 42.8208 110.776 42.0632C110.771 41.423 110.945 40.8683 111.296 40.3994C111.653 39.926 112.146 39.5607 112.778 39.3037C113.413 39.0422 114.146 38.9114 114.976 38.9114C116.193 38.9114 117.151 39.1707 117.85 39.6892C118.554 40.2078 118.989 40.9089 119.156 41.7927ZM123.846 43.3483V49.4355H121.398V35.5837H123.792V40.812H123.914C124.157 40.2258 124.534 39.7636 125.043 39.4254C125.557 39.0828 126.211 38.9114 127.005 38.9114C127.726 38.9114 128.355 39.0625 128.892 39.3646C129.428 39.6667 129.843 40.1086 130.136 40.6902C130.434 41.2719 130.583 41.9821 130.583 42.8208V49.4355H128.134V43.1995C128.134 42.5006 127.954 41.9573 127.593 41.5695C127.237 41.1772 126.737 40.9811 126.092 40.9811C125.659 40.9811 125.271 41.0758 124.928 41.2651C124.59 41.45 124.324 41.7183 124.13 42.07C123.941 42.4217 123.846 42.8478 123.846 43.3483ZM133.079 49.4355V39.0467H135.527V49.4355H133.079ZM134.31 37.5722C133.922 37.5722 133.588 37.4437 133.308 37.1867C133.029 36.9252 132.889 36.6118 132.889 36.2466C132.889 35.8768 133.029 35.5634 133.308 35.3064C133.588 35.0449 133.922 34.9141 134.31 34.9141C134.702 34.9141 135.035 35.0449 135.311 35.3064C135.59 35.5634 135.73 35.8768 135.73 36.2466C135.73 36.6118 135.59 36.9252 135.311 37.1867C135.035 37.4437 134.702 37.5722 134.31 37.5722ZM138.045 53.3314V39.0467H140.453V40.7646H140.595C140.721 40.5121 140.899 40.2438 141.129 39.9598C141.359 39.6712 141.67 39.4254 142.062 39.2225C142.455 39.0151 142.955 38.9114 143.564 38.9114C144.366 38.9114 145.09 39.1166 145.735 39.5269C146.384 39.9327 146.898 40.5347 147.277 41.3328C147.66 42.1264 147.852 43.1003 147.852 44.2546C147.852 45.3954 147.665 46.3649 147.291 47.163C146.916 47.9611 146.407 48.5698 145.762 48.9892C145.117 49.4085 144.387 49.6182 143.571 49.6182C142.975 49.6182 142.482 49.519 142.089 49.3206C141.697 49.1222 141.381 48.8832 141.142 48.6036C140.908 48.3196 140.725 48.0513 140.595 47.7988H140.493V53.3314H138.045ZM140.446 44.2411C140.446 44.913 140.54 45.5014 140.73 46.0064C140.924 46.5114 141.201 46.906 141.562 47.19C141.927 47.4696 142.369 47.6094 142.887 47.6094C143.429 47.6094 143.882 47.4651 144.247 47.1765C144.612 46.8834 144.887 46.4844 145.072 45.9794C145.261 45.4698 145.356 44.8904 145.356 44.2411C145.356 43.5963 145.264 43.0237 145.079 42.5232C144.894 42.0227 144.619 41.6304 144.254 41.3463C143.888 41.0622 143.433 40.9202 142.887 40.9202C142.364 40.9202 141.92 41.0577 141.555 41.3328C141.19 41.6078 140.912 41.9934 140.723 42.4893C140.538 42.9853 140.446 43.5693 140.446 44.2411ZM166.164 35.5837V49.4355H163.932L157.405 40.0003H157.29V49.4355H154.781V35.5837H157.027L163.547 45.0257H163.669V35.5837H166.164ZM168.898 49.4355V35.5837H177.772V37.6872H171.408V41.4478H177.164V43.5512H171.408V49.4355H168.898ZM179.45 37.6872V35.5837H190.501V37.6872H186.22V49.4355H183.731V37.6872H179.45Z" fill="white" fill-opacity="0.2"/>
<path d="M34.4825 113.529V101.893H36.2382V112.018H41.5109V113.529H34.4825ZM45.9172 113.722C45.3641 113.722 44.8641 113.62 44.4172 113.416C43.9702 113.207 43.616 112.906 43.3547 112.512C43.0971 112.118 42.9683 111.635 42.9683 111.063C42.9683 110.571 43.063 110.166 43.2524 109.847C43.4418 109.529 43.6975 109.277 44.0194 109.092C44.3414 108.906 44.7013 108.766 45.099 108.671C45.4967 108.577 45.902 108.505 46.3149 108.455C46.8376 108.395 47.2619 108.346 47.5876 108.308C47.9134 108.266 48.1501 108.2 48.2979 108.109C48.4456 108.018 48.5194 107.87 48.5194 107.666V107.626C48.5194 107.13 48.3793 106.745 48.099 106.472C47.8225 106.2 47.4096 106.063 46.8604 106.063C46.2884 106.063 45.8376 106.19 45.5081 106.444C45.1823 106.694 44.9569 106.972 44.8319 107.279L43.2354 106.916C43.4247 106.385 43.7013 105.957 44.0649 105.632C44.4323 105.302 44.8547 105.063 45.3319 104.916C45.8092 104.764 46.3111 104.688 46.8376 104.688C47.1861 104.688 47.5554 104.73 47.9456 104.813C48.3395 104.893 48.7069 105.041 49.0479 105.257C49.3925 105.472 49.6747 105.781 49.8944 106.183C50.1141 106.58 50.224 107.097 50.224 107.734V113.529H48.5649V112.336H48.4967C48.3869 112.556 48.2221 112.772 48.0024 112.984C47.7827 113.196 47.5005 113.372 47.1558 113.512C46.8111 113.652 46.3982 113.722 45.9172 113.722ZM46.2865 112.359C46.7562 112.359 47.1577 112.266 47.491 112.08C47.8282 111.895 48.0838 111.652 48.2581 111.353C48.4361 111.05 48.5251 110.726 48.5251 110.382V109.257C48.4645 109.317 48.3471 109.374 48.1729 109.427C48.0024 109.476 47.8073 109.52 47.5876 109.558C47.3679 109.592 47.1539 109.624 46.9456 109.654C46.7372 109.681 46.563 109.704 46.4229 109.722C46.0933 109.764 45.7922 109.834 45.5194 109.933C45.2505 110.031 45.0346 110.173 44.8717 110.359C44.7126 110.541 44.6331 110.783 44.6331 111.086C44.6331 111.507 44.7884 111.825 45.099 112.041C45.4096 112.253 45.8054 112.359 46.2865 112.359ZM56.5606 104.802V106.166H51.7936V104.802H56.5606ZM53.072 102.711H54.7709V110.967C54.7709 111.296 54.8201 111.544 54.9186 111.711C55.0171 111.874 55.144 111.986 55.2993 112.046C55.4584 112.103 55.6307 112.132 55.8163 112.132C55.9527 112.132 56.072 112.122 56.1743 112.103C56.2765 112.084 56.3561 112.069 56.4129 112.058L56.7197 113.461C56.6212 113.499 56.4811 113.537 56.2993 113.575C56.1175 113.616 55.8902 113.639 55.6175 113.643C55.1705 113.651 54.7538 113.571 54.3675 113.404C53.9811 113.238 53.6686 112.98 53.43 112.632C53.1913 112.283 53.072 111.846 53.072 111.319V102.711ZM62.1075 113.705C61.2477 113.705 60.5071 113.522 59.8859 113.154C59.2685 112.783 58.7912 112.262 58.4541 111.592C58.1208 110.918 57.9541 110.128 57.9541 109.222C57.9541 108.329 58.1208 107.541 58.4541 106.859C58.7912 106.177 59.2609 105.645 59.8632 105.262C60.4693 104.88 61.1776 104.688 61.9882 104.688C62.4806 104.688 62.9579 104.77 63.42 104.933C63.8821 105.096 64.2969 105.351 64.6643 105.7C65.0318 106.048 65.3215 106.501 65.5336 107.058C65.7458 107.611 65.8518 108.283 65.8518 109.075V109.677H58.9143V108.404H64.1871C64.1871 107.957 64.0961 107.561 63.9143 107.217C63.7325 106.868 63.4768 106.594 63.1473 106.393C62.8215 106.192 62.439 106.092 61.9996 106.092C61.5223 106.092 61.1056 106.209 60.7496 106.444C60.3973 106.675 60.1246 106.978 59.9314 107.353C59.742 107.724 59.6473 108.128 59.6473 108.563V109.558C59.6473 110.141 59.7496 110.637 59.9541 111.046C60.1624 111.455 60.4522 111.768 60.8234 111.984C61.1946 112.196 61.6283 112.302 62.1246 112.302C62.4465 112.302 62.7401 112.257 63.0052 112.166C63.2704 112.071 63.4996 111.931 63.6927 111.745C63.8859 111.56 64.0336 111.33 64.1359 111.058L65.7439 111.347C65.6151 111.821 65.384 112.236 65.0507 112.592C64.7211 112.944 64.3064 113.219 63.8064 113.416C63.3102 113.609 62.7439 113.705 62.1075 113.705ZM74.2765 106.933L72.7368 107.205C72.6724 107.008 72.5701 106.821 72.43 106.643C72.2936 106.465 72.108 106.319 71.8731 106.205C71.6383 106.092 71.3447 106.035 70.9925 106.035C70.5114 106.035 70.1099 106.143 69.7879 106.359C69.4659 106.571 69.305 106.846 69.305 107.183C69.305 107.474 69.4129 107.709 69.6288 107.887C69.8447 108.065 70.1932 108.211 70.6743 108.325L72.0606 108.643C72.8637 108.829 73.4622 109.115 73.8561 109.501C74.25 109.887 74.447 110.389 74.447 111.007C74.447 111.529 74.2955 111.995 73.9925 112.404C73.6932 112.81 73.2747 113.128 72.7368 113.359C72.2027 113.59 71.5834 113.705 70.8788 113.705C69.9015 113.705 69.1042 113.497 68.4868 113.08C67.8693 112.66 67.4906 112.063 67.3504 111.291L68.9925 111.041C69.0947 111.469 69.305 111.793 69.6231 112.012C69.9413 112.228 70.3561 112.336 70.8675 112.336C71.4243 112.336 71.8693 112.221 72.2027 111.99C72.536 111.755 72.7027 111.469 72.7027 111.132C72.7027 110.859 72.6004 110.63 72.3959 110.444C72.1951 110.258 71.8864 110.118 71.4697 110.024L69.9925 109.7C69.1781 109.514 68.5758 109.219 68.1856 108.813C67.7993 108.408 67.6061 107.895 67.6061 107.274C67.6061 106.758 67.75 106.308 68.0379 105.921C68.3258 105.535 68.7235 105.234 69.2311 105.018C69.7387 104.798 70.3201 104.688 70.9754 104.688C71.9186 104.688 72.661 104.893 73.2027 105.302C73.7443 105.707 74.1023 106.251 74.2765 106.933ZM80.3888 104.802V106.166H75.6217V104.802H80.3888ZM76.9001 102.711H78.599V110.967C78.599 111.296 78.6482 111.544 78.7467 111.711C78.8452 111.874 78.9721 111.986 79.1274 112.046C79.2865 112.103 79.4588 112.132 79.6444 112.132C79.7808 112.132 79.9001 112.122 80.0024 112.103C80.1047 112.084 80.1842 112.069 80.241 112.058L80.5479 113.461C80.4494 113.499 80.3092 113.537 80.1274 113.575C79.9456 113.616 79.7183 113.639 79.4456 113.643C78.9986 113.651 78.5819 113.571 78.1956 113.404C77.8092 113.238 77.4967 112.98 77.2581 112.632C77.0194 112.283 76.9001 111.846 76.9001 111.319V102.711ZM86.0649 103.404V101.893H95.0706V103.404H91.4399V113.529H89.6899V103.404H86.0649ZM96.018 113.529V104.802H97.6601V106.188H97.751C97.9101 105.719 98.1904 105.349 98.5919 105.08C98.9972 104.808 99.4555 104.671 99.9669 104.671C100.073 104.671 100.198 104.675 100.342 104.683C100.49 104.69 100.605 104.7 100.688 104.711V106.336C100.62 106.317 100.499 106.296 100.325 106.274C100.151 106.247 99.9764 106.234 99.8021 106.234C99.4006 106.234 99.0426 106.319 98.7282 106.49C98.4176 106.656 98.1714 106.889 97.9896 107.188C97.8078 107.484 97.7169 107.821 97.7169 108.2V113.529H96.018ZM104.62 113.722C104.067 113.722 103.567 113.62 103.12 113.416C102.673 113.207 102.319 112.906 102.058 112.512C101.8 112.118 101.671 111.635 101.671 111.063C101.671 110.571 101.766 110.166 101.956 109.847C102.145 109.529 102.401 109.277 102.723 109.092C103.045 108.906 103.404 108.766 103.802 108.671C104.2 108.577 104.605 108.505 105.018 108.455C105.541 108.395 105.965 108.346 106.291 108.308C106.617 108.266 106.853 108.2 107.001 108.109C107.149 108.018 107.223 107.87 107.223 107.666V107.626C107.223 107.13 107.082 106.745 106.802 106.472C106.526 106.2 106.113 106.063 105.563 106.063C104.992 106.063 104.541 106.19 104.211 106.444C103.885 106.694 103.66 106.972 103.535 107.279L101.938 106.916C102.128 106.385 102.404 105.957 102.768 105.632C103.135 105.302 103.558 105.063 104.035 104.916C104.512 104.764 105.014 104.688 105.541 104.688C105.889 104.688 106.259 104.73 106.649 104.813C107.043 104.893 107.41 105.041 107.751 105.257C108.096 105.472 108.378 105.781 108.598 106.183C108.817 106.58 108.927 107.097 108.927 107.734V113.529H107.268V112.336H107.2C107.09 112.556 106.925 112.772 106.706 112.984C106.486 113.196 106.204 113.372 105.859 113.512C105.514 113.652 105.101 113.722 104.62 113.722ZM104.99 112.359C105.459 112.359 105.861 112.266 106.194 112.08C106.531 111.895 106.787 111.652 106.961 111.353C107.139 111.05 107.228 110.726 107.228 110.382V109.257C107.168 109.317 107.05 109.374 106.876 109.427C106.706 109.476 106.51 109.52 106.291 109.558C106.071 109.592 105.857 109.624 105.649 109.654C105.44 109.681 105.266 109.704 105.126 109.722C104.796 109.764 104.495 109.834 104.223 109.933C103.954 110.031 103.738 110.173 103.575 110.359C103.416 110.541 103.336 110.783 103.336 111.086C103.336 111.507 103.492 111.825 103.802 112.041C104.113 112.253 104.509 112.359 104.99 112.359ZM112.889 108.347V113.529H111.19V104.802H112.821V106.222H112.929C113.129 105.76 113.444 105.389 113.872 105.109C114.304 104.829 114.847 104.688 115.502 104.688C116.097 104.688 116.618 104.813 117.065 105.063C117.512 105.31 117.858 105.677 118.105 106.166C118.351 106.654 118.474 107.258 118.474 107.978V113.529H116.775V108.183C116.775 107.55 116.61 107.056 116.281 106.7C115.951 106.34 115.499 106.16 114.923 106.16C114.529 106.16 114.179 106.245 113.872 106.416C113.569 106.586 113.328 106.836 113.15 107.166C112.976 107.491 112.889 107.885 112.889 108.347ZM127.292 106.933L125.752 107.205C125.688 107.008 125.586 106.821 125.446 106.643C125.309 106.465 125.124 106.319 124.889 106.205C124.654 106.092 124.36 106.035 124.008 106.035C123.527 106.035 123.126 106.143 122.804 106.359C122.482 106.571 122.321 106.846 122.321 107.183C122.321 107.474 122.429 107.709 122.644 107.887C122.86 108.065 123.209 108.211 123.69 108.325L125.076 108.643C125.879 108.829 126.478 109.115 126.872 109.501C127.266 109.887 127.463 110.389 127.463 111.007C127.463 111.529 127.311 111.995 127.008 112.404C126.709 112.81 126.29 113.128 125.752 113.359C125.218 113.59 124.599 113.705 123.894 113.705C122.917 113.705 122.12 113.497 121.502 113.08C120.885 112.66 120.506 112.063 120.366 111.291L122.008 111.041C122.11 111.469 122.321 111.793 122.639 112.012C122.957 112.228 123.372 112.336 123.883 112.336C124.44 112.336 124.885 112.221 125.218 111.99C125.552 111.755 125.718 111.469 125.718 111.132C125.718 110.859 125.616 110.63 125.411 110.444C125.211 110.258 124.902 110.118 124.485 110.024L123.008 109.7C122.194 109.514 121.591 109.219 121.201 108.813C120.815 108.408 120.622 107.895 120.622 107.274C120.622 106.758 120.766 106.308 121.054 105.921C121.341 105.535 121.739 105.234 122.247 105.018C122.754 104.798 123.336 104.688 123.991 104.688C124.934 104.688 125.677 104.893 126.218 105.302C126.76 105.707 127.118 106.251 127.292 106.933ZM131.87 113.722C131.317 113.722 130.817 113.62 130.37 113.416C129.923 113.207 129.569 112.906 129.308 112.512C129.05 112.118 128.921 111.635 128.921 111.063C128.921 110.571 129.016 110.166 129.206 109.847C129.395 109.529 129.651 109.277 129.973 109.092C130.295 108.906 130.654 108.766 131.052 108.671C131.45 108.577 131.855 108.505 132.268 108.455C132.791 108.395 133.215 108.346 133.541 108.308C133.867 108.266 134.103 108.2 134.251 108.109C134.399 108.018 134.473 107.87 134.473 107.666V107.626C134.473 107.13 134.332 106.745 134.052 106.472C133.776 106.2 133.363 106.063 132.813 106.063C132.242 106.063 131.791 106.19 131.461 106.444C131.135 106.694 130.91 106.972 130.785 107.279L129.188 106.916C129.378 106.385 129.654 105.957 130.018 105.632C130.385 105.302 130.808 105.063 131.285 104.916C131.762 104.764 132.264 104.688 132.791 104.688C133.139 104.688 133.509 104.73 133.899 104.813C134.293 104.893 134.66 105.041 135.001 105.257C135.346 105.472 135.628 105.781 135.848 106.183C136.067 106.58 136.177 107.097 136.177 107.734V113.529H134.518V112.336H134.45C134.34 112.556 134.175 112.772 133.956 112.984C133.736 113.196 133.454 113.372 133.109 113.512C132.764 113.652 132.351 113.722 131.87 113.722ZM132.24 112.359C132.709 112.359 133.111 112.266 133.444 112.08C133.781 111.895 134.037 111.652 134.211 111.353C134.389 111.05 134.478 110.726 134.478 110.382V109.257C134.418 109.317 134.3 109.374 134.126 109.427C133.956 109.476 133.76 109.52 133.541 109.558C133.321 109.592 133.107 109.624 132.899 109.654C132.69 109.681 132.516 109.704 132.376 109.722C132.046 109.764 131.745 109.834 131.473 109.933C131.204 110.031 130.988 110.173 130.825 110.359C130.666 110.541 130.586 110.783 130.586 111.086C130.586 111.507 130.742 111.825 131.052 112.041C131.363 112.253 131.759 112.359 132.24 112.359ZM142.116 113.705C141.271 113.705 140.544 113.514 139.934 113.132C139.328 112.745 138.862 112.213 138.536 111.535C138.211 110.857 138.048 110.08 138.048 109.205C138.048 108.319 138.215 107.537 138.548 106.859C138.881 106.177 139.351 105.645 139.957 105.262C140.563 104.88 141.277 104.688 142.099 104.688C142.762 104.688 143.353 104.811 143.872 105.058C144.391 105.3 144.809 105.641 145.127 106.08C145.449 106.52 145.641 107.033 145.701 107.62H144.048C143.957 107.211 143.749 106.859 143.423 106.563C143.101 106.268 142.669 106.12 142.127 106.12C141.654 106.12 141.239 106.245 140.883 106.495C140.531 106.741 140.256 107.094 140.059 107.552C139.862 108.007 139.764 108.544 139.764 109.166C139.764 109.802 139.86 110.351 140.054 110.813C140.247 111.276 140.519 111.633 140.872 111.887C141.228 112.141 141.646 112.268 142.127 112.268C142.449 112.268 142.741 112.209 143.002 112.092C143.268 111.971 143.489 111.798 143.667 111.575C143.849 111.351 143.976 111.082 144.048 110.768H145.701C145.641 111.332 145.457 111.836 145.15 112.279C144.843 112.722 144.432 113.071 143.917 113.325C143.406 113.579 142.805 113.705 142.116 113.705ZM151.592 104.802V106.166H146.825V104.802H151.592ZM148.103 102.711H149.802V110.967C149.802 111.296 149.851 111.544 149.95 111.711C150.048 111.874 150.175 111.986 150.331 112.046C150.49 112.103 150.662 112.132 150.848 112.132C150.984 112.132 151.103 112.122 151.206 112.103C151.308 112.084 151.387 112.069 151.444 112.058L151.751 113.461C151.652 113.499 151.512 113.537 151.331 113.575C151.149 113.616 150.921 113.639 150.649 113.643C150.202 113.651 149.785 113.571 149.399 113.404C149.012 113.238 148.7 112.98 148.461 112.632C148.223 112.283 148.103 111.846 148.103 111.319V102.711ZM153.471 113.529V104.802H155.17V113.529H153.471ZM154.329 103.455C154.034 103.455 153.78 103.357 153.568 103.16C153.359 102.959 153.255 102.721 153.255 102.444C153.255 102.164 153.359 101.925 153.568 101.728C153.78 101.527 154.034 101.427 154.329 101.427C154.625 101.427 154.876 101.527 155.085 101.728C155.297 101.925 155.403 102.164 155.403 102.444C155.403 102.721 155.297 102.959 155.085 103.16C154.876 103.357 154.625 103.455 154.329 103.455ZM161.132 113.705C160.313 113.705 159.599 113.518 158.99 113.143C158.38 112.768 157.906 112.243 157.569 111.569C157.232 110.895 157.063 110.107 157.063 109.205C157.063 108.3 157.232 107.508 157.569 106.83C157.906 106.152 158.38 105.626 158.99 105.251C159.599 104.876 160.313 104.688 161.132 104.688C161.95 104.688 162.664 104.876 163.274 105.251C163.884 105.626 164.357 106.152 164.694 106.83C165.031 107.508 165.2 108.3 165.2 109.205C165.2 110.107 165.031 110.895 164.694 111.569C164.357 112.243 163.884 112.768 163.274 113.143C162.664 113.518 161.95 113.705 161.132 113.705ZM161.137 112.279C161.668 112.279 162.107 112.139 162.456 111.859C162.804 111.579 163.062 111.205 163.228 110.74C163.399 110.274 163.484 109.76 163.484 109.2C163.484 108.643 163.399 108.132 163.228 107.666C163.062 107.196 162.804 106.819 162.456 106.535C162.107 106.251 161.668 106.109 161.137 106.109C160.603 106.109 160.16 106.251 159.808 106.535C159.459 106.819 159.2 107.196 159.029 107.666C158.863 108.132 158.779 108.643 158.779 109.2C158.779 109.76 158.863 110.274 159.029 110.74C159.2 111.205 159.459 111.579 159.808 111.859C160.16 112.139 160.603 112.279 161.137 112.279ZM168.795 108.347V113.529H167.096V104.802H168.727V106.222H168.835C169.036 105.76 169.35 105.389 169.778 105.109C170.21 104.829 170.753 104.688 171.409 104.688C172.003 104.688 172.524 104.813 172.971 105.063C173.418 105.31 173.765 105.677 174.011 106.166C174.257 106.654 174.38 107.258 174.38 107.978V113.529H172.681V108.183C172.681 107.55 172.517 107.056 172.187 106.7C171.858 106.34 171.405 106.16 170.829 106.16C170.435 106.16 170.085 106.245 169.778 106.416C169.475 106.586 169.234 106.836 169.056 107.166C168.882 107.491 168.795 107.885 168.795 108.347ZM183.198 106.933L181.659 107.205C181.594 107.008 181.492 106.821 181.352 106.643C181.215 106.465 181.03 106.319 180.795 106.205C180.56 106.092 180.267 106.035 179.914 106.035C179.433 106.035 179.032 106.143 178.71 106.359C178.388 106.571 178.227 106.846 178.227 107.183C178.227 107.474 178.335 107.709 178.551 107.887C178.767 108.065 179.115 108.211 179.596 108.325L180.983 108.643C181.786 108.829 182.384 109.115 182.778 109.501C183.172 109.887 183.369 110.389 183.369 111.007C183.369 111.529 183.217 111.995 182.914 112.404C182.615 112.81 182.197 113.128 181.659 113.359C181.125 113.59 180.505 113.705 179.801 113.705C178.823 113.705 178.026 113.497 177.409 113.08C176.791 112.66 176.412 112.063 176.272 111.291L177.914 111.041C178.017 111.469 178.227 111.793 178.545 112.012C178.863 112.228 179.278 112.336 179.789 112.336C180.346 112.336 180.791 112.221 181.125 111.99C181.458 111.755 181.625 111.469 181.625 111.132C181.625 110.859 181.522 110.63 181.318 110.444C181.117 110.258 180.808 110.118 180.392 110.024L178.914 109.7C178.1 109.514 177.498 109.219 177.108 108.813C176.721 108.408 176.528 107.895 176.528 107.274C176.528 106.758 176.672 106.308 176.96 105.921C177.248 105.535 177.645 105.234 178.153 105.018C178.661 104.798 179.242 104.688 179.897 104.688C180.84 104.688 181.583 104.893 182.125 105.302C182.666 105.707 183.024 106.251 183.198 106.933Z" fill="white" fill-opacity="0.2"/>
<line x1="33.2041" y1="75.9824" x2="664.364" y2="75.9824" stroke="white" stroke-opacity="0.2"/>
<defs>
<linearGradient id="paint0_linear_2951_8090" x1="348.5" y1="-235.904" x2="348.5" y2="254.452" gradientUnits="userSpaceOnUse">
<stop stop-color="white" stop-opacity="0.5"/>
<stop offset="1" stop-color="white" stop-opacity="0"/>
</linearGradient>
</defs>
</svg>
