<svg width="48" height="48" viewBox="0 0 48 48" fill="none" xmlns="http://www.w3.org/2000/svg">
<circle cx="24" cy="24" r="23" transform="rotate(-180 24 24)" stroke="#626262" stroke-width="2"/>
<path fill-rule="evenodd" clip-rule="evenodd" d="M23.2929 31.7071C22.9024 31.3166 22.9024 30.6834 23.2929 30.2929L29.5858 24L23.2929 17.7071C22.9024 17.3166 22.9024 16.6834 23.2929 16.2929C23.6834 15.9024 24.3166 15.9024 24.7071 16.2929L31.7071 23.2929C32.0976 23.6834 32.0976 24.3166 31.7071 24.7071L24.7071 31.7071C24.3166 32.0976 23.6834 32.0976 23.2929 31.7071Z" fill="#626262"/>
<path fill-rule="evenodd" clip-rule="evenodd" d="M32 24C32 24.5523 31.5523 25 31 25L17 25C16.4477 25 16 24.5523 16 24C16 23.4477 16.4477 23 17 23L31 23C31.5523 23 32 23.4477 32 24Z" fill="#626262"/>
</svg>
