<svg width="28" height="28" viewBox="0 0 28 28" fill="none" xmlns="http://www.w3.org/2000/svg">
<path fill-rule="evenodd" clip-rule="evenodd" d="M7 1.16699C6.07174 1.16699 5.1815 1.53574 4.52513 2.19212C3.86875 2.8485 3.5 3.73873 3.5 4.66699V8.16699C3.5 8.81132 4.02233 9.33366 4.66667 9.33366C5.311 9.33366 5.83333 8.81132 5.83333 8.16699V4.66699C5.83333 4.35757 5.95625 4.06083 6.17504 3.84203C6.39383 3.62324 6.69058 3.50033 7 3.50033H15.1667V9.33366C15.1667 9.97799 15.689 10.5003 16.3334 10.5003H22.1667V23.3337C22.1667 23.6431 22.0437 23.9398 21.825 24.1586C21.6062 24.3774 21.3094 24.5003 21 24.5003H4.66667C4.02233 24.5003 3.5 25.0227 3.5 25.667C3.5 26.3113 4.02233 26.8337 4.66667 26.8337H21C21.9283 26.8337 22.8185 26.4649 23.4749 25.8085C24.1312 25.1522 24.5 24.2619 24.5 23.3337V9.34073L24.5 9.33366L24.5 9.32659V8.75033C24.5 8.44091 24.3771 8.14416 24.1583 7.92537L17.7416 1.5087C17.5228 1.28991 17.2261 1.16699 16.9167 1.16699H16.3334H7ZM17.5 4.56693V8.16699H21.1001L17.5 4.56693ZM2.53352 13.0338C3.40869 12.1587 4.59568 11.667 5.83335 11.667C6.44619 11.667 7.05302 11.7877 7.61921 12.0222C8.1854 12.2567 8.69984 12.6005 9.13318 13.0338C9.56653 13.4672 9.91027 13.9816 10.1448 14.5478C10.3793 15.114 10.5 15.7208 10.5 16.3337C10.5 16.9465 10.3793 17.5533 10.1448 18.1195C10.0612 18.3213 9.96379 18.5164 9.85337 18.7037L11.325 20.1753C11.7806 20.6309 11.7806 21.3696 11.325 21.8252C10.8694 22.2809 10.1307 22.2809 9.67505 21.8252L8.20346 20.3537C8.01617 20.4641 7.82097 20.5615 7.61921 20.6451C7.05302 20.8796 6.44619 21.0003 5.83335 21.0003C4.59568 21.0003 3.40869 20.5087 2.53352 19.6335C1.65835 18.7583 1.16669 17.5713 1.16669 16.3337C1.16669 15.096 1.65835 13.909 2.53352 13.0338ZM5.83335 14.0003C5.21451 14.0003 4.62102 14.2462 4.18344 14.6837C3.74585 15.1213 3.50002 15.7148 3.50002 16.3337C3.50002 16.9525 3.74585 17.546 4.18344 17.9836C4.62102 18.4212 5.21451 18.667 5.83335 18.667C6.13977 18.667 6.44319 18.6066 6.72628 18.4894C7.00937 18.3721 7.2666 18.2002 7.48327 17.9836C7.69994 17.7669 7.87181 17.5097 7.98907 17.2266C8.10633 16.9435 8.16669 16.6401 8.16669 16.3337C8.16669 16.0272 8.10633 15.7238 7.98907 15.4407C7.87181 15.1576 7.69994 14.9004 7.48327 14.6837C7.2666 14.4671 7.00937 14.2952 6.72628 14.1779C6.44319 14.0607 6.13977 14.0003 5.83335 14.0003Z" fill="url(#paint0_linear_470_20961)"/>
<defs>
<linearGradient id="paint0_linear_470_20961" x1="24.5" y1="-1.49093" x2="-13.6116" y2="39.1362" gradientUnits="userSpaceOnUse">
<stop stop-color="#F213A4"/>
<stop offset="1" stop-color="#FFDCF5"/>
</linearGradient>
</defs>
</svg>
