<svg width="28" height="29" viewBox="0 0 28 29" fill="none" xmlns="http://www.w3.org/2000/svg">
<path fill-rule="evenodd" clip-rule="evenodd" d="M9.51283 2.43504C9.34592 1.8127 8.7061 1.44351 8.08376 1.61043C7.46143 1.77734 7.09223 2.41716 7.25915 3.0395L8.16565 6.41933C8.33257 7.04167 8.97238 7.41086 9.59472 7.24394C10.2171 7.07703 10.5862 6.43721 10.4193 5.81487L9.51283 2.43504ZM17.0999 5.67506C17.5556 5.21945 17.5556 4.48076 17.0999 4.02514C16.6443 3.56953 15.9056 3.56953 15.45 4.02514L12.9744 6.50081C12.5188 6.95642 12.5188 7.69511 12.9744 8.15073C13.43 8.60634 14.1687 8.60634 14.6243 8.15073L17.0999 5.67506ZM2.91312 7.38424C2.29077 7.21737 1.65099 7.58662 1.48412 8.20897C1.31726 8.83132 1.68651 9.47111 2.30886 9.63797L5.68986 10.5445C6.31221 10.7113 6.952 10.3421 7.11886 9.71973C7.28572 9.09738 6.91647 8.4576 6.29412 8.29074L2.91312 7.38424ZM8.02484 14.749C8.48023 14.2932 8.47989 13.5545 8.02406 13.0991C7.56823 12.6437 6.82954 12.644 6.37414 13.0999L3.90081 15.5755C3.44541 16.0314 3.44576 16.7701 3.90159 17.2254C4.35742 17.6808 5.09611 17.6805 5.5515 17.2247L8.02484 14.749ZM9.67504 9.80013C10.0093 9.46584 10.5123 9.36633 10.9487 9.54816L24.9487 15.3815C25.3967 15.5682 25.6824 16.0127 25.666 16.4978C25.6496 16.9829 25.3346 17.4072 24.875 17.5632L20.5546 19.0298L24.5246 22.9998C24.9802 23.4554 24.9802 24.1941 24.5246 24.6497C24.069 25.1053 23.3303 25.1053 22.8747 24.6497L18.9047 20.6797L17.4381 25.0001C17.2821 25.4597 16.8578 25.7747 16.3727 25.7911C15.8876 25.8075 15.4431 25.5218 15.2564 25.0738L9.42308 11.0738C9.24124 10.6374 9.34075 10.1344 9.67504 9.80013ZM12.6667 12.7918L16.2218 21.3241L17.2982 18.1531C17.4148 17.8096 17.6845 17.5399 18.028 17.4233L21.199 16.3469L12.6667 12.7918Z" fill="url(#paint0_linear_470_20877)"/>
<defs>
<linearGradient id="paint0_linear_470_20877" x1="25.6667" y1="-0.937945" x2="-9.92014" y2="40.7933" gradientUnits="userSpaceOnUse">
<stop stop-color="#F213A4"/>
<stop offset="1" stop-color="#FFDCF5"/>
</linearGradient>
</defs>
</svg>
