<svg width="29" height="29" viewBox="0 0 29 29" fill="none" xmlns="http://www.w3.org/2000/svg">
<path fill-rule="evenodd" clip-rule="evenodd" d="M19.7747 5.34C21.4928 4.39505 23.3876 3.82763 25.333 3.66976C25.0948 6.6712 23.8412 10.9977 18.9186 14.3082C18.9129 14.3118 18.9074 14.3154 18.9018 14.3191C17.7121 15.0697 16.4613 15.7179 15.1629 16.257L12.7511 13.8452C13.2928 12.5592 13.9436 11.3214 14.6965 10.1454L14.6966 10.1454L14.7031 10.1349C15.9569 8.13018 17.7028 6.47953 19.7747 5.34ZM18.7789 17.1008C17.8936 17.5895 16.9817 18.0287 16.0473 18.4163V21.9475C16.1594 21.9109 16.2747 21.8714 16.3918 21.8289C17.3981 21.4639 18.2372 20.984 18.5771 20.4767C18.7441 20.2258 18.8679 19.8385 18.9172 19.3079C18.9656 18.7867 18.9349 18.2085 18.8627 17.6483C18.8383 17.459 18.8096 17.2753 18.7789 17.1008ZM13.714 18.1079L10.8973 15.2913H5.54729C5.20141 15.2913 4.87335 15.1378 4.65169 14.8723C4.43003 14.6067 4.33761 14.2566 4.39938 13.9162L5.54729 14.1246C4.39938 13.9162 4.39943 13.916 4.39947 13.9157L4.39958 13.9152L4.39984 13.9137L4.40053 13.91L4.40266 13.8986L4.4099 13.8609C4.41606 13.8294 4.42493 13.7852 4.43661 13.7298C4.45995 13.6191 4.49466 13.4631 4.54163 13.2737C4.63514 12.8967 4.77943 12.3786 4.98284 11.8178C5.36137 10.7742 6.04787 9.28033 7.23193 8.48823L7.23347 8.4872C7.92763 8.02443 8.74172 7.83346 9.48146 7.76471C10.2313 7.69502 10.9932 7.74302 11.6552 7.82833C12.2684 7.90736 12.8227 8.02203 13.2414 8.12222C14.6541 6.12854 16.5022 4.4769 18.6502 3.29549C21.0709 1.96412 23.7919 1.27419 26.5545 1.29133C27.196 1.29531 27.714 1.81646 27.714 2.45797C27.714 5.73665 26.7942 11.4503 20.8862 15.7773C20.9857 16.1945 21.0987 16.7435 21.1769 17.3501C21.2622 18.012 21.3102 18.774 21.2405 19.5238C21.1718 20.2635 20.9808 21.0776 20.518 21.7718L20.517 21.7733C19.7249 22.9574 18.231 23.6439 17.1874 24.0224C16.6266 24.2258 16.1085 24.3701 15.7315 24.4636C15.5421 24.5106 15.3862 24.5453 15.2755 24.5687C15.2201 24.5803 15.1759 24.5892 15.1443 24.5954L15.1067 24.6026L15.0953 24.6047L15.0915 24.6054L15.0901 24.6057L15.0895 24.6058C15.0892 24.6058 15.089 24.6059 14.8806 23.458L15.089 24.6059C14.7487 24.6677 14.3985 24.5752 14.133 24.3536C13.8674 24.1319 13.714 23.8039 13.714 23.458V18.1079ZM11.3569 10.1425C11.554 10.1679 11.745 10.1979 11.9259 10.2302C11.4305 11.1134 10.9855 12.0241 10.593 12.9579H7.05774C7.09436 12.8458 7.13386 12.7305 7.17633 12.6135C7.54135 11.6071 8.02121 10.7681 8.52852 10.4282C8.77939 10.2612 9.16672 10.1373 9.6974 10.088C10.2185 10.0396 10.7968 10.0703 11.3569 10.1425ZM7.88429 17.6112C6.9706 17.583 6.07866 17.893 5.37952 18.4819C4.76495 18.9984 4.31369 19.7099 3.97947 20.3942C3.63858 21.0921 3.37953 21.8452 3.18603 22.5217C2.99146 23.2019 2.85624 23.8293 2.76959 24.2856C2.72612 24.5146 2.69449 24.7025 2.6735 24.8349C2.66299 24.9012 2.65513 24.9537 2.64975 24.9907L2.64353 25.0343L2.64178 25.047L2.64123 25.051L2.64105 25.0524L2.64097 25.0529C2.64094 25.0531 2.64091 25.0534 3.79729 25.208L2.64091 25.0534C2.59274 25.4137 2.71528 25.7759 2.97233 26.0329C3.22939 26.29 3.59157 26.4125 3.95189 26.3643L3.79729 25.208C3.95189 26.3643 3.9521 26.3643 3.95233 26.3643L3.95288 26.3642L3.95427 26.364L3.95826 26.3635L3.97093 26.3617L4.01455 26.3555C4.05152 26.3501 4.10404 26.3423 4.17031 26.3317C4.30276 26.3108 4.49069 26.2791 4.71966 26.2357C5.17599 26.149 5.80335 26.0138 6.48356 25.8192C7.16004 25.6257 7.91317 25.3667 8.61106 25.0258C9.29503 24.6917 10.0063 24.2407 10.5227 23.6265C11.714 22.2158 11.7318 20.0184 10.3453 18.6494L10.3311 18.6357C9.66965 18.0043 8.79829 17.6395 7.88429 17.6112ZM5.84186 23.5759C5.64906 23.631 5.46036 23.6809 5.27948 23.7258C5.32436 23.5449 5.37424 23.3562 5.42939 23.1634C5.60047 22.5653 5.81538 21.952 6.07606 21.4183C6.34326 20.8712 6.62095 20.4864 6.88102 20.2679L6.88245 20.2667C7.14192 20.0481 7.473 19.9329 7.81216 19.9434C8.14794 19.9538 8.46822 20.0866 8.71276 20.3166C9.16274 20.7686 9.2016 21.5749 8.73961 22.1215L8.7373 22.1242C8.51885 22.3843 8.13401 22.662 7.58697 22.9292C7.05329 23.1899 6.43996 23.4048 5.84186 23.5759Z" fill="url(#paint0_linear_470_20817)"/>
<defs>
<linearGradient id="paint0_linear_470_20817" x1="27.714" y1="-1.30652" x2="-9.13993" y2="41.908" gradientUnits="userSpaceOnUse">
<stop stop-color="#F213A4"/>
<stop offset="1" stop-color="#FFDCF5"/>
</linearGradient>
</defs>
</svg>
