<svg width="28" height="29" viewBox="0 0 28 29" fill="none" xmlns="http://www.w3.org/2000/svg">
<path fill-rule="evenodd" clip-rule="evenodd" d="M14.4096 1.36627C14.1455 1.26723 13.8545 1.26723 13.5904 1.36627L4.25702 4.86627C3.80167 5.03703 3.5 5.47234 3.5 5.95866V14.1253C3.5 18.1462 6.16204 21.359 8.56508 23.4617C9.79111 24.5344 11.0116 25.373 11.9233 25.9428C12.3804 26.2284 12.763 26.4485 13.0339 26.5985C13.1695 26.6735 13.2773 26.7312 13.3529 26.7708C13.3907 26.7907 13.4204 26.806 13.4415 26.8168L13.4665 26.8296L13.4741 26.8334L13.4766 26.8347L13.4775 26.8351C13.4779 26.8353 13.4783 26.8355 14 25.792L13.4783 26.8355C13.8067 26.9997 14.1933 26.9997 14.5217 26.8355L14 25.792C14.5217 26.8355 14.5221 26.8353 14.5225 26.8351L14.5234 26.8347L14.5259 26.8334L14.5335 26.8296L14.5585 26.8168C14.5796 26.806 14.6093 26.7907 14.6471 26.7708C14.7227 26.7312 14.8305 26.6735 14.9661 26.5985C15.237 26.4485 15.6196 26.2284 16.0767 25.9428C16.9884 25.373 18.2089 24.5344 19.4349 23.4617C21.838 21.359 24.5 18.1462 24.5 14.1253V5.95866C24.5 5.47234 24.1983 5.03703 23.743 4.86627L14.4096 1.36627ZM14.84 23.9641C14.5095 24.1707 14.2236 24.3385 14 24.4652C13.7764 24.3385 13.4905 24.1707 13.16 23.9641C12.3217 23.4402 11.2089 22.6745 10.1016 21.7057C7.83796 19.725 5.83333 17.1045 5.83333 14.1253V6.76716L14 3.70466L22.1667 6.76716V14.1253C22.1667 17.1045 20.162 19.725 17.8984 21.7057C16.7911 22.6745 15.6783 23.4402 14.84 23.9641ZM18.325 12.617C18.7806 12.1614 18.7806 11.4227 18.325 10.9671C17.8693 10.5115 17.1307 10.5115 16.675 10.9671L12.8333 14.8088L11.325 13.3004C10.8693 12.8448 10.1307 12.8448 9.67504 13.3004C9.21943 13.756 9.21943 14.4947 9.67504 14.9503L12.0084 17.2837C12.464 17.7393 13.2027 17.7393 13.6583 17.2837L18.325 12.617Z" fill="url(#paint0_linear_470_20921)"/>
<defs>
<linearGradient id="paint0_linear_470_20921" x1="24.5" y1="-1.36593" x2="-13.6567" y2="35.2418" gradientUnits="userSpaceOnUse">
<stop stop-color="#F213A4"/>
<stop offset="1" stop-color="#FFDCF5"/>
</linearGradient>
</defs>
</svg>
