<svg width="29" height="29" viewBox="0 0 29 29" fill="none" xmlns="http://www.w3.org/2000/svg">
<path fill-rule="evenodd" clip-rule="evenodd" d="M9.30887 3.93412C9.4589 3.78409 9.66238 3.6998 9.87455 3.6998H19.8984C20.1106 3.6998 20.3141 3.78409 20.4641 3.93412L23.6554 7.12541H6.11757L9.30887 3.93412ZM2.04726 8.40543C2.01829 8.06516 2.13399 7.71488 2.39438 7.4545L7.61181 2.23706C8.21193 1.63695 9.02586 1.2998 9.87455 1.2998H19.8984C20.7471 1.2998 21.561 1.63695 22.1611 2.23706L27.316 7.39188C27.3697 7.44565 27.4173 7.50326 27.4588 7.56382C27.6184 7.76342 27.7139 8.0166 27.7139 8.29208V11.7921C27.7139 12.7203 27.3452 13.6106 26.6888 14.267C26.3162 14.6396 25.8681 14.9195 25.3806 15.0919V23.4587C25.3806 24.387 25.0118 25.2772 24.3555 25.9336C23.6991 26.59 22.8089 26.9587 21.8806 26.9587H18.3873L18.3806 26.9587L18.3739 26.9587H11.3873L11.3806 26.9587L11.3739 26.9587H7.88059C6.95234 26.9587 6.0621 26.59 5.40572 25.9336C4.74934 25.2772 4.38059 24.387 4.38059 23.4587V15.0919C3.89304 14.9195 3.44502 14.6396 3.07238 14.267C2.41601 13.6106 2.04726 12.7203 2.04726 11.7921L2.04726 8.40543ZM4.38059 11.7921V9.45875H25.3806V11.7921C25.3806 12.1015 25.2577 12.3982 25.0389 12.617C24.8272 12.8287 24.5426 12.9506 24.2442 12.9584C23.8273 12.9283 23.4303 12.7672 23.1101 12.4977C23.0881 12.4793 23.0655 12.4616 23.0423 12.4448C22.7042 12.2005 22.2977 12.069 21.8806 12.069C21.4635 12.069 21.057 12.2005 20.7189 12.4448C20.6957 12.4616 20.6731 12.4793 20.6511 12.4977C20.3386 12.7607 19.953 12.9204 19.5473 12.9559C19.1415 12.9204 18.7559 12.7607 18.4434 12.4977C18.4215 12.4793 18.3988 12.4616 18.3756 12.4448C18.0375 12.2005 17.631 12.069 17.2139 12.069C16.7968 12.069 16.3903 12.2005 16.0523 12.4448C16.029 12.4616 16.0064 12.4793 15.9844 12.4977C15.672 12.7607 15.2864 12.9204 14.8806 12.9559C14.4748 12.9204 14.0892 12.7607 13.7767 12.4977C13.7548 12.4793 13.7322 12.4616 13.7089 12.4448C13.3709 12.2005 12.9644 12.069 12.5473 12.069C12.1302 12.069 11.7237 12.2005 11.3856 12.4448C11.3623 12.4616 11.3397 12.4793 11.3178 12.4977C11.0053 12.7607 10.6197 12.9204 10.2139 12.9559C9.80814 12.9204 9.42255 12.7607 9.11008 12.4977C9.08813 12.4793 9.06551 12.4616 9.04226 12.4448C8.70419 12.2005 8.2977 12.069 7.88059 12.069C7.46348 12.069 7.057 12.2005 6.71893 12.4448C6.69568 12.4616 6.67305 12.4793 6.65111 12.4977C6.33088 12.7672 5.93386 12.9283 5.51701 12.9584C5.21856 12.9506 4.93395 12.8287 4.7223 12.617C4.50351 12.3982 4.38059 12.1015 4.38059 11.7921ZM6.71393 23.4587V15.0837C7.12904 14.9481 7.52266 14.7499 7.88059 14.4946C8.54442 14.9681 9.33098 15.2453 10.1498 15.2903C10.1925 15.2927 10.2353 15.2927 10.278 15.2903C11.0969 15.2453 11.8834 14.9681 12.5473 14.4946C13.2111 14.9681 13.9977 15.2453 14.8165 15.2903C14.8592 15.2927 14.902 15.2927 14.9447 15.2903C15.7635 15.2453 16.5501 14.9681 17.2139 14.4946C17.8778 14.9681 18.6643 15.2453 19.4831 15.2903C19.5259 15.2927 19.5687 15.2927 19.6114 15.2903C20.4302 15.2453 21.2168 14.9681 21.8806 14.4946C22.2385 14.7499 22.6321 14.9481 23.0473 15.0837V23.4587C23.0473 23.7681 22.9243 24.0649 22.7056 24.2837C22.4868 24.5025 22.19 24.6254 21.8806 24.6254H19.5473V21.1254C19.5473 20.1972 19.1785 19.3069 18.5221 18.6505C17.8658 17.9942 16.9755 17.6254 16.0473 17.6254H13.7139C12.7857 17.6254 11.8954 17.9942 11.2391 18.6505C10.5827 19.3069 10.2139 20.1972 10.2139 21.1254V24.6254H7.88059C7.57118 24.6254 7.27443 24.5025 7.05564 24.2837C6.83684 24.0649 6.71393 23.7681 6.71393 23.4587ZM17.2139 24.6254H12.5473V21.1254C12.5473 20.816 12.6702 20.5193 12.889 20.3005C13.1078 20.0817 13.4045 19.9587 13.7139 19.9587H16.0473C16.3567 19.9587 16.6534 20.0817 16.8722 20.3005C17.091 20.5193 17.2139 20.816 17.2139 21.1254V24.6254Z" fill="url(#paint0_linear_470_20886)"/>
<defs>
<linearGradient id="paint0_linear_470_20886" x1="27.7139" y1="-1.35731" x2="-9.98239" y2="42.8663" gradientUnits="userSpaceOnUse">
<stop stop-color="#F213A4"/>
<stop offset="1" stop-color="#FFDCF5"/>
</linearGradient>
</defs>
</svg>
