<svg width="29" height="29" viewBox="0 0 29 29" fill="none" xmlns="http://www.w3.org/2000/svg">
<path fill-rule="evenodd" clip-rule="evenodd" d="M5.40574 2.31712C6.06212 1.66074 6.95236 1.29199 7.88061 1.29199H17.2139H17.7973C18.1067 1.29199 18.4034 1.41491 18.6222 1.6337L25.0389 8.05037C25.2577 8.26916 25.3806 8.56591 25.3806 8.87533V9.45866V23.4587C25.3806 24.3869 25.0119 25.2772 24.3555 25.9335C23.6991 26.5899 22.8089 26.9587 21.8806 26.9587H7.88061C6.95236 26.9587 6.06212 26.5899 5.40574 25.9335C4.74936 25.2772 4.38062 24.3869 4.38062 23.4587V4.79199C4.38062 3.86373 4.74936 2.9735 5.40574 2.31712ZM7.88061 3.62533H16.0473V9.45866C16.0473 10.103 16.5696 10.6253 17.2139 10.6253H23.0473V23.4587C23.0473 23.7681 22.9244 24.0648 22.7056 24.2836C22.4868 24.5024 22.19 24.6253 21.8806 24.6253H7.88061C7.5712 24.6253 7.27445 24.5024 7.05566 24.2836C6.83686 24.0648 6.71395 23.7681 6.71395 23.4587V4.79199C6.71395 4.48257 6.83686 4.18583 7.05566 3.96703C7.27445 3.74824 7.5712 3.62533 7.88061 3.62533ZM18.3806 8.29199H21.9807L18.3806 4.69191V8.29199ZM10.2139 14.1254C9.56962 14.1254 9.04728 14.6477 9.04728 15.292C9.04728 15.9364 9.56962 16.4587 10.2139 16.4587H19.5473C20.1916 16.4587 20.7139 15.9364 20.7139 15.292C20.7139 14.6477 20.1916 14.1254 19.5473 14.1254H10.2139ZM9.04728 19.9587C9.04728 19.3143 9.56962 18.792 10.2139 18.792H19.5473C20.1916 18.792 20.7139 19.3143 20.7139 19.9587C20.7139 20.603 20.1916 21.1253 19.5473 21.1253H10.2139C9.56962 21.1253 9.04728 20.603 9.04728 19.9587ZM10.2139 9.45868C9.56962 9.45868 9.04728 9.98101 9.04728 10.6253C9.04728 11.2697 9.56962 11.792 10.2139 11.792H12.5473C13.1916 11.792 13.7139 11.2697 13.7139 10.6253C13.7139 9.98101 13.1916 9.45868 12.5473 9.45868H10.2139Z" fill="url(#paint0_linear_470_20828)"/>
<defs>
<linearGradient id="paint0_linear_470_20828" x1="25.3806" y1="-1.36593" x2="-12.7761" y2="35.2418" gradientUnits="userSpaceOnUse">
<stop stop-color="#F213A4"/>
<stop offset="1" stop-color="#FFDCF5"/>
</linearGradient>
</defs>
</svg>
