<svg width="28" height="29" viewBox="0 0 28 29" fill="none" xmlns="http://www.w3.org/2000/svg">
<g clip-path="url(#clip0_470_20861)">
<path fill-rule="evenodd" clip-rule="evenodd" d="M1.27682 0.125C1.98198 0.125 2.55363 0.69665 2.55363 1.40182V25.6921H26.7228C27.4279 25.6921 27.9996 26.2637 27.9996 26.9689C27.9996 27.674 27.4279 28.2457 26.7228 28.2457H1.27682C0.57165 28.2457 0 27.674 0 26.9689V1.40182C0 0.69665 0.57165 0.125 1.27682 0.125ZM17.8704 5.23134C17.8704 4.52618 18.4421 3.95453 19.1473 3.95453H26.7232C27.0618 3.95453 27.3866 4.08905 27.626 4.3285C27.8655 4.56796 28 4.89272 28 5.23136L27.9999 12.9661C27.9999 13.6713 27.4282 14.2429 26.7231 14.2429C26.0179 14.2429 25.4463 13.6712 25.4463 12.9661L25.4463 8.28604L18.3406 15.5783C17.8498 16.0819 17.0443 16.094 16.5387 15.6053L13.9171 13.0714L6.75118 20.0159C6.24479 20.5066 5.43645 20.4939 4.94571 19.9875C4.45496 19.4811 4.46765 18.6728 4.97404 18.1821L13.0273 10.3776C13.522 9.89817 14.3079 9.89765 14.8032 10.3764L17.3991 12.8854L23.6132 6.50816H19.1473C18.4421 6.50816 17.8704 5.93651 17.8704 5.23134Z" fill="url(#paint0_linear_470_20861)"/>
</g>
<defs>
<linearGradient id="paint0_linear_470_20861" x1="28" y1="-2.78705" x2="-13.3437" y2="45.4847" gradientUnits="userSpaceOnUse">
<stop stop-color="#F213A4"/>
<stop offset="1" stop-color="#FFDCF5"/>
</linearGradient>
<clipPath id="clip0_470_20861">
<rect width="28" height="28" fill="white" transform="translate(0 0.125)"/>
</clipPath>
</defs>
</svg>
