<svg width="28" height="28" viewBox="0 0 28 28" fill="none" xmlns="http://www.w3.org/2000/svg">
<path fill-rule="evenodd" clip-rule="evenodd" d="M4.66668 3.49967C4.66668 2.85534 4.14434 2.33301 3.50001 2.33301C2.85568 2.33301 2.33334 2.85534 2.33334 3.49967V24.4997C2.33334 25.144 2.85568 25.6663 3.50001 25.6663H24.5C25.1443 25.6663 25.6667 25.144 25.6667 24.4997C25.6667 23.8553 25.1443 23.333 24.5 23.333H4.66668V3.49967ZM22.1667 10.4997C22.1667 9.85534 21.6443 9.33301 21 9.33301C20.3557 9.33301 19.8333 9.85534 19.8333 10.4997V19.833C19.8333 20.4773 20.3557 20.9997 21 20.9997C21.6443 20.9997 22.1667 20.4773 22.1667 19.833V10.4997ZM15.1667 4.66602C15.811 4.66602 16.3333 5.18835 16.3333 5.83268V19.8327C16.3333 20.477 15.811 20.9993 15.1667 20.9993C14.5223 20.9993 14 20.477 14 19.8327V5.83268C14 5.18835 14.5223 4.66602 15.1667 4.66602ZM10.5 16.3327C10.5 15.6883 9.97769 15.166 9.33335 15.166C8.68902 15.166 8.16669 15.6883 8.16669 16.3327V19.8327C8.16669 20.477 8.68902 20.9993 9.33335 20.9993C9.97769 20.9993 10.5 20.477 10.5 19.8327V16.3327Z" fill="url(#paint0_linear_470_20946)"/>
<defs>
<linearGradient id="paint0_linear_470_20946" x1="25.6667" y1="-0.0832813" x2="-8.61556" y2="40.1162" gradientUnits="userSpaceOnUse">
<stop stop-color="#F213A4"/>
<stop offset="1" stop-color="#FFDCF5"/>
</linearGradient>
</defs>
</svg>
