<svg width="28" height="29" viewBox="0 0 28 29" fill="none" xmlns="http://www.w3.org/2000/svg">
<path fill-rule="evenodd" clip-rule="evenodd" d="M21 3.62533C19.7113 3.62533 18.6667 4.66999 18.6667 5.95866C18.6667 6.36382 18.7699 6.74486 18.9516 7.0769C18.9635 7.09493 18.9749 7.1134 18.986 7.13228C18.9969 7.15103 19.0073 7.16996 19.0171 7.18905C19.4288 7.85119 20.1629 8.29199 21 8.29199C22.2887 8.29199 23.3333 7.24732 23.3333 5.95866C23.3333 4.66999 22.2887 3.62533 21 3.62533ZM17.6844 9.24265C18.5301 10.0965 19.7033 10.6253 21 10.6253C23.5773 10.6253 25.6667 8.53599 25.6667 5.95866C25.6667 3.38133 23.5773 1.29199 21 1.29199C18.4227 1.29199 16.3333 3.38133 16.3333 5.95866C16.3333 6.39851 16.3942 6.82415 16.5079 7.22761L10.3156 10.8413C9.46986 9.98754 8.29669 9.45868 7 9.45868C4.42267 9.45868 2.33333 11.548 2.33333 14.1253C2.33333 16.7027 4.42267 18.792 7 18.792C8.29694 18.792 9.47032 18.2629 10.3161 17.4089L16.5094 21.0179C16.3947 21.4229 16.3333 21.8503 16.3333 22.292C16.3333 24.8694 18.4227 26.9587 21 26.9587C23.5773 26.9587 25.6667 24.8694 25.6667 22.292C25.6667 19.7147 23.5773 17.6254 21 17.6254C19.7052 17.6254 18.5336 18.1526 17.6882 19.0042L11.4922 15.3937C11.6059 14.9904 11.6667 14.565 11.6667 14.1253C11.6667 13.6855 11.6058 13.2598 11.4921 12.8564L17.6844 9.24265ZM8.98307 12.8952C8.99282 12.9142 9.00314 12.933 9.01403 12.9517C9.02501 12.9705 9.03643 12.9889 9.04828 13.0068C9.23001 13.3389 9.33333 13.7201 9.33333 14.1253C9.33333 14.5305 9.23006 14.9116 9.04841 15.2436C9.03638 15.2618 9.02479 15.2805 9.01366 15.2996C9.00286 15.3181 8.99263 15.3368 8.98296 15.3557C8.57124 16.0179 7.8371 16.4587 7 16.4587C5.71133 16.4587 4.66667 15.414 4.66667 14.1253C4.66667 12.8367 5.71133 11.792 7 11.792C7.83718 11.792 8.57138 12.2329 8.98307 12.8952ZM18.6667 22.292C18.6667 21.9127 18.7572 21.5544 18.9178 21.2378C18.9466 21.1999 18.9734 21.1599 18.998 21.1177C19.0216 21.0773 19.0424 21.0361 19.0606 20.9942C19.4793 20.3697 20.1917 19.9587 21 19.9587C22.2887 19.9587 23.3333 21.0034 23.3333 22.292C23.3333 23.5807 22.2887 24.6254 21 24.6254C19.7113 24.6254 18.6667 23.5807 18.6667 22.292Z" fill="url(#paint0_linear_470_20835)"/>
<defs>
<linearGradient id="paint0_linear_470_20835" x1="25.6667" y1="-1.36593" x2="-12.445" y2="39.2612" gradientUnits="userSpaceOnUse">
<stop stop-color="#F213A4"/>
<stop offset="1" stop-color="#FFDCF5"/>
</linearGradient>
</defs>
</svg>
