<svg width="28" height="29" viewBox="0 0 28 29" fill="none" xmlns="http://www.w3.org/2000/svg">
<path fill-rule="evenodd" clip-rule="evenodd" d="M5.83333 4.79232C5.189 4.79232 4.66666 5.31465 4.66666 5.95898V9.45898H10.5H23.3333V5.95898C23.3333 5.31465 22.811 4.79232 22.1667 4.79232H5.83333ZM9.33333 11.7923H4.66666V22.2923C4.66666 22.9366 5.189 23.459 5.83333 23.459H9.33333V11.7923ZM11.6667 23.459V11.7923H23.3333V22.2923C23.3333 22.9366 22.811 23.459 22.1667 23.459H11.6667ZM10.5 25.7923H5.83333C3.90033 25.7923 2.33333 24.2253 2.33333 22.2923V10.6257V5.95898C2.33333 4.02599 3.90033 2.45898 5.83333 2.45898H22.1667C24.0997 2.45898 25.6667 4.02599 25.6667 5.95898V10.6257V22.2923C25.6667 24.2253 24.0997 25.7923 22.1667 25.7923H10.5Z" fill="url(#paint0_linear_470_20972)"/>
<defs>
<linearGradient id="paint0_linear_470_20972" x1="25.6667" y1="0.0426953" x2="-8.61558" y2="40.2422" gradientUnits="userSpaceOnUse">
<stop stop-color="#F213A4"/>
<stop offset="1" stop-color="#FFDCF5"/>
</linearGradient>
</defs>
</svg>
