<svg width="28" height="29" viewBox="0 0 28 29" fill="none" xmlns="http://www.w3.org/2000/svg">
<path fill-rule="evenodd" clip-rule="evenodd" d="M4.67023 5.94082C4.66665 5.95258 4.66666 5.95755 4.66667 5.95858L4.66667 5.95866L4.66667 5.95873L4.66667 5.95899C4.66668 5.96046 4.66689 5.96552 4.67023 5.9765C4.67419 5.9895 4.68397 6.01518 4.70759 6.05366C4.75711 6.13433 4.85809 6.25561 5.04728 6.4047C5.43249 6.70828 6.06219 7.03269 6.94431 7.32674C8.69636 7.91075 11.191 8.29199 14 8.29199C16.809 8.29199 19.3036 7.91075 21.0557 7.32674C21.9378 7.03269 22.5675 6.70828 22.9527 6.4047C23.1419 6.25561 23.2429 6.13433 23.2924 6.05366C23.316 6.01518 23.3258 5.9895 23.3298 5.9765C23.3327 5.9669 23.3332 5.96183 23.3333 5.95972V5.95864V5.95761C23.3333 5.95632 23.333 5.95391 23.3322 5.95003C23.3317 5.94758 23.3309 5.94454 23.3298 5.94082C23.3258 5.92782 23.316 5.90213 23.2924 5.86365C23.2429 5.78299 23.1419 5.66171 22.9527 5.51261C22.5675 5.20904 21.9378 4.88462 21.0557 4.59058C19.3036 4.00657 16.809 3.62533 14 3.62533C11.191 3.62533 8.69636 4.00657 6.94431 4.59058C6.06219 4.88462 5.43249 5.20904 5.04728 5.51261C4.85809 5.66171 4.75711 5.78299 4.70759 5.86365C4.68397 5.90213 4.67419 5.92782 4.67023 5.94082ZM4.66667 17.0753C5.23932 17.3687 5.90408 17.6262 6.63824 17.8466C8.54374 18.4438 10.454 18.792 12 18.792C12.6443 18.792 13.1667 18.2697 13.1667 17.6253C13.1667 16.981 12.6443 16.4587 12 16.4587C11.3948 16.4587 10.6894 16.3901 9.92299 16.2566C9.80322 16.1865 9.66882 16.1366 9.5237 16.1126C8.70259 15.9769 7.96421 15.8078 7.32167 15.6156C7.19626 15.5762 7.07043 15.5355 6.94431 15.4934C6.03178 15.1892 5.40529 14.8573 5.0307 14.5558C4.8468 14.4078 4.75057 14.2887 4.70417 14.2113C4.68197 14.1743 4.673 14.15 4.6695 14.1382C4.66772 14.1323 4.66709 14.1287 4.66686 14.1272L4.66668 14.1257L4.66667 14.1253V8.90636C5.13477 9.14573 5.65443 9.35633 6.20645 9.54033C8.25465 10.2231 11.01 10.6253 14 10.6253C16.99 10.6253 19.7454 10.2231 21.7936 9.54033C22.3456 9.35633 22.8652 9.14573 23.3333 8.90637V10.9753L23.3333 10.9824V12.6253C23.3333 13.2697 23.8557 13.792 24.5 13.792C25.1443 13.792 25.6667 13.2697 25.6667 12.6253V5.95866C25.6667 4.96472 25.0613 4.20351 24.397 3.67999C23.7195 3.1461 22.8116 2.71632 21.7936 2.37699C19.7454 1.69425 16.99 1.29199 14 1.29199C11.01 1.29199 8.25465 1.69425 6.20645 2.37699C5.18844 2.71632 4.28046 3.1461 3.60301 3.67999C2.94092 4.20177 2.33736 4.95966 2.33335 5.94875L2.33331 5.95864V22.2908H2.33333V22.292H2.33331V22.2914C2.33273 23.0748 2.71758 23.7277 3.21135 24.2224C3.70154 24.7134 4.36427 25.1201 5.12087 25.4569C6.63637 26.1315 8.68434 26.5934 10.9349 26.8131C10.9524 26.8148 10.9698 26.8161 10.9872 26.8171C11.9644 26.9107 12.9779 26.9587 14 26.9587C14.6443 26.9587 15.1667 26.4363 15.1667 25.792C15.1667 25.1477 14.6443 24.6253 14 24.6253C11.3006 24.6253 8.76168 24.2659 6.94431 23.6601C6.03178 23.3559 5.40529 23.0239 5.0307 22.7225C4.8468 22.5745 4.75057 22.4554 4.70417 22.378C4.68197 22.341 4.673 22.3166 4.6695 22.3049C4.66772 22.2989 4.66709 22.2953 4.66686 22.2938L4.66668 22.2923L4.66667 22.292V17.0753ZM22.4859 15.1855C23.0972 15.3892 23.4275 16.05 23.2238 16.6612L23.1781 16.7983C23.5511 17.0625 23.8837 17.3802 24.1646 17.7401L24.367 17.6591C24.9653 17.4198 25.6442 17.7108 25.8835 18.309C26.1228 18.9073 25.8319 19.5862 25.2336 19.8255L25.0939 19.8814C25.131 20.1185 25.1503 20.3615 25.1503 20.6089C25.1503 20.7816 25.1409 20.9521 25.1226 21.1199L25.1692 21.1355C25.7805 21.3392 26.1108 21.9999 25.9071 22.6112C25.7033 23.2225 25.0426 23.5528 24.4314 23.3491L24.2943 23.3034C24.0301 23.6764 23.7124 24.0089 23.3525 24.2898L23.4335 24.4923C23.6728 25.0906 23.3819 25.7696 22.7836 26.0089C22.1854 26.2481 21.5064 25.9572 21.2671 25.3589L21.2112 25.2192C20.9741 25.2563 20.7311 25.2756 20.4836 25.2756C20.3109 25.2756 20.1404 25.2662 19.9726 25.2479L19.9571 25.2945C19.7533 25.9058 19.0926 26.2362 18.4813 26.0324C17.8701 25.8286 17.5397 25.1679 17.7435 24.5567L17.7892 24.4196C17.4162 24.1554 17.0836 23.8377 16.8027 23.4779L16.6003 23.5589C16.002 23.7982 15.3231 23.5072 15.0838 22.9089C14.8445 22.3107 15.1354 21.6317 15.7337 21.3924L15.8734 21.3365C15.8362 21.0995 15.817 20.8564 15.817 20.6089C15.817 20.4362 15.8263 20.2657 15.8446 20.0979L15.7981 20.0824C15.1868 19.8786 14.8564 19.2179 15.0602 18.6066C15.2639 17.9954 15.9246 17.665 16.5359 17.8688L16.673 17.9145C16.9372 17.5414 17.2549 17.2089 17.6147 16.928L17.5338 16.7256C17.2945 16.1273 17.5855 15.4484 18.1837 15.2091C18.782 14.9698 19.4609 15.2608 19.7002 15.859L19.7561 15.9987C19.9932 15.9615 20.2361 15.9423 20.4836 15.9423C20.6563 15.9423 20.8268 15.9517 20.9946 15.9699L21.0102 15.9234C21.2139 15.3121 21.8746 14.9817 22.4859 15.1855ZM22.4836 19.4063C22.0752 18.7287 21.3324 18.2756 20.4836 18.2756C20.2479 18.2756 20.0204 18.3106 19.8059 18.3755C19.7202 18.4431 19.6234 18.4996 19.517 18.5422C19.4392 18.5733 19.3602 18.5954 19.2809 18.6091C18.6034 19.0174 18.1503 19.7603 18.1503 20.6089C18.1503 20.8447 18.1853 21.0722 18.2503 21.2867C18.3178 21.3725 18.3743 21.4692 18.4169 21.5757C18.4479 21.6534 18.4701 21.7324 18.4838 21.8117C18.8921 22.4892 19.6349 22.9423 20.4836 22.9423C20.7194 22.9423 20.947 22.9073 21.1615 22.8423C21.2472 22.7748 21.3439 22.7183 21.4504 22.6757C21.528 22.6447 21.607 22.6226 21.6863 22.6089C22.3638 22.2006 22.817 21.4577 22.817 20.6089C22.817 20.3732 22.782 20.1457 22.717 19.9312C22.6495 19.8454 22.593 19.7487 22.5504 19.6423C22.5194 19.5646 22.4972 19.4855 22.4836 19.4063Z" fill="url(#paint0_linear_470_20901)"/>
<defs>
<linearGradient id="paint0_linear_470_20901" x1="25.9673" y1="-1.36593" x2="-12.1101" y2="39.7477" gradientUnits="userSpaceOnUse">
<stop stop-color="#F213A4"/>
<stop offset="1" stop-color="#FFDCF5"/>
</linearGradient>
</defs>
</svg>
