<svg width="28" height="29" viewBox="0 0 28 29" fill="none" xmlns="http://www.w3.org/2000/svg">
<path fill-rule="evenodd" clip-rule="evenodd" d="M14 3.62533C8.201 3.62533 3.49999 8.32634 3.49999 14.1253C3.49999 19.9243 8.201 24.6253 14 24.6253C19.799 24.6253 24.5 19.9243 24.5 14.1253C24.5 8.32634 19.799 3.62533 14 3.62533ZM1.16666 14.1253C1.16666 7.03767 6.91234 1.29199 14 1.29199C21.0876 1.29199 26.8333 7.03767 26.8333 14.1253C26.8333 21.213 21.0876 26.9587 14 26.9587C6.91234 26.9587 1.16666 21.213 1.16666 14.1253Z" fill="url(#paint0_linear_470_20893)"/>
<path fill-rule="evenodd" clip-rule="evenodd" d="M14.8614 1.67183C14.6404 1.42985 14.3277 1.29199 14 1.29199C13.6722 1.29199 13.3596 1.42985 13.1386 1.67183C10.2876 4.79307 8.56525 8.76655 8.2251 12.9586H2.33332C1.68899 12.9586 1.16666 13.481 1.16666 14.1253C1.16666 14.7696 1.68899 15.292 2.33332 15.292H8.22509C8.56523 19.484 10.2876 23.4576 13.1386 26.5788C13.3596 26.8208 13.6722 26.9587 14 26.9587C14.3277 26.9587 14.6404 26.8208 14.8614 26.5788C17.7124 23.4576 19.4347 19.484 19.7749 15.292H25.6667C26.311 15.292 26.8333 14.7696 26.8333 14.1253C26.8333 13.481 26.311 12.9586 25.6667 12.9586H19.7749C19.4347 8.76655 17.7124 4.79307 14.8614 1.67183ZM17.4328 12.9586C17.1397 9.79327 15.9479 6.77757 14 4.26792C12.052 6.77757 10.8603 9.79327 10.5672 12.9586H17.4328ZM10.5672 15.292C10.8602 18.4573 12.052 21.4731 14 23.9827C15.948 21.4731 17.1397 18.4573 17.4328 15.292H10.5672Z" fill="url(#paint1_linear_470_20893)"/>
<defs>
<linearGradient id="paint0_linear_470_20893" x1="26.8333" y1="-1.36593" x2="-10.8771" y2="42.8535" gradientUnits="userSpaceOnUse">
<stop stop-color="#F213A4"/>
<stop offset="1" stop-color="#FFDCF5"/>
</linearGradient>
<linearGradient id="paint1_linear_470_20893" x1="26.8333" y1="-1.36593" x2="-10.8771" y2="42.8535" gradientUnits="userSpaceOnUse">
<stop stop-color="#F213A4"/>
<stop offset="1" stop-color="#FFDCF5"/>
</linearGradient>
</defs>
</svg>
