<svg width="29" height="29" viewBox="0 0 29 29" fill="none" xmlns="http://www.w3.org/2000/svg">
<path fill-rule="evenodd" clip-rule="evenodd" d="M11.3806 10.6247C11.3806 9.98034 10.8583 9.45801 10.2139 9.45801C9.5696 9.45801 9.04726 9.98034 9.04726 10.6247V11.7913H7.88059C7.23626 11.7913 6.71393 12.3137 6.71393 12.958C6.71393 13.6023 7.23626 14.1247 7.88059 14.1247H9.04726V15.2913C9.04726 15.9357 9.5696 16.458 10.2139 16.458C10.8583 16.458 11.3806 15.9357 11.3806 15.2913V14.1247H12.5473C13.1916 14.1247 13.7139 13.6023 13.7139 12.958C13.7139 12.3137 13.1916 11.7913 12.5473 11.7913H11.3806V10.6247Z" fill="url(#paint0_linear_470_20939)"/>
<path fill-rule="evenodd" clip-rule="evenodd" d="M17.2139 14.1247C17.2139 13.4803 17.7363 12.958 18.3806 12.958H18.3923C19.0366 12.958 19.5589 13.4803 19.5589 14.1247C19.5589 14.769 19.0366 15.2913 18.3923 15.2913H18.3806C17.7363 15.2913 17.2139 14.769 17.2139 14.1247Z" fill="url(#paint1_linear_470_20939)"/>
<path fill-rule="evenodd" clip-rule="evenodd" d="M20.7139 11.7917C20.7139 11.1473 21.2363 10.625 21.8806 10.625H21.8923C22.5366 10.625 23.0589 11.1473 23.0589 11.7917C23.0589 12.436 22.5366 12.9583 21.8923 12.9583H21.8806C21.2363 12.9583 20.7139 12.436 20.7139 11.7917Z" fill="url(#paint2_linear_470_20939)"/>
<path d="M21.0873 5.95801H8.67393C7.51925 5.95828 6.40568 6.38661 5.54847 7.16022C4.69126 7.93382 4.15128 8.99775 4.03293 10.1463C4.02593 10.207 4.02126 10.2642 4.01309 10.3237C3.91859 11.11 3.21393 16.99 3.21393 18.7913C3.21393 19.7196 3.58268 20.6098 4.23905 21.2662C4.89543 21.9226 5.78567 22.2913 6.71393 22.2913C7.88059 22.2913 8.46393 21.708 9.04726 21.1247L10.6969 19.475C11.1344 19.0374 11.7278 18.7915 12.3466 18.7913H17.4146C18.0334 18.7915 18.6268 19.0374 19.0643 19.475L20.7139 21.1247C21.2973 21.708 21.8806 22.2913 23.0473 22.2913C23.9755 22.2913 24.8658 21.9226 25.5221 21.2662C26.1785 20.6098 26.5473 19.7196 26.5473 18.7913C26.5473 16.9888 25.8426 11.11 25.7481 10.3237C25.7399 10.2653 25.7353 10.207 25.7283 10.1475C25.6102 8.9987 25.0703 7.93449 24.2131 7.16065C23.3558 6.38681 22.2421 5.95831 21.0873 5.95801Z" stroke="url(#paint3_linear_470_20939)" stroke-width="2.33333" stroke-linecap="round" stroke-linejoin="round"/>
<defs>
<linearGradient id="paint0_linear_470_20939" x1="13.7139" y1="8.73312" x2="3.42926" y2="20.793" gradientUnits="userSpaceOnUse">
<stop stop-color="#F213A4"/>
<stop offset="1" stop-color="#FFDCF5"/>
</linearGradient>
<linearGradient id="paint1_linear_470_20939" x1="19.5589" y1="12.7164" x2="16.1334" y2="16.7532" gradientUnits="userSpaceOnUse">
<stop stop-color="#F213A4"/>
<stop offset="1" stop-color="#FFDCF5"/>
</linearGradient>
<linearGradient id="paint2_linear_470_20939" x1="23.0589" y1="10.3834" x2="19.6334" y2="14.4202" gradientUnits="userSpaceOnUse">
<stop stop-color="#F213A4"/>
<stop offset="1" stop-color="#FFDCF5"/>
</linearGradient>
<linearGradient id="paint3_linear_470_20939" x1="26.5473" y1="4.26661" x2="5.15533" y2="40.1013" gradientUnits="userSpaceOnUse">
<stop stop-color="#F213A4"/>
<stop offset="1" stop-color="#FFDCF5"/>
</linearGradient>
</defs>
</svg>
