<svg width="29" height="29" viewBox="0 0 29 29" fill="none" xmlns="http://www.w3.org/2000/svg">
<path d="M18.0306 7.47502C17.8169 7.6931 17.6971 7.98631 17.6971 8.29168C17.6971 8.59706 17.8169 8.89027 18.0306 9.10835L19.8973 10.975C20.1154 11.1888 20.4086 11.3085 20.714 11.3085C21.0193 11.3085 21.3125 11.1888 21.5306 10.975L25.929 6.57668C26.5156 7.87307 26.6932 9.31746 26.4382 10.7174C26.1831 12.1172 25.5075 13.4062 24.5013 14.4123C23.4951 15.4185 22.2062 16.0942 20.8063 16.3492C19.4064 16.6043 17.962 16.4267 16.6656 15.84L8.60396 23.9017C8.13983 24.3658 7.51034 24.6266 6.85396 24.6266C6.19759 24.6266 5.56809 24.3658 5.10396 23.9017C4.63983 23.4376 4.37909 22.8081 4.37909 22.1517C4.37909 21.4953 4.63983 20.8658 5.10396 20.4017L13.1656 12.34C12.579 11.0436 12.4014 9.59924 12.6564 8.19935C12.9115 6.79945 13.5871 5.51053 14.5933 4.50436C15.5995 3.49819 16.8884 2.82255 18.2883 2.56748C19.6882 2.31242 21.1326 2.49004 22.429 3.07668L18.0423 7.46335L18.0306 7.47502Z" stroke="url(#paint0_linear_470_20870)" stroke-width="2.33333" stroke-linecap="round" stroke-linejoin="round"/>
<defs>
<linearGradient id="paint0_linear_470_20870" x1="26.5515" y1="0.158028" x2="-6.02508" y2="38.3575" gradientUnits="userSpaceOnUse">
<stop stop-color="#F213A4"/>
<stop offset="1" stop-color="#FFDCF5"/>
</linearGradient>
</defs>
</svg>
