<svg width="28" height="29" viewBox="0 0 28 29" fill="none" xmlns="http://www.w3.org/2000/svg">
<path fill-rule="evenodd" clip-rule="evenodd" d="M17.5 2.45801C16.2113 2.45801 15.1667 3.50268 15.1667 4.79134V10.6247C15.1667 11.9133 16.2113 12.958 17.5 12.958H23.3333C24.622 12.958 25.6667 11.9133 25.6667 10.6247V4.79134C25.6667 3.50268 24.622 2.45801 23.3333 2.45801H17.5ZM17.5 4.79134H23.3333V10.6247H17.5V4.79134ZM4.66668 7.12469C4.04784 7.12469 3.45435 7.37053 3.01676 7.80811C2.57918 8.2457 2.33334 8.83919 2.33334 9.45803V16.458V23.458C2.33334 24.0769 2.57918 24.6704 3.01676 25.1079C3.45435 25.5455 4.04784 25.7914 4.66668 25.7914H11.6667H18.6667C19.2855 25.7914 19.879 25.5455 20.3166 25.1079C20.7542 24.6704 21 24.0769 21 23.458V17.6247C21 17.0059 20.7542 16.4124 20.3166 15.9748C19.879 15.5372 19.2855 15.2914 18.6667 15.2914H12.8333V9.45803C12.8333 8.83919 12.5875 8.2457 12.1499 7.80811C11.7123 7.37053 11.1188 7.12469 10.5 7.12469H4.66668ZM4.66668 23.458V17.6247H10.5V23.458H4.66668ZM4.66668 15.2914H10.5V9.45803L4.66668 9.45803V15.2914ZM12.8333 23.458V17.6247H18.6667V23.458H12.8333Z" fill="url(#paint0_linear_470_20866)"/>
<defs>
<linearGradient id="paint0_linear_470_20866" x1="25.6667" y1="0.0417166" x2="-8.61563" y2="40.2412" gradientUnits="userSpaceOnUse">
<stop stop-color="#F213A4"/>
<stop offset="1" stop-color="#FFDCF5"/>
</linearGradient>
</defs>
</svg>
