<svg width="28" height="28" viewBox="0 0 28 28" fill="none" xmlns="http://www.w3.org/2000/svg">
<path fill-rule="evenodd" clip-rule="evenodd" d="M4.5251 2.19212C5.18147 1.53574 6.07171 1.16699 6.99997 1.16699H16.3333H16.9166C17.2261 1.16699 17.5228 1.28991 17.7416 1.5087L24.1583 7.92537C24.3771 8.14416 24.5 8.44091 24.5 8.75033V9.32659L24.5 9.33366L24.5 9.34073V23.3337C24.5 24.2619 24.1312 25.1522 23.4748 25.8085C22.8185 26.4649 21.9282 26.8337 21 26.8337H4.66664C4.0223 26.8337 3.49997 26.3113 3.49997 25.667C3.49997 25.0227 4.0223 24.5003 4.66664 24.5003H21C21.3094 24.5003 21.6061 24.3774 21.8249 24.1586C22.0437 23.9398 22.1666 23.6431 22.1666 23.3337V10.5003H16.3333C15.689 10.5003 15.1667 9.97799 15.1667 9.33366V3.50033H6.99997C6.69055 3.50033 6.3938 3.62324 6.17501 3.84203C5.95622 4.06083 5.8333 4.35757 5.8333 4.66699V9.33366C5.8333 9.97799 5.31097 10.5003 4.66664 10.5003C4.0223 10.5003 3.49997 9.97799 3.49997 9.33366V4.66699C3.49997 3.73873 3.86872 2.8485 4.5251 2.19212ZM17.5 8.16699V4.56693L21.1001 8.16699H17.5ZM11.3249 15.9919C11.7805 15.5363 11.7805 14.7976 11.3249 14.342C10.8693 13.8863 10.1306 13.8863 9.67502 14.342L5.83331 18.1837L4.32494 16.6753C3.86933 16.2197 3.13063 16.2197 2.67502 16.6753C2.21941 17.1309 2.21941 17.8696 2.67502 18.3252L5.00836 20.6585C5.46397 21.1141 6.20266 21.1141 6.65827 20.6585L11.3249 15.9919Z" fill="url(#paint0_linear_470_20967)"/>
<defs>
<linearGradient id="paint0_linear_470_20967" x1="24.5" y1="-1.49093" x2="-13.6865" y2="37.1807" gradientUnits="userSpaceOnUse">
<stop stop-color="#F213A4"/>
<stop offset="1" stop-color="#FFDCF5"/>
</linearGradient>
</defs>
</svg>
