<svg width="29" height="29" viewBox="0 0 29 29" fill="none" xmlns="http://www.w3.org/2000/svg">
<path fill-rule="evenodd" clip-rule="evenodd" d="M6.23068 4.30842C6.66826 3.87083 7.26175 3.625 7.88059 3.625H11.3806C11.9957 3.625 12.599 3.83513 13.0514 4.28754C13.5038 4.73995 13.7139 5.34321 13.7139 5.95833V8.29163H16.0473V5.95833C16.0473 5.33949 16.2931 4.746 16.7307 4.30842C17.1683 3.87083 17.7618 3.625 18.3806 3.625H21.8806C22.4957 3.625 23.099 3.83513 23.5514 4.28754C24.0038 4.73995 24.2139 5.34321 24.2139 5.95833L24.2139 8.29163C25.5026 8.29163 26.5473 9.33629 26.5473 10.625V22.2916C26.5473 23.5803 25.5026 24.625 24.2139 24.625H5.54726C4.2586 24.625 3.21393 23.5803 3.21393 22.2916V10.625C3.21393 9.33629 4.2586 8.29163 5.54726 8.29163L5.54726 5.95833C5.54726 5.33949 5.79309 4.746 6.23068 4.30842ZM23.0374 10.625C23.0407 10.625 23.044 10.625 23.0473 10.625C23.0505 10.625 23.0538 10.625 23.0571 10.625H24.2139V22.2916H5.54726V10.625H6.7041L6.71393 10.625L6.72375 10.625H12.5374L12.5473 10.625L12.5571 10.625H17.2041C17.2074 10.625 17.2107 10.625 17.2139 10.625C17.2172 10.625 17.2205 10.625 17.2238 10.625H23.0374ZM21.8806 8.29163V5.95833L18.3806 5.95833V8.29163H21.8806ZM11.3806 5.95833V8.29163H7.88059L7.88059 5.95833L11.3806 5.95833Z" fill="url(#paint0_linear_470_20872)"/>
<defs>
<linearGradient id="paint0_linear_470_20872" x1="26.5473" y1="1.45034" x2="-3.63594" y2="40.7759" gradientUnits="userSpaceOnUse">
<stop stop-color="#F213A4"/>
<stop offset="1" stop-color="#FFDCF5"/>
</linearGradient>
</defs>
</svg>
