<svg width="28" height="29" viewBox="0 0 28 29" fill="none" xmlns="http://www.w3.org/2000/svg">
<path fill-rule="evenodd" clip-rule="evenodd" d="M5.83334 4.72884C5.18901 4.72884 4.66668 5.25118 4.66668 5.89551V7.26236C5.03791 7.1311 5.43208 7.06219 5.83334 7.06219H22.1667C22.5679 7.06219 22.9621 7.1311 23.3333 7.26236V5.89551C23.3333 5.25118 22.811 4.72884 22.1667 4.72884H5.83334ZM5.00839 9.73724C4.78959 9.95603 4.66668 10.2528 4.66668 10.5622V11.7288H7.00001C8.16074 11.7288 9.41442 12.1484 10.2669 13.1065L11.4721 14.0925C11.5021 14.1171 11.5309 14.1431 11.5583 14.1705C12.9694 15.5816 15.1473 15.5816 16.5584 14.1705C16.5858 14.1431 16.6146 14.1171 16.6446 14.0925L17.8865 13.0764C18.6554 12.3299 19.8521 11.7288 21.1167 11.7288H23.3333V10.5622C23.3333 10.2528 23.2104 9.95603 22.9916 9.73724C22.7728 9.51844 22.4761 9.39553 22.1667 9.39553H5.83334C5.52392 9.39553 5.22718 9.51844 5.00839 9.73724ZM23.3333 14.0622H21.1167C20.5394 14.0622 19.8915 14.3705 19.4916 14.7704C19.4642 14.7979 19.4355 14.8239 19.4055 14.8484L18.1648 15.8635C15.8552 18.1284 12.2615 18.1284 9.95186 15.8635L8.71123 14.8484C8.6539 14.8015 8.60117 14.7493 8.55375 14.6924C8.23985 14.3157 7.66938 14.0622 7.00001 14.0622H4.66668V22.2288C4.66668 22.8732 5.18901 23.3955 5.83334 23.3955H22.1667C22.811 23.3955 23.3333 22.8732 23.3333 22.2288V14.0622ZM2.33334 12.8955V22.2288C2.33334 24.1618 3.90035 25.7288 5.83334 25.7288H22.1667C24.0997 25.7288 25.6667 24.1618 25.6667 22.2288V12.8955V10.5622V5.89551C25.6667 3.96251 24.0997 2.39551 22.1667 2.39551H5.83334C3.90035 2.39551 2.33334 3.96251 2.33334 5.89551V10.5622V12.8955Z" fill="url(#paint0_linear_470_20952)"/>
<defs>
<linearGradient id="paint0_linear_470_20952" x1="25.6667" y1="-0.0207813" x2="-8.61556" y2="40.1787" gradientUnits="userSpaceOnUse">
<stop stop-color="#F213A4"/>
<stop offset="1" stop-color="#FFDCF5"/>
</linearGradient>
</defs>
</svg>
