<svg width="29" height="29" viewBox="0 0 29 29" fill="none" xmlns="http://www.w3.org/2000/svg">
<path fill-rule="evenodd" clip-rule="evenodd" d="M14.471 1.36627C14.7351 1.26723 15.0261 1.26723 15.2903 1.36627L24.6236 4.86627C25.0789 5.03703 25.3806 5.47234 25.3806 5.95866V14.1253C25.3806 18.1462 22.7186 21.359 20.3155 23.4617C19.0895 24.5344 17.869 25.373 16.9573 25.9428C16.5002 26.2284 16.1177 26.4485 15.8467 26.5985C15.7111 26.6735 15.6033 26.7312 15.5277 26.7708C15.49 26.7907 15.4602 26.806 15.4392 26.8168L15.4141 26.8296L15.4065 26.8334L15.404 26.8347L15.4031 26.8351C15.4027 26.8353 15.4024 26.8355 14.8806 25.792C14.3589 26.8355 14.3585 26.8353 14.3581 26.8351L14.3572 26.8347L14.3547 26.8334L14.3471 26.8296L14.3221 26.8168C14.301 26.806 14.2713 26.7907 14.2335 26.7708C14.158 26.7312 14.0501 26.6735 13.9145 26.5985C13.6436 26.4485 13.261 26.2284 12.8039 25.9428C11.8922 25.373 10.6717 24.5344 9.44569 23.4617C7.04265 21.359 4.38062 18.1462 4.38062 14.1253V5.95866C4.38062 5.47234 4.68228 5.03703 5.13764 4.86627L14.471 1.36627ZM14.8806 25.792L14.3589 26.8355C14.6873 26.9997 15.0739 26.9997 15.4024 26.8355L14.8806 25.792ZM14.8806 24.4652C15.1042 24.3385 15.3901 24.1707 15.7206 23.9641C16.5589 23.4402 17.6717 22.6745 18.779 21.7057C21.0427 19.725 23.0473 17.1045 23.0473 14.1253V6.76716L14.8806 3.70466L6.71395 6.76716V14.1253C6.71395 17.1045 8.71858 19.725 10.9822 21.7057C12.0895 22.6745 13.2023 23.4402 14.0406 23.9641C14.3711 24.1707 14.657 24.3385 14.8806 24.4652Z" fill="url(#paint0_linear_470_20898)"/>
<defs>
<linearGradient id="paint0_linear_470_20898" x1="25.3806" y1="-1.36593" x2="-12.7761" y2="35.2418" gradientUnits="userSpaceOnUse">
<stop stop-color="#F213A4"/>
<stop offset="1" stop-color="#FFDCF5"/>
</linearGradient>
</defs>
</svg>
