<svg width="64" height="64" viewBox="0 0 64 64" fill="none" xmlns="http://www.w3.org/2000/svg">
<rect width="64" height="64" rx="12" fill="url(#paint0_linear_113_12)"/>
<g clip-path="url(#clip0_113_12)">
<path fill-rule="evenodd" clip-rule="evenodd" d="M19.2768 18C19.982 18 20.5536 18.5717 20.5536 19.2768V43.5671H44.7228C45.4279 43.5671 45.9996 44.1387 45.9996 44.8439C45.9996 45.549 45.4279 46.1207 44.7228 46.1207H19.2768C18.5717 46.1207 18 45.549 18 44.8439V19.2768C18 18.5717 18.5717 18 19.2768 18ZM35.8704 23.1063C35.8704 22.4012 36.4421 21.8295 37.1473 21.8295H44.7232C45.0618 21.8295 45.3866 21.9641 45.626 22.2035C45.8655 22.443 46 22.7677 46 23.1064L45.9999 30.8411C45.9999 31.5463 45.4282 32.1179 44.7231 32.1179C44.0179 32.1179 43.4463 31.5462 43.4463 30.8411L43.4463 26.161L36.3406 33.4533C35.8498 33.9569 35.0443 33.969 34.5387 33.4803L31.9171 30.9464L24.7512 37.8909C24.2448 38.3816 23.4365 38.3689 22.9457 37.8625C22.455 37.3561 22.4676 36.5478 22.974 36.0571L31.0273 28.2526C31.522 27.7732 32.3079 27.7727 32.8032 28.2514L35.3991 30.7604L41.6132 24.3832H37.1473C36.4421 24.3832 35.8704 23.8115 35.8704 23.1063Z" fill="url(#paint1_linear_113_12)"/>
</g>
<defs>
<linearGradient id="paint0_linear_113_12" x1="-4.47035e-07" y1="8" x2="69" y2="68" gradientUnits="userSpaceOnUse">
<stop stop-color="#3D3D3D"/>
<stop offset="1" stop-color="#4D4D4D" stop-opacity="0"/>
</linearGradient>
<linearGradient id="paint1_linear_113_12" x1="44.0003" y1="4.65766" x2="2.46701" y2="66.902" gradientUnits="userSpaceOnUse">
<stop stop-color="white"/>
<stop offset="1" stop-color="white" stop-opacity="0"/>
</linearGradient>
<clipPath id="clip0_113_12">
<rect width="28" height="28" fill="white" transform="translate(18 18)"/>
</clipPath>
</defs>
</svg>
