<svg width="29" height="28" viewBox="0 0 29 28" fill="none" xmlns="http://www.w3.org/2000/svg">
<g clip-path="url(#clip0_154_48)">
<path fill-rule="evenodd" clip-rule="evenodd" d="M6.47466 7.63611C6.47466 5.52738 8.18412 3.81792 10.2929 3.81792C12.4016 3.81792 14.111 5.52738 14.111 7.63611C14.111 9.74484 12.4016 11.4543 10.2929 11.4543C8.18412 11.4543 6.47466 9.74484 6.47466 7.63611ZM10.2929 1.27246C6.7783 1.27246 3.9292 4.12157 3.9292 7.63611C3.9292 11.1507 6.7783 13.9998 10.2929 13.9998C13.8074 13.9998 16.6565 11.1507 16.6565 7.63611C16.6565 4.12157 13.8074 1.27246 10.2929 1.27246ZM6.47449 16.5454C4.78675 16.5454 3.16813 17.2159 1.97471 18.4093C0.781294 19.6027 0.11084 21.2213 0.11084 22.9091V25.4545C0.11084 26.1574 0.680661 26.7273 1.38357 26.7273C2.08648 26.7273 2.6563 26.1574 2.6563 25.4545V22.9091C2.6563 21.8964 3.05857 20.9252 3.77462 20.2092C4.49067 19.4931 5.46185 19.0909 6.47449 19.0909H14.1109C15.1235 19.0909 16.0947 19.4931 16.8107 20.2092C17.5268 20.9252 17.9291 21.8964 17.9291 22.9091V25.4545C17.9291 26.1574 18.4989 26.7273 19.2018 26.7273C19.9047 26.7273 20.4745 26.1574 20.4745 25.4545V22.9091C20.4745 21.2213 19.8041 19.6027 18.6107 18.4093C17.4172 17.2159 15.7986 16.5454 14.1109 16.5454H6.47449ZM21.7873 17.6653C21.963 16.9847 22.6572 16.5754 23.3378 16.7512C24.703 17.1037 25.9125 17.8996 26.7763 19.014C27.6402 20.1283 28.1095 21.498 28.1105 22.908V25.4544C28.1105 26.1573 27.5407 26.7271 26.8378 26.7271C26.1349 26.7271 25.5651 26.1573 25.5651 25.4544V22.9099C25.5644 22.064 25.2828 21.242 24.7646 20.5735C24.2463 19.9049 23.5206 19.4273 22.7014 19.2158C22.0208 19.0401 21.6116 18.3459 21.7873 17.6653ZM19.5174 1.47758C18.8365 1.30323 18.1431 1.71391 17.9688 2.39485C17.7944 3.07579 18.2051 3.76915 18.8861 3.94349C19.7074 4.15378 20.4353 4.63144 20.9552 5.30116C21.475 5.97088 21.7572 6.79457 21.7572 7.64237C21.7572 8.49017 21.475 9.31386 20.9552 9.98358C20.4353 10.6533 19.7074 11.131 18.8861 11.3412C18.2051 11.5156 17.7944 12.2089 17.9688 12.8899C18.1431 13.5708 18.8365 13.9815 19.5174 13.8072C20.8863 13.4567 22.0995 12.6606 22.966 11.5444C23.8324 10.4282 24.3027 9.05537 24.3027 7.64237C24.3027 6.22937 23.8324 4.85655 22.966 3.74035C22.0995 2.62415 20.8863 1.82806 19.5174 1.47758Z" fill="url(#paint0_linear_154_48)"/>
</g>
<defs>
<linearGradient id="paint0_linear_154_48" x1="28.1104" y1="-1.38731" x2="2.98652" y2="28.5325" gradientUnits="userSpaceOnUse">
<stop stop-color="#4830A4"/>
<stop offset="1" stop-color="#9786DF"/>
</linearGradient>
<clipPath id="clip0_154_48">
<rect width="28" height="28" fill="white" transform="translate(0.110352)"/>
</clipPath>
</defs>
</svg>
