<svg width="29" height="28" viewBox="0 0 29 28" fill="none" xmlns="http://www.w3.org/2000/svg">
<path fill-rule="evenodd" clip-rule="evenodd" d="M14.8807 3.50033C9.08171 3.50033 4.3807 8.20133 4.3807 14.0003C4.3807 17.1174 5.73897 19.9173 7.89595 21.8403C7.9717 21.0319 8.32687 20.271 8.9058 19.6921C9.56218 19.0357 10.4524 18.667 11.3807 18.667H18.3807C19.3089 18.667 20.1992 19.0357 20.8555 19.6921C21.4345 20.2711 21.7897 21.0319 21.8654 21.8404C24.0224 19.9173 25.3807 17.1174 25.3807 14.0003C25.3807 8.20133 20.6797 3.50033 14.8807 3.50033ZM19.5473 23.4089V22.167C19.5473 21.8576 19.4244 21.5608 19.2056 21.342C18.9868 21.1232 18.6901 21.0003 18.3807 21.0003H11.3807C11.0713 21.0003 10.7745 21.1232 10.5557 21.342C10.3369 21.5608 10.214 21.8576 10.214 22.167V23.4089C11.6198 24.1075 13.2044 24.5003 14.8807 24.5003C16.557 24.5003 18.1416 24.1075 19.5473 23.4089ZM2.04736 14.0003C2.04736 6.91267 7.79304 1.16699 14.8807 1.16699C21.9683 1.16699 27.714 6.91267 27.714 14.0003C27.714 21.088 21.9683 26.8337 14.8807 26.8337C7.79304 26.8337 2.04736 21.088 2.04736 14.0003ZM14.8807 9.33358C13.592 9.33358 12.5474 10.3782 12.5474 11.6669C12.5474 12.9556 13.592 14.0002 14.8807 14.0002C16.1694 14.0002 17.214 12.9556 17.214 11.6669C17.214 10.3782 16.1694 9.33358 14.8807 9.33358ZM10.214 11.6669C10.214 9.08958 12.3034 7.00024 14.8807 7.00024C17.458 7.00024 19.5474 9.08958 19.5474 11.6669C19.5474 14.2442 17.458 16.3336 14.8807 16.3336C12.3034 16.3336 10.214 14.2442 10.214 11.6669Z" fill="url(#paint0_linear_470_20771)"/>
<defs>
<linearGradient id="paint0_linear_470_20771" x1="32.9173" y1="-0.793981" x2="-2.459" y2="30.1007" gradientUnits="userSpaceOnUse">
<stop stop-color="#1F7AFF"/>
<stop offset="1" stop-color="#C9E1FF"/>
</linearGradient>
</defs>
</svg>
