<svg width="28" height="28" viewBox="0 0 28 28" fill="none" xmlns="http://www.w3.org/2000/svg">
<path fill-rule="evenodd" clip-rule="evenodd" d="M3.51644 4.68262C3.51644 4.03828 4.03877 3.51595 4.68311 3.51595H21.0164C21.6608 3.51595 22.1831 4.03829 22.1831 4.68262V6.04947C21.8119 5.91821 21.4177 5.8493 21.0164 5.8493H4.68311C4.28184 5.8493 3.88768 5.91821 3.51644 6.04947V4.68262ZM3.51644 9.3493C3.51644 9.03988 3.63935 8.74314 3.85815 8.52435C4.07694 8.30555 4.37369 8.18264 4.68311 8.18264H21.0164C21.3259 8.18264 21.6226 8.30555 21.8414 8.52435C22.0602 8.74314 22.1831 9.03989 22.1831 9.3493L22.1831 9.35144V10.5159H19.9664C18.7018 10.5159 17.5052 11.1171 16.7363 11.8635L15.4943 12.8796C15.4643 12.9042 15.4356 12.9302 15.4081 12.9576C13.9971 14.3687 11.8191 14.3687 10.4081 12.9576C10.3806 12.9302 10.3519 12.9042 10.3219 12.8796L9.11667 11.8936C8.26418 10.9355 7.0105 10.5159 5.84977 10.5159H3.51644V9.3493ZM22.1831 12.8493V12.8493H19.9664C19.3892 12.8493 18.7413 13.1576 18.3414 13.5576C18.314 13.585 18.2852 13.611 18.2552 13.6355L17.0146 14.6506C14.7049 16.9155 11.1113 16.9155 8.80162 14.6506L7.56099 13.6355C7.50367 13.5886 7.45093 13.5364 7.40351 13.4795C7.08962 13.1028 6.51914 12.8493 5.84977 12.8493H3.51644V21.0159C3.51644 21.6603 4.03877 22.1826 4.68311 22.1826H12.3498C12.9941 22.1826 13.5164 22.705 13.5164 23.3493C13.5164 23.9936 12.9941 24.5159 12.3498 24.5159H4.68311C2.75011 24.5159 1.18311 22.9489 1.18311 21.0159V11.6826V9.3493V4.68262C1.18311 2.74962 2.75011 1.18262 4.68311 1.18262H21.0164C22.9494 1.18262 24.5164 2.74962 24.5164 4.68262V9.3493V11.6826V12.8493C24.5164 13.4936 23.9941 14.016 23.3498 14.016C22.7054 14.016 22.1831 13.4936 22.1831 12.8493ZM23.3356 15.9094C23.9469 16.1132 24.2772 16.7739 24.0735 17.3852L24.0278 17.5222C24.4008 17.7864 24.7334 18.1041 25.0143 18.464L25.2168 18.383C25.815 18.1437 26.494 18.4347 26.7333 19.0329C26.9726 19.6312 26.6816 20.3102 26.0833 20.5495L25.9437 20.6053C25.9808 20.8424 26 21.0854 26 21.3329C26 21.5056 25.9907 21.6761 25.9724 21.8439L26.019 21.8594C26.6302 22.0632 26.9606 22.7239 26.7568 23.3351C26.5531 23.9464 25.8924 24.2768 25.2811 24.073L25.144 24.0273C24.8798 24.4003 24.5622 24.7329 24.2023 25.0138L24.2833 25.2163C24.5226 25.8145 24.2316 26.4935 23.6333 26.7328C23.0351 26.9721 22.3561 26.6811 22.1168 26.0829L22.061 25.9432C21.8239 25.9803 21.5809 25.9995 21.3334 25.9995C21.1607 25.9995 20.9902 25.9902 20.8223 25.9719L20.8068 26.0185C20.603 26.6297 19.9423 26.9601 19.3311 26.7563C18.7198 26.5526 18.3895 25.8919 18.5932 25.2806L18.6389 25.1435C18.2659 24.8793 17.9334 24.5617 17.6525 24.2018L17.45 24.2828C16.8518 24.5221 16.1728 24.2311 15.9335 23.6329C15.6942 23.0346 15.9852 22.3556 16.5834 22.1163L16.7231 22.0605C16.686 21.8234 16.6667 21.5804 16.6667 21.3329C16.6667 21.1602 16.6761 20.9897 16.6944 20.8218L16.6478 20.8063C16.0365 20.6026 15.7062 19.9419 15.9099 19.3306C16.1137 18.7193 16.7744 18.389 17.3856 18.5927L17.5227 18.6384C17.7869 18.2654 18.1046 17.9328 18.4645 17.6519L18.3835 17.4495C18.1442 16.8513 18.4352 16.1723 19.0334 15.933C19.6317 15.6937 20.3106 15.9847 20.5499 16.5829L20.6058 16.7226C20.8429 16.6855 21.0859 16.6662 21.3334 16.6662C21.5061 16.6662 21.6765 16.6756 21.8444 16.6939L21.8599 16.6473C22.0636 16.036 22.7244 15.7057 23.3356 15.9094ZM23.3333 20.1302C22.925 19.4527 22.1821 18.9995 21.3334 18.9995C21.0977 18.9995 20.8701 19.0345 20.6557 19.0995C20.5699 19.167 20.4732 19.2235 20.3667 19.2661C20.289 19.2972 20.2099 19.3193 20.1306 19.333C19.4531 19.7413 19 20.4842 19 21.3329C19 21.5686 19.035 21.7962 19.1 22.0107C19.1675 22.0964 19.224 22.1931 19.2666 22.2996C19.2977 22.3773 19.3198 22.4563 19.3335 22.5356C19.7418 23.2131 20.4847 23.6662 21.3334 23.6662C21.5691 23.6662 21.7967 23.6312 22.0112 23.5662C22.097 23.4987 22.1937 23.4423 22.3001 23.3997C22.3778 23.3686 22.4568 23.3465 22.536 23.3328C23.2136 22.9245 23.6667 22.1816 23.6667 21.3329C23.6667 21.0972 23.6317 20.8696 23.5667 20.6551C23.4992 20.5694 23.4427 20.4726 23.4002 20.3662C23.3691 20.2885 23.347 20.2095 23.3333 20.1302Z" fill="url(#paint0_linear_470_20797)"/>
<defs>
<linearGradient id="paint0_linear_470_20797" x1="32.0137" y1="-0.775855" x2="-3.31751" y2="30.0794" gradientUnits="userSpaceOnUse">
<stop stop-color="#1F7AFF"/>
<stop offset="1" stop-color="#C9E1FF"/>
</linearGradient>
</defs>
</svg>
