<svg width="29" height="28" viewBox="0 0 29 28" fill="none" xmlns="http://www.w3.org/2000/svg">
<path fill-rule="evenodd" clip-rule="evenodd" d="M23.0474 4.66699C21.8169 4.66699 20.751 5.23278 20.005 5.82267C19.6313 6.11813 19.3088 6.44188 19.0541 6.75537C16.7739 6.08935 13.7791 6.14773 11.2287 7.00246C8.59422 7.88538 6.13567 9.74583 5.63852 12.8336H5.54736C4.90836 12.8336 4.3807 12.306 4.3807 11.667V10.5003C4.3807 9.85595 3.85836 9.33362 3.21403 9.33362C2.5697 9.33362 2.04736 9.85595 2.04736 10.5003V11.667C2.04736 13.5946 3.6197 15.167 5.54736 15.167H5.56342C5.5927 15.8201 5.67488 16.4875 5.90483 17.1428C6.2448 18.1118 6.86774 18.9678 7.8807 19.8147V23.3337C7.8807 23.978 8.40303 24.5003 9.04736 24.5003H13.714C14.3584 24.5003 14.8807 23.978 14.8807 23.3337V22.167H16.0474V23.3337C16.0474 23.978 16.5697 24.5003 17.214 24.5003H21.8807C22.525 24.5003 23.0474 23.978 23.0474 23.3337V19.366C23.8163 18.9213 24.5205 18.3617 24.9881 17.5003H26.5474C27.1917 17.5003 27.714 16.978 27.714 16.3337V11.667C27.714 11.0227 27.1917 10.5003 26.5474 10.5003H25.2144C24.9939 9.77491 24.5886 9.25698 24.214 8.85742V5.83366C24.214 5.18933 23.6917 4.66699 23.0474 4.66699ZM12.5474 21.0003V22.167H10.214V19.2503C10.214 18.8831 10.0411 18.5373 9.74736 18.317C8.70662 17.5364 8.30052 16.9231 8.10656 16.3703C7.89264 15.7606 7.8807 15.0947 7.8807 14.0003C7.8807 11.6103 9.52541 10.0342 11.9702 9.21486C14.4418 8.38652 17.3502 8.49464 19.0878 9.23933C19.3877 9.36785 19.7277 9.36493 20.0253 9.23127C20.3229 9.09762 20.551 8.84544 20.6542 8.53592C20.6535 8.53792 20.654 8.53686 20.6561 8.53283C20.6668 8.51159 20.7192 8.40797 20.8557 8.23831C21.0031 8.05505 21.207 7.84691 21.4522 7.65298C21.5913 7.54298 21.7349 7.4443 21.8807 7.35898V9.33366C21.8807 9.64308 22.0036 9.93982 22.2224 10.1586C22.7935 10.7297 23.0474 11.0133 23.0474 11.667C23.0474 12.3113 23.5697 12.8337 24.214 12.8337H25.3807V15.167H24.214C23.6988 15.167 23.2446 15.5049 23.0966 15.9984C22.8908 16.6844 22.4533 17.0763 21.3589 17.6235C20.9637 17.8211 20.714 18.2251 20.714 18.667V22.167H18.3807V21.0003C18.3807 20.356 17.8584 19.8337 17.214 19.8337H13.714C13.0697 19.8337 12.5474 20.356 12.5474 21.0003Z" fill="url(#paint0_linear_470_20715)"/>
<path fill-rule="evenodd" clip-rule="evenodd" d="M18.8809 13.1667C18.8809 12.5223 19.4032 12 20.0475 12H20.0592C20.7035 12 21.2259 12.5223 21.2259 13.1667C21.2259 13.811 20.7035 14.3333 20.0592 14.3333H20.0475C19.4032 14.3333 18.8809 13.811 18.8809 13.1667Z" fill="url(#paint1_linear_470_20715)"/>
<defs>
<linearGradient id="paint0_linear_470_20715" x1="32.9173" y1="3.15169" x2="5.53516" y2="34.0982" gradientUnits="userSpaceOnUse">
<stop stop-color="#1F7AFF"/>
<stop offset="1" stop-color="#C9E1FF"/>
</linearGradient>
<linearGradient id="paint1_linear_470_20715" x1="21.7013" y1="11.8217" x2="18.4831" y2="14.6462" gradientUnits="userSpaceOnUse">
<stop stop-color="#1F7AFF"/>
<stop offset="1" stop-color="#C9E1FF"/>
</linearGradient>
</defs>
</svg>
