<svg xmlns="http://www.w3.org/2000/svg" width="130" height="38" viewBox="0 0 130 38" fill="none">
<path d="M0 8.44444C0 3.78071 3.78071 0 8.44444 0H29.5556C34.2193 0 38 3.78071 38 8.44444V29.5556C38 34.2193 34.2193 38 29.5556 38H8.44444C3.78071 38 0 34.2193 0 29.5556V8.44444Z" fill="#7331FF"/>
<path fill-rule="evenodd" clip-rule="evenodd" d="M8.44434 8.44446V21.4733C8.44434 22.5931 8.88918 23.6671 9.681 24.4589L13.541 28.3189C14.3328 29.1107 15.4068 29.5556 16.5266 29.5556H29.5554V21.1111H16.8888V8.44446H8.44434Z" fill="white"/>
<path fill-rule="evenodd" clip-rule="evenodd" d="M52 11V26.6862H54.7604V11H52ZM59.1381 26.3277C59.9998 26.7759 60.9711 27 62.0518 27C63.1326 27 64.1039 26.7759 64.9656 26.3277C65.8273 25.8796 66.5065 25.2297 67.0031 24.3781C67.4996 23.5266 67.7479 22.5032 67.7479 21.3081V20.9496C67.7479 19.7544 67.4996 18.7311 67.0031 17.8796C66.5065 17.028 65.8273 16.3781 64.9656 15.93C64.1039 15.4818 63.1326 15.2577 62.0518 15.2577C60.9711 15.2577 59.9998 15.4818 59.1381 15.93C58.2764 16.3781 57.5973 17.028 57.1007 17.8796C56.6041 18.7311 56.3558 19.7544 56.3558 20.9496V21.3081C56.3558 22.5032 56.6041 23.5266 57.1007 24.3781C57.5973 25.2297 58.2764 25.8796 59.1381 26.3277ZM64.155 23.6611C63.6 24.2138 62.899 24.4262 62.0518 24.4262C61.2048 24.4262 60.5037 24.2138 59.9487 23.6611C59.3937 23.0934 59.1162 22.2866 59.1162 21.2409V21.0168C59.1162 19.9711 59.3937 19.1718 59.9487 18.6191C60.5037 18.0514 61.2048 17.8315 62.0518 17.8315C62.9136 17.8315 63.6146 18.0514 64.155 18.6191C64.71 19.1718 64.9875 19.9711 64.9875 21.0168V21.2409C64.9875 22.2866 64.71 23.0934 64.155 23.6611ZM74.5898 27C73.5091 27 72.5378 26.7759 71.6761 26.3277C70.8144 25.8796 70.1353 25.2297 69.6387 24.3781C69.1421 23.5266 68.8938 22.5032 68.8938 21.3081V20.9496C68.8938 19.7544 69.1421 18.7311 69.6387 17.8796C70.1353 17.028 70.8144 16.3781 71.6761 15.93C72.5378 15.4818 73.5091 15.2577 74.5898 15.2577C75.6706 15.2577 76.6419 15.4818 77.5036 15.93C78.3653 16.3781 79.0445 17.028 79.5411 17.8796C80.0376 18.7311 80.2859 19.7544 80.2859 20.9496V21.3081C80.2859 22.5032 80.0376 23.5266 79.5411 24.3781C79.0445 25.2297 78.3653 25.8796 77.5036 26.3277C76.6419 26.7759 75.6706 27 74.5898 27ZM74.5898 24.4262C75.437 24.4262 76.138 24.2138 76.693 23.6611C77.248 23.0934 77.5255 22.2866 77.5255 21.2409V21.0168C77.5255 19.9711 77.248 19.1718 76.693 18.6191C76.1526 18.0514 75.4516 17.8315 74.5898 17.8315C73.7427 17.8315 73.0417 18.0514 72.4867 18.6191C71.9317 19.1718 71.6542 19.9711 71.6542 21.0168V21.2409C71.6542 22.2866 71.9317 23.0934 72.4867 23.6611C73.0417 24.2138 73.7427 24.4262 74.5898 24.4262ZM82.4081 26.014C82.8609 26.4622 83.4451 26.6862 84.1608 26.6862H87.2279V24.12H85.1392C84.7302 24.12 84.5255 23.8641 84.5255 23.416V17.912H87.4712V15.544H84.5255V12.472H81.7639V24.184C81.7639 24.9459 81.97 25.5509 82.4081 26.014ZM120.12 11H122.697V15.544H124.784C125.767 15.5482 126.651 15.7534 127.437 16.1596C128.231 16.5699 128.856 17.165 129.314 17.9448C129.771 18.7244 130 19.6615 130 20.7559V20.9199V26.6799H127.361V20.9199V20.7919C127.361 19.8344 127.202 19.1212 126.69 18.6013C126.186 18.1018 125.55 17.8546 124.784 17.848H123.249C122.944 17.848 122.697 18.1059 122.697 18.424V26.68H120.12V17.848V15.544V11ZM114.06 27C112.643 27 111.482 26.6862 110.576 26.0588C109.671 25.4314 109.123 24.535 108.933 23.3698L111.475 22.6975C111.577 23.2204 111.745 23.6312 111.979 23.93C112.227 24.2287 112.526 24.4454 112.877 24.5798C113.242 24.6994 113.636 24.7591 114.06 24.7591C114.702 24.7591 115.177 24.6471 115.484 24.4229C115.791 24.1839 115.944 23.8926 115.944 23.549C115.944 23.2054 115.798 22.944 115.506 22.7647C115.214 22.5705 114.746 22.4136 114.104 22.2941L113.49 22.1821C112.731 22.0327 112.037 21.831 111.409 21.577C110.781 21.3081 110.277 20.9421 109.897 20.479C109.518 20.0159 109.328 19.4183 109.328 18.6862C109.328 17.5807 109.722 16.7367 110.511 16.1541C111.299 15.5565 112.336 15.2577 113.622 15.2577C114.834 15.2577 115.842 15.5341 116.645 16.0868C117.448 16.6396 117.974 17.3641 118.222 18.2605L115.659 19.0672C115.542 18.4996 115.301 18.0962 114.936 17.8571C114.586 17.6181 114.147 17.4986 113.622 17.4986C113.096 17.4986 112.694 17.5957 112.417 17.7899C112.139 17.9692 112 18.2231 112 18.5518C112 18.9104 112.147 19.1792 112.439 19.3586C112.731 19.5229 113.125 19.6499 113.622 19.7395L114.235 19.8516C115.053 20.0009 115.791 20.2026 116.448 20.4566C117.12 20.6956 117.645 21.0467 118.025 21.5098C118.419 21.958 118.617 22.5705 118.617 23.3473C118.617 24.5126 118.2 25.4164 117.368 26.0588C116.55 26.6862 115.447 27 114.06 27ZM95.5721 15.544H92.0741C90.8539 15.544 89.8648 16.5756 89.8648 17.848V26.68H92.6264V18.68C92.6264 18.3619 92.8737 18.104 93.1787 18.104H95.5721V15.544ZM96.9836 15.544H99.6224V21.176V21.304C99.6224 22.2616 99.782 22.9747 100.293 23.4946C100.805 24.0007 101.45 24.2538 102.231 24.2538C103.011 24.2538 103.657 24.0007 104.168 23.4946C104.679 22.9747 104.9 22.2616 104.9 21.304V21.176V15.544H107.478V21.304V21.4681C107.478 22.5624 107.249 23.4995 106.792 24.2792C106.334 25.0589 105.708 25.654 104.915 26.0644C104.121 26.4747 103.226 26.6799 102.231 26.6799C101.235 26.6799 100.34 26.4747 99.5466 26.0644C98.7528 25.654 98.1272 25.0589 97.6697 24.2792C97.2123 23.4995 96.9836 22.5624 96.9836 21.4681V21.304V15.544Z" fill="white"/>
</svg>