<svg width="28" height="28" viewBox="0 0 28 28" fill="none" xmlns="http://www.w3.org/2000/svg">
<path fill-rule="evenodd" clip-rule="evenodd" d="M5.83333 4.66658C5.189 4.66658 4.66666 5.18892 4.66666 5.83325V7.20011C5.0379 7.06885 5.43206 6.99994 5.83333 6.99994H22.1667C22.5679 6.99994 22.9621 7.06885 23.3333 7.20011V5.83325C23.3333 5.18892 22.811 4.66658 22.1667 4.66658H5.83333ZM5.00837 9.67498C4.78958 9.89377 4.66666 10.1905 4.66666 10.4999V11.6666H6.99999C8.16072 11.6666 9.4144 12.0862 10.2669 13.0442L11.4721 14.0303C11.5021 14.0548 11.5309 14.0809 11.5583 14.1083C12.9693 15.5193 15.1473 15.5193 16.5584 14.1083C16.5858 14.0809 16.6145 14.0548 16.6446 14.0303L17.8865 13.0142C18.6554 12.2677 19.8521 11.6666 21.1167 11.6666H23.3333V10.4999C23.3333 10.1905 23.2104 9.89377 22.9916 9.67498C22.7728 9.45619 22.4761 9.33327 22.1667 9.33327H5.83333C5.52391 9.33327 5.22716 9.45619 5.00837 9.67498ZM23.3333 13.9999H21.1167C20.5394 13.9999 19.8915 14.3083 19.4916 14.7082C19.4642 14.7356 19.4354 14.7616 19.4054 14.7862L18.1648 15.8012C15.8551 18.0661 12.2615 18.0661 9.95184 15.8012L8.71122 14.7862C8.65389 14.7393 8.60116 14.687 8.55374 14.6301C8.23984 14.2534 7.66937 13.9999 6.99999 13.9999H4.66666V22.1666C4.66666 22.8109 5.189 23.3333 5.83333 23.3333H22.1667C22.811 23.3333 23.3333 22.8109 23.3333 22.1666V13.9999ZM2.33333 12.8332V22.1666C2.33333 24.0996 3.90033 25.6666 5.83333 25.6666H22.1667C24.0997 25.6666 25.6667 24.0996 25.6667 22.1666V12.8332V10.4999V5.83325C25.6667 3.90026 24.0997 2.33325 22.1667 2.33325H5.83333C3.90033 2.33325 2.33333 3.90026 2.33333 5.83325V10.4999V12.8332Z" fill="url(#paint0_linear_129_168)"/>
<defs>
<linearGradient id="paint0_linear_129_168" x1="24.0003" y1="-8.73764" x2="-10.4052" y2="43.0466" gradientUnits="userSpaceOnUse">
<stop stop-color="white"/>
<stop offset="1" stop-color="white" stop-opacity="0"/>
</linearGradient>
</defs>
</svg>
