<svg width="28" height="28" viewBox="0 0 28 28" fill="none" xmlns="http://www.w3.org/2000/svg">
<path fill-rule="evenodd" clip-rule="evenodd" d="M2.19179 4.52513C2.84817 3.86875 3.73841 3.5 4.66667 3.5H23.3333C24.2616 3.5 25.1518 3.86875 25.8082 4.52513C26.4646 5.1815 26.8333 6.07174 26.8333 7V8.14705C26.8335 8.1594 26.8335 8.17175 26.8333 8.18408V15.1667C26.8333 15.811 26.311 16.3333 25.6667 16.3333C25.0223 16.3333 24.5 15.811 24.5 15.1667V10.2903L15.8274 15.8013L15.8211 15.8053L15.8211 15.8053C15.2752 16.1473 14.6441 16.3287 14 16.3287C13.3559 16.3287 12.7248 16.1473 12.1789 15.8053L12.1726 15.8014L12.1726 15.8013L3.5 10.2903V21C3.5 21.639 4.02767 22.1667 4.66667 22.1667H14C14.6443 22.1667 15.1667 22.689 15.1667 23.3333C15.1667 23.9777 14.6443 24.5 14 24.5H4.66667C2.739 24.5 1.16667 22.9277 1.16667 21V8.18415C1.16647 8.17177 1.16647 8.15938 1.16667 8.14698V7C1.16667 6.07174 1.53542 5.1815 2.19179 4.52513ZM24.5 7V7.52574L14.5823 13.828L14.5797 13.8296C14.4058 13.9379 14.2049 13.9953 14 13.9953C13.7951 13.9953 13.5943 13.9379 13.4204 13.8296L3.5 7.52574V7C3.5 6.69058 3.62292 6.39383 3.84171 6.17504C4.0605 5.95625 4.35725 5.83333 4.66667 5.83333H23.3333C23.6428 5.83333 23.9395 5.95625 24.1583 6.17504C24.3771 6.39383 24.5 6.69058 24.5 7ZM26.4916 20.6584C26.9472 20.2028 26.9472 19.4641 26.4916 19.0085C26.036 18.5528 25.2973 18.5528 24.8417 19.0085L21 22.8502L19.4916 21.3418C19.036 20.8862 18.2973 20.8862 17.8417 21.3418C17.3861 21.7974 17.3861 22.5361 17.8417 22.9917L20.175 25.325C20.6307 25.7807 21.3693 25.7807 21.825 25.325L26.4916 20.6584Z" fill="url(#paint0_linear_129_188)"/>
<defs>
<linearGradient id="paint0_linear_129_188" x1="25.0004" y1="-7.01739" x2="-5.60994" y2="46.3299" gradientUnits="userSpaceOnUse">
<stop stop-color="white"/>
<stop offset="1" stop-color="white" stop-opacity="0"/>
</linearGradient>
</defs>
</svg>
