<svg width="28" height="29" viewBox="0 0 28 29" fill="none" xmlns="http://www.w3.org/2000/svg">
<path fill-rule="evenodd" clip-rule="evenodd" d="M22.1666 5.60474C20.9362 5.60474 19.8703 6.17053 19.1243 6.76042C18.7506 7.05587 18.4281 7.37962 18.1734 7.69312C15.8931 7.0271 12.8984 7.08548 10.348 7.94021C7.7135 8.82312 5.25495 10.6836 4.7578 13.7714H4.66664C4.02764 13.7714 3.49997 13.2437 3.49997 12.6047V11.438C3.49997 10.7937 2.97764 10.2714 2.33331 10.2714C1.68898 10.2714 1.16664 10.7937 1.16664 11.438V12.6047C1.16664 14.5324 2.73898 16.1047 4.66664 16.1047H4.6827C4.71198 16.7578 4.79416 17.4252 5.02411 18.0806C5.36408 19.0495 5.98702 19.9055 6.99997 20.7524V24.2714C6.99997 24.9157 7.52231 25.4381 8.16664 25.4381H12.8333C13.4776 25.4381 14 24.9157 14 24.2714V23.1047H15.1666V24.2714C15.1666 24.9157 15.689 25.4381 16.3333 25.4381H21C21.6443 25.4381 22.1666 24.9157 22.1666 24.2714V20.3038C22.9356 19.859 23.6398 19.2995 24.1074 18.4381H25.6666C26.311 18.4381 26.8333 17.9157 26.8333 17.2714V12.6047C26.8333 11.9604 26.311 11.4381 25.6666 11.4381H24.3337C24.1131 10.7127 23.7079 10.1947 23.3333 9.79517V6.7714C23.3333 6.12707 22.811 5.60474 22.1666 5.60474ZM11.6666 21.9381V23.1047H9.33331V20.1881C9.33331 19.8209 9.16041 19.4751 8.86664 19.2547C7.8259 18.4742 7.4198 17.8608 7.22584 17.3081C7.01192 16.6984 6.99997 16.0324 6.99997 14.9381C6.99997 12.548 8.64469 10.9719 11.0894 10.1526C13.5611 9.32426 16.4695 9.43238 18.2071 10.1771C18.5069 10.3056 18.8469 10.3027 19.1446 10.169C19.4422 10.0354 19.6703 9.78319 19.7734 9.47367C19.7728 9.47567 19.7733 9.4746 19.7753 9.47058C19.7861 9.44934 19.8385 9.34572 19.9749 9.17606C20.1224 8.99279 20.3262 8.78465 20.5715 8.59072C20.7106 8.48073 20.8542 8.38204 21 8.29672V10.2714C21 10.5808 21.1229 10.8776 21.3417 11.0964C21.9128 11.6674 22.1666 11.951 22.1666 12.6047C22.1666 13.2491 22.689 13.7714 23.3333 13.7714H24.5V16.1047H23.3333C22.8181 16.1047 22.3639 16.4427 22.2158 16.9362C22.01 17.6222 21.5726 18.014 20.4782 18.5612C20.083 18.7589 19.8333 19.1628 19.8333 19.6047V23.1047H17.5V21.9381C17.5 21.2937 16.9776 20.7714 16.3333 20.7714H12.8333C12.189 20.7714 11.6666 21.2937 11.6666 21.9381Z" fill="url(#paint0_linear_129_173)"/>
<path fill-rule="evenodd" clip-rule="evenodd" d="M18 14.1047C18 13.4603 18.5223 12.938 19.1667 12.938H19.1783C19.8227 12.938 20.345 13.4603 20.345 14.1047C20.345 14.749 19.8227 15.2713 19.1783 15.2713H19.1667C18.5223 15.2713 18 14.749 18 14.1047Z" fill="url(#paint1_linear_129_173)"/>
<defs>
<linearGradient id="paint0_linear_129_173" x1="25.0003" y1="-3.80552" x2="-0.77849" y2="46.4064" gradientUnits="userSpaceOnUse">
<stop stop-color="white"/>
<stop offset="1" stop-color="white" stop-opacity="0"/>
</linearGradient>
<linearGradient id="paint1_linear_129_173" x1="20.1775" y1="11.8309" x2="16.7437" y2="17.0251" gradientUnits="userSpaceOnUse">
<stop stop-color="white"/>
<stop offset="1" stop-color="white" stop-opacity="0"/>
</linearGradient>
</defs>
</svg>
