<svg width="29" height="28" viewBox="0 0 29 28" fill="none" xmlns="http://www.w3.org/2000/svg">
<path fill-rule="evenodd" clip-rule="evenodd" d="M9.10211 1.16455C8.05033 1.16455 7.04134 1.58106 6.29582 2.32298L6.29382 2.32497L3.26049 5.3583L3.2585 5.36031C2.51657 6.10583 2.10007 7.11481 2.10007 8.1666C2.10007 9.21838 2.51657 10.2274 3.25849 10.9729L3.26049 10.9749L7.45216 15.1666L4.19379 18.4249C4.05023 18.5685 3.94661 18.747 3.89319 18.9429L2.14319 25.3596C2.03303 25.7635 2.14775 26.1955 2.44379 26.4915C2.73983 26.7876 3.1718 26.9023 3.57572 26.7921L9.99238 25.0421C10.1883 24.9887 10.3668 24.8851 10.5104 24.7415L13.7687 21.4831L17.9605 25.6749C19.5127 27.2271 22.0248 27.2271 23.577 25.6749L26.6104 22.6415C28.1627 21.0892 28.1627 18.5772 26.6104 17.0249L25.0979 15.5124C25.0965 15.511 25.0951 15.5097 25.0937 15.5083C25.0923 15.5069 25.091 15.5055 25.0896 15.5041L22.4187 12.8332L23.9224 11.3295L23.9271 11.3249L23.9317 11.3202L26.4587 8.79319C27.2963 7.95555 27.7669 6.81948 27.7669 5.63489C27.7669 4.45031 27.2963 3.31423 26.4587 2.4766C25.6211 1.63897 24.485 1.1684 23.3004 1.1684C22.1158 1.1684 20.9798 1.63897 20.1421 2.4766L17.6105 5.00827L16.1021 6.51665L11.9104 2.32497L11.9084 2.32298C11.1629 1.58106 10.1539 1.16455 9.10211 1.16455ZM19.9438 12.0083L21.4522 10.4999L18.4354 7.48313L16.9348 8.98374L16.9271 8.99156L16.9193 8.9993L9.93481 15.9838L9.92707 15.9916L9.91927 15.9993L6.06279 19.8558L4.9315 24.0038L9.07954 22.8725L12.9438 19.0083L19.9438 12.0083ZM15.4187 19.8332L20.7687 14.4831L22.6188 16.3332L21.1105 17.8416C20.6549 18.2972 20.6549 19.0359 21.1105 19.4915C21.5661 19.9471 22.3048 19.9471 22.7604 19.4915L24.2688 17.9832L24.9605 18.6749C25.6015 19.3159 25.6015 20.3506 24.9605 20.9916L21.9271 24.0249C21.2861 24.666 20.2514 24.666 19.6104 24.0249L15.4187 19.8332ZM14.4522 8.16656L12.6021 6.3165L11.0937 7.8249C10.6381 8.28051 9.8994 8.28051 9.44379 7.8249C8.98818 7.36928 8.98818 6.63059 9.44379 6.17498L10.9522 4.66658L10.2625 3.97688L10.2616 3.97596C9.95338 3.66976 9.53658 3.49788 9.10211 3.49788C8.66762 3.49788 8.25078 3.66979 7.9426 3.97603L7.94174 3.97688L4.9124 7.00623L4.91155 7.00708C4.6053 7.31526 4.4334 7.7321 4.4334 8.1666C4.4334 8.60106 4.60527 9.01786 4.91147 9.32604L4.9124 9.32697L9.10208 13.5166L14.4522 8.16656ZM23.1021 8.84997L24.8088 7.14327C25.2088 6.74322 25.4336 6.20065 25.4336 5.63489C25.4336 5.06914 25.2088 4.52656 24.8088 4.12652C24.4087 3.72647 23.8662 3.50173 23.3004 3.50173C22.7347 3.50173 22.1921 3.72647 21.792 4.12652L20.0853 5.83322L23.1021 8.84997Z" fill="url(#paint0_linear_129_241)"/>
<defs>
<linearGradient id="paint0_linear_129_241" x1="25.941" y1="-11.0172" x2="-11.9165" y2="45.963" gradientUnits="userSpaceOnUse">
<stop stop-color="white"/>
<stop offset="1" stop-color="white" stop-opacity="0"/>
</linearGradient>
</defs>
</svg>
