<svg width="28" height="29" viewBox="0 0 28 29" fill="none" xmlns="http://www.w3.org/2000/svg">
<path fill-rule="evenodd" clip-rule="evenodd" d="M4.66666 6.70923C4.66666 6.07023 5.19433 5.54256 5.83333 5.54256H8.16666C8.81099 5.54256 9.33333 5.02023 9.33333 4.3759C9.33333 3.73156 8.81099 3.20923 8.16666 3.20923H5.83333C3.90566 3.20923 2.33333 4.78156 2.33333 6.70923V9.04256C2.33333 9.68689 2.85566 10.2092 3.49999 10.2092C4.14433 10.2092 4.66666 9.68689 4.66666 9.04256V6.70923ZM19.8333 3.20923C19.189 3.20923 18.6667 3.73156 18.6667 4.3759C18.6667 5.02023 19.189 5.54256 19.8333 5.54256H22.1667C22.8057 5.54256 23.3333 6.07023 23.3333 6.70923V9.04256C23.3333 9.68689 23.8557 10.2092 24.5 10.2092C25.1443 10.2092 25.6667 9.68689 25.6667 9.04256V6.70923C25.6667 4.78156 24.0943 3.20923 22.1667 3.20923H19.8333ZM24.5 19.5425C25.1443 19.5425 25.6667 20.0649 25.6667 20.7092V23.0425C25.6667 24.9702 24.0943 26.5425 22.1667 26.5425H19.8333C19.189 26.5425 18.6667 26.0202 18.6667 25.3759C18.6667 24.7315 19.189 24.2092 19.8333 24.2092H22.1667C22.8057 24.2092 23.3333 23.6815 23.3333 23.0425V20.7092C23.3333 20.0649 23.8557 19.5425 24.5 19.5425ZM4.66666 20.7092C4.66666 20.0649 4.14433 19.5425 3.49999 19.5425C2.85566 19.5425 2.33333 20.0649 2.33333 20.7092V23.0425C2.33333 24.9702 3.90566 26.5425 5.83333 26.5425H8.16666C8.81099 26.5425 9.33333 26.0202 9.33333 25.3759C9.33333 24.7315 8.81099 24.2092 8.16666 24.2092H5.83333C5.19433 24.2092 4.66666 23.6815 4.66666 23.0425V20.7092ZM6.99999 10.2092C6.99999 8.92058 8.04466 7.87592 9.33333 7.87592H15.1667C16.4553 7.87592 17.5 8.92058 17.5 10.2092V13.7092H18.6667C19.9553 13.7092 21 14.7539 21 16.0426V19.5426C21 20.8312 19.9553 21.8759 18.6667 21.8759H12.8333C11.5447 21.8759 10.5 20.8312 10.5 19.5426V16.0426H9.33333C8.04466 16.0426 6.99999 14.9979 6.99999 13.7092V10.2092ZM15.1667 13.7092H12.8333C12.83 13.7092 12.8267 13.7092 12.8233 13.7092H9.33333V10.2092H15.1667V13.7092ZM12.8333 16.0426V19.5426H18.6667V16.0426H15.1764C15.1732 16.0426 15.1699 16.0426 15.1667 16.0426H12.8333Z" fill="url(#paint0_linear_129_180)"/>
<defs>
<linearGradient id="paint0_linear_129_180" x1="24.0003" y1="-7.86165" x2="-10.4051" y2="43.9226" gradientUnits="userSpaceOnUse">
<stop stop-color="white"/>
<stop offset="1" stop-color="white" stop-opacity="0"/>
</linearGradient>
</defs>
</svg>
