<svg width="29" height="29" viewBox="0 0 29 29" fill="none" xmlns="http://www.w3.org/2000/svg">
<path fill-rule="evenodd" clip-rule="evenodd" d="M14.4742 2.055C14.2101 1.95595 13.9191 1.95595 13.6549 2.055L4.32161 5.555C3.86626 5.72575 3.56459 6.16106 3.56459 6.64738V14.814C3.56459 18.8349 6.22663 22.0477 8.62967 24.1504C9.8557 25.2232 11.0762 26.0617 11.9879 26.6315C12.445 26.9172 12.8275 27.1372 13.0985 27.2872C13.2341 27.3623 13.3419 27.4199 13.4175 27.4596C13.4552 27.4794 13.485 27.4947 13.506 27.5055L13.5311 27.5183L13.5387 27.5221L13.5412 27.5234L13.5421 27.5238C13.5425 27.524 13.5428 27.5242 14.0646 26.4807L13.5428 27.5242C13.8713 27.6884 14.2579 27.6884 14.5863 27.5242L14.0646 26.4807C14.5863 27.5242 14.5867 27.524 14.5871 27.5238L14.588 27.5234L14.5905 27.5221L14.5981 27.5183L14.6231 27.5055C14.6442 27.4947 14.6739 27.4794 14.7117 27.4596C14.7873 27.4199 14.8951 27.3623 15.0307 27.2872C15.3016 27.1372 15.6842 26.9172 16.1413 26.6315C17.053 26.0617 18.2735 25.2232 19.4995 24.1504C21.9026 22.0477 24.5646 18.8349 24.5646 14.814V6.64738C24.5646 6.16106 24.2629 5.72575 23.8076 5.555L14.4742 2.055ZM14.9046 24.6528C14.5741 24.8594 14.2882 25.0272 14.0646 25.1539C13.841 25.0272 13.5551 24.8594 13.2246 24.6528C12.3863 24.1289 11.2735 23.3633 10.1662 22.3944C7.90255 20.4137 5.89792 17.7932 5.89792 14.814V7.45588L14.0646 4.39338L22.2313 7.45588V14.814C22.2313 17.7932 20.2266 20.4137 17.963 22.3944C16.8557 23.3633 15.7429 24.1289 14.9046 24.6528ZM18.3895 13.3057C18.8452 12.8501 18.8452 12.1114 18.3895 11.6558C17.9339 11.2002 17.1952 11.2002 16.7396 11.6558L12.8979 15.4975L11.3895 13.9891C10.9339 13.5335 10.1952 13.5335 9.73963 13.9891C9.28402 14.4447 9.28402 15.1834 9.73963 15.639L12.073 17.9724C12.5286 18.428 13.2673 18.428 13.7229 17.9724L18.3895 13.3057Z" fill="url(#paint0_linear_129_199)"/>
<defs>
<linearGradient id="paint0_linear_129_199" x1="23.0648" y1="-10.1973" x2="-17.1149" y2="39.2825" gradientUnits="userSpaceOnUse">
<stop stop-color="white"/>
<stop offset="1" stop-color="white" stop-opacity="0"/>
</linearGradient>
</defs>
</svg>
