<svg width="28" height="28" viewBox="0 0 28 28" fill="none" xmlns="http://www.w3.org/2000/svg">
<path fill-rule="evenodd" clip-rule="evenodd" d="M3.50004 8.16626C3.50004 7.52193 4.02237 6.99959 4.6667 6.99959H23.3334C23.9777 6.99959 24.5 7.52193 24.5 8.16626V10.5002H3.50004V8.16626ZM1.1667 11.6669V8.16626C1.1667 6.23326 2.73371 4.66626 4.6667 4.66626H23.3334C25.2664 4.66626 26.8334 6.23326 26.8334 8.16626V11.6669V19.8329C26.8334 21.7659 25.2664 23.3329 23.3334 23.3329H4.6667C2.73371 23.3329 1.1667 21.7659 1.1667 19.8329V11.6669ZM24.5 12.8336V19.8329C24.5 20.4773 23.9777 20.9996 23.3334 20.9996H4.6667C4.02237 20.9996 3.50004 20.4773 3.50004 19.8329V12.8336H24.5Z" fill="url(#paint0_linear_129_203)"/>
<defs>
<linearGradient id="paint0_linear_129_203" x1="25.0003" y1="-4.19045" x2="1.60798" y2="44.2209" gradientUnits="userSpaceOnUse">
<stop stop-color="white"/>
<stop offset="1" stop-color="white" stop-opacity="0"/>
</linearGradient>
</defs>
</svg>
