<svg width="28" height="28" viewBox="0 0 28 28" fill="none" xmlns="http://www.w3.org/2000/svg">
<path fill-rule="evenodd" clip-rule="evenodd" d="M6.55208 4.2188C6.82558 3.94531 7.19651 3.79167 7.58328 3.79167H10.2083V11.6667C10.2083 12.2565 10.5636 12.7883 11.1085 13.014C11.6535 13.2397 12.2807 13.1149 12.6978 12.6979L15.1666 10.2291L17.6354 12.6979C18.0525 13.1149 18.6798 13.2397 19.2247 13.014C19.7696 12.7883 20.1249 12.2565 20.1249 11.6667V3.79167H21.8749V18.375H7.58328C7.0817 18.375 6.589 18.4611 6.12495 18.6252V5.25C6.12495 4.86323 6.27859 4.49229 6.55208 4.2188ZM17.2083 3.79167V8.14594L16.1978 7.13547C15.6283 6.56595 14.7049 6.56595 14.1354 7.13547L13.1249 8.14594V3.79167H17.2083ZM18.6666 0.875H23.3333C24.1387 0.875 24.7916 1.52792 24.7916 2.33333V19.8333V25.6667C24.7916 26.4721 24.1387 27.125 23.3333 27.125H7.58328C6.42296 27.125 5.31016 26.6641 4.48969 25.8436C3.66922 25.0231 3.20828 23.9103 3.20828 22.75V5.25C3.20828 4.08968 3.66922 2.97688 4.48969 2.15641C5.31016 1.33594 6.42296 0.875 7.58328 0.875H11.6666H18.6666ZM7.58328 21.2917H21.8749V24.2083H7.58328C7.19651 24.2083 6.82558 24.0547 6.55208 23.7812C6.27859 23.5077 6.12495 23.1368 6.12495 22.75C6.12495 22.3632 6.27859 21.9923 6.55208 21.7188C6.82558 21.4453 7.19651 21.2917 7.58328 21.2917Z" fill="url(#paint0_linear_129_263)"/>
<defs>
<linearGradient id="paint0_linear_129_263" x1="23.2502" y1="-11.5798" x2="-17.8007" y2="39.2225" gradientUnits="userSpaceOnUse">
<stop stop-color="white"/>
<stop offset="1" stop-color="white" stop-opacity="0"/>
</linearGradient>
</defs>
</svg>
