<svg width="28" height="29" viewBox="0 0 28 29" fill="none" xmlns="http://www.w3.org/2000/svg">
<path fill-rule="evenodd" clip-rule="evenodd" d="M8.1666 1.56116C7.11481 1.56116 6.10583 1.97766 5.36031 2.71959L5.35831 2.72158L2.32497 5.75491L2.32298 5.75691C1.58106 6.50243 1.16455 7.51142 1.16455 8.5632C1.16455 9.61499 1.58106 10.624 2.32298 11.3695L2.32497 11.3715L6.51665 15.5632L3.25827 18.8215C3.11471 18.9651 3.01109 19.1437 2.95767 19.3395L1.20767 25.7562C1.09752 26.1601 1.21223 26.5921 1.50827 26.8881C1.80432 27.1842 2.23629 27.2989 2.6402 27.1887L9.05687 25.4387C9.25275 25.3853 9.43129 25.2817 9.57486 25.1381L12.8332 21.8797L17.0249 26.0715C18.5772 27.6237 21.0892 27.6237 22.6415 26.0715L25.6749 23.0381C27.2271 21.4859 27.2271 18.9738 25.6749 17.4215L24.1623 15.909C24.161 15.9076 24.1596 15.9063 24.1582 15.9049C24.1568 15.9035 24.1554 15.9021 24.1541 15.9007L21.4831 13.2298L22.9869 11.7261L22.9915 11.7215L22.9962 11.7168L25.5232 9.18979C26.3608 8.35216 26.8314 7.21609 26.8314 6.0315C26.8314 4.84691 26.3608 3.71084 25.5232 2.87321C24.6856 2.03558 23.5495 1.565 22.3649 1.565C21.1803 1.565 20.0442 2.03558 19.2066 2.87321L16.675 5.40488L15.1666 6.91325L10.9749 2.72158L10.9729 2.71959C10.2274 1.97766 9.21838 1.56116 8.1666 1.56116ZM19.0083 12.4049L20.5167 10.8965L17.4999 7.87974L15.9993 9.38035L15.9916 9.38816L15.9837 9.39591L8.99929 16.3804L8.99156 16.3882L8.98375 16.3959L5.12727 20.2524L3.99599 24.4004L8.14402 23.2691L12.0083 19.4049L19.0083 12.4049ZM14.4831 20.2298L19.8332 14.8798L21.6833 16.7298L20.175 18.2382C19.7193 18.6938 19.7193 19.4325 20.175 19.8881C20.6306 20.3437 21.3693 20.3437 21.8249 19.8881L23.3332 18.3798L24.0249 19.0715C24.666 19.7125 24.666 20.7472 24.0249 21.3882L20.9916 24.4215C20.3506 25.0626 19.3159 25.0626 18.6749 24.4215L14.4831 20.2298ZM13.5166 8.56317L11.6666 6.71311L10.1582 8.2215C9.70258 8.67711 8.96389 8.67711 8.50827 8.2215C8.05266 7.76589 8.05266 7.0272 8.50827 6.57159L10.0167 5.06319L9.32697 4.37349L9.32604 4.37256C9.01786 4.06636 8.60106 3.89449 8.1666 3.89449C7.7321 3.89449 7.31526 4.06639 7.00708 4.37264L7.00623 4.37349L3.97688 7.40283L3.97603 7.40369C3.66979 7.71187 3.49788 8.12871 3.49788 8.5632C3.49788 8.99767 3.66976 9.41447 3.97596 9.72264L3.97688 9.72358L8.16656 13.9133L13.5166 8.56317ZM22.1666 9.24658L23.8733 7.53988C24.2733 7.13983 24.4981 6.59725 24.4981 6.0315C24.4981 5.46575 24.2733 4.92317 23.8733 4.52313C23.4732 4.12308 22.9306 3.89834 22.3649 3.89834C21.7991 3.89834 21.2566 4.12308 20.8565 4.52313L19.1498 6.22983L22.1666 9.24658Z" fill="url(#paint0_linear_3979_808)"/>
<defs>
<linearGradient id="paint0_linear_3979_808" x1="25.0055" y1="-10.6205" x2="-12.8521" y2="46.3596" gradientUnits="userSpaceOnUse">
<stop stop-color="white"/>
<stop offset="1" stop-color="white" stop-opacity="0"/>
</linearGradient>
</defs>
</svg>
