<svg width="28" height="29" viewBox="0 0 28 29" fill="none" xmlns="http://www.w3.org/2000/svg">
<path fill-rule="evenodd" clip-rule="evenodd" d="M18.8941 5.61185C20.6122 4.6669 22.507 4.09948 24.4524 3.94161C24.2142 6.94305 22.9606 11.2695 18.0379 14.5801C18.0323 14.5836 18.0267 14.5873 18.0212 14.591C16.8315 15.3415 15.5807 15.9898 14.2823 16.5289L11.8705 14.117C12.4122 12.831 13.063 11.5932 13.8159 10.4172L13.8159 10.4173L13.8225 10.4068C15.0763 8.40203 16.8222 6.75138 18.8941 5.61185ZM17.8982 17.3726C17.013 17.8614 16.1011 18.3006 15.1667 18.6881V22.2194C15.2788 22.1828 15.3941 22.1432 15.5111 22.1008C16.5175 21.7357 17.3566 21.2559 17.6965 20.7485C17.8634 20.4977 17.9873 20.1103 18.0366 19.5797C18.085 19.0586 18.0543 18.4803 17.9821 17.9202C17.9577 17.7309 17.929 17.5472 17.8982 17.3726ZM12.8333 18.3797L10.0167 15.5631H4.66668C4.32079 15.5631 3.99274 15.4096 3.77108 15.1441C3.54941 14.8786 3.45699 14.5284 3.51877 14.1881L4.66668 14.3964C3.51877 14.1881 3.51881 14.1878 3.51886 14.1876L3.51896 14.187L3.51922 14.1856L3.51992 14.1818L3.52204 14.1704L3.52928 14.1328C3.53544 14.1012 3.54431 14.057 3.55599 14.0016C3.57933 13.8909 3.61404 13.7349 3.66102 13.5455C3.75453 13.1685 3.89881 12.6504 4.10222 12.0897C4.48076 11.0461 5.16725 9.55218 6.35132 8.76008L6.35286 8.75905C7.04702 8.29628 7.86111 8.10531 8.60084 8.03656C9.35064 7.96687 10.1126 8.01487 10.7746 8.10018C11.3878 8.17921 11.9421 8.29388 12.3608 8.39407C13.7735 6.40039 15.6216 4.74876 17.7696 3.56734C20.1903 2.23597 22.9113 1.54604 25.6739 1.56318C26.3154 1.56716 26.8333 2.08831 26.8333 2.72982C26.8333 6.0085 25.9136 11.7221 20.0056 16.0492C20.105 16.4663 20.2181 17.0153 20.2963 17.6219C20.3816 18.2839 20.4296 19.0459 20.3599 19.7957C20.2911 20.5354 20.1002 21.3495 19.6374 22.0436L19.6364 22.0452C18.8443 23.2292 17.3504 23.9157 16.3068 24.2943C15.746 24.4977 15.2279 24.642 14.8509 24.7355C14.6615 24.7825 14.5055 24.8172 14.3948 24.8405C14.3394 24.8522 14.2952 24.8611 14.2637 24.8672L14.226 24.8745L14.2146 24.8766L14.2109 24.8773L14.2095 24.8775L14.2089 24.8776C14.2086 24.8777 14.2084 24.8777 14 23.7298L14.2084 24.8777C13.8681 24.9395 13.5179 24.8471 13.2523 24.6254C12.9868 24.4038 12.8333 24.0757 12.8333 23.7298V18.3797ZM10.4763 10.4144C10.6734 10.4398 10.8644 10.4698 11.0453 10.502C10.5499 11.3852 10.1049 12.2959 9.71235 13.2298H6.17713C6.21374 13.1177 6.25325 13.0024 6.29571 12.8853C6.66074 11.879 7.1406 11.0399 7.6479 10.7C7.89877 10.533 8.28611 10.4092 8.81678 10.3599C9.33792 10.3114 9.91615 10.3422 10.4763 10.4144ZM7.00367 17.8831C6.08999 17.8548 5.19804 18.1649 4.4989 18.7538C3.88433 19.2703 3.43308 19.9818 3.09885 20.666C2.75796 21.3639 2.49891 22.1171 2.30541 22.7935C2.11085 23.4737 1.97562 24.1011 1.88898 24.5574C1.8455 24.7864 1.81388 24.9743 1.79288 25.1068C1.78238 25.1731 1.77451 25.2256 1.76913 25.2625L1.76291 25.3062L1.76116 25.3188L1.76062 25.3228L1.76043 25.3242L1.76036 25.3248C1.76033 25.325 1.7603 25.3252 2.91668 25.4798L1.7603 25.3252C1.71213 25.6855 1.83467 26.0477 2.09172 26.3048C2.34877 26.5618 2.71095 26.6844 3.07127 26.6362L2.91668 25.4798C3.07127 26.6362 3.07149 26.6362 3.07172 26.6361L3.07226 26.6361L3.07366 26.6359L3.07764 26.6353L3.09032 26.6336L3.13394 26.6273C3.17091 26.622 3.22343 26.6141 3.2897 26.6036C3.42215 26.5826 3.61008 26.551 3.83905 26.5075C4.29537 26.4209 4.92273 26.2856 5.60294 26.0911C6.27942 25.8976 7.03255 25.6385 7.73044 25.2976C8.41441 24.9635 9.12564 24.5125 9.64209 23.8983C10.8334 22.4876 10.8512 20.2902 9.4647 18.9213L9.45053 18.9075C8.78903 18.2762 7.91767 17.9113 7.00367 17.8831ZM4.96125 23.8477C4.76844 23.9029 4.57975 23.9527 4.39886 23.9976C4.44374 23.8167 4.49363 23.628 4.54877 23.4352C4.71986 22.8371 4.93476 22.2238 5.19544 21.6901C5.46265 21.1431 5.74034 20.7582 6.0004 20.5398L6.00183 20.5386C6.2613 20.3199 6.59238 20.2048 6.93154 20.2153C7.26733 20.2257 7.5876 20.3585 7.83215 20.5885C8.28212 21.0404 8.32098 21.8468 7.85899 22.3933L7.85669 22.3961C7.63824 22.6561 7.25339 22.9338 6.70635 23.201C6.17268 23.4617 5.55935 23.6766 4.96125 23.8477Z" fill="url(#paint0_linear_3979_816)"/>
<defs>
<linearGradient id="paint0_linear_3979_816" x1="25.042" y1="-10.3385" x2="-11.9444" y2="45.3299" gradientUnits="userSpaceOnUse">
<stop stop-color="white"/>
<stop offset="1" stop-color="white" stop-opacity="0"/>
</linearGradient>
</defs>
</svg>
