<svg width="28" height="29" viewBox="0 0 28 29" fill="none" xmlns="http://www.w3.org/2000/svg">
<path fill-rule="evenodd" clip-rule="evenodd" d="M17.5001 2.72986C16.2115 2.72986 15.1668 3.77453 15.1668 5.06319V10.8965C15.1668 12.1852 16.2115 13.2299 17.5001 13.2299H23.3335C24.6221 13.2299 25.6668 12.1852 25.6668 10.8965V5.06319C25.6668 3.77453 24.6221 2.72986 23.3335 2.72986H17.5001ZM17.5001 5.06319H23.3335V10.8965H17.5001V5.06319ZM4.66683 7.39655C4.04799 7.39655 3.4545 7.64238 3.01691 8.07996C2.57933 8.51755 2.3335 9.11104 2.3335 9.72988V16.7299V23.7299C2.3335 24.3487 2.57933 24.9422 3.01691 25.3798C3.4545 25.8174 4.04799 26.0632 4.66683 26.0632H11.6668H18.6668C19.2857 26.0632 19.8792 25.8174 20.3167 25.3798C20.7543 24.9422 21.0002 24.3487 21.0002 23.7299V17.8965C21.0002 17.2777 20.7543 16.6842 20.3167 16.2466C19.8792 15.809 19.2857 15.5632 18.6668 15.5632H12.8335V9.72988C12.8335 9.11104 12.5877 8.51755 12.1501 8.07996C11.7125 7.64238 11.119 7.39655 10.5002 7.39655H4.66683ZM4.66683 23.7299V17.8965H10.5002V23.7299H4.66683ZM4.66683 15.5632H10.5002V9.72988L4.66683 9.72988V15.5632ZM12.8335 23.7299V17.8965H18.6668V23.7299H12.8335Z" fill="url(#paint0_linear_3979_829)"/>
<defs>
<linearGradient id="paint0_linear_3979_829" x1="24.0004" y1="-8.34104" x2="-10.4051" y2="43.4432" gradientUnits="userSpaceOnUse">
<stop stop-color="white"/>
<stop offset="1" stop-color="white" stop-opacity="0"/>
</linearGradient>
</defs>
</svg>
