<svg xmlns="http://www.w3.org/2000/svg" width="117" height="40" fill="none"><g clip-path="url(#a)"><path fill="#A6A6A6" d="M107.1.85H8.2l-.9.02c-.65 0-1.3.06-1.95.17a6.55 6.55 0 0 0-3.42 1.72A6 6 0 0 0 .2 6.14C.09 6.77.02 7.4 0 8.06L0 8.94v22.13l.01.88c.01.64.07 1.28.18 1.92a6.24 6.24 0 0 0 1.75 3.36 6.59 6.59 0 0 0 3.42 1.73c.65.11 1.3.17 1.95.18a41.16 41.16 0 0 0 1.96 0h99.77c.65-.01 1.3-.07 1.95-.17a6.11 6.11 0 0 0 5.18-5.1c.1-.64.16-1.28.17-1.92v-.88c.02-.35.02-.7.02-1.05V9.98l-.01-1.04v-.88c-.02-.65-.08-1.29-.18-1.92a6.24 6.24 0 0 0-5.18-5.1c-.65-.1-1.3-.17-1.95-.17l-.9-.02h-1.05Z"/><path fill="#000" d="m8.21 38.31-.88-.01c-.6 0-1.22-.06-1.82-.16a5.79 5.79 0 0 1-2.97-1.5 5.1 5.1 0 0 1-1.52-2.92c-.1-.6-.15-1.2-.16-1.8l-.01-.87V8.94l.01-.86c0-.6.06-1.2.16-1.8a5.45 5.45 0 0 1 1.52-2.92 5.4 5.4 0 0 1 2.97-1.5c.6-.1 1.21-.15 1.82-.16h101.7c.6.01 1.2.06 1.8.16a5.4 5.4 0 0 1 4.5 4.42 12.3 12.3 0 0 1 .17 2.66v23a12 12 0 0 1-.17 1.77 5.27 5.27 0 0 1-2.87 3.9c-.52.26-1.06.44-1.63.53-.6.1-1.2.15-1.81.16l-.88.01H8.21Z"/><path fill="#fff" d="M24.08 20.29a4.68 4.68 0 0 1 2.3-3.98 4.9 4.9 0 0 0-3.89-2.06c-1.63-.17-3.21.96-4.04.96-.85 0-2.13-.95-3.51-.92a5.23 5.23 0 0 0-4.35 2.61c-1.88 3.2-.48 7.92 1.32 10.51.9 1.27 1.96 2.69 3.33 2.64 1.35-.06 1.86-.85 3.49-.85 1.6 0 2.08.85 3.49.82 1.44-.03 2.36-1.28 3.23-2.56.64-.9 1.14-1.9 1.47-2.96a4.63 4.63 0 0 1-2.84-4.21ZM21.43 12.54A4.62 4.62 0 0 0 22.5 9.2c-1.2.13-2.32.7-3.12 1.59a4.42 4.42 0 0 0-1.11 3.22 4.04 4.04 0 0 0 3.15-1.47ZM41.13 26.84h-4.6l-1.1 3.2h-1.95l4.36-11.88h2.02l4.36 11.89h-1.98l-1.1-3.21Zm-4.12-1.49h3.65l-1.8-5.21h-.05L37 25.35ZM53.64 25.72c0 2.69-1.47 4.42-3.68 4.42a3.02 3.02 0 0 1-2.77-1.52h-.04v4.3h-1.8V21.38h1.74v1.44h.04a3.1 3.1 0 0 1 2.8-1.53c2.23 0 3.7 1.74 3.7 4.43Zm-1.86 0c0-1.76-.92-2.91-2.33-2.91-1.38 0-2.3 1.18-2.3 2.9 0 1.75.92 2.92 2.3 2.92 1.4 0 2.33-1.14 2.33-2.91ZM63.32 25.72c0 2.69-1.46 4.42-3.67 4.42a3.02 3.02 0 0 1-2.77-1.52h-.04v4.3h-1.81V21.38h1.75v1.44h.03a3.1 3.1 0 0 1 2.8-1.53c2.24 0 3.71 1.74 3.71 4.43Zm-1.86 0c0-1.76-.92-2.91-2.32-2.91-1.38 0-2.31 1.18-2.31 2.9 0 1.75.93 2.92 2.3 2.92 1.41 0 2.33-1.14 2.33-2.91ZM69.73 26.74c.13 1.18 1.3 1.95 2.89 1.95 1.52 0 2.61-.77 2.61-1.84 0-.92-.66-1.47-2.22-1.85l-1.57-.37c-2.21-.53-3.24-1.55-3.24-3.2 0-2.06 1.81-3.47 4.4-3.47 2.54 0 4.3 1.41 4.35 3.46h-1.82c-.11-1.18-1.1-1.9-2.56-1.9s-2.46.72-2.46 1.78c0 .84.64 1.33 2.2 1.71l1.33.32c2.47.58 3.5 1.56 3.5 3.3 0 2.22-1.8 3.62-4.66 3.62-2.68 0-4.48-1.36-4.6-3.51h1.85ZM81.04 19.33v2.05h1.68v1.41h-1.68v4.78c0 .74.34 1.09 1.07 1.09.2 0 .4-.02.6-.04v1.4c-.33.06-.67.08-1 .08-1.79 0-2.48-.66-2.48-2.34v-4.97h-1.28v-1.4h1.28v-2.06h1.81ZM83.69 25.72c0-2.73 1.63-4.45 4.17-4.45 2.56 0 4.18 1.72 4.18 4.45 0 2.73-1.62 4.44-4.18 4.44-2.56 0-4.17-1.71-4.17-4.44Zm6.5 0c0-1.88-.86-2.98-2.33-2.98-1.46 0-2.33 1.11-2.33 2.98 0 1.87.87 2.97 2.33 2.97 1.47 0 2.34-1.1 2.34-2.97ZM93.53 21.38h1.72v1.48h.04a2.12 2.12 0 0 1 2.12-1.57c.21 0 .42.02.62.07v1.66a2.56 2.56 0 0 0-.81-.1 1.85 1.85 0 0 0-1.4.56 1.79 1.79 0 0 0-.48 1.43v5.14h-1.81v-8.67ZM106.36 27.5c-.24 1.58-1.8 2.66-3.79 2.66-2.56 0-4.15-1.7-4.15-4.4 0-2.72 1.6-4.49 4.08-4.49 2.43 0 3.96 1.65 3.96 4.28v.61h-6.21v.1a2.22 2.22 0 0 0 .62 1.76 2.3 2.3 0 0 0 1.74.7 2.02 2.02 0 0 0 2.04-1.22h1.71Zm-6.1-2.58h4.4a2.06 2.06 0 0 0-.6-1.57 2.1 2.1 0 0 0-1.56-.63 2.26 2.26 0 0 0-1.59.64 2.2 2.2 0 0 0-.66 1.56ZM36.78 9.21a2.6 2.6 0 0 1 2.05.78 2.52 2.52 0 0 1 .68 2.06c0 1.83-1 2.87-2.73 2.87h-2.1v-5.7h2.1Zm-1.2 4.9h1.1a1.85 1.85 0 0 0 1.46-.57 1.79 1.79 0 0 0 .46-1.48 1.77 1.77 0 0 0-.47-1.46 1.83 1.83 0 0 0-1.45-.58h-1.1v4.1ZM40.53 12.77a2.01 2.01 0 0 1 .53-1.57 2.07 2.07 0 0 1 2.38-.5 2.07 2.07 0 0 1 1.12 1.23c.1.27.13.55.1.84a2.01 2.01 0 0 1-.53 1.57 2.07 2.07 0 0 1-2.37.5 2.07 2.07 0 0 1-1.13-1.23c-.1-.27-.13-.56-.1-.84Zm3.24 0c0-.94-.42-1.48-1.17-1.48s-1.18.54-1.18 1.48.43 1.48 1.18 1.48 1.17-.54 1.17-1.48ZM50.15 14.92h-.9l-.9-3.17h-.07l-.9 3.17h-.89l-1.2-4.3h.87l.79 3.28H47l.9-3.29h.83l.9 3.3h.07l.78-3.3h.86l-1.2 4.31ZM52.37 10.61h.83v.69h.06a1.3 1.3 0 0 1 1.31-.77 1.44 1.44 0 0 1 1.15.44 1.4 1.4 0 0 1 .37 1.16v2.8h-.87v-2.58c0-.7-.3-1.04-.94-1.04a1.02 1.02 0 0 0-.78.3.99.99 0 0 0-.27.8v2.51h-.86v-4.3ZM57.46 8.93h.87v6h-.87v-6ZM59.53 12.77a2.01 2.01 0 0 1 .53-1.57 2.07 2.07 0 0 1 1.53-.67 2.1 2.1 0 0 1 1.54.67 2.03 2.03 0 0 1 .53 1.57 2.01 2.01 0 0 1-1.23 2.06 2.1 2.1 0 0 1-2.37-.5 2.03 2.03 0 0 1-.53-1.56Zm3.24 0c0-.94-.43-1.48-1.17-1.48-.76 0-1.18.54-1.18 1.48s.42 1.48 1.18 1.48c.74 0 1.17-.54 1.17-1.48ZM64.57 13.7c0-.77.59-1.22 1.63-1.28l1.18-.07v-.37c0-.46-.3-.71-.9-.71-.48 0-.81.17-.9.48h-.84c.09-.74.8-1.22 1.79-1.22 1.1 0 1.71.54 1.71 1.45v2.94h-.83v-.6h-.07a1.46 1.46 0 0 1-1.31.68 1.34 1.34 0 0 1-1.35-.77 1.28 1.28 0 0 1-.11-.52Zm2.81-.36v-.36l-1.07.06c-.6.04-.87.25-.87.63s.34.6.8.6a1.05 1.05 0 0 0 1.03-.54 1 1 0 0 0 .11-.4ZM69.38 12.77c0-1.37.71-2.23 1.82-2.23a1.46 1.46 0 0 1 1.34.76h.06V8.93h.87v6h-.83v-.69h-.07a1.5 1.5 0 0 1-1.37.76c-1.12 0-1.82-.87-1.82-2.23Zm.9 0c0 .91.43 1.46 1.16 1.46s1.18-.56 1.18-1.46c0-.9-.45-1.46-1.18-1.46s-1.17.55-1.17 1.46ZM77.04 12.77a2.01 2.01 0 0 1 .53-1.57 2.07 2.07 0 0 1 2.38-.5 2.07 2.07 0 0 1 1.13 1.23c.09.27.12.55.1.84a2.01 2.01 0 0 1-.54 1.57 2.07 2.07 0 0 1-2.37.5 2.07 2.07 0 0 1-1.13-1.23c-.1-.27-.13-.56-.1-.84Zm3.24 0c0-.94-.42-1.48-1.17-1.48s-1.17.54-1.17 1.48.42 1.48 1.17 1.48 1.17-.54 1.17-1.48ZM82.33 10.61h.83v.69h.07a1.3 1.3 0 0 1 1.3-.77 1.44 1.44 0 0 1 1.15.44 1.4 1.4 0 0 1 .37 1.16v2.8h-.87v-2.58c0-.7-.3-1.04-.94-1.04a1.02 1.02 0 0 0-.78.3.99.99 0 0 0-.27.8v2.51h-.86v-4.3ZM90.94 9.54v1.1h.94v.71h-.94v2.22c0 .45.18.65.61.65l.33-.02v.7c-.15.03-.3.05-.47.05-.96 0-1.34-.33-1.34-1.17v-2.43h-.7v-.72h.7V9.54h.87ZM93.06 8.93h.86v2.38h.07a1.33 1.33 0 0 1 1.33-.78 1.46 1.46 0 0 1 1.14.46 1.42 1.42 0 0 1 .37 1.15v2.78h-.87v-2.57c0-.69-.32-1.04-.93-1.04a1.04 1.04 0 0 0-.81.3 1 1 0 0 0-.3.8v2.51h-.86V8.93ZM101.87 13.76a1.8 1.8 0 0 1-1.9 1.25 2.02 2.02 0 0 1-1.54-.65 1.95 1.95 0 0 1-.48-1.58 1.96 1.96 0 0 1 .48-1.58 2.02 2.02 0 0 1 1.54-.67c1.21 0 1.95.82 1.95 2.17v.3h-3.1v.05a1.12 1.12 0 0 0 .31.87 1.16 1.16 0 0 0 .86.36 1.06 1.06 0 0 0 1.04-.52h.84Zm-3.04-1.39h2.2a1.03 1.03 0 0 0-.64-1.04 1.07 1.07 0 0 0-.43-.08 1.14 1.14 0 0 0-1.05.7c-.06.13-.09.27-.08.42Z"/></g><defs><clipPath id="a"><path fill="#fff" d="M0 .85h116.36v38.3H0z"/></clipPath></defs></svg>
