<svg width="24" height="25" viewBox="0 0 24 25" fill="none" xmlns="http://www.w3.org/2000/svg">
<rect x="12.0015" y="13.0125" width="8.99854" height="8.99854" rx="1.5" fill="#9C30B7"/>
<path d="M5 18.5118C3.89543 18.5118 3 17.6164 3 16.5118L3 5.51181C3 4.40724 3.89543 3.51181 5 3.51181L16 3.51181C17.1046 3.51181 18 4.40724 18 5.51181L18 16.5118C18 17.6164 17.1046 18.5118 16 18.5118L5 18.5118Z" fill="url(#paint0_linear_618_1329)" fill-opacity="0.8"/>
<g clip-path="url(#clip0_618_1329)">
<path d="M14.625 9.17847C14.6248 9.01772 14.5824 8.85984 14.502 8.72067C14.4215 8.5815 14.3059 8.46593 14.1667 8.38556L10.9583 6.55222C10.819 6.47177 10.6609 6.42941 10.5 6.42941C10.3391 6.42941 10.181 6.47177 10.0417 6.55222L6.83333 8.38556C6.69412 8.46593 6.57849 8.5815 6.49804 8.72067C6.4176 8.85984 6.37516 9.01772 6.375 9.17847V12.8451C6.37516 13.0059 6.4176 13.1638 6.49804 13.3029C6.57849 13.4421 6.69412 13.5577 6.83333 13.6381L10.0417 15.4714C10.181 15.5518 10.3391 15.5942 10.5 15.5942C10.6609 15.5942 10.819 15.5518 10.9583 15.4714L14.1667 13.6381C14.3059 13.5577 14.4215 13.4421 14.502 13.3029C14.5824 13.1638 14.6248 13.0059 14.625 12.8451V9.17847Z" stroke="white" stroke-width="1.5" stroke-linecap="round" stroke-linejoin="round"/>
<path d="M6.5125 8.72015L10.5 11.0118L14.4875 8.72015" stroke="white" stroke-width="1.5" stroke-linecap="round" stroke-linejoin="round"/>
<path d="M10.5 15.5951V11.0118" stroke="white" stroke-width="1.5" stroke-linecap="round" stroke-linejoin="round"/>
</g>
<defs>
<linearGradient id="paint0_linear_618_1329" x1="3" y1="11.0118" x2="18" y2="11.0118" gradientUnits="userSpaceOnUse">
<stop stop-color="#E5A1F5"/>
<stop offset="1" stop-color="#E169FF"/>
</linearGradient>
<clipPath id="clip0_618_1329">
<rect width="11" height="11" fill="white" transform="translate(5 5.51181)"/>
</clipPath>
</defs>
</svg>
