<?xml version="1.0" ?><svg id="Layer_1" style="enable-background:new 0 0 32 32;" version="1.1" viewBox="0 0 32 32" xml:space="preserve" xmlns="http://www.w3.org/2000/svg" xmlns:xlink="http://www.w3.org/1999/xlink"><style type="text/css">
	.st0{fill:#FBC34E;}
	.st1{fill:#E5A533;}
	.st2{fill:#E4EDF2;}
</style><g id="Token"><g><path class="st0" d="M16,2C8.28,2,2,8.28,2,16s6.28,14,14,14s14-6.28,14-14S23.72,2,16,2z M16,26c-5.514,0-10-4.486-10-10    S10.486,6,16,6s10,4.486,10,10S21.514,26,16,26z"/><path class="st1" d="M16,6C10.486,6,6,10.486,6,16s4.486,10,10,10s10-4.486,10-10S21.514,6,16,6z M20.244,17.272l-1.15,0.626    c-0.504,0.275-0.917,0.687-1.193,1.19l-0.631,1.146c-0.255,0.464-0.741,0.751-1.27,0.751s-1.015-0.288-1.27-0.751l-0.63-1.147    c-0.277-0.504-0.69-0.916-1.195-1.191l-1.148-0.625C11.289,17.019,11,16.531,11,16s0.289-1.019,0.756-1.272l1.15-0.626    c0.504-0.275,0.917-0.687,1.193-1.19l0.631-1.146c0.255-0.464,0.741-0.751,1.27-0.751s1.015,0.288,1.27,0.751l0.63,1.147    c0.277,0.503,0.69,0.915,1.194,1.19l1.149,0.625C20.711,14.981,21,15.469,21,16S20.711,17.019,20.244,17.272z"/><path class="st2" d="M20.243,14.727l-1.149-0.625c-0.504-0.275-0.917-0.687-1.194-1.19l-0.63-1.147    c-0.255-0.463-0.741-0.751-1.27-0.751s-1.015,0.288-1.27,0.751l-0.63,1.146c-0.276,0.504-0.689,0.916-1.193,1.19l-1.15,0.626    C11.289,14.981,11,15.469,11,16s0.289,1.019,0.757,1.273l1.148,0.625c0.505,0.275,0.918,0.687,1.195,1.191l0.63,1.147    c0.255,0.463,0.741,0.751,1.27,0.751c0.529,0,1.015-0.288,1.27-0.751l0.631-1.146c0.276-0.504,0.689-0.916,1.193-1.19l1.15-0.626    C20.711,17.019,21,16.531,21,16S20.711,14.981,20.243,14.727z"/></g></g></svg>