<svg width="25" height="25" viewBox="0 0 25 25" fill="none" xmlns="http://www.w3.org/2000/svg">
<path d="M15.8985 2.71655H6.8985C6.36807 2.71655 5.85936 2.92727 5.48428 3.30234C5.10921 3.67741 4.8985 4.18612 4.8985 4.71655V20.7166C4.8985 21.247 5.10921 21.7557 5.48428 22.1308C5.85936 22.5058 6.36807 22.7166 6.8985 22.7166H18.8985C19.4289 22.7166 19.9376 22.5058 20.3127 22.1308C20.6878 21.7557 20.8985 21.247 20.8985 20.7166V7.71655L15.8985 2.71655Z" stroke="#777777" stroke-width="2" stroke-linecap="round" stroke-linejoin="round"/>
<path d="M14.8985 2.71655V6.71655C14.8985 7.24699 15.1092 7.75569 15.4843 8.13077C15.8594 8.50584 16.3681 8.71655 16.8985 8.71655H20.8985" stroke="#777777" stroke-width="2" stroke-linecap="round" stroke-linejoin="round"/>
<path d="M10.8985 9.71655H8.8985" stroke="#777777" stroke-width="2" stroke-linecap="round" stroke-linejoin="round"/>
<path d="M16.8985 13.7166H8.8985" stroke="#777777" stroke-width="2" stroke-linecap="round" stroke-linejoin="round"/>
<path d="M16.8985 17.7166H8.8985" stroke="#777777" stroke-width="2" stroke-linecap="round" stroke-linejoin="round"/>
</svg>
