<svg width="25" height="24" viewBox="0 0 25 24" fill="none" xmlns="http://www.w3.org/2000/svg">
<path d="M3.19925 7V5C3.19925 4.46957 3.40996 3.96086 3.78504 3.58579C4.16011 3.21071 4.66882 3 5.19925 3H7.19925" stroke="#777777" stroke-width="2" stroke-linecap="round" stroke-linejoin="round"/>
<path d="M17.1992 3H19.1992C19.7297 3 20.2384 3.21071 20.6135 3.58579C20.9885 3.96086 21.1992 4.46957 21.1992 5V7" stroke="#777777" stroke-width="2" stroke-linecap="round" stroke-linejoin="round"/>
<path d="M21.1992 17V19C21.1992 19.5304 20.9885 20.0391 20.6135 20.4142C20.2384 20.7893 19.7297 21 19.1992 21H17.1992" stroke="#777777" stroke-width="2" stroke-linecap="round" stroke-linejoin="round"/>
<path d="M7.19925 21H5.19925C4.66882 21 4.16011 20.7893 3.78504 20.4142C3.40996 20.0391 3.19925 19.5304 3.19925 19V17" stroke="#777777" stroke-width="2" stroke-linecap="round" stroke-linejoin="round"/>
<path d="M8.19925 14C8.19925 14 9.69925 16 12.1992 16C14.6992 16 16.1992 14 16.1992 14" stroke="#777777" stroke-width="2" stroke-linecap="round" stroke-linejoin="round"/>
<path d="M9.19925 9H9.20925" stroke="#777777" stroke-width="2" stroke-linecap="round" stroke-linejoin="round"/>
<path d="M15.1992 9H15.2092" stroke="#777777" stroke-width="2" stroke-linecap="round" stroke-linejoin="round"/>
</svg>
