<svg width="25" height="25" viewBox="0 0 25 25" fill="none" xmlns="http://www.w3.org/2000/svg">
<path d="M21.8985 7.71655H18.8985C18.3681 7.71655 17.8594 7.50584 17.4843 7.13077C17.1092 6.75569 16.8985 6.24699 16.8985 5.71655V2.71655" stroke="#777777" stroke-width="2" stroke-linecap="round" stroke-linejoin="round"/>
<path d="M21.8985 6.71655V13.2166C21.8985 14.0166 21.1985 14.7166 20.3985 14.7166H13.3985C12.5985 14.7166 11.8985 14.0166 11.8985 13.2166V4.21655C11.8985 3.41655 12.5985 2.71655 13.3985 2.71655H17.8985L21.8985 6.71655Z" stroke="#777777" stroke-width="2" stroke-linecap="round" stroke-linejoin="round"/>
<path d="M7.8985 8.71655V17.5166C7.8985 17.8166 8.0985 18.1166 8.2985 18.3166C8.4985 18.5166 8.7985 18.7166 9.0985 18.7166H15.8985" stroke="#777777" stroke-width="2" stroke-linecap="round" stroke-linejoin="round"/>
<path d="M3.8985 12.7166V21.5166C3.8985 21.8166 4.0985 22.1166 4.2985 22.3166C4.4985 22.5166 4.7985 22.7166 5.0985 22.7166H11.8985" stroke="#777777" stroke-width="2" stroke-linecap="round" stroke-linejoin="round"/>
</svg>
