<svg width="25" height="25" viewBox="0 0 25 25" fill="none" xmlns="http://www.w3.org/2000/svg">
<path d="M19.0977 3.71655H5.09775C3.99318 3.71655 3.09775 4.61198 3.09775 5.71655V19.7166C3.09775 20.8211 3.99318 21.7166 5.09775 21.7166H19.0977C20.2023 21.7166 21.0977 20.8211 21.0977 19.7166V5.71655C21.0977 4.61198 20.2023 3.71655 19.0977 3.71655Z" stroke="#777777" stroke-width="2" stroke-linecap="round" stroke-linejoin="round"/>
<path d="M3.09775 9.71655C3.09775 9.18612 3.30846 8.67741 3.68353 8.30234C4.05861 7.92727 4.56731 7.71655 5.09775 7.71655H19.0977C19.6282 7.71655 20.1369 7.92727 20.512 8.30234C20.887 8.67741 21.0977 9.18612 21.0977 9.71655" stroke="#777777" stroke-width="2" stroke-linecap="round" stroke-linejoin="round"/>
<path d="M3.09775 11.7166H6.09775C6.89775 11.7166 7.69775 12.0166 8.19775 12.6166L9.29775 13.5166C10.8977 15.1166 13.3977 15.1166 14.9977 13.5166L16.0977 12.6166C16.5977 12.1166 17.3977 11.7166 18.1977 11.7166H21.0977" stroke="#777777" stroke-width="2" stroke-linecap="round" stroke-linejoin="round"/>
</svg>
