<svg width="25" height="24" viewBox="0 0 25 24" fill="none" xmlns="http://www.w3.org/2000/svg">
<path d="M9.19925 3H5.19925C4.09468 3 3.19925 3.89543 3.19925 5V9C3.19925 10.1046 4.09468 11 5.19925 11H9.19925C10.3038 11 11.1992 10.1046 11.1992 9V5C11.1992 3.89543 10.3038 3 9.19925 3Z" stroke="#777777" stroke-width="2" stroke-linecap="round" stroke-linejoin="round"/>
<path d="M7.19925 11V15C7.19925 15.5304 7.40996 16.0391 7.78504 16.4142C8.16011 16.7893 8.66882 17 9.19925 17H13.1992" stroke="#777777" stroke-width="2" stroke-linecap="round" stroke-linejoin="round"/>
<path d="M19.1992 13H15.1992C14.0947 13 13.1992 13.8954 13.1992 15V19C13.1992 20.1046 14.0947 21 15.1992 21H19.1992C20.3038 21 21.1992 20.1046 21.1992 19V15C21.1992 13.8954 20.3038 13 19.1992 13Z" stroke="#777777" stroke-width="2" stroke-linecap="round" stroke-linejoin="round"/>
</svg>
