<svg width="25" height="25" viewBox="0 0 25 25" fill="none" xmlns="http://www.w3.org/2000/svg">
<path d="M18.8985 17.6966H12.9085C11.8085 17.6966 10.9585 18.6366 10.4285 19.5966C10.009 20.3838 9.33829 21.0082 8.52312 21.3705C7.70795 21.7328 6.79506 21.8123 5.92957 21.5962C5.06408 21.3801 4.29565 20.8809 3.74645 20.1779C3.19724 19.475 2.89878 18.6086 2.8985 17.7166C2.9085 17.0166 3.0985 16.3166 3.4685 15.7166" stroke="#777777" stroke-width="2" stroke-linecap="round" stroke-linejoin="round"/>
<path d="M6.8985 17.7166L10.0285 11.9366C10.5585 10.9666 10.1285 9.75661 9.5285 8.83661C9.24531 8.38371 9.0557 7.87868 8.97086 7.35132C8.88601 6.82396 8.90765 6.28494 9.03449 5.76608C9.16133 5.24721 9.39081 4.759 9.70938 4.33026C10.028 3.90152 10.4292 3.54092 10.8894 3.26975C11.3496 2.99858 11.8594 2.82232 12.3888 2.75138C12.9182 2.68044 13.4565 2.71625 13.9718 2.8567C14.4872 2.99714 14.9692 3.23939 15.3894 3.56913C15.8096 3.89888 16.1595 4.30944 16.4185 4.77661" stroke="#777777" stroke-width="2" stroke-linecap="round" stroke-linejoin="round"/>
<path d="M12.8985 6.71655L16.0285 12.4466C16.5585 13.4166 17.7985 13.7166 18.8985 13.7166C19.9594 13.7166 20.9768 14.138 21.7269 14.8881C22.4771 15.6383 22.8985 16.6557 22.8985 17.7166C22.8985 18.7774 22.4771 19.7948 21.7269 20.545C20.9768 21.2951 19.9594 21.7166 18.8985 21.7166" stroke="#777777" stroke-width="2" stroke-linecap="round" stroke-linejoin="round"/>
</svg>
