<svg width="25" height="24" viewBox="0 0 25 24" fill="none" xmlns="http://www.w3.org/2000/svg">
<path d="M15.1992 5L19.1992 9" stroke="#777777" stroke-width="2" stroke-linecap="round" stroke-linejoin="round"/>
<path d="M13.1992 6.99999L8.89923 2.69999C8.44761 2.25054 7.83639 1.99823 7.19923 1.99823C6.56208 1.99823 5.95086 2.25054 5.49923 2.69999L2.89923 5.29999C2.44979 5.75161 2.19748 6.36283 2.19748 6.99999C2.19748 7.63714 2.44979 8.24836 2.89923 8.69999L7.19923 13" stroke="#777777" stroke-width="2" stroke-linecap="round" stroke-linejoin="round"/>
<path d="M8.19925 6L10.1992 4" stroke="#777777" stroke-width="2" stroke-linecap="round" stroke-linejoin="round"/>
<path d="M2.19925 22L7.69925 20.5L21.3692 6.83001C21.8997 6.29958 22.1977 5.58016 22.1977 4.83001C22.1977 4.07987 21.8997 3.36045 21.3692 2.83001C20.8388 2.29958 20.1194 2.00159 19.3692 2.00159C18.6191 2.00159 17.8997 2.29958 17.3692 2.83001L3.69925 16.5L2.19925 22Z" stroke="#777777" stroke-width="2" stroke-linecap="round" stroke-linejoin="round"/>
<path d="M18.1992 16L20.1992 14" stroke="#777777" stroke-width="2" stroke-linecap="round" stroke-linejoin="round"/>
<path d="M17.1992 11L21.4992 15.3C22.4392 16.24 22.4392 17.76 21.4992 18.7L18.8993 21.3C17.9593 22.24 16.4392 22.24 15.4992 21.3L11.1992 17" stroke="#777777" stroke-width="2" stroke-linecap="round" stroke-linejoin="round"/>
</svg>
