<svg width="24" height="25" viewBox="0 0 24 25" fill="none" xmlns="http://www.w3.org/2000/svg">
<path d="M4.5 16.5462C3 17.8062 2.5 21.5462 2.5 21.5462C2.5 21.5462 6.24 21.0462 7.5 19.5462C8.21 18.7062 8.2 17.4162 7.41 16.6362C7.02131 16.2652 6.50929 16.0509 5.97223 16.0342C5.43516 16.0176 4.91088 16.2 4.5 16.5462Z" stroke="#777777" stroke-width="2" stroke-linecap="round" stroke-linejoin="round"/>
<path d="M12 15.0461L9 12.0461C9.53214 10.6656 10.2022 9.34221 11 8.09615C12.1652 6.23313 13.7876 4.6992 15.713 3.64024C17.6384 2.58128 19.8027 2.03252 22 2.04615C22 4.76615 21.22 9.54615 16 13.0461C14.7369 13.8449 13.3968 14.5149 12 15.0461Z" stroke="#777777" stroke-width="2" stroke-linecap="round" stroke-linejoin="round"/>
<path d="M9 12.0464H4C4 12.0464 4.55 9.01641 6 8.04641C7.62 6.96641 11 8.04641 11 8.04641" stroke="#777777" stroke-width="2" stroke-linecap="round" stroke-linejoin="round"/>
<path d="M12 15.0464V20.0464C12 20.0464 15.03 19.4964 16 18.0464C17.08 16.4264 16 13.0464 16 13.0464" stroke="#777777" stroke-width="2" stroke-linecap="round" stroke-linejoin="round"/>
</svg>
