<svg width="25" height="25" viewBox="0 0 25 25" fill="none" xmlns="http://www.w3.org/2000/svg">
<path d="M12.8985 22.7166C18.4213 22.7166 22.8985 18.2394 22.8985 12.7166C22.8985 7.19371 18.4213 2.71655 12.8985 2.71655C7.37565 2.71655 2.8985 7.19371 2.8985 12.7166C2.8985 18.2394 7.37565 22.7166 12.8985 22.7166Z" stroke="#777777" stroke-width="2" stroke-linecap="round" stroke-linejoin="round"/>
<path d="M16.8985 8.71655H10.8985C10.3681 8.71655 9.85936 8.92727 9.48429 9.30234C9.10921 9.67741 8.8985 10.1861 8.8985 10.7166C8.8985 11.247 9.10921 11.7557 9.48429 12.1308C9.85936 12.5058 10.3681 12.7166 10.8985 12.7166H14.8985C15.4289 12.7166 15.9376 12.9273 16.3127 13.3023C16.6878 13.6774 16.8985 14.1861 16.8985 14.7166C16.8985 15.247 16.6878 15.7557 16.3127 16.1308C15.9376 16.5058 15.4289 16.7166 14.8985 16.7166H8.8985" stroke="#777777" stroke-width="2" stroke-linecap="round" stroke-linejoin="round"/>
<path d="M12.8985 18.7166V6.71655" stroke="#777777" stroke-width="2" stroke-linecap="round" stroke-linejoin="round"/>
</svg>
