<svg width="25" height="24" viewBox="0 0 25 24" fill="none" xmlns="http://www.w3.org/2000/svg">
<path d="M12.5 10C11.9696 10 11.4609 10.2107 11.0858 10.5858C10.7107 10.9609 10.5 11.4696 10.5 12C10.5 13.02 10.4 14.51 10.24 16" stroke="#777777" stroke-width="2" stroke-linecap="round" stroke-linejoin="round"/>
<path d="M14.5 13.12C14.5 15.5 14.5 19.5 13.5 22" stroke="#777777" stroke-width="2" stroke-linecap="round" stroke-linejoin="round"/>
<path d="M17.79 21.02C17.91 20.42 18.22 18.72 18.29 18" stroke="#777777" stroke-width="2" stroke-linecap="round" stroke-linejoin="round"/>
<path d="M2.5 12C2.5 9.90118 3.16037 7.85555 4.38758 6.1529C5.61478 4.45024 7.3466 3.17687 9.33772 2.51317C11.3288 1.84946 13.4783 1.82906 15.4817 2.45486C17.485 3.08067 19.2407 4.32094 20.5 6" stroke="#777777" stroke-width="2" stroke-linecap="round" stroke-linejoin="round"/>
<path d="M2.5 16H2.51" stroke="#777777" stroke-width="2" stroke-linecap="round" stroke-linejoin="round"/>
<path d="M22.3 16C22.5 14 22.431 10.646 22.3 10" stroke="#777777" stroke-width="2" stroke-linecap="round" stroke-linejoin="round"/>
<path d="M5.5 19.5C6 18 6.5 15 6.5 12C6.49899 11.3189 6.61397 10.6425 6.84 10" stroke="#777777" stroke-width="2" stroke-linecap="round" stroke-linejoin="round"/>
<path d="M9.15002 22C9.36002 21.34 9.60003 20.68 9.72003 20" stroke="#777777" stroke-width="2" stroke-linecap="round" stroke-linejoin="round"/>
<path d="M9.5 6.8C10.4124 6.27323 11.4474 5.99599 12.501 5.99615C13.5545 5.99632 14.5894 6.2739 15.5017 6.80096C16.4139 7.32803 17.1713 8.086 17.6976 8.99865C18.2239 9.91131 18.5007 10.9465 18.5 12V14" stroke="#777777" stroke-width="2" stroke-linecap="round" stroke-linejoin="round"/>
</svg>
