<svg width="24" height="25" viewBox="0 0 24 25" fill="none" xmlns="http://www.w3.org/2000/svg">
<path d="M21 7.73535H18C17.4696 7.73535 16.9609 7.52464 16.5858 7.14957C16.2107 6.77449 16 6.26578 16 5.73535V2.73535" stroke="#777777" stroke-width="2" stroke-linecap="round" stroke-linejoin="round"/>
<path d="M21 6.73535V13.2354C21 14.0354 20.3 14.7354 19.5 14.7354H12.5C11.7 14.7354 11 14.0354 11 13.2354V4.23535C11 3.43535 11.7 2.73535 12.5 2.73535H17L21 6.73535Z" stroke="#777777" stroke-width="2" stroke-linecap="round" stroke-linejoin="round"/>
<path d="M7 8.73535V17.5354C7 17.8354 7.2 18.1354 7.4 18.3354C7.6 18.5354 7.9 18.7354 8.2 18.7354H15" stroke="#777777" stroke-width="2" stroke-linecap="round" stroke-linejoin="round"/>
<path d="M3 12.7354V21.5354C3 21.8354 3.2 22.1354 3.4 22.3354C3.6 22.5354 3.9 22.7354 4.2 22.7354H11" stroke="#777777" stroke-width="2" stroke-linecap="round" stroke-linejoin="round"/>
</svg>
