<svg width="24" height="24" viewBox="0 0 24 24" fill="none" xmlns="http://www.w3.org/2000/svg">
<path d="M11 15H13C13.5304 15 14.0391 14.7893 14.4142 14.4142C14.7893 14.0391 15 13.5304 15 13C15 12.4696 14.7893 11.9609 14.4142 11.5858C14.0391 11.2107 13.5304 11 13 11H10C9.4 11 8.9 11.2 8.6 11.6L3 17" stroke="#777777" stroke-width="2" stroke-linecap="round" stroke-linejoin="round"/>
<path d="M7 21L8.6 19.6C8.9 19.2 9.4 19 10 19H14C15.1 19 16.1 18.6 16.8 17.8L21.4 13.4C21.7859 13.0354 22.0111 12.5323 22.0261 12.0016C22.0411 11.4709 21.8447 10.9559 21.48 10.57C21.1153 10.1841 20.6123 9.95892 20.0816 9.94392C19.5508 9.92891 19.0359 10.1254 18.65 10.49L14.45 14.39" stroke="#777777" stroke-width="2" stroke-linecap="round" stroke-linejoin="round"/>
<path d="M2 16L8 22" stroke="#777777" stroke-width="2" stroke-linecap="round" stroke-linejoin="round"/>
<path d="M16 11.9C17.6016 11.9 18.9 10.6016 18.9 8.99998C18.9 7.39835 17.6016 6.09998 16 6.09998C14.3983 6.09998 13.1 7.39835 13.1 8.99998C13.1 10.6016 14.3983 11.9 16 11.9Z" stroke="#777777" stroke-width="2" stroke-linecap="round" stroke-linejoin="round"/>
<path d="M6 8C7.65685 8 9 6.65685 9 5C9 3.34315 7.65685 2 6 2C4.34315 2 3 3.34315 3 5C3 6.65685 4.34315 8 6 8Z" stroke="#777777" stroke-width="2" stroke-linecap="round" stroke-linejoin="round"/>
</svg>
