<svg width="25" height="25" viewBox="0 0 25 25" fill="none" xmlns="http://www.w3.org/2000/svg">
<g clip-path="url(#clip0_700_112)">
<path d="M2.19925 18.0277V21.0277C2.19925 21.6277 2.59925 22.0277 3.19925 22.0277H7.19925V19.0277H10.1992V16.0277H12.1992L13.5992 14.6277C14.9891 15.1119 16.5021 15.11 17.8907 14.6225C19.2794 14.135 20.4615 13.1906 21.2436 11.9439C22.0258 10.6972 22.3617 9.22192 22.1964 7.75949C22.0311 6.29705 21.3744 4.934 20.3337 3.89332C19.293 2.85264 17.9299 2.19593 16.4675 2.03064C15.0051 1.86534 13.5298 2.20124 12.2831 2.98339C11.0364 3.76553 10.092 4.94762 9.6045 6.33627C9.11695 7.72492 9.1151 9.23791 9.59925 10.6277L2.19925 18.0277Z" stroke="#777777" stroke-width="2" stroke-linecap="round" stroke-linejoin="round"/>
<path d="M16.6992 8.02771C16.9754 8.02771 17.1992 7.80385 17.1992 7.52771C17.1992 7.25157 16.9754 7.02771 16.6992 7.02771C16.4231 7.02771 16.1992 7.25157 16.1992 7.52771C16.1992 7.80385 16.4231 8.02771 16.6992 8.02771Z" fill="black" stroke="#777777" stroke-width="2" stroke-linecap="round" stroke-linejoin="round"/>
</g>
<defs>
<clipPath id="clip0_700_112">
<rect width="24" height="24" fill="white" transform="translate(0.199249 0.02771)"/>
</clipPath>
</defs>
</svg>
