<svg width="24" height="25" viewBox="0 0 24 25" fill="none" xmlns="http://www.w3.org/2000/svg">
<path d="M15 2.73535H6C5.46957 2.73535 4.96086 2.94607 4.58579 3.32114C4.21071 3.69621 4 4.20492 4 4.73535V20.7354C4 21.2658 4.21071 21.7745 4.58579 22.1496C4.96086 22.5246 5.46957 22.7354 6 22.7354H18C18.5304 22.7354 19.0391 22.5246 19.4142 22.1496C19.7893 21.7745 20 21.2658 20 20.7354V7.73535L15 2.73535Z" stroke="#777777" stroke-width="2" stroke-linecap="round" stroke-linejoin="round"/>
<path d="M14 2.73535V6.73535C14 7.26578 14.2107 7.77449 14.5858 8.14957C14.9609 8.52464 15.4696 8.73535 16 8.73535H20" stroke="#777777" stroke-width="2" stroke-linecap="round" stroke-linejoin="round"/>
<path d="M8 12.7354H16" stroke="#777777" stroke-width="2" stroke-linecap="round" stroke-linejoin="round"/>
<path d="M10 11.7354V13.7354" stroke="#777777" stroke-width="2" stroke-linecap="round" stroke-linejoin="round"/>
<path d="M8 17.7354H16" stroke="#777777" stroke-width="2" stroke-linecap="round" stroke-linejoin="round"/>
<path d="M14 16.7354V18.7354" stroke="#777777" stroke-width="2" stroke-linecap="round" stroke-linejoin="round"/>
</svg>
