<svg width="24" height="25" viewBox="0 0 24 25" fill="none" xmlns="http://www.w3.org/2000/svg">
<path d="M4 22.7349H18C18.5304 22.7349 19.0391 22.5241 19.4142 22.1491C19.7893 21.774 20 21.2653 20 20.7349V7.73486L15 2.73486H6C5.46957 2.73486 4.96086 2.94558 4.58579 3.32065C4.21071 3.69572 4 4.20443 4 4.73486V10.7349" stroke="#777777" stroke-width="2" stroke-linecap="round" stroke-linejoin="round"/>
<path d="M14 2.73486V6.73486C14 7.2653 14.2107 7.774 14.5858 8.14908C14.9609 8.52415 15.4696 8.73486 16 8.73486H20" stroke="#777777" stroke-width="2" stroke-linecap="round" stroke-linejoin="round"/>
<path d="M4 18.7349C5.10457 18.7349 6 17.8394 6 16.7349C6 15.6303 5.10457 14.7349 4 14.7349C2.89543 14.7349 2 15.6303 2 16.7349C2 17.8394 2.89543 18.7349 4 18.7349Z" stroke="#777777" stroke-width="2" stroke-linecap="round" stroke-linejoin="round"/>
<path d="M10 10.7349L5.5 15.2349" stroke="#777777" stroke-width="2" stroke-linecap="round" stroke-linejoin="round"/>
<path d="M9 11.7349L10 12.7349" stroke="#777777" stroke-width="2" stroke-linecap="round" stroke-linejoin="round"/>
</svg>
