<svg width="25" height="25" viewBox="0 0 25 25" fill="none" xmlns="http://www.w3.org/2000/svg">
<path d="M18.8985 18.7166C20.5554 18.7166 21.8985 17.3734 21.8985 15.7166C21.8985 14.0597 20.5554 12.7166 18.8985 12.7166C17.2416 12.7166 15.8985 14.0597 15.8985 15.7166C15.8985 17.3734 17.2416 18.7166 18.8985 18.7166Z" stroke="#777777" stroke-width="2" stroke-linecap="round" stroke-linejoin="round"/>
<path d="M9.8985 11.7166C12.1076 11.7166 13.8985 9.92569 13.8985 7.71655C13.8985 5.50741 12.1076 3.71655 9.8985 3.71655C7.68936 3.71655 5.8985 5.50741 5.8985 7.71655C5.8985 9.92569 7.68936 11.7166 9.8985 11.7166Z" stroke="#777777" stroke-width="2" stroke-linecap="round" stroke-linejoin="round"/>
<path d="M10.8985 15.7166H6.8985C5.83763 15.7166 4.82022 16.138 4.07007 16.8881C3.31993 17.6383 2.8985 18.6557 2.8985 19.7166V21.7166" stroke="#777777" stroke-width="2" stroke-linecap="round" stroke-linejoin="round"/>
<path d="M22.5985 17.1165L21.6985 16.8165" stroke="#777777" stroke-width="2" stroke-linecap="round" stroke-linejoin="round"/>
<path d="M16.0985 14.6165L15.1985 14.3165" stroke="#777777" stroke-width="2" stroke-linecap="round" stroke-linejoin="round"/>
<path d="M17.4985 19.4166L17.7985 18.5166" stroke="#777777" stroke-width="2" stroke-linecap="round" stroke-linejoin="round"/>
<path d="M19.9985 12.9166L20.2985 12.0166" stroke="#777777" stroke-width="2" stroke-linecap="round" stroke-linejoin="round"/>
<path d="M20.4985 19.4165L20.0985 18.4165" stroke="#777777" stroke-width="2" stroke-linecap="round" stroke-linejoin="round"/>
<path d="M17.6985 13.0166L17.2985 12.0166" stroke="#777777" stroke-width="2" stroke-linecap="round" stroke-linejoin="round"/>
<path d="M15.1985 17.3165L16.1985 16.9165" stroke="#777777" stroke-width="2" stroke-linecap="round" stroke-linejoin="round"/>
<path d="M21.5985 14.5166L22.5985 14.1166" stroke="#777777" stroke-width="2" stroke-linecap="round" stroke-linejoin="round"/>
</svg>
