<svg width="24" height="25" viewBox="0 0 24 25" fill="none" xmlns="http://www.w3.org/2000/svg">
<path d="M9 3.04639H5C3.89543 3.04639 3 3.94182 3 5.04639V9.04639C3 10.151 3.89543 11.0464 5 11.0464H9C10.1046 11.0464 11 10.151 11 9.04639V5.04639C11 3.94182 10.1046 3.04639 9 3.04639Z" stroke="#777777" stroke-width="2" stroke-linecap="round" stroke-linejoin="round"/>
<path d="M7 11.0464V15.0464C7 15.5768 7.21071 16.0855 7.58579 16.4606C7.96086 16.8357 8.46957 17.0464 9 17.0464H13" stroke="#777777" stroke-width="2" stroke-linecap="round" stroke-linejoin="round"/>
<path d="M19 13.0464H15C13.8954 13.0464 13 13.9418 13 15.0464V19.0464C13 20.151 13.8954 21.0464 15 21.0464H19C20.1046 21.0464 21 20.151 21 19.0464V15.0464C21 13.9418 20.1046 13.0464 19 13.0464Z" stroke="#777777" stroke-width="2" stroke-linecap="round" stroke-linejoin="round"/>
</svg>
