<svg width="24" height="24" viewBox="0 0 24 24" fill="none" xmlns="http://www.w3.org/2000/svg">
<path d="M3.99999 14.0002C3.81076 14.0008 3.62522 13.9477 3.46495 13.8471C3.30467 13.7465 3.17623 13.6025 3.09454 13.4318C3.01286 13.2611 2.98129 13.0707 3.00349 12.8828C3.0257 12.6949 3.10077 12.5171 3.21999 12.3702L13.12 2.17016C13.1943 2.08444 13.2955 2.02652 13.407 2.0059C13.5185 1.98527 13.6337 2.00318 13.7337 2.05667C13.8337 2.11016 13.9126 2.19606 13.9573 2.30027C14.0021 2.40448 14.0101 2.52081 13.98 2.63016L12.06 8.65016C12.0034 8.80169 11.9844 8.96468 12.0046 9.12517C12.0248 9.28566 12.0837 9.43884 12.1761 9.57159C12.2685 9.70434 12.3918 9.81268 12.5353 9.88732C12.6788 9.96197 12.8382 10.0007 13 10.0002H20C20.1892 9.99952 20.3748 10.0526 20.535 10.1532C20.6953 10.2538 20.8238 10.3978 20.9054 10.5685C20.9871 10.7392 21.0187 10.9296 20.9965 11.1175C20.9743 11.3054 20.8992 11.4832 20.78 11.6302L10.88 21.8302C10.8057 21.9159 10.7045 21.9738 10.593 21.9944C10.4815 22.0151 10.3663 21.9972 10.2663 21.9437C10.1663 21.8902 10.0874 21.8043 10.0427 21.7001C9.99791 21.5958 9.98991 21.4795 10.02 21.3702L11.94 15.3502C11.9966 15.1986 12.0156 15.0356 11.9954 14.8752C11.9752 14.7147 11.9163 14.5615 11.8239 14.4287C11.7315 14.296 11.6082 14.1876 11.4647 14.113C11.3212 14.0384 11.1617 13.9996 11 14.0002H3.99999Z" stroke="#777777" stroke-width="2" stroke-linecap="round" stroke-linejoin="round"/>
</svg>
