<svg width="25" height="25" viewBox="0 0 25 25" fill="none" xmlns="http://www.w3.org/2000/svg">
<path d="M8.8985 14.7166C12.2122 14.7166 14.8985 12.0303 14.8985 8.71655C14.8985 5.40284 12.2122 2.71655 8.8985 2.71655C5.58479 2.71655 2.8985 5.40284 2.8985 8.71655C2.8985 12.0303 5.58479 14.7166 8.8985 14.7166Z" stroke="#777777" stroke-width="2" stroke-linecap="round" stroke-linejoin="round"/>
<path d="M18.9885 11.0865C19.9338 11.439 20.775 12.0241 21.4342 12.7877C22.0935 13.5514 22.5496 14.469 22.7602 15.4556C22.9709 16.4422 22.9294 17.4661 22.6395 18.4324C22.3497 19.3987 21.8208 20.2764 21.1019 20.9842C20.383 21.6919 19.4972 22.207 18.5265 22.4818C17.5557 22.7565 16.5314 22.782 15.5482 22.556C14.565 22.33 13.6546 21.8596 12.9013 21.1885C12.148 20.5174 11.5761 19.6672 11.2385 18.7165" stroke="#777777" stroke-width="2" stroke-linecap="round" stroke-linejoin="round"/>
<path d="M7.8985 6.71655H8.8985V10.7166" stroke="#777777" stroke-width="2" stroke-linecap="round" stroke-linejoin="round"/>
<path d="M17.6085 14.5966L18.3085 15.3066L15.4885 18.1266" stroke="#777777" stroke-width="2" stroke-linecap="round" stroke-linejoin="round"/>
</svg>
