<svg width="28" height="29" viewBox="0 0 28 29" fill="none" xmlns="http://www.w3.org/2000/svg">
<path fill-rule="evenodd" clip-rule="evenodd" d="M14.4096 1.97614C14.1455 1.87709 13.8545 1.87709 13.5904 1.97614L4.25702 5.47614C3.80167 5.6469 3.5 6.0822 3.5 6.56852V14.7352C3.5 18.756 6.16204 21.9689 8.56508 24.0715C9.79111 25.1443 11.0116 25.9828 11.9233 26.5526C12.3804 26.8383 12.763 27.0584 13.0339 27.2084C13.1695 27.2834 13.2773 27.341 13.3529 27.3807C13.3907 27.4005 13.4204 27.4159 13.4415 27.4267L13.4665 27.4395L13.4741 27.4433L13.4766 27.4445L13.4775 27.445C13.4779 27.4452 13.4783 27.4454 14 26.4019L13.4783 27.4454C13.8067 27.6096 14.1933 27.6096 14.5217 27.4454L14 26.4019C14.5217 27.4454 14.5221 27.4452 14.5225 27.445L14.5234 27.4445L14.5259 27.4433L14.5335 27.4395L14.5585 27.4267C14.5796 27.4159 14.6093 27.4005 14.6471 27.3807C14.7227 27.341 14.8305 27.2834 14.9661 27.2084C15.237 27.0584 15.6196 26.8383 16.0767 26.5526C16.9884 25.9828 18.2089 25.1443 19.4349 24.0715C21.838 21.9689 24.5 18.756 24.5 14.7352V6.56852C24.5 6.0822 24.1983 5.6469 23.743 5.47614L14.4096 1.97614ZM14.84 24.574C14.5095 24.7806 14.2236 24.9483 14 25.0751C13.7764 24.9483 13.4905 24.7806 13.16 24.574C12.3217 24.05 11.2089 23.2844 10.1016 22.3155C7.83796 20.3348 5.83333 17.7143 5.83333 14.7352V7.37702L14 4.31452L22.1667 7.37702V14.7352C22.1667 17.7143 20.162 20.3348 17.8984 22.3155C16.7911 23.2844 15.6783 24.05 14.84 24.574ZM18.325 13.2269C18.7806 12.7712 18.7806 12.0325 18.325 11.5769C17.8693 11.1213 17.1307 11.1213 16.675 11.5769L12.8333 15.4186L11.325 13.9103C10.8693 13.4547 10.1307 13.4547 9.67504 13.9103C9.21943 14.3659 9.21943 15.1046 9.67504 15.5602L12.0084 17.8935C12.464 18.3491 13.2027 18.3491 13.6583 17.8935L18.325 13.2269Z" fill="#777777"/>
</svg>
