<svg width="24" height="25" viewBox="0 0 24 25" fill="none" xmlns="http://www.w3.org/2000/svg">
<path d="M19 7.73535V4.73535C19 4.47014 18.8946 4.21578 18.7071 4.02824C18.5196 3.84071 18.2652 3.73535 18 3.73535H5C4.46957 3.73535 3.96086 3.94607 3.58579 4.32114C3.21071 4.69621 3 5.20492 3 5.73535C3 6.26578 3.21071 6.77449 3.58579 7.14957C3.96086 7.52464 4.46957 7.73535 5 7.73535H20C20.2652 7.73535 20.5196 7.84071 20.7071 8.02824C20.8946 8.21578 21 8.47014 21 8.73535V12.7354M21 12.7354H18C17.4696 12.7354 16.9609 12.9461 16.5858 13.3211C16.2107 13.6962 16 14.2049 16 14.7354C16 15.2658 16.2107 15.7745 16.5858 16.1496C16.9609 16.5246 17.4696 16.7354 18 16.7354H21C21.2652 16.7354 21.5196 16.63 21.7071 16.4425C21.8946 16.2549 22 16.0006 22 15.7354V13.7354C22 13.4701 21.8946 13.2158 21.7071 13.0282C21.5196 12.8407 21.2652 12.7354 21 12.7354Z" stroke="#777777" stroke-width="2" stroke-linecap="round" stroke-linejoin="round"/>
<path d="M3 5.73535V19.7354C3 20.2658 3.21071 20.7745 3.58579 21.1496C3.96086 21.5246 4.46957 21.7354 5 21.7354H20C20.2652 21.7354 20.5196 21.63 20.7071 21.4425C20.8946 21.2549 21 21.0006 21 20.7354V16.7354" stroke="#777777" stroke-width="2" stroke-linecap="round" stroke-linejoin="round"/>
</svg>
