<svg width="32" height="32" viewBox="0 0 32 32" fill="none" xmlns="http://www.w3.org/2000/svg">
<path d="M26.0401 8.54653C26.4254 8.91082 26.6503 9.41323 26.6653 9.9433C26.6803 10.4734 26.4842 10.9877 26.1201 11.3732L14.7867 23.3732C14.6031 23.5673 14.3823 23.7227 14.1376 23.8301C13.8929 23.9375 13.6291 23.9947 13.3619 23.9984C13.0946 24.0022 12.8294 23.9523 12.5817 23.8518C12.3341 23.7513 12.1091 23.6021 11.9201 23.4132L5.92008 17.4132C5.5668 17.0341 5.37447 16.5326 5.38361 16.0145C5.39275 15.4963 5.60265 15.002 5.96909 14.6355C6.33552 14.2691 6.82988 14.0592 7.34802 14.0501C7.86615 14.0409 8.36761 14.2332 8.74675 14.5865L13.2934 19.1305L23.2134 8.62653C23.5777 8.24119 24.0801 8.01629 24.6102 8.00129C25.1402 7.98629 25.6546 8.18241 26.0401 8.54653Z" fill="#27B245"/>
</svg>
