<svg width="24" height="24" viewBox="0 0 24 24" fill="none" xmlns="http://www.w3.org/2000/svg">
<path d="M8.87518 2.9001L17.3002 11.3001C17.4002 11.4001 17.4712 11.5084 17.5132 11.6251C17.5552 11.7418 17.5758 11.8668 17.5752 12.0001C17.5752 12.1334 17.5545 12.2584 17.5132 12.3751C17.4718 12.4918 17.4008 12.6001 17.3002 12.7001L8.87518 21.1251C8.64185 21.3584 8.35018 21.4751 8.00018 21.4751C7.65018 21.4751 7.35018 21.3501 7.10018 21.1001C6.85018 20.8501 6.72518 20.5584 6.72518 20.2251C6.72518 19.8918 6.85018 19.6001 7.10018 19.3501L14.4502 12.0001L7.10018 4.6501C6.86685 4.41676 6.75018 4.1291 6.75018 3.7871C6.75018 3.4451 6.87518 3.14943 7.12518 2.9001C7.37518 2.6501 7.66685 2.5251 8.00018 2.5251C8.33351 2.5251 8.62518 2.6501 8.87518 2.9001Z" fill="white"/>
</svg>
