<svg width="32" height="32" viewBox="0 0 32 32" fill="none" xmlns="http://www.w3.org/2000/svg">
<path d="M25.3334 10.6665C24.2222 10.6665 23.2778 10.2776 22.5 9.49984C21.7222 8.72206 21.3334 7.77762 21.3334 6.6665C21.3334 5.55539 21.7222 4.61095 22.5 3.83317C23.2778 3.05539 24.2222 2.6665 25.3334 2.6665C26.4445 2.6665 27.3889 3.05539 28.1667 3.83317C28.9445 4.61095 29.3334 5.55539 29.3334 6.6665C29.3334 7.77762 28.9445 8.72206 28.1667 9.49984C27.3889 10.2776 26.4445 10.6665 25.3334 10.6665ZM5.33335 26.6665C4.60002 26.6665 3.97246 26.4056 3.45069 25.8838C2.92802 25.3612 2.66669 24.7332 2.66669 23.9998V7.99984C2.66669 7.2665 2.92802 6.63895 3.45069 6.11717C3.97246 5.5945 4.60002 5.33317 5.33335 5.33317H18.8C18.7111 5.77762 18.6667 6.22206 18.6667 6.6665C18.6667 7.11095 18.7111 7.55539 18.8 7.99984C18.9556 8.71095 19.2111 9.37184 19.5667 9.9825C19.9222 10.5941 20.3556 11.1332 20.8667 11.5998L16 14.6665L5.33335 7.99984V10.6665L16 17.3332L23.0334 12.9332C23.4111 13.0665 23.7889 13.1665 24.1667 13.2332C24.5445 13.2998 24.9334 13.3332 25.3334 13.3332C26.0445 13.3332 26.7445 13.2221 27.4334 12.9998C28.1222 12.7776 28.7556 12.4443 29.3334 11.9998V23.9998C29.3334 24.7332 29.0725 25.3612 28.5507 25.8838C28.028 26.4056 27.4 26.6665 26.6667 26.6665H5.33335Z" fill="url(#paint0_linear_60_269)"/>
<defs>
<linearGradient id="paint0_linear_60_269" x1="24.5107" y1="19.0415" x2="5.99972" y2="27.5478" gradientUnits="userSpaceOnUse">
<stop stop-color="#BFA3DA"/>
<stop offset="1" stop-color="#743F9E"/>
</linearGradient>
</defs>
</svg>
