<svg width="61" height="61" viewBox="0 0 61 61" fill="none" xmlns="http://www.w3.org/2000/svg">
<path d="M9.53125 49.5625C9.53125 51.5848 10.3346 53.5242 11.7646 54.9542C13.1945 56.3841 15.134 57.1875 17.1562 57.1875H28.1172C28.2436 57.1875 28.3648 57.1373 28.4542 57.0479C28.5435 56.9585 28.5938 56.8373 28.5938 56.7109V34.7891C28.5938 34.6627 28.5435 34.5415 28.4542 34.4521C28.3648 34.3627 28.2436 34.3125 28.1172 34.3125H10.4844C10.2316 34.3125 9.98916 34.4129 9.81041 34.5917C9.63167 34.7704 9.53125 35.0128 9.53125 35.2656V49.5625ZM28.5938 30.0234V17.1562H32.4062V30.0234C32.4062 30.1498 32.4565 30.271 32.5458 30.3604C32.6352 30.4498 32.7564 30.5 32.8828 30.5H49.5625C50.2119 30.5 50.8566 30.3892 51.4688 30.1724C52.5828 29.7768 53.5472 29.0464 54.2297 28.0812C54.9123 27.1161 55.2796 25.9634 55.2812 24.7812V22.875C55.2812 21.3583 54.6787 19.9037 53.6063 18.8312C52.5338 17.7588 51.0792 17.1562 49.5625 17.1562H44.7325C44.691 17.1556 44.6504 17.1441 44.6147 17.1229C44.579 17.1017 44.5495 17.0716 44.529 17.0355C44.5086 16.9994 44.4979 16.9585 44.4981 16.917C44.4982 16.8755 44.5092 16.8348 44.53 16.7988C45.633 14.9365 45.9913 12.7261 45.5329 10.6107C45.0746 8.49532 43.8335 6.63142 42.0585 5.39273C40.2835 4.15405 38.1059 3.63215 35.9622 3.93169C33.8186 4.23123 31.8674 5.33006 30.5 7.00785C29.1326 5.33006 27.1814 4.23123 25.0378 3.93169C22.8941 3.63215 20.7165 4.15405 18.9415 5.39273C17.1665 6.63142 15.9254 8.49532 15.4671 10.6107C15.0087 12.7261 15.367 14.9365 16.47 16.7988C16.4908 16.8348 16.5018 16.8755 16.5019 16.917C16.5021 16.9585 16.4914 16.9994 16.471 17.0355C16.4505 17.0716 16.421 17.1017 16.3853 17.1229C16.3496 17.1441 16.309 17.1556 16.2675 17.1562H11.4375C9.92079 17.1562 8.46621 17.7588 7.39373 18.8312C6.32126 19.9037 5.71875 21.3583 5.71875 22.875V24.7812C5.72043 25.9634 6.08773 27.1161 6.77029 28.0812C7.45285 29.0464 8.41724 29.7768 9.53125 30.1724C10.1434 30.3892 10.7881 30.5 11.4375 30.5H28.1172C28.2436 30.5 28.3648 30.4498 28.4542 30.3604C28.5435 30.271 28.5938 30.1498 28.5938 30.0234ZM32.4062 12.3906C32.4062 11.4481 32.6857 10.5267 33.2094 9.74298C33.7331 8.95928 34.4773 8.34846 35.3481 7.98776C36.219 7.62706 37.1772 7.53268 38.1016 7.71657C39.026 7.90045 39.8752 8.35433 40.5417 9.02082C41.2082 9.6873 41.662 10.5365 41.8459 11.4609C42.0298 12.3853 41.9354 13.3435 41.5747 14.2143C41.214 15.0852 40.6032 15.8294 39.8195 16.3531C39.0358 16.8767 38.1144 17.1562 37.1719 17.1562H32.4062V12.3906ZM23.4874 7.63691C24.1403 7.59011 24.7958 7.67831 25.4131 7.896C26.0304 8.1137 26.5962 8.45623 27.0753 8.90224C27.5544 9.34824 27.9365 9.88816 28.1977 10.4883C28.459 11.0885 28.5938 11.7361 28.5938 12.3906V17.1562H23.8281C22.5958 17.1531 21.4127 16.6727 20.527 15.8159C19.6413 14.9592 19.1219 13.7926 19.0778 12.5611C19.0337 11.3296 19.4684 10.1289 20.2905 9.21103C21.1127 8.29312 22.2585 7.72937 23.4874 7.6381V7.63691ZM32.8828 57.1875H43.8438C45.866 57.1875 47.8055 56.3841 49.2354 54.9542C50.6654 53.5242 51.4688 51.5848 51.4688 49.5625V35.2656C51.4688 35.0128 51.3683 34.7704 51.1896 34.5917C51.0108 34.4129 50.7684 34.3125 50.5156 34.3125H32.8828C32.7564 34.3125 32.6352 34.3627 32.5458 34.4521C32.4565 34.5415 32.4062 34.6627 32.4062 34.7891V56.7109C32.4062 56.8373 32.4565 56.9585 32.5458 57.0479C32.6352 57.1373 32.7564 57.1875 32.8828 57.1875Z" fill="white"/>
</svg>
