<svg width="24" height="24" viewBox="0 0 24 24" fill="none" xmlns="http://www.w3.org/2000/svg">
<path d="M8.87501 21.0999L17.3 12.6999C17.4 12.5999 17.4707 12.4916 17.512 12.3749C17.554 12.2582 17.575 12.1332 17.575 11.9999C17.575 11.8666 17.554 11.7416 17.512 11.6249C17.4707 11.5082 17.4 11.3999 17.3 11.2999L8.87501 2.8749C8.64168 2.64157 8.35001 2.5249 8.00001 2.5249C7.65001 2.5249 7.35001 2.6499 7.10001 2.8999C6.85001 3.1499 6.72501 3.44157 6.72501 3.7749C6.72501 4.10824 6.85001 4.3999 7.10001 4.6499L14.45 11.9999L7.10001 19.3499C6.86668 19.5832 6.75001 19.8706 6.75001 20.2119C6.75001 20.5539 6.87501 20.8499 7.12501 21.0999C7.37501 21.3499 7.66668 21.4749 8.00001 21.4749C8.33335 21.4749 8.62501 21.3499 8.87501 21.0999Z" fill="black"/>
</svg>
