<svg xmlns="http://www.w3.org/2000/svg" width="700" height="196" fill="none" viewBox="0 0 700 196"><g clip-path="url(#clip0_6_4)"><path fill="#fff" d="M98.0617 146.962C70.9753 146.962 49.0434 125.019 49.0434 97.9748C49.0434 70.9055 71.0006 48.9874 98.0617 48.9874C122.343 48.9874 142.456 66.6633 146.347 89.8186H195.744C191.6 39.5182 149.455 0 98.0617 0C43.9142 0 0 43.8614 0 98C0 152.113 43.889 196 98.0617 196C149.455 196 191.6 156.457 195.744 106.181H146.347C142.456 129.312 122.369 146.962 98.0617 146.962ZM317.759 117.115H332.49C329.028 135.018 314.98 147.063 294.69 147.063C266.315 147.063 251.711 125.196 251.711 98.5555C251.711 72.0417 266.442 49.9217 294.69 49.9217C314.98 49.9217 328.776 61.7141 332.212 78.8091H317.229C314.98 68.8601 307.273 62.118 294.412 62.118C278.772 62.118 266.037 74.1881 266.037 95.5254V101.485C266.037 122.822 278.772 134.892 294.286 134.892C308.208 134.867 315.637 126.913 317.759 117.115ZM365.388 51.8913V132.998H412.334V145.195H351.314V51.8913H365.388ZM419.636 98.5555C419.636 72.0417 434.367 49.9217 462.742 49.9217C490.99 49.9217 505.721 72.067 505.721 98.5555C505.721 125.196 491.142 147.063 462.742 147.063C434.342 147.063 419.636 125.196 419.636 98.5555ZM491.37 101.485V95.5254C491.37 74.1881 478.382 62.118 462.716 62.118C446.925 62.118 433.937 74.1881 433.937 95.5254V101.485C433.937 122.822 446.925 134.892 462.716 134.892C478.382 134.867 491.37 122.822 491.37 101.485ZM525.051 112.595V51.8913H539.099V112.191C539.099 126.231 547.311 134.993 561.637 134.993C575.964 134.993 584.049 126.256 584.049 112.191V51.8913H598.098V112.595C598.098 132.619 584.833 147.189 561.637 147.189C538.316 147.215 525.051 132.619 525.051 112.595ZM700 98.5555C700 124.135 685.269 145.22 656.894 145.22H623.062V51.9165H656.894C685.143 51.8913 700 73.1023 700 98.5555ZM637.135 64.0876V132.998H656.894C672.535 132.998 685.547 121.736 685.547 101.586V95.4749C685.547 75.3244 672.56 64.0623 656.894 64.0623H637.135V64.0876Z"/></g><defs><clipPath id="clip0_6_4"><rect width="700" height="196" fill="#fff"/></clipPath></defs></svg>