<svg width="1073" height="504" viewBox="0 0 1073 504" fill="none" xmlns="http://www.w3.org/2000/svg">
<mask id="mask0_48_35063" style="mask-type:luminance" maskUnits="userSpaceOnUse" x="0" y="0" width="1351" height="840">
<path d="M1350.46 0H0V840H1350.46V0Z" fill="white"/>
</mask>
<g mask="url(#mask0_48_35063)">
<path d="M4.77995 70.7069L4.77697 70.6996C-9.16164 36.4867 16.1683 1 51.6663 1H279.112C300.663 1 318.394 13.6646 325.999 32.6791L506.922 484.987L506.929 485.004L506.937 485.022C511.986 496.381 512.002 510.315 506.922 523.013L393.199 807.321L393.197 807.328L393.194 807.335C376.734 850.383 315.901 850.456 298.132 807.318C298.131 807.316 298.13 807.314 298.129 807.312L4.77995 70.7069ZM842.195 70.7069L842.192 70.6996C828.253 36.4867 853.583 1 889.081 1H1116.53C1138.08 1 1155.81 13.6646 1163.41 32.6791L1344.34 484.987L1344.34 485.004L1344.35 485.022C1349.4 496.381 1349.42 510.315 1344.34 523.013L1230.61 807.321L1230.61 807.328L1230.61 807.335C1214.15 850.382 1153.32 850.456 1135.55 807.32C1135.55 807.317 1135.55 807.314 1135.54 807.312L842.195 70.7069ZM444.192 69.4575C444.191 69.4542 444.19 69.451 444.189 69.4477C432.783 36.4753 456.887 1 492.355 1H691.37C712.903 1 731.93 14.9382 739.544 33.9578C739.546 33.9623 739.548 33.9669 739.549 33.9714L904.945 486.224C904.946 486.228 904.948 486.233 904.949 486.238C908.751 497.653 908.752 509.053 904.95 520.469C904.948 520.474 904.946 520.479 904.945 520.484L805.448 791.836C788.971 836.198 725.585 836.198 709.108 791.836L444.192 69.4575Z" stroke="url(#paint0_linear_48_35063)" stroke-width="2"/>
</g>
<defs>
<linearGradient id="paint0_linear_48_35063" x1="-91.767" y1="269.743" x2="811.065" y2="1296.62" gradientUnits="userSpaceOnUse">
<stop stop-color="#F213A4"/>
<stop offset="0.1517" stop-color="#E011A7"/>
<stop offset="0.4554" stop-color="#B20DAF"/>
<stop offset="0.8789" stop-color="#6806BB"/>
<stop offset="1" stop-color="#5204BF"/>
</linearGradient>
</defs>
</svg>
