<svg width="102" height="101" viewBox="0 0 102 101" fill="none" xmlns="http://www.w3.org/2000/svg">
<path fill-rule="evenodd" clip-rule="evenodd" d="M63.1271 38.25C62.9498 28.0641 59.165 18.2819 52.4661 10.6363C67.0986 11.5248 78.7414 23.4863 79.1239 38.25H63.1271ZM61.6269 38.25C61.4441 28.1181 57.5633 18.4015 50.717 10.9318C43.8707 18.4015 39.9898 28.1181 39.8071 38.25H61.6269ZM57.929 59.517C58.1957 59.713 58.4493 59.9289 58.6873 60.1638C59.3088 60.7769 59.8257 61.4344 60.182 62.2312C60.5394 63.0304 60.7168 63.9281 60.7168 64.9993C60.7168 65.1749 60.7103 65.367 60.6951 65.5718L70.7154 53.9802L70.7293 53.9645C71.8522 52.7367 73.4074 51.982 75.074 51.8526C75.407 51.8268 75.7396 51.8263 76.0689 51.8503C77.9226 48.2005 79.0113 44.0967 79.1239 39.75H63.1271C63.0059 46.712 61.1994 53.4855 57.929 59.517ZM77.5982 52.1456C79.5422 48.1778 80.6336 43.7164 80.6336 39C80.6336 22.4775 67.2395 9.08331 50.717 9.08331C34.1944 9.08331 20.8003 22.4775 20.8003 39C20.8003 49.7 26.4176 59.088 34.8642 64.3758L22.4818 76.5909L20.0008 74.1434C19.7715 73.9172 19.4021 73.9197 19.1759 74.149C18.9496 74.3784 18.9521 74.7477 19.1815 74.974L37.6815 93.224C37.9108 93.4502 38.2802 93.4477 38.5064 93.2183C38.7327 92.989 38.7302 92.6197 38.5008 92.3934L36.0505 89.9762L40.1761 85.9064C40.6795 85.4068 41.2788 85.0099 41.9396 84.739C42.6004 84.4682 43.31 84.3289 44.0261 84.3294H59.8436L59.8488 84.3294C61.4365 84.3185 62.999 83.9343 64.4071 83.2084C65.7385 82.5219 66.8959 81.5483 67.7936 80.3602C67.8479 80.3175 67.897 80.2665 67.9393 80.2076L74.3528 71.2579C74.3919 71.2034 74.4226 71.1454 74.4452 71.0855L80.8913 62.0921L80.8936 62.0889C81.8742 60.7477 82.298 59.0852 82.0756 57.4433C81.8531 55.8002 81.001 54.3062 79.6981 53.2673C79.0677 52.7647 78.3549 52.387 77.5982 52.1456ZM35.9634 63.2914C27.9708 58.4267 22.5685 49.7284 22.31 39.75H38.3068C38.421 46.3068 40.03 52.6965 42.9489 58.4566C40.6814 59.0374 38.9503 60.3163 38.2402 61.0447L38.276 61.0387L38.2264 61.059L35.9634 63.2914ZM44.498 58.1896C44.7595 58.1665 45.0259 58.1542 45.2964 58.1542V58.166H53.8001C54.7849 58.166 55.7485 58.3734 56.6308 58.7644C59.7702 52.9601 61.5061 46.4457 61.6269 39.75H39.8071C39.9239 46.2256 41.5513 52.5315 44.498 58.1896ZM38.3068 38.25C38.4841 28.0641 42.2689 18.2819 48.9678 10.6363C34.3353 11.5248 22.6925 23.4863 22.31 38.25H38.3068ZM78.763 54.4402C77.7589 53.6397 76.4803 53.248 75.1901 53.3481C73.9034 53.448 72.7064 54.0292 71.8431 54.9694L58.9927 69.8349C58.9503 69.8839 58.903 69.9261 58.8521 69.9614C57.7757 71.0639 56.1538 71.8326 53.8001 71.8326H46.0925C45.6783 71.8326 45.3418 71.4968 45.3418 71.0826C45.3418 70.6684 45.6776 70.3326 46.0918 70.3326H53.8001C56.2025 70.3326 57.5063 69.4115 58.2407 68.3525C59.0069 67.2476 59.2168 65.8961 59.2168 64.9993C59.2168 64.1 59.0693 63.4173 58.8127 62.8436C58.5551 62.2675 58.1689 61.7594 57.6339 61.2316C56.6189 60.2303 55.24 59.666 53.8001 59.666H45.2904C43.0337 59.668 40.8722 60.5541 39.2805 62.1262L23.5498 77.6444L34.9826 88.9227L39.1195 84.8417C39.7633 84.2029 40.5288 83.6961 41.3707 83.3511C42.2128 83.0059 43.1154 82.8287 44.0267 82.8294H59.8409L59.8385 82.8295L59.8436 83.5794V82.8294H59.8409C61.1928 82.8197 62.5225 82.4924 63.7197 81.8752C64.9176 81.2576 65.9481 80.3677 66.7262 79.2801C66.7661 79.2243 66.8123 79.1756 66.863 79.1343L73.1091 70.4183C73.1317 70.3584 73.1625 70.3004 73.2015 70.2459L79.6809 61.206C80.4351 60.1758 80.7594 58.9014 80.5892 57.6446C80.419 56.3877 79.7666 55.2404 78.763 54.4402Z" fill="url(#paint0_linear_2124_902)"/>
<defs>
<linearGradient id="paint0_linear_2124_902" x1="50.5707" y1="9.08331" x2="50.5707" y2="93.392" gradientUnits="userSpaceOnUse">
<stop stop-color="#572A86"/>
<stop offset="1" stop-color="#842A86"/>
</linearGradient>
</defs>
</svg>
