<svg width="103" height="102" viewBox="0 0 103 102" fill="none" xmlns="http://www.w3.org/2000/svg">
<path fill-rule="evenodd" clip-rule="evenodd" d="M45.984 5.2286L50.757 0.455631C51.0499 0.162739 51.5247 0.162739 51.8176 0.455631L56.5906 5.2286C56.8835 5.5215 56.8835 5.99637 56.5906 6.28926C56.2977 6.58216 55.8228 6.58216 55.5299 6.28926L52.0373 2.79662V19.3946C51.788 19.3885 51.538 19.3855 51.2873 19.3855C51.0366 19.3855 50.7866 19.3885 50.5373 19.3946V2.79662L47.0447 6.28926C46.7518 6.58216 46.2769 6.58216 45.984 6.28926C45.6911 5.99637 45.6911 5.5215 45.984 5.2286ZM29.6601 28.3051L17.7377 16.3827H22.677C23.0912 16.3827 23.427 16.0469 23.427 15.6327C23.427 15.2185 23.0912 14.8827 22.677 14.8827L15.927 14.8827C15.5128 14.8827 15.177 15.2185 15.177 15.6327L15.177 22.3827C15.177 22.7969 15.5128 23.1327 15.927 23.1327C16.3412 23.1327 16.677 22.7969 16.677 22.3827V17.4433L28.6178 29.3841C28.9568 29.0161 29.3043 28.6563 29.6601 28.3051ZM20.2334 50.243H3.09093L6.58358 46.7503C6.87647 46.4574 6.87647 45.9826 6.58358 45.6897C6.29068 45.3968 5.81581 45.3968 5.52291 45.6897L0.749943 50.4627C0.45705 50.7555 0.45705 51.2304 0.749943 51.5233L5.52291 56.2963C5.81581 56.5892 6.29068 56.5892 6.58358 56.2963C6.87647 56.0034 6.87647 55.5285 6.58358 55.2356L3.09093 51.743H20.2334C20.2277 51.4937 20.2248 51.2437 20.2248 50.993C20.2248 50.7423 20.2277 50.4923 20.2334 50.243ZM28.6178 72.6018L16.677 84.5426L16.677 79.6033C16.677 79.1891 16.3412 78.8533 15.927 78.8533C15.5128 78.8533 15.177 79.1891 15.177 79.6033L15.177 86.3533C15.177 86.7675 15.5128 87.1033 15.927 87.1033H22.677C23.0912 87.1033 23.427 86.7675 23.427 86.3533C23.427 85.9391 23.0912 85.6033 22.677 85.6033H17.7376L29.6601 73.6809C29.3043 73.3297 28.9568 72.9699 28.6178 72.6018ZM50.5373 82.5914V99.1893L47.0447 95.6967C46.7518 95.4038 46.2769 95.4038 45.984 95.6967C45.6911 95.9896 45.6911 96.4645 45.984 96.7574L50.757 101.53C51.0499 101.823 51.5247 101.823 51.8176 101.53L56.5906 96.7574C56.8835 96.4645 56.8835 95.9896 56.5906 95.6967C56.2977 95.4038 55.8228 95.4038 55.5299 95.6967L52.0373 99.1893V82.5914C51.788 82.5974 51.538 82.6004 51.2873 82.6004C51.0366 82.6004 50.7866 82.5974 50.5373 82.5914ZM72.9145 73.6809L84.8369 85.6033L79.8976 85.6033C79.4834 85.6033 79.1476 85.9391 79.1476 86.3533C79.1476 86.7675 79.4834 87.1033 79.8976 87.1033H86.6476C87.0618 87.1033 87.3976 86.7675 87.3976 86.3533V79.6033C87.3976 79.1891 87.0618 78.8533 86.6476 78.8533C86.2334 78.8533 85.8976 79.1891 85.8976 79.6033V84.5426L73.9568 72.6018C73.6178 72.9699 73.2703 73.3297 72.9145 73.6809ZM82.3412 51.743H99.4837L95.991 55.2356C95.6981 55.5285 95.6981 56.0034 95.991 56.2963C96.2839 56.5892 96.7588 56.5892 97.0517 56.2963L101.825 51.5233C102.118 51.2304 102.118 50.7556 101.825 50.4627L97.0517 45.6897C96.7588 45.3968 96.2839 45.3968 95.991 45.6897C95.6981 45.9826 95.6981 46.4575 95.991 46.7503L99.4837 50.243H82.3412C82.3469 50.4923 82.3498 50.7423 82.3498 50.993C82.3498 51.2437 82.3469 51.4937 82.3412 51.743ZM73.9568 29.3841L85.8976 17.4433V22.3827C85.8976 22.7969 86.2334 23.1327 86.6476 23.1327C87.0618 23.1327 87.3976 22.7969 87.3976 22.3827V15.6327C87.3976 15.2185 87.0618 14.8827 86.6476 14.8827H79.8976C79.4834 14.8827 79.1476 15.2185 79.1476 15.6327C79.1476 16.0469 79.4834 16.3827 79.8976 16.3827H84.8369L72.9145 28.3051C73.2703 28.6563 73.6178 29.0161 73.9568 29.3841ZM59.0901 58.5241C60.1671 57.4283 61.6314 56.8094 63.1621 56.8094H73.2C73.7454 54.8217 74.0371 52.7257 74.0371 50.5594C74.0371 47.4938 73.4529 44.5688 72.3923 41.8927H65.5371C63.4932 41.8927 61.7871 43.6035 61.7871 45.7261C61.7871 47.2676 61.1855 48.7494 60.1091 49.8447C59.0322 50.9405 57.5678 51.5594 56.0371 51.5594C52.856 51.5594 50.2871 48.9202 50.2871 45.7261C50.2871 44.7038 49.8879 43.7269 49.1826 43.0093C48.478 42.2923 47.526 41.8927 46.5371 41.8927C44.3766 41.8927 42.3081 41.0192 40.7857 39.4702C39.264 37.9217 38.4121 35.8252 38.4121 33.6427V31.4576C33.3232 35.0206 29.7263 40.6383 28.7826 47.1427H34.6621C36.1928 47.1427 37.6572 47.7616 38.7341 48.8574C39.8105 49.9527 40.4121 51.4345 40.4121 52.9761V55.3927C40.4121 56.4149 40.8113 57.3919 41.5166 58.1095C42.2212 58.8265 43.1732 59.2261 44.1621 59.2261C45.6928 59.2261 47.1572 59.8449 48.2341 60.9408C49.3105 62.036 49.9121 63.5178 49.9121 65.0594V73.6844C50.367 73.712 50.8255 73.7261 51.2871 73.7261C53.4085 73.7261 55.4628 73.4301 57.4121 72.8763V62.6427C57.4121 61.1012 58.0138 59.6194 59.0901 58.5241ZM59.4121 72.2043C65.4454 69.8541 70.2496 64.9627 72.5528 58.8094H63.1621C62.1732 58.8094 61.2212 59.209 60.5166 59.926C59.8113 60.6436 59.4121 61.6205 59.4121 62.6427V72.2043ZM47.9121 73.4727V65.0594C47.9121 64.0372 47.5129 63.0602 46.8076 62.3426C46.103 61.6256 45.151 61.2261 44.1621 61.2261C42.6314 61.2261 41.1671 60.6072 40.0901 59.5113C39.0138 58.4161 38.4121 56.9343 38.4121 55.3927V52.9761C38.4121 51.9538 38.0129 50.9769 37.3076 50.2593C36.603 49.5423 35.651 49.1427 34.6621 49.1427H28.5789C28.5512 49.6113 28.5371 50.0836 28.5371 50.5594C28.5371 62.1998 36.9597 71.8131 47.9121 73.4727ZM40.4121 30.2067C43.6444 28.412 47.3503 27.3927 51.2871 27.3927C60.0657 27.3927 67.6959 32.4611 71.4881 39.8927H65.5371C62.356 39.8927 59.7871 42.5319 59.7871 45.7261C59.7871 46.7483 59.3879 47.7252 58.6826 48.4428C57.978 49.1598 57.026 49.5594 56.0371 49.5594C53.9932 49.5594 52.2871 47.8486 52.2871 45.7261C52.2871 44.1845 51.6855 42.7027 50.6091 41.6074C49.5322 40.5116 48.0678 39.8927 46.5371 39.8927C44.9183 39.8927 43.3623 39.2385 42.2122 38.0683C41.0616 36.8975 40.4121 35.3059 40.4121 33.6427V30.2067ZM73.9397 40.4061C70.1034 31.5697 61.4126 25.3927 51.2871 25.3927C37.6017 25.3927 26.5371 36.6767 26.5371 50.5594C26.5371 64.4421 37.6017 75.7261 51.2871 75.7261C64.9725 75.7261 76.0371 64.4421 76.0371 50.5594C76.0371 47.0212 75.3184 43.6519 74.0208 40.5951C74.0002 40.5289 73.9729 40.4656 73.9397 40.4061Z" fill="url(#paint0_linear_2124_941)"/>
<defs>
<linearGradient id="paint0_linear_2124_941" x1="51.2873" y1="0.235962" x2="51.2873" y2="101.75" gradientUnits="userSpaceOnUse">
<stop stop-color="#572A86"/>
<stop offset="1" stop-color="#842A86"/>
</linearGradient>
</defs>
</svg>
