<svg width="102" height="102" viewBox="0 0 102 102" fill="none" xmlns="http://www.w3.org/2000/svg">
<path fill-rule="evenodd" clip-rule="evenodd" d="M51.0166 7.07452C38.4626 7.07452 28.2856 17.2515 28.2856 29.8055V47.3324H24.8643C21.5505 47.3324 18.8643 50.0187 18.8643 53.3324V88.7822C18.8643 92.0959 21.5505 94.7822 24.8643 94.7822H76.7232C80.0369 94.7822 82.7232 92.0959 82.7232 88.7822V53.3324C82.7232 50.0187 80.0369 47.3324 76.7232 47.3324H39.2856V29.8055C39.2856 23.3267 44.5378 18.0745 51.0166 18.0745C57.4954 18.0745 62.7476 23.3267 62.7476 29.8055V34.5875C62.7476 37.6251 65.21 40.0875 68.2476 40.0875C71.2851 40.0875 73.7476 37.6251 73.7476 34.5875V29.8055C73.7476 17.2515 63.5706 7.07452 51.0166 7.07452ZM37.2856 47.3324H30.2856V29.8055C30.2856 18.3561 39.5672 9.07452 51.0166 9.07452C62.466 9.07452 71.7476 18.3561 71.7476 29.8055V34.5875C71.7476 36.5205 70.1806 38.0875 68.2476 38.0875C66.3146 38.0875 64.7476 36.5205 64.7476 34.5875V29.8055C64.7476 22.2221 58.6 16.0745 51.0166 16.0745C43.4332 16.0745 37.2856 22.2221 37.2856 29.8055V47.3324ZM76.7232 48.8324H24.8643C22.379 48.8324 20.3643 50.8471 20.3643 53.3324V88.7822C20.3643 91.2675 22.379 93.2822 24.8643 93.2822H76.7232C79.2085 93.2822 81.2232 91.2675 81.2232 88.7822V53.3324C81.2232 50.8471 79.2085 48.8324 76.7232 48.8324ZM57.0207 67.1058C57.0207 69.5162 55.5237 71.5769 53.4087 72.409V78.621C53.4087 79.7722 52.4754 80.7055 51.3242 80.7055C50.173 80.7055 49.2398 79.7722 49.2398 78.621V72.4091C47.1246 71.5771 45.6274 69.5163 45.6274 67.1058C45.6274 63.9597 48.1779 61.4092 51.3241 61.4092C54.4702 61.4092 57.0207 63.9597 57.0207 67.1058Z" fill="url(#paint0_linear_2211_8142)"/>
<defs>
<linearGradient id="paint0_linear_2211_8142" x1="50.7937" y1="7.07452" x2="50.7937" y2="94.7822" gradientUnits="userSpaceOnUse">
<stop stop-color="#572A86"/>
<stop offset="1" stop-color="#842A86"/>
</linearGradient>
</defs>
</svg>
