<svg width="102" height="102" viewBox="0 0 102 102" fill="none" xmlns="http://www.w3.org/2000/svg">
<path fill-rule="evenodd" clip-rule="evenodd" d="M89.6343 19.7096H11.9268C9.44148 19.7096 7.42676 21.7243 7.42676 24.2096V77.6471C7.42676 80.1324 9.44148 82.1471 11.9268 82.1471H89.6343C92.1196 82.1471 94.1343 80.1324 94.1343 77.6471V24.2096C94.1343 21.7243 92.1196 19.7096 89.6343 19.7096ZM11.9268 18.2096C8.61305 18.2096 5.92676 20.8959 5.92676 24.2096V77.6471C5.92676 80.9608 8.61305 83.6471 11.9268 83.6471H89.6343C92.948 83.6471 95.6343 80.9608 95.6343 77.6471V24.2096C95.6343 20.8959 92.948 18.2096 89.6343 18.2096H11.9268ZM19.4521 30.6783C19.8664 30.6783 20.2021 31.0141 20.2021 31.4283V38.7223H22.4966C23.0489 38.7223 23.4966 39.17 23.4966 39.7223V41.5912C23.4966 42.1435 23.0489 42.5912 22.4966 42.5912H20.2021L20.2021 70.4284C20.2021 70.8426 19.8664 71.1784 19.4521 71.1784C19.0379 71.1784 18.7021 70.8426 18.7021 70.4284L18.7021 42.5912H16.4565C15.9043 42.5912 15.4565 42.1435 15.4565 41.5912V39.7223C15.4565 39.17 15.9043 38.7223 16.4565 38.7223H18.7021V31.4283C18.7021 31.0141 19.0379 30.6783 19.4521 30.6783ZM33.1416 31.4283C33.1416 31.0141 32.8058 30.6783 32.3916 30.6783C31.9774 30.6783 31.6416 31.0141 31.6416 31.4283L31.6416 59.9693H29.2876C28.7353 59.9693 28.2876 60.417 28.2876 60.9693V62.8383C28.2876 63.3905 28.7353 63.8383 29.2876 63.8383H31.6416V70.4284C31.6416 70.8426 31.9774 71.1784 32.3916 71.1784C32.8058 71.1784 33.1416 70.8426 33.1416 70.4284V63.8383H35.3276C35.8799 63.8383 36.3276 63.3905 36.3276 62.8383V60.9693C36.3276 60.417 35.8799 59.9693 35.3276 59.9693H33.1416L33.1416 31.4283ZM45.3306 30.6783C45.7448 30.6783 46.0806 31.0141 46.0806 31.4283V47.0594H48.5732C49.1255 47.0594 49.5732 47.5071 49.5732 48.0594V49.9283C49.5732 50.4806 49.1255 50.9283 48.5732 50.9283H46.0806L46.0806 70.4284C46.0806 70.8426 45.7448 71.1784 45.3306 71.1784C44.9164 71.1784 44.5806 70.8426 44.5806 70.4284L44.5806 50.9283H42.5332C41.9809 50.9283 41.5332 50.4806 41.5332 49.9283V48.0594C41.5332 47.5071 41.9809 47.0594 42.5332 47.0594H44.5806V31.4283C44.5806 31.0141 44.9164 30.6783 45.3306 30.6783ZM72.1872 68.9284C78.2547 68.9284 83.1733 64.0098 83.1733 57.9424C83.1733 51.8749 78.2547 46.9563 72.1872 46.9563C66.1198 46.9563 61.2012 51.8749 61.2012 57.9424C61.2012 64.0098 66.1198 68.9284 72.1872 68.9284ZM72.1872 70.4284C79.0831 70.4284 84.6733 64.8382 84.6733 57.9424C84.6733 51.0465 79.0831 45.4563 72.1872 45.4563C65.2914 45.4563 59.7012 51.0465 59.7012 57.9424C59.7012 64.8382 65.2914 70.4284 72.1872 70.4284ZM73.8604 57.9423C73.8604 58.8665 73.1112 59.6157 72.187 59.6157C71.2628 59.6157 70.5137 58.8665 70.5137 57.9423C70.5137 57.0182 71.2628 56.269 72.187 56.269C73.1112 56.269 73.8604 57.0182 73.8604 57.9423ZM75.3604 57.9423C75.3604 59.6949 73.9396 61.1157 72.187 61.1157C70.4344 61.1157 69.0137 59.6949 69.0137 57.9423C69.0137 56.1897 70.4344 54.769 72.187 54.769C73.9396 54.769 75.3604 56.1897 75.3604 57.9423ZM63.875 31.4851C61.5116 31.8464 59.7012 33.888 59.7012 36.3524C59.7012 39.0719 61.9058 41.2765 64.6252 41.2765C67.3447 41.2765 69.5493 39.0719 69.5493 36.3524C69.5493 33.8878 67.7387 31.8461 65.375 31.485V35.5337C65.375 35.9479 65.0392 36.2837 64.625 36.2837C64.2108 36.2837 63.875 35.9479 63.875 35.5337V31.4851ZM79.7777 31.4567C82.2421 31.4567 84.2836 33.2671 84.6449 35.6305H80.5964C80.1822 35.6305 79.8464 35.9663 79.8464 36.3805C79.8464 36.7947 80.1822 37.1305 80.5964 37.1305H84.645C84.2839 39.4941 82.2422 41.3048 79.7777 41.3048C77.0582 41.3048 74.8536 39.1002 74.8536 36.3807C74.8536 33.6612 77.0582 31.4567 79.7777 31.4567Z" fill="url(#paint0_linear_2124_870)"/>
<defs>
<linearGradient id="paint0_linear_2124_870" x1="50.7805" y1="18.2096" x2="50.7805" y2="83.6471" gradientUnits="userSpaceOnUse">
<stop stop-color="#572A86"/>
<stop offset="1" stop-color="#842A86"/>
</linearGradient>
</defs>
</svg>
