<svg width="28" height="28" viewBox="0 0 28 28" fill="none" xmlns="http://www.w3.org/2000/svg">
<path fill-rule="evenodd" clip-rule="evenodd" d="M13.4777 2.46C15.1559 1.40711 17.1418 0.954933 19.1105 1.17744C21.0792 1.39996 22.914 2.28398 24.315 3.6849C25.7159 5.08582 26.5999 6.92069 26.8224 8.88936C27.0449 10.858 26.5928 12.8439 25.5399 14.5222C24.487 16.2004 22.8957 17.4717 21.0264 18.128C19.3932 18.7014 17.6322 18.7758 15.9657 18.3508L14.8248 19.4916C14.606 19.7104 14.3093 19.8334 13.9998 19.8334H12.8332V22.1667C12.8332 22.811 12.3108 23.3334 11.6665 23.3334H9.33317V25.6667C9.33317 26.311 8.81084 26.8334 8.1665 26.8334H3.49984C2.88471 26.8334 2.28146 26.6232 1.82905 26.1708C1.37664 25.7184 1.1665 25.1151 1.1665 24.5V21C1.1665 20.6906 1.28942 20.3939 1.50821 20.1751L9.6491 12.0342C9.2241 10.3676 9.29843 8.60668 9.87183 6.97349C10.5281 5.10415 11.7994 3.51288 13.4777 2.46ZM18.8484 3.49602C17.4048 3.33284 15.9484 3.66443 14.7177 4.43655C13.487 5.20867 12.5547 6.3756 12.0734 7.74645C11.5921 9.11729 11.5903 10.6109 12.0682 11.9829C12.2155 12.4056 12.1079 12.8752 11.7915 13.1917L3.49984 21.4833V24.5H6.99984V22.1667C6.99984 21.5224 7.52217 21 8.1665 21H10.4998V18.6667C10.4998 18.0224 11.0222 17.5 11.6665 17.5H13.5166L14.8082 16.2084C15.1247 15.8919 15.5943 15.7844 16.017 15.9316C17.389 16.4096 18.8826 16.4077 20.2534 15.9264C21.6243 15.4452 22.7912 14.5129 23.5633 13.2822C24.3354 12.0514 24.667 10.5951 24.5038 9.15142C24.3407 7.70773 23.6924 6.36216 22.665 5.33482C21.6377 4.30748 20.2921 3.65919 18.8484 3.49602Z" fill="url(#paint0_linear_2087_26632)"/>
<path d="M19.2498 9.33341C19.572 9.33341 19.8332 9.07225 19.8332 8.75008C19.8332 8.42792 19.572 8.16675 19.2498 8.16675C18.9277 8.16675 18.6665 8.42792 18.6665 8.75008C18.6665 9.07225 18.9277 9.33341 19.2498 9.33341Z" fill="url(#paint1_linear_2087_26632)"/>
<path fill-rule="evenodd" clip-rule="evenodd" d="M19.25 9.33333C19.5722 9.33333 19.8333 9.07217 19.8333 8.75C19.8333 8.42783 19.5722 8.16667 19.25 8.16667C18.9278 8.16667 18.6667 8.42783 18.6667 8.75C18.6667 9.07217 18.9278 9.33333 19.25 9.33333ZM17.5 8.75C17.5 7.7835 18.2835 7 19.25 7C20.2165 7 21 7.7835 21 8.75C21 9.7165 20.2165 10.5 19.25 10.5C18.2835 10.5 17.5 9.7165 17.5 8.75Z" fill="url(#paint2_linear_2087_26632)"/>
<defs>
<linearGradient id="paint0_linear_2087_26632" x1="25.0416" y1="-11.0771" x2="-12.8702" y2="45.9846" gradientUnits="userSpaceOnUse">
<stop stop-color="white"/>
<stop offset="1" stop-color="white" stop-opacity="0"/>
</linearGradient>
<linearGradient id="paint1_linear_2087_26632" x1="19.7499" y1="7.6132" x2="18.0296" y2="10.2024" gradientUnits="userSpaceOnUse">
<stop stop-color="white"/>
<stop offset="1" stop-color="white" stop-opacity="0"/>
</linearGradient>
<linearGradient id="paint2_linear_2087_26632" x1="20.75" y1="5.33937" x2="15.5892" y2="13.107" gradientUnits="userSpaceOnUse">
<stop stop-color="white"/>
<stop offset="1" stop-color="white" stop-opacity="0"/>
</linearGradient>
</defs>
</svg>
