<svg xmlns="http://www.w3.org/2000/svg" width="48" height="42" fill="none" viewBox="0 0 48 42"><path fill="url(#paint0_linear_408_1189)" d="M37.755 1.29033C37.561 0.902627 37.2629 0.57658 36.8941 0.348691C36.5252 0.120802 36.1003 6.58114e-05 35.6667 0H12.3334C11.449 0 10.6417 0.499333 10.245 1.29033L0.91171 19.957C0.749495 20.2812 0.665039 20.6387 0.665039 21.0012C0.665039 21.3637 0.749495 21.7212 0.91171 22.0453L10.245 40.712C10.6417 41.5007 11.449 42 12.3334 42H35.6667C36.551 42 37.3584 41.5007 37.755 40.7097L47.0884 22.043C47.2506 21.7188 47.335 21.3613 47.335 20.9988C47.335 20.6363 47.2506 20.2788 47.0884 19.9547L37.755 1.29033ZM41.2247 18.6667H23.1087L16.1087 4.66667H34.2247L41.2247 18.6667ZM34.2247 37.3333H16.1087L23.1087 23.3333H41.2247L34.2247 37.3333Z"/><defs><linearGradient id="paint0_linear_408_1189" x1="5.1" x2="53.4" y1="11.2" y2="42" gradientUnits="userSpaceOnUse"><stop stop-color="#fff"/><stop offset="1" stop-color="#fff"/></linearGradient></defs></svg>