<svg width="91" height="22" viewBox="0 0 91 22" fill="none" xmlns="http://www.w3.org/2000/svg">
<path d="M18.9625 6.46273C15.7294 6.46273 13.2031 8.93048 13.2031 12.2341C13.2031 15.5377 15.6656 17.9844 18.9625 17.9844C22.2595 17.9844 24.7648 15.4955 24.7648 12.213C24.7648 8.9516 22.3023 6.46273 18.9625 6.46273ZM18.9844 15.6035C17.1432 15.6035 15.794 14.1658 15.794 12.2349C15.794 10.2821 17.1214 8.84519 18.9625 8.84519C20.8255 8.84519 22.1739 10.3041 22.1739 12.2349C22.1739 14.1658 20.8255 15.6035 18.9844 15.6035ZM25.4709 8.97353H27.077V17.7707H29.646V6.67718H25.4709V8.97353ZM6.73761 8.84438C8.08678 8.84438 9.15723 9.68104 9.5636 10.9255H12.2829C11.7901 8.26521 9.60641 6.46273 6.75942 6.46273C3.52626 6.46273 1 8.93048 1 12.2349C1 15.5393 3.46244 17.9852 6.75942 17.9852C9.54259 17.9852 11.7691 16.1827 12.2619 13.5005H9.5636C9.17823 14.7449 8.10778 15.6035 6.75861 15.6035C4.89563 15.6035 3.59008 14.1658 3.59008 12.2349C3.59089 10.2821 4.87543 8.84438 6.73761 8.84438ZM74.285 11.1619L72.401 10.8832C71.5018 10.7549 70.8596 10.4543 70.8596 9.74602C70.8596 8.97353 71.6949 8.58769 72.8292 8.58769C74.0709 8.58769 74.8634 9.12381 75.0347 10.0035H77.5182C77.2394 7.77215 75.5267 6.46355 72.8938 6.46355C70.1745 6.46355 68.3761 7.85825 68.3761 9.83213C68.3761 11.7199 69.554 12.8149 71.93 13.1577L73.814 13.4363C74.735 13.5647 75.2488 13.9302 75.2488 14.6166C75.2488 15.4963 74.3496 15.861 73.1079 15.861C71.5875 15.861 70.7311 15.2388 70.6026 14.2949H68.0764C68.3123 16.4621 70.0032 17.9852 73.0861 17.9852C75.8911 17.9852 77.7533 16.6977 77.7533 14.4874C77.7533 12.5136 76.4049 11.4835 74.285 11.1619ZM28.3615 2.10722C27.4195 2.10722 26.7126 2.79361 26.7126 3.73749C26.7126 4.68138 27.4187 5.36776 28.3615 5.36776C29.3035 5.36776 30.0104 4.68138 30.0104 3.73749C30.0104 2.79361 29.3035 2.10722 28.3615 2.10722ZM66.0639 10.4755C66.0639 8.0727 64.6081 6.46355 61.5252 6.46355C58.6136 6.46355 56.9865 7.94436 56.665 10.2188H59.2131C59.3415 9.33906 60.0266 8.60963 61.4824 8.60963C62.7888 8.60963 63.431 9.18879 63.431 9.89711C63.431 10.8199 62.2531 11.0554 60.7973 11.2057C58.8277 11.4202 56.3871 12.1066 56.3871 14.6816C56.3871 16.6774 57.8647 17.964 60.2197 17.964C62.0609 17.964 63.217 17.1916 63.7954 15.9682C63.881 17.0624 64.6946 17.7707 65.8297 17.7707H67.3283V15.4752H66.0648V10.4755H66.0639ZM63.5377 13.2649C63.5377 14.7457 62.2531 15.8399 60.6899 15.8399C59.7261 15.8399 58.9125 15.4321 58.9125 14.5743C58.9125 13.4802 60.2189 13.1796 61.4178 13.0513C62.5739 12.9441 63.2161 12.6866 63.5377 12.1927V13.2649ZM49.8998 6.46273C48.4649 6.46273 47.266 7.06383 46.4097 8.07189V2H43.8406V17.7707H46.3669V16.3118C47.2232 17.3629 48.4439 17.9852 49.8998 17.9852C52.9826 17.9852 55.3166 15.5393 55.3166 12.2349C55.3166 8.93048 52.9398 6.46273 49.8998 6.46273ZM49.5144 15.6035C47.6732 15.6035 46.324 14.1658 46.324 12.2349C46.324 10.3041 47.6942 8.84519 49.5354 8.84519C51.3984 8.84519 52.7039 10.283 52.7039 12.2349C52.7039 14.1658 51.3556 15.6035 49.5144 15.6035ZM37.6958 6.46273C36.0259 6.46273 34.9337 7.14912 34.2914 8.11494V6.67718H31.7433V17.7699H34.3124V11.741C34.3124 10.0458 35.3828 8.84438 36.9671 8.84438C38.4447 8.84438 39.3649 9.89549 39.3649 11.4194V17.7707H41.934V11.2268C41.9348 8.43661 40.5008 6.46273 37.6958 6.46273ZM90 11.8702C90 8.69492 87.6878 6.46355 84.5831 6.46355C81.2861 6.46355 78.8665 8.95241 78.8665 12.2349C78.8665 15.6896 81.4574 17.9852 84.6259 17.9852C87.3025 17.9852 89.4005 16.3971 89.9354 14.1446H87.2588C86.8735 15.1316 85.9315 15.6896 84.668 15.6896C83.0191 15.6896 81.7773 14.6596 81.4994 12.8572H89.9992V11.8702H90ZM81.6497 11.0116C82.0569 9.46659 83.213 8.71604 84.5403 8.71604C85.9961 8.71604 87.1094 9.5527 87.3663 11.0116H81.6497Z" fill="#F1F1F1"/>
</svg>
