<svg width="46" height="46" viewBox="0 0 46 46" fill="none" xmlns="http://www.w3.org/2000/svg">
<path d="M16.4433 9.81666C11.6833 15.16 8.41662 22.8367 8.11329 23.56L2.83996 21.2967C1.32329 20.6433 0.949957 18.66 2.11662 17.4933L9.13996 10.47C10.2366 9.37333 11.8233 8.88332 13.3633 9.18666L16.4433 9.81666ZM19.92 33.5233C20.62 34.2233 21.6466 34.41 22.5333 33.99C25.24 32.73 31.05 29.7667 34.8066 26.01C45.5166 15.3 45.61 6.57332 44.98 2.83999C44.8974 2.38141 44.6765 1.95905 44.347 1.62956C44.0176 1.30008 43.5952 1.07924 43.1366 0.996658C39.4033 0.366658 30.6766 0.459991 19.9666 11.17C16.21 14.9267 13.27 20.7367 11.9866 23.4433C11.5666 24.33 11.7766 25.38 12.4533 26.0567L19.92 33.5233ZM36.1833 29.5567C30.84 34.3167 23.1633 37.5833 22.44 37.8867L24.7033 43.16C25.3566 44.6767 27.34 45.05 28.5066 43.8833L35.53 36.86C36.6266 35.7633 37.1166 34.1767 36.8133 32.6367L36.1833 29.5567ZM15.86 35.6233C16.0862 36.7534 16.03 37.9218 15.6962 39.0249C15.3624 40.128 14.7614 41.1316 13.9466 41.9467C12.15 43.7433 6.57329 45.0733 2.95662 45.7733C1.34662 46.0767 -0.0767099 44.6533 0.226623 43.0433C0.926623 39.4267 2.23329 33.85 4.05329 32.0533C4.86833 31.2385 5.87195 30.6375 6.97504 30.3038C8.07813 29.97 9.24657 29.9137 10.3766 30.14C13.1066 30.6533 15.3466 32.8933 15.86 35.6233ZM25.3333 16C25.3333 13.4333 27.4333 11.3333 30 11.3333C32.5666 11.3333 34.6666 13.4333 34.6666 16C34.6666 18.5667 32.5666 20.6667 30 20.6667C27.4333 20.6667 25.3333 18.5667 25.3333 16Z" fill="url(#paint0_linear_408_1191)"/>
<defs>
<linearGradient id="paint0_linear_408_1191" x1="0.185547" y1="23.2991" x2="47.4454" y2="24.9604" gradientUnits="userSpaceOnUse">
<stop stop-color="#fff"/>
<stop offset="1" stop-color="#fff"/>
</linearGradient>
</defs>
</svg>
