<svg width="84" height="24" viewBox="0 0 84 24" fill="none" xmlns="http://www.w3.org/2000/svg">
<g clip-path="url(#clip0_406_1155)">
<path d="M9.492 0.83914C9.66 0.83914 9.744 0.923056 9.912 1.00697C8.904 1.42655 7.896 2.51746 7.392 4.86711L5.544 5.37061C6.132 3.69229 7.308 0.83914 9.492 0.83914ZM10.416 1.6783C10.584 2.1818 10.752 2.76921 10.752 3.69229C10.752 3.7762 10.752 3.7762 10.752 3.86012L8.316 4.53145C8.82 2.76921 9.66 2.01396 10.416 1.6783ZM12.6 3.18879L11.508 3.52445C11.508 3.44054 11.508 3.35662 11.508 3.27271C11.508 2.51746 11.424 1.93005 11.256 1.42655C11.844 1.59438 12.348 2.34963 12.6 3.18879ZM18.06 4.53145C18.06 4.44753 17.976 4.36362 17.892 4.36362C17.724 4.36362 15.96 4.19578 15.96 4.19578C15.96 4.19578 14.7 2.93704 14.532 2.85313C14.364 2.68529 14.112 2.76921 14.028 2.76921C14.028 2.76921 13.776 2.85313 13.356 3.02096C12.936 1.84613 12.18 0.755224 10.92 0.755224H10.836C10.5 0.251727 9.996 0.0838951 9.576 0.0838951C6.552 -2.09361e-05 5.124 3.7762 4.62 5.70627C3.948 5.8741 3.276 6.12585 2.52 6.3776C1.848 6.54543 1.848 6.62935 1.764 7.21676C1.68 7.63634 0 20.8951 0 20.8951L13.356 23.4126L20.58 21.8182C20.58 21.8182 18.06 4.69928 18.06 4.53145Z" fill="#8DB849"/>
<path d="M17.808 4.36363C17.724 4.36363 15.96 4.1958 15.96 4.1958C15.96 4.1958 14.7 2.93706 14.532 2.85314C14.448 2.76923 14.448 2.76923 14.364 2.76923L13.356 23.4126L20.58 21.8182C20.58 21.8182 18.06 4.6993 18.06 4.53146C18.06 4.44755 17.892 4.36363 17.808 4.36363Z" fill="#5A863E"/>
<path d="M10.9199 8.39156L9.99591 11.0769C9.99591 11.0769 9.23991 10.6573 8.23191 10.6573C6.80391 10.6573 6.71991 11.4965 6.71991 11.7482C6.71991 12.923 9.91191 13.4265 9.91191 16.2797C9.91191 18.5454 8.48391 19.972 6.55191 19.972C4.28391 19.972 3.10791 18.5454 3.10791 18.5454L3.69591 16.5314C3.69591 16.5314 4.87191 17.5384 5.87991 17.5384C6.55191 17.5384 6.80391 17.0349 6.80391 16.6153C6.80391 15.0209 4.19991 14.937 4.19991 12.3356C4.19991 10.1538 5.79591 8.0559 8.90391 8.0559C10.3319 7.97198 10.9199 8.39156 10.9199 8.39156Z" fill="#FFFFFE"/>
<path d="M29.0639 13.3426C28.3079 12.923 27.9719 12.5874 27.9719 12.1678C27.9719 11.5804 28.4759 11.2447 29.3159 11.2447C30.2399 11.2447 31.0799 11.6643 31.0799 11.6643L31.7519 9.65032C31.7519 9.65032 31.1639 9.14682 29.3999 9.14682C26.8799 9.14682 25.1999 10.5734 25.1999 12.5874C25.1999 13.7622 26.0399 14.6014 27.0479 15.1888C27.8879 15.6923 28.2239 16.0279 28.2239 16.5314C28.2239 17.0349 27.8039 17.5384 26.9639 17.5384C25.7879 17.5384 24.6119 16.951 24.6119 16.951L23.9399 18.965C23.9399 18.965 24.9479 19.6363 26.7119 19.6363C29.2319 19.6363 31.0799 18.3776 31.0799 16.1119C31.0799 14.8531 30.1559 13.93 29.0639 13.3426ZM39.2279 9.06291C37.9679 9.06291 36.9599 9.65032 36.2039 10.5734L37.2959 4.8671H34.4399L31.6679 19.3846H34.5239L35.4479 14.4335C35.7839 12.5874 36.7919 11.4126 37.7159 11.4126C38.3879 11.4126 38.6399 11.8321 38.6399 12.5035C38.6399 12.923 38.6399 13.3426 38.5559 13.7622L37.4639 19.4685H40.3199L41.4119 13.5944C41.4959 13.007 41.5799 12.2517 41.5799 11.7482C41.5799 10.0699 40.7399 9.06291 39.2279 9.06291ZM46.5359 17.3706C45.5279 17.3706 45.1919 16.5314 45.1919 15.5244C45.1919 13.93 46.0319 11.2447 47.5439 11.2447C48.5519 11.2447 48.8879 12.0839 48.8879 12.923C48.8879 14.7692 48.0479 17.3706 46.5359 17.3706ZM47.9639 9.06291C44.5199 9.06291 42.2519 12.1678 42.2519 15.6084C42.2519 17.7902 43.5959 19.5524 46.1999 19.5524C49.5599 19.5524 51.8279 16.5314 51.8279 13.007C51.8279 10.993 50.6519 9.06291 47.9639 9.06291ZM56.3639 17.4545C55.6079 17.4545 55.1879 17.0349 55.1879 17.0349L55.6919 14.3496C56.0279 12.5874 56.9519 11.4126 57.9599 11.4126C58.7999 11.4126 59.1359 12.2517 59.1359 13.007C59.0519 14.8531 57.9599 17.4545 56.3639 17.4545ZM59.1359 9.06291C57.2039 9.06291 56.1119 10.7412 56.1119 10.7412L56.2799 9.23074H53.7599C53.6759 10.2377 53.4239 11.8321 53.1719 13.007L51.1559 23.4126H54.0119L54.7679 19.2168H54.8519C54.8519 19.2168 55.4399 19.5524 56.5319 19.5524C59.8919 19.5524 62.0759 16.1119 62.0759 12.6713C62.0759 10.8251 61.2359 9.06291 59.1359 9.06291ZM66.1079 5.03494C65.1839 5.03494 64.5119 5.79018 64.5119 6.71326C64.5119 7.55242 65.0159 8.13983 65.8559 8.13983C66.7799 8.13983 67.5359 7.55242 67.5359 6.46151C67.5359 5.62235 66.9479 5.03494 66.1079 5.03494ZM62.1599 19.3846H65.0159L66.9479 9.31466H64.0919L62.1599 19.3846ZM74.1719 9.31466H72.1559L72.2399 8.81116C72.4079 7.80417 72.9959 6.96501 73.9199 6.96501C74.4239 6.96501 74.8439 7.13284 74.8439 7.13284L75.4319 4.8671C75.4319 4.8671 74.9279 4.61536 73.9199 4.61536C72.9119 4.61536 71.9039 4.8671 71.1479 5.53843C70.1399 6.37759 69.7199 7.55242 69.4679 8.72724L69.3839 9.23074H68.0399L67.6199 11.4126H68.9639L67.4519 19.3846H70.3079L71.8199 11.4126H73.7519L74.1719 9.31466ZM80.9759 9.31466C80.9759 9.31466 79.2119 13.7622 78.3719 16.1958C78.2879 15.4405 77.6999 9.31466 77.6999 9.31466H74.6759L76.3559 18.5454C76.3559 18.7133 76.3559 18.8811 76.2719 19.0489C75.9359 19.7203 75.3479 20.3077 74.7599 20.7272C74.2559 21.1468 73.5839 21.3986 73.1639 21.5664L73.9199 24C74.5079 23.9161 75.6839 23.4126 76.6919 22.4895C77.9519 21.3147 79.2119 19.3846 80.3879 16.8671L83.8319 9.39857L80.9759 9.31466Z" fill="#F1F1F1"/>
</g>
<defs>
<clipPath id="clip0_406_1155">
<rect width="84" height="24" fill="white"/>
</clipPath>
</defs>
</svg>
