<svg width="2400" height="598" viewBox="0 0 2400 598" fill="none" xmlns="http://www.w3.org/2000/svg">
<rect x="694.044" y="93.5" width="397" height="411" rx="32" fill="url(#paint0_linear_3661_784)"/>
<path fill-rule="evenodd" clip-rule="evenodd" d="M852.544 190C849.782 190 847.544 192.239 847.544 195V255C847.544 257.761 849.782 260 852.544 260H932.544C935.305 260 937.544 257.761 937.544 255V195C937.544 192.239 935.305 190 932.544 190H852.544ZM837.544 195C837.544 186.716 844.259 180 852.544 180H932.544C940.828 180 947.544 186.716 947.544 195V255C947.544 263.284 940.828 270 932.544 270H852.544C844.259 270 837.544 263.284 837.544 255V195Z" fill="white"/>
<path fill-rule="evenodd" clip-rule="evenodd" d="M882.544 180C885.305 180 887.544 182.239 887.544 185V205C887.544 207.761 885.305 210 882.544 210C879.782 210 877.544 207.761 877.544 205V185C877.544 182.239 879.782 180 882.544 180Z" fill="white"/>
<path fill-rule="evenodd" clip-rule="evenodd" d="M837.544 205C837.544 202.239 839.782 200 842.544 200H942.544C945.305 200 947.544 202.239 947.544 205C947.544 207.761 945.305 210 942.544 210H842.544C839.782 210 837.544 207.761 837.544 205Z" fill="white"/>
<path fill-rule="evenodd" clip-rule="evenodd" d="M862.544 180C865.305 180 867.544 182.239 867.544 185V205C867.544 207.761 865.305 210 862.544 210C859.782 210 857.544 207.761 857.544 205V185C857.544 182.239 859.782 180 862.544 180Z" fill="white"/>
<path d="M757.606 368H747.011V335.273H757.941C761.148 335.273 763.902 335.928 766.203 337.238C768.504 338.538 770.267 340.408 771.492 342.847C772.728 345.276 773.346 348.19 773.346 351.588C773.346 354.998 772.723 357.927 771.476 360.377C770.24 362.828 768.451 364.713 766.107 366.034C763.763 367.345 760.929 368 757.606 368ZM751.949 363.685H757.334C759.827 363.685 761.899 363.217 763.55 362.279C765.201 361.331 766.437 359.962 767.257 358.172C768.078 356.372 768.488 354.177 768.488 351.588C768.488 349.021 768.078 346.842 767.257 345.053C766.448 343.263 765.239 341.904 763.63 340.978C762.021 340.051 760.024 339.587 757.637 339.587H751.949V363.685ZM789.682 368.495C787.263 368.495 785.181 367.979 783.433 366.945C781.697 365.901 780.355 364.436 779.406 362.551C778.469 360.654 778 358.433 778 355.887C778 353.373 778.469 351.157 779.406 349.239C780.355 347.322 781.676 345.825 783.369 344.749C785.074 343.673 787.066 343.135 789.346 343.135C790.731 343.135 792.073 343.364 793.373 343.822C794.673 344.28 795.839 344.999 796.873 345.979C797.906 346.96 798.721 348.233 799.318 349.799C799.914 351.354 800.212 353.245 800.212 355.472V357.165H780.701V353.586H795.53C795.53 352.329 795.275 351.216 794.763 350.246C794.252 349.266 793.533 348.494 792.606 347.929C791.69 347.364 790.614 347.082 789.378 347.082C788.036 347.082 786.864 347.412 785.862 348.073C784.872 348.723 784.105 349.575 783.561 350.63C783.029 351.674 782.762 352.808 782.762 354.033V356.83C782.762 358.471 783.05 359.866 783.625 361.017C784.211 362.167 785.026 363.046 786.07 363.653C787.114 364.25 788.334 364.548 789.73 364.548C790.635 364.548 791.461 364.42 792.206 364.165C792.952 363.898 793.597 363.504 794.14 362.982C794.683 362.46 795.099 361.816 795.386 361.049L799.909 361.864C799.547 363.195 798.897 364.362 797.959 365.363C797.032 366.354 795.866 367.126 794.46 367.68C793.064 368.224 791.471 368.495 789.682 368.495ZM815.853 368.495C813.477 368.495 811.432 367.957 809.717 366.881C808.012 365.795 806.702 364.298 805.786 362.391C804.869 360.484 804.411 358.3 804.411 355.839C804.411 353.346 804.88 351.146 805.818 349.239C806.755 347.322 808.076 345.825 809.781 344.749C811.485 343.673 813.493 343.135 815.805 343.135C817.669 343.135 819.331 343.481 820.791 344.174C822.25 344.855 823.428 345.814 824.322 347.05C825.228 348.286 825.766 349.729 825.936 351.381H821.286C821.031 350.23 820.445 349.239 819.528 348.408C818.623 347.577 817.408 347.162 815.885 347.162C814.553 347.162 813.387 347.513 812.385 348.217C811.395 348.909 810.622 349.9 810.068 351.189C809.514 352.467 809.237 353.98 809.237 355.727C809.237 357.517 809.509 359.062 810.052 360.362C810.596 361.661 811.363 362.668 812.353 363.382C813.355 364.096 814.532 364.452 815.885 364.452C816.791 364.452 817.611 364.287 818.346 363.957C819.092 363.616 819.715 363.131 820.216 362.503C820.727 361.874 821.084 361.118 821.286 360.234H825.936C825.766 361.821 825.249 363.238 824.386 364.484C823.523 365.731 822.368 366.711 820.919 367.425C819.481 368.138 817.792 368.495 815.853 368.495ZM841.625 368.495C839.207 368.495 837.124 367.979 835.377 366.945C833.64 365.901 832.298 364.436 831.35 362.551C830.412 360.654 829.943 358.433 829.943 355.887C829.943 353.373 830.412 351.157 831.35 349.239C832.298 347.322 833.619 345.825 835.313 344.749C837.017 343.673 839.01 343.135 841.289 343.135C842.674 343.135 844.017 343.364 845.316 343.822C846.616 344.28 847.783 344.999 848.816 345.979C849.849 346.96 850.664 348.233 851.261 349.799C851.858 351.354 852.156 353.245 852.156 355.472V357.165H832.644V353.586H847.474C847.474 352.329 847.218 351.216 846.707 350.246C846.195 349.266 845.476 348.494 844.549 347.929C843.633 347.364 842.557 347.082 841.321 347.082C839.979 347.082 838.807 347.412 837.806 348.073C836.815 348.723 836.048 349.575 835.505 350.63C834.972 351.674 834.706 352.808 834.706 354.033V356.83C834.706 358.471 834.993 359.866 835.568 361.017C836.154 362.167 836.969 363.046 838.013 363.653C839.057 364.25 840.277 364.548 841.673 364.548C842.578 364.548 843.404 364.42 844.15 364.165C844.896 363.898 845.54 363.504 846.083 362.982C846.627 362.46 847.042 361.816 847.33 361.049L851.852 361.864C851.49 363.195 850.84 364.362 849.903 365.363C848.976 366.354 847.809 367.126 846.403 367.68C845.007 368.224 843.415 368.495 841.625 368.495ZM862.235 353.426V368H857.457V343.455H862.044V347.45H862.347C862.912 346.15 863.796 345.106 865 344.317C866.214 343.529 867.743 343.135 869.586 343.135C871.259 343.135 872.724 343.487 873.981 344.19C875.238 344.882 876.213 345.915 876.905 347.29C877.598 348.664 877.944 350.363 877.944 352.387V368H873.166V352.963C873.166 351.184 872.702 349.793 871.775 348.792C870.849 347.78 869.575 347.274 867.956 347.274C866.848 347.274 865.863 347.513 865 347.993C864.148 348.472 863.471 349.175 862.97 350.102C862.48 351.018 862.235 352.126 862.235 353.426ZM895.81 343.455V347.29H882.402V343.455H895.81ZM885.998 337.574H890.776V360.793C890.776 361.72 890.914 362.418 891.191 362.886C891.468 363.344 891.825 363.659 892.262 363.829C892.709 363.989 893.194 364.069 893.716 364.069C894.1 364.069 894.435 364.042 894.723 363.989C895.011 363.936 895.234 363.893 895.394 363.861L896.257 367.808C895.98 367.915 895.586 368.021 895.074 368.128C894.563 368.245 893.924 368.309 893.157 368.32C891.9 368.341 890.728 368.117 889.641 367.648C888.555 367.18 887.676 366.455 887.004 365.475C886.333 364.495 885.998 363.265 885.998 361.784V337.574ZM901.095 368V343.455H905.713V347.354H905.969C906.416 346.033 907.205 344.994 908.334 344.238C909.474 343.471 910.763 343.087 912.201 343.087C912.499 343.087 912.851 343.098 913.256 343.119C913.671 343.14 913.996 343.167 914.231 343.199V347.769C914.039 347.716 913.698 347.657 913.208 347.593C912.718 347.519 912.228 347.482 911.738 347.482C910.608 347.482 909.602 347.721 908.717 348.201C907.844 348.669 907.151 349.325 906.64 350.166C906.129 350.997 905.873 351.945 905.873 353.011V368H901.095ZM925.289 368.543C923.733 368.543 922.327 368.256 921.07 367.68C919.813 367.094 918.817 366.248 918.082 365.14C917.357 364.032 916.995 362.673 916.995 361.065C916.995 359.68 917.261 358.54 917.794 357.645C918.327 356.75 919.046 356.042 919.951 355.52C920.857 354.998 921.869 354.603 922.988 354.337C924.106 354.071 925.246 353.868 926.407 353.73C927.878 353.559 929.071 353.421 929.987 353.314C930.903 353.197 931.569 353.011 931.984 352.755C932.4 352.499 932.608 352.084 932.608 351.509V351.397C932.608 350.001 932.214 348.92 931.425 348.153C930.647 347.386 929.486 347.002 927.942 347.002C926.333 347.002 925.065 347.359 924.138 348.073C923.222 348.776 922.588 349.559 922.237 350.422L917.746 349.399C918.279 347.908 919.057 346.704 920.079 345.788C921.113 344.861 922.301 344.19 923.643 343.774C924.985 343.348 926.397 343.135 927.878 343.135C928.858 343.135 929.896 343.252 930.994 343.487C932.102 343.71 933.135 344.126 934.094 344.733C935.063 345.34 935.857 346.208 936.475 347.338C937.093 348.456 937.402 349.911 937.402 351.7V368H932.736V364.644H932.544C932.235 365.262 931.771 365.869 931.154 366.466C930.536 367.062 929.742 367.558 928.772 367.952C927.803 368.346 926.642 368.543 925.289 368.543ZM926.328 364.708C927.649 364.708 928.778 364.447 929.715 363.925C930.663 363.403 931.383 362.721 931.873 361.88C932.373 361.027 932.624 360.116 932.624 359.147V355.983C932.453 356.153 932.123 356.313 931.633 356.462C931.154 356.601 930.605 356.723 929.987 356.83C929.369 356.926 928.767 357.016 928.181 357.102C927.595 357.176 927.105 357.24 926.711 357.293C925.784 357.411 924.937 357.608 924.17 357.885C923.414 358.162 922.807 358.561 922.348 359.083C921.901 359.594 921.677 360.276 921.677 361.129C921.677 362.311 922.114 363.206 922.988 363.813C923.861 364.41 924.975 364.708 926.328 364.708ZM948.544 335.273V368H943.766V335.273H948.544ZM954.972 368V343.455H959.75V368H954.972ZM957.385 339.667C956.554 339.667 955.84 339.39 955.244 338.836C954.658 338.272 954.365 337.6 954.365 336.823C954.365 336.034 954.658 335.363 955.244 334.809C955.84 334.245 956.554 333.962 957.385 333.962C958.216 333.962 958.924 334.245 959.51 334.809C960.107 335.363 960.405 336.034 960.405 336.823C960.405 337.6 960.107 338.272 959.51 338.836C958.924 339.39 958.216 339.667 957.385 339.667ZM965.667 368V364.724L978.962 347.833V347.609H966.098V343.455H984.923V346.938L972.139 363.621V363.845H985.37V368H965.667ZM1000.88 368.495C998.464 368.495 996.382 367.979 994.635 366.945C992.898 365.901 991.556 364.436 990.608 362.551C989.67 360.654 989.201 358.433 989.201 355.887C989.201 353.373 989.67 351.157 990.608 349.239C991.556 347.322 992.877 345.825 994.571 344.749C996.275 343.673 998.267 343.135 1000.55 343.135C1001.93 343.135 1003.27 343.364 1004.57 343.822C1005.87 344.28 1007.04 344.999 1008.07 345.979C1009.11 346.96 1009.92 348.233 1010.52 349.799C1011.12 351.354 1011.41 353.245 1011.41 355.472V357.165H991.902V353.586H1006.73C1006.73 352.329 1006.48 351.216 1005.96 350.246C1005.45 349.266 1004.73 348.494 1003.81 347.929C1002.89 347.364 1001.81 347.082 1000.58 347.082C999.237 347.082 998.065 347.412 997.064 348.073C996.073 348.723 995.306 349.575 994.762 350.63C994.23 351.674 993.963 352.808 993.963 354.033V356.83C993.963 358.471 994.251 359.866 994.826 361.017C995.412 362.167 996.227 363.046 997.271 363.653C998.315 364.25 999.535 364.548 1000.93 364.548C1001.84 364.548 1002.66 364.42 1003.41 364.165C1004.15 363.898 1004.8 363.504 1005.34 362.982C1005.88 362.46 1006.3 361.816 1006.59 361.049L1011.11 361.864C1010.75 363.195 1010.1 364.362 1009.16 365.363C1008.23 366.354 1007.07 367.126 1005.66 367.68C1004.27 368.224 1002.67 368.495 1000.88 368.495ZM1025.9 368.479C1023.92 368.479 1022.15 367.973 1020.6 366.961C1019.05 365.939 1017.84 364.484 1016.95 362.599C1016.08 360.702 1015.64 358.428 1015.64 355.775C1015.64 353.123 1016.09 350.853 1016.97 348.968C1017.87 347.082 1019.09 345.638 1020.65 344.637C1022.2 343.636 1023.96 343.135 1025.94 343.135C1027.46 343.135 1028.68 343.391 1029.61 343.902C1030.55 344.403 1031.27 344.989 1031.78 345.66C1032.31 346.331 1032.71 346.922 1033 347.434H1033.29V335.273H1038.06V368H1033.4V364.181H1033C1032.71 364.703 1032.3 365.299 1031.75 365.971C1031.22 366.642 1030.48 367.228 1029.55 367.728C1028.61 368.229 1027.4 368.479 1025.9 368.479ZM1026.96 364.404C1028.33 364.404 1029.49 364.042 1030.44 363.318C1031.4 362.583 1032.13 361.565 1032.62 360.266C1033.12 358.966 1033.37 357.453 1033.37 355.727C1033.37 354.023 1033.12 352.531 1032.63 351.253C1032.14 349.974 1031.42 348.978 1030.47 348.265C1029.53 347.551 1028.35 347.194 1026.96 347.194C1025.52 347.194 1024.32 347.567 1023.36 348.312C1022.4 349.058 1021.68 350.076 1021.19 351.365C1020.71 352.654 1020.47 354.108 1020.47 355.727C1020.47 357.368 1020.72 358.843 1021.21 360.154C1021.7 361.464 1022.42 362.503 1023.38 363.27C1024.35 364.026 1025.54 364.404 1026.96 364.404ZM855.376 422H850.134L861.912 389.273H867.617L879.394 422H874.152L864.9 395.217H864.644L855.376 422ZM856.255 409.184H873.258V413.339H856.255V409.184ZM883.737 431.205V397.455H888.403V401.434H888.802C889.079 400.922 889.479 400.331 890.001 399.66C890.523 398.989 891.247 398.403 892.174 397.902C893.101 397.391 894.326 397.135 895.849 397.135C897.831 397.135 899.599 397.636 901.155 398.637C902.71 399.638 903.93 401.082 904.814 402.968C905.709 404.853 906.157 407.123 906.157 409.775C906.157 412.428 905.715 414.702 904.83 416.599C903.946 418.484 902.732 419.939 901.187 420.961C899.642 421.973 897.879 422.479 895.897 422.479C894.406 422.479 893.186 422.229 892.238 421.728C891.3 421.228 890.565 420.642 890.033 419.971C889.5 419.299 889.09 418.703 888.802 418.181H888.515V431.205H883.737ZM888.419 409.727C888.419 411.453 888.669 412.966 889.17 414.266C889.67 415.565 890.395 416.583 891.343 417.318C892.291 418.042 893.452 418.404 894.827 418.404C896.254 418.404 897.447 418.026 898.406 417.27C899.365 416.503 900.09 415.464 900.58 414.154C901.08 412.843 901.331 411.368 901.331 409.727C901.331 408.108 901.086 406.654 900.596 405.365C900.116 404.076 899.392 403.058 898.422 402.312C897.463 401.567 896.265 401.194 894.827 401.194C893.442 401.194 892.27 401.551 891.311 402.265C890.363 402.978 889.644 403.974 889.154 405.253C888.664 406.531 888.419 408.023 888.419 409.727ZM911.51 431.205V397.455H916.176V401.434H916.576C916.853 400.922 917.252 400.331 917.774 399.66C918.296 398.989 919.021 398.403 919.947 397.902C920.874 397.391 922.099 397.135 923.623 397.135C925.604 397.135 927.373 397.636 928.928 398.637C930.484 399.638 931.704 401.082 932.588 402.968C933.483 404.853 933.93 407.123 933.93 409.775C933.93 412.428 933.488 414.702 932.604 416.599C931.719 418.484 930.505 419.939 928.96 420.961C927.416 421.973 925.652 422.479 923.671 422.479C922.179 422.479 920.96 422.229 920.011 421.728C919.074 421.228 918.339 420.642 917.806 419.971C917.273 419.299 916.863 418.703 916.576 418.181H916.288V431.205H911.51ZM916.192 409.727C916.192 411.453 916.443 412.966 916.943 414.266C917.444 415.565 918.168 416.583 919.117 417.318C920.065 418.042 921.226 418.404 922.6 418.404C924.028 418.404 925.221 418.026 926.18 417.27C927.139 416.503 927.863 415.464 928.353 414.154C928.854 412.843 929.104 411.368 929.104 409.727C929.104 408.108 928.859 406.654 928.369 405.365C927.89 404.076 927.165 403.058 926.196 402.312C925.237 401.567 924.038 401.194 922.6 401.194C921.215 401.194 920.043 401.551 919.085 402.265C918.136 402.978 917.417 403.974 916.927 405.253C916.437 406.531 916.192 408.023 916.192 409.727Z" fill="white"/>
<rect x="79.551" y="93.5" width="397" height="411" rx="32" fill="url(#paint1_linear_3661_784)"/>
<path fill-rule="evenodd" clip-rule="evenodd" d="M245.373 269.322C250.062 264.634 256.421 262 263.051 262H293.051C299.681 262 306.04 264.634 310.729 269.322C315.417 274.011 318.051 280.37 318.051 287V297C318.051 299.761 315.812 302 313.051 302C310.29 302 308.051 299.761 308.051 297V287C308.051 283.022 306.471 279.206 303.658 276.393C300.845 273.58 297.029 272 293.051 272H263.051C259.073 272 255.257 273.58 252.444 276.393C249.631 279.206 248.051 283.022 248.051 287V297C248.051 299.761 245.812 302 243.051 302C240.29 302 238.051 299.761 238.051 297V287C238.051 280.37 240.685 274.011 245.373 269.322Z" fill="white"/>
<path fill-rule="evenodd" clip-rule="evenodd" d="M278.051 212C269.767 212 263.051 218.716 263.051 227C263.051 235.284 269.767 242 278.051 242C286.335 242 293.051 235.284 293.051 227C293.051 218.716 286.335 212 278.051 212ZM253.051 227C253.051 213.193 264.244 202 278.051 202C291.858 202 303.051 213.193 303.051 227C303.051 240.807 291.858 252 278.051 252C264.244 252 253.051 240.807 253.051 227Z" fill="white"/>
<path d="M252.199 362.273H257.153V383.798C257.153 386.088 256.615 388.118 255.539 389.886C254.463 391.644 252.95 393.029 251.001 394.041C249.051 395.043 246.766 395.543 244.145 395.543C241.535 395.543 239.255 395.043 237.306 394.041C235.356 393.029 233.843 391.644 232.767 389.886C231.691 388.118 231.153 386.088 231.153 383.798V362.273H236.091V383.398C236.091 384.879 236.416 386.195 237.066 387.346C237.727 388.496 238.659 389.402 239.863 390.062C241.066 390.712 242.494 391.037 244.145 391.037C245.807 391.037 247.24 390.712 248.444 390.062C249.658 389.402 250.585 388.496 251.224 387.346C251.874 386.195 252.199 384.879 252.199 383.398V362.273ZM282.342 376.447L278.011 377.214C277.83 376.66 277.542 376.133 277.148 375.632C276.765 375.131 276.243 374.721 275.582 374.402C274.922 374.082 274.096 373.922 273.105 373.922C271.752 373.922 270.623 374.226 269.717 374.833C268.812 375.43 268.359 376.202 268.359 377.15C268.359 377.971 268.663 378.631 269.27 379.132C269.877 379.632 270.857 380.043 272.21 380.362L276.109 381.257C278.368 381.779 280.051 382.583 281.159 383.67C282.267 384.757 282.821 386.168 282.821 387.905C282.821 389.375 282.395 390.685 281.543 391.836C280.701 392.976 279.524 393.871 278.011 394.521C276.509 395.17 274.767 395.495 272.786 395.495C270.037 395.495 267.794 394.909 266.058 393.738C264.321 392.555 263.256 390.877 262.862 388.704L267.48 388.001C267.768 389.205 268.359 390.115 269.254 390.733C270.149 391.341 271.315 391.644 272.754 391.644C274.32 391.644 275.571 391.319 276.509 390.669C277.446 390.009 277.915 389.205 277.915 388.256C277.915 387.489 277.628 386.845 277.052 386.323C276.488 385.801 275.619 385.407 274.448 385.14L270.293 384.229C268.002 383.707 266.308 382.876 265.211 381.737C264.124 380.597 263.581 379.153 263.581 377.406C263.581 375.957 263.986 374.689 264.796 373.603C265.605 372.516 266.724 371.669 268.151 371.062C269.579 370.444 271.214 370.135 273.057 370.135C275.71 370.135 277.798 370.71 279.321 371.861C280.845 373.001 281.852 374.529 282.342 376.447ZM298.653 395.495C296.235 395.495 294.152 394.979 292.405 393.945C290.669 392.901 289.326 391.436 288.378 389.551C287.441 387.654 286.972 385.433 286.972 382.887C286.972 380.373 287.441 378.157 288.378 376.239C289.326 374.322 290.647 372.825 292.341 371.749C294.046 370.673 296.038 370.135 298.318 370.135C299.703 370.135 301.045 370.364 302.345 370.822C303.645 371.28 304.811 371.999 305.844 372.979C306.878 373.96 307.693 375.233 308.289 376.799C308.886 378.354 309.184 380.245 309.184 382.472V384.165H289.673V380.586H304.502C304.502 379.329 304.246 378.216 303.735 377.246C303.224 376.266 302.505 375.494 301.578 374.929C300.662 374.364 299.586 374.082 298.35 374.082C297.007 374.082 295.836 374.412 294.834 375.073C293.843 375.723 293.076 376.575 292.533 377.63C292 378.674 291.734 379.808 291.734 381.033V383.83C291.734 385.471 292.022 386.866 292.597 388.017C293.183 389.167 293.998 390.046 295.042 390.653C296.086 391.25 297.306 391.548 298.701 391.548C299.607 391.548 300.433 391.42 301.178 391.165C301.924 390.898 302.569 390.504 303.112 389.982C303.655 389.46 304.071 388.816 304.358 388.049L308.881 388.864C308.518 390.195 307.869 391.362 306.931 392.363C306.004 393.354 304.838 394.126 303.431 394.68C302.036 395.224 300.443 395.495 298.653 395.495ZM314.486 395V370.455H319.104V374.354H319.36C319.807 373.033 320.595 371.994 321.725 371.238C322.865 370.471 324.154 370.087 325.592 370.087C325.89 370.087 326.242 370.098 326.647 370.119C327.062 370.14 327.387 370.167 327.621 370.199V374.769C327.43 374.716 327.089 374.657 326.599 374.593C326.109 374.519 325.618 374.482 325.128 374.482C323.999 374.482 322.992 374.721 322.108 375.201C321.235 375.669 320.542 376.325 320.031 377.166C319.519 377.997 319.264 378.945 319.264 380.011V395H314.486Z" fill="white"/>
<rect x="1309.24" y="93.5" width="397" height="411" rx="32" fill="url(#paint2_linear_3661_784)"/>
<path fill-rule="evenodd" clip-rule="evenodd" d="M1497.74 237C1494.98 237 1492.74 239.239 1492.74 242V262C1492.74 264.761 1494.98 267 1497.74 267H1517.74C1520.51 267 1522.74 264.761 1522.74 262V242C1522.74 239.239 1520.51 237 1517.74 237H1497.74ZM1482.74 242C1482.74 233.716 1489.46 227 1497.74 227H1517.74C1526.03 227 1532.74 233.716 1532.74 242V262C1532.74 270.284 1526.03 277 1517.74 277H1497.74C1489.46 277 1482.74 270.284 1482.74 262V242Z" fill="white"/>
<path fill-rule="evenodd" clip-rule="evenodd" d="M1467.74 207C1466.42 207 1465.15 207.527 1464.21 208.464C1463.27 209.402 1462.74 210.674 1462.74 212V232C1462.74 233.326 1463.27 234.598 1464.21 235.536C1465.15 236.473 1466.42 237 1467.74 237C1470.51 237 1472.74 239.239 1472.74 242C1472.74 244.761 1470.51 247 1467.74 247C1463.77 247 1459.95 245.42 1457.14 242.607C1454.32 239.794 1452.74 235.978 1452.74 232V212C1452.74 208.022 1454.32 204.206 1457.14 201.393C1459.95 198.58 1463.77 197 1467.74 197H1487.74C1491.72 197 1495.54 198.58 1498.35 201.393C1501.16 204.206 1502.74 208.022 1502.74 212C1502.74 214.761 1500.51 217 1497.74 217C1494.98 217 1492.74 214.761 1492.74 212C1492.74 210.674 1492.22 209.402 1491.28 208.464C1490.34 207.527 1489.07 207 1487.74 207H1467.74Z" fill="white"/>
<path fill-rule="evenodd" clip-rule="evenodd" d="M1542.74 262C1542.74 259.239 1544.98 257 1547.74 257C1551.72 257 1555.54 258.58 1558.35 261.393C1561.16 264.206 1562.74 268.022 1562.74 272V292C1562.74 295.978 1561.16 299.794 1558.35 302.607C1555.54 305.42 1551.72 307 1547.74 307H1527.74C1523.77 307 1519.95 305.42 1517.14 302.607C1514.32 299.794 1512.74 295.978 1512.74 292C1512.74 289.239 1514.98 287 1517.74 287C1520.51 287 1522.74 289.239 1522.74 292C1522.74 293.326 1523.27 294.598 1524.21 295.536C1525.15 296.473 1526.42 297 1527.74 297H1547.74C1549.07 297 1550.34 296.473 1551.28 295.536C1552.22 294.598 1552.74 293.326 1552.74 292V272C1552.74 270.674 1552.22 269.402 1551.28 268.464C1550.34 267.527 1549.07 267 1547.74 267C1544.98 267 1542.74 264.761 1542.74 262Z" fill="white"/>
<path d="M1405.21 395V362.273H1416.88C1419.41 362.273 1421.52 362.71 1423.19 363.583C1424.87 364.457 1426.13 365.666 1426.96 367.211C1427.79 368.745 1428.21 370.518 1428.21 372.532C1428.21 374.535 1427.79 376.298 1426.94 377.821C1426.11 379.334 1424.86 380.511 1423.17 381.353C1421.5 382.195 1419.4 382.615 1416.86 382.615H1408.02V378.365H1416.41C1418.01 378.365 1419.31 378.136 1420.31 377.678C1421.33 377.219 1422.07 376.554 1422.53 375.68C1423 374.806 1423.24 373.757 1423.24 372.532C1423.24 371.296 1423 370.225 1422.52 369.32C1422.05 368.414 1421.31 367.722 1420.3 367.243C1419.3 366.752 1417.98 366.507 1416.35 366.507H1410.15V395H1405.21ZM1421.37 380.234L1429.45 395H1423.83L1415.9 380.234H1421.37ZM1434.22 395V362.273H1445.88C1448.43 362.273 1450.54 362.736 1452.21 363.663C1453.88 364.59 1455.13 365.858 1455.96 367.466C1456.8 369.064 1457.21 370.865 1457.21 372.868C1457.21 374.881 1456.79 376.692 1455.95 378.301C1455.12 379.899 1453.86 381.167 1452.18 382.104C1450.5 383.031 1448.4 383.494 1445.87 383.494H1437.84V379.308H1445.42C1447.03 379.308 1448.33 379.031 1449.33 378.477C1450.33 377.912 1451.07 377.145 1451.54 376.175C1452.01 375.206 1452.24 374.103 1452.24 372.868C1452.24 371.632 1452.01 370.534 1451.54 369.576C1451.07 368.617 1450.33 367.866 1449.32 367.322C1448.32 366.779 1446.99 366.507 1445.35 366.507H1439.15V395H1434.22ZM1490.18 372.915H1485.2C1485 371.85 1484.65 370.913 1484.13 370.103C1483.6 369.293 1482.96 368.606 1482.21 368.042C1481.45 367.477 1480.6 367.051 1479.67 366.763C1478.74 366.475 1477.76 366.332 1476.71 366.332C1474.83 366.332 1473.14 366.806 1471.65 367.754C1470.16 368.702 1468.99 370.092 1468.13 371.925C1467.28 373.757 1466.85 375.994 1466.85 378.636C1466.85 381.3 1467.28 383.548 1468.13 385.38C1468.99 387.212 1470.17 388.597 1471.66 389.535C1473.15 390.472 1474.83 390.941 1476.7 390.941C1477.73 390.941 1478.71 390.803 1479.64 390.526C1480.57 390.238 1481.42 389.817 1482.18 389.263C1482.93 388.709 1483.57 388.033 1484.09 387.234C1484.63 386.424 1484.99 385.497 1485.2 384.453L1490.18 384.469C1489.92 386.078 1489.4 387.559 1488.63 388.912C1487.88 390.254 1486.9 391.415 1485.71 392.395C1484.53 393.365 1483.17 394.116 1481.65 394.648C1480.13 395.181 1478.46 395.447 1476.66 395.447C1473.83 395.447 1471.3 394.776 1469.09 393.434C1466.87 392.081 1465.13 390.147 1463.85 387.633C1462.58 385.119 1461.95 382.12 1461.95 378.636C1461.95 375.142 1462.58 372.143 1463.86 369.64C1465.14 367.125 1466.89 365.197 1469.1 363.855C1471.32 362.502 1473.84 361.825 1476.66 361.825C1478.4 361.825 1480.02 362.076 1481.52 362.576C1483.03 363.066 1484.39 363.791 1485.6 364.75C1486.8 365.698 1487.8 366.859 1488.58 368.233C1489.37 369.597 1489.91 371.158 1490.18 372.915ZM1508 395V362.273H1528.52V366.523H1512.94V376.495H1527.45V380.73H1512.94V390.749H1528.71V395H1508ZM1543.92 395.479C1541.94 395.479 1540.17 394.973 1538.61 393.961C1537.07 392.939 1535.85 391.484 1534.97 389.599C1534.1 387.702 1533.66 385.428 1533.66 382.775C1533.66 380.123 1534.1 377.853 1534.99 375.968C1535.88 374.082 1537.11 372.638 1538.66 371.637C1540.22 370.636 1541.98 370.135 1543.95 370.135C1545.47 370.135 1546.7 370.391 1547.63 370.902C1548.56 371.403 1549.29 371.989 1549.8 372.66C1550.32 373.331 1550.73 373.922 1551.01 374.434H1551.3V362.273H1556.08V395H1551.41V391.181H1551.01C1550.73 391.703 1550.31 392.299 1549.77 392.971C1549.24 393.642 1548.5 394.228 1547.56 394.728C1546.63 395.229 1545.41 395.479 1543.92 395.479ZM1544.97 391.404C1546.35 391.404 1547.51 391.042 1548.46 390.318C1549.42 389.583 1550.14 388.565 1550.63 387.266C1551.13 385.966 1551.38 384.453 1551.38 382.727C1551.38 381.023 1551.14 379.531 1550.65 378.253C1550.16 376.974 1549.44 375.978 1548.49 375.265C1547.54 374.551 1546.37 374.194 1544.97 374.194C1543.54 374.194 1542.34 374.567 1541.38 375.312C1540.42 376.058 1539.7 377.076 1539.21 378.365C1538.73 379.654 1538.49 381.108 1538.49 382.727C1538.49 384.368 1538.73 385.843 1539.22 387.154C1539.71 388.464 1540.44 389.503 1541.39 390.27C1542.36 391.026 1543.56 391.404 1544.97 391.404ZM1573.19 404.716C1571.24 404.716 1569.56 404.46 1568.16 403.949C1566.76 403.438 1565.62 402.761 1564.74 401.919C1563.85 401.078 1563.19 400.156 1562.76 399.155L1566.86 397.461C1567.15 397.93 1567.53 398.425 1568.01 398.947C1568.5 399.48 1569.16 399.933 1569.99 400.305C1570.84 400.678 1571.92 400.865 1573.24 400.865C1575.05 400.865 1576.55 400.423 1577.73 399.538C1578.91 398.665 1579.5 397.269 1579.5 395.352V390.526H1579.2C1578.91 391.048 1578.5 391.628 1577.95 392.267C1577.42 392.907 1576.69 393.461 1575.75 393.929C1574.81 394.398 1573.59 394.632 1572.09 394.632C1570.15 394.632 1568.4 394.18 1566.85 393.274C1565.3 392.358 1564.08 391.01 1563.17 389.231C1562.28 387.441 1561.83 385.241 1561.83 382.631C1561.83 380.021 1562.27 377.784 1563.16 375.92C1564.05 374.055 1565.28 372.628 1566.83 371.637C1568.39 370.636 1570.15 370.135 1572.12 370.135C1573.64 370.135 1574.87 370.391 1575.81 370.902C1576.75 371.403 1577.48 371.989 1578 372.66C1578.53 373.331 1578.94 373.922 1579.23 374.434H1579.58V370.455H1584.27V395.543C1584.27 397.653 1583.78 399.384 1582.79 400.737C1581.81 402.09 1580.49 403.091 1578.82 403.741C1577.15 404.391 1575.28 404.716 1573.19 404.716ZM1573.14 390.669C1574.52 390.669 1575.68 390.35 1576.63 389.711C1577.59 389.061 1578.31 388.134 1578.8 386.93C1579.3 385.716 1579.55 384.261 1579.55 382.567C1579.55 380.916 1579.31 379.462 1578.82 378.205C1578.33 376.948 1577.61 375.968 1576.66 375.265C1575.71 374.551 1574.54 374.194 1573.14 374.194C1571.7 374.194 1570.51 374.567 1569.55 375.312C1568.59 376.048 1567.86 377.049 1567.37 378.317C1566.89 379.585 1566.66 381.001 1566.66 382.567C1566.66 384.176 1566.9 385.588 1567.39 386.802C1567.88 388.017 1568.6 388.965 1569.56 389.647C1570.53 390.328 1571.73 390.669 1573.14 390.669ZM1601.25 395.495C1598.83 395.495 1596.75 394.979 1595 393.945C1593.27 392.901 1591.92 391.436 1590.98 389.551C1590.04 387.654 1589.57 385.433 1589.57 382.887C1589.57 380.373 1590.04 378.157 1590.98 376.239C1591.92 374.322 1593.25 372.825 1594.94 371.749C1596.64 370.673 1598.64 370.135 1600.92 370.135C1602.3 370.135 1603.64 370.364 1604.94 370.822C1606.24 371.28 1607.41 371.999 1608.44 372.979C1609.48 373.96 1610.29 375.233 1610.89 376.799C1611.48 378.354 1611.78 380.245 1611.78 382.472V384.165H1592.27V380.586H1607.1C1607.1 379.329 1606.85 378.216 1606.33 377.246C1605.82 376.266 1605.1 375.494 1604.18 374.929C1603.26 374.364 1602.18 374.082 1600.95 374.082C1599.61 374.082 1598.43 374.412 1597.43 375.073C1596.44 375.723 1595.67 376.575 1595.13 377.63C1594.6 378.674 1594.33 379.808 1594.33 381.033V383.83C1594.33 385.471 1594.62 386.866 1595.2 388.017C1595.78 389.167 1596.6 390.046 1597.64 390.653C1598.68 391.25 1599.9 391.548 1601.3 391.548C1602.21 391.548 1603.03 391.42 1603.78 391.165C1604.52 390.898 1605.17 390.504 1605.71 389.982C1606.25 389.46 1606.67 388.816 1606.96 388.049L1611.48 388.864C1611.12 390.195 1610.47 391.362 1609.53 392.363C1608.6 393.354 1607.44 394.126 1606.03 394.68C1604.63 395.224 1603.04 395.495 1601.25 395.495Z" fill="white"/>
<rect x="1923.45" y="93.5" width="397" height="411" rx="32" fill="url(#paint3_linear_3661_784)"/>
<path fill-rule="evenodd" clip-rule="evenodd" d="M2094.37 213.213C2095.96 212.263 2097.94 212.262 2099.52 213.213L2124.52 228.213C2126.03 229.116 2126.95 230.744 2126.95 232.5V260C2126.95 261.757 2126.03 263.385 2124.52 264.288L2104.67 276.186C2104.67 276.186 2104.67 276.186 2104.67 276.186C2102.34 277.587 2099.67 278.328 2096.95 278.328C2094.23 278.328 2091.56 277.588 2089.23 276.187C2089.23 276.187 2089.23 276.188 2089.23 276.187L2074.23 267.187C2072.01 265.857 2070.18 263.976 2068.9 261.729C2067.63 259.482 2066.95 256.944 2066.95 254.361L2066.95 254.35V238.15L2066.95 238.139C2066.95 235.556 2067.63 233.018 2068.9 230.771C2070.18 228.524 2072.01 226.644 2074.22 225.314L2094.37 213.213ZM2096.95 223.332L2079.37 233.886C2079.37 233.886 2079.37 233.886 2079.37 233.886C2078.64 234.329 2078.02 234.956 2077.6 235.705C2077.18 236.453 2076.95 237.297 2076.95 238.156V254.344C2076.95 255.203 2077.18 256.047 2077.6 256.795C2078.02 257.544 2078.64 258.17 2079.37 258.614C2079.37 258.613 2079.37 258.614 2079.37 258.614L2094.37 267.613C2095.15 268.08 2096.04 268.328 2096.95 268.328C2097.86 268.328 2098.75 268.081 2099.52 267.614L2116.95 257.168V235.331L2096.95 223.332Z" fill="white"/>
<path fill-rule="evenodd" clip-rule="evenodd" d="M2068.96 230.674C2070.39 228.308 2073.46 227.543 2075.83 228.966L2099.53 243.216C2101.89 244.639 2102.66 247.711 2101.23 250.077C2099.81 252.444 2096.74 253.209 2094.37 251.786L2070.67 237.536C2068.31 236.113 2067.54 233.041 2068.96 230.674Z" fill="white"/>
<path fill-rule="evenodd" clip-rule="evenodd" d="M2126.24 229.928C2127.66 232.296 2126.89 235.367 2124.52 236.788L2099.52 251.788C2097.15 253.209 2094.08 252.441 2092.66 250.073C2091.24 247.705 2092.01 244.634 2094.38 243.213L2119.38 228.213C2121.74 226.793 2124.82 227.56 2126.24 229.928Z" fill="white"/>
<path fill-rule="evenodd" clip-rule="evenodd" d="M2096.95 242.5C2099.71 242.5 2101.95 244.739 2101.95 247.5V273.35C2101.95 276.111 2099.71 278.35 2096.95 278.35C2094.19 278.35 2091.95 276.111 2091.95 273.35V247.5C2091.95 244.739 2094.19 242.5 2096.95 242.5Z" fill="white"/>
<path fill-rule="evenodd" clip-rule="evenodd" d="M2144.38 213.213C2145.96 212.262 2147.94 212.263 2149.52 213.213L2169.67 225.313C2171.89 226.644 2173.72 228.524 2175 230.771C2176.27 233.018 2176.94 235.556 2176.95 238.139L2176.95 238.15L2176.95 254.35L2176.95 254.361C2176.94 256.944 2176.27 259.482 2175 261.729C2173.72 263.976 2171.89 265.856 2169.67 267.186L2154.67 276.186C2154.67 276.186 2154.67 276.185 2154.67 276.186C2152.34 277.587 2149.67 278.328 2146.95 278.328C2144.23 278.328 2141.56 277.588 2139.22 276.186C2139.22 276.186 2139.22 276.186 2139.22 276.186L2119.38 264.288C2117.87 263.385 2116.95 261.757 2116.95 260V232.5C2116.95 230.744 2117.87 229.116 2119.38 228.213L2144.38 213.213ZM2126.95 235.331V257.168L2144.37 267.612C2145.15 268.079 2146.04 268.328 2146.95 268.328C2147.86 268.328 2148.75 268.081 2149.52 267.614L2164.52 258.614C2165.26 258.171 2165.87 257.543 2166.3 256.795C2166.72 256.048 2166.95 255.204 2166.95 254.344V238.156C2166.95 237.296 2166.72 236.452 2166.3 235.705C2165.87 234.956 2165.26 234.33 2164.52 233.887C2164.52 233.886 2164.53 233.887 2164.52 233.887L2146.95 223.332L2126.95 235.331Z" fill="white"/>
<path fill-rule="evenodd" clip-rule="evenodd" d="M2117.66 229.928C2119.08 227.56 2122.15 226.793 2124.52 228.213L2149.52 243.213C2151.89 244.634 2152.66 247.705 2151.24 250.073C2149.82 252.441 2146.74 253.209 2144.38 251.788L2119.38 236.788C2117.01 235.367 2116.24 232.296 2117.66 229.928Z" fill="white"/>
<path fill-rule="evenodd" clip-rule="evenodd" d="M2174.93 230.674C2176.36 233.041 2175.59 236.113 2173.23 237.536L2149.53 251.786C2147.16 253.209 2144.09 252.444 2142.66 250.077C2141.24 247.711 2142.01 244.639 2144.37 243.216L2168.07 228.966C2170.44 227.543 2173.51 228.308 2174.93 230.674Z" fill="white"/>
<path fill-rule="evenodd" clip-rule="evenodd" d="M2146.95 242.5C2149.71 242.5 2151.95 244.739 2151.95 247.5V273.35C2151.95 276.111 2149.71 278.35 2146.95 278.35C2144.19 278.35 2141.95 276.111 2141.95 273.35V247.5C2141.95 244.739 2144.19 242.5 2146.95 242.5Z" fill="white"/>
<path fill-rule="evenodd" clip-rule="evenodd" d="M2114.23 173.813C2116.56 172.412 2119.23 171.672 2121.95 171.672C2124.67 171.672 2127.34 172.412 2129.67 173.813C2129.67 173.812 2129.67 173.813 2129.67 173.813L2144.67 182.813C2146.89 184.143 2148.72 186.024 2150 188.271C2151.27 190.518 2151.94 193.056 2151.95 195.639L2151.95 195.65L2151.95 217.5C2151.95 219.256 2151.03 220.884 2149.52 221.787L2124.52 236.787C2122.94 237.737 2120.96 237.737 2119.38 236.787L2094.38 221.787C2092.87 220.884 2091.95 219.256 2091.95 217.5V195.639C2091.95 193.056 2092.63 190.518 2093.9 188.271C2095.18 186.024 2097.01 184.144 2099.22 182.814L2114.23 173.813ZM2121.95 181.672C2121.04 181.672 2120.15 181.919 2119.37 182.386L2104.37 191.386C2104.37 191.386 2104.37 191.386 2104.37 191.386C2103.64 191.829 2103.02 192.456 2102.6 193.205C2102.18 193.953 2101.95 194.797 2101.95 195.656V214.669L2121.95 226.669L2141.95 214.669V195.656C2141.95 194.796 2141.72 193.952 2141.3 193.205C2140.87 192.457 2140.26 191.831 2139.53 191.387L2124.53 182.387C2123.75 181.92 2122.86 181.672 2121.95 181.672Z" fill="white"/>
<path fill-rule="evenodd" clip-rule="evenodd" d="M2093.96 188.174C2095.39 185.808 2098.46 185.043 2100.83 186.466L2124.53 200.716C2126.89 202.139 2127.66 205.211 2126.23 207.577C2124.81 209.944 2121.74 210.709 2119.37 209.286L2095.67 195.036C2093.31 193.613 2092.54 190.541 2093.96 188.174Z" fill="white"/>
<path fill-rule="evenodd" clip-rule="evenodd" d="M2149.93 188.174C2151.36 190.541 2150.59 193.613 2148.23 195.036L2124.53 209.286C2122.16 210.709 2119.09 209.944 2117.66 207.577C2116.24 205.211 2117.01 202.139 2119.37 200.716L2143.07 186.466C2145.44 185.043 2148.51 185.808 2149.93 188.174Z" fill="white"/>
<path fill-rule="evenodd" clip-rule="evenodd" d="M2121.95 200C2124.71 200 2126.95 202.239 2126.95 205V232.5C2126.95 235.261 2124.71 237.5 2121.95 237.5C2119.19 237.5 2116.95 235.261 2116.95 232.5V205C2116.95 202.239 2119.19 200 2121.95 200Z" fill="white"/>
<path d="M1987.01 368H1976.42V335.273H1987.35C1990.55 335.273 1993.31 335.928 1995.61 337.238C1997.91 338.538 1999.67 340.408 2000.9 342.847C2002.13 345.276 2002.75 348.19 2002.75 351.588C2002.75 354.998 2002.13 357.927 2000.88 360.377C1999.65 362.828 1997.86 364.713 1995.51 366.034C1993.17 367.345 1990.33 368 1987.01 368ZM1981.35 363.685H1986.74C1989.23 363.685 1991.3 363.217 1992.96 362.279C1994.61 361.331 1995.84 359.962 1996.66 358.172C1997.48 356.372 1997.89 354.177 1997.89 351.588C1997.89 349.021 1997.48 346.842 1996.66 345.053C1995.85 343.263 1994.64 341.904 1993.04 340.978C1991.43 340.051 1989.43 339.587 1987.04 339.587H1981.35V363.685ZM2019.09 368.495C2016.67 368.495 2014.59 367.979 2012.84 366.945C2011.1 365.901 2009.76 364.436 2008.81 362.551C2007.87 360.654 2007.41 358.433 2007.41 355.887C2007.41 353.373 2007.87 351.157 2008.81 349.239C2009.76 347.322 2011.08 345.825 2012.77 344.749C2014.48 343.673 2016.47 343.135 2018.75 343.135C2020.14 343.135 2021.48 343.364 2022.78 343.822C2024.08 344.28 2025.24 344.999 2026.28 345.979C2027.31 346.96 2028.13 348.233 2028.72 349.799C2029.32 351.354 2029.62 353.245 2029.62 355.472V357.165H2010.11V353.586H2024.94C2024.94 352.329 2024.68 351.216 2024.17 350.246C2023.66 349.266 2022.94 348.494 2022.01 347.929C2021.1 347.364 2020.02 347.082 2018.78 347.082C2017.44 347.082 2016.27 347.412 2015.27 348.073C2014.28 348.723 2013.51 349.575 2012.97 350.63C2012.43 351.674 2012.17 352.808 2012.17 354.033V356.83C2012.17 358.471 2012.46 359.866 2013.03 361.017C2013.62 362.167 2014.43 363.046 2015.48 363.653C2016.52 364.25 2017.74 364.548 2019.13 364.548C2020.04 364.548 2020.87 364.42 2021.61 364.165C2022.36 363.898 2023 363.504 2023.55 362.982C2024.09 362.46 2024.5 361.816 2024.79 361.049L2029.31 361.864C2028.95 363.195 2028.3 364.362 2027.36 365.363C2026.44 366.354 2025.27 367.126 2023.87 367.68C2022.47 368.224 2020.88 368.495 2019.09 368.495ZM2045.26 368.495C2042.88 368.495 2040.84 367.957 2039.12 366.881C2037.42 365.795 2036.11 364.298 2035.19 362.391C2034.27 360.484 2033.82 358.3 2033.82 355.839C2033.82 353.346 2034.29 351.146 2035.22 349.239C2036.16 347.322 2037.48 345.825 2039.19 344.749C2040.89 343.673 2042.9 343.135 2045.21 343.135C2047.07 343.135 2048.74 343.481 2050.2 344.174C2051.66 344.855 2052.83 345.814 2053.73 347.05C2054.63 348.286 2055.17 349.729 2055.34 351.381H2050.69C2050.44 350.23 2049.85 349.239 2048.93 348.408C2048.03 347.577 2046.81 347.162 2045.29 347.162C2043.96 347.162 2042.79 347.513 2041.79 348.217C2040.8 348.909 2040.03 349.9 2039.47 351.189C2038.92 352.467 2038.64 353.98 2038.64 355.727C2038.64 357.517 2038.91 359.062 2039.46 360.362C2040 361.661 2040.77 362.668 2041.76 363.382C2042.76 364.096 2043.94 364.452 2045.29 364.452C2046.2 364.452 2047.02 364.287 2047.75 363.957C2048.5 363.616 2049.12 363.131 2049.62 362.503C2050.13 361.874 2050.49 361.118 2050.69 360.234H2055.34C2055.17 361.821 2054.65 363.238 2053.79 364.484C2052.93 365.731 2051.77 366.711 2050.32 367.425C2048.89 368.138 2047.2 368.495 2045.26 368.495ZM2071.03 368.495C2068.61 368.495 2066.53 367.979 2064.78 366.945C2063.05 365.901 2061.7 364.436 2060.76 362.551C2059.82 360.654 2059.35 358.433 2059.35 355.887C2059.35 353.373 2059.82 351.157 2060.76 349.239C2061.7 347.322 2063.02 345.825 2064.72 344.749C2066.42 343.673 2068.41 343.135 2070.69 343.135C2072.08 343.135 2073.42 343.364 2074.72 343.822C2076.02 344.28 2077.19 344.999 2078.22 345.979C2079.25 346.96 2080.07 348.233 2080.67 349.799C2081.26 351.354 2081.56 353.245 2081.56 355.472V357.165H2062.05V353.586H2076.88C2076.88 352.329 2076.62 351.216 2076.11 350.246C2075.6 349.266 2074.88 348.494 2073.95 347.929C2073.04 347.364 2071.96 347.082 2070.73 347.082C2069.38 347.082 2068.21 347.412 2067.21 348.073C2066.22 348.723 2065.45 349.575 2064.91 350.63C2064.38 351.674 2064.11 352.808 2064.11 354.033V356.83C2064.11 358.471 2064.4 359.866 2064.97 361.017C2065.56 362.167 2066.37 363.046 2067.42 363.653C2068.46 364.25 2069.68 364.548 2071.08 364.548C2071.98 364.548 2072.81 364.42 2073.56 364.165C2074.3 363.898 2074.95 363.504 2075.49 362.982C2076.03 362.46 2076.45 361.816 2076.74 361.049L2081.26 361.864C2080.9 363.195 2080.25 364.362 2079.31 365.363C2078.38 366.354 2077.21 367.126 2075.81 367.68C2074.41 368.224 2072.82 368.495 2071.03 368.495ZM2091.64 353.426V368H2086.86V343.455H2091.45V347.45H2091.75C2092.32 346.15 2093.2 345.106 2094.41 344.317C2095.62 343.529 2097.15 343.135 2098.99 343.135C2100.66 343.135 2102.13 343.487 2103.39 344.19C2104.64 344.882 2105.62 345.915 2106.31 347.29C2107 348.664 2107.35 350.363 2107.35 352.387V368H2102.57V352.963C2102.57 351.184 2102.11 349.793 2101.18 348.792C2100.25 347.78 2098.98 347.274 2097.36 347.274C2096.25 347.274 2095.27 347.513 2094.41 347.993C2093.55 348.472 2092.88 349.175 2092.38 350.102C2091.89 351.018 2091.64 352.126 2091.64 353.426ZM2125.21 343.455V347.29H2111.81V343.455H2125.21ZM2115.4 337.574H2120.18V360.793C2120.18 361.72 2120.32 362.418 2120.6 362.886C2120.87 363.344 2121.23 363.659 2121.67 363.829C2122.11 363.989 2122.6 364.069 2123.12 364.069C2123.51 364.069 2123.84 364.042 2124.13 363.989C2124.42 363.936 2124.64 363.893 2124.8 363.861L2125.66 367.808C2125.39 367.915 2124.99 368.021 2124.48 368.128C2123.97 368.245 2123.33 368.309 2122.56 368.32C2121.31 368.341 2120.13 368.117 2119.05 367.648C2117.96 367.18 2117.08 366.455 2116.41 365.475C2115.74 364.495 2115.4 363.265 2115.4 361.784V337.574ZM2130.5 368V343.455H2135.12V347.354H2135.37C2135.82 346.033 2136.61 344.994 2137.74 344.238C2138.88 343.471 2140.17 343.087 2141.61 343.087C2141.9 343.087 2142.26 343.098 2142.66 343.119C2143.08 343.14 2143.4 343.167 2143.64 343.199V347.769C2143.44 347.716 2143.1 347.657 2142.61 347.593C2142.12 347.519 2141.63 347.482 2141.14 347.482C2140.01 347.482 2139.01 347.721 2138.12 348.201C2137.25 348.669 2136.56 349.325 2136.05 350.166C2135.53 350.997 2135.28 351.945 2135.28 353.011V368H2130.5ZM2154.69 368.543C2153.14 368.543 2151.73 368.256 2150.48 367.68C2149.22 367.094 2148.22 366.248 2147.49 365.14C2146.76 364.032 2146.4 362.673 2146.4 361.065C2146.4 359.68 2146.67 358.54 2147.2 357.645C2147.73 356.75 2148.45 356.042 2149.36 355.52C2150.26 354.998 2151.27 354.603 2152.39 354.337C2153.51 354.071 2154.65 353.868 2155.81 353.73C2157.28 353.559 2158.48 353.421 2159.39 353.314C2160.31 353.197 2160.97 353.011 2161.39 352.755C2161.81 352.499 2162.01 352.084 2162.01 351.509V351.397C2162.01 350.001 2161.62 348.92 2160.83 348.153C2160.05 347.386 2158.89 347.002 2157.35 347.002C2155.74 347.002 2154.47 347.359 2153.54 348.073C2152.63 348.776 2151.99 349.559 2151.64 350.422L2147.15 349.399C2147.68 347.908 2148.46 346.704 2149.48 345.788C2150.52 344.861 2151.71 344.19 2153.05 343.774C2154.39 343.348 2155.8 343.135 2157.28 343.135C2158.26 343.135 2159.3 343.252 2160.4 343.487C2161.51 343.71 2162.54 344.126 2163.5 344.733C2164.47 345.34 2165.26 346.208 2165.88 347.338C2166.5 348.456 2166.81 349.911 2166.81 351.7V368H2162.14V364.644H2161.95C2161.64 365.262 2161.18 365.869 2160.56 366.466C2159.94 367.062 2159.15 367.558 2158.18 367.952C2157.21 368.346 2156.05 368.543 2154.69 368.543ZM2155.73 364.708C2157.05 364.708 2158.18 364.447 2159.12 363.925C2160.07 363.403 2160.79 362.721 2161.28 361.88C2161.78 361.027 2162.03 360.116 2162.03 359.147V355.983C2161.86 356.153 2161.53 356.313 2161.04 356.462C2160.56 356.601 2160.01 356.723 2159.39 356.83C2158.77 356.926 2158.17 357.016 2157.59 357.102C2157 357.176 2156.51 357.24 2156.12 357.293C2155.19 357.411 2154.34 357.608 2153.58 357.885C2152.82 358.162 2152.21 358.561 2151.75 359.083C2151.31 359.594 2151.08 360.276 2151.08 361.129C2151.08 362.311 2151.52 363.206 2152.39 363.813C2153.27 364.41 2154.38 364.708 2155.73 364.708ZM2177.95 335.273V368H2173.17V335.273H2177.95ZM2184.38 368V343.455H2189.16V368H2184.38ZM2186.79 339.667C2185.96 339.667 2185.25 339.39 2184.65 338.836C2184.06 338.272 2183.77 337.6 2183.77 336.823C2183.77 336.034 2184.06 335.363 2184.65 334.809C2185.25 334.245 2185.96 333.962 2186.79 333.962C2187.62 333.962 2188.33 334.245 2188.92 334.809C2189.51 335.363 2189.81 336.034 2189.81 336.823C2189.81 337.6 2189.51 338.272 2188.92 338.836C2188.33 339.39 2187.62 339.667 2186.79 339.667ZM2195.07 368V364.724L2208.37 347.833V347.609H2195.5V343.455H2214.33V346.938L2201.54 363.621V363.845H2214.78V368H2195.07ZM2230.29 368.495C2227.87 368.495 2225.79 367.979 2224.04 366.945C2222.3 365.901 2220.96 364.436 2220.01 362.551C2219.08 360.654 2218.61 358.433 2218.61 355.887C2218.61 353.373 2219.08 351.157 2220.01 349.239C2220.96 347.322 2222.28 345.825 2223.98 344.749C2225.68 343.673 2227.67 343.135 2229.95 343.135C2231.34 343.135 2232.68 343.364 2233.98 343.822C2235.28 344.28 2236.45 344.999 2237.48 345.979C2238.51 346.96 2239.33 348.233 2239.92 349.799C2240.52 351.354 2240.82 353.245 2240.82 355.472V357.165H2221.31V353.586H2236.14C2236.14 352.329 2235.88 351.216 2235.37 350.246C2234.86 349.266 2234.14 348.494 2233.21 347.929C2232.3 347.364 2231.22 347.082 2229.98 347.082C2228.64 347.082 2227.47 347.412 2226.47 348.073C2225.48 348.723 2224.71 349.575 2224.17 350.63C2223.64 351.674 2223.37 352.808 2223.37 354.033V356.83C2223.37 358.471 2223.66 359.866 2224.23 361.017C2224.82 362.167 2225.63 363.046 2226.68 363.653C2227.72 364.25 2228.94 364.548 2230.34 364.548C2231.24 364.548 2232.07 364.42 2232.81 364.165C2233.56 363.898 2234.2 363.504 2234.75 362.982C2235.29 362.46 2235.71 361.816 2235.99 361.049L2240.52 361.864C2240.15 363.195 2239.5 364.362 2238.57 365.363C2237.64 366.354 2236.47 367.126 2235.07 367.68C2233.67 368.224 2232.08 368.495 2230.29 368.495ZM2255.31 368.479C2253.33 368.479 2251.56 367.973 2250 366.961C2248.46 365.939 2247.24 364.484 2246.36 362.599C2245.49 360.702 2245.05 358.428 2245.05 355.775C2245.05 353.123 2245.49 350.853 2246.38 348.968C2247.27 347.082 2248.5 345.638 2250.05 344.637C2251.61 343.636 2253.37 343.135 2255.34 343.135C2256.86 343.135 2258.09 343.391 2259.02 343.902C2259.95 344.403 2260.68 344.989 2261.19 345.66C2261.71 346.331 2262.12 346.922 2262.4 347.434H2262.69V335.273H2267.47V368H2262.8V364.181H2262.4C2262.12 364.703 2261.7 365.299 2261.16 365.971C2260.63 366.642 2259.89 367.228 2258.95 367.728C2258.01 368.229 2256.8 368.479 2255.31 368.479ZM2256.36 364.404C2257.74 364.404 2258.9 364.042 2259.85 363.318C2260.81 362.583 2261.53 361.565 2262.02 360.266C2262.52 358.966 2262.77 357.453 2262.77 355.727C2262.77 354.023 2262.53 352.531 2262.04 351.253C2261.55 349.974 2260.83 348.978 2259.88 348.265C2258.93 347.551 2257.76 347.194 2256.36 347.194C2254.93 347.194 2253.73 347.567 2252.77 348.312C2251.81 349.058 2251.08 350.076 2250.59 351.365C2250.12 352.654 2249.88 354.108 2249.88 355.727C2249.88 357.368 2250.12 358.843 2250.61 360.154C2251.1 361.464 2251.83 362.503 2252.78 363.27C2253.75 364.026 2254.95 364.404 2256.36 364.404ZM2060.66 389.273V422H2056.12L2039.49 397.998H2039.19V422H2034.25V389.273H2038.82L2055.47 413.307H2055.77V389.273H2060.66ZM2078.06 422.495C2075.64 422.495 2073.56 421.979 2071.81 420.945C2070.08 419.901 2068.73 418.436 2067.79 416.551C2066.85 414.654 2066.38 412.433 2066.38 409.887C2066.38 407.373 2066.85 405.157 2067.79 403.239C2068.73 401.322 2070.06 399.825 2071.75 398.749C2073.45 397.673 2075.45 397.135 2077.73 397.135C2079.11 397.135 2080.45 397.364 2081.75 397.822C2083.05 398.28 2084.22 398.999 2085.25 399.979C2086.29 400.96 2087.1 402.233 2087.7 403.799C2088.29 405.354 2088.59 407.245 2088.59 409.472V411.165H2069.08V407.586H2083.91C2083.91 406.329 2083.65 405.216 2083.14 404.246C2082.63 403.266 2081.91 402.494 2080.99 401.929C2080.07 401.364 2078.99 401.082 2077.76 401.082C2076.42 401.082 2075.24 401.412 2074.24 402.073C2073.25 402.723 2072.48 403.575 2071.94 404.63C2071.41 405.674 2071.14 406.808 2071.14 408.033V410.83C2071.14 412.471 2071.43 413.866 2072.01 415.017C2072.59 416.167 2073.41 417.046 2074.45 417.653C2075.49 418.25 2076.71 418.548 2078.11 418.548C2079.02 418.548 2079.84 418.42 2080.59 418.165C2081.33 417.898 2081.98 417.504 2082.52 416.982C2083.06 416.46 2083.48 415.816 2083.77 415.049L2088.29 415.864C2087.93 417.195 2087.28 418.362 2086.34 419.363C2085.41 420.354 2084.25 421.126 2082.84 421.68C2081.44 422.224 2079.85 422.495 2078.06 422.495ZM2105.35 397.455V401.29H2091.94V397.455H2105.35ZM2095.54 391.574H2100.32V414.793C2100.32 415.72 2100.46 416.418 2100.73 416.886C2101.01 417.344 2101.37 417.659 2101.8 417.829C2102.25 417.989 2102.74 418.069 2103.26 418.069C2103.64 418.069 2103.98 418.042 2104.26 417.989C2104.55 417.936 2104.78 417.893 2104.94 417.861L2105.8 421.808C2105.52 421.915 2105.13 422.021 2104.62 422.128C2104.11 422.245 2103.47 422.309 2102.7 422.32C2101.44 422.341 2100.27 422.117 2099.18 421.648C2098.1 421.18 2097.22 420.455 2096.55 419.475C2095.88 418.495 2095.54 417.265 2095.54 415.784V391.574ZM2115.96 422L2108.74 397.455H2113.67L2118.48 415.48H2118.72L2123.55 397.455H2128.49L2133.28 415.4H2133.52L2138.3 397.455H2143.24L2136.03 422H2131.16L2126.17 404.278H2125.8L2120.82 422H2115.96ZM2157.36 422.495C2155.06 422.495 2153.05 421.968 2151.34 420.913C2149.62 419.859 2148.29 418.383 2147.34 416.487C2146.4 414.591 2145.92 412.375 2145.92 409.839C2145.92 407.293 2146.4 405.066 2147.34 403.159C2148.29 401.252 2149.62 399.772 2151.34 398.717C2153.05 397.662 2155.06 397.135 2157.36 397.135C2159.66 397.135 2161.67 397.662 2163.39 398.717C2165.1 399.772 2166.43 401.252 2167.38 403.159C2168.33 405.066 2168.8 407.293 2168.8 409.839C2168.8 412.375 2168.33 414.591 2167.38 416.487C2166.43 418.383 2165.1 419.859 2163.39 420.913C2161.67 421.968 2159.66 422.495 2157.36 422.495ZM2157.38 418.484C2158.87 418.484 2160.11 418.09 2161.09 417.302C2162.07 416.513 2162.79 415.464 2163.26 414.154C2163.74 412.843 2163.98 411.4 2163.98 409.823C2163.98 408.257 2163.74 406.819 2163.26 405.509C2162.79 404.187 2162.07 403.127 2161.09 402.328C2160.11 401.529 2158.87 401.13 2157.38 401.13C2155.88 401.13 2154.63 401.529 2153.64 402.328C2152.66 403.127 2151.93 404.187 2151.45 405.509C2150.98 406.819 2150.75 408.257 2150.75 409.823C2150.75 411.4 2150.98 412.843 2151.45 414.154C2151.93 415.464 2152.66 416.513 2153.64 417.302C2154.63 418.09 2155.88 418.484 2157.38 418.484ZM2174.14 422V397.455H2178.76V401.354H2179.01C2179.46 400.033 2180.25 398.994 2181.38 398.238C2182.52 397.471 2183.81 397.087 2185.24 397.087C2185.54 397.087 2185.89 397.098 2186.3 397.119C2186.71 397.14 2187.04 397.167 2187.27 397.199V401.769C2187.08 401.716 2186.74 401.657 2186.25 401.593C2185.76 401.519 2185.27 401.482 2184.78 401.482C2183.65 401.482 2182.64 401.721 2181.76 402.201C2180.89 402.669 2180.19 403.325 2179.68 404.166C2179.17 404.997 2178.92 405.945 2178.92 407.011V422H2174.14ZM2195.8 413.674L2195.77 407.842H2196.6L2206.38 397.455H2212.1L2200.95 409.28H2200.2L2195.8 413.674ZM2191.41 422V389.273H2196.19V422H2191.41ZM2206.91 422L2198.12 410.335L2201.41 406.995L2212.77 422H2206.91Z" fill="white"/>
<path d="M1175.39 248.083V236.909H1179.12V256H1175.47V252.694H1175.27C1174.83 253.713 1174.13 254.562 1173.16 255.242C1172.2 255.913 1171 256.249 1169.56 256.249C1168.34 256.249 1167.25 255.979 1166.31 255.441C1165.37 254.894 1164.63 254.086 1164.1 253.017C1163.57 251.948 1163.3 250.627 1163.3 249.052V236.909H1167.02V248.605C1167.02 249.906 1167.38 250.941 1168.1 251.712C1168.82 252.483 1169.76 252.868 1170.91 252.868C1171.6 252.868 1172.29 252.694 1172.98 252.346C1173.68 251.998 1174.25 251.472 1174.71 250.767C1175.17 250.063 1175.4 249.168 1175.39 248.083ZM1198.42 241.57L1195.05 242.167C1194.91 241.736 1194.69 241.326 1194.38 240.936C1194.08 240.547 1193.68 240.228 1193.16 239.979C1192.65 239.73 1192.01 239.606 1191.24 239.606C1190.19 239.606 1189.31 239.842 1188.6 240.315C1187.9 240.779 1187.55 241.379 1187.55 242.117C1187.55 242.755 1187.78 243.269 1188.25 243.658C1188.73 244.047 1189.49 244.366 1190.54 244.615L1193.57 245.311C1195.33 245.717 1196.64 246.343 1197.5 247.188C1198.36 248.033 1198.79 249.131 1198.79 250.482C1198.79 251.625 1198.46 252.644 1197.8 253.539C1197.15 254.426 1196.23 255.122 1195.05 255.627C1193.88 256.133 1192.53 256.385 1190.99 256.385C1188.85 256.385 1187.11 255.93 1185.76 255.018C1184.41 254.098 1183.58 252.793 1183.27 251.103L1186.86 250.556C1187.09 251.492 1187.55 252.201 1188.24 252.681C1188.94 253.154 1189.85 253.39 1190.96 253.39C1192.18 253.39 1193.16 253.137 1193.88 252.632C1194.61 252.118 1194.98 251.492 1194.98 250.755C1194.98 250.158 1194.75 249.657 1194.31 249.251C1193.87 248.845 1193.19 248.538 1192.28 248.331L1189.05 247.623C1187.27 247.217 1185.95 246.571 1185.1 245.684C1184.25 244.797 1183.83 243.675 1183.83 242.316C1183.83 241.189 1184.14 240.203 1184.77 239.358C1185.4 238.512 1186.27 237.854 1187.38 237.381C1188.49 236.901 1189.77 236.661 1191.2 236.661C1193.26 236.661 1194.89 237.108 1196.07 238.003C1197.26 238.889 1198.04 240.078 1198.42 241.57ZM1211.11 256.385C1209.23 256.385 1207.61 255.983 1206.25 255.18C1204.9 254.368 1203.85 253.228 1203.12 251.762C1202.39 250.287 1202.02 248.559 1202.02 246.579C1202.02 244.623 1202.39 242.9 1203.12 241.408C1203.85 239.917 1204.88 238.753 1206.2 237.916C1207.52 237.079 1209.07 236.661 1210.85 236.661C1211.92 236.661 1212.97 236.839 1213.98 237.195C1214.99 237.551 1215.9 238.111 1216.7 238.873C1217.51 239.635 1218.14 240.625 1218.6 241.843C1219.07 243.053 1219.3 244.524 1219.3 246.256V247.573L1204.12 247.573V244.789L1215.66 244.789C1215.66 243.811 1215.46 242.945 1215.06 242.191C1214.66 241.429 1214.1 240.828 1213.38 240.389C1212.67 239.95 1211.83 239.73 1210.87 239.73C1209.83 239.73 1208.92 239.987 1208.14 240.501C1207.37 241.007 1206.77 241.669 1206.35 242.49C1205.93 243.302 1205.73 244.184 1205.73 245.137V247.312C1205.73 248.588 1205.95 249.674 1206.4 250.569C1206.85 251.463 1207.49 252.147 1208.3 252.619C1209.11 253.083 1210.06 253.315 1211.15 253.315C1211.85 253.315 1212.49 253.216 1213.07 253.017C1213.65 252.81 1214.15 252.503 1214.58 252.097C1215 251.691 1215.32 251.19 1215.55 250.593L1219.06 251.227C1218.78 252.263 1218.28 253.17 1217.55 253.949C1216.83 254.72 1215.92 255.321 1214.82 255.751C1213.74 256.174 1212.5 256.385 1211.11 256.385ZM1237.73 241.57L1234.36 242.167C1234.22 241.736 1234 241.326 1233.69 240.936C1233.39 240.547 1232.98 240.228 1232.47 239.979C1231.96 239.73 1231.31 239.606 1230.54 239.606C1229.49 239.606 1228.61 239.842 1227.91 240.315C1227.2 240.779 1226.85 241.379 1226.85 242.117C1226.85 242.755 1227.09 243.269 1227.56 243.658C1228.03 244.047 1228.8 244.366 1229.85 244.615L1232.88 245.311C1234.64 245.717 1235.95 246.343 1236.81 247.188C1237.67 248.033 1238.1 249.131 1238.1 250.482C1238.1 251.625 1237.77 252.644 1237.11 253.539C1236.45 254.426 1235.54 255.122 1234.36 255.627C1233.19 256.133 1231.84 256.385 1230.3 256.385C1228.16 256.385 1226.41 255.93 1225.06 255.018C1223.71 254.098 1222.88 252.793 1222.58 251.103L1226.17 250.556C1226.39 251.492 1226.85 252.201 1227.55 252.681C1228.24 253.154 1229.15 253.39 1230.27 253.39C1231.49 253.39 1232.46 253.137 1233.19 252.632C1233.92 252.118 1234.29 251.492 1234.29 250.755C1234.29 250.158 1234.06 249.657 1233.61 249.251C1233.18 248.845 1232.5 248.538 1231.59 248.331L1228.36 247.623C1226.58 247.217 1225.26 246.571 1224.4 245.684C1223.56 244.797 1223.14 243.675 1223.14 242.316C1223.14 241.189 1223.45 240.203 1224.08 239.358C1224.71 238.512 1225.58 237.854 1226.69 237.381C1227.8 236.901 1229.07 236.661 1230.51 236.661C1232.57 236.661 1234.19 237.108 1235.38 238.003C1236.56 238.889 1237.35 240.078 1237.73 241.57Z" fill="#777777"/>
<path d="M670.044 299L650.044 287.453L650.044 310.547L670.044 299ZM500.551 301L652.044 301L652.044 297L500.551 297L500.551 301Z" fill="#777777"/>
<path d="M1899.09 299L1879.09 287.453L1879.09 310.547L1899.09 299ZM1729.6 301L1881.09 301L1881.09 297L1729.6 297L1729.6 301Z" fill="#777777"/>
<path d="M1284.89 299L1264.89 287.453L1264.89 310.547L1284.89 299ZM1115.4 301L1266.89 301L1266.89 297L1115.4 297L1115.4 301Z" fill="#777777"/>
<path d="M514.036 250.131V231.04H517.752V250.131H514.036ZM515.913 228.094C515.266 228.094 514.711 227.879 514.247 227.448C513.791 227.009 513.563 226.487 513.563 225.882C513.563 225.269 513.791 224.747 514.247 224.316C514.711 223.877 515.266 223.657 515.913 223.657C516.559 223.657 517.11 223.877 517.566 224.316C518.03 224.747 518.262 225.269 518.262 225.882C518.262 226.487 518.03 227.009 517.566 227.448C517.11 227.879 516.559 228.094 515.913 228.094ZM526.468 238.796V250.131H522.752V231.04H526.319V234.147H526.555C526.994 233.136 527.682 232.324 528.618 231.711C529.563 231.098 530.752 230.791 532.185 230.791C533.486 230.791 534.625 231.065 535.603 231.612C536.581 232.15 537.339 232.954 537.878 234.023C538.416 235.092 538.686 236.413 538.686 237.988V250.131H534.969V238.435C534.969 237.051 534.609 235.97 533.888 235.191C533.167 234.404 532.177 234.01 530.917 234.01C530.056 234.01 529.289 234.197 528.618 234.57C527.955 234.943 527.429 235.49 527.04 236.21C526.658 236.923 526.468 237.785 526.468 238.796ZM552.581 231.04V234.023H542.153V231.04H552.581ZM544.95 226.466H548.666V244.525C548.666 245.246 548.774 245.789 548.989 246.154C549.205 246.51 549.482 246.754 549.822 246.887C550.17 247.011 550.547 247.073 550.953 247.073C551.251 247.073 551.512 247.053 551.736 247.011C551.96 246.97 552.134 246.937 552.258 246.912L552.929 249.982C552.714 250.065 552.407 250.147 552.009 250.23C551.612 250.321 551.115 250.371 550.518 250.379C549.54 250.396 548.629 250.222 547.784 249.857C546.938 249.493 546.255 248.929 545.733 248.167C545.211 247.405 544.95 246.448 544.95 245.296V226.466ZM564.715 250.516C562.834 250.516 561.214 250.114 559.855 249.311C558.505 248.499 557.461 247.359 556.723 245.893C555.994 244.418 555.629 242.69 555.629 240.71C555.629 238.754 555.994 237.031 556.723 235.539C557.461 234.048 558.488 232.884 559.805 232.047C561.131 231.21 562.681 230.791 564.454 230.791C565.531 230.791 566.575 230.97 567.586 231.326C568.597 231.682 569.504 232.241 570.308 233.004C571.112 233.766 571.746 234.756 572.21 235.974C572.674 237.184 572.906 238.655 572.906 240.387V241.704H557.73V238.92H569.264C569.264 237.942 569.065 237.076 568.667 236.322C568.27 235.56 567.71 234.959 566.989 234.52C566.277 234.081 565.44 233.861 564.479 233.861C563.435 233.861 562.523 234.118 561.744 234.632C560.974 235.137 560.377 235.8 559.955 236.621C559.54 237.433 559.333 238.315 559.333 239.268V241.443C559.333 242.719 559.557 243.805 560.004 244.699C560.46 245.594 561.094 246.278 561.906 246.75C562.718 247.214 563.667 247.446 564.752 247.446C565.457 247.446 566.099 247.347 566.679 247.148C567.259 246.941 567.76 246.634 568.183 246.228C568.605 245.822 568.928 245.321 569.152 244.724L572.669 245.358C572.388 246.394 571.882 247.301 571.153 248.08C570.432 248.851 569.525 249.451 568.431 249.882C567.346 250.305 566.107 250.516 564.715 250.516ZM577.029 250.131V231.04H580.621V234.073H580.82C581.168 233.045 581.781 232.237 582.659 231.649C583.546 231.052 584.548 230.754 585.667 230.754C585.899 230.754 586.173 230.762 586.487 230.779C586.811 230.796 587.063 230.816 587.246 230.841V234.396C587.096 234.354 586.831 234.309 586.45 234.259C586.069 234.201 585.688 234.172 585.307 234.172C584.428 234.172 583.645 234.358 582.958 234.731C582.278 235.096 581.74 235.606 581.342 236.26C580.944 236.906 580.745 237.644 580.745 238.472V250.131H577.029ZM595.846 250.553C594.637 250.553 593.543 250.33 592.565 249.882C591.587 249.427 590.813 248.768 590.241 247.906C589.677 247.044 589.396 245.988 589.396 244.737C589.396 243.66 589.603 242.773 590.017 242.077C590.432 241.381 590.991 240.83 591.695 240.424C592.399 240.018 593.187 239.711 594.057 239.504C594.927 239.297 595.813 239.14 596.716 239.032C597.86 238.899 598.788 238.791 599.501 238.709C600.213 238.617 600.731 238.472 601.054 238.274C601.377 238.075 601.539 237.752 601.539 237.304V237.217C601.539 236.132 601.232 235.291 600.619 234.694C600.014 234.097 599.111 233.799 597.91 233.799C596.658 233.799 595.672 234.077 594.952 234.632C594.239 235.179 593.746 235.788 593.472 236.459L589.98 235.664C590.394 234.503 590.999 233.567 591.795 232.855C592.598 232.134 593.522 231.612 594.566 231.289C595.61 230.957 596.708 230.791 597.86 230.791C598.622 230.791 599.43 230.883 600.284 231.065C601.145 231.239 601.949 231.562 602.695 232.034C603.449 232.507 604.066 233.182 604.547 234.06C605.027 234.93 605.268 236.061 605.268 237.453V250.131H601.638V247.521H601.489C601.249 248.001 600.888 248.474 600.408 248.938C599.927 249.402 599.31 249.787 598.556 250.094C597.802 250.4 596.899 250.553 595.846 250.553ZM596.654 247.57C597.682 247.57 598.56 247.367 599.289 246.961C600.027 246.555 600.586 246.025 600.967 245.371C601.357 244.708 601.551 243.999 601.551 243.245V240.784C601.419 240.917 601.162 241.041 600.781 241.157C600.408 241.265 599.981 241.36 599.501 241.443C599.02 241.518 598.552 241.588 598.096 241.654C597.64 241.712 597.259 241.762 596.953 241.803C596.232 241.895 595.573 242.048 594.976 242.263C594.388 242.479 593.916 242.789 593.559 243.195C593.211 243.593 593.037 244.124 593.037 244.786C593.037 245.706 593.377 246.402 594.057 246.874C594.736 247.338 595.602 247.57 596.654 247.57ZM618.259 250.516C616.411 250.516 614.82 250.098 613.486 249.261C612.16 248.416 611.141 247.251 610.429 245.768C609.716 244.285 609.36 242.586 609.36 240.672C609.36 238.733 609.724 237.022 610.454 235.539C611.183 234.048 612.21 232.884 613.536 232.047C614.862 231.21 616.424 230.791 618.222 230.791C619.672 230.791 620.964 231.061 622.1 231.599C623.235 232.13 624.15 232.875 624.846 233.836C625.551 234.798 625.969 235.92 626.102 237.205H622.485C622.286 236.31 621.83 235.539 621.118 234.893C620.413 234.247 619.469 233.923 618.284 233.923C617.248 233.923 616.341 234.197 615.562 234.744C614.791 235.282 614.191 236.053 613.76 237.056C613.329 238.05 613.113 239.227 613.113 240.585C613.113 241.977 613.325 243.179 613.747 244.19C614.17 245.201 614.766 245.984 615.537 246.539C616.316 247.094 617.231 247.372 618.284 247.372C618.988 247.372 619.626 247.243 620.198 246.986C620.778 246.721 621.263 246.344 621.652 245.855C622.05 245.366 622.327 244.778 622.485 244.09H626.102C625.969 245.325 625.567 246.427 624.896 247.396C624.225 248.366 623.326 249.128 622.199 249.683C621.08 250.239 619.767 250.516 618.259 250.516ZM638.987 231.04V234.023H628.559V231.04H638.987ZM631.356 226.466H635.072V244.525C635.072 245.246 635.18 245.789 635.395 246.154C635.611 246.51 635.888 246.754 636.228 246.887C636.576 247.011 636.953 247.073 637.359 247.073C637.657 247.073 637.918 247.053 638.142 247.011C638.366 246.97 638.54 246.937 638.664 246.912L639.335 249.982C639.12 250.065 638.813 250.147 638.416 250.23C638.018 250.321 637.521 250.371 636.924 250.379C635.946 250.396 635.035 250.222 634.19 249.857C633.345 249.493 632.661 248.929 632.139 248.167C631.617 247.405 631.356 246.448 631.356 245.296V226.466ZM657.096 235.701L653.728 236.297C653.587 235.867 653.364 235.456 653.057 235.067C652.759 234.677 652.353 234.358 651.839 234.11C651.325 233.861 650.683 233.737 649.912 233.737C648.86 233.737 647.982 233.973 647.278 234.445C646.573 234.91 646.221 235.51 646.221 236.248C646.221 236.886 646.457 237.399 646.929 237.789C647.402 238.178 648.164 238.497 649.216 238.746L652.249 239.442C654.006 239.848 655.315 240.474 656.177 241.319C657.038 242.164 657.469 243.262 657.469 244.612C657.469 245.756 657.138 246.775 656.475 247.67C655.82 248.557 654.905 249.253 653.728 249.758C652.56 250.263 651.205 250.516 649.664 250.516C647.526 250.516 645.782 250.06 644.431 249.149C643.081 248.229 642.252 246.924 641.945 245.234L645.537 244.687C645.761 245.623 646.221 246.332 646.917 246.812C647.613 247.285 648.52 247.521 649.639 247.521C650.857 247.521 651.831 247.268 652.56 246.763C653.289 246.249 653.654 245.623 653.654 244.886C653.654 244.289 653.43 243.788 652.982 243.382C652.543 242.976 651.868 242.669 650.956 242.462L647.725 241.754C645.943 241.348 644.626 240.701 643.773 239.815C642.927 238.928 642.505 237.805 642.505 236.447C642.505 235.32 642.82 234.334 643.449 233.488C644.079 232.643 644.949 231.985 646.059 231.512C647.17 231.032 648.442 230.791 649.875 230.791C651.938 230.791 653.562 231.239 654.747 232.134C655.932 233.02 656.715 234.209 657.096 235.701Z" fill="#777777"/>
<path d="M1747.55 250.516C1745.71 250.516 1744.12 250.098 1742.78 249.261C1741.46 248.416 1740.44 247.251 1739.72 245.768C1739.01 244.285 1738.66 242.586 1738.66 240.672C1738.66 238.733 1739.02 237.022 1739.75 235.539C1740.48 234.048 1741.51 232.884 1742.83 232.047C1744.16 231.21 1745.72 230.791 1747.52 230.791C1748.97 230.791 1750.26 231.061 1751.4 231.599C1752.53 232.13 1753.45 232.875 1754.14 233.836C1754.85 234.798 1755.26 235.92 1755.4 237.205H1751.78C1751.58 236.31 1751.13 235.539 1750.41 234.893C1749.71 234.247 1748.76 233.923 1747.58 233.923C1746.54 233.923 1745.64 234.197 1744.86 234.744C1744.09 235.282 1743.49 236.053 1743.06 237.056C1742.62 238.05 1742.41 239.227 1742.41 240.585C1742.41 241.977 1742.62 243.179 1743.04 244.19C1743.47 245.201 1744.06 245.984 1744.83 246.539C1745.61 247.094 1746.53 247.372 1747.58 247.372C1748.28 247.372 1748.92 247.243 1749.49 246.986C1750.07 246.721 1750.56 246.344 1750.95 245.855C1751.35 245.366 1751.62 244.778 1751.78 244.09H1755.4C1755.26 245.325 1754.86 246.427 1754.19 247.396C1753.52 248.366 1752.62 249.128 1751.49 249.683C1750.38 250.239 1749.06 250.516 1747.55 250.516ZM1767.41 250.516C1765.62 250.516 1764.06 250.106 1762.73 249.286C1761.39 248.465 1760.36 247.318 1759.62 245.843C1758.88 244.368 1758.51 242.644 1758.51 240.672C1758.51 238.692 1758.88 236.96 1759.62 235.477C1760.36 233.994 1761.39 232.842 1762.73 232.022C1764.06 231.202 1765.62 230.791 1767.41 230.791C1769.2 230.791 1770.76 231.202 1772.1 232.022C1773.43 232.842 1774.47 233.994 1775.21 235.477C1775.94 236.96 1776.31 238.692 1776.31 240.672C1776.31 242.644 1775.94 244.368 1775.21 245.843C1774.47 247.318 1773.43 248.465 1772.1 249.286C1770.76 250.106 1769.2 250.516 1767.41 250.516ZM1767.43 247.396C1768.59 247.396 1769.55 247.09 1770.31 246.477C1771.07 245.864 1771.63 245.047 1772 244.028C1772.37 243.009 1772.56 241.886 1772.56 240.66C1772.56 239.442 1772.37 238.323 1772 237.304C1771.63 236.277 1771.07 235.452 1770.31 234.831C1769.55 234.209 1768.59 233.899 1767.43 233.899C1766.26 233.899 1765.29 234.209 1764.52 234.831C1763.75 235.452 1763.19 236.277 1762.81 237.304C1762.45 238.323 1762.27 239.442 1762.27 240.66C1762.27 241.886 1762.45 243.009 1762.81 244.028C1763.19 245.047 1763.75 245.864 1764.52 246.477C1765.29 247.09 1766.26 247.396 1767.43 247.396ZM1784.18 238.796V250.131H1780.46V231.04H1784.03V234.147H1784.26C1784.7 233.136 1785.39 232.324 1786.33 231.711C1787.27 231.098 1788.46 230.791 1789.89 230.791C1791.2 230.791 1792.33 231.065 1793.31 231.612C1794.29 232.15 1795.05 232.954 1795.59 234.023C1796.13 235.092 1796.39 236.413 1796.39 237.988V250.131H1792.68V238.435C1792.68 237.051 1792.32 235.97 1791.6 235.191C1790.88 234.404 1789.89 234.01 1788.63 234.01C1787.76 234.01 1787 234.197 1786.33 234.57C1785.66 234.943 1785.14 235.49 1784.75 236.21C1784.37 236.923 1784.18 237.785 1784.18 238.796ZM1805.09 238.796V250.131H1801.38V231.04H1804.95V234.147H1805.18C1805.62 233.136 1806.31 232.324 1807.25 231.711C1808.19 231.098 1809.38 230.791 1810.81 230.791C1812.11 230.791 1813.25 231.065 1814.23 231.612C1815.21 232.15 1815.97 232.954 1816.5 234.023C1817.04 235.092 1817.31 236.413 1817.31 237.988V250.131H1813.6V238.435C1813.6 237.051 1813.24 235.97 1812.51 235.191C1811.79 234.404 1810.8 234.01 1809.54 234.01C1808.68 234.01 1807.92 234.197 1807.25 234.57C1806.58 234.943 1806.06 235.49 1805.67 236.21C1805.29 236.923 1805.09 237.785 1805.09 238.796ZM1830.52 250.516C1828.64 250.516 1827.02 250.114 1825.66 249.311C1824.31 248.499 1823.27 247.359 1822.53 245.893C1821.8 244.418 1821.44 242.69 1821.44 240.71C1821.44 238.754 1821.8 237.031 1822.53 235.539C1823.27 234.048 1824.3 232.884 1825.62 232.047C1826.94 231.21 1828.49 230.791 1830.26 230.791C1831.34 230.791 1832.38 230.97 1833.4 231.326C1834.41 231.682 1835.31 232.241 1836.12 233.004C1836.92 233.766 1837.56 234.756 1838.02 235.974C1838.48 237.184 1838.72 238.655 1838.72 240.387V241.704L1823.54 241.704V238.92H1835.07C1835.07 237.942 1834.87 237.076 1834.48 236.322C1834.08 235.56 1833.52 234.959 1832.8 234.52C1832.09 234.081 1831.25 233.861 1830.29 233.861C1829.24 233.861 1828.33 234.118 1827.55 234.632C1826.78 235.137 1826.19 235.8 1825.76 236.621C1825.35 237.433 1825.14 238.315 1825.14 239.268V241.443C1825.14 242.719 1825.37 243.805 1825.81 244.699C1826.27 245.594 1826.9 246.278 1827.72 246.75C1828.53 247.214 1829.48 247.446 1830.56 247.446C1831.27 247.446 1831.91 247.347 1832.49 247.148C1833.07 246.941 1833.57 246.634 1833.99 246.228C1834.41 245.822 1834.74 245.321 1834.96 244.724L1838.48 245.358C1838.2 246.394 1837.69 247.301 1836.96 248.08C1836.24 248.851 1835.33 249.451 1834.24 249.882C1833.16 250.305 1831.92 250.516 1830.52 250.516ZM1850.88 250.516C1849.03 250.516 1847.44 250.098 1846.11 249.261C1844.78 248.416 1843.76 247.251 1843.05 245.768C1842.34 244.285 1841.98 242.586 1841.98 240.672C1841.98 238.733 1842.35 237.022 1843.07 235.539C1843.8 234.048 1844.83 232.884 1846.16 232.047C1847.48 231.21 1849.04 230.791 1850.84 230.791C1852.29 230.791 1853.59 231.061 1854.72 231.599C1855.86 232.13 1856.77 232.875 1857.47 233.836C1858.17 234.798 1858.59 235.92 1858.72 237.205H1855.11C1854.91 236.31 1854.45 235.539 1853.74 234.893C1853.03 234.247 1852.09 233.923 1850.9 233.923C1849.87 233.923 1848.96 234.197 1848.18 234.744C1847.41 235.282 1846.81 236.053 1846.38 237.056C1845.95 238.05 1845.73 239.227 1845.73 240.585C1845.73 241.977 1845.95 243.179 1846.37 244.19C1846.79 245.201 1847.39 245.984 1848.16 246.539C1848.94 247.094 1849.85 247.372 1850.9 247.372C1851.61 247.372 1852.25 247.243 1852.82 246.986C1853.4 246.721 1853.88 246.344 1854.27 245.855C1854.67 245.366 1854.95 244.778 1855.11 244.09H1858.72C1858.59 245.325 1858.19 246.427 1857.52 247.396C1856.85 248.366 1855.95 249.128 1854.82 249.683C1853.7 250.239 1852.39 250.516 1850.88 250.516ZM1871.61 231.04V234.023H1861.18V231.04H1871.61ZM1863.98 226.466H1867.69V244.525C1867.69 245.246 1867.8 245.789 1868.02 246.154C1868.23 246.51 1868.51 246.754 1868.85 246.887C1869.2 247.011 1869.57 247.073 1869.98 247.073C1870.28 247.073 1870.54 247.053 1870.76 247.011C1870.99 246.97 1871.16 246.937 1871.29 246.912L1871.96 249.982C1871.74 250.065 1871.43 250.147 1871.04 250.23C1870.64 250.321 1870.14 250.371 1869.55 250.379C1868.57 250.396 1867.66 250.222 1866.81 249.857C1865.97 249.493 1865.28 248.929 1864.76 248.167C1864.24 247.405 1863.98 246.448 1863.98 245.296V226.466ZM1889.72 235.701L1886.35 236.297C1886.21 235.867 1885.98 235.456 1885.68 235.067C1885.38 234.677 1884.97 234.358 1884.46 234.11C1883.95 233.861 1883.3 233.737 1882.53 233.737C1881.48 233.737 1880.6 233.973 1879.9 234.445C1879.19 234.91 1878.84 235.51 1878.84 236.248C1878.84 236.886 1879.08 237.399 1879.55 237.789C1880.02 238.178 1880.79 238.497 1881.84 238.746L1884.87 239.442C1886.63 239.848 1887.94 240.474 1888.8 241.319C1889.66 242.164 1890.09 243.262 1890.09 244.612C1890.09 245.756 1889.76 246.775 1889.1 247.67C1888.44 248.557 1887.53 249.253 1886.35 249.758C1885.18 250.263 1883.83 250.516 1882.28 250.516C1880.15 250.516 1878.4 250.06 1877.05 249.149C1875.7 248.229 1874.87 246.924 1874.57 245.234L1878.16 244.687C1878.38 245.623 1878.84 246.332 1879.54 246.812C1880.23 247.285 1881.14 247.521 1882.26 247.521C1883.48 247.521 1884.45 247.268 1885.18 246.763C1885.91 246.249 1886.27 245.623 1886.27 244.886C1886.27 244.289 1886.05 243.788 1885.6 243.382C1885.16 242.976 1884.49 242.669 1883.58 242.462L1880.35 241.754C1878.56 241.348 1877.25 240.701 1876.39 239.815C1875.55 238.928 1875.13 237.805 1875.13 236.447C1875.13 235.32 1875.44 234.334 1876.07 233.488C1876.7 232.643 1877.57 231.985 1878.68 231.512C1879.79 231.032 1881.06 230.791 1882.5 230.791C1884.56 230.791 1886.18 231.239 1887.37 232.134C1888.55 233.02 1889.34 234.209 1889.72 235.701Z" fill="#777777"/>
<defs>
<linearGradient id="paint0_linear_3661_784" x1="892.544" y1="93.5" x2="892.543" y2="2010.39" gradientUnits="userSpaceOnUse">
<stop stop-color="#9933FF"/>
<stop offset="1" stop-color="#FF9AB1"/>
<stop offset="1" stop-color="#EA8FA4"/>
</linearGradient>
<linearGradient id="paint1_linear_3661_784" x1="278.051" y1="93.5" x2="278.051" y2="2010.39" gradientUnits="userSpaceOnUse">
<stop stop-color="#9933FF"/>
<stop offset="1" stop-color="#FF9AB1"/>
<stop offset="1" stop-color="#EA8FA4"/>
</linearGradient>
<linearGradient id="paint2_linear_3661_784" x1="1507.74" y1="93.5" x2="1507.74" y2="2010.39" gradientUnits="userSpaceOnUse">
<stop stop-color="#9933FF"/>
<stop offset="1" stop-color="#FF9AB1"/>
<stop offset="1" stop-color="#EA8FA4"/>
</linearGradient>
<linearGradient id="paint3_linear_3661_784" x1="2121.95" y1="93.5" x2="2121.95" y2="2010.39" gradientUnits="userSpaceOnUse">
<stop stop-color="#9933FF"/>
<stop offset="1" stop-color="#FF9AB1"/>
<stop offset="1" stop-color="#EA8FA4"/>
</linearGradient>
</defs>
</svg>
