<svg width="945" height="711" viewBox="0 0 945 711" fill="none" xmlns="http://www.w3.org/2000/svg">
<g clip-path="url(#clip0_102_258)">
<path d="M681.98 480.5L268.02 241.5" stroke="url(#paint0_linear_102_258)" stroke-opacity="0.15" stroke-width="2"/>
<path d="M474.999 122L474.999 600" stroke="url(#paint1_linear_102_258)" stroke-opacity="0.15" stroke-width="2"/>
<g filter="url(#filter0_d_102_258)">
<path d="M474 122L679.5 241.5L885 361L679.5 480.5L474 600L268.5 480.5L63 361L268.5 241.5L474 122Z" fill="url(#paint2_linear_102_258)" fill-opacity="0.1"/>
</g>
<path d="M272 314.5C313.145 314.5 346.5 281.145 346.5 240C346.5 198.855 313.145 165.5 272 165.5C230.855 165.5 197.5 198.855 197.5 240C197.5 281.145 230.855 314.5 272 314.5Z" fill="#181818" stroke="#313131"/>
<path d="M271.558 205.699L271.094 207.275V253.021L271.558 253.484L292.792 240.933L271.558 205.699Z" fill="#BDC9F7"/>
<path d="M271.565 205.699L250.33 240.933L271.565 253.484V231.281V205.699Z" fill="#FEFFF3"/>
<path d="M271.57 257.505L271.309 257.824V274.12L271.57 274.883L292.817 244.96L271.57 257.505Z" fill="#C1CDFC"/>
<path d="M271.565 274.883V257.505L250.33 244.96L271.565 274.883Z" fill="#FFFEFF"/>
<path d="M271.564 253.485L292.799 240.933L271.564 231.281V253.485Z" fill="#829AEC"/>
<path d="M250.33 240.933L271.565 253.484V231.281L250.33 240.933Z" fill="#C0CBF9"/>
<path d="M240.914 138.898V137.383H236.211V134.18H241.664V132.625H234.328V144H241.703V142.453H236.211V138.898H240.914ZM247.633 133.484H245.758V135.547H243.711V136.945H245.758V141.102C245.758 141.643 245.828 142.107 245.969 142.492C246.115 142.878 246.315 143.193 246.57 143.438C246.826 143.688 247.13 143.872 247.484 143.992C247.844 144.107 248.237 144.164 248.664 144.164C248.898 144.164 249.133 144.151 249.367 144.125C249.607 144.104 249.836 144.073 250.055 144.031C250.273 143.99 250.477 143.94 250.664 143.883C250.857 143.82 251.021 143.747 251.156 143.664L250.953 142.375C250.859 142.396 250.742 142.422 250.602 142.453C250.466 142.479 250.32 142.503 250.164 142.523C250.003 142.549 249.836 142.57 249.664 142.586C249.492 142.602 249.326 142.609 249.164 142.609C248.94 142.609 248.734 142.583 248.547 142.531C248.359 142.479 248.198 142.391 248.062 142.266C247.927 142.146 247.82 141.982 247.742 141.773C247.669 141.56 247.633 141.297 247.633 140.984V136.945H250.812V135.547H247.633V133.484ZM255.359 136.75V132H253.492V144H255.359V137.883C255.448 137.747 255.549 137.625 255.664 137.516C255.784 137.406 255.911 137.312 256.047 137.234C256.208 137.135 256.385 137.06 256.578 137.008C256.776 136.956 256.984 136.93 257.203 136.93C257.484 136.93 257.732 136.969 257.945 137.047C258.164 137.12 258.349 137.234 258.5 137.391C258.646 137.536 258.755 137.727 258.828 137.961C258.906 138.195 258.945 138.469 258.945 138.781V144H260.812V138.797C260.812 138.198 260.74 137.685 260.594 137.258C260.453 136.826 260.253 136.471 259.992 136.195C259.732 135.919 259.417 135.716 259.047 135.586C258.682 135.456 258.279 135.391 257.836 135.391C257.518 135.391 257.216 135.438 256.93 135.531C256.648 135.62 256.391 135.75 256.156 135.922C256.005 136.026 255.862 136.148 255.727 136.289C255.591 136.43 255.469 136.583 255.359 136.75ZM267.047 144.156C267.87 144.156 268.57 143.995 269.148 143.672C269.732 143.349 270.164 142.984 270.445 142.578L269.445 141.609C269.185 141.943 268.854 142.201 268.453 142.383C268.052 142.56 267.62 142.648 267.156 142.648C266.818 142.648 266.505 142.591 266.219 142.477C265.938 142.362 265.693 142.201 265.484 141.992C265.276 141.794 265.112 141.57 264.992 141.32C264.872 141.07 264.784 140.76 264.727 140.391V140.352H270.586V139.547C270.586 138.943 270.505 138.385 270.344 137.875C270.182 137.365 269.943 136.924 269.625 136.555C269.307 136.19 268.914 135.906 268.445 135.703C267.977 135.495 267.438 135.391 266.828 135.391C266.281 135.391 265.766 135.495 265.281 135.703C264.802 135.906 264.38 136.198 264.016 136.578C263.651 136.958 263.365 137.417 263.156 137.953C262.948 138.49 262.844 139.089 262.844 139.75V140.07C262.844 140.648 262.943 141.188 263.141 141.688C263.344 142.182 263.63 142.612 264 142.977C264.37 143.346 264.812 143.635 265.328 143.844C265.849 144.052 266.422 144.156 267.047 144.156ZM266.82 136.906C267.133 136.906 267.406 136.961 267.641 137.07C267.88 137.174 268.078 137.315 268.234 137.492C268.396 137.674 268.521 137.888 268.609 138.133C268.698 138.372 268.742 138.615 268.742 138.859V138.984H264.766C264.823 138.661 264.911 138.372 265.031 138.117C265.151 137.862 265.299 137.643 265.477 137.461C265.654 137.284 265.854 137.148 266.078 137.055C266.307 136.956 266.555 136.906 266.82 136.906ZM278.555 135.391C277.971 135.391 277.438 135.526 276.953 135.797C276.474 136.068 276.062 136.44 275.719 136.914L275.711 136.719L275.633 135.547H273.883V144H275.75V138.781C275.849 138.531 275.971 138.31 276.117 138.117C276.263 137.924 276.44 137.766 276.648 137.641C276.841 137.51 277.062 137.414 277.312 137.352C277.562 137.289 277.844 137.258 278.156 137.258C278.432 137.258 278.708 137.273 278.984 137.305C279.266 137.336 279.549 137.383 279.836 137.445L280.102 135.602C279.94 135.544 279.716 135.495 279.43 135.453C279.148 135.411 278.857 135.391 278.555 135.391ZM286.266 144.156C287.089 144.156 287.789 143.995 288.367 143.672C288.951 143.349 289.383 142.984 289.664 142.578L288.664 141.609C288.404 141.943 288.073 142.201 287.672 142.383C287.271 142.56 286.839 142.648 286.375 142.648C286.036 142.648 285.724 142.591 285.438 142.477C285.156 142.362 284.911 142.201 284.703 141.992C284.495 141.794 284.331 141.57 284.211 141.32C284.091 141.07 284.003 140.76 283.945 140.391V140.352H289.805V139.547C289.805 138.943 289.724 138.385 289.562 137.875C289.401 137.365 289.161 136.924 288.844 136.555C288.526 136.19 288.133 135.906 287.664 135.703C287.195 135.495 286.656 135.391 286.047 135.391C285.5 135.391 284.984 135.495 284.5 135.703C284.021 135.906 283.599 136.198 283.234 136.578C282.87 136.958 282.583 137.417 282.375 137.953C282.167 138.49 282.062 139.089 282.062 139.75V140.07C282.062 140.648 282.161 141.188 282.359 141.688C282.562 142.182 282.849 142.612 283.219 142.977C283.589 143.346 284.031 143.635 284.547 143.844C285.068 144.052 285.641 144.156 286.266 144.156ZM286.039 136.906C286.352 136.906 286.625 136.961 286.859 137.07C287.099 137.174 287.297 137.315 287.453 137.492C287.615 137.674 287.74 137.888 287.828 138.133C287.917 138.372 287.961 138.615 287.961 138.859V138.984H283.984C284.042 138.661 284.13 138.372 284.25 138.117C284.37 137.862 284.518 137.643 284.695 137.461C284.872 137.284 285.073 137.148 285.297 137.055C285.526 136.956 285.773 136.906 286.039 136.906ZM297.469 144H299.164V135.547H297.289V141.531C297.216 141.688 297.128 141.831 297.023 141.961C296.919 142.086 296.799 142.195 296.664 142.289C296.503 142.393 296.315 142.477 296.102 142.539C295.888 142.596 295.646 142.625 295.375 142.625C295.115 142.625 294.888 142.591 294.695 142.523C294.503 142.456 294.344 142.341 294.219 142.18C294.094 142.023 294.003 141.815 293.945 141.555C293.888 141.289 293.859 140.961 293.859 140.57V135.547H291.992V140.555C291.992 141.19 292.062 141.737 292.203 142.195C292.344 142.648 292.542 143.021 292.797 143.312C293.057 143.604 293.367 143.82 293.727 143.961C294.091 144.096 294.492 144.164 294.93 144.164C295.44 144.164 295.901 144.047 296.312 143.812C296.724 143.573 297.073 143.242 297.359 142.82L297.469 144ZM302.602 135.547H300.977V144H302.695V137.508C302.727 137.43 302.76 137.359 302.797 137.297C302.839 137.234 302.885 137.18 302.938 137.133C303.005 137.065 303.086 137.016 303.18 136.984C303.279 136.948 303.391 136.93 303.516 136.93C303.63 136.93 303.732 136.945 303.82 136.977C303.914 137.008 303.995 137.057 304.062 137.125C304.13 137.193 304.18 137.286 304.211 137.406C304.247 137.521 304.266 137.661 304.266 137.828V144H305.953V137.727C305.953 137.674 305.953 137.635 305.953 137.609C305.953 137.578 305.953 137.552 305.953 137.531C305.974 137.443 306.005 137.365 306.047 137.297C306.089 137.224 306.141 137.161 306.203 137.109C306.271 137.052 306.349 137.008 306.438 136.977C306.526 136.945 306.63 136.93 306.75 136.93C306.865 136.93 306.969 136.945 307.062 136.977C307.161 137.008 307.245 137.057 307.312 137.125C307.38 137.198 307.432 137.294 307.469 137.414C307.505 137.529 307.523 137.669 307.523 137.836V144H309.242V137.852C309.242 137.409 309.195 137.031 309.102 136.719C309.013 136.401 308.885 136.143 308.719 135.945C308.552 135.758 308.354 135.62 308.125 135.531C307.901 135.438 307.654 135.391 307.383 135.391C307.174 135.391 306.982 135.417 306.805 135.469C306.633 135.521 306.477 135.594 306.336 135.688C306.227 135.76 306.125 135.849 306.031 135.953C305.938 136.057 305.854 136.169 305.781 136.289C305.729 136.159 305.667 136.044 305.594 135.945C305.521 135.841 305.438 135.753 305.344 135.68C305.224 135.581 305.081 135.508 304.914 135.461C304.747 135.414 304.56 135.391 304.352 135.391C303.951 135.391 303.607 135.487 303.32 135.68C303.039 135.872 302.818 136.138 302.656 136.477L302.602 135.547Z" fill="white" fill-opacity="0.7"/>
<path d="M268.02 480.5L681.98 241.5" stroke="url(#paint3_linear_102_258)" stroke-opacity="0.15" stroke-width="2"/>
<path d="M889 361H59" stroke="url(#paint4_linear_102_258)" stroke-opacity="0.15" stroke-width="2"/>
<path d="M442.75 685.383L443.516 688H445.461L441.82 676.625H440.156L436.453 688H438.406L439.18 685.383H442.75ZM439.656 683.773L440.984 679.273L442.289 683.773H439.656ZM452.727 679.391C452.143 679.391 451.609 679.526 451.125 679.797C450.646 680.068 450.234 680.44 449.891 680.914L449.883 680.719L449.805 679.547H448.055V688H449.922V682.781C450.021 682.531 450.143 682.31 450.289 682.117C450.435 681.924 450.612 681.766 450.82 681.641C451.013 681.51 451.234 681.414 451.484 681.352C451.734 681.289 452.016 681.258 452.328 681.258C452.604 681.258 452.88 681.273 453.156 681.305C453.438 681.336 453.721 681.383 454.008 681.445L454.273 679.602C454.112 679.544 453.888 679.495 453.602 679.453C453.32 679.411 453.029 679.391 452.727 679.391ZM463.922 683.859V683.695C463.922 683.216 463.878 682.763 463.789 682.336C463.706 681.909 463.581 681.521 463.414 681.172C463.289 680.922 463.143 680.693 462.977 680.484C462.815 680.271 462.63 680.091 462.422 679.945C462.177 679.768 461.901 679.633 461.594 679.539C461.292 679.44 460.958 679.391 460.594 679.391C460.318 679.391 460.06 679.419 459.82 679.477C459.586 679.529 459.37 679.609 459.172 679.719C459.021 679.802 458.88 679.898 458.75 680.008C458.62 680.117 458.5 680.24 458.391 680.375V676H456.523V688H458.211L458.297 687.078C458.391 687.193 458.487 687.299 458.586 687.398C458.69 687.492 458.799 687.581 458.914 687.664C459.138 687.826 459.391 687.948 459.672 688.031C459.953 688.115 460.266 688.156 460.609 688.156C460.948 688.156 461.26 688.112 461.547 688.023C461.839 687.94 462.102 687.82 462.336 687.664C462.628 687.471 462.878 687.229 463.086 686.938C463.294 686.646 463.461 686.32 463.586 685.961C463.695 685.659 463.779 685.331 463.836 684.977C463.893 684.622 463.922 684.25 463.922 683.859ZM462.055 683.695V683.859C462.055 684.094 462.042 684.32 462.016 684.539C461.99 684.758 461.951 684.961 461.898 685.148C461.836 685.398 461.745 685.625 461.625 685.828C461.51 686.026 461.362 686.19 461.18 686.32C461.044 686.414 460.891 686.49 460.719 686.547C460.547 686.599 460.354 686.625 460.141 686.625C459.906 686.625 459.693 686.596 459.5 686.539C459.312 686.477 459.146 686.393 459 686.289C458.87 686.19 458.753 686.078 458.648 685.953C458.549 685.823 458.464 685.68 458.391 685.523V682.023C458.453 681.888 458.526 681.763 458.609 681.648C458.698 681.529 458.797 681.424 458.906 681.336C459.057 681.206 459.234 681.107 459.438 681.039C459.641 680.966 459.87 680.93 460.125 680.93C460.333 680.93 460.521 680.953 460.688 681C460.854 681.047 461.003 681.117 461.133 681.211C461.331 681.346 461.487 681.513 461.602 681.711C461.721 681.904 461.818 682.12 461.891 682.359C461.943 682.557 461.982 682.771 462.008 683C462.039 683.224 462.055 683.456 462.055 683.695ZM466.531 679.547V681.102H469.133V686.453H466.531V688H473.5V686.453H471.016V679.547H466.531ZM468.961 677.359C468.961 677.557 469.008 677.732 469.102 677.883C469.201 678.029 469.344 678.13 469.531 678.188C469.714 678.245 469.88 678.258 470.031 678.227C470.182 678.195 470.312 678.13 470.422 678.031C470.641 677.974 470.807 677.862 470.922 677.695C471.036 677.523 471.076 677.323 471.039 677.094C471.013 676.87 470.911 676.688 470.734 676.547C470.562 676.401 470.336 676.328 470.055 676.328C469.888 676.328 469.737 676.354 469.602 676.406C469.471 676.453 469.359 676.521 469.266 676.609C469.167 676.703 469.091 676.815 469.039 676.945C468.987 677.07 468.961 677.208 468.961 677.359ZM479.461 677.484H477.586V679.547H475.539V680.945H477.586V685.102C477.586 685.643 477.656 686.107 477.797 686.492C477.943 686.878 478.143 687.193 478.398 687.438C478.654 687.688 478.958 687.872 479.312 687.992C479.672 688.107 480.065 688.164 480.492 688.164C480.727 688.164 480.961 688.151 481.195 688.125C481.435 688.104 481.664 688.073 481.883 688.031C482.102 687.99 482.305 687.94 482.492 687.883C482.685 687.82 482.849 687.747 482.984 687.664L482.781 686.375C482.688 686.396 482.57 686.422 482.43 686.453C482.294 686.479 482.148 686.503 481.992 686.523C481.831 686.549 481.664 686.57 481.492 686.586C481.32 686.602 481.154 686.609 480.992 686.609C480.768 686.609 480.562 686.583 480.375 686.531C480.188 686.479 480.026 686.391 479.891 686.266C479.755 686.146 479.648 685.982 479.57 685.773C479.497 685.56 479.461 685.297 479.461 684.984V680.945H482.641V679.547H479.461V677.484ZM491.164 679.391C490.581 679.391 490.047 679.526 489.562 679.797C489.083 680.068 488.672 680.44 488.328 680.914L488.32 680.719L488.242 679.547H486.492V688H488.359V682.781C488.458 682.531 488.581 682.31 488.727 682.117C488.872 681.924 489.049 681.766 489.258 681.641C489.451 681.51 489.672 681.414 489.922 681.352C490.172 681.289 490.453 681.258 490.766 681.258C491.042 681.258 491.318 681.273 491.594 681.305C491.875 681.336 492.159 681.383 492.445 681.445L492.711 679.602C492.549 679.544 492.326 679.495 492.039 679.453C491.758 679.411 491.466 679.391 491.164 679.391ZM500.469 688H502.164V679.547H500.289V685.531C500.216 685.688 500.128 685.831 500.023 685.961C499.919 686.086 499.799 686.195 499.664 686.289C499.503 686.393 499.315 686.477 499.102 686.539C498.888 686.596 498.646 686.625 498.375 686.625C498.115 686.625 497.888 686.591 497.695 686.523C497.503 686.456 497.344 686.341 497.219 686.18C497.094 686.023 497.003 685.815 496.945 685.555C496.888 685.289 496.859 684.961 496.859 684.57V679.547H494.992V684.555C494.992 685.19 495.062 685.737 495.203 686.195C495.344 686.648 495.542 687.021 495.797 687.312C496.057 687.604 496.367 687.82 496.727 687.961C497.091 688.096 497.492 688.164 497.93 688.164C498.44 688.164 498.901 688.047 499.312 687.812C499.724 687.573 500.073 687.242 500.359 686.82L500.469 688ZM505.602 679.547H503.977V688H505.695V681.508C505.727 681.43 505.76 681.359 505.797 681.297C505.839 681.234 505.885 681.18 505.938 681.133C506.005 681.065 506.086 681.016 506.18 680.984C506.279 680.948 506.391 680.93 506.516 680.93C506.63 680.93 506.732 680.945 506.82 680.977C506.914 681.008 506.995 681.057 507.062 681.125C507.13 681.193 507.18 681.286 507.211 681.406C507.247 681.521 507.266 681.661 507.266 681.828V688H508.953V681.727C508.953 681.674 508.953 681.635 508.953 681.609C508.953 681.578 508.953 681.552 508.953 681.531C508.974 681.443 509.005 681.365 509.047 681.297C509.089 681.224 509.141 681.161 509.203 681.109C509.271 681.052 509.349 681.008 509.438 680.977C509.526 680.945 509.63 680.93 509.75 680.93C509.865 680.93 509.969 680.945 510.062 680.977C510.161 681.008 510.245 681.057 510.312 681.125C510.38 681.198 510.432 681.294 510.469 681.414C510.505 681.529 510.523 681.669 510.523 681.836V688H512.242V681.852C512.242 681.409 512.195 681.031 512.102 680.719C512.013 680.401 511.885 680.143 511.719 679.945C511.552 679.758 511.354 679.62 511.125 679.531C510.901 679.438 510.654 679.391 510.383 679.391C510.174 679.391 509.982 679.417 509.805 679.469C509.633 679.521 509.477 679.594 509.336 679.688C509.227 679.76 509.125 679.849 509.031 679.953C508.938 680.057 508.854 680.169 508.781 680.289C508.729 680.159 508.667 680.044 508.594 679.945C508.521 679.841 508.438 679.753 508.344 679.68C508.224 679.581 508.081 679.508 507.914 679.461C507.747 679.414 507.56 679.391 507.352 679.391C506.951 679.391 506.607 679.487 506.32 679.68C506.039 679.872 505.818 680.138 505.656 680.477L505.602 679.547Z" fill="white" fill-opacity="0.7"/>
<path d="M854.938 443.07V441.57C854.938 441.096 854.896 440.641 854.812 440.203C854.729 439.76 854.604 439.346 854.438 438.961C854.286 438.602 854.099 438.271 853.875 437.969C853.651 437.667 853.388 437.404 853.086 437.18C852.784 436.956 852.443 436.781 852.062 436.656C851.682 436.531 851.266 436.469 850.812 436.469C850.365 436.469 849.953 436.531 849.578 436.656C849.208 436.776 848.878 436.948 848.586 437.172C848.284 437.401 848.021 437.672 847.797 437.984C847.578 438.292 847.393 438.63 847.242 439C847.086 439.385 846.969 439.794 846.891 440.227C846.812 440.659 846.773 441.107 846.773 441.57V443.07C846.773 443.513 846.81 443.945 846.883 444.367C846.956 444.784 847.065 445.177 847.211 445.547C847.362 445.932 847.549 446.286 847.773 446.609C848.003 446.932 848.268 447.208 848.57 447.438C848.867 447.661 849.203 447.839 849.578 447.969C849.958 448.094 850.375 448.156 850.828 448.156C851.266 448.156 851.667 448.096 852.031 447.977C852.401 447.857 852.737 447.693 853.039 447.484C853.352 447.255 853.628 446.982 853.867 446.664C854.107 446.341 854.307 445.99 854.469 445.609C854.62 445.229 854.734 444.826 854.812 444.398C854.896 443.971 854.938 443.529 854.938 443.07ZM853.047 441.555V443.07C853.042 443.352 853.023 443.63 852.992 443.906C852.966 444.177 852.922 444.438 852.859 444.688C852.786 444.974 852.688 445.237 852.562 445.477C852.443 445.711 852.292 445.914 852.109 446.086C851.953 446.237 851.766 446.357 851.547 446.445C851.333 446.534 851.094 446.578 850.828 446.578C850.552 446.578 850.307 446.534 850.094 446.445C849.885 446.352 849.701 446.227 849.539 446.07C849.372 445.904 849.229 445.701 849.109 445.461C848.995 445.216 848.904 444.953 848.836 444.672C848.773 444.422 848.729 444.161 848.703 443.891C848.677 443.62 848.664 443.346 848.664 443.07V441.555C848.664 441.273 848.677 440.995 848.703 440.719C848.734 440.438 848.781 440.172 848.844 439.922C848.911 439.63 849.008 439.367 849.133 439.133C849.258 438.893 849.411 438.688 849.594 438.516C849.745 438.375 849.922 438.266 850.125 438.188C850.328 438.104 850.557 438.062 850.812 438.062C851.078 438.062 851.315 438.104 851.523 438.188C851.732 438.271 851.917 438.385 852.078 438.531C852.26 438.698 852.414 438.901 852.539 439.141C852.669 439.375 852.773 439.635 852.852 439.922C852.919 440.172 852.966 440.435 852.992 440.711C853.023 440.987 853.042 441.268 853.047 441.555ZM856.898 451.25H858.766V447.234C858.865 447.344 858.971 447.445 859.086 447.539C859.201 447.633 859.32 447.716 859.445 447.789C859.659 447.909 859.891 448 860.141 448.062C860.396 448.125 860.674 448.156 860.977 448.156C861.508 448.156 861.979 448.047 862.391 447.828C862.802 447.609 863.148 447.307 863.43 446.922C863.711 446.542 863.922 446.089 864.062 445.562C864.208 445.036 864.281 444.469 864.281 443.859V443.695C864.281 443.06 864.208 442.479 864.062 441.953C863.917 441.422 863.706 440.966 863.43 440.586C863.148 440.206 862.799 439.911 862.383 439.703C861.971 439.495 861.495 439.391 860.953 439.391C860.677 439.391 860.417 439.422 860.172 439.484C859.927 439.542 859.703 439.625 859.5 439.734C859.344 439.818 859.198 439.917 859.062 440.031C858.927 440.146 858.802 440.273 858.688 440.414L858.617 439.547H856.898V451.25ZM862.414 443.695V443.859C862.414 444.234 862.378 444.591 862.305 444.93C862.232 445.263 862.115 445.56 861.953 445.82C861.797 446.076 861.594 446.279 861.344 446.43C861.099 446.576 860.802 446.648 860.453 446.648C860.24 446.648 860.044 446.625 859.867 446.578C859.69 446.526 859.531 446.458 859.391 446.375C859.255 446.286 859.135 446.182 859.031 446.062C858.927 445.943 858.839 445.81 858.766 445.664V441.906C858.849 441.75 858.945 441.609 859.055 441.484C859.169 441.359 859.302 441.255 859.453 441.172C859.583 441.094 859.732 441.034 859.898 440.992C860.065 440.951 860.245 440.93 860.438 440.93C860.786 440.93 861.086 441.003 861.336 441.148C861.586 441.294 861.792 441.492 861.953 441.742C862.109 441.992 862.224 442.286 862.297 442.625C862.375 442.958 862.414 443.315 862.414 443.695ZM870.242 437.484H868.367V439.547H866.32V440.945H868.367V445.102C868.367 445.643 868.438 446.107 868.578 446.492C868.724 446.878 868.924 447.193 869.18 447.438C869.435 447.688 869.74 447.872 870.094 447.992C870.453 448.107 870.846 448.164 871.273 448.164C871.508 448.164 871.742 448.151 871.977 448.125C872.216 448.104 872.445 448.073 872.664 448.031C872.883 447.99 873.086 447.94 873.273 447.883C873.466 447.82 873.63 447.747 873.766 447.664L873.562 446.375C873.469 446.396 873.352 446.422 873.211 446.453C873.076 446.479 872.93 446.503 872.773 446.523C872.612 446.549 872.445 446.57 872.273 446.586C872.102 446.602 871.935 446.609 871.773 446.609C871.549 446.609 871.344 446.583 871.156 446.531C870.969 446.479 870.807 446.391 870.672 446.266C870.536 446.146 870.43 445.982 870.352 445.773C870.279 445.56 870.242 445.297 870.242 444.984V440.945H873.422V439.547H870.242V437.484ZM876.531 439.547V441.102H879.133V446.453H876.531V448H883.5V446.453H881.016V439.547H876.531ZM878.961 437.359C878.961 437.557 879.008 437.732 879.102 437.883C879.201 438.029 879.344 438.13 879.531 438.188C879.714 438.245 879.88 438.258 880.031 438.227C880.182 438.195 880.312 438.13 880.422 438.031C880.641 437.974 880.807 437.862 880.922 437.695C881.036 437.523 881.076 437.323 881.039 437.094C881.013 436.87 880.911 436.688 880.734 436.547C880.562 436.401 880.336 436.328 880.055 436.328C879.888 436.328 879.737 436.354 879.602 436.406C879.471 436.453 879.359 436.521 879.266 436.609C879.167 436.703 879.091 436.815 879.039 436.945C878.987 437.07 878.961 437.208 878.961 437.359ZM886.773 439.547H885.148V448H886.867V441.508C886.898 441.43 886.932 441.359 886.969 441.297C887.01 441.234 887.057 441.18 887.109 441.133C887.177 441.065 887.258 441.016 887.352 440.984C887.451 440.948 887.562 440.93 887.688 440.93C887.802 440.93 887.904 440.945 887.992 440.977C888.086 441.008 888.167 441.057 888.234 441.125C888.302 441.193 888.352 441.286 888.383 441.406C888.419 441.521 888.438 441.661 888.438 441.828V448H890.125V441.727C890.125 441.674 890.125 441.635 890.125 441.609C890.125 441.578 890.125 441.552 890.125 441.531C890.146 441.443 890.177 441.365 890.219 441.297C890.26 441.224 890.312 441.161 890.375 441.109C890.443 441.052 890.521 441.008 890.609 440.977C890.698 440.945 890.802 440.93 890.922 440.93C891.036 440.93 891.141 440.945 891.234 440.977C891.333 441.008 891.417 441.057 891.484 441.125C891.552 441.198 891.604 441.294 891.641 441.414C891.677 441.529 891.695 441.669 891.695 441.836V448H893.414V441.852C893.414 441.409 893.367 441.031 893.273 440.719C893.185 440.401 893.057 440.143 892.891 439.945C892.724 439.758 892.526 439.62 892.297 439.531C892.073 439.438 891.826 439.391 891.555 439.391C891.346 439.391 891.154 439.417 890.977 439.469C890.805 439.521 890.648 439.594 890.508 439.688C890.398 439.76 890.297 439.849 890.203 439.953C890.109 440.057 890.026 440.169 889.953 440.289C889.901 440.159 889.839 440.044 889.766 439.945C889.693 439.841 889.609 439.753 889.516 439.68C889.396 439.581 889.253 439.508 889.086 439.461C888.919 439.414 888.732 439.391 888.523 439.391C888.122 439.391 887.779 439.487 887.492 439.68C887.211 439.872 886.99 440.138 886.828 440.477L886.773 439.547ZM895.75 439.547V441.102H898.352V446.453H895.75V448H902.719V446.453H900.234V439.547H895.75ZM898.18 437.359C898.18 437.557 898.227 437.732 898.32 437.883C898.419 438.029 898.562 438.13 898.75 438.188C898.932 438.245 899.099 438.258 899.25 438.227C899.401 438.195 899.531 438.13 899.641 438.031C899.859 437.974 900.026 437.862 900.141 437.695C900.255 437.523 900.294 437.323 900.258 437.094C900.232 436.87 900.13 436.688 899.953 436.547C899.781 436.401 899.555 436.328 899.273 436.328C899.107 436.328 898.956 436.354 898.82 436.406C898.69 436.453 898.578 436.521 898.484 436.609C898.385 436.703 898.31 436.815 898.258 436.945C898.206 437.07 898.18 437.208 898.18 437.359ZM910.453 445.711C910.453 445.846 910.422 445.971 910.359 446.086C910.302 446.195 910.214 446.297 910.094 446.391C909.948 446.505 909.753 446.596 909.508 446.664C909.268 446.732 908.987 446.766 908.664 446.766C908.424 446.766 908.188 446.742 907.953 446.695C907.719 446.643 907.51 446.56 907.328 446.445C907.141 446.336 906.984 446.193 906.859 446.016C906.74 445.833 906.672 445.612 906.656 445.352H904.844C904.844 445.701 904.927 446.044 905.094 446.383C905.26 446.721 905.505 447.021 905.828 447.281C906.146 447.547 906.539 447.76 907.008 447.922C907.482 448.083 908.023 448.164 908.633 448.164C909.18 448.164 909.677 448.102 910.125 447.977C910.573 447.852 910.958 447.677 911.281 447.453C911.599 447.229 911.844 446.961 912.016 446.648C912.193 446.336 912.281 445.992 912.281 445.617C912.281 445.232 912.198 444.898 912.031 444.617C911.865 444.336 911.63 444.091 911.328 443.883C911.026 443.685 910.661 443.518 910.234 443.383C909.807 443.247 909.336 443.133 908.82 443.039C908.451 442.977 908.143 442.906 907.898 442.828C907.659 442.75 907.471 442.664 907.336 442.57C907.19 442.482 907.089 442.38 907.031 442.266C906.974 442.146 906.945 442.013 906.945 441.867C906.945 441.727 906.979 441.594 907.047 441.469C907.115 441.339 907.216 441.227 907.352 441.133C907.487 441.029 907.659 440.948 907.867 440.891C908.081 440.828 908.328 440.797 908.609 440.797C908.917 440.797 909.185 440.839 909.414 440.922C909.643 441 909.831 441.107 909.977 441.242C910.102 441.357 910.195 441.487 910.258 441.633C910.326 441.773 910.359 441.922 910.359 442.078H912.227C912.227 441.698 912.143 441.344 911.977 441.016C911.81 440.688 911.573 440.404 911.266 440.164C910.953 439.924 910.573 439.737 910.125 439.602C909.677 439.461 909.172 439.391 908.609 439.391C908.083 439.391 907.604 439.458 907.172 439.594C906.745 439.729 906.38 439.914 906.078 440.148C905.771 440.383 905.534 440.656 905.367 440.969C905.206 441.276 905.125 441.602 905.125 441.945C905.125 442.305 905.206 442.62 905.367 442.891C905.529 443.161 905.753 443.396 906.039 443.594C906.331 443.802 906.677 443.979 907.078 444.125C907.484 444.271 907.932 444.393 908.422 444.492C908.812 444.565 909.138 444.643 909.398 444.727C909.659 444.81 909.87 444.898 910.031 444.992C910.182 445.096 910.289 445.206 910.352 445.32C910.419 445.435 910.453 445.565 910.453 445.711ZM915.602 439.547H913.977V448H915.695V441.508C915.727 441.43 915.76 441.359 915.797 441.297C915.839 441.234 915.885 441.18 915.938 441.133C916.005 441.065 916.086 441.016 916.18 440.984C916.279 440.948 916.391 440.93 916.516 440.93C916.63 440.93 916.732 440.945 916.82 440.977C916.914 441.008 916.995 441.057 917.062 441.125C917.13 441.193 917.18 441.286 917.211 441.406C917.247 441.521 917.266 441.661 917.266 441.828V448H918.953V441.727C918.953 441.674 918.953 441.635 918.953 441.609C918.953 441.578 918.953 441.552 918.953 441.531C918.974 441.443 919.005 441.365 919.047 441.297C919.089 441.224 919.141 441.161 919.203 441.109C919.271 441.052 919.349 441.008 919.438 440.977C919.526 440.945 919.63 440.93 919.75 440.93C919.865 440.93 919.969 440.945 920.062 440.977C920.161 441.008 920.245 441.057 920.312 441.125C920.38 441.198 920.432 441.294 920.469 441.414C920.505 441.529 920.523 441.669 920.523 441.836V448H922.242V441.852C922.242 441.409 922.195 441.031 922.102 440.719C922.013 440.401 921.885 440.143 921.719 439.945C921.552 439.758 921.354 439.62 921.125 439.531C920.901 439.438 920.654 439.391 920.383 439.391C920.174 439.391 919.982 439.417 919.805 439.469C919.633 439.521 919.477 439.594 919.336 439.688C919.227 439.76 919.125 439.849 919.031 439.953C918.938 440.057 918.854 440.169 918.781 440.289C918.729 440.159 918.667 440.044 918.594 439.945C918.521 439.841 918.438 439.753 918.344 439.68C918.224 439.581 918.081 439.508 917.914 439.461C917.747 439.414 917.56 439.391 917.352 439.391C916.951 439.391 916.607 439.487 916.32 439.68C916.039 439.872 915.818 440.138 915.656 440.477L915.602 439.547Z" fill="white" fill-opacity="0.7"/>
<path d="M885 419.5C917.861 419.5 944.5 392.861 944.5 360C944.5 327.139 917.861 300.5 885 300.5C852.139 300.5 825.5 327.139 825.5 360C825.5 392.861 852.139 419.5 885 419.5Z" fill="#181818" stroke="#313131"/>
<path d="M677 315.5C718.145 315.5 751.5 282.145 751.5 241C751.5 199.855 718.145 166.5 677 166.5C635.855 166.5 602.5 199.855 602.5 241C602.5 282.145 635.855 315.5 677 315.5Z" fill="#181818" stroke="#313131"/>
<path d="M693.018 230.544C691.868 229.888 690.39 229.888 689.077 230.544L679.88 235.951L673.639 239.393L664.607 244.801C663.457 245.456 661.979 245.456 660.666 244.801L653.604 240.54C652.454 239.884 651.633 238.573 651.633 237.099V228.905C651.633 227.594 652.29 226.283 653.604 225.463L660.666 221.367C661.815 220.711 663.293 220.711 664.607 221.367L671.669 225.627C672.818 226.283 673.639 227.594 673.639 229.069V234.477L679.88 230.871V225.3C679.88 223.989 679.223 222.678 677.909 221.858L664.771 214.156C663.622 213.501 662.144 213.501 660.83 214.156L647.363 222.022C646.049 222.678 645.393 223.989 645.393 225.3V240.704C645.393 242.015 646.049 243.326 647.363 244.145L660.666 251.847C661.815 252.503 663.293 252.503 664.607 251.847L673.639 246.603L679.88 242.998L688.912 237.754C690.062 237.099 691.54 237.099 692.854 237.754L699.915 241.851C701.065 242.506 701.886 243.817 701.886 245.292V253.486C701.886 254.797 701.229 256.108 699.915 256.927L693.018 261.024C691.868 261.68 690.39 261.68 689.077 261.024L682.015 256.927C680.865 256.272 680.044 254.961 680.044 253.486V248.242L673.804 251.847V257.255C673.804 258.566 674.46 259.877 675.774 260.697L689.077 268.399C690.226 269.054 691.704 269.054 693.018 268.399L706.32 260.697C707.47 260.041 708.291 258.73 708.291 257.255V241.687C708.291 240.376 707.634 239.065 706.32 238.246L693.018 230.544Z" fill="#8F5AE8"/>
<path d="M474 658.5C506.861 658.5 533.5 631.861 533.5 599C533.5 566.139 506.861 539.5 474 539.5C441.139 539.5 414.5 566.139 414.5 599C414.5 631.861 441.139 658.5 474 658.5Z" fill="#181818" stroke="#313131"/>
<path d="M60 414.5C92.8609 414.5 119.5 387.861 119.5 355C119.5 322.139 92.8609 295.5 60 295.5C27.1391 295.5 0.5 322.139 0.5 355C0.5 387.861 27.1391 414.5 60 414.5Z" fill="#181818" stroke="#313131"/>
<path d="M272 555.5C313.145 555.5 346.5 522.145 346.5 481C346.5 439.855 313.145 406.5 272 406.5C230.855 406.5 197.5 439.855 197.5 481C197.5 522.145 230.855 555.5 272 555.5Z" fill="#181818" stroke="#313131"/>
<path d="M294 457H250V499H294V457Z" fill="white"/>
<path fill-rule="evenodd" clip-rule="evenodd" d="M307.08 480.918C307.08 500.525 291.419 516.42 272.099 516.42C252.78 516.42 237.119 500.525 237.119 480.918C237.119 461.31 252.78 445.415 272.099 445.415C291.419 445.415 307.08 461.31 307.08 480.918ZM262.187 495.046H255.398C253.972 495.046 253.267 495.046 252.838 494.767C252.373 494.462 252.09 493.956 252.056 493.397C252.03 492.883 252.382 492.255 253.087 490.999L269.849 461.012C270.562 459.739 270.923 459.102 271.378 458.867C271.868 458.614 272.453 458.614 272.942 458.867C273.398 459.102 273.759 459.739 274.472 461.012L277.918 467.118L277.936 467.149C278.706 468.515 279.097 469.208 279.267 469.935C279.456 470.728 279.456 471.566 279.267 472.359C279.095 473.092 278.709 473.79 277.927 475.176L269.122 490.973L269.099 491.013C268.324 492.391 267.931 493.089 267.386 493.615C266.793 494.191 266.08 494.61 265.298 494.845C264.585 495.046 263.785 495.046 262.187 495.046ZM279.331 495.046H289.058C290.493 495.046 291.215 495.046 291.645 494.758C292.109 494.453 292.401 493.938 292.427 493.38C292.452 492.883 292.107 492.279 291.432 491.096C291.408 491.056 291.385 491.015 291.361 490.973L286.489 482.513L286.433 482.418C285.749 481.243 285.403 480.649 284.959 480.42C284.47 480.167 283.894 480.167 283.404 480.42C282.957 480.655 282.596 481.275 281.883 482.522L277.028 490.982L277.011 491.011C276.3 492.256 275.945 492.878 275.971 493.389C276.005 493.947 276.289 494.462 276.753 494.767C277.174 495.046 277.896 495.046 279.331 495.046Z" fill="#E74141"/>
<path d="M475 426.5C512.279 426.5 542.5 396.279 542.5 359C542.5 321.721 512.279 291.5 475 291.5C437.721 291.5 407.5 321.721 407.5 359C407.5 396.279 437.721 426.5 475 426.5Z" fill="#181818" stroke="#313131"/>
<path fill-rule="evenodd" clip-rule="evenodd" d="M463.982 344.029C463.85 343.692 463.802 343.328 463.842 342.968C463.882 342.608 464.01 342.264 464.214 341.965C464.418 341.666 464.691 341.422 465.011 341.253C465.331 341.085 465.687 340.998 466.048 341H475.786C476.23 340.998 476.665 341.131 477.033 341.38C477.401 341.629 477.686 341.984 477.85 342.398L485.6 361.789C485.809 362.315 485.809 362.901 485.6 363.426L480.722 375.605C479.976 377.464 477.336 377.464 476.592 375.605L463.982 344.029ZM445.155 344.03C445.022 343.693 444.974 343.329 445.014 342.969C445.054 342.609 445.181 342.265 445.385 341.966C445.589 341.667 445.863 341.423 446.182 341.254C446.502 341.086 446.858 340.999 447.219 341.001H456.957C457.402 340.999 457.836 341.131 458.205 341.381C458.573 341.63 458.858 341.985 459.023 342.399L466.773 361.791C466.982 362.316 466.982 362.902 466.773 363.427L461.894 375.606C461.15 377.465 458.51 377.465 457.764 375.606L445.155 344.03ZM482.313 342.968C482.272 343.328 482.321 343.692 482.453 344.029L495.062 375.605C495.807 377.464 498.447 377.464 499.192 375.605L504.071 363.426C504.28 362.901 504.28 362.315 504.071 361.789L496.321 342.398C496.157 341.984 495.872 341.629 495.503 341.379C495.135 341.13 494.7 340.998 494.255 341H484.519C484.158 340.998 483.802 341.085 483.482 341.253C483.162 341.422 482.888 341.666 482.685 341.965C482.481 342.264 482.353 342.608 482.313 342.968Z" fill="url(#paint5_linear_102_258)"/>
<path fill-rule="evenodd" clip-rule="evenodd" d="M463.982 344.029C463.85 343.692 463.802 343.328 463.842 342.968C463.882 342.608 464.01 342.264 464.214 341.965C464.418 341.666 464.691 341.422 465.011 341.253C465.331 341.085 465.687 340.998 466.048 341H475.786C476.23 340.998 476.665 341.131 477.033 341.38C477.401 341.629 477.686 341.984 477.85 342.398L485.6 361.789C485.809 362.315 485.809 362.901 485.6 363.426L480.722 375.605C479.976 377.464 477.336 377.464 476.592 375.605L463.982 344.029ZM445.155 344.03C445.022 343.693 444.974 343.329 445.014 342.969C445.054 342.609 445.181 342.265 445.385 341.966C445.589 341.667 445.863 341.423 446.182 341.254C446.502 341.086 446.858 340.999 447.219 341.001H456.957C457.402 340.999 457.836 341.131 458.205 341.381C458.573 341.63 458.858 341.985 459.023 342.399L466.773 361.791C466.982 362.316 466.982 362.902 466.773 363.427L461.894 375.606C461.15 377.465 458.51 377.465 457.764 375.606L445.155 344.03ZM482.313 342.968C482.272 343.328 482.321 343.692 482.453 344.029L495.062 375.605C495.807 377.464 498.447 377.464 499.192 375.605L504.071 363.426C504.28 362.901 504.28 362.315 504.071 361.789L496.321 342.398C496.157 341.984 495.872 341.629 495.503 341.379C495.135 341.13 494.7 340.998 494.255 341H484.519C484.158 340.998 483.802 341.085 483.482 341.253C483.162 341.422 482.888 341.666 482.685 341.965C482.481 342.264 482.353 342.608 482.313 342.968Z" fill="url(#paint6_linear_102_258)"/>
<path d="M677 555.5C718.145 555.5 751.5 522.145 751.5 481C751.5 439.855 718.145 406.5 677 406.5C635.855 406.5 602.5 439.855 602.5 481C602.5 522.145 635.855 555.5 677 555.5Z" fill="#181818" stroke="#313131"/>
<path fill-rule="evenodd" clip-rule="evenodd" d="M680.974 470.337L693.338 463.053V477.622L680.974 470.337ZM693.338 501.558L676.853 511.271L660.367 501.558V484.56L676.853 494.273L693.338 484.56V501.558ZM660.367 463.053L672.731 470.337L660.367 477.622V463.053ZM678.913 473.806L691.277 481.091L678.913 488.376V473.806ZM674.792 488.376L662.428 481.091L674.792 473.806V488.376ZM691.277 459.584L676.853 467.909L662.428 459.584L676.853 450.911L691.277 459.584ZM656.246 458.196V503.639L676.853 515.434L697.459 503.639V458.196L676.853 446.401L656.246 458.196Z" fill="#11B5EC"/>
<path d="M474 170.5C506.861 170.5 533.5 143.861 533.5 111C533.5 78.1391 506.861 51.5 474 51.5C441.139 51.5 414.5 78.1391 414.5 111C414.5 143.861 441.139 170.5 474 170.5Z" fill="#181818" stroke="#313131"/>
<path d="M497.754 123.114L489.995 131.427C489.827 131.607 489.624 131.752 489.398 131.85C489.172 131.949 488.928 132 488.681 132H451.901C451.726 132 451.554 131.949 451.408 131.853C451.261 131.757 451.145 131.62 451.075 131.459C451.005 131.299 450.983 131.121 451.013 130.948C451.042 130.775 451.121 130.615 451.24 130.486L458.99 122.174C459.158 121.993 459.361 121.849 459.587 121.751C459.813 121.652 460.057 121.601 460.304 121.601H497.084C497.261 121.597 497.435 121.646 497.584 121.741C497.734 121.836 497.852 121.973 497.923 122.135C497.995 122.296 498.017 122.476 497.987 122.65C497.957 122.825 497.876 122.986 497.754 123.114ZM489.995 106.371C489.827 106.192 489.623 106.048 489.397 105.95C489.172 105.851 488.928 105.8 488.681 105.798H451.901C451.726 105.798 451.554 105.85 451.408 105.946C451.261 106.042 451.145 106.178 451.075 106.339C451.005 106.5 450.983 106.677 451.013 106.85C451.042 107.023 451.121 107.183 451.24 107.312L458.99 115.629C459.159 115.809 459.362 115.952 459.588 116.051C459.814 116.149 460.058 116.201 460.304 116.202H497.084C497.259 116.201 497.43 116.149 497.576 116.053C497.722 115.956 497.837 115.82 497.907 115.659C497.976 115.499 497.998 115.321 497.968 115.149C497.939 114.977 497.86 114.817 497.741 114.688L489.995 106.371ZM451.901 100.4H488.681C488.928 100.399 489.172 100.348 489.398 100.25C489.624 100.151 489.827 100.007 489.995 99.8264L497.754 91.5139C497.876 91.3855 497.957 91.224 497.987 91.0497C498.017 90.8753 497.995 90.696 497.923 90.5342C497.852 90.3723 497.734 90.2353 497.584 90.1403C497.435 90.0453 497.261 89.9965 497.084 90.0002H460.304C460.057 90.0005 459.813 90.0515 459.587 90.1501C459.361 90.2487 459.158 90.3928 458.99 90.5733L451.24 98.8858C451.121 99.0143 451.042 99.1749 451.013 99.3477C450.983 99.5205 451.005 99.6981 451.075 99.8588C451.145 100.019 451.261 100.156 451.408 100.252C451.554 100.348 451.726 100.399 451.901 100.4Z" fill="url(#paint7_linear_102_258)"/>
<path d="M452.266 27.0703C452.266 27.3203 452.211 27.5417 452.102 27.7344C451.997 27.9271 451.857 28.0885 451.68 28.2188C451.497 28.3542 451.281 28.4557 451.031 28.5234C450.786 28.5911 450.521 28.625 450.234 28.625C449.896 28.625 449.583 28.5833 449.297 28.5C449.016 28.4167 448.771 28.2891 448.562 28.1172C448.349 27.9505 448.18 27.7396 448.055 27.4844C447.935 27.224 447.862 26.9193 447.836 26.5703H445.961C445.966 27.1172 446.076 27.6016 446.289 28.0234C446.508 28.4453 446.802 28.8125 447.172 29.125C447.573 29.4583 448.044 29.7135 448.586 29.8906C449.128 30.0625 449.677 30.1484 450.234 30.1484C450.76 30.1484 451.26 30.0833 451.734 29.9531C452.208 29.8177 452.625 29.6172 452.984 29.3516C453.339 29.0964 453.62 28.776 453.828 28.3906C454.042 28.0052 454.148 27.5599 454.148 27.0547C454.148 26.5078 454.026 26.026 453.781 25.6094C453.542 25.1875 453.221 24.8255 452.82 24.5234C452.497 24.2839 452.143 24.0807 451.758 23.9141C451.378 23.7422 450.987 23.599 450.586 23.4844C450.268 23.3906 449.964 23.2891 449.672 23.1797C449.385 23.0703 449.13 22.9427 448.906 22.7969C448.688 22.651 448.513 22.4818 448.383 22.2891C448.253 22.0911 448.185 21.862 448.18 21.6016C448.18 21.3568 448.229 21.1354 448.328 20.9375C448.427 20.7396 448.565 20.5703 448.742 20.4297C448.919 20.2943 449.128 20.1901 449.367 20.1172C449.612 20.0391 449.878 20 450.164 20C450.492 20 450.781 20.0495 451.031 20.1484C451.286 20.2422 451.503 20.3724 451.68 20.5391C451.852 20.7109 451.984 20.9167 452.078 21.1562C452.177 21.3906 452.24 21.651 452.266 21.9375H454.125C454.125 21.4219 454.021 20.9531 453.812 20.5312C453.609 20.1042 453.331 19.737 452.977 19.4297C452.622 19.1276 452.206 18.8932 451.727 18.7266C451.253 18.5547 450.74 18.4688 450.188 18.4688C449.667 18.4688 449.169 18.5417 448.695 18.6875C448.227 18.8281 447.815 19.0338 447.461 19.3047C447.107 19.5807 446.826 19.9141 446.617 20.3047C446.409 20.6901 446.305 21.125 446.305 21.6094C446.305 22.0573 446.393 22.4609 446.57 22.8203C446.753 23.1745 447.003 23.4922 447.32 23.7734C447.638 24.0495 448.021 24.2995 448.469 24.5234C448.922 24.7422 449.417 24.9271 449.953 25.0781C450.302 25.1771 450.617 25.2891 450.898 25.4141C451.185 25.5339 451.432 25.6693 451.641 25.8203C451.839 25.9818 451.992 26.1641 452.102 26.3672C452.211 26.5703 452.266 26.8047 452.266 27.0703ZM455.648 25.6953V25.8594C455.648 26.4792 455.737 27.0495 455.914 27.5703C456.091 28.0911 456.349 28.5443 456.688 28.9297C457.021 29.3151 457.432 29.6172 457.922 29.8359C458.411 30.0547 458.966 30.1641 459.586 30.1641C460.201 30.1641 460.75 30.0547 461.234 29.8359C461.724 29.6172 462.135 29.3151 462.469 28.9297C462.802 28.5443 463.057 28.0911 463.234 27.5703C463.411 27.0495 463.5 26.4792 463.5 25.8594V25.6953C463.5 25.0807 463.411 24.513 463.234 23.9922C463.057 23.4661 462.802 23.0104 462.469 22.625C462.13 22.2396 461.716 21.9375 461.227 21.7188C460.742 21.5 460.19 21.3906 459.57 21.3906C458.951 21.3906 458.398 21.5 457.914 21.7188C457.43 21.9375 457.021 22.2396 456.688 22.625C456.349 23.0104 456.091 23.4661 455.914 23.9922C455.737 24.513 455.648 25.0807 455.648 25.6953ZM457.516 25.8594V25.6953C457.516 25.3255 457.555 24.9714 457.633 24.6328C457.716 24.2943 457.844 23.9974 458.016 23.7422C458.182 23.487 458.393 23.2839 458.648 23.1328C458.909 22.9818 459.216 22.9062 459.57 22.9062C459.93 22.9062 460.237 22.9818 460.492 23.1328C460.753 23.2839 460.969 23.487 461.141 23.7422C461.302 23.9974 461.424 24.2943 461.508 24.6328C461.591 24.9714 461.633 25.3255 461.633 25.6953V25.8594C461.633 26.2396 461.591 26.599 461.508 26.9375C461.43 27.276 461.307 27.5729 461.141 27.8281C460.974 28.0833 460.76 28.2865 460.5 28.4375C460.24 28.5833 459.935 28.6562 459.586 28.6562C459.227 28.6562 458.917 28.5833 458.656 28.4375C458.396 28.2865 458.182 28.0833 458.016 27.8281C457.844 27.5729 457.716 27.276 457.633 26.9375C457.555 26.599 457.516 26.2396 457.516 25.8594ZM465.961 18V19.5547H468.633V28.4531H465.961V30H473.078V28.4531H470.516V18H465.961ZM480.609 30H482.516V29.8672C482.411 29.6484 482.331 29.388 482.273 29.0859C482.221 28.7786 482.195 28.4349 482.195 28.0547V24.2969C482.195 23.8177 482.107 23.3958 481.93 23.0312C481.753 22.6615 481.508 22.3568 481.195 22.1172C480.883 21.8776 480.51 21.6979 480.078 21.5781C479.651 21.4531 479.19 21.3906 478.695 21.3906C478.143 21.3906 477.651 21.4635 477.219 21.6094C476.792 21.75 476.432 21.9427 476.141 22.1875C475.839 22.4271 475.609 22.7031 475.453 23.0156C475.297 23.3281 475.216 23.6536 475.211 23.9922H477.086C477.086 23.8307 477.115 23.6797 477.172 23.5391C477.234 23.3932 477.328 23.2708 477.453 23.1719C477.578 23.0625 477.734 22.9766 477.922 22.9141C478.115 22.8516 478.339 22.8203 478.594 22.8203C478.875 22.8203 479.122 22.8568 479.336 22.9297C479.555 22.9974 479.74 23.0964 479.891 23.2266C480.031 23.3568 480.138 23.5104 480.211 23.6875C480.289 23.8646 480.328 24.0625 480.328 24.2812V24.8516H478.969C478.359 24.8516 477.812 24.9089 477.328 25.0234C476.849 25.138 476.445 25.3047 476.117 25.5234C475.763 25.7578 475.492 26.0547 475.305 26.4141C475.122 26.7682 475.031 27.1771 475.031 27.6406C475.031 28 475.102 28.3359 475.242 28.6484C475.388 28.9557 475.591 29.2188 475.852 29.4375C476.107 29.6615 476.414 29.8385 476.773 29.9688C477.138 30.0938 477.539 30.1562 477.977 30.1562C478.247 30.1562 478.5 30.1302 478.734 30.0781C478.969 30.026 479.188 29.9531 479.391 29.8594C479.594 29.7708 479.776 29.6667 479.938 29.5469C480.104 29.4219 480.253 29.2917 480.383 29.1562C480.409 29.3177 480.438 29.474 480.469 29.625C480.505 29.7708 480.552 29.8958 480.609 30ZM478.336 28.6562C478.096 28.6562 477.888 28.6276 477.711 28.5703C477.534 28.5078 477.385 28.4245 477.266 28.3203C477.146 28.2161 477.055 28.0911 476.992 27.9453C476.93 27.7943 476.898 27.6328 476.898 27.4609C476.898 27.2526 476.935 27.0651 477.008 26.8984C477.086 26.7318 477.203 26.5885 477.359 26.4688C477.536 26.3281 477.773 26.2214 478.07 26.1484C478.367 26.0703 478.719 26.0312 479.125 26.0312H480.328V27.5938C480.26 27.7292 480.164 27.8594 480.039 27.9844C479.914 28.1094 479.766 28.2214 479.594 28.3203C479.422 28.4193 479.229 28.5 479.016 28.5625C478.807 28.625 478.581 28.6562 478.336 28.6562ZM484.82 30H486.688V23.9688C486.771 23.8281 486.867 23.6979 486.977 23.5781C487.086 23.4583 487.203 23.3568 487.328 23.2734C487.49 23.1641 487.669 23.0807 487.867 23.0234C488.065 22.9609 488.279 22.9297 488.508 22.9297C488.784 22.9297 489.029 22.9609 489.242 23.0234C489.456 23.0807 489.638 23.1797 489.789 23.3203C489.94 23.4609 490.055 23.6484 490.133 23.8828C490.211 24.1172 490.25 24.4089 490.25 24.7578V30H492.117V24.7266C492.117 24.1328 492.047 23.6276 491.906 23.2109C491.766 22.7891 491.568 22.4427 491.312 22.1719C491.057 21.901 490.75 21.7031 490.391 21.5781C490.031 21.4531 489.635 21.3906 489.203 21.3906C488.875 21.3906 488.562 21.4375 488.266 21.5312C487.969 21.625 487.695 21.7578 487.445 21.9297C487.289 22.0391 487.141 22.1641 487 22.3047C486.865 22.4401 486.74 22.5885 486.625 22.75L486.508 21.5469H484.82V30ZM499.828 30H501.734V29.8672C501.63 29.6484 501.549 29.388 501.492 29.0859C501.44 28.7786 501.414 28.4349 501.414 28.0547V24.2969C501.414 23.8177 501.326 23.3958 501.148 23.0312C500.971 22.6615 500.727 22.3568 500.414 22.1172C500.102 21.8776 499.729 21.6979 499.297 21.5781C498.87 21.4531 498.409 21.3906 497.914 21.3906C497.362 21.3906 496.87 21.4635 496.438 21.6094C496.01 21.75 495.651 21.9427 495.359 22.1875C495.057 22.4271 494.828 22.7031 494.672 23.0156C494.516 23.3281 494.435 23.6536 494.43 23.9922H496.305C496.305 23.8307 496.333 23.6797 496.391 23.5391C496.453 23.3932 496.547 23.2708 496.672 23.1719C496.797 23.0625 496.953 22.9766 497.141 22.9141C497.333 22.8516 497.557 22.8203 497.812 22.8203C498.094 22.8203 498.341 22.8568 498.555 22.9297C498.773 22.9974 498.958 23.0964 499.109 23.2266C499.25 23.3568 499.357 23.5104 499.43 23.6875C499.508 23.8646 499.547 24.0625 499.547 24.2812V24.8516H498.188C497.578 24.8516 497.031 24.9089 496.547 25.0234C496.068 25.138 495.664 25.3047 495.336 25.5234C494.982 25.7578 494.711 26.0547 494.523 26.4141C494.341 26.7682 494.25 27.1771 494.25 27.6406C494.25 28 494.32 28.3359 494.461 28.6484C494.607 28.9557 494.81 29.2188 495.07 29.4375C495.326 29.6615 495.633 29.8385 495.992 29.9688C496.357 30.0938 496.758 30.1562 497.195 30.1562C497.466 30.1562 497.719 30.1302 497.953 30.0781C498.188 30.026 498.406 29.9531 498.609 29.8594C498.812 29.7708 498.995 29.6667 499.156 29.5469C499.323 29.4219 499.471 29.2917 499.602 29.1562C499.628 29.3177 499.656 29.474 499.688 29.625C499.724 29.7708 499.771 29.8958 499.828 30ZM497.555 28.6562C497.315 28.6562 497.107 28.6276 496.93 28.5703C496.753 28.5078 496.604 28.4245 496.484 28.3203C496.365 28.2161 496.273 28.0911 496.211 27.9453C496.148 27.7943 496.117 27.6328 496.117 27.4609C496.117 27.2526 496.154 27.0651 496.227 26.8984C496.305 26.7318 496.422 26.5885 496.578 26.4688C496.755 26.3281 496.992 26.2214 497.289 26.1484C497.586 26.0703 497.938 26.0312 498.344 26.0312H499.547V27.5938C499.479 27.7292 499.383 27.8594 499.258 27.9844C499.133 28.1094 498.984 28.2214 498.812 28.3203C498.641 28.4193 498.448 28.5 498.234 28.5625C498.026 28.625 497.799 28.6562 497.555 28.6562Z" fill="white" fill-opacity="0.7"/>
<path d="M48.7891 444.156V442.609H43.9766V439.18H49.4766V437.625H42.0859V449H43.9766V444.156H48.7891ZM51.9609 437V438.555H54.6328V447.453H51.9609V449H59.0781V447.453H56.5156V437H51.9609ZM60.8672 444.695V444.859C60.8672 445.479 60.9557 446.049 61.1328 446.57C61.3099 447.091 61.5677 447.544 61.9062 447.93C62.2396 448.315 62.651 448.617 63.1406 448.836C63.6302 449.055 64.1849 449.164 64.8047 449.164C65.4193 449.164 65.9688 449.055 66.4531 448.836C66.9427 448.617 67.3542 448.315 67.6875 447.93C68.0208 447.544 68.276 447.091 68.4531 446.57C68.6302 446.049 68.7188 445.479 68.7188 444.859V444.695C68.7188 444.081 68.6302 443.513 68.4531 442.992C68.276 442.466 68.0208 442.01 67.6875 441.625C67.349 441.24 66.9349 440.938 66.4453 440.719C65.9609 440.5 65.4089 440.391 64.7891 440.391C64.1693 440.391 63.6172 440.5 63.1328 440.719C62.6484 440.938 62.2396 441.24 61.9062 441.625C61.5677 442.01 61.3099 442.466 61.1328 442.992C60.9557 443.513 60.8672 444.081 60.8672 444.695ZM62.7344 444.859V444.695C62.7344 444.326 62.7734 443.971 62.8516 443.633C62.9349 443.294 63.0625 442.997 63.2344 442.742C63.401 442.487 63.612 442.284 63.8672 442.133C64.1276 441.982 64.4349 441.906 64.7891 441.906C65.1484 441.906 65.4557 441.982 65.7109 442.133C65.9714 442.284 66.1875 442.487 66.3594 442.742C66.5208 442.997 66.6432 443.294 66.7266 443.633C66.8099 443.971 66.8516 444.326 66.8516 444.695V444.859C66.8516 445.24 66.8099 445.599 66.7266 445.938C66.6484 446.276 66.526 446.573 66.3594 446.828C66.1927 447.083 65.9792 447.286 65.7188 447.438C65.4583 447.583 65.1536 447.656 64.8047 447.656C64.4453 447.656 64.1354 447.583 63.875 447.438C63.6146 447.286 63.401 447.083 63.2344 446.828C63.0625 446.573 62.9349 446.276 62.8516 445.938C62.7734 445.599 62.7344 445.24 62.7344 444.859ZM71.5234 449H73.1094L74.1797 444.203L74.3672 443.156L74.5625 444.203L75.6562 449H77.2422L78.875 440.547H77.1797L76.4219 445.703L76.2734 446.734L76.0938 445.711L74.9922 440.547H73.7656L72.6641 445.727L72.4922 446.703L72.3594 445.727L71.5781 440.547H69.8906L71.5234 449Z" fill="white" fill-opacity="0.7"/>
<path d="M26.9062 464.434H25.8223C25.7871 464.691 25.7266 464.932 25.6406 465.154C25.5547 465.373 25.4395 465.562 25.2949 465.723C25.1504 465.887 24.9727 466.014 24.7617 466.104C24.5547 466.193 24.3086 466.238 24.0234 466.238C23.7617 466.238 23.5332 466.197 23.3379 466.115C23.1426 466.029 22.9727 465.912 22.8281 465.764C22.6836 465.619 22.5645 465.451 22.4707 465.26C22.377 465.068 22.3008 464.863 22.2422 464.645C22.1836 464.43 22.1406 464.211 22.1133 463.988C22.0898 463.762 22.0781 463.543 22.0781 463.332V462.131C22.0781 461.92 22.0898 461.703 22.1133 461.48C22.1406 461.254 22.1836 461.033 22.2422 460.818C22.3008 460.604 22.377 460.4 22.4707 460.209C22.5684 460.018 22.6895 459.85 22.834 459.705C22.9746 459.561 23.1426 459.447 23.3379 459.365C23.5371 459.279 23.7656 459.236 24.0234 459.236C24.3086 459.236 24.5547 459.285 24.7617 459.383C24.9727 459.477 25.1504 459.607 25.2949 459.775C25.4395 459.943 25.5547 460.139 25.6406 460.361C25.7266 460.584 25.7871 460.824 25.8223 461.082H26.9062C26.8594 460.676 26.7617 460.305 26.6133 459.969C26.4688 459.633 26.2754 459.344 26.0332 459.102C25.791 458.863 25.502 458.68 25.166 458.551C24.8301 458.418 24.4492 458.352 24.0234 458.352C23.668 458.352 23.3477 458.402 23.0625 458.504C22.7773 458.602 22.5234 458.738 22.3008 458.914C22.0742 459.09 21.8789 459.299 21.7148 459.541C21.5547 459.779 21.4219 460.039 21.3164 460.32C21.207 460.602 21.125 460.896 21.0703 461.205C21.0195 461.514 20.9922 461.826 20.9883 462.143V463.332C20.9922 463.648 21.0195 463.961 21.0703 464.27C21.125 464.578 21.207 464.873 21.3164 465.154C21.4219 465.436 21.5547 465.695 21.7148 465.934C21.8789 466.172 22.0742 466.379 22.3008 466.555C22.5234 466.73 22.7773 466.869 23.0625 466.971C23.3516 467.068 23.6719 467.117 24.0234 467.117C24.4336 467.117 24.8047 467.053 25.1367 466.924C25.4727 466.791 25.7637 466.605 26.0098 466.367C26.252 466.133 26.4492 465.852 26.6016 465.523C26.7539 465.191 26.8555 464.828 26.9062 464.434ZM34.1367 463.227V462.254C34.1328 461.949 34.1055 461.641 34.0547 461.328C34.0078 461.016 33.9336 460.715 33.832 460.426C33.7266 460.137 33.5938 459.867 33.4336 459.617C33.2773 459.363 33.0898 459.143 32.8711 458.955C32.6523 458.768 32.4004 458.621 32.1152 458.516C31.8301 458.406 31.5117 458.352 31.1602 458.352C30.8086 458.352 30.4902 458.406 30.2051 458.516C29.9238 458.621 29.6738 458.768 29.4551 458.955C29.2363 459.146 29.0469 459.369 28.8867 459.623C28.7305 459.873 28.6016 460.143 28.5 460.432C28.3945 460.721 28.3164 461.021 28.2656 461.334C28.2188 461.643 28.1934 461.949 28.1895 462.254V463.227C28.1934 463.531 28.2207 463.838 28.2715 464.146C28.3223 464.455 28.4004 464.754 28.5059 465.043C28.6074 465.332 28.7383 465.604 28.8984 465.857C29.0586 466.107 29.248 466.326 29.4668 466.514C29.6855 466.701 29.9355 466.85 30.2168 466.959C30.502 467.064 30.8203 467.117 31.1719 467.117C31.5234 467.117 31.8398 467.064 32.1211 466.959C32.4062 466.85 32.6582 466.701 32.877 466.514C33.0957 466.326 33.2832 466.107 33.4395 465.857C33.5996 465.607 33.7305 465.338 33.832 465.049C33.9336 464.76 34.0078 464.461 34.0547 464.152C34.1055 463.84 34.1328 463.531 34.1367 463.227ZM33.0645 462.242V463.227C33.0605 463.43 33.0469 463.643 33.0234 463.865C33.0039 464.088 32.9668 464.307 32.9121 464.521C32.8535 464.74 32.7773 464.949 32.6836 465.148C32.5938 465.344 32.4805 465.516 32.3438 465.664C32.2031 465.816 32.0352 465.938 31.8398 466.027C31.6484 466.117 31.4258 466.162 31.1719 466.162C30.918 466.162 30.6953 466.117 30.5039 466.027C30.3125 465.938 30.1465 465.816 30.0059 465.664C29.8652 465.516 29.748 465.342 29.6543 465.143C29.5605 464.943 29.4844 464.734 29.4258 464.516C29.3672 464.301 29.3242 464.082 29.2969 463.859C29.2734 463.637 29.2598 463.426 29.2559 463.227V462.242C29.2598 462.043 29.2734 461.834 29.2969 461.615C29.3242 461.393 29.3672 461.172 29.4258 460.953C29.4805 460.738 29.5547 460.533 29.6484 460.338C29.7422 460.139 29.8594 459.963 30 459.811C30.1406 459.662 30.3066 459.543 30.498 459.453C30.6895 459.363 30.9102 459.318 31.1602 459.318C31.4141 459.318 31.6367 459.363 31.8281 459.453C32.0195 459.539 32.1855 459.656 32.3262 459.805C32.4668 459.957 32.584 460.133 32.6777 460.332C32.7715 460.527 32.8477 460.732 32.9062 460.947C32.9609 461.166 33 461.387 33.0234 461.609C33.0469 461.828 33.0605 462.039 33.0645 462.242ZM36.9844 458.469H35.6426V467H36.6973V463.596L36.6094 460.156L38.0566 464.627H38.6777L40.2539 460.033L40.166 463.596V467H41.2207V458.469H39.873L38.373 462.734L36.9844 458.469ZM43.002 458.469V459.412H45V466.062H43.002V467H48.1582V466.062H46.1133V459.412H48.1582V458.469H43.002ZM55.5527 467V458.469H54.457L54.4395 464.832L51.1289 458.469H50.0273V467H51.123L51.1406 460.625L54.4512 467H55.5527ZM62.9355 465.881L62.918 462.752H60.1523V463.666H61.8867L61.875 465.582C61.7852 465.711 61.6738 465.816 61.541 465.898C61.4082 465.977 61.2656 466.039 61.1133 466.086C60.9609 466.133 60.8027 466.164 60.6387 466.18C60.4785 466.195 60.3242 466.201 60.1758 466.197C59.918 466.193 59.6875 466.148 59.4844 466.062C59.2812 465.973 59.1035 465.854 58.9512 465.705C58.7949 465.557 58.6621 465.385 58.5527 465.189C58.4434 464.994 58.3535 464.787 58.2832 464.568C58.2129 464.35 58.1602 464.127 58.125 463.9C58.0938 463.67 58.0762 463.447 58.0723 463.232V462.23C58.0723 462.02 58.0859 461.801 58.1133 461.574C58.1406 461.348 58.1855 461.125 58.248 460.906C58.3105 460.688 58.3906 460.48 58.4883 460.285C58.5859 460.086 58.709 459.912 58.8574 459.764C59.0059 459.615 59.1797 459.498 59.3789 459.412C59.5781 459.322 59.8066 459.277 60.0645 459.277C60.334 459.277 60.5703 459.32 60.7734 459.406C60.9766 459.488 61.1523 459.604 61.3008 459.752C61.4453 459.9 61.5625 460.08 61.6523 460.291C61.7422 460.498 61.8086 460.725 61.8516 460.971H62.9238C62.8887 460.572 62.7949 460.213 62.6426 459.893C62.4902 459.568 62.2891 459.291 62.0391 459.061C61.7891 458.834 61.4961 458.66 61.1602 458.539C60.8242 458.414 60.457 458.352 60.0586 458.352C59.6992 458.352 59.375 458.404 59.0859 458.51C58.7969 458.615 58.5391 458.758 58.3125 458.938C58.082 459.121 57.8848 459.338 57.7207 459.588C57.5566 459.834 57.4199 460.102 57.3105 460.391C57.2012 460.68 57.1191 460.982 57.0645 461.299C57.0137 461.611 56.9863 461.926 56.9824 462.242V463.232C56.9863 463.553 57.0176 463.871 57.0762 464.188C57.1387 464.5 57.2305 464.799 57.3516 465.084C57.4688 465.373 57.6152 465.641 57.791 465.887C57.9668 466.133 58.1719 466.346 58.4062 466.525C58.6406 466.709 58.9043 466.854 59.1973 466.959C59.4941 467.061 59.8184 467.113 60.1699 467.117C60.5176 467.121 60.8496 467.082 61.166 467C61.4824 466.922 61.7773 466.801 62.0508 466.637C62.2109 466.543 62.3652 466.434 62.5137 466.309C62.6621 466.18 62.8027 466.037 62.9355 465.881ZM76.2949 464.844C76.2949 465.078 76.2441 465.281 76.1426 465.453C76.041 465.621 75.9102 465.76 75.75 465.869C75.5898 465.982 75.4062 466.066 75.1992 466.121C74.9961 466.172 74.7891 466.197 74.5781 466.197C74.3125 466.197 74.0664 466.162 73.8398 466.092C73.6172 466.018 73.4199 465.908 73.248 465.764C73.0762 465.623 72.9355 465.451 72.8262 465.248C72.7168 465.041 72.6445 464.805 72.6094 464.539H71.502C71.5137 464.906 71.5938 465.24 71.7422 465.541C71.8945 465.838 72.0996 466.098 72.3574 466.32C72.6465 466.578 72.9863 466.775 73.377 466.912C73.7715 467.049 74.1719 467.117 74.5781 467.117C74.918 467.117 75.2578 467.07 75.5977 466.977C75.9375 466.879 76.2422 466.734 76.5117 466.543C76.7812 466.355 77 466.119 77.168 465.834C77.3398 465.549 77.4258 465.215 77.4258 464.832C77.4258 464.453 77.3457 464.119 77.1855 463.83C77.0293 463.541 76.8223 463.297 76.5645 463.098C76.3027 462.883 76.0137 462.707 75.6973 462.57C75.3809 462.43 75.0645 462.311 74.748 462.213C74.5566 462.154 74.3516 462.086 74.1328 462.008C73.918 461.93 73.7188 461.832 73.5352 461.715C73.3477 461.598 73.1934 461.455 73.0723 461.287C72.9512 461.115 72.8887 460.906 72.8848 460.66C72.8848 460.434 72.9297 460.234 73.0195 460.062C73.1133 459.891 73.2383 459.746 73.3945 459.629C73.5469 459.512 73.7207 459.424 73.916 459.365C74.1152 459.307 74.3184 459.277 74.5254 459.277C74.7832 459.277 75.0137 459.318 75.2168 459.4C75.4238 459.479 75.6016 459.59 75.75 459.734C75.8984 459.879 76.0176 460.053 76.1074 460.256C76.1973 460.455 76.2578 460.678 76.2891 460.924H77.4023C77.3945 460.533 77.3105 460.18 77.1504 459.863C76.9902 459.547 76.7773 459.277 76.5117 459.055C76.2461 458.832 75.9414 458.66 75.5977 458.539C75.2539 458.414 74.8965 458.352 74.5254 458.352C74.1895 458.352 73.8555 458.404 73.5234 458.51C73.1914 458.611 72.8945 458.762 72.6328 458.961C72.3711 459.16 72.1582 459.404 71.9941 459.693C71.834 459.982 71.7539 460.311 71.7539 460.678C71.7539 461.045 71.834 461.365 71.9941 461.639C72.1582 461.908 72.3691 462.143 72.627 462.342C72.8809 462.537 73.1621 462.705 73.4707 462.846C73.7832 462.982 74.0898 463.1 74.3906 463.197C74.5977 463.264 74.8125 463.338 75.0352 463.42C75.2617 463.502 75.4688 463.604 75.6562 463.725C75.8438 463.85 75.9961 464.002 76.1133 464.182C76.2344 464.361 76.2949 464.582 76.2949 464.844ZM84.5859 463.227V462.254C84.582 461.949 84.5547 461.641 84.5039 461.328C84.457 461.016 84.3828 460.715 84.2812 460.426C84.1758 460.137 84.043 459.867 83.8828 459.617C83.7266 459.363 83.5391 459.143 83.3203 458.955C83.1016 458.768 82.8496 458.621 82.5645 458.516C82.2793 458.406 81.9609 458.352 81.6094 458.352C81.2578 458.352 80.9395 458.406 80.6543 458.516C80.373 458.621 80.123 458.768 79.9043 458.955C79.6855 459.146 79.4961 459.369 79.3359 459.623C79.1797 459.873 79.0508 460.143 78.9492 460.432C78.8438 460.721 78.7656 461.021 78.7148 461.334C78.668 461.643 78.6426 461.949 78.6387 462.254V463.227C78.6426 463.531 78.6699 463.838 78.7207 464.146C78.7715 464.455 78.8496 464.754 78.9551 465.043C79.0566 465.332 79.1875 465.604 79.3477 465.857C79.5078 466.107 79.6973 466.326 79.916 466.514C80.1348 466.701 80.3848 466.85 80.666 466.959C80.9512 467.064 81.2695 467.117 81.6211 467.117C81.9727 467.117 82.2891 467.064 82.5703 466.959C82.8555 466.85 83.1074 466.701 83.3262 466.514C83.5449 466.326 83.7324 466.107 83.8887 465.857C84.0488 465.607 84.1797 465.338 84.2812 465.049C84.3828 464.76 84.457 464.461 84.5039 464.152C84.5547 463.84 84.582 463.531 84.5859 463.227ZM83.5137 462.242V463.227C83.5098 463.43 83.4961 463.643 83.4727 463.865C83.4531 464.088 83.416 464.307 83.3613 464.521C83.3027 464.74 83.2266 464.949 83.1328 465.148C83.043 465.344 82.9297 465.516 82.793 465.664C82.6523 465.816 82.4844 465.938 82.2891 466.027C82.0977 466.117 81.875 466.162 81.6211 466.162C81.3672 466.162 81.1445 466.117 80.9531 466.027C80.7617 465.938 80.5957 465.816 80.4551 465.664C80.3145 465.516 80.1973 465.342 80.1035 465.143C80.0098 464.943 79.9336 464.734 79.875 464.516C79.8164 464.301 79.7734 464.082 79.7461 463.859C79.7227 463.637 79.709 463.426 79.7051 463.227V462.242C79.709 462.043 79.7227 461.834 79.7461 461.615C79.7734 461.393 79.8164 461.172 79.875 460.953C79.9297 460.738 80.0039 460.533 80.0977 460.338C80.1914 460.139 80.3086 459.963 80.4492 459.811C80.5898 459.662 80.7559 459.543 80.9473 459.453C81.1387 459.363 81.3594 459.318 81.6094 459.318C81.8633 459.318 82.0859 459.363 82.2773 459.453C82.4688 459.539 82.6348 459.656 82.7754 459.805C82.916 459.957 83.0332 460.133 83.127 460.332C83.2207 460.527 83.2969 460.732 83.3555 460.947C83.4102 461.166 83.4492 461.387 83.4727 461.609C83.4961 461.828 83.5098 462.039 83.5137 462.242ZM91.793 463.227V462.254C91.7891 461.949 91.7617 461.641 91.7109 461.328C91.6641 461.016 91.5898 460.715 91.4883 460.426C91.3828 460.137 91.25 459.867 91.0898 459.617C90.9336 459.363 90.7461 459.143 90.5273 458.955C90.3086 458.768 90.0566 458.621 89.7715 458.516C89.4863 458.406 89.168 458.352 88.8164 458.352C88.4648 458.352 88.1465 458.406 87.8613 458.516C87.5801 458.621 87.3301 458.768 87.1113 458.955C86.8926 459.146 86.7031 459.369 86.543 459.623C86.3867 459.873 86.2578 460.143 86.1562 460.432C86.0508 460.721 85.9727 461.021 85.9219 461.334C85.875 461.643 85.8496 461.949 85.8457 462.254V463.227C85.8496 463.531 85.877 463.838 85.9277 464.146C85.9785 464.455 86.0566 464.754 86.1621 465.043C86.2637 465.332 86.3945 465.604 86.5547 465.857C86.7148 466.107 86.9043 466.326 87.123 466.514C87.3418 466.701 87.5918 466.85 87.873 466.959C88.1582 467.064 88.4766 467.117 88.8281 467.117C89.1797 467.117 89.4961 467.064 89.7773 466.959C90.0625 466.85 90.3145 466.701 90.5332 466.514C90.752 466.326 90.9395 466.107 91.0957 465.857C91.2559 465.607 91.3867 465.338 91.4883 465.049C91.5898 464.76 91.6641 464.461 91.7109 464.152C91.7617 463.84 91.7891 463.531 91.793 463.227ZM90.7207 462.242V463.227C90.7168 463.43 90.7031 463.643 90.6797 463.865C90.6602 464.088 90.623 464.307 90.5684 464.521C90.5098 464.74 90.4336 464.949 90.3398 465.148C90.25 465.344 90.1367 465.516 90 465.664C89.8594 465.816 89.6914 465.938 89.4961 466.027C89.3047 466.117 89.082 466.162 88.8281 466.162C88.5742 466.162 88.3516 466.117 88.1602 466.027C87.9688 465.938 87.8027 465.816 87.6621 465.664C87.5215 465.516 87.4043 465.342 87.3105 465.143C87.2168 464.943 87.1406 464.734 87.082 464.516C87.0234 464.301 86.9805 464.082 86.9531 463.859C86.9297 463.637 86.916 463.426 86.9121 463.227V462.242C86.916 462.043 86.9297 461.834 86.9531 461.615C86.9805 461.393 87.0234 461.172 87.082 460.953C87.1367 460.738 87.2109 460.533 87.3047 460.338C87.3984 460.139 87.5156 459.963 87.6562 459.811C87.7969 459.662 87.9629 459.543 88.1543 459.453C88.3457 459.363 88.5664 459.318 88.8164 459.318C89.0703 459.318 89.293 459.363 89.4844 459.453C89.6758 459.539 89.8418 459.656 89.9824 459.805C90.123 459.957 90.2402 460.133 90.334 460.332C90.4277 460.527 90.5039 460.732 90.5625 460.947C90.6172 461.166 90.6562 461.387 90.6797 461.609C90.7031 461.828 90.7168 462.039 90.7207 462.242ZM98.7949 467V458.469H97.6992L97.6816 464.832L94.3711 458.469H93.2695V467H94.3652L94.3828 460.625L97.6934 467H98.7949Z" fill="white" fill-opacity="0.3"/>
<path d="M656.18 579.156V577.609H651.367V574.18H656.867V572.625H649.477V584H651.367V579.156H656.18ZM664.391 584H666.297V583.867C666.193 583.648 666.112 583.388 666.055 583.086C666.003 582.779 665.977 582.435 665.977 582.055V578.297C665.977 577.818 665.888 577.396 665.711 577.031C665.534 576.661 665.289 576.357 664.977 576.117C664.664 575.878 664.292 575.698 663.859 575.578C663.432 575.453 662.971 575.391 662.477 575.391C661.924 575.391 661.432 575.464 661 575.609C660.573 575.75 660.214 575.943 659.922 576.188C659.62 576.427 659.391 576.703 659.234 577.016C659.078 577.328 658.997 577.654 658.992 577.992H660.867C660.867 577.831 660.896 577.68 660.953 577.539C661.016 577.393 661.109 577.271 661.234 577.172C661.359 577.062 661.516 576.977 661.703 576.914C661.896 576.852 662.12 576.82 662.375 576.82C662.656 576.82 662.904 576.857 663.117 576.93C663.336 576.997 663.521 577.096 663.672 577.227C663.812 577.357 663.919 577.51 663.992 577.688C664.07 577.865 664.109 578.062 664.109 578.281V578.852H662.75C662.141 578.852 661.594 578.909 661.109 579.023C660.63 579.138 660.227 579.305 659.898 579.523C659.544 579.758 659.273 580.055 659.086 580.414C658.904 580.768 658.812 581.177 658.812 581.641C658.812 582 658.883 582.336 659.023 582.648C659.169 582.956 659.372 583.219 659.633 583.438C659.888 583.661 660.195 583.839 660.555 583.969C660.919 584.094 661.32 584.156 661.758 584.156C662.029 584.156 662.281 584.13 662.516 584.078C662.75 584.026 662.969 583.953 663.172 583.859C663.375 583.771 663.557 583.667 663.719 583.547C663.885 583.422 664.034 583.292 664.164 583.156C664.19 583.318 664.219 583.474 664.25 583.625C664.286 583.771 664.333 583.896 664.391 584ZM662.117 582.656C661.878 582.656 661.669 582.628 661.492 582.57C661.315 582.508 661.167 582.424 661.047 582.32C660.927 582.216 660.836 582.091 660.773 581.945C660.711 581.794 660.68 581.633 660.68 581.461C660.68 581.253 660.716 581.065 660.789 580.898C660.867 580.732 660.984 580.589 661.141 580.469C661.318 580.328 661.555 580.221 661.852 580.148C662.148 580.07 662.5 580.031 662.906 580.031H664.109V581.594C664.042 581.729 663.945 581.859 663.82 581.984C663.695 582.109 663.547 582.221 663.375 582.32C663.203 582.419 663.01 582.5 662.797 582.562C662.589 582.625 662.362 582.656 662.117 582.656ZM668.602 584H670.469V577.969C670.552 577.828 670.648 577.698 670.758 577.578C670.867 577.458 670.984 577.357 671.109 577.273C671.271 577.164 671.451 577.081 671.648 577.023C671.846 576.961 672.06 576.93 672.289 576.93C672.565 576.93 672.81 576.961 673.023 577.023C673.237 577.081 673.419 577.18 673.57 577.32C673.721 577.461 673.836 577.648 673.914 577.883C673.992 578.117 674.031 578.409 674.031 578.758V584H675.898V578.727C675.898 578.133 675.828 577.628 675.688 577.211C675.547 576.789 675.349 576.443 675.094 576.172C674.839 575.901 674.531 575.703 674.172 575.578C673.812 575.453 673.417 575.391 672.984 575.391C672.656 575.391 672.344 575.438 672.047 575.531C671.75 575.625 671.477 575.758 671.227 575.93C671.07 576.039 670.922 576.164 670.781 576.305C670.646 576.44 670.521 576.589 670.406 576.75L670.289 575.547H668.602V584ZM681.961 573.484H680.086V575.547H678.039V576.945H680.086V581.102C680.086 581.643 680.156 582.107 680.297 582.492C680.443 582.878 680.643 583.193 680.898 583.438C681.154 583.688 681.458 583.872 681.812 583.992C682.172 584.107 682.565 584.164 682.992 584.164C683.227 584.164 683.461 584.151 683.695 584.125C683.935 584.104 684.164 584.073 684.383 584.031C684.602 583.99 684.805 583.94 684.992 583.883C685.185 583.82 685.349 583.747 685.484 583.664L685.281 582.375C685.188 582.396 685.07 582.422 684.93 582.453C684.794 582.479 684.648 582.503 684.492 582.523C684.331 582.549 684.164 582.57 683.992 582.586C683.82 582.602 683.654 582.609 683.492 582.609C683.268 582.609 683.062 582.583 682.875 582.531C682.688 582.479 682.526 582.391 682.391 582.266C682.255 582.146 682.148 581.982 682.07 581.773C681.997 581.56 681.961 581.297 681.961 580.984V576.945H685.141V575.547H681.961V573.484ZM687.477 579.695V579.859C687.477 580.479 687.565 581.049 687.742 581.57C687.919 582.091 688.177 582.544 688.516 582.93C688.849 583.315 689.26 583.617 689.75 583.836C690.24 584.055 690.794 584.164 691.414 584.164C692.029 584.164 692.578 584.055 693.062 583.836C693.552 583.617 693.964 583.315 694.297 582.93C694.63 582.544 694.885 582.091 695.062 581.57C695.24 581.049 695.328 580.479 695.328 579.859V579.695C695.328 579.081 695.24 578.513 695.062 577.992C694.885 577.466 694.63 577.01 694.297 576.625C693.958 576.24 693.544 575.938 693.055 575.719C692.57 575.5 692.018 575.391 691.398 575.391C690.779 575.391 690.227 575.5 689.742 575.719C689.258 575.938 688.849 576.24 688.516 576.625C688.177 577.01 687.919 577.466 687.742 577.992C687.565 578.513 687.477 579.081 687.477 579.695ZM689.344 579.859V579.695C689.344 579.326 689.383 578.971 689.461 578.633C689.544 578.294 689.672 577.997 689.844 577.742C690.01 577.487 690.221 577.284 690.477 577.133C690.737 576.982 691.044 576.906 691.398 576.906C691.758 576.906 692.065 576.982 692.32 577.133C692.581 577.284 692.797 577.487 692.969 577.742C693.13 577.997 693.253 578.294 693.336 578.633C693.419 578.971 693.461 579.326 693.461 579.695V579.859C693.461 580.24 693.419 580.599 693.336 580.938C693.258 581.276 693.135 581.573 692.969 581.828C692.802 582.083 692.589 582.286 692.328 582.438C692.068 582.583 691.763 582.656 691.414 582.656C691.055 582.656 690.745 582.583 690.484 582.438C690.224 582.286 690.01 582.083 689.844 581.828C689.672 581.573 689.544 581.276 689.461 580.938C689.383 580.599 689.344 580.24 689.344 579.859ZM698.492 575.547H696.867V584H698.586V577.508C698.617 577.43 698.651 577.359 698.688 577.297C698.729 577.234 698.776 577.18 698.828 577.133C698.896 577.065 698.977 577.016 699.07 576.984C699.169 576.948 699.281 576.93 699.406 576.93C699.521 576.93 699.622 576.945 699.711 576.977C699.805 577.008 699.885 577.057 699.953 577.125C700.021 577.193 700.07 577.286 700.102 577.406C700.138 577.521 700.156 577.661 700.156 577.828V584H701.844V577.727C701.844 577.674 701.844 577.635 701.844 577.609C701.844 577.578 701.844 577.552 701.844 577.531C701.865 577.443 701.896 577.365 701.938 577.297C701.979 577.224 702.031 577.161 702.094 577.109C702.161 577.052 702.24 577.008 702.328 576.977C702.417 576.945 702.521 576.93 702.641 576.93C702.755 576.93 702.859 576.945 702.953 576.977C703.052 577.008 703.135 577.057 703.203 577.125C703.271 577.198 703.323 577.294 703.359 577.414C703.396 577.529 703.414 577.669 703.414 577.836V584H705.133V577.852C705.133 577.409 705.086 577.031 704.992 576.719C704.904 576.401 704.776 576.143 704.609 575.945C704.443 575.758 704.245 575.62 704.016 575.531C703.792 575.438 703.544 575.391 703.273 575.391C703.065 575.391 702.872 575.417 702.695 575.469C702.523 575.521 702.367 575.594 702.227 575.688C702.117 575.76 702.016 575.849 701.922 575.953C701.828 576.057 701.745 576.169 701.672 576.289C701.62 576.159 701.557 576.044 701.484 575.945C701.411 575.841 701.328 575.753 701.234 575.68C701.115 575.581 700.971 575.508 700.805 575.461C700.638 575.414 700.451 575.391 700.242 575.391C699.841 575.391 699.497 575.487 699.211 575.68C698.93 575.872 698.708 576.138 698.547 576.477L698.492 575.547Z" fill="white" fill-opacity="0.7"/>
<path d="M235.945 581.383L236.711 584H238.656L235.016 572.625H233.352L229.648 584H231.602L232.375 581.383H235.945ZM232.852 579.773L234.18 575.273L235.484 579.773H232.852ZM242.844 584H244.492L247.805 575.547H245.867L243.797 581.68L243.672 582.242L243.547 581.68L241.453 575.547H239.516L242.844 584ZM255.086 584H256.992V583.867C256.888 583.648 256.807 583.388 256.75 583.086C256.698 582.779 256.672 582.435 256.672 582.055V578.297C256.672 577.818 256.583 577.396 256.406 577.031C256.229 576.661 255.984 576.357 255.672 576.117C255.359 575.878 254.987 575.698 254.555 575.578C254.128 575.453 253.667 575.391 253.172 575.391C252.62 575.391 252.128 575.464 251.695 575.609C251.268 575.75 250.909 575.943 250.617 576.188C250.315 576.427 250.086 576.703 249.93 577.016C249.773 577.328 249.693 577.654 249.688 577.992H251.562C251.562 577.831 251.591 577.68 251.648 577.539C251.711 577.393 251.805 577.271 251.93 577.172C252.055 577.062 252.211 576.977 252.398 576.914C252.591 576.852 252.815 576.82 253.07 576.82C253.352 576.82 253.599 576.857 253.812 576.93C254.031 576.997 254.216 577.096 254.367 577.227C254.508 577.357 254.615 577.51 254.688 577.688C254.766 577.865 254.805 578.062 254.805 578.281V578.852H253.445C252.836 578.852 252.289 578.909 251.805 579.023C251.326 579.138 250.922 579.305 250.594 579.523C250.24 579.758 249.969 580.055 249.781 580.414C249.599 580.768 249.508 581.177 249.508 581.641C249.508 582 249.578 582.336 249.719 582.648C249.865 582.956 250.068 583.219 250.328 583.438C250.583 583.661 250.891 583.839 251.25 583.969C251.615 584.094 252.016 584.156 252.453 584.156C252.724 584.156 252.977 584.13 253.211 584.078C253.445 584.026 253.664 583.953 253.867 583.859C254.07 583.771 254.253 583.667 254.414 583.547C254.581 583.422 254.729 583.292 254.859 583.156C254.885 583.318 254.914 583.474 254.945 583.625C254.982 583.771 255.029 583.896 255.086 584ZM252.812 582.656C252.573 582.656 252.365 582.628 252.188 582.57C252.01 582.508 251.862 582.424 251.742 582.32C251.622 582.216 251.531 582.091 251.469 581.945C251.406 581.794 251.375 581.633 251.375 581.461C251.375 581.253 251.411 581.065 251.484 580.898C251.562 580.732 251.68 580.589 251.836 580.469C252.013 580.328 252.25 580.221 252.547 580.148C252.844 580.07 253.195 580.031 253.602 580.031H254.805V581.594C254.737 581.729 254.641 581.859 254.516 581.984C254.391 582.109 254.242 582.221 254.07 582.32C253.898 582.419 253.706 582.5 253.492 582.562C253.284 582.625 253.057 582.656 252.812 582.656ZM259.656 572V573.555H262.328V582.453H259.656V584H266.773V582.453H264.211V572H259.656ZM274.305 584H276.211V583.867C276.107 583.648 276.026 583.388 275.969 583.086C275.917 582.779 275.891 582.435 275.891 582.055V578.297C275.891 577.818 275.802 577.396 275.625 577.031C275.448 576.661 275.203 576.357 274.891 576.117C274.578 575.878 274.206 575.698 273.773 575.578C273.346 575.453 272.885 575.391 272.391 575.391C271.839 575.391 271.346 575.464 270.914 575.609C270.487 575.75 270.128 575.943 269.836 576.188C269.534 576.427 269.305 576.703 269.148 577.016C268.992 577.328 268.911 577.654 268.906 577.992H270.781C270.781 577.831 270.81 577.68 270.867 577.539C270.93 577.393 271.023 577.271 271.148 577.172C271.273 577.062 271.43 576.977 271.617 576.914C271.81 576.852 272.034 576.82 272.289 576.82C272.57 576.82 272.818 576.857 273.031 576.93C273.25 576.997 273.435 577.096 273.586 577.227C273.727 577.357 273.833 577.51 273.906 577.688C273.984 577.865 274.023 578.062 274.023 578.281V578.852H272.664C272.055 578.852 271.508 578.909 271.023 579.023C270.544 579.138 270.141 579.305 269.812 579.523C269.458 579.758 269.188 580.055 269 580.414C268.818 580.768 268.727 581.177 268.727 581.641C268.727 582 268.797 582.336 268.938 582.648C269.083 582.956 269.286 583.219 269.547 583.438C269.802 583.661 270.109 583.839 270.469 583.969C270.833 584.094 271.234 584.156 271.672 584.156C271.943 584.156 272.195 584.13 272.43 584.078C272.664 584.026 272.883 583.953 273.086 583.859C273.289 583.771 273.471 583.667 273.633 583.547C273.799 583.422 273.948 583.292 274.078 583.156C274.104 583.318 274.133 583.474 274.164 583.625C274.201 583.771 274.247 583.896 274.305 584ZM272.031 582.656C271.792 582.656 271.583 582.628 271.406 582.57C271.229 582.508 271.081 582.424 270.961 582.32C270.841 582.216 270.75 582.091 270.688 581.945C270.625 581.794 270.594 581.633 270.594 581.461C270.594 581.253 270.63 581.065 270.703 580.898C270.781 580.732 270.898 580.589 271.055 580.469C271.232 580.328 271.469 580.221 271.766 580.148C272.062 580.07 272.414 580.031 272.82 580.031H274.023V581.594C273.956 581.729 273.859 581.859 273.734 581.984C273.609 582.109 273.461 582.221 273.289 582.32C273.117 582.419 272.924 582.5 272.711 582.562C272.503 582.625 272.276 582.656 272.031 582.656ZM278.516 584H280.383V577.969C280.466 577.828 280.562 577.698 280.672 577.578C280.781 577.458 280.898 577.357 281.023 577.273C281.185 577.164 281.365 577.081 281.562 577.023C281.76 576.961 281.974 576.93 282.203 576.93C282.479 576.93 282.724 576.961 282.938 577.023C283.151 577.081 283.333 577.18 283.484 577.32C283.635 577.461 283.75 577.648 283.828 577.883C283.906 578.117 283.945 578.409 283.945 578.758V584H285.812V578.727C285.812 578.133 285.742 577.628 285.602 577.211C285.461 576.789 285.263 576.443 285.008 576.172C284.753 575.901 284.445 575.703 284.086 575.578C283.727 575.453 283.331 575.391 282.898 575.391C282.57 575.391 282.258 575.438 281.961 575.531C281.664 575.625 281.391 575.758 281.141 575.93C280.984 576.039 280.836 576.164 280.695 576.305C280.56 576.44 280.435 576.589 280.32 576.75L280.203 575.547H278.516V584ZM291.805 582.656C291.414 582.656 291.089 582.578 290.828 582.422C290.568 582.266 290.362 582.057 290.211 581.797C290.055 581.547 289.943 581.258 289.875 580.93C289.812 580.596 289.781 580.258 289.781 579.914V579.641C289.781 579.302 289.812 578.969 289.875 578.641C289.943 578.312 290.057 578.021 290.219 577.766C290.37 577.51 290.573 577.305 290.828 577.148C291.089 576.987 291.414 576.906 291.805 576.906C292.06 576.906 292.297 576.951 292.516 577.039C292.74 577.128 292.932 577.247 293.094 577.398C293.25 577.549 293.37 577.727 293.453 577.93C293.542 578.133 293.586 578.349 293.586 578.578H295.344C295.349 578.109 295.263 577.68 295.086 577.289C294.914 576.898 294.672 576.562 294.359 576.281C294.047 576 293.672 575.781 293.234 575.625C292.802 575.469 292.331 575.391 291.82 575.391C291.174 575.391 290.607 575.505 290.117 575.734C289.633 575.958 289.227 576.263 288.898 576.648C288.57 577.034 288.323 577.484 288.156 578C287.995 578.516 287.914 579.062 287.914 579.641V579.914C287.914 580.497 287.997 581.047 288.164 581.562C288.331 582.073 288.578 582.521 288.906 582.906C289.229 583.292 289.633 583.599 290.117 583.828C290.607 584.052 291.177 584.164 291.828 584.164C292.297 584.164 292.742 584.089 293.164 583.938C293.591 583.781 293.969 583.568 294.297 583.297C294.62 583.036 294.875 582.727 295.062 582.367C295.255 582.003 295.349 581.615 295.344 581.203H293.586C293.586 581.417 293.536 581.612 293.438 581.789C293.344 581.966 293.216 582.12 293.055 582.25C292.888 582.38 292.695 582.482 292.477 582.555C292.263 582.622 292.039 582.656 291.805 582.656ZM299.602 576.75V572H297.734V584H299.602V577.883C299.69 577.747 299.792 577.625 299.906 577.516C300.026 577.406 300.154 577.312 300.289 577.234C300.451 577.135 300.628 577.06 300.82 577.008C301.018 576.956 301.227 576.93 301.445 576.93C301.727 576.93 301.974 576.969 302.188 577.047C302.406 577.12 302.591 577.234 302.742 577.391C302.888 577.536 302.997 577.727 303.07 577.961C303.148 578.195 303.188 578.469 303.188 578.781V584H305.055V578.797C305.055 578.198 304.982 577.685 304.836 577.258C304.695 576.826 304.495 576.471 304.234 576.195C303.974 575.919 303.659 575.716 303.289 575.586C302.924 575.456 302.521 575.391 302.078 575.391C301.76 575.391 301.458 575.438 301.172 575.531C300.891 575.62 300.633 575.75 300.398 575.922C300.247 576.026 300.104 576.148 299.969 576.289C299.833 576.43 299.711 576.583 299.602 576.75ZM311.289 584.156C312.112 584.156 312.812 583.995 313.391 583.672C313.974 583.349 314.406 582.984 314.688 582.578L313.688 581.609C313.427 581.943 313.096 582.201 312.695 582.383C312.294 582.56 311.862 582.648 311.398 582.648C311.06 582.648 310.747 582.591 310.461 582.477C310.18 582.362 309.935 582.201 309.727 581.992C309.518 581.794 309.354 581.57 309.234 581.32C309.115 581.07 309.026 580.76 308.969 580.391V580.352H314.828V579.547C314.828 578.943 314.747 578.385 314.586 577.875C314.424 577.365 314.185 576.924 313.867 576.555C313.549 576.19 313.156 575.906 312.688 575.703C312.219 575.495 311.68 575.391 311.07 575.391C310.523 575.391 310.008 575.495 309.523 575.703C309.044 575.906 308.622 576.198 308.258 576.578C307.893 576.958 307.607 577.417 307.398 577.953C307.19 578.49 307.086 579.089 307.086 579.75V580.07C307.086 580.648 307.185 581.188 307.383 581.688C307.586 582.182 307.872 582.612 308.242 582.977C308.612 583.346 309.055 583.635 309.57 583.844C310.091 584.052 310.664 584.156 311.289 584.156ZM311.062 576.906C311.375 576.906 311.648 576.961 311.883 577.07C312.122 577.174 312.32 577.315 312.477 577.492C312.638 577.674 312.763 577.888 312.852 578.133C312.94 578.372 312.984 578.615 312.984 578.859V578.984H309.008C309.065 578.661 309.154 578.372 309.273 578.117C309.393 577.862 309.542 577.643 309.719 577.461C309.896 577.284 310.096 577.148 310.32 577.055C310.549 576.956 310.797 576.906 311.062 576.906Z" fill="white" fill-opacity="0.7"/>
<path d="M646.547 137.664H648.477C649.049 137.664 649.576 137.581 650.055 137.414C650.539 137.247 650.956 137.01 651.305 136.703C651.654 136.401 651.924 136.039 652.117 135.617C652.31 135.19 652.406 134.714 652.406 134.188C652.406 133.641 652.31 133.148 652.117 132.711C651.924 132.273 651.654 131.901 651.305 131.594C650.956 131.286 650.539 131.049 650.055 130.883C649.576 130.716 649.049 130.63 648.477 130.625H644.672V142H646.547V137.664ZM646.547 136.133V132.156H648.477C648.794 132.161 649.078 132.214 649.328 132.312C649.583 132.411 649.799 132.552 649.977 132.734C650.154 132.917 650.286 133.133 650.375 133.383C650.469 133.628 650.516 133.901 650.516 134.203C650.516 134.479 650.469 134.734 650.375 134.969C650.286 135.203 650.154 135.406 649.977 135.578C649.799 135.75 649.583 135.885 649.328 135.984C649.078 136.078 648.794 136.128 648.477 136.133H646.547ZM653.844 137.695V137.859C653.844 138.479 653.932 139.049 654.109 139.57C654.286 140.091 654.544 140.544 654.883 140.93C655.216 141.315 655.628 141.617 656.117 141.836C656.607 142.055 657.161 142.164 657.781 142.164C658.396 142.164 658.945 142.055 659.43 141.836C659.919 141.617 660.331 141.315 660.664 140.93C660.997 140.544 661.253 140.091 661.43 139.57C661.607 139.049 661.695 138.479 661.695 137.859V137.695C661.695 137.081 661.607 136.513 661.43 135.992C661.253 135.466 660.997 135.01 660.664 134.625C660.326 134.24 659.911 133.938 659.422 133.719C658.938 133.5 658.385 133.391 657.766 133.391C657.146 133.391 656.594 133.5 656.109 133.719C655.625 133.938 655.216 134.24 654.883 134.625C654.544 135.01 654.286 135.466 654.109 135.992C653.932 136.513 653.844 137.081 653.844 137.695ZM655.711 137.859V137.695C655.711 137.326 655.75 136.971 655.828 136.633C655.911 136.294 656.039 135.997 656.211 135.742C656.378 135.487 656.589 135.284 656.844 135.133C657.104 134.982 657.411 134.906 657.766 134.906C658.125 134.906 658.432 134.982 658.688 135.133C658.948 135.284 659.164 135.487 659.336 135.742C659.497 135.997 659.62 136.294 659.703 136.633C659.786 136.971 659.828 137.326 659.828 137.695V137.859C659.828 138.24 659.786 138.599 659.703 138.938C659.625 139.276 659.503 139.573 659.336 139.828C659.169 140.083 658.956 140.286 658.695 140.438C658.435 140.583 658.13 140.656 657.781 140.656C657.422 140.656 657.112 140.583 656.852 140.438C656.591 140.286 656.378 140.083 656.211 139.828C656.039 139.573 655.911 139.276 655.828 138.938C655.75 138.599 655.711 138.24 655.711 137.859ZM664.156 130V131.555H666.828V140.453H664.156V142H671.273V140.453H668.711V130H664.156ZM674.469 145.414C674.88 145.414 675.24 145.341 675.547 145.195C675.854 145.055 676.12 144.878 676.344 144.664C676.568 144.456 676.753 144.227 676.898 143.977C677.049 143.732 677.174 143.5 677.273 143.281L681.562 133.547H679.492L677.453 138.734L677.102 139.641L676.812 138.711L674.711 133.547H672.656L676.258 141.625L675.727 142.633C675.669 142.747 675.607 142.857 675.539 142.961C675.477 143.065 675.393 143.185 675.289 143.32C675.18 143.456 675.052 143.576 674.906 143.68C674.76 143.789 674.596 143.844 674.414 143.844C674.331 143.844 674.221 143.839 674.086 143.828C673.956 143.823 673.839 143.818 673.734 143.812L673.477 145.273C673.628 145.31 673.784 145.341 673.945 145.367C674.112 145.398 674.286 145.414 674.469 145.414ZM682.773 137.711V137.875C682.773 138.484 682.852 139.052 683.008 139.578C683.169 140.099 683.396 140.549 683.688 140.93C683.984 141.315 684.341 141.617 684.758 141.836C685.174 142.049 685.643 142.156 686.164 142.156C686.451 142.156 686.716 142.125 686.961 142.062C687.206 142.005 687.43 141.919 687.633 141.805C687.768 141.732 687.893 141.646 688.008 141.547C688.128 141.448 688.242 141.341 688.352 141.227V141.812C688.352 142.13 688.305 142.414 688.211 142.664C688.122 142.914 687.995 143.125 687.828 143.297C687.646 143.474 687.424 143.609 687.164 143.703C686.909 143.797 686.615 143.844 686.281 143.844C686.089 143.844 685.898 143.823 685.711 143.781C685.523 143.745 685.339 143.685 685.156 143.602C684.974 143.518 684.794 143.409 684.617 143.273C684.445 143.143 684.284 142.987 684.133 142.805L683.25 143.938C683.438 144.188 683.661 144.401 683.922 144.578C684.182 144.755 684.456 144.898 684.742 145.008C685.029 145.117 685.315 145.198 685.602 145.25C685.888 145.302 686.151 145.328 686.391 145.328C686.958 145.328 687.477 145.247 687.945 145.086C688.419 144.93 688.826 144.701 689.164 144.398C689.497 144.091 689.755 143.716 689.938 143.273C690.125 142.836 690.219 142.333 690.219 141.766V133.547H688.523L688.445 134.398C688.341 134.273 688.229 134.159 688.109 134.055C687.99 133.945 687.862 133.852 687.727 133.773C687.518 133.648 687.286 133.555 687.031 133.492C686.776 133.424 686.492 133.391 686.18 133.391C685.654 133.391 685.18 133.497 684.758 133.711C684.341 133.919 683.984 134.214 683.688 134.594C683.391 134.974 683.164 135.43 683.008 135.961C682.852 136.487 682.773 137.07 682.773 137.711ZM684.648 137.875V137.711C684.648 137.331 684.688 136.974 684.766 136.641C684.844 136.302 684.966 136.005 685.133 135.75C685.294 135.495 685.5 135.294 685.75 135.148C686 135.003 686.299 134.93 686.648 134.93C686.846 134.93 687.029 134.953 687.195 135C687.362 135.042 687.513 135.099 687.648 135.172C687.799 135.26 687.932 135.367 688.047 135.492C688.167 135.617 688.268 135.758 688.352 135.914V139.617C688.268 139.768 688.172 139.906 688.062 140.031C687.953 140.156 687.828 140.263 687.688 140.352C687.547 140.435 687.388 140.5 687.211 140.547C687.039 140.594 686.846 140.617 686.633 140.617C686.289 140.617 685.992 140.547 685.742 140.406C685.492 140.26 685.286 140.06 685.125 139.805C684.958 139.56 684.836 139.271 684.758 138.938C684.685 138.604 684.648 138.25 684.648 137.875ZM692.281 137.695V137.859C692.281 138.479 692.37 139.049 692.547 139.57C692.724 140.091 692.982 140.544 693.32 140.93C693.654 141.315 694.065 141.617 694.555 141.836C695.044 142.055 695.599 142.164 696.219 142.164C696.833 142.164 697.383 142.055 697.867 141.836C698.357 141.617 698.768 141.315 699.102 140.93C699.435 140.544 699.69 140.091 699.867 139.57C700.044 139.049 700.133 138.479 700.133 137.859V137.695C700.133 137.081 700.044 136.513 699.867 135.992C699.69 135.466 699.435 135.01 699.102 134.625C698.763 134.24 698.349 133.938 697.859 133.719C697.375 133.5 696.823 133.391 696.203 133.391C695.583 133.391 695.031 133.5 694.547 133.719C694.062 133.938 693.654 134.24 693.32 134.625C692.982 135.01 692.724 135.466 692.547 135.992C692.37 136.513 692.281 137.081 692.281 137.695ZM694.148 137.859V137.695C694.148 137.326 694.188 136.971 694.266 136.633C694.349 136.294 694.477 135.997 694.648 135.742C694.815 135.487 695.026 135.284 695.281 135.133C695.542 134.982 695.849 134.906 696.203 134.906C696.562 134.906 696.87 134.982 697.125 135.133C697.385 135.284 697.602 135.487 697.773 135.742C697.935 135.997 698.057 136.294 698.141 136.633C698.224 136.971 698.266 137.326 698.266 137.695V137.859C698.266 138.24 698.224 138.599 698.141 138.938C698.062 139.276 697.94 139.573 697.773 139.828C697.607 140.083 697.393 140.286 697.133 140.438C696.872 140.583 696.568 140.656 696.219 140.656C695.859 140.656 695.549 140.583 695.289 140.438C695.029 140.286 694.815 140.083 694.648 139.828C694.477 139.573 694.349 139.276 694.266 138.938C694.188 138.599 694.148 138.24 694.148 137.859ZM702.234 142H704.102V135.969C704.185 135.828 704.281 135.698 704.391 135.578C704.5 135.458 704.617 135.357 704.742 135.273C704.904 135.164 705.083 135.081 705.281 135.023C705.479 134.961 705.693 134.93 705.922 134.93C706.198 134.93 706.443 134.961 706.656 135.023C706.87 135.081 707.052 135.18 707.203 135.32C707.354 135.461 707.469 135.648 707.547 135.883C707.625 136.117 707.664 136.409 707.664 136.758V142H709.531V136.727C709.531 136.133 709.461 135.628 709.32 135.211C709.18 134.789 708.982 134.443 708.727 134.172C708.471 133.901 708.164 133.703 707.805 133.578C707.445 133.453 707.049 133.391 706.617 133.391C706.289 133.391 705.977 133.438 705.68 133.531C705.383 133.625 705.109 133.758 704.859 133.93C704.703 134.039 704.555 134.164 704.414 134.305C704.279 134.44 704.154 134.589 704.039 134.75L703.922 133.547H702.234V142Z" fill="white" fill-opacity="0.7"/>
<path d="M78.3191 347.96H67.0391V359.24H78.3191V347.96Z" fill="#01EF8B"/>
<path d="M55.76 363.48C55.76 365.8 53.84 367.72 51.52 367.72C49.2 367.72 47.28 365.8 47.28 363.48C47.28 361.16 49.2 359.24 51.52 359.24H55.76V347.96H51.52C42.96 347.96 36 354.92 36 363.48C36 372.04 42.96 379 51.52 379C60.08 379 67.04 372.04 67.04 363.48V359.24H55.76V363.48Z" fill="#01EF8B"/>
<path d="M71.2798 342.28H83.9998V331H71.2798C62.7198 331 55.7598 337.96 55.7598 346.52V347.96H67.0398V346.52C67.0398 344.2 68.9598 342.28 71.2798 342.28Z" fill="#01EF8B"/>
<path d="M482.062 596.073L487.202 587.351L501.059 608.932L501.065 613.074L501.02 584.573C500.987 583.877 500.617 583.239 500.027 582.864L475.081 568.514C474.497 568.227 473.757 568.23 473.175 568.523C473.096 568.562 473.022 568.605 472.951 568.652L472.864 568.707L448.65 582.739L448.556 582.781C448.435 582.837 448.313 582.908 448.198 582.99C447.739 583.319 447.434 583.806 447.336 584.352C447.321 584.435 447.31 584.519 447.305 584.604L447.343 607.829L460.249 587.825C461.874 585.172 465.415 584.318 468.701 584.364L472.559 584.466L449.831 620.915L452.51 622.458L475.51 584.503L485.676 584.466L462.735 623.379L472.295 628.877L473.437 629.534C473.921 629.73 474.49 629.74 474.977 629.565L500.275 614.904L495.438 617.707L482.062 596.073ZM484.023 624.322L474.367 609.168L480.261 599.166L492.942 619.153L484.023 624.322Z" fill="#2D374B"/>
<path d="M474.367 609.168L484.023 624.322L492.943 619.153L480.262 599.166L474.367 609.168Z" fill="#28A0F0"/>
<path d="M501.064 613.074L501.058 608.932L487.201 587.351L482.061 596.073L495.437 617.707L500.273 614.904C500.748 614.519 501.035 613.954 501.065 613.344L501.064 613.074Z" fill="#28A0F0"/>
<path d="M443 616.98L449.83 620.915L472.558 584.466L468.7 584.364C465.414 584.318 461.874 585.172 460.249 587.825L447.342 607.829L443 614.501V616.98Z" fill="white"/>
<path d="M485.676 584.466L475.51 584.503L452.51 622.458L460.549 627.087L462.735 623.379L485.676 584.466Z" fill="white"/>
<path d="M505.349 584.414C505.264 582.288 504.113 580.341 502.309 579.208L477.036 564.674C475.252 563.776 473.024 563.775 471.237 564.674C471.026 564.78 446.659 578.912 446.659 578.912C446.322 579.074 445.997 579.266 445.692 579.485C444.082 580.638 443.101 582.431 443 584.401V614.501L447.342 607.829L447.304 584.604C447.309 584.519 447.32 584.436 447.335 584.353C447.433 583.807 447.738 583.319 448.198 582.99C448.312 582.908 473.095 568.563 473.174 568.523C473.757 568.231 474.497 568.227 475.08 568.514L500.026 582.864C500.617 583.24 500.987 583.877 501.019 584.574V613.344C500.989 613.954 500.748 614.519 500.274 614.905L495.437 617.707L492.942 619.153L484.022 624.322L474.977 629.565C474.489 629.741 473.92 629.731 473.437 629.534L462.734 623.379L460.548 627.087L470.166 632.624C470.484 632.805 470.767 632.965 471 633.096C471.36 633.298 471.605 633.433 471.692 633.475C472.376 633.807 473.359 634 474.245 634C475.058 634 475.85 633.851 476.6 633.557L502.874 618.341C504.382 617.173 505.269 615.411 505.349 613.502V584.414Z" fill="#96BEDC"/>
<path d="M885.5 395C905.106 395 921 379.106 921 359.5C921 339.894 905.106 324 885.5 324C865.894 324 850 339.894 850 359.5C850 379.106 865.894 395 885.5 395Z" fill="#FF0420"/>
<path d="M874.194 369.184C872.08 369.184 870.348 368.687 868.998 367.692C867.666 366.679 867 365.241 867 363.376C867 362.985 867.044 362.505 867.133 361.937C867.364 360.658 867.693 359.121 868.119 357.327C869.327 352.442 872.444 350 877.471 350C878.839 350 880.065 350.231 881.148 350.693C882.232 351.137 883.084 351.812 883.706 352.718C884.328 353.606 884.639 354.672 884.639 355.915C884.639 356.288 884.594 356.759 884.505 357.327C884.239 358.908 883.919 360.445 883.546 361.937C882.925 364.37 881.85 366.191 880.322 367.399C878.795 368.589 876.752 369.184 874.194 369.184ZM874.567 365.347C875.562 365.347 876.406 365.054 877.098 364.468C877.809 363.882 878.315 362.985 878.617 361.777C879.026 360.107 879.337 358.65 879.55 357.407C879.621 357.034 879.656 356.652 879.656 356.261C879.656 354.645 878.812 353.837 877.125 353.837C876.13 353.837 875.278 354.13 874.567 354.716C873.874 355.302 873.377 356.199 873.075 357.407C872.755 358.597 872.435 360.054 872.116 361.777C872.045 362.132 872.009 362.505 872.009 362.896C872.009 364.53 872.862 365.347 874.567 365.347Z" fill="white"/>
<path d="M885.863 368.918C885.667 368.918 885.516 368.855 885.41 368.731C885.321 368.589 885.294 368.429 885.33 368.252L889.007 350.932C889.042 350.737 889.14 350.577 889.3 350.453C889.46 350.329 889.628 350.266 889.806 350.266H896.893C898.865 350.266 900.446 350.675 901.636 351.492C902.844 352.309 903.448 353.49 903.448 355.036C903.448 355.48 903.395 355.942 903.288 356.421C902.844 358.464 901.947 359.974 900.597 360.951C899.265 361.928 897.435 362.416 895.108 362.416H891.511L890.286 368.252C890.25 368.447 890.152 368.607 889.993 368.731C889.833 368.855 889.664 368.918 889.486 368.918H885.863ZM895.295 358.739C896.041 358.739 896.689 358.535 897.24 358.126C897.808 357.718 898.181 357.132 898.359 356.368C898.412 356.066 898.439 355.8 898.439 355.569C898.439 355.053 898.288 354.663 897.986 354.396C897.684 354.112 897.169 353.97 896.44 353.97H893.243L892.231 358.739H895.295Z" fill="white"/>
</g>
<defs>
<filter id="filter0_d_102_258" x="-77" y="-18" width="1102" height="758" filterUnits="userSpaceOnUse" color-interpolation-filters="sRGB">
<feFlood flood-opacity="0" result="BackgroundImageFix"/>
<feColorMatrix in="SourceAlpha" type="matrix" values="0 0 0 0 0 0 0 0 0 0 0 0 0 0 0 0 0 0 127 0" result="hardAlpha"/>
<feOffset/>
<feGaussianBlur stdDeviation="70"/>
<feComposite in2="hardAlpha" operator="out"/>
<feColorMatrix type="matrix" values="0 0 0 0 0 0 0 0 0 0 0 0 0 0 0 0 0 0 0.2 0"/>
<feBlend mode="normal" in2="BackgroundImageFix" result="effect1_dropShadow_102_258"/>
<feBlend mode="normal" in="SourceGraphic" in2="effect1_dropShadow_102_258" result="shape"/>
</filter>
<linearGradient id="paint0_linear_102_258" x1="267.77" y1="241.933" x2="681.73" y2="480.933" gradientUnits="userSpaceOnUse">
<stop offset="0.076" stop-color="white" stop-opacity="0"/>
<stop offset="0.5" stop-color="white"/>
<stop offset="0.918" stop-color="white" stop-opacity="0"/>
</linearGradient>
<linearGradient id="paint1_linear_102_258" x1="475.499" y1="600" x2="475.499" y2="122" gradientUnits="userSpaceOnUse">
<stop offset="0.076" stop-color="white" stop-opacity="0"/>
<stop offset="0.5" stop-color="white"/>
<stop offset="0.918" stop-color="white" stop-opacity="0"/>
</linearGradient>
<linearGradient id="paint2_linear_102_258" x1="474" y1="456.304" x2="430.544" y2="127.748" gradientUnits="userSpaceOnUse">
<stop stop-color="#181818"/>
<stop offset="1"/>
</linearGradient>
<linearGradient id="paint3_linear_102_258" x1="682.23" y1="241.933" x2="268.27" y2="480.933" gradientUnits="userSpaceOnUse">
<stop offset="0.058" stop-color="white" stop-opacity="0"/>
<stop offset="0.5" stop-color="#808080"/>
<stop offset="0.939" stop-color="white" stop-opacity="0"/>
</linearGradient>
<linearGradient id="paint4_linear_102_258" x1="nan" y1="nan" x2="nan" y2="nan" gradientUnits="userSpaceOnUse">
<stop stop-color="white" stop-opacity="0"/>
<stop offset="0.5" stop-color="white"/>
<stop offset="1" stop-color="white" stop-opacity="0"/>
</linearGradient>
<linearGradient id="paint5_linear_102_258" x1="10422.5" y1="38070.4" x2="15363.5" y2="36772" gradientUnits="userSpaceOnUse">
<stop stop-color="#F213A4"/>
<stop offset="0.15" stop-color="#E011A7"/>
<stop offset="0.46" stop-color="#B20DAF"/>
<stop offset="0.88" stop-color="#6806BB"/>
<stop offset="1" stop-color="#5204BF"/>
</linearGradient>
<linearGradient id="paint6_linear_102_258" x1="468.901" y1="344.424" x2="480.185" y2="374.977" gradientUnits="userSpaceOnUse">
<stop stop-color="#F213A4"/>
<stop offset="1" stop-color="#5204BF"/>
</linearGradient>
<linearGradient id="paint7_linear_102_258" x1="454.966" y1="133.002" x2="493.498" y2="89.527" gradientUnits="userSpaceOnUse">
<stop offset="0.08" stop-color="#9945FF"/>
<stop offset="0.3" stop-color="#8752F3"/>
<stop offset="0.5" stop-color="#5497D5"/>
<stop offset="0.6" stop-color="#43B4CA"/>
<stop offset="0.72" stop-color="#28E0B9"/>
<stop offset="0.97" stop-color="#19FB9B"/>
</linearGradient>
<clipPath id="clip0_102_258">
<rect width="945" height="711" fill="white"/>
</clipPath>
</defs>
</svg>
