<svg xmlns="http://www.w3.org/2000/svg" width="387" height="696" fill="none" viewBox="0 0 387 696"><path fill="#000" fill-opacity=".2" d="M347.531 356.294L270.208 489.265L192.884 622.235L115.561 489.265L38.2373 356.294L115.561 223.323L192.884 90.3528L270.208 223.323L347.531 356.294Z"/><path stroke="url(#paint0_linear_120_311)" stroke-opacity=".1" stroke-width="2" d="M192.884 357.264L270.207 490.235M192.884 357.264L270.207 224.294M192.884 357.264H38.2368M192.884 357.264L115.884 490.235M192.884 357.264V623.205M192.884 357.264V89.7053M192.884 357.264H348.178M192.884 357.264L115.884 224.294"/><path fill="#fff" fill-opacity=".7" d="M318.938 414.07V412.57C318.938 412.096 318.896 411.641 318.812 411.203C318.729 410.76 318.604 410.346 318.438 409.961C318.286 409.602 318.099 409.271 317.875 408.969C317.651 408.667 317.388 408.404 317.086 408.18C316.784 407.956 316.443 407.781 316.062 407.656C315.682 407.531 315.266 407.469 314.812 407.469C314.365 407.469 313.953 407.531 313.578 407.656C313.208 407.776 312.878 407.948 312.586 408.172C312.284 408.401 312.021 408.672 311.797 408.984C311.578 409.292 311.393 409.63 311.242 410C311.086 410.385 310.969 410.794 310.891 411.227C310.812 411.659 310.773 412.107 310.773 412.57V414.07C310.773 414.513 310.81 414.945 310.883 415.367C310.956 415.784 311.065 416.177 311.211 416.547C311.362 416.932 311.549 417.286 311.773 417.609C312.003 417.932 312.268 418.208 312.57 418.438C312.867 418.661 313.203 418.839 313.578 418.969C313.958 419.094 314.375 419.156 314.828 419.156C315.266 419.156 315.667 419.096 316.031 418.977C316.401 418.857 316.737 418.693 317.039 418.484C317.352 418.255 317.628 417.982 317.867 417.664C318.107 417.341 318.307 416.99 318.469 416.609C318.62 416.229 318.734 415.826 318.812 415.398C318.896 414.971 318.938 414.529 318.938 414.07ZM317.047 412.555V414.07C317.042 414.352 317.023 414.63 316.992 414.906C316.966 415.177 316.922 415.438 316.859 415.688C316.786 415.974 316.688 416.237 316.562 416.477C316.443 416.711 316.292 416.914 316.109 417.086C315.953 417.237 315.766 417.357 315.547 417.445C315.333 417.534 315.094 417.578 314.828 417.578C314.552 417.578 314.307 417.534 314.094 417.445C313.885 417.352 313.701 417.227 313.539 417.07C313.372 416.904 313.229 416.701 313.109 416.461C312.995 416.216 312.904 415.953 312.836 415.672C312.773 415.422 312.729 415.161 312.703 414.891C312.677 414.62 312.664 414.346 312.664 414.07V412.555C312.664 412.273 312.677 411.995 312.703 411.719C312.734 411.438 312.781 411.172 312.844 410.922C312.911 410.63 313.008 410.367 313.133 410.133C313.258 409.893 313.411 409.688 313.594 409.516C313.745 409.375 313.922 409.266 314.125 409.188C314.328 409.104 314.557 409.062 314.812 409.062C315.078 409.062 315.315 409.104 315.523 409.188C315.732 409.271 315.917 409.385 316.078 409.531C316.26 409.698 316.414 409.901 316.539 410.141C316.669 410.375 316.773 410.635 316.852 410.922C316.919 411.172 316.966 411.435 316.992 411.711C317.023 411.987 317.042 412.268 317.047 412.555ZM320.898 422.25H322.766V418.234C322.865 418.344 322.971 418.445 323.086 418.539C323.201 418.633 323.32 418.716 323.445 418.789C323.659 418.909 323.891 419 324.141 419.062C324.396 419.125 324.674 419.156 324.977 419.156C325.508 419.156 325.979 419.047 326.391 418.828C326.802 418.609 327.148 418.307 327.43 417.922C327.711 417.542 327.922 417.089 328.062 416.562C328.208 416.036 328.281 415.469 328.281 414.859V414.695C328.281 414.06 328.208 413.479 328.062 412.953C327.917 412.422 327.706 411.966 327.43 411.586C327.148 411.206 326.799 410.911 326.383 410.703C325.971 410.495 325.495 410.391 324.953 410.391C324.677 410.391 324.417 410.422 324.172 410.484C323.927 410.542 323.703 410.625 323.5 410.734C323.344 410.818 323.198 410.917 323.062 411.031C322.927 411.146 322.802 411.273 322.688 411.414L322.617 410.547H320.898V422.25ZM326.414 414.695V414.859C326.414 415.234 326.378 415.591 326.305 415.93C326.232 416.263 326.115 416.56 325.953 416.82C325.797 417.076 325.594 417.279 325.344 417.43C325.099 417.576 324.802 417.648 324.453 417.648C324.24 417.648 324.044 417.625 323.867 417.578C323.69 417.526 323.531 417.458 323.391 417.375C323.255 417.286 323.135 417.182 323.031 417.062C322.927 416.943 322.839 416.81 322.766 416.664V412.906C322.849 412.75 322.945 412.609 323.055 412.484C323.169 412.359 323.302 412.255 323.453 412.172C323.583 412.094 323.732 412.034 323.898 411.992C324.065 411.951 324.245 411.93 324.438 411.93C324.786 411.93 325.086 412.003 325.336 412.148C325.586 412.294 325.792 412.492 325.953 412.742C326.109 412.992 326.224 413.286 326.297 413.625C326.375 413.958 326.414 414.315 326.414 414.695ZM334.242 408.484H332.367V410.547H330.32V411.945H332.367V416.102C332.367 416.643 332.438 417.107 332.578 417.492C332.724 417.878 332.924 418.193 333.18 418.438C333.435 418.688 333.74 418.872 334.094 418.992C334.453 419.107 334.846 419.164 335.273 419.164C335.508 419.164 335.742 419.151 335.977 419.125C336.216 419.104 336.445 419.073 336.664 419.031C336.883 418.99 337.086 418.94 337.273 418.883C337.466 418.82 337.63 418.747 337.766 418.664L337.562 417.375C337.469 417.396 337.352 417.422 337.211 417.453C337.076 417.479 336.93 417.503 336.773 417.523C336.612 417.549 336.445 417.57 336.273 417.586C336.102 417.602 335.935 417.609 335.773 417.609C335.549 417.609 335.344 417.583 335.156 417.531C334.969 417.479 334.807 417.391 334.672 417.266C334.536 417.146 334.43 416.982 334.352 416.773C334.279 416.56 334.242 416.297 334.242 415.984V411.945H337.422V410.547H334.242V408.484ZM340.531 410.547V412.102H343.133V417.453H340.531V419H347.5V417.453H345.016V410.547H340.531ZM342.961 408.359C342.961 408.557 343.008 408.732 343.102 408.883C343.201 409.029 343.344 409.13 343.531 409.188C343.714 409.245 343.88 409.258 344.031 409.227C344.182 409.195 344.312 409.13 344.422 409.031C344.641 408.974 344.807 408.862 344.922 408.695C345.036 408.523 345.076 408.323 345.039 408.094C345.013 407.87 344.911 407.688 344.734 407.547C344.562 407.401 344.336 407.328 344.055 407.328C343.888 407.328 343.737 407.354 343.602 407.406C343.471 407.453 343.359 407.521 343.266 407.609C343.167 407.703 343.091 407.815 343.039 407.945C342.987 408.07 342.961 408.208 342.961 408.359ZM350.773 410.547H349.148V419H350.867V412.508C350.898 412.43 350.932 412.359 350.969 412.297C351.01 412.234 351.057 412.18 351.109 412.133C351.177 412.065 351.258 412.016 351.352 411.984C351.451 411.948 351.562 411.93 351.688 411.93C351.802 411.93 351.904 411.945 351.992 411.977C352.086 412.008 352.167 412.057 352.234 412.125C352.302 412.193 352.352 412.286 352.383 412.406C352.419 412.521 352.438 412.661 352.438 412.828V419H354.125V412.727C354.125 412.674 354.125 412.635 354.125 412.609C354.125 412.578 354.125 412.552 354.125 412.531C354.146 412.443 354.177 412.365 354.219 412.297C354.26 412.224 354.312 412.161 354.375 412.109C354.443 412.052 354.521 412.008 354.609 411.977C354.698 411.945 354.802 411.93 354.922 411.93C355.036 411.93 355.141 411.945 355.234 411.977C355.333 412.008 355.417 412.057 355.484 412.125C355.552 412.198 355.604 412.294 355.641 412.414C355.677 412.529 355.695 412.669 355.695 412.836V419H357.414V412.852C357.414 412.409 357.367 412.031 357.273 411.719C357.185 411.401 357.057 411.143 356.891 410.945C356.724 410.758 356.526 410.62 356.297 410.531C356.073 410.438 355.826 410.391 355.555 410.391C355.346 410.391 355.154 410.417 354.977 410.469C354.805 410.521 354.648 410.594 354.508 410.688C354.398 410.76 354.297 410.849 354.203 410.953C354.109 411.057 354.026 411.169 353.953 411.289C353.901 411.159 353.839 411.044 353.766 410.945C353.693 410.841 353.609 410.753 353.516 410.68C353.396 410.581 353.253 410.508 353.086 410.461C352.919 410.414 352.732 410.391 352.523 410.391C352.122 410.391 351.779 410.487 351.492 410.68C351.211 410.872 350.99 411.138 350.828 411.477L350.773 410.547ZM359.75 410.547V412.102H362.352V417.453H359.75V419H366.719V417.453H364.234V410.547H359.75ZM362.18 408.359C362.18 408.557 362.227 408.732 362.32 408.883C362.419 409.029 362.562 409.13 362.75 409.188C362.932 409.245 363.099 409.258 363.25 409.227C363.401 409.195 363.531 409.13 363.641 409.031C363.859 408.974 364.026 408.862 364.141 408.695C364.255 408.523 364.294 408.323 364.258 408.094C364.232 407.87 364.13 407.688 363.953 407.547C363.781 407.401 363.555 407.328 363.273 407.328C363.107 407.328 362.956 407.354 362.82 407.406C362.69 407.453 362.578 407.521 362.484 407.609C362.385 407.703 362.31 407.815 362.258 407.945C362.206 408.07 362.18 408.208 362.18 408.359ZM374.453 416.711C374.453 416.846 374.422 416.971 374.359 417.086C374.302 417.195 374.214 417.297 374.094 417.391C373.948 417.505 373.753 417.596 373.508 417.664C373.268 417.732 372.987 417.766 372.664 417.766C372.424 417.766 372.188 417.742 371.953 417.695C371.719 417.643 371.51 417.56 371.328 417.445C371.141 417.336 370.984 417.193 370.859 417.016C370.74 416.833 370.672 416.612 370.656 416.352H368.844C368.844 416.701 368.927 417.044 369.094 417.383C369.26 417.721 369.505 418.021 369.828 418.281C370.146 418.547 370.539 418.76 371.008 418.922C371.482 419.083 372.023 419.164 372.633 419.164C373.18 419.164 373.677 419.102 374.125 418.977C374.573 418.852 374.958 418.677 375.281 418.453C375.599 418.229 375.844 417.961 376.016 417.648C376.193 417.336 376.281 416.992 376.281 416.617C376.281 416.232 376.198 415.898 376.031 415.617C375.865 415.336 375.63 415.091 375.328 414.883C375.026 414.685 374.661 414.518 374.234 414.383C373.807 414.247 373.336 414.133 372.82 414.039C372.451 413.977 372.143 413.906 371.898 413.828C371.659 413.75 371.471 413.664 371.336 413.57C371.19 413.482 371.089 413.38 371.031 413.266C370.974 413.146 370.945 413.013 370.945 412.867C370.945 412.727 370.979 412.594 371.047 412.469C371.115 412.339 371.216 412.227 371.352 412.133C371.487 412.029 371.659 411.948 371.867 411.891C372.081 411.828 372.328 411.797 372.609 411.797C372.917 411.797 373.185 411.839 373.414 411.922C373.643 412 373.831 412.107 373.977 412.242C374.102 412.357 374.195 412.487 374.258 412.633C374.326 412.773 374.359 412.922 374.359 413.078H376.227C376.227 412.698 376.143 412.344 375.977 412.016C375.81 411.688 375.573 411.404 375.266 411.164C374.953 410.924 374.573 410.737 374.125 410.602C373.677 410.461 373.172 410.391 372.609 410.391C372.083 410.391 371.604 410.458 371.172 410.594C370.745 410.729 370.38 410.914 370.078 411.148C369.771 411.383 369.534 411.656 369.367 411.969C369.206 412.276 369.125 412.602 369.125 412.945C369.125 413.305 369.206 413.62 369.367 413.891C369.529 414.161 369.753 414.396 370.039 414.594C370.331 414.802 370.677 414.979 371.078 415.125C371.484 415.271 371.932 415.393 372.422 415.492C372.812 415.565 373.138 415.643 373.398 415.727C373.659 415.81 373.87 415.898 374.031 415.992C374.182 416.096 374.289 416.206 374.352 416.32C374.419 416.435 374.453 416.565 374.453 416.711ZM379.602 410.547H377.977V419H379.695V412.508C379.727 412.43 379.76 412.359 379.797 412.297C379.839 412.234 379.885 412.18 379.938 412.133C380.005 412.065 380.086 412.016 380.18 411.984C380.279 411.948 380.391 411.93 380.516 411.93C380.63 411.93 380.732 411.945 380.82 411.977C380.914 412.008 380.995 412.057 381.062 412.125C381.13 412.193 381.18 412.286 381.211 412.406C381.247 412.521 381.266 412.661 381.266 412.828V419H382.953V412.727C382.953 412.674 382.953 412.635 382.953 412.609C382.953 412.578 382.953 412.552 382.953 412.531C382.974 412.443 383.005 412.365 383.047 412.297C383.089 412.224 383.141 412.161 383.203 412.109C383.271 412.052 383.349 412.008 383.438 411.977C383.526 411.945 383.63 411.93 383.75 411.93C383.865 411.93 383.969 411.945 384.062 411.977C384.161 412.008 384.245 412.057 384.312 412.125C384.38 412.198 384.432 412.294 384.469 412.414C384.505 412.529 384.523 412.669 384.523 412.836V419H386.242V412.852C386.242 412.409 386.195 412.031 386.102 411.719C386.013 411.401 385.885 411.143 385.719 410.945C385.552 410.758 385.354 410.62 385.125 410.531C384.901 410.438 384.654 410.391 384.383 410.391C384.174 410.391 383.982 410.417 383.805 410.469C383.633 410.521 383.477 410.594 383.336 410.688C383.227 410.76 383.125 410.849 383.031 410.953C382.938 411.057 382.854 411.169 382.781 411.289C382.729 411.159 382.667 411.044 382.594 410.945C382.521 410.841 382.438 410.753 382.344 410.68C382.224 410.581 382.081 410.508 381.914 410.461C381.747 410.414 381.56 410.391 381.352 410.391C380.951 410.391 380.607 410.487 380.32 410.68C380.039 410.872 379.818 411.138 379.656 411.477L379.602 410.547Z"/><path fill="#fff" fill-opacity=".6" d="M28.2891 414.156V412.609H23.4766V409.18H28.9766V407.625H21.5859V419H23.4766V414.156H28.2891ZM31.4609 407V408.555H34.1328V417.453H31.4609V419H38.5781V417.453H36.0156V407H31.4609ZM40.3672 414.695V414.859C40.3672 415.479 40.4557 416.049 40.6328 416.57C40.8099 417.091 41.0677 417.544 41.4062 417.93C41.7396 418.315 42.151 418.617 42.6406 418.836C43.1302 419.055 43.6849 419.164 44.3047 419.164C44.9193 419.164 45.4688 419.055 45.9531 418.836C46.4427 418.617 46.8542 418.315 47.1875 417.93C47.5208 417.544 47.776 417.091 47.9531 416.57C48.1302 416.049 48.2188 415.479 48.2188 414.859V414.695C48.2188 414.081 48.1302 413.513 47.9531 412.992C47.776 412.466 47.5208 412.01 47.1875 411.625C46.849 411.24 46.4349 410.938 45.9453 410.719C45.4609 410.5 44.9089 410.391 44.2891 410.391C43.6693 410.391 43.1172 410.5 42.6328 410.719C42.1484 410.938 41.7396 411.24 41.4062 411.625C41.0677 412.01 40.8099 412.466 40.6328 412.992C40.4557 413.513 40.3672 414.081 40.3672 414.695ZM42.2344 414.859V414.695C42.2344 414.326 42.2734 413.971 42.3516 413.633C42.4349 413.294 42.5625 412.997 42.7344 412.742C42.901 412.487 43.112 412.284 43.3672 412.133C43.6276 411.982 43.9349 411.906 44.2891 411.906C44.6484 411.906 44.9557 411.982 45.2109 412.133C45.4714 412.284 45.6875 412.487 45.8594 412.742C46.0208 412.997 46.1432 413.294 46.2266 413.633C46.3099 413.971 46.3516 414.326 46.3516 414.695V414.859C46.3516 415.24 46.3099 415.599 46.2266 415.938C46.1484 416.276 46.026 416.573 45.8594 416.828C45.6927 417.083 45.4792 417.286 45.2188 417.438C44.9583 417.583 44.6536 417.656 44.3047 417.656C43.9453 417.656 43.6354 417.583 43.375 417.438C43.1146 417.286 42.901 417.083 42.7344 416.828C42.5625 416.573 42.4349 416.276 42.3516 415.938C42.2734 415.599 42.2344 415.24 42.2344 414.859ZM51.0234 419H52.6094L53.6797 414.203L53.8672 413.156L54.0625 414.203L55.1562 419H56.7422L58.375 410.547H56.6797L55.9219 415.703L55.7734 416.734L55.5938 415.711L54.4922 410.547H53.2656L52.1641 415.727L51.9922 416.703L51.8594 415.727L51.0781 410.547H49.3906L51.0234 419Z"/><path fill="#fff" fill-opacity=".4" d="M11.9219 431.861H11.0186C10.9893 432.076 10.9388 432.276 10.8672 432.462C10.7956 432.644 10.6995 432.802 10.5791 432.936C10.4587 433.072 10.3105 433.178 10.1348 433.253C9.96224 433.328 9.75716 433.365 9.51953 433.365C9.30143 433.365 9.111 433.331 8.94824 433.263C8.78548 433.191 8.64388 433.093 8.52344 432.97C8.40299 432.849 8.30371 432.709 8.22559 432.55C8.14746 432.39 8.08398 432.219 8.03516 432.037C7.98633 431.858 7.95052 431.676 7.92773 431.49C7.9082 431.301 7.89844 431.119 7.89844 430.943V429.942C7.89844 429.767 7.9082 429.586 7.92773 429.4C7.95052 429.212 7.98633 429.028 8.03516 428.849C8.08398 428.67 8.14746 428.5 8.22559 428.341C8.30697 428.181 8.40788 428.041 8.52832 427.921C8.64551 427.8 8.78548 427.706 8.94824 427.638C9.11426 427.566 9.30469 427.53 9.51953 427.53C9.75716 427.53 9.96224 427.571 10.1348 427.652C10.3105 427.73 10.4587 427.84 10.5791 427.979C10.6995 428.119 10.7956 428.282 10.8672 428.468C10.9388 428.653 10.9893 428.854 11.0186 429.068H11.9219C11.8828 428.73 11.8014 428.421 11.6777 428.141C11.5573 427.861 11.3962 427.62 11.1943 427.418C10.9925 427.219 10.7516 427.066 10.4717 426.959C10.1917 426.848 9.87435 426.793 9.51953 426.793C9.22331 426.793 8.95638 426.835 8.71875 426.92C8.48112 427.001 8.26953 427.115 8.08398 427.262C7.89518 427.408 7.73242 427.582 7.5957 427.784C7.46224 427.983 7.35156 428.199 7.26367 428.434C7.17253 428.668 7.10417 428.914 7.05859 429.171C7.01628 429.428 6.99349 429.688 6.99023 429.952V430.943C6.99349 431.207 7.01628 431.467 7.05859 431.725C7.10417 431.982 7.17253 432.228 7.26367 432.462C7.35156 432.696 7.46224 432.913 7.5957 433.111C7.73242 433.31 7.89518 433.482 8.08398 433.629C8.26953 433.775 8.48112 433.891 8.71875 433.976C8.95964 434.057 9.22656 434.098 9.51953 434.098C9.86133 434.098 10.1706 434.044 10.4473 433.937C10.7272 433.826 10.9697 433.671 11.1748 433.473C11.3766 433.277 11.541 433.043 11.668 432.77C11.7949 432.493 11.8796 432.19 11.9219 431.861ZM17.9473 430.855V430.045C17.944 429.791 17.9212 429.534 17.8789 429.273C17.8398 429.013 17.778 428.762 17.6934 428.521C17.6055 428.281 17.4948 428.056 17.3613 427.848C17.2311 427.636 17.0749 427.452 16.8926 427.296C16.7103 427.14 16.5003 427.018 16.2627 426.93C16.0251 426.839 15.7598 426.793 15.4668 426.793C15.1738 426.793 14.9085 426.839 14.6709 426.93C14.4365 427.018 14.2282 427.14 14.0459 427.296C13.8636 427.455 13.7057 427.641 13.5723 427.853C13.4421 428.061 13.3346 428.285 13.25 428.526C13.1621 428.767 13.097 429.018 13.0547 429.278C13.0156 429.535 12.9945 429.791 12.9912 430.045V430.855C12.9945 431.109 13.0173 431.365 13.0596 431.622C13.1019 431.879 13.167 432.128 13.2549 432.369C13.3395 432.61 13.4486 432.836 13.582 433.048C13.7155 433.256 13.8734 433.438 14.0557 433.595C14.238 433.751 14.4463 433.875 14.6807 433.966C14.9183 434.054 15.1836 434.098 15.4766 434.098C15.7695 434.098 16.0332 434.054 16.2676 433.966C16.5052 433.875 16.7152 433.751 16.8975 433.595C17.0798 433.438 17.236 433.256 17.3662 433.048C17.4997 432.84 17.6087 432.615 17.6934 432.374C17.778 432.133 17.8398 431.884 17.8789 431.627C17.9212 431.367 17.944 431.109 17.9473 430.855ZM17.0537 430.035V430.855C17.0505 431.025 17.0391 431.202 17.0195 431.388C17.0033 431.573 16.9723 431.756 16.9268 431.935C16.8779 432.117 16.8145 432.291 16.7363 432.457C16.6615 432.62 16.5671 432.763 16.4531 432.887C16.3359 433.014 16.196 433.115 16.0332 433.189C15.8737 433.264 15.6882 433.302 15.4766 433.302C15.265 433.302 15.0794 433.264 14.9199 433.189C14.7604 433.115 14.6221 433.014 14.5049 432.887C14.3877 432.763 14.29 432.618 14.2119 432.452C14.1338 432.286 14.0703 432.112 14.0215 431.93C13.9727 431.751 13.9368 431.568 13.9141 431.383C13.8945 431.197 13.8831 431.021 13.8799 430.855V430.035C13.8831 429.869 13.8945 429.695 13.9141 429.513C13.9368 429.327 13.9727 429.143 14.0215 428.961C14.0671 428.782 14.1289 428.611 14.207 428.448C14.2852 428.282 14.3828 428.136 14.5 428.009C14.6172 427.885 14.7555 427.786 14.915 427.711C15.0745 427.636 15.2585 427.599 15.4668 427.599C15.6784 427.599 15.8639 427.636 16.0234 427.711C16.1829 427.783 16.3213 427.88 16.4385 428.004C16.5557 428.131 16.6533 428.277 16.7314 428.443C16.8096 428.606 16.873 428.777 16.9219 428.956C16.9674 429.138 17 429.322 17.0195 429.508C17.0391 429.69 17.0505 429.866 17.0537 430.035ZM20.3203 426.891H19.2021V434H20.0811V431.163L20.0078 428.297L21.2139 432.022H21.7314L23.0449 428.194L22.9717 431.163V434H23.8506V426.891H22.7275L21.4775 430.445L20.3203 426.891ZM25.335 426.891V427.677H27V433.219H25.335V434H29.6318V433.219H27.9277V427.677H29.6318V426.891H25.335ZM35.7939 434V426.891H34.8809L34.8662 432.193L32.1074 426.891H31.1895V434H32.1025L32.1172 428.688L34.876 434H35.7939ZM41.9463 433.067L41.9316 430.46H39.627V431.222H41.0723L41.0625 432.818C40.9876 432.926 40.8949 433.014 40.7842 433.082C40.6735 433.147 40.5547 433.199 40.4277 433.238C40.3008 433.277 40.1689 433.303 40.0322 433.316C39.8988 433.329 39.7702 433.334 39.6465 433.331C39.4316 433.328 39.2396 433.29 39.0703 433.219C38.901 433.144 38.7529 433.045 38.626 432.921C38.4958 432.797 38.3851 432.654 38.2939 432.491C38.2028 432.328 38.1279 432.156 38.0693 431.974C38.0107 431.791 37.9668 431.606 37.9375 431.417C37.9115 431.225 37.8968 431.039 37.8936 430.86V430.025C37.8936 429.85 37.9049 429.667 37.9277 429.479C37.9505 429.29 37.988 429.104 38.04 428.922C38.0921 428.74 38.1589 428.567 38.2402 428.404C38.3216 428.238 38.4242 428.093 38.5479 427.97C38.6715 427.846 38.8164 427.748 38.9824 427.677C39.1484 427.602 39.3389 427.564 39.5537 427.564C39.7783 427.564 39.9753 427.6 40.1445 427.672C40.3138 427.74 40.4603 427.836 40.584 427.96C40.7044 428.084 40.8021 428.233 40.877 428.409C40.9518 428.582 41.0072 428.771 41.043 428.976H41.9365C41.9072 428.644 41.8291 428.344 41.7021 428.077C41.5752 427.807 41.4076 427.576 41.1992 427.384C40.9909 427.195 40.7467 427.05 40.4668 426.949C40.1868 426.845 39.8809 426.793 39.5488 426.793C39.2493 426.793 38.9792 426.837 38.7383 426.925C38.4974 427.013 38.2826 427.132 38.0938 427.281C37.9017 427.434 37.7373 427.615 37.6006 427.823C37.4639 428.028 37.3499 428.251 37.2588 428.492C37.1676 428.733 37.0993 428.985 37.0537 429.249C37.0114 429.509 36.9886 429.771 36.9854 430.035V430.86C36.9886 431.127 37.0146 431.393 37.0635 431.656C37.1156 431.917 37.1921 432.166 37.293 432.403C37.3906 432.644 37.5127 432.867 37.6592 433.072C37.8057 433.277 37.9766 433.455 38.1719 433.604C38.3672 433.757 38.5869 433.878 38.8311 433.966C39.0785 434.05 39.3486 434.094 39.6416 434.098C39.9313 434.101 40.208 434.068 40.4717 434C40.7354 433.935 40.9811 433.834 41.209 433.697C41.3424 433.619 41.471 433.528 41.5947 433.424C41.7184 433.316 41.8356 433.198 41.9463 433.067ZM53.0791 432.203C53.0791 432.398 53.0368 432.568 52.9521 432.711C52.8675 432.851 52.7585 432.966 52.625 433.058C52.4915 433.152 52.3385 433.222 52.166 433.268C51.9967 433.31 51.8242 433.331 51.6484 433.331C51.4271 433.331 51.222 433.302 51.0332 433.243C50.8477 433.181 50.6833 433.09 50.54 432.97C50.3968 432.853 50.2796 432.709 50.1885 432.54C50.0973 432.368 50.0371 432.171 50.0078 431.949H49.085C49.0947 432.255 49.1615 432.534 49.2852 432.784C49.4121 433.032 49.583 433.248 49.7979 433.434C50.0387 433.648 50.3219 433.813 50.6475 433.927C50.9762 434.041 51.3099 434.098 51.6484 434.098C51.9316 434.098 52.2148 434.059 52.498 433.98C52.7812 433.899 53.0352 433.779 53.2598 433.619C53.4844 433.463 53.6667 433.266 53.8066 433.028C53.9499 432.791 54.0215 432.512 54.0215 432.193C54.0215 431.878 53.9548 431.599 53.8213 431.358C53.6911 431.118 53.5186 430.914 53.3037 430.748C53.0856 430.569 52.8447 430.423 52.5811 430.309C52.3174 430.191 52.0537 430.092 51.79 430.011C51.6305 429.962 51.4596 429.905 51.2773 429.84C51.0983 429.775 50.9323 429.693 50.7793 429.596C50.623 429.498 50.4945 429.379 50.3936 429.239C50.2926 429.096 50.2406 428.922 50.2373 428.717C50.2373 428.528 50.2747 428.362 50.3496 428.219C50.4277 428.076 50.5319 427.955 50.6621 427.857C50.7891 427.76 50.9339 427.687 51.0967 427.638C51.2627 427.589 51.432 427.564 51.6045 427.564C51.8193 427.564 52.0114 427.599 52.1807 427.667C52.3532 427.732 52.5013 427.825 52.625 427.945C52.7487 428.066 52.848 428.211 52.9229 428.38C52.9977 428.546 53.0482 428.731 53.0742 428.937H54.002C53.9954 428.611 53.9255 428.316 53.792 428.053C53.6585 427.789 53.4811 427.564 53.2598 427.379C53.0384 427.193 52.7845 427.05 52.498 426.949C52.2116 426.845 51.9137 426.793 51.6045 426.793C51.3245 426.793 51.0462 426.837 50.7695 426.925C50.4928 427.009 50.2454 427.135 50.0273 427.301C49.8092 427.467 49.6318 427.67 49.4951 427.911C49.3617 428.152 49.2949 428.425 49.2949 428.731C49.2949 429.037 49.3617 429.304 49.4951 429.532C49.6318 429.757 49.8076 429.952 50.0225 430.118C50.234 430.281 50.4684 430.421 50.7256 430.538C50.986 430.652 51.2415 430.75 51.4922 430.831C51.6647 430.886 51.8438 430.948 52.0293 431.017C52.2181 431.085 52.3906 431.17 52.5469 431.271C52.7031 431.375 52.8301 431.502 52.9277 431.651C53.0286 431.801 53.0791 431.985 53.0791 432.203ZM59.9883 430.855V430.045C59.985 429.791 59.9622 429.534 59.9199 429.273C59.8809 429.013 59.819 428.762 59.7344 428.521C59.6465 428.281 59.5358 428.056 59.4023 427.848C59.2721 427.636 59.1159 427.452 58.9336 427.296C58.7513 427.14 58.5413 427.018 58.3037 426.93C58.0661 426.839 57.8008 426.793 57.5078 426.793C57.2148 426.793 56.9495 426.839 56.7119 426.93C56.4775 427.018 56.2692 427.14 56.0869 427.296C55.9046 427.455 55.7467 427.641 55.6133 427.853C55.4831 428.061 55.3757 428.285 55.291 428.526C55.2031 428.767 55.138 429.018 55.0957 429.278C55.0566 429.535 55.0355 429.791 55.0322 430.045V430.855C55.0355 431.109 55.0583 431.365 55.1006 431.622C55.1429 431.879 55.208 432.128 55.2959 432.369C55.3805 432.61 55.4896 432.836 55.623 433.048C55.7565 433.256 55.9144 433.438 56.0967 433.595C56.279 433.751 56.4873 433.875 56.7217 433.966C56.9593 434.054 57.2246 434.098 57.5176 434.098C57.8105 434.098 58.0742 434.054 58.3086 433.966C58.5462 433.875 58.7562 433.751 58.9385 433.595C59.1208 433.438 59.277 433.256 59.4072 433.048C59.5407 432.84 59.6497 432.615 59.7344 432.374C59.819 432.133 59.8809 431.884 59.9199 431.627C59.9622 431.367 59.985 431.109 59.9883 430.855ZM59.0947 430.035V430.855C59.0915 431.025 59.0801 431.202 59.0605 431.388C59.0443 431.573 59.0133 431.756 58.9678 431.935C58.9189 432.117 58.8555 432.291 58.7773 432.457C58.7025 432.62 58.6081 432.763 58.4941 432.887C58.377 433.014 58.237 433.115 58.0742 433.189C57.9147 433.264 57.7292 433.302 57.5176 433.302C57.306 433.302 57.1204 433.264 56.9609 433.189C56.8014 433.115 56.6631 433.014 56.5459 432.887C56.4287 432.763 56.3311 432.618 56.2529 432.452C56.1748 432.286 56.1113 432.112 56.0625 431.93C56.0137 431.751 55.9779 431.568 55.9551 431.383C55.9355 431.197 55.9242 431.021 55.9209 430.855V430.035C55.9242 429.869 55.9355 429.695 55.9551 429.513C55.9779 429.327 56.0137 429.143 56.0625 428.961C56.1081 428.782 56.1699 428.611 56.248 428.448C56.3262 428.282 56.4238 428.136 56.541 428.009C56.6582 427.885 56.7965 427.786 56.9561 427.711C57.1156 427.636 57.2995 427.599 57.5078 427.599C57.7194 427.599 57.9049 427.636 58.0645 427.711C58.224 427.783 58.3623 427.88 58.4795 428.004C58.5967 428.131 58.6943 428.277 58.7725 428.443C58.8506 428.606 58.9141 428.777 58.9629 428.956C59.0085 429.138 59.041 429.322 59.0605 429.508C59.0801 429.69 59.0915 429.866 59.0947 430.035ZM65.9941 430.855V430.045C65.9909 429.791 65.9681 429.534 65.9258 429.273C65.8867 429.013 65.8249 428.762 65.7402 428.521C65.6523 428.281 65.5417 428.056 65.4082 427.848C65.278 427.636 65.1217 427.452 64.9395 427.296C64.7572 427.14 64.5472 427.018 64.3096 426.93C64.0719 426.839 63.8066 426.793 63.5137 426.793C63.2207 426.793 62.9554 426.839 62.7178 426.93C62.4834 427.018 62.2751 427.14 62.0928 427.296C61.9105 427.455 61.7526 427.641 61.6191 427.853C61.4889 428.061 61.3815 428.285 61.2969 428.526C61.209 428.767 61.1439 429.018 61.1016 429.278C61.0625 429.535 61.0413 429.791 61.0381 430.045V430.855C61.0413 431.109 61.0641 431.365 61.1064 431.622C61.1488 431.879 61.2139 432.128 61.3018 432.369C61.3864 432.61 61.4954 432.836 61.6289 433.048C61.7624 433.256 61.9202 433.438 62.1025 433.595C62.2848 433.751 62.4932 433.875 62.7275 433.966C62.9652 434.054 63.2305 434.098 63.5234 434.098C63.8164 434.098 64.0801 434.054 64.3145 433.966C64.5521 433.875 64.762 433.751 64.9443 433.595C65.1266 433.438 65.2829 433.256 65.4131 433.048C65.5465 432.84 65.6556 432.615 65.7402 432.374C65.8249 432.133 65.8867 431.884 65.9258 431.627C65.9681 431.367 65.9909 431.109 65.9941 430.855ZM65.1006 430.035V430.855C65.0973 431.025 65.0859 431.202 65.0664 431.388C65.0501 431.573 65.0192 431.756 64.9736 431.935C64.9248 432.117 64.8613 432.291 64.7832 432.457C64.7083 432.62 64.6139 432.763 64.5 432.887C64.3828 433.014 64.2428 433.115 64.0801 433.189C63.9206 433.264 63.735 433.302 63.5234 433.302C63.3118 433.302 63.1263 433.264 62.9668 433.189C62.8073 433.115 62.6689 433.014 62.5518 432.887C62.4346 432.763 62.3369 432.618 62.2588 432.452C62.1807 432.286 62.1172 432.112 62.0684 431.93C62.0195 431.751 61.9837 431.568 61.9609 431.383C61.9414 431.197 61.93 431.021 61.9268 430.855V430.035C61.93 429.869 61.9414 429.695 61.9609 429.513C61.9837 429.327 62.0195 429.143 62.0684 428.961C62.1139 428.782 62.1758 428.611 62.2539 428.448C62.332 428.282 62.4297 428.136 62.5469 428.009C62.6641 427.885 62.8024 427.786 62.9619 427.711C63.1214 427.636 63.3053 427.599 63.5137 427.599C63.7253 427.599 63.9108 427.636 64.0703 427.711C64.2298 427.783 64.3682 427.88 64.4854 428.004C64.6025 428.131 64.7002 428.277 64.7783 428.443C64.8564 428.606 64.9199 428.777 64.9688 428.956C65.0143 429.138 65.0469 429.322 65.0664 429.508C65.0859 429.69 65.0973 429.866 65.1006 430.035ZM71.8291 434V426.891H70.916L70.9014 432.193L68.1426 426.891H67.2246V434H68.1377L68.1523 428.688L70.9111 434H71.8291Z"/><path fill="#fff" fill-opacity=".6" d="M168.766 35.0703C168.766 35.3203 168.711 35.5417 168.602 35.7344C168.497 35.9271 168.357 36.0885 168.18 36.2188C167.997 36.3542 167.781 36.4557 167.531 36.5234C167.286 36.5911 167.021 36.625 166.734 36.625C166.396 36.625 166.083 36.5833 165.797 36.5C165.516 36.4167 165.271 36.2891 165.062 36.1172C164.849 35.9505 164.68 35.7396 164.555 35.4844C164.435 35.224 164.362 34.9193 164.336 34.5703H162.461C162.466 35.1172 162.576 35.6016 162.789 36.0234C163.008 36.4453 163.302 36.8125 163.672 37.125C164.073 37.4583 164.544 37.7135 165.086 37.8906C165.628 38.0625 166.177 38.1484 166.734 38.1484C167.26 38.1484 167.76 38.0833 168.234 37.9531C168.708 37.8177 169.125 37.6172 169.484 37.3516C169.839 37.0964 170.12 36.776 170.328 36.3906C170.542 36.0052 170.648 35.5599 170.648 35.0547C170.648 34.5078 170.526 34.026 170.281 33.6094C170.042 33.1875 169.721 32.8255 169.32 32.5234C168.997 32.2839 168.643 32.0807 168.258 31.9141C167.878 31.7422 167.487 31.599 167.086 31.4844C166.768 31.3906 166.464 31.2891 166.172 31.1797C165.885 31.0703 165.63 30.9427 165.406 30.7969C165.188 30.651 165.013 30.4818 164.883 30.2891C164.753 30.0911 164.685 29.862 164.68 29.6016C164.68 29.3568 164.729 29.1354 164.828 28.9375C164.927 28.7396 165.065 28.5703 165.242 28.4297C165.419 28.2943 165.628 28.1901 165.867 28.1172C166.112 28.0391 166.378 28 166.664 28C166.992 28 167.281 28.0495 167.531 28.1484C167.786 28.2422 168.003 28.3724 168.18 28.5391C168.352 28.7109 168.484 28.9167 168.578 29.1562C168.677 29.3906 168.74 29.651 168.766 29.9375H170.625C170.625 29.4219 170.521 28.9531 170.312 28.5312C170.109 28.1042 169.831 27.737 169.477 27.4297C169.122 27.1276 168.706 26.8932 168.227 26.7266C167.753 26.5547 167.24 26.4688 166.688 26.4688C166.167 26.4688 165.669 26.5417 165.195 26.6875C164.727 26.8281 164.315 27.0338 163.961 27.3047C163.607 27.5807 163.326 27.9141 163.117 28.3047C162.909 28.6901 162.805 29.125 162.805 29.6094C162.805 30.0573 162.893 30.4609 163.07 30.8203C163.253 31.1745 163.503 31.4922 163.82 31.7734C164.138 32.0495 164.521 32.2995 164.969 32.5234C165.422 32.7422 165.917 32.9271 166.453 33.0781C166.802 33.1771 167.117 33.2891 167.398 33.4141C167.685 33.5339 167.932 33.6693 168.141 33.8203C168.339 33.9818 168.492 34.1641 168.602 34.3672C168.711 34.5703 168.766 34.8047 168.766 35.0703ZM172.148 33.6953V33.8594C172.148 34.4792 172.237 35.0495 172.414 35.5703C172.591 36.0911 172.849 36.5443 173.188 36.9297C173.521 37.3151 173.932 37.6172 174.422 37.8359C174.911 38.0547 175.466 38.1641 176.086 38.1641C176.701 38.1641 177.25 38.0547 177.734 37.8359C178.224 37.6172 178.635 37.3151 178.969 36.9297C179.302 36.5443 179.557 36.0911 179.734 35.5703C179.911 35.0495 180 34.4792 180 33.8594V33.6953C180 33.0807 179.911 32.513 179.734 31.9922C179.557 31.4661 179.302 31.0104 178.969 30.625C178.63 30.2396 178.216 29.9375 177.727 29.7188C177.242 29.5 176.69 29.3906 176.07 29.3906C175.451 29.3906 174.898 29.5 174.414 29.7188C173.93 29.9375 173.521 30.2396 173.188 30.625C172.849 31.0104 172.591 31.4661 172.414 31.9922C172.237 32.513 172.148 33.0807 172.148 33.6953ZM174.016 33.8594V33.6953C174.016 33.3255 174.055 32.9714 174.133 32.6328C174.216 32.2943 174.344 31.9974 174.516 31.7422C174.682 31.487 174.893 31.2839 175.148 31.1328C175.409 30.9818 175.716 30.9063 176.07 30.9063C176.43 30.9063 176.737 30.9818 176.992 31.1328C177.253 31.2839 177.469 31.487 177.641 31.7422C177.802 31.9974 177.924 32.2943 178.008 32.6328C178.091 32.9714 178.133 33.3255 178.133 33.6953V33.8594C178.133 34.2396 178.091 34.599 178.008 34.9375C177.93 35.276 177.807 35.5729 177.641 35.8281C177.474 36.0833 177.26 36.2865 177 36.4375C176.74 36.5833 176.435 36.6562 176.086 36.6562C175.727 36.6562 175.417 36.5833 175.156 36.4375C174.896 36.2865 174.682 36.0833 174.516 35.8281C174.344 35.5729 174.216 35.276 174.133 34.9375C174.055 34.599 174.016 34.2396 174.016 33.8594ZM182.461 26V27.5547H185.133V36.4531H182.461V38H189.578V36.4531H187.016V26H182.461ZM197.109 38H199.016V37.8672C198.911 37.6484 198.831 37.388 198.773 37.0859C198.721 36.7786 198.695 36.4349 198.695 36.0547V32.2969C198.695 31.8177 198.607 31.3958 198.43 31.0313C198.253 30.6615 198.008 30.3568 197.695 30.1172C197.383 29.8776 197.01 29.6979 196.578 29.5781C196.151 29.4531 195.69 29.3906 195.195 29.3906C194.643 29.3906 194.151 29.4635 193.719 29.6094C193.292 29.75 192.932 29.9427 192.641 30.1875C192.339 30.4271 192.109 30.7031 191.953 31.0156C191.797 31.3281 191.716 31.6536 191.711 31.9922H193.586C193.586 31.8307 193.615 31.6797 193.672 31.5391C193.734 31.3932 193.828 31.2708 193.953 31.1719C194.078 31.0625 194.234 30.9766 194.422 30.9141C194.615 30.8516 194.839 30.8203 195.094 30.8203C195.375 30.8203 195.622 30.8568 195.836 30.9297C196.055 30.9974 196.24 31.0964 196.391 31.2266C196.531 31.3568 196.638 31.5104 196.711 31.6875C196.789 31.8646 196.828 32.0625 196.828 32.2813V32.8516H195.469C194.859 32.8516 194.312 32.9089 193.828 33.0234C193.349 33.138 192.945 33.3047 192.617 33.5234C192.263 33.7578 191.992 34.0547 191.805 34.4141C191.622 34.7682 191.531 35.1771 191.531 35.6406C191.531 36 191.602 36.3359 191.742 36.6484C191.888 36.9557 192.091 37.2188 192.352 37.4375C192.607 37.6615 192.914 37.8385 193.273 37.9688C193.638 38.0938 194.039 38.1563 194.477 38.1563C194.747 38.1563 195 38.1302 195.234 38.0781C195.469 38.026 195.688 37.9531 195.891 37.8594C196.094 37.7708 196.276 37.6667 196.438 37.5469C196.604 37.4219 196.753 37.2917 196.883 37.1563C196.909 37.3177 196.938 37.474 196.969 37.625C197.005 37.7708 197.052 37.8958 197.109 38ZM194.836 36.6563C194.596 36.6563 194.388 36.6276 194.211 36.5703C194.034 36.5078 193.885 36.4245 193.766 36.3203C193.646 36.2161 193.555 36.0911 193.492 35.9453C193.43 35.7943 193.398 35.6328 193.398 35.4609C193.398 35.2526 193.435 35.0651 193.508 34.8984C193.586 34.7318 193.703 34.5885 193.859 34.4688C194.036 34.3281 194.273 34.2214 194.57 34.1484C194.867 34.0703 195.219 34.0313 195.625 34.0313H196.828V35.5938C196.76 35.7292 196.664 35.8594 196.539 35.9844C196.414 36.1094 196.266 36.2214 196.094 36.3203C195.922 36.4193 195.729 36.5 195.516 36.5625C195.307 36.625 195.081 36.6563 194.836 36.6563ZM201.32 38H203.188V31.9688C203.271 31.8281 203.367 31.6979 203.477 31.5781C203.586 31.4583 203.703 31.3568 203.828 31.2734C203.99 31.1641 204.169 31.0807 204.367 31.0234C204.565 30.9609 204.779 30.9297 205.008 30.9297C205.284 30.9297 205.529 30.9609 205.742 31.0234C205.956 31.0807 206.138 31.1797 206.289 31.3203C206.44 31.4609 206.555 31.6484 206.633 31.8828C206.711 32.1172 206.75 32.4089 206.75 32.7578V38H208.617V32.7266C208.617 32.1328 208.547 31.6276 208.406 31.2109C208.266 30.7891 208.068 30.4427 207.812 30.1719C207.557 29.901 207.25 29.7031 206.891 29.5781C206.531 29.4531 206.135 29.3906 205.703 29.3906C205.375 29.3906 205.062 29.4375 204.766 29.5312C204.469 29.625 204.195 29.7578 203.945 29.9297C203.789 30.0391 203.641 30.1641 203.5 30.3047C203.365 30.4401 203.24 30.5885 203.125 30.75L203.008 29.5469H201.32V38ZM216.328 38H218.234V37.8672C218.13 37.6484 218.049 37.388 217.992 37.0859C217.94 36.7786 217.914 36.4349 217.914 36.0547V32.2969C217.914 31.8177 217.826 31.3958 217.648 31.0313C217.471 30.6615 217.227 30.3568 216.914 30.1172C216.602 29.8776 216.229 29.6979 215.797 29.5781C215.37 29.4531 214.909 29.3906 214.414 29.3906C213.862 29.3906 213.37 29.4635 212.938 29.6094C212.51 29.75 212.151 29.9427 211.859 30.1875C211.557 30.4271 211.328 30.7031 211.172 31.0156C211.016 31.3281 210.935 31.6536 210.93 31.9922H212.805C212.805 31.8307 212.833 31.6797 212.891 31.5391C212.953 31.3932 213.047 31.2708 213.172 31.1719C213.297 31.0625 213.453 30.9766 213.641 30.9141C213.833 30.8516 214.057 30.8203 214.312 30.8203C214.594 30.8203 214.841 30.8568 215.055 30.9297C215.273 30.9974 215.458 31.0964 215.609 31.2266C215.75 31.3568 215.857 31.5104 215.93 31.6875C216.008 31.8646 216.047 32.0625 216.047 32.2813V32.8516H214.688C214.078 32.8516 213.531 32.9089 213.047 33.0234C212.568 33.138 212.164 33.3047 211.836 33.5234C211.482 33.7578 211.211 34.0547 211.023 34.4141C210.841 34.7682 210.75 35.1771 210.75 35.6406C210.75 36 210.82 36.3359 210.961 36.6484C211.107 36.9557 211.31 37.2188 211.57 37.4375C211.826 37.6615 212.133 37.8385 212.492 37.9688C212.857 38.0938 213.258 38.1563 213.695 38.1563C213.966 38.1563 214.219 38.1302 214.453 38.0781C214.688 38.026 214.906 37.9531 215.109 37.8594C215.312 37.7708 215.495 37.6667 215.656 37.5469C215.823 37.4219 215.971 37.2917 216.102 37.1563C216.128 37.3177 216.156 37.474 216.188 37.625C216.224 37.7708 216.271 37.8958 216.328 38ZM214.055 36.6563C213.815 36.6563 213.607 36.6276 213.43 36.5703C213.253 36.5078 213.104 36.4245 212.984 36.3203C212.865 36.2161 212.773 36.0911 212.711 35.9453C212.648 35.7943 212.617 35.6328 212.617 35.4609C212.617 35.2526 212.654 35.0651 212.727 34.8984C212.805 34.7318 212.922 34.5885 213.078 34.4688C213.255 34.3281 213.492 34.2214 213.789 34.1484C214.086 34.0703 214.438 34.0313 214.844 34.0313H216.047V35.5938C215.979 35.7292 215.883 35.8594 215.758 35.9844C215.633 36.1094 215.484 36.2214 215.312 36.3203C215.141 36.4193 214.948 36.5 214.734 36.5625C214.526 36.625 214.299 36.6563 214.055 36.6563Z"/><path fill="#fff" fill-opacity=".7" d="M159.75 687.383L160.516 690H162.461L158.82 678.625H157.156L153.453 690H155.406L156.18 687.383H159.75ZM156.656 685.773L157.984 681.273L159.289 685.773H156.656ZM169.727 681.391C169.143 681.391 168.609 681.526 168.125 681.797C167.646 682.068 167.234 682.44 166.891 682.914L166.883 682.719L166.805 681.547H165.055V690H166.922V684.781C167.021 684.531 167.143 684.31 167.289 684.117C167.435 683.924 167.612 683.766 167.82 683.641C168.013 683.51 168.234 683.414 168.484 683.352C168.734 683.289 169.016 683.258 169.328 683.258C169.604 683.258 169.88 683.273 170.156 683.305C170.438 683.336 170.721 683.383 171.008 683.445L171.273 681.602C171.112 681.544 170.888 681.495 170.602 681.453C170.32 681.411 170.029 681.391 169.727 681.391ZM180.922 685.859V685.695C180.922 685.216 180.878 684.763 180.789 684.336C180.706 683.909 180.581 683.521 180.414 683.172C180.289 682.922 180.143 682.693 179.977 682.484C179.815 682.271 179.63 682.091 179.422 681.945C179.177 681.768 178.901 681.633 178.594 681.539C178.292 681.44 177.958 681.391 177.594 681.391C177.318 681.391 177.06 681.419 176.82 681.477C176.586 681.529 176.37 681.609 176.172 681.719C176.021 681.802 175.88 681.898 175.75 682.008C175.62 682.117 175.5 682.24 175.391 682.375V678H173.523V690H175.211L175.297 689.078C175.391 689.193 175.487 689.299 175.586 689.398C175.69 689.492 175.799 689.581 175.914 689.664C176.138 689.826 176.391 689.948 176.672 690.031C176.953 690.115 177.266 690.156 177.609 690.156C177.948 690.156 178.26 690.112 178.547 690.023C178.839 689.94 179.102 689.82 179.336 689.664C179.628 689.471 179.878 689.229 180.086 688.938C180.294 688.646 180.461 688.32 180.586 687.961C180.695 687.659 180.779 687.331 180.836 686.977C180.893 686.622 180.922 686.25 180.922 685.859ZM179.055 685.695V685.859C179.055 686.094 179.042 686.32 179.016 686.539C178.99 686.758 178.951 686.961 178.898 687.148C178.836 687.398 178.745 687.625 178.625 687.828C178.51 688.026 178.362 688.19 178.18 688.32C178.044 688.414 177.891 688.49 177.719 688.547C177.547 688.599 177.354 688.625 177.141 688.625C176.906 688.625 176.693 688.596 176.5 688.539C176.312 688.477 176.146 688.393 176 688.289C175.87 688.19 175.753 688.078 175.648 687.953C175.549 687.823 175.464 687.68 175.391 687.523V684.023C175.453 683.888 175.526 683.763 175.609 683.648C175.698 683.529 175.797 683.424 175.906 683.336C176.057 683.206 176.234 683.107 176.438 683.039C176.641 682.966 176.87 682.93 177.125 682.93C177.333 682.93 177.521 682.953 177.688 683C177.854 683.047 178.003 683.117 178.133 683.211C178.331 683.346 178.487 683.513 178.602 683.711C178.721 683.904 178.818 684.12 178.891 684.359C178.943 684.557 178.982 684.771 179.008 685C179.039 685.224 179.055 685.456 179.055 685.695ZM183.531 681.547V683.102H186.133V688.453H183.531V690H190.5V688.453H188.016V681.547H183.531ZM185.961 679.359C185.961 679.557 186.008 679.732 186.102 679.883C186.201 680.029 186.344 680.13 186.531 680.188C186.714 680.245 186.88 680.258 187.031 680.227C187.182 680.195 187.312 680.13 187.422 680.031C187.641 679.974 187.807 679.862 187.922 679.695C188.036 679.523 188.076 679.323 188.039 679.094C188.013 678.87 187.911 678.688 187.734 678.547C187.562 678.401 187.336 678.328 187.055 678.328C186.888 678.328 186.737 678.354 186.602 678.406C186.471 678.453 186.359 678.521 186.266 678.609C186.167 678.703 186.091 678.815 186.039 678.945C185.987 679.07 185.961 679.208 185.961 679.359ZM196.461 679.484H194.586V681.547H192.539V682.945H194.586V687.102C194.586 687.643 194.656 688.107 194.797 688.492C194.943 688.878 195.143 689.193 195.398 689.438C195.654 689.688 195.958 689.872 196.312 689.992C196.672 690.107 197.065 690.164 197.492 690.164C197.727 690.164 197.961 690.151 198.195 690.125C198.435 690.104 198.664 690.073 198.883 690.031C199.102 689.99 199.305 689.94 199.492 689.883C199.685 689.82 199.849 689.747 199.984 689.664L199.781 688.375C199.688 688.396 199.57 688.422 199.43 688.453C199.294 688.479 199.148 688.503 198.992 688.523C198.831 688.549 198.664 688.57 198.492 688.586C198.32 688.602 198.154 688.609 197.992 688.609C197.768 688.609 197.562 688.583 197.375 688.531C197.188 688.479 197.026 688.391 196.891 688.266C196.755 688.146 196.648 687.982 196.57 687.773C196.497 687.56 196.461 687.297 196.461 686.984V682.945H199.641V681.547H196.461V679.484ZM208.164 681.391C207.581 681.391 207.047 681.526 206.562 681.797C206.083 682.068 205.672 682.44 205.328 682.914L205.32 682.719L205.242 681.547H203.492V690H205.359V684.781C205.458 684.531 205.581 684.31 205.727 684.117C205.872 683.924 206.049 683.766 206.258 683.641C206.451 683.51 206.672 683.414 206.922 683.352C207.172 683.289 207.453 683.258 207.766 683.258C208.042 683.258 208.318 683.273 208.594 683.305C208.875 683.336 209.159 683.383 209.445 683.445L209.711 681.602C209.549 681.544 209.326 681.495 209.039 681.453C208.758 681.411 208.466 681.391 208.164 681.391ZM217.469 690H219.164V681.547H217.289V687.531C217.216 687.688 217.128 687.831 217.023 687.961C216.919 688.086 216.799 688.195 216.664 688.289C216.503 688.393 216.315 688.477 216.102 688.539C215.888 688.596 215.646 688.625 215.375 688.625C215.115 688.625 214.888 688.591 214.695 688.523C214.503 688.456 214.344 688.341 214.219 688.18C214.094 688.023 214.003 687.815 213.945 687.555C213.888 687.289 213.859 686.961 213.859 686.57V681.547H211.992V686.555C211.992 687.19 212.062 687.737 212.203 688.195C212.344 688.648 212.542 689.021 212.797 689.312C213.057 689.604 213.367 689.82 213.727 689.961C214.091 690.096 214.492 690.164 214.93 690.164C215.44 690.164 215.901 690.047 216.312 689.812C216.724 689.573 217.073 689.242 217.359 688.82L217.469 690ZM222.602 681.547H220.977V690H222.695V683.508C222.727 683.43 222.76 683.359 222.797 683.297C222.839 683.234 222.885 683.18 222.938 683.133C223.005 683.065 223.086 683.016 223.18 682.984C223.279 682.948 223.391 682.93 223.516 682.93C223.63 682.93 223.732 682.945 223.82 682.977C223.914 683.008 223.995 683.057 224.062 683.125C224.13 683.193 224.18 683.286 224.211 683.406C224.247 683.521 224.266 683.661 224.266 683.828V690H225.953V683.727C225.953 683.674 225.953 683.635 225.953 683.609C225.953 683.578 225.953 683.552 225.953 683.531C225.974 683.443 226.005 683.365 226.047 683.297C226.089 683.224 226.141 683.161 226.203 683.109C226.271 683.052 226.349 683.008 226.438 682.977C226.526 682.945 226.63 682.93 226.75 682.93C226.865 682.93 226.969 682.945 227.062 682.977C227.161 683.008 227.245 683.057 227.312 683.125C227.38 683.198 227.432 683.294 227.469 683.414C227.505 683.529 227.523 683.669 227.523 683.836V690H229.242V683.852C229.242 683.409 229.195 683.031 229.102 682.719C229.013 682.401 228.885 682.143 228.719 681.945C228.552 681.758 228.354 681.62 228.125 681.531C227.901 681.438 227.654 681.391 227.383 681.391C227.174 681.391 226.982 681.417 226.805 681.469C226.633 681.521 226.477 681.594 226.336 681.688C226.227 681.76 226.125 681.849 226.031 681.953C225.938 682.057 225.854 682.169 225.781 682.289C225.729 682.159 225.667 682.044 225.594 681.945C225.521 681.841 225.438 681.753 225.344 681.68C225.224 681.581 225.081 681.508 224.914 681.461C224.747 681.414 224.56 681.391 224.352 681.391C223.951 681.391 223.607 681.487 223.32 681.68C223.039 681.872 222.818 682.138 222.656 682.477L222.602 681.547Z"/><path fill="#222" d="M319.5 225.556C319.5 199.048 298.011 177.559 271.503 177.559C244.995 177.559 223.507 199.048 223.507 225.556C223.507 252.064 244.995 273.553 271.503 273.553C298.011 273.553 319.5 252.064 319.5 225.556Z"/><path fill="#8F5AE8" d="M281.293 218.697C280.562 218.282 279.622 218.282 278.787 218.697L272.938 222.125L268.969 224.306L263.225 227.733C262.494 228.148 261.554 228.148 260.719 227.733L256.228 225.033C255.497 224.617 254.975 223.786 254.975 222.852V217.659C254.975 216.828 255.392 215.997 256.228 215.478L260.719 212.881C261.45 212.466 262.39 212.466 263.225 212.881L267.716 215.582C268.447 215.997 268.969 216.828 268.969 217.763V221.19L272.938 218.905V215.374C272.938 214.543 272.52 213.712 271.685 213.193L263.33 208.312C262.599 207.896 261.659 207.896 260.823 208.312L252.259 213.297C251.424 213.712 251.006 214.543 251.006 215.374V225.136C251.006 225.967 251.424 226.798 252.259 227.318L260.719 232.199C261.45 232.614 262.39 232.614 263.225 232.199L268.969 228.875L272.938 226.591L278.682 223.267C279.413 222.852 280.353 222.852 281.189 223.267L285.679 225.864C286.411 226.279 286.933 227.11 286.933 228.045V233.237C286.933 234.068 286.515 234.899 285.679 235.418L281.293 238.015C280.562 238.43 279.622 238.43 278.787 238.015L274.296 235.418C273.565 235.003 273.042 234.172 273.042 233.237V229.914L269.074 232.199V235.626C269.074 236.457 269.491 237.288 270.327 237.807L278.787 242.688C279.518 243.104 280.458 243.104 281.293 242.688L289.753 237.807C290.484 237.392 291.006 236.561 291.006 235.626V225.76C291.006 224.929 290.588 224.098 289.753 223.579L281.293 218.697Z"/><path stroke="#313131" d="M319.5 225.556C319.5 199.048 298.011 177.559 271.503 177.559C244.995 177.559 223.507 199.048 223.507 225.556C223.507 252.064 244.995 273.553 271.503 273.553C298.011 273.553 319.5 252.064 319.5 225.556Z"/><path fill="#222" d="M318.5 487.613C318.5 461.105 297.011 439.616 270.503 439.616C243.995 439.616 222.507 461.105 222.507 487.613C222.507 514.121 243.995 535.609 270.503 535.609C297.011 535.609 318.5 514.121 318.5 487.613Z"/><path fill="#11B5EC" fill-rule="evenodd" d="M273.152 480.337L282.152 475.06V485.613L273.152 480.337ZM282.152 502.95L270.152 509.985L258.152 502.95V490.638L270.152 497.673L282.152 490.638V502.95ZM258.152 475.06L267.152 480.337L258.152 485.613V475.06ZM271.652 482.849L280.652 488.126L271.652 493.402V482.849ZM268.652 493.402L259.652 488.126L268.652 482.849V493.402ZM280.652 472.548L270.152 478.578L259.652 472.548L270.152 466.266L280.652 472.548ZM255.152 471.543V504.457L270.152 513L285.152 504.457V471.543L270.152 463L255.152 471.543Z" clip-rule="evenodd"/><path stroke="#313131" d="M318.5 487.613C318.5 461.105 297.011 439.616 270.503 439.616C243.995 439.616 222.507 461.105 222.507 487.613C222.507 514.121 243.995 535.609 270.503 535.609C297.011 535.609 318.5 514.121 318.5 487.613Z"/><path fill="#222" d="M191.177 129.323C212.342 129.323 229.5 112.165 229.5 90.9995C229.5 69.834 212.342 52.676 191.177 52.676C170.011 52.676 152.853 69.834 152.853 90.9995C152.853 112.165 170.011 129.323 191.177 129.323Z"/><path fill="url(#paint1_linear_120_311)" d="M208.466 99.6532L202.854 105.591C202.732 105.72 202.585 105.823 202.422 105.893C202.258 105.963 202.082 106 201.903 106H175.297C175.17 106 175.046 105.963 174.939 105.895C174.833 105.826 174.75 105.729 174.699 105.614C174.648 105.499 174.633 105.372 174.654 105.249C174.675 105.125 174.732 105.011 174.818 104.919L180.425 98.9813C180.546 98.8523 180.693 98.7494 180.857 98.679C181.02 98.6086 181.197 98.5721 181.375 98.5719H207.982C208.11 98.5693 208.236 98.6041 208.344 98.672C208.452 98.7399 208.537 98.8377 208.589 98.9533C208.641 99.0689 208.657 99.197 208.635 99.3216C208.613 99.4461 208.555 99.5615 208.466 99.6532ZM202.854 87.6938C202.732 87.5654 202.585 87.463 202.421 87.3925C202.258 87.3222 202.082 87.2854 201.903 87.2845H175.297C175.17 87.2845 175.046 87.3211 174.939 87.3897C174.833 87.4583 174.75 87.556 174.699 87.6707C174.648 87.7855 174.633 87.9123 174.654 88.0358C174.675 88.1592 174.732 88.2739 174.818 88.3657L180.425 94.3063C180.547 94.4347 180.694 94.5372 180.857 94.6076C181.021 94.678 181.197 94.7148 181.375 94.7157H207.982C208.109 94.715 208.232 94.678 208.338 94.6092C208.444 94.5403 208.527 94.4426 208.577 94.328C208.627 94.2134 208.643 94.0868 208.621 93.9636C208.6 93.8405 208.543 93.7261 208.457 93.6345L202.854 87.6938ZM175.297 83.4282H201.903C202.082 83.4281 202.258 83.3916 202.422 83.3212C202.585 83.2507 202.732 83.1478 202.854 83.0188L208.466 77.0814C208.555 76.9897 208.613 76.8743 208.635 76.7498C208.657 76.6252 208.641 76.4971 208.589 76.3815C208.537 76.266 208.452 76.1681 208.344 76.1002C208.236 76.0323 208.11 75.9975 207.982 76.0001H181.375C181.197 76.0003 181.02 76.0368 180.857 76.1072C180.693 76.1776 180.546 76.2805 180.425 76.4095L174.818 82.347C174.732 82.4388 174.675 82.5535 174.654 82.6769C174.633 82.8004 174.648 82.9272 174.699 83.042C174.75 83.1567 174.833 83.2544 174.939 83.323C175.046 83.3916 175.17 83.4282 175.297 83.4282Z"/><path stroke="#313131" d="M191.177 129.323C212.342 129.323 229.5 112.165 229.5 90.9995C229.5 69.834 212.342 52.676 191.177 52.676C170.011 52.676 152.853 69.834 152.853 90.9995C152.853 112.165 170.011 129.323 191.177 129.323Z"/><path fill="#222" d="M191.177 660.558C212.342 660.558 229.5 643.4 229.5 622.234C229.5 601.069 212.342 583.911 191.177 583.911C170.011 583.911 152.853 601.069 152.853 622.234C152.853 643.4 170.011 660.558 191.177 660.558Z"/><path fill="#2D374B" d="M196.686 620.091L200.066 614.355L209.178 628.547L209.182 631.27L209.153 612.529C209.131 612.071 208.888 611.652 208.5 611.405L192.095 601.968C191.712 601.78 191.225 601.782 190.842 601.974C190.79 602 190.741 602.028 190.695 602.059L190.638 602.095L174.715 611.323L174.653 611.351C174.573 611.387 174.493 611.434 174.418 611.488C174.116 611.704 173.915 612.024 173.85 612.383C173.841 612.438 173.834 612.493 173.83 612.549L173.855 627.822L182.342 614.667C183.411 612.923 185.739 612.361 187.9 612.391L190.437 612.458L175.491 636.427L177.253 637.441L192.378 612.483L199.063 612.458L183.977 638.047L190.264 641.663L191.015 642.095C191.332 642.224 191.707 642.23 192.027 642.115L208.663 632.474L205.482 634.317L196.686 620.091ZM197.976 638.667L191.626 628.702L195.502 622.125L203.841 635.268L197.976 638.667Z"/><path fill="#28A0F0" d="M191.627 628.702L197.977 638.667L203.842 635.268L195.503 622.125L191.627 628.702Z"/><path fill="#28A0F0" d="M209.182 631.27L209.178 628.547L200.066 614.355L196.686 620.091L205.482 634.317L208.662 632.474C208.974 632.221 209.163 631.849 209.183 631.448L209.182 631.27Z"/><path fill="#fff" d="M171 633.839L175.491 636.427L190.437 612.458L187.9 612.391C185.739 612.361 183.411 612.923 182.342 614.667L173.855 627.822L171 632.209V633.839Z"/><path fill="#fff" d="M199.064 612.458L192.379 612.483L177.254 637.441L182.54 640.485L183.978 638.047L199.064 612.458Z"/><path fill="#96BEDC" d="M212 612.424C211.944 611.026 211.187 609.746 210.001 609.001L193.382 599.443C192.209 598.853 190.743 598.852 189.569 599.443C189.43 599.513 173.406 608.806 173.406 608.806C173.185 608.912 172.971 609.039 172.77 609.183C171.712 609.941 171.066 611.12 171 612.415V632.209L173.855 627.822L173.83 612.549C173.834 612.493 173.841 612.438 173.851 612.384C173.915 612.025 174.116 611.704 174.418 611.488C174.493 611.434 190.79 602 190.842 601.974C191.225 601.782 191.712 601.78 192.095 601.969L208.5 611.405C208.888 611.652 209.131 612.071 209.153 612.529V631.448C209.133 631.849 208.975 632.221 208.663 632.474L205.482 634.317L203.841 635.268L197.976 638.667L192.027 642.115C191.707 642.23 191.333 642.224 191.015 642.095L183.977 638.047L182.539 640.485L188.864 644.126C189.073 644.245 189.26 644.351 189.412 644.437C189.649 644.57 189.811 644.658 189.868 644.686C190.317 644.904 190.964 645.031 191.547 645.031C192.081 645.031 192.602 644.933 193.095 644.74L210.372 634.734C211.364 633.966 211.947 632.807 212 631.552V612.424Z"/><path stroke="#313131" d="M191.177 660.558C212.342 660.558 229.5 643.4 229.5 622.234C229.5 601.069 212.342 583.911 191.177 583.911C170.011 583.911 152.853 601.069 152.853 622.234C152.853 643.4 170.011 660.558 191.177 660.558Z"/><path fill="#222" d="M76.4998 357.102V355.808C76.4998 334.999 59.6315 318.131 38.8233 318.131C18.0152 318.131 1.14697 334.999 1.14697 355.808V357.102C1.14697 377.91 18.0152 394.778 38.8233 394.778C59.6315 394.778 76.4998 377.91 76.4998 357.102Z"/><path fill="#01EF8B" d="M49.2938 352.539H42.9492V358.884H49.2938V352.539Z"/><path fill="#01EF8B" d="M36.6044 361.269C36.6044 362.574 35.5245 363.653 34.2196 363.653C32.9147 363.653 31.8348 362.574 31.8348 361.269C31.8348 359.964 32.9147 358.884 34.2196 358.884H36.6044V352.539H34.2196C29.405 352.539 25.4902 356.454 25.4902 361.269C25.4902 366.083 29.405 369.998 34.2196 369.998C39.0343 369.998 42.949 366.083 42.949 361.269V358.884H36.6044V361.269Z"/><path fill="#01EF8B" d="M45.3329 349.345H52.4874V343H45.3329C40.5182 343 36.6035 346.915 36.6035 351.729V352.539H42.9481V351.729C42.9481 350.424 44.028 349.345 45.3329 349.345Z"/><path stroke="#313131" d="M76.4998 357.102V355.808C76.4998 334.999 59.6315 318.131 38.8233 318.131C18.0152 318.131 1.14697 334.999 1.14697 355.808V357.102C1.14697 377.91 18.0152 394.778 38.8233 394.778C59.6315 394.778 76.4998 377.91 76.4998 357.102Z"/><path fill="#222" d="M348.176 394.616C369.342 394.616 386.5 377.458 386.5 356.292C386.5 335.127 369.342 317.969 348.176 317.969C327.011 317.969 309.853 335.127 309.853 356.292C309.853 377.458 327.011 394.616 348.176 394.616Z"/><path fill="#FF0420" d="M348 382C362.359 382 374 370.359 374 356C374 341.641 362.359 330 348 330C333.641 330 322 341.641 322 356C322 370.359 333.641 382 348 382Z"/><path fill="#fff" d="M339.718 363.093C338.17 363.093 336.902 362.728 335.913 362C334.937 361.258 334.449 360.204 334.449 358.838C334.449 358.552 334.482 358.201 334.547 357.785C334.716 356.848 334.957 355.723 335.269 354.409C336.153 350.831 338.437 349.042 342.118 349.042C343.12 349.042 344.018 349.211 344.811 349.55C345.605 349.875 346.229 350.369 346.685 351.033C347.14 351.683 347.368 352.464 347.368 353.374C347.368 353.648 347.335 353.992 347.27 354.409C347.075 355.566 346.841 356.692 346.568 357.785C346.112 359.567 345.325 360.9 344.206 361.785C343.088 362.657 341.592 363.093 339.718 363.093ZM339.991 360.282C340.72 360.282 341.338 360.068 341.845 359.638C342.366 359.209 342.736 358.552 342.957 357.668C343.257 356.445 343.484 355.378 343.641 354.467C343.693 354.194 343.719 353.914 343.719 353.628C343.719 352.444 343.101 351.852 341.865 351.852C341.136 351.852 340.512 352.067 339.991 352.496C339.484 352.926 339.12 353.583 338.899 354.467C338.664 355.339 338.43 356.406 338.196 357.668C338.144 357.928 338.118 358.201 338.118 358.487C338.118 359.684 338.742 360.282 339.991 360.282Z"/><path fill="#fff" d="M348.265 362.897C348.122 362.897 348.011 362.852 347.933 362.761C347.868 362.657 347.848 362.54 347.874 362.41L350.567 349.725C350.593 349.582 350.665 349.465 350.782 349.374C350.899 349.283 351.023 349.237 351.153 349.237H356.344C357.788 349.237 358.946 349.537 359.817 350.135C360.702 350.733 361.144 351.599 361.144 352.73C361.144 353.056 361.105 353.394 361.027 353.745C360.702 355.241 360.045 356.347 359.056 357.063C358.08 357.778 356.74 358.136 355.036 358.136H352.402L351.504 362.41C351.478 362.553 351.406 362.67 351.289 362.761C351.172 362.852 351.049 362.897 350.919 362.897H348.265ZM355.173 355.443C355.719 355.443 356.194 355.293 356.597 354.994C357.014 354.695 357.287 354.265 357.417 353.706C357.456 353.485 357.476 353.29 357.476 353.121C357.476 352.743 357.365 352.457 357.144 352.262C356.923 352.054 356.545 351.95 356.012 351.95H353.67L352.929 355.443H355.173Z"/><path stroke="#313131" d="M348.176 394.616C369.342 394.616 386.5 377.458 386.5 356.292C386.5 335.127 369.342 317.969 348.176 317.969C327.011 317.969 309.853 335.127 309.853 356.292C309.853 377.458 327.011 394.616 348.176 394.616Z"/><path fill="#222" d="M163.5 225.352C163.5 198.844 142.011 177.355 115.503 177.355C88.9951 177.355 67.5063 198.844 67.5063 225.352C67.5063 251.86 88.9951 273.348 115.503 273.348C142.011 273.348 163.5 251.86 163.5 225.352Z"/><path fill="#BDC9F7" d="M115.333 202L115.02 203.064V233.933L115.333 234.245L129.661 225.775L115.333 202Z"/><path fill="#FEFFF3" d="M115.337 202L101.008 225.775L115.337 234.245V219.262V202Z"/><path fill="#C1CDFC" d="M115.341 236.959L115.164 237.174V248.17L115.341 248.685L129.678 228.493L115.341 236.959Z"/><path fill="#FFFEFF" d="M115.337 248.685V236.959L101.008 228.493L115.337 248.685Z"/><path fill="#829AEC" d="M115.336 234.245L129.665 225.775L115.336 219.262V234.245Z"/><path fill="#C0CBF9" d="M101.008 225.775L115.337 234.245V219.262L101.008 225.775Z"/><path stroke="#313131" d="M163.5 225.352C163.5 198.844 142.011 177.355 115.503 177.355C88.9951 177.355 67.5063 198.844 67.5063 225.352C67.5063 251.86 88.9951 273.348 115.503 273.348C142.011 273.348 163.5 251.86 163.5 225.352Z"/><path fill="#222" d="M194.182 400.441C218.206 400.441 237.682 380.965 237.682 356.941C237.682 332.917 218.206 313.441 194.182 313.441C170.158 313.441 150.682 332.917 150.682 356.941C150.682 380.965 170.158 400.441 194.182 400.441Z"/><path fill="url(#paint2_linear_120_311)" fill-rule="evenodd" d="M174.589 347.386C174.201 346.437 174.924 345.411 175.982 345.411H182.552C183.169 345.411 183.716 345.767 183.945 346.318L189.174 358.97C189.315 359.309 189.315 359.69 189.174 360.038L185.885 367.984C185.382 369.196 183.601 369.196 183.098 367.984L174.589 347.386ZM187.279 347.344C186.926 346.403 187.649 345.411 188.689 345.411H194.413C195.048 345.411 195.612 345.792 195.824 346.36L200.577 359.012C200.691 359.326 200.691 359.673 200.577 359.996L197.72 367.602C197.243 368.874 195.374 368.874 194.898 367.602L187.279 347.344ZM200.127 345.411C199.069 345.411 198.346 346.437 198.734 347.386L207.243 367.984C207.746 369.196 209.527 369.196 210.03 367.984L213.319 360.038C213.46 359.69 213.46 359.309 213.319 358.97L208.09 346.318C207.861 345.767 207.314 345.411 206.697 345.411H200.127Z" clip-rule="evenodd"/><path stroke="#313131" d="M194.182 400.441C218.206 400.441 237.682 380.965 237.682 356.941C237.682 332.917 218.206 313.441 194.182 313.441C170.158 313.441 150.682 332.917 150.682 356.941C150.682 380.965 170.158 400.441 194.182 400.441Z"/><path fill="#222" d="M163.5 487.619C163.5 461.111 142.011 439.622 115.503 439.622C88.9952 439.622 67.5063 461.111 67.5063 487.619C67.5063 514.127 88.9952 535.616 115.503 535.616C142.011 535.616 163.5 514.127 163.5 487.619Z"/><path fill="#fff" d="M132.205 469.756H98.9473V501.502H132.205V469.756Z"/><path fill="#E74141" fill-rule="evenodd" d="M142.092 487.835C142.092 502.656 130.254 514.67 115.651 514.67C101.049 514.67 89.2109 502.656 89.2109 487.835C89.2109 473.014 101.049 461 115.651 461C130.254 461 142.092 473.014 142.092 487.835ZM108.159 498.514H103.028C101.949 498.514 101.417 498.514 101.092 498.303C100.741 498.072 100.527 497.69 100.501 497.268C100.481 496.879 100.748 496.404 101.28 495.455L113.95 472.789C114.489 471.827 114.762 471.346 115.106 471.168C115.477 470.976 115.918 470.976 116.289 471.168C116.633 471.346 116.906 471.827 117.445 472.789L120.049 477.404L120.063 477.428C120.645 478.46 120.94 478.984 121.069 479.533C121.212 480.133 121.212 480.766 121.069 481.366C120.939 481.92 120.647 482.447 120.056 483.495L113.401 495.435L113.383 495.466C112.797 496.507 112.5 497.035 112.089 497.433C111.64 497.868 111.101 498.184 110.51 498.363C109.971 498.514 109.367 498.514 108.159 498.514ZM121.117 498.514H128.47C129.555 498.514 130.1 498.514 130.425 498.297C130.776 498.066 130.997 497.677 131.016 497.255C131.035 496.879 130.775 496.423 130.264 495.529C130.246 495.498 130.229 495.467 130.211 495.436L126.528 489.041L126.486 488.969C125.968 488.081 125.707 487.632 125.372 487.459C125.002 487.268 124.566 487.268 124.196 487.459C123.858 487.637 123.586 488.105 123.046 489.048L119.376 495.442L119.364 495.464C118.827 496.405 118.558 496.876 118.578 497.262C118.604 497.684 118.818 498.072 119.169 498.303C119.487 498.514 120.033 498.514 121.117 498.514Z" clip-rule="evenodd"/><path stroke="#313131" d="M163.5 487.619C163.5 461.111 142.011 439.622 115.503 439.622C88.9952 439.622 67.5063 461.111 67.5063 487.619C67.5063 514.127 88.9952 535.616 115.503 535.616C142.011 535.616 163.5 514.127 163.5 487.619Z"/><path fill="#fff" fill-opacity=".6" d="M79.9453 561.383L80.7109 564H82.6562L79.0156 552.625H77.3516L73.6484 564H75.6016L76.375 561.383H79.9453ZM76.8516 559.773L78.1797 555.273L79.4844 559.773H76.8516ZM86.8438 564H88.4922L91.8047 555.547H89.8672L87.7969 561.68L87.6719 562.242L87.5469 561.68L85.4531 555.547H83.5156L86.8438 564ZM99.0859 564H100.992V563.867C100.888 563.648 100.807 563.388 100.75 563.086C100.698 562.779 100.672 562.435 100.672 562.055V558.297C100.672 557.818 100.583 557.396 100.406 557.031C100.229 556.661 99.9844 556.357 99.6719 556.117C99.3594 555.878 98.987 555.698 98.5547 555.578C98.1276 555.453 97.6667 555.391 97.1719 555.391C96.6198 555.391 96.1276 555.464 95.6953 555.609C95.2682 555.75 94.9089 555.943 94.6172 556.188C94.3151 556.427 94.0859 556.703 93.9297 557.016C93.7734 557.328 93.6927 557.654 93.6875 557.992H95.5625C95.5625 557.831 95.5911 557.68 95.6484 557.539C95.7109 557.393 95.8047 557.271 95.9297 557.172C96.0547 557.062 96.2109 556.977 96.3984 556.914C96.5911 556.852 96.8151 556.82 97.0703 556.82C97.3516 556.82 97.599 556.857 97.8125 556.93C98.0312 556.997 98.2161 557.096 98.3672 557.227C98.5078 557.357 98.6146 557.51 98.6875 557.688C98.7656 557.865 98.8047 558.062 98.8047 558.281V558.852H97.4453C96.8359 558.852 96.2891 558.909 95.8047 559.023C95.3255 559.138 94.9219 559.305 94.5938 559.523C94.2396 559.758 93.9688 560.055 93.7812 560.414C93.599 560.768 93.5078 561.177 93.5078 561.641C93.5078 562 93.5781 562.336 93.7188 562.648C93.8646 562.956 94.0677 563.219 94.3281 563.438C94.5833 563.661 94.8906 563.839 95.25 563.969C95.6146 564.094 96.0156 564.156 96.4531 564.156C96.724 564.156 96.9766 564.13 97.2109 564.078C97.4453 564.026 97.6641 563.953 97.8672 563.859C98.0703 563.771 98.2526 563.667 98.4141 563.547C98.5807 563.422 98.7292 563.292 98.8594 563.156C98.8854 563.318 98.9141 563.474 98.9453 563.625C98.9818 563.771 99.0286 563.896 99.0859 564ZM96.8125 562.656C96.5729 562.656 96.3646 562.628 96.1875 562.57C96.0104 562.508 95.862 562.424 95.7422 562.32C95.6224 562.216 95.5312 562.091 95.4688 561.945C95.4062 561.794 95.375 561.633 95.375 561.461C95.375 561.253 95.4115 561.065 95.4844 560.898C95.5625 560.732 95.6797 560.589 95.8359 560.469C96.013 560.328 96.25 560.221 96.5469 560.148C96.8438 560.07 97.1953 560.031 97.6016 560.031H98.8047V561.594C98.737 561.729 98.6406 561.859 98.5156 561.984C98.3906 562.109 98.2422 562.221 98.0703 562.32C97.8984 562.419 97.7057 562.5 97.4922 562.562C97.2839 562.625 97.0573 562.656 96.8125 562.656ZM103.656 552V553.555H106.328V562.453H103.656V564H110.773V562.453H108.211V552H103.656ZM118.305 564H120.211V563.867C120.107 563.648 120.026 563.388 119.969 563.086C119.917 562.779 119.891 562.435 119.891 562.055V558.297C119.891 557.818 119.802 557.396 119.625 557.031C119.448 556.661 119.203 556.357 118.891 556.117C118.578 555.878 118.206 555.698 117.773 555.578C117.346 555.453 116.885 555.391 116.391 555.391C115.839 555.391 115.346 555.464 114.914 555.609C114.487 555.75 114.128 555.943 113.836 556.188C113.534 556.427 113.305 556.703 113.148 557.016C112.992 557.328 112.911 557.654 112.906 557.992H114.781C114.781 557.831 114.81 557.68 114.867 557.539C114.93 557.393 115.023 557.271 115.148 557.172C115.273 557.062 115.43 556.977 115.617 556.914C115.81 556.852 116.034 556.82 116.289 556.82C116.57 556.82 116.818 556.857 117.031 556.93C117.25 556.997 117.435 557.096 117.586 557.227C117.727 557.357 117.833 557.51 117.906 557.688C117.984 557.865 118.023 558.062 118.023 558.281V558.852H116.664C116.055 558.852 115.508 558.909 115.023 559.023C114.544 559.138 114.141 559.305 113.812 559.523C113.458 559.758 113.188 560.055 113 560.414C112.818 560.768 112.727 561.177 112.727 561.641C112.727 562 112.797 562.336 112.938 562.648C113.083 562.956 113.286 563.219 113.547 563.438C113.802 563.661 114.109 563.839 114.469 563.969C114.833 564.094 115.234 564.156 115.672 564.156C115.943 564.156 116.195 564.13 116.43 564.078C116.664 564.026 116.883 563.953 117.086 563.859C117.289 563.771 117.471 563.667 117.633 563.547C117.799 563.422 117.948 563.292 118.078 563.156C118.104 563.318 118.133 563.474 118.164 563.625C118.201 563.771 118.247 563.896 118.305 564ZM116.031 562.656C115.792 562.656 115.583 562.628 115.406 562.57C115.229 562.508 115.081 562.424 114.961 562.32C114.841 562.216 114.75 562.091 114.688 561.945C114.625 561.794 114.594 561.633 114.594 561.461C114.594 561.253 114.63 561.065 114.703 560.898C114.781 560.732 114.898 560.589 115.055 560.469C115.232 560.328 115.469 560.221 115.766 560.148C116.062 560.07 116.414 560.031 116.82 560.031H118.023V561.594C117.956 561.729 117.859 561.859 117.734 561.984C117.609 562.109 117.461 562.221 117.289 562.32C117.117 562.419 116.924 562.5 116.711 562.562C116.503 562.625 116.276 562.656 116.031 562.656ZM122.516 564H124.383V557.969C124.466 557.828 124.562 557.698 124.672 557.578C124.781 557.458 124.898 557.357 125.023 557.273C125.185 557.164 125.365 557.081 125.562 557.023C125.76 556.961 125.974 556.93 126.203 556.93C126.479 556.93 126.724 556.961 126.938 557.023C127.151 557.081 127.333 557.18 127.484 557.32C127.635 557.461 127.75 557.648 127.828 557.883C127.906 558.117 127.945 558.409 127.945 558.758V564H129.812V558.727C129.812 558.133 129.742 557.628 129.602 557.211C129.461 556.789 129.263 556.443 129.008 556.172C128.753 555.901 128.445 555.703 128.086 555.578C127.727 555.453 127.331 555.391 126.898 555.391C126.57 555.391 126.258 555.438 125.961 555.531C125.664 555.625 125.391 555.758 125.141 555.93C124.984 556.039 124.836 556.164 124.695 556.305C124.56 556.44 124.435 556.589 124.32 556.75L124.203 555.547H122.516V564ZM135.805 562.656C135.414 562.656 135.089 562.578 134.828 562.422C134.568 562.266 134.362 562.057 134.211 561.797C134.055 561.547 133.943 561.258 133.875 560.93C133.812 560.596 133.781 560.258 133.781 559.914V559.641C133.781 559.302 133.812 558.969 133.875 558.641C133.943 558.312 134.057 558.021 134.219 557.766C134.37 557.51 134.573 557.305 134.828 557.148C135.089 556.987 135.414 556.906 135.805 556.906C136.06 556.906 136.297 556.951 136.516 557.039C136.74 557.128 136.932 557.247 137.094 557.398C137.25 557.549 137.37 557.727 137.453 557.93C137.542 558.133 137.586 558.349 137.586 558.578H139.344C139.349 558.109 139.263 557.68 139.086 557.289C138.914 556.898 138.672 556.562 138.359 556.281C138.047 556 137.672 555.781 137.234 555.625C136.802 555.469 136.331 555.391 135.82 555.391C135.174 555.391 134.607 555.505 134.117 555.734C133.633 555.958 133.227 556.263 132.898 556.648C132.57 557.034 132.323 557.484 132.156 558C131.995 558.516 131.914 559.062 131.914 559.641V559.914C131.914 560.497 131.997 561.047 132.164 561.562C132.331 562.073 132.578 562.521 132.906 562.906C133.229 563.292 133.633 563.599 134.117 563.828C134.607 564.052 135.177 564.164 135.828 564.164C136.297 564.164 136.742 564.089 137.164 563.938C137.591 563.781 137.969 563.568 138.297 563.297C138.62 563.036 138.875 562.727 139.062 562.367C139.255 562.003 139.349 561.615 139.344 561.203H137.586C137.586 561.417 137.536 561.612 137.438 561.789C137.344 561.966 137.216 562.12 137.055 562.25C136.888 562.38 136.695 562.482 136.477 562.555C136.263 562.622 136.039 562.656 135.805 562.656ZM143.602 556.75V552H141.734V564H143.602V557.883C143.69 557.747 143.792 557.625 143.906 557.516C144.026 557.406 144.154 557.312 144.289 557.234C144.451 557.135 144.628 557.06 144.82 557.008C145.018 556.956 145.227 556.93 145.445 556.93C145.727 556.93 145.974 556.969 146.188 557.047C146.406 557.12 146.591 557.234 146.742 557.391C146.888 557.536 146.997 557.727 147.07 557.961C147.148 558.195 147.188 558.469 147.188 558.781V564H149.055V558.797C149.055 558.198 148.982 557.685 148.836 557.258C148.695 556.826 148.495 556.471 148.234 556.195C147.974 555.919 147.659 555.716 147.289 555.586C146.924 555.456 146.521 555.391 146.078 555.391C145.76 555.391 145.458 555.438 145.172 555.531C144.891 555.62 144.633 555.75 144.398 555.922C144.247 556.026 144.104 556.148 143.969 556.289C143.833 556.43 143.711 556.583 143.602 556.75ZM155.289 564.156C156.112 564.156 156.812 563.995 157.391 563.672C157.974 563.349 158.406 562.984 158.688 562.578L157.688 561.609C157.427 561.943 157.096 562.201 156.695 562.383C156.294 562.56 155.862 562.648 155.398 562.648C155.06 562.648 154.747 562.591 154.461 562.477C154.18 562.362 153.935 562.201 153.727 561.992C153.518 561.794 153.354 561.57 153.234 561.32C153.115 561.07 153.026 560.76 152.969 560.391V560.352H158.828V559.547C158.828 558.943 158.747 558.385 158.586 557.875C158.424 557.365 158.185 556.924 157.867 556.555C157.549 556.19 157.156 555.906 156.688 555.703C156.219 555.495 155.68 555.391 155.07 555.391C154.523 555.391 154.008 555.495 153.523 555.703C153.044 555.906 152.622 556.198 152.258 556.578C151.893 556.958 151.607 557.417 151.398 557.953C151.19 558.49 151.086 559.089 151.086 559.75V560.07C151.086 560.648 151.185 561.188 151.383 561.688C151.586 562.182 151.872 562.612 152.242 562.977C152.612 563.346 153.055 563.635 153.57 563.844C154.091 564.052 154.664 564.156 155.289 564.156ZM155.062 556.906C155.375 556.906 155.648 556.961 155.883 557.07C156.122 557.174 156.32 557.315 156.477 557.492C156.638 557.674 156.763 557.888 156.852 558.133C156.94 558.372 156.984 558.615 156.984 558.859V558.984H153.008C153.065 558.661 153.154 558.372 153.273 558.117C153.393 557.862 153.542 557.643 153.719 557.461C153.896 557.284 154.096 557.148 154.32 557.055C154.549 556.956 154.797 556.906 155.062 556.906Z"/><path fill="#fff" fill-opacity=".6" d="M84.9141 157.898V156.383H80.2109V153.18H85.6641V151.625H78.3281V163H85.7031V161.453H80.2109V157.898H84.9141ZM91.6328 152.484H89.7578V154.547H87.7109V155.945H89.7578V160.102C89.7578 160.643 89.8281 161.107 89.9688 161.492C90.1146 161.878 90.3151 162.193 90.5703 162.438C90.8255 162.688 91.1302 162.872 91.4844 162.992C91.8438 163.107 92.237 163.164 92.6641 163.164C92.8984 163.164 93.1328 163.151 93.3672 163.125C93.6068 163.104 93.8359 163.073 94.0547 163.031C94.2734 162.99 94.4766 162.94 94.6641 162.883C94.8568 162.82 95.0208 162.747 95.1562 162.664L94.9531 161.375C94.8594 161.396 94.7422 161.422 94.6016 161.453C94.4661 161.479 94.3203 161.503 94.1641 161.523C94.0026 161.549 93.8359 161.57 93.6641 161.586C93.4922 161.602 93.3255 161.609 93.1641 161.609C92.9401 161.609 92.7344 161.583 92.5469 161.531C92.3594 161.479 92.1979 161.391 92.0625 161.266C91.9271 161.146 91.8203 160.982 91.7422 160.773C91.6693 160.56 91.6328 160.297 91.6328 159.984V155.945H94.8125V154.547H91.6328V152.484ZM99.3594 155.75V151H97.4922V163H99.3594V156.883C99.4479 156.747 99.5495 156.625 99.6641 156.516C99.7839 156.406 99.9115 156.312 100.047 156.234C100.208 156.135 100.385 156.06 100.578 156.008C100.776 155.956 100.984 155.93 101.203 155.93C101.484 155.93 101.732 155.969 101.945 156.047C102.164 156.12 102.349 156.234 102.5 156.391C102.646 156.536 102.755 156.727 102.828 156.961C102.906 157.195 102.945 157.469 102.945 157.781V163H104.812V157.797C104.812 157.198 104.74 156.685 104.594 156.258C104.453 155.826 104.253 155.471 103.992 155.195C103.732 154.919 103.417 154.716 103.047 154.586C102.682 154.456 102.279 154.391 101.836 154.391C101.518 154.391 101.216 154.438 100.93 154.531C100.648 154.62 100.391 154.75 100.156 154.922C100.005 155.026 99.862 155.148 99.7266 155.289C99.5911 155.43 99.4688 155.583 99.3594 155.75ZM111.047 163.156C111.87 163.156 112.57 162.995 113.148 162.672C113.732 162.349 114.164 161.984 114.445 161.578L113.445 160.609C113.185 160.943 112.854 161.201 112.453 161.383C112.052 161.56 111.62 161.648 111.156 161.648C110.818 161.648 110.505 161.591 110.219 161.477C109.938 161.362 109.693 161.201 109.484 160.992C109.276 160.794 109.112 160.57 108.992 160.32C108.872 160.07 108.784 159.76 108.727 159.391V159.352H114.586V158.547C114.586 157.943 114.505 157.385 114.344 156.875C114.182 156.365 113.943 155.924 113.625 155.555C113.307 155.19 112.914 154.906 112.445 154.703C111.977 154.495 111.438 154.391 110.828 154.391C110.281 154.391 109.766 154.495 109.281 154.703C108.802 154.906 108.38 155.198 108.016 155.578C107.651 155.958 107.365 156.417 107.156 156.953C106.948 157.49 106.844 158.089 106.844 158.75V159.07C106.844 159.648 106.943 160.188 107.141 160.688C107.344 161.182 107.63 161.612 108 161.977C108.37 162.346 108.812 162.635 109.328 162.844C109.849 163.052 110.422 163.156 111.047 163.156ZM110.82 155.906C111.133 155.906 111.406 155.961 111.641 156.07C111.88 156.174 112.078 156.315 112.234 156.492C112.396 156.674 112.521 156.888 112.609 157.133C112.698 157.372 112.742 157.615 112.742 157.859V157.984H108.766C108.823 157.661 108.911 157.372 109.031 157.117C109.151 156.862 109.299 156.643 109.477 156.461C109.654 156.284 109.854 156.148 110.078 156.055C110.307 155.956 110.555 155.906 110.82 155.906ZM122.555 154.391C121.971 154.391 121.438 154.526 120.953 154.797C120.474 155.068 120.062 155.44 119.719 155.914L119.711 155.719L119.633 154.547H117.883V163H119.75V157.781C119.849 157.531 119.971 157.31 120.117 157.117C120.263 156.924 120.44 156.766 120.648 156.641C120.841 156.51 121.062 156.414 121.312 156.352C121.562 156.289 121.844 156.258 122.156 156.258C122.432 156.258 122.708 156.273 122.984 156.305C123.266 156.336 123.549 156.383 123.836 156.445L124.102 154.602C123.94 154.544 123.716 154.495 123.43 154.453C123.148 154.411 122.857 154.391 122.555 154.391ZM130.266 163.156C131.089 163.156 131.789 162.995 132.367 162.672C132.951 162.349 133.383 161.984 133.664 161.578L132.664 160.609C132.404 160.943 132.073 161.201 131.672 161.383C131.271 161.56 130.839 161.648 130.375 161.648C130.036 161.648 129.724 161.591 129.438 161.477C129.156 161.362 128.911 161.201 128.703 160.992C128.495 160.794 128.331 160.57 128.211 160.32C128.091 160.07 128.003 159.76 127.945 159.391V159.352H133.805V158.547C133.805 157.943 133.724 157.385 133.562 156.875C133.401 156.365 133.161 155.924 132.844 155.555C132.526 155.19 132.133 154.906 131.664 154.703C131.195 154.495 130.656 154.391 130.047 154.391C129.5 154.391 128.984 154.495 128.5 154.703C128.021 154.906 127.599 155.198 127.234 155.578C126.87 155.958 126.583 156.417 126.375 156.953C126.167 157.49 126.062 158.089 126.062 158.75V159.07C126.062 159.648 126.161 160.188 126.359 160.688C126.562 161.182 126.849 161.612 127.219 161.977C127.589 162.346 128.031 162.635 128.547 162.844C129.068 163.052 129.641 163.156 130.266 163.156ZM130.039 155.906C130.352 155.906 130.625 155.961 130.859 156.07C131.099 156.174 131.297 156.315 131.453 156.492C131.615 156.674 131.74 156.888 131.828 157.133C131.917 157.372 131.961 157.615 131.961 157.859V157.984H127.984C128.042 157.661 128.13 157.372 128.25 157.117C128.37 156.862 128.518 156.643 128.695 156.461C128.872 156.284 129.073 156.148 129.297 156.055C129.526 155.956 129.773 155.906 130.039 155.906ZM141.469 163H143.164V154.547H141.289V160.531C141.216 160.688 141.128 160.831 141.023 160.961C140.919 161.086 140.799 161.195 140.664 161.289C140.503 161.393 140.315 161.477 140.102 161.539C139.888 161.596 139.646 161.625 139.375 161.625C139.115 161.625 138.888 161.591 138.695 161.523C138.503 161.456 138.344 161.341 138.219 161.18C138.094 161.023 138.003 160.815 137.945 160.555C137.888 160.289 137.859 159.961 137.859 159.57V154.547H135.992V159.555C135.992 160.19 136.062 160.737 136.203 161.195C136.344 161.648 136.542 162.021 136.797 162.312C137.057 162.604 137.367 162.82 137.727 162.961C138.091 163.096 138.492 163.164 138.93 163.164C139.44 163.164 139.901 163.047 140.312 162.812C140.724 162.573 141.073 162.242 141.359 161.82L141.469 163ZM146.602 154.547H144.977V163H146.695V156.508C146.727 156.43 146.76 156.359 146.797 156.297C146.839 156.234 146.885 156.18 146.938 156.133C147.005 156.065 147.086 156.016 147.18 155.984C147.279 155.948 147.391 155.93 147.516 155.93C147.63 155.93 147.732 155.945 147.82 155.977C147.914 156.008 147.995 156.057 148.062 156.125C148.13 156.193 148.18 156.286 148.211 156.406C148.247 156.521 148.266 156.661 148.266 156.828V163H149.953V156.727C149.953 156.674 149.953 156.635 149.953 156.609C149.953 156.578 149.953 156.552 149.953 156.531C149.974 156.443 150.005 156.365 150.047 156.297C150.089 156.224 150.141 156.161 150.203 156.109C150.271 156.052 150.349 156.008 150.438 155.977C150.526 155.945 150.63 155.93 150.75 155.93C150.865 155.93 150.969 155.945 151.062 155.977C151.161 156.008 151.245 156.057 151.312 156.125C151.38 156.198 151.432 156.294 151.469 156.414C151.505 156.529 151.523 156.669 151.523 156.836V163H153.242V156.852C153.242 156.409 153.195 156.031 153.102 155.719C153.013 155.401 152.885 155.143 152.719 154.945C152.552 154.758 152.354 154.62 152.125 154.531C151.901 154.438 151.654 154.391 151.383 154.391C151.174 154.391 150.982 154.417 150.805 154.469C150.633 154.521 150.477 154.594 150.336 154.688C150.227 154.76 150.125 154.849 150.031 154.953C149.938 155.057 149.854 155.169 149.781 155.289C149.729 155.159 149.667 155.044 149.594 154.945C149.521 154.841 149.438 154.753 149.344 154.68C149.224 154.581 149.081 154.508 148.914 154.461C148.747 154.414 148.56 154.391 148.352 154.391C147.951 154.391 147.607 154.487 147.32 154.68C147.039 154.872 146.818 155.138 146.656 155.477L146.602 154.547Z"/><path fill="#fff" fill-opacity=".6" d="M250.18 559.156V557.609H245.367V554.18H250.867V552.625H243.477V564H245.367V559.156H250.18ZM258.391 564H260.297V563.867C260.193 563.648 260.112 563.388 260.055 563.086C260.003 562.779 259.977 562.435 259.977 562.055V558.297C259.977 557.818 259.888 557.396 259.711 557.031C259.534 556.661 259.289 556.357 258.977 556.117C258.664 555.878 258.292 555.698 257.859 555.578C257.432 555.453 256.971 555.391 256.477 555.391C255.924 555.391 255.432 555.464 255 555.609C254.573 555.75 254.214 555.943 253.922 556.188C253.62 556.427 253.391 556.703 253.234 557.016C253.078 557.328 252.997 557.654 252.992 557.992H254.867C254.867 557.831 254.896 557.68 254.953 557.539C255.016 557.393 255.109 557.271 255.234 557.172C255.359 557.062 255.516 556.977 255.703 556.914C255.896 556.852 256.12 556.82 256.375 556.82C256.656 556.82 256.904 556.857 257.117 556.93C257.336 556.997 257.521 557.096 257.672 557.227C257.812 557.357 257.919 557.51 257.992 557.688C258.07 557.865 258.109 558.062 258.109 558.281V558.852H256.75C256.141 558.852 255.594 558.909 255.109 559.023C254.63 559.138 254.227 559.305 253.898 559.523C253.544 559.758 253.273 560.055 253.086 560.414C252.904 560.768 252.812 561.177 252.812 561.641C252.812 562 252.883 562.336 253.023 562.648C253.169 562.956 253.372 563.219 253.633 563.438C253.888 563.661 254.195 563.839 254.555 563.969C254.919 564.094 255.32 564.156 255.758 564.156C256.029 564.156 256.281 564.13 256.516 564.078C256.75 564.026 256.969 563.953 257.172 563.859C257.375 563.771 257.557 563.667 257.719 563.547C257.885 563.422 258.034 563.292 258.164 563.156C258.19 563.318 258.219 563.474 258.25 563.625C258.286 563.771 258.333 563.896 258.391 564ZM256.117 562.656C255.878 562.656 255.669 562.628 255.492 562.57C255.315 562.508 255.167 562.424 255.047 562.32C254.927 562.216 254.836 562.091 254.773 561.945C254.711 561.794 254.68 561.633 254.68 561.461C254.68 561.253 254.716 561.065 254.789 560.898C254.867 560.732 254.984 560.589 255.141 560.469C255.318 560.328 255.555 560.221 255.852 560.148C256.148 560.07 256.5 560.031 256.906 560.031H258.109V561.594C258.042 561.729 257.945 561.859 257.82 561.984C257.695 562.109 257.547 562.221 257.375 562.32C257.203 562.419 257.01 562.5 256.797 562.562C256.589 562.625 256.362 562.656 256.117 562.656ZM262.602 564H264.469V557.969C264.552 557.828 264.648 557.698 264.758 557.578C264.867 557.458 264.984 557.357 265.109 557.273C265.271 557.164 265.451 557.081 265.648 557.023C265.846 556.961 266.06 556.93 266.289 556.93C266.565 556.93 266.81 556.961 267.023 557.023C267.237 557.081 267.419 557.18 267.57 557.32C267.721 557.461 267.836 557.648 267.914 557.883C267.992 558.117 268.031 558.409 268.031 558.758V564H269.898V558.727C269.898 558.133 269.828 557.628 269.688 557.211C269.547 556.789 269.349 556.443 269.094 556.172C268.839 555.901 268.531 555.703 268.172 555.578C267.812 555.453 267.417 555.391 266.984 555.391C266.656 555.391 266.344 555.438 266.047 555.531C265.75 555.625 265.477 555.758 265.227 555.93C265.07 556.039 264.922 556.164 264.781 556.305C264.646 556.44 264.521 556.589 264.406 556.75L264.289 555.547H262.602V564ZM275.961 553.484H274.086V555.547H272.039V556.945H274.086V561.102C274.086 561.643 274.156 562.107 274.297 562.492C274.443 562.878 274.643 563.193 274.898 563.438C275.154 563.688 275.458 563.872 275.812 563.992C276.172 564.107 276.565 564.164 276.992 564.164C277.227 564.164 277.461 564.151 277.695 564.125C277.935 564.104 278.164 564.073 278.383 564.031C278.602 563.99 278.805 563.94 278.992 563.883C279.185 563.82 279.349 563.747 279.484 563.664L279.281 562.375C279.188 562.396 279.07 562.422 278.93 562.453C278.794 562.479 278.648 562.503 278.492 562.523C278.331 562.549 278.164 562.57 277.992 562.586C277.82 562.602 277.654 562.609 277.492 562.609C277.268 562.609 277.062 562.583 276.875 562.531C276.688 562.479 276.526 562.391 276.391 562.266C276.255 562.146 276.148 561.982 276.07 561.773C275.997 561.56 275.961 561.297 275.961 560.984V556.945H279.141V555.547H275.961V553.484ZM281.477 559.695V559.859C281.477 560.479 281.565 561.049 281.742 561.57C281.919 562.091 282.177 562.544 282.516 562.93C282.849 563.315 283.26 563.617 283.75 563.836C284.24 564.055 284.794 564.164 285.414 564.164C286.029 564.164 286.578 564.055 287.062 563.836C287.552 563.617 287.964 563.315 288.297 562.93C288.63 562.544 288.885 562.091 289.062 561.57C289.24 561.049 289.328 560.479 289.328 559.859V559.695C289.328 559.081 289.24 558.513 289.062 557.992C288.885 557.466 288.63 557.01 288.297 556.625C287.958 556.24 287.544 555.938 287.055 555.719C286.57 555.5 286.018 555.391 285.398 555.391C284.779 555.391 284.227 555.5 283.742 555.719C283.258 555.938 282.849 556.24 282.516 556.625C282.177 557.01 281.919 557.466 281.742 557.992C281.565 558.513 281.477 559.081 281.477 559.695ZM283.344 559.859V559.695C283.344 559.326 283.383 558.971 283.461 558.633C283.544 558.294 283.672 557.997 283.844 557.742C284.01 557.487 284.221 557.284 284.477 557.133C284.737 556.982 285.044 556.906 285.398 556.906C285.758 556.906 286.065 556.982 286.32 557.133C286.581 557.284 286.797 557.487 286.969 557.742C287.13 557.997 287.253 558.294 287.336 558.633C287.419 558.971 287.461 559.326 287.461 559.695V559.859C287.461 560.24 287.419 560.599 287.336 560.938C287.258 561.276 287.135 561.573 286.969 561.828C286.802 562.083 286.589 562.286 286.328 562.438C286.068 562.583 285.763 562.656 285.414 562.656C285.055 562.656 284.745 562.583 284.484 562.438C284.224 562.286 284.01 562.083 283.844 561.828C283.672 561.573 283.544 561.276 283.461 560.938C283.383 560.599 283.344 560.24 283.344 559.859ZM292.492 555.547H290.867V564H292.586V557.508C292.617 557.43 292.651 557.359 292.688 557.297C292.729 557.234 292.776 557.18 292.828 557.133C292.896 557.065 292.977 557.016 293.07 556.984C293.169 556.948 293.281 556.93 293.406 556.93C293.521 556.93 293.622 556.945 293.711 556.977C293.805 557.008 293.885 557.057 293.953 557.125C294.021 557.193 294.07 557.286 294.102 557.406C294.138 557.521 294.156 557.661 294.156 557.828V564H295.844V557.727C295.844 557.674 295.844 557.635 295.844 557.609C295.844 557.578 295.844 557.552 295.844 557.531C295.865 557.443 295.896 557.365 295.938 557.297C295.979 557.224 296.031 557.161 296.094 557.109C296.161 557.052 296.24 557.008 296.328 556.977C296.417 556.945 296.521 556.93 296.641 556.93C296.755 556.93 296.859 556.945 296.953 556.977C297.052 557.008 297.135 557.057 297.203 557.125C297.271 557.198 297.323 557.294 297.359 557.414C297.396 557.529 297.414 557.669 297.414 557.836V564H299.133V557.852C299.133 557.409 299.086 557.031 298.992 556.719C298.904 556.401 298.776 556.143 298.609 555.945C298.443 555.758 298.245 555.62 298.016 555.531C297.792 555.438 297.544 555.391 297.273 555.391C297.065 555.391 296.872 555.417 296.695 555.469C296.523 555.521 296.367 555.594 296.227 555.688C296.117 555.76 296.016 555.849 295.922 555.953C295.828 556.057 295.745 556.169 295.672 556.289C295.62 556.159 295.557 556.044 295.484 555.945C295.411 555.841 295.328 555.753 295.234 555.68C295.115 555.581 294.971 555.508 294.805 555.461C294.638 555.414 294.451 555.391 294.242 555.391C293.841 555.391 293.497 555.487 293.211 555.68C292.93 555.872 292.708 556.138 292.547 556.477L292.492 555.547Z"/><path fill="#fff" fill-opacity=".6" d="M241.547 158.664H243.477C244.049 158.664 244.576 158.581 245.055 158.414C245.539 158.247 245.956 158.01 246.305 157.703C246.654 157.401 246.924 157.039 247.117 156.617C247.31 156.19 247.406 155.714 247.406 155.188C247.406 154.641 247.31 154.148 247.117 153.711C246.924 153.273 246.654 152.901 246.305 152.594C245.956 152.286 245.539 152.049 245.055 151.883C244.576 151.716 244.049 151.63 243.477 151.625H239.672V163H241.547V158.664ZM241.547 157.133V153.156H243.477C243.794 153.161 244.078 153.214 244.328 153.312C244.583 153.411 244.799 153.552 244.977 153.734C245.154 153.917 245.286 154.133 245.375 154.383C245.469 154.628 245.516 154.901 245.516 155.203C245.516 155.479 245.469 155.734 245.375 155.969C245.286 156.203 245.154 156.406 244.977 156.578C244.799 156.75 244.583 156.885 244.328 156.984C244.078 157.078 243.794 157.128 243.477 157.133H241.547ZM248.844 158.695V158.859C248.844 159.479 248.932 160.049 249.109 160.57C249.286 161.091 249.544 161.544 249.883 161.93C250.216 162.315 250.628 162.617 251.117 162.836C251.607 163.055 252.161 163.164 252.781 163.164C253.396 163.164 253.945 163.055 254.43 162.836C254.919 162.617 255.331 162.315 255.664 161.93C255.997 161.544 256.253 161.091 256.43 160.57C256.607 160.049 256.695 159.479 256.695 158.859V158.695C256.695 158.081 256.607 157.513 256.43 156.992C256.253 156.466 255.997 156.01 255.664 155.625C255.326 155.24 254.911 154.938 254.422 154.719C253.938 154.5 253.385 154.391 252.766 154.391C252.146 154.391 251.594 154.5 251.109 154.719C250.625 154.938 250.216 155.24 249.883 155.625C249.544 156.01 249.286 156.466 249.109 156.992C248.932 157.513 248.844 158.081 248.844 158.695ZM250.711 158.859V158.695C250.711 158.326 250.75 157.971 250.828 157.633C250.911 157.294 251.039 156.997 251.211 156.742C251.378 156.487 251.589 156.284 251.844 156.133C252.104 155.982 252.411 155.906 252.766 155.906C253.125 155.906 253.432 155.982 253.688 156.133C253.948 156.284 254.164 156.487 254.336 156.742C254.497 156.997 254.62 157.294 254.703 157.633C254.786 157.971 254.828 158.326 254.828 158.695V158.859C254.828 159.24 254.786 159.599 254.703 159.938C254.625 160.276 254.503 160.573 254.336 160.828C254.169 161.083 253.956 161.286 253.695 161.438C253.435 161.583 253.13 161.656 252.781 161.656C252.422 161.656 252.112 161.583 251.852 161.438C251.591 161.286 251.378 161.083 251.211 160.828C251.039 160.573 250.911 160.276 250.828 159.938C250.75 159.599 250.711 159.24 250.711 158.859ZM259.156 151V152.555H261.828V161.453H259.156V163H266.273V161.453H263.711V151H259.156ZM269.469 166.414C269.88 166.414 270.24 166.341 270.547 166.195C270.854 166.055 271.12 165.878 271.344 165.664C271.568 165.456 271.753 165.227 271.898 164.977C272.049 164.732 272.174 164.5 272.273 164.281L276.562 154.547H274.492L272.453 159.734L272.102 160.641L271.812 159.711L269.711 154.547H267.656L271.258 162.625L270.727 163.633C270.669 163.747 270.607 163.857 270.539 163.961C270.477 164.065 270.393 164.185 270.289 164.32C270.18 164.456 270.052 164.576 269.906 164.68C269.76 164.789 269.596 164.844 269.414 164.844C269.331 164.844 269.221 164.839 269.086 164.828C268.956 164.823 268.839 164.818 268.734 164.812L268.477 166.273C268.628 166.31 268.784 166.341 268.945 166.367C269.112 166.398 269.286 166.414 269.469 166.414ZM277.773 158.711V158.875C277.773 159.484 277.852 160.052 278.008 160.578C278.169 161.099 278.396 161.549 278.688 161.93C278.984 162.315 279.341 162.617 279.758 162.836C280.174 163.049 280.643 163.156 281.164 163.156C281.451 163.156 281.716 163.125 281.961 163.062C282.206 163.005 282.43 162.919 282.633 162.805C282.768 162.732 282.893 162.646 283.008 162.547C283.128 162.448 283.242 162.341 283.352 162.227V162.812C283.352 163.13 283.305 163.414 283.211 163.664C283.122 163.914 282.995 164.125 282.828 164.297C282.646 164.474 282.424 164.609 282.164 164.703C281.909 164.797 281.615 164.844 281.281 164.844C281.089 164.844 280.898 164.823 280.711 164.781C280.523 164.745 280.339 164.685 280.156 164.602C279.974 164.518 279.794 164.409 279.617 164.273C279.445 164.143 279.284 163.987 279.133 163.805L278.25 164.938C278.438 165.188 278.661 165.401 278.922 165.578C279.182 165.755 279.456 165.898 279.742 166.008C280.029 166.117 280.315 166.198 280.602 166.25C280.888 166.302 281.151 166.328 281.391 166.328C281.958 166.328 282.477 166.247 282.945 166.086C283.419 165.93 283.826 165.701 284.164 165.398C284.497 165.091 284.755 164.716 284.938 164.273C285.125 163.836 285.219 163.333 285.219 162.766V154.547H283.523L283.445 155.398C283.341 155.273 283.229 155.159 283.109 155.055C282.99 154.945 282.862 154.852 282.727 154.773C282.518 154.648 282.286 154.555 282.031 154.492C281.776 154.424 281.492 154.391 281.18 154.391C280.654 154.391 280.18 154.497 279.758 154.711C279.341 154.919 278.984 155.214 278.688 155.594C278.391 155.974 278.164 156.43 278.008 156.961C277.852 157.487 277.773 158.07 277.773 158.711ZM279.648 158.875V158.711C279.648 158.331 279.688 157.974 279.766 157.641C279.844 157.302 279.966 157.005 280.133 156.75C280.294 156.495 280.5 156.294 280.75 156.148C281 156.003 281.299 155.93 281.648 155.93C281.846 155.93 282.029 155.953 282.195 156C282.362 156.042 282.513 156.099 282.648 156.172C282.799 156.26 282.932 156.367 283.047 156.492C283.167 156.617 283.268 156.758 283.352 156.914V160.617C283.268 160.768 283.172 160.906 283.062 161.031C282.953 161.156 282.828 161.263 282.688 161.352C282.547 161.435 282.388 161.5 282.211 161.547C282.039 161.594 281.846 161.617 281.633 161.617C281.289 161.617 280.992 161.547 280.742 161.406C280.492 161.26 280.286 161.06 280.125 160.805C279.958 160.56 279.836 160.271 279.758 159.938C279.685 159.604 279.648 159.25 279.648 158.875ZM287.281 158.695V158.859C287.281 159.479 287.37 160.049 287.547 160.57C287.724 161.091 287.982 161.544 288.32 161.93C288.654 162.315 289.065 162.617 289.555 162.836C290.044 163.055 290.599 163.164 291.219 163.164C291.833 163.164 292.383 163.055 292.867 162.836C293.357 162.617 293.768 162.315 294.102 161.93C294.435 161.544 294.69 161.091 294.867 160.57C295.044 160.049 295.133 159.479 295.133 158.859V158.695C295.133 158.081 295.044 157.513 294.867 156.992C294.69 156.466 294.435 156.01 294.102 155.625C293.763 155.24 293.349 154.938 292.859 154.719C292.375 154.5 291.823 154.391 291.203 154.391C290.583 154.391 290.031 154.5 289.547 154.719C289.062 154.938 288.654 155.24 288.32 155.625C287.982 156.01 287.724 156.466 287.547 156.992C287.37 157.513 287.281 158.081 287.281 158.695ZM289.148 158.859V158.695C289.148 158.326 289.188 157.971 289.266 157.633C289.349 157.294 289.477 156.997 289.648 156.742C289.815 156.487 290.026 156.284 290.281 156.133C290.542 155.982 290.849 155.906 291.203 155.906C291.562 155.906 291.87 155.982 292.125 156.133C292.385 156.284 292.602 156.487 292.773 156.742C292.935 156.997 293.057 157.294 293.141 157.633C293.224 157.971 293.266 158.326 293.266 158.695V158.859C293.266 159.24 293.224 159.599 293.141 159.938C293.062 160.276 292.94 160.573 292.773 160.828C292.607 161.083 292.393 161.286 292.133 161.438C291.872 161.583 291.568 161.656 291.219 161.656C290.859 161.656 290.549 161.583 290.289 161.438C290.029 161.286 289.815 161.083 289.648 160.828C289.477 160.573 289.349 160.276 289.266 159.938C289.188 159.599 289.148 159.24 289.148 158.859ZM297.234 163H299.102V156.969C299.185 156.828 299.281 156.698 299.391 156.578C299.5 156.458 299.617 156.357 299.742 156.273C299.904 156.164 300.083 156.081 300.281 156.023C300.479 155.961 300.693 155.93 300.922 155.93C301.198 155.93 301.443 155.961 301.656 156.023C301.87 156.081 302.052 156.18 302.203 156.32C302.354 156.461 302.469 156.648 302.547 156.883C302.625 157.117 302.664 157.409 302.664 157.758V163H304.531V157.727C304.531 157.133 304.461 156.628 304.32 156.211C304.18 155.789 303.982 155.443 303.727 155.172C303.471 154.901 303.164 154.703 302.805 154.578C302.445 154.453 302.049 154.391 301.617 154.391C301.289 154.391 300.977 154.438 300.68 154.531C300.383 154.625 300.109 154.758 299.859 154.93C299.703 155.039 299.555 155.164 299.414 155.305C299.279 155.44 299.154 155.589 299.039 155.75L298.922 154.547H297.234V163Z"/><defs><linearGradient id="paint0_linear_120_311" x1="348.178" x2="38.237" y1="356.455" y2="356.455" gradientUnits="userSpaceOnUse"><stop stop-color="#fff" stop-opacity="0"/><stop offset=".5" stop-color="#fff"/><stop offset="1" stop-color="#fff" stop-opacity="0"/></linearGradient><linearGradient id="paint1_linear_120_311" x1="177.514" x2="204.992" y1="106.716" y2="75.316" gradientUnits="userSpaceOnUse"><stop offset=".08" stop-color="#9945FF"/><stop offset=".3" stop-color="#8752F3"/><stop offset=".5" stop-color="#5497D5"/><stop offset=".6" stop-color="#43B4CA"/><stop offset=".72" stop-color="#28E0B9"/><stop offset=".97" stop-color="#19FB9B"/></linearGradient><linearGradient id="paint2_linear_120_311" x1="193.98" x2="219.838" y1="339.866" y2="375.742" gradientUnits="userSpaceOnUse"><stop stop-color="#F213A4"/><stop offset="1" stop-color="#5204BF"/></linearGradient></defs></svg>