<svg xmlns="http://www.w3.org/2000/svg" width="89" height="88" fill="none" viewBox="0 0 89 88"><path fill="#bbb" d="M87.44 71.96L51.12 35.64C54.84 26.28 52.92 15.24 45.36 7.64C36.16 -1.56 21.84 -2.4 11.64 5.04L27 20.44L21.32 26.08L6 10.76C-1.44 20.92 -0.600001 35.28 8.6 44.44C16.04 51.88 26.88 53.84 36.16 50.36L72.6 86.8C74.16 88.36 76.68 88.36 78.24 86.8L87.44 77.6C89.04 76.08 89.04 73.56 87.44 71.96ZM75.44 78.36L37.6 40.52C35.16 42.32 32.44 43.4 29.6 43.8C24.16 44.6 18.44 42.96 14.28 38.8C10.48 35.04 8.72 30 9 25.04L21.36 37.4L38.32 20.44L25.96 8.08C30.92 7.8 35.92 9.56 39.72 13.32C44.04 17.64 45.68 23.6 44.68 29.16C44.2 32 43 34.64 41.16 37L78.96 74.8L75.44 78.36Z"/></svg>