<svg xmlns="http://www.w3.org/2000/svg" width="110" height="26" fill="none" viewBox="0 0 110 26"><mask id="mask0_2_35" style="mask-type:luminance" width="109" height="24" x="0" y="1" maskUnits="userSpaceOnUse"><path fill="#fff" d="M108.813 1.04059H0.638809V24.2896H108.813V1.04059Z"/></mask><g mask="url(#mask0_2_35)"><path fill="#BABABA" d="M18.7903 1.15082V10.7742H4.95436V1.15082H0.638809V23.8326H4.95436V14.478H18.7858V23.8326H23.1102V1.15082H18.7903Z"/><path fill="#BABABA" d="M42.8989 1.15067H38.5396L28.1453 23.8324H32.5981L34.9195 18.7721H46.5234L48.8446 23.8324H53.3062L42.8989 1.15067ZM36.6304 15.0324L40.7237 6.14334L44.8103 15.0324H36.6304Z"/><path fill="#BABABA" d="M68.1987 24.2918C61.6795 24.2918 57.157 20.6473 57.157 14.0736V1.15067H61.4769V13.7731C61.4769 17.9171 64.1577 20.4399 68.2989 20.4525C72.4401 20.4653 74.964 17.5995 74.964 13.7731V1.15067H79.2403V14.0736C79.2403 20.4462 74.465 24.2918 68.1987 24.2918Z"/><path fill="#BABABA" d="M91.7863 1.10408L104.534 19.2482L104.619 1.23107L108.813 1.27975L108.538 23.9382L102.654 23.8706L90.4675 6.35707L90.2497 23.7457L86.0626 23.6991L86.3351 1.04059L91.7863 1.10408Z"/></g></svg>