<svg xmlns="http://www.w3.org/2000/svg" width="516" height="321" fill="none" viewBox="0 0 516 321"><g clip-path="url(#clip0_3:35)"><path fill="url(#paint0_linear_3:35)" d="M1.40497 27.0011C-3.73633 14.022 5.84519 0 19.8669 0H106.919C115.098 0 122.342 4.86715 125.381 12.3996L194.671 185.299C196.541 189.935 196.541 195.149 194.671 199.901L151.087 308.484C144.427 325.056 120.823 325.056 114.163 308.484L1.40497 27.0011Z"/><path fill="url(#paint1_linear_3:35)" d="M169.547 26.4217C164.873 13.5585 174.454 0 188.242 0H264.077C272.49 0 279.968 5.2148 282.772 12.9791L345.753 185.879C347.272 190.166 347.272 194.918 345.753 199.321L307.894 303.27C301.585 320.652 276.813 320.652 270.503 303.27L169.547 26.4217Z"/><path fill="url(#paint2_linear_3:35)" d="M321.331 27.0011C316.19 14.022 325.771 0 339.793 0H426.845C435.024 0 442.269 4.86715 445.307 12.3996L514.597 185.299C516.467 189.935 516.467 195.149 514.597 199.901L471.013 308.484C464.353 325.056 440.75 325.056 434.089 308.484L321.331 27.0011Z"/></g><defs><linearGradient id="paint0_linear_3:35" x1="7.405" x2="260.485" y1="55.24" y2="164.437" gradientUnits="userSpaceOnUse"><stop stop-color="#F213A4"/><stop offset=".152" stop-color="#E011A7"/><stop offset=".455" stop-color="#B20DAF"/><stop offset=".879" stop-color="#6806BB"/><stop offset="1" stop-color="#5204BF"/></linearGradient><linearGradient id="paint1_linear_3:35" x1="175.093" x2="410.968" y1="54.447" y2="148.471" gradientUnits="userSpaceOnUse"><stop stop-color="#F213A4"/><stop offset=".152" stop-color="#E011A7"/><stop offset=".455" stop-color="#B20DAF"/><stop offset=".879" stop-color="#6806BB"/><stop offset="1" stop-color="#5204BF"/></linearGradient><linearGradient id="paint2_linear_3:35" x1="327.331" x2="580.411" y1="55.24" y2="164.437" gradientUnits="userSpaceOnUse"><stop stop-color="#F213A4"/><stop offset=".152" stop-color="#E011A7"/><stop offset=".455" stop-color="#B20DAF"/><stop offset=".879" stop-color="#6806BB"/><stop offset="1" stop-color="#5204BF"/></linearGradient><clipPath id="clip0_3:35"><rect width="516" height="321" fill="#fff"/></clipPath></defs></svg>