<svg xmlns="http://www.w3.org/2000/svg" width="2003" height="321" fill="none" viewBox="0 0 2003 321"><path fill="#262A36" fill-rule="evenodd" d="M977.582 29C961.29 29 947.931 42.2034 947.931 59.0377C947.931 75.542 961.29 88.7454 977.582 88.7454C993.874 88.7454 1007.23 75.542 1007.23 59.0377C1007.23 42.2034 993.874 29 977.582 29ZM1003.65 103.929H951.84V281.844H1003.65V103.929ZM649.46 35.602H699.966V103.93H738.741V151.462H699.966V214.178C699.966 223.42 707.134 230.682 715.932 230.682H738.415V281.185H715.932C679.438 281.185 649.46 251.147 649.46 213.848V151.132H626V103.6H649.46V35.602ZM862.234 99.9686C838.774 99.9686 820.201 109.871 813.032 125.385V35.602H761.224V281.515H813.032V181.83C813.032 161.034 826.392 146.511 845.291 146.511C864.515 146.511 875.268 159.054 875.268 180.179V281.845H927.076V173.578C927.076 127.366 903.616 99.9686 862.234 99.9686ZM1077.61 103.6V128.026C1085.43 110.201 1104.33 99.9686 1128.12 99.6385C1131.7 99.6385 1136.26 99.9686 1141.8 100.629V150.141C1136.59 149.151 1130.73 148.491 1124.53 148.491C1094.88 148.491 1077.61 165.325 1077.61 194.703V281.515H1025.8V103.6H1077.61ZM1287.46 127.036C1282.24 111.522 1261.71 100.629 1235.32 100.629C1210.56 100.629 1189.7 109.541 1173.09 127.366C1156.79 144.86 1148.32 166.976 1148.32 192.722C1148.32 218.469 1156.79 240.255 1173.09 258.409C1189.7 275.904 1210.56 284.816 1235.32 284.816C1261.71 284.816 1282.24 273.923 1287.46 258.409V281.845H1339.26V35.602H1287.46V127.036ZM1277.03 224.411C1268.23 232.993 1257.48 236.954 1244.77 236.954C1232.39 236.954 1221.64 232.663 1213.16 224.411C1204.37 215.498 1200.13 204.936 1200.13 192.722C1200.13 180.509 1204.37 169.947 1213.16 161.364C1221.96 152.452 1232.39 148.161 1244.77 148.161C1257.8 148.161 1268.56 152.452 1277.03 161.364C1286.15 169.947 1290.71 180.509 1290.71 192.722C1290.71 204.936 1286.15 215.498 1277.03 224.411ZM1488.82 104.589L1535.75 189.09L1567.35 103.929H1618.18L1545.85 292.077L1488.82 189.751L1431.8 292.077L1359.79 103.929H1410.62L1441.9 189.09L1488.82 104.589ZM1703.55 99.6385C1676.83 99.6385 1654.35 108.221 1636.76 125.385C1619.49 142.219 1610.69 164.665 1610.69 192.392V194.043C1610.69 221.77 1619.49 244.216 1636.76 261.05C1654.68 277.554 1677.49 286.136 1706.16 286.136C1732.88 286.136 1754.71 280.855 1771.33 269.962V224.08C1755.04 235.633 1734.18 241.245 1709.09 241.245C1681.72 241.245 1663.8 227.711 1662.82 206.586H1791.53C1792.18 201.305 1792.51 195.363 1792.51 189.422C1792.51 164.005 1784.03 142.88 1767.74 125.715C1751.45 108.221 1729.62 99.6385 1703.55 99.6385ZM1662.82 172.587C1663.15 164.335 1667.38 157.403 1675.2 151.792C1683.35 146.18 1692.47 143.21 1703.55 143.21C1724.08 143.21 1740.05 156.743 1740.05 172.587H1662.82ZM1916 100.629C1940.76 100.629 1961.62 109.541 1977.91 127.366C1994.53 145.19 2003 166.646 2003 192.392C2003 218.139 1994.53 239.925 1977.91 258.079C1961.62 275.574 1940.76 284.486 1916 284.486C1889.61 284.486 1869.08 273.593 1863.87 258.079V281.515H1812.06V35.602H1863.87V127.036C1869.08 111.522 1889.61 100.629 1916 100.629ZM1906.55 236.954C1918.93 236.954 1929.36 232.993 1938.16 224.411C1946.95 215.498 1951.19 204.936 1951.19 192.722C1951.19 180.509 1946.95 169.947 1938.16 161.364C1929.69 152.452 1918.93 148.161 1906.55 148.161C1893.84 148.161 1883.09 152.452 1873.97 161.364C1865.17 169.947 1860.61 180.509 1860.61 192.722C1860.61 204.936 1865.17 215.498 1873.97 224.411C1882.76 232.663 1893.52 236.954 1906.55 236.954Z" clip-rule="evenodd"/><g clip-path="url(#clip0_3:22)"><path fill="url(#paint0_linear_3:22)" d="M1.40497 27.0011C-3.73633 14.022 5.84519 0 19.8669 0H106.919C115.098 0 122.342 4.86715 125.381 12.3996L194.671 185.299C196.541 189.935 196.541 195.149 194.671 199.901L151.087 308.485C144.427 325.056 120.823 325.056 114.163 308.485L1.40497 27.0011Z"/><path fill="url(#paint1_linear_3:22)" d="M169.547 26.4217C164.873 13.5585 174.454 0 188.242 0H264.077C272.49 0 279.968 5.2148 282.772 12.9791L345.753 185.879C347.272 190.166 347.272 194.918 345.753 199.321L307.894 303.27C301.585 320.652 276.813 320.652 270.503 303.27L169.547 26.4217Z"/><path fill="url(#paint2_linear_3:22)" d="M321.331 27.0011C316.19 14.022 325.771 0 339.793 0H426.845C435.024 0 442.269 4.86715 445.307 12.3996L514.597 185.299C516.467 189.935 516.467 195.149 514.597 199.901L471.013 308.485C464.353 325.056 440.75 325.056 434.089 308.485L321.331 27.0011Z"/></g><defs><linearGradient id="paint0_linear_3:22" x1="7.405" x2="260.485" y1="55.24" y2="164.437" gradientUnits="userSpaceOnUse"><stop stop-color="#F213A4"/><stop offset=".152" stop-color="#E011A7"/><stop offset=".455" stop-color="#B20DAF"/><stop offset=".879" stop-color="#6806BB"/><stop offset="1" stop-color="#5204BF"/></linearGradient><linearGradient id="paint1_linear_3:22" x1="175.093" x2="410.968" y1="54.447" y2="148.471" gradientUnits="userSpaceOnUse"><stop stop-color="#F213A4"/><stop offset=".152" stop-color="#E011A7"/><stop offset=".455" stop-color="#B20DAF"/><stop offset=".879" stop-color="#6806BB"/><stop offset="1" stop-color="#5204BF"/></linearGradient><linearGradient id="paint2_linear_3:22" x1="327.331" x2="580.411" y1="55.24" y2="164.437" gradientUnits="userSpaceOnUse"><stop stop-color="#F213A4"/><stop offset=".152" stop-color="#E011A7"/><stop offset=".455" stop-color="#B20DAF"/><stop offset=".879" stop-color="#6806BB"/><stop offset="1" stop-color="#5204BF"/></linearGradient><clipPath id="clip0_3:22"><rect width="516" height="321" fill="#fff"/></clipPath></defs></svg>