<svg width="64" height="64" viewBox="0 0 64 64" fill="none" xmlns="http://www.w3.org/2000/svg">
<rect width="64" height="64" rx="12" fill="url(#paint0_linear_113_26)"/>
<path fill-rule="evenodd" clip-rule="evenodd" d="M40.1666 22.6047C38.9362 22.6047 37.8703 23.1705 37.1243 23.7604C36.7506 24.0559 36.4281 24.3796 36.1734 24.6931C33.8931 24.0271 30.8984 24.0855 28.348 24.9402C25.7135 25.8231 23.255 27.6836 22.7578 30.7714H22.6666C22.0276 30.7714 21.5 30.2437 21.5 29.6047V28.438C21.5 27.7937 20.9776 27.2714 20.3333 27.2714C19.689 27.2714 19.1666 27.7937 19.1666 28.438V29.6047C19.1666 31.5324 20.739 33.1047 22.6666 33.1047H22.6827C22.712 33.7578 22.7942 34.4252 23.0241 35.0806C23.3641 36.0495 23.987 36.9055 25 37.7524V41.2714C25 41.9157 25.5223 42.4381 26.1666 42.4381H30.8333C31.4776 42.4381 32 41.9157 32 41.2714V40.1047H33.1666V41.2714C33.1666 41.9157 33.689 42.4381 34.3333 42.4381H39C39.6443 42.4381 40.1666 41.9157 40.1666 41.2714V37.3038C40.9356 36.859 41.6398 36.2995 42.1074 35.4381H43.6666C44.311 35.4381 44.8333 34.9157 44.8333 34.2714V29.6047C44.8333 28.9604 44.311 28.4381 43.6666 28.4381H42.3337C42.1131 27.7127 41.7079 27.1947 41.3333 26.7952V23.7714C41.3333 23.1271 40.811 22.6047 40.1666 22.6047ZM29.6666 38.9381V40.1047H27.3333V37.1881C27.3333 36.8209 27.1604 36.4751 26.8666 36.2547C25.8259 35.4742 25.4198 34.8608 25.2258 34.3081C25.0119 33.6984 25 33.0324 25 31.9381C25 29.548 26.6447 27.9719 29.0895 27.1526C31.5611 26.3243 34.4695 26.4324 36.2071 27.1771C36.507 27.3056 36.847 27.3027 37.1446 27.169C37.4422 27.0354 37.6703 26.7832 37.7734 26.4737C37.7728 26.4757 37.7733 26.4746 37.7754 26.4706C37.7861 26.4493 37.8385 26.3457 37.9749 26.1761C38.1224 25.9928 38.3262 25.7847 38.5715 25.5907C38.7106 25.4807 38.8542 25.382 39 25.2967V27.2714C39 27.5808 39.1229 27.8776 39.3417 28.0964C39.9128 28.6674 40.1666 28.951 40.1666 29.6047C40.1666 30.2491 40.689 30.7714 41.3333 30.7714H42.5V33.1047H41.3333C40.8181 33.1047 40.3639 33.4427 40.2159 33.9362C40.01 34.6222 39.5726 35.014 38.4782 35.5612C38.083 35.7589 37.8333 36.1628 37.8333 36.6047V40.1047H35.5V38.9381C35.5 38.2937 34.9776 37.7714 34.3333 37.7714H30.8333C30.189 37.7714 29.6666 38.2937 29.6666 38.9381Z" fill="url(#paint1_linear_113_26)"/>
<path fill-rule="evenodd" clip-rule="evenodd" d="M36 31.1047C36 30.4603 36.5223 29.938 37.1667 29.938H37.1783C37.8227 29.938 38.345 30.4603 38.345 31.1047C38.345 31.749 37.8227 32.2713 37.1783 32.2713H37.1667C36.5223 32.2713 36 31.749 36 31.1047Z" fill="url(#paint2_linear_113_26)"/>
<defs>
<linearGradient id="paint0_linear_113_26" x1="-4.47035e-07" y1="8" x2="69" y2="68" gradientUnits="userSpaceOnUse">
<stop stop-color="#3D3D3D"/>
<stop offset="1" stop-color="#4D4D4D" stop-opacity="0"/>
</linearGradient>
<linearGradient id="paint1_linear_113_26" x1="43.0003" y1="13.1945" x2="17.2215" y2="63.4064" gradientUnits="userSpaceOnUse">
<stop stop-color="white"/>
<stop offset="1" stop-color="white" stop-opacity="0"/>
</linearGradient>
<linearGradient id="paint2_linear_113_26" x1="38.1775" y1="28.8309" x2="34.7437" y2="34.0251" gradientUnits="userSpaceOnUse">
<stop stop-color="white"/>
<stop offset="1" stop-color="white" stop-opacity="0"/>
</linearGradient>
</defs>
</svg>
