<svg width="64" height="64" viewBox="0 0 64 64" fill="none" xmlns="http://www.w3.org/2000/svg">
<rect width="64" height="64" rx="12" fill="url(#paint0_linear_113_63)"/>
<path fill-rule="evenodd" clip-rule="evenodd" d="M22.6667 23.8333C22.6667 23.1943 23.1943 22.6666 23.8333 22.6666H26.1667C26.811 22.6666 27.3333 22.1443 27.3333 21.4999C27.3333 20.8556 26.811 20.3333 26.1667 20.3333H23.8333C21.9057 20.3333 20.3333 21.9056 20.3333 23.8333V26.1666C20.3333 26.8109 20.8557 27.3333 21.5 27.3333C22.1443 27.3333 22.6667 26.8109 22.6667 26.1666V23.8333ZM37.8333 20.3333C37.189 20.3333 36.6667 20.8556 36.6667 21.4999C36.6667 22.1443 37.189 22.6666 37.8333 22.6666H40.1667C40.8057 22.6666 41.3333 23.1943 41.3333 23.8333V26.1666C41.3333 26.8109 41.8557 27.3333 42.5 27.3333C43.1443 27.3333 43.6667 26.8109 43.6667 26.1666V23.8333C43.6667 21.9056 42.0943 20.3333 40.1667 20.3333H37.8333ZM42.5 36.6666C43.1443 36.6666 43.6667 37.1889 43.6667 37.8332V40.1666C43.6667 42.0942 42.0943 43.6666 40.1667 43.6666H37.8333C37.189 43.6666 36.6667 43.1442 36.6667 42.4999C36.6667 41.8556 37.189 41.3332 37.8333 41.3332H40.1667C40.8057 41.3332 41.3333 40.8056 41.3333 40.1666V37.8332C41.3333 37.1889 41.8557 36.6666 42.5 36.6666ZM22.6667 37.8332C22.6667 37.1889 22.1443 36.6666 21.5 36.6666C20.8557 36.6666 20.3333 37.1889 20.3333 37.8332V40.1666C20.3333 42.0942 21.9057 43.6666 23.8333 43.6666H26.1667C26.811 43.6666 27.3333 43.1442 27.3333 42.4999C27.3333 41.8556 26.811 41.3332 26.1667 41.3332H23.8333C23.1943 41.3332 22.6667 40.8056 22.6667 40.1666V37.8332ZM25 27.3333C25 26.0446 26.0447 24.9999 27.3333 24.9999H33.1667C34.4553 24.9999 35.5 26.0446 35.5 27.3333V30.8333H36.6667C37.9553 30.8333 39 31.8779 39 33.1666V36.6666C39 37.9552 37.9553 38.9999 36.6667 38.9999H30.8333C29.5447 38.9999 28.5 37.9552 28.5 36.6666V33.1666H27.3333C26.0447 33.1666 25 32.1219 25 30.8333V27.3333ZM33.1667 30.8333H30.8333C30.83 30.8333 30.8267 30.8333 30.8233 30.8333H27.3333V27.3333H33.1667V30.8333ZM30.8333 33.1666V36.6666H36.6667V33.1666H33.1764C33.1732 33.1666 33.1699 33.1666 33.1667 33.1666H30.8333Z" fill="url(#paint1_linear_113_63)"/>
<defs>
<linearGradient id="paint0_linear_113_63" x1="-4.47035e-07" y1="8" x2="69" y2="68" gradientUnits="userSpaceOnUse">
<stop stop-color="#3D3D3D"/>
<stop offset="1" stop-color="#4D4D4D" stop-opacity="0"/>
</linearGradient>
<linearGradient id="paint1_linear_113_63" x1="42.0003" y1="9.26237" x2="7.5949" y2="61.0466" gradientUnits="userSpaceOnUse">
<stop stop-color="white"/>
<stop offset="1" stop-color="white" stop-opacity="0"/>
</linearGradient>
</defs>
</svg>
