<svg width="64" height="64" viewBox="0 0 64 64" fill="none" xmlns="http://www.w3.org/2000/svg">
<rect width="64" height="64" rx="12" fill="url(#paint0_linear_113_73)"/>
<path fill-rule="evenodd" clip-rule="evenodd" d="M23.8333 22.6666C23.189 22.6666 22.6667 23.1889 22.6667 23.8333V25.2001C23.0379 25.0688 23.4321 24.9999 23.8333 24.9999H40.1667C40.5679 24.9999 40.9621 25.0688 41.3333 25.2001V23.8333C41.3333 23.1889 40.811 22.6666 40.1667 22.6666H23.8333ZM23.0084 27.675C22.7896 27.8938 22.6667 28.1905 22.6667 28.4999V29.6666H25C26.1607 29.6666 27.4144 30.0862 28.2669 31.0442L29.4721 32.0303C29.5021 32.0548 29.5309 32.0809 29.5583 32.1083C30.9693 33.5193 33.1473 33.5193 34.5584 32.1083C34.5858 32.0809 34.6145 32.0548 34.6446 32.0303L35.8865 31.0142C36.6554 30.2677 37.8521 29.6666 39.1167 29.6666H41.3333V28.4999C41.3333 28.1905 41.2104 27.8938 40.9916 27.675C40.7728 27.4562 40.4761 27.3333 40.1667 27.3333H23.8333C23.5239 27.3333 23.2272 27.4562 23.0084 27.675ZM41.3333 31.9999H39.1167C38.5394 31.9999 37.8915 32.3083 37.4916 32.7082C37.4642 32.7356 37.4354 32.7616 37.4054 32.7862L36.1648 33.8012C33.8551 36.0661 30.2615 36.0661 27.9518 33.8012L26.7112 32.7862C26.6539 32.7393 26.6012 32.687 26.5537 32.6301C26.2398 32.2534 25.6694 31.9999 25 31.9999H22.6667V40.1666C22.6667 40.8109 23.189 41.3333 23.8333 41.3333H40.1667C40.811 41.3333 41.3333 40.8109 41.3333 40.1666V31.9999ZM20.3333 30.8332V40.1666C20.3333 42.0996 21.9003 43.6666 23.8333 43.6666H40.1667C42.0997 43.6666 43.6667 42.0996 43.6667 40.1666V30.8332V28.4999V23.8333C43.6667 21.9003 42.0997 20.3333 40.1667 20.3333H23.8333C21.9003 20.3333 20.3333 21.9003 20.3333 23.8333V28.4999V30.8332Z" fill="url(#paint1_linear_113_73)"/>
<defs>
<linearGradient id="paint0_linear_113_73" x1="-4.47035e-07" y1="8" x2="69" y2="68" gradientUnits="userSpaceOnUse">
<stop stop-color="#3D3D3D"/>
<stop offset="1" stop-color="#4D4D4D" stop-opacity="0"/>
</linearGradient>
<linearGradient id="paint1_linear_113_73" x1="42.0003" y1="9.26236" x2="7.59485" y2="61.0466" gradientUnits="userSpaceOnUse">
<stop stop-color="white"/>
<stop offset="1" stop-color="white" stop-opacity="0"/>
</linearGradient>
</defs>
</svg>
