<svg width="29" height="28" viewBox="0 0 29 28" fill="none" xmlns="http://www.w3.org/2000/svg">
<g clip-path="url(#clip0_160_60)">
<path fill-rule="evenodd" clip-rule="evenodd" d="M13.9295 0C9.91973 0 6.66913 3.2506 6.66913 7.26042V11.6091H5.19596C3.16169 11.6091 1.51259 13.2582 1.51259 15.2925V24.3167C1.51259 26.351 3.16169 28.0001 5.19596 28.0001H23.2445C25.2787 28.0001 26.9278 26.351 26.9278 24.3167V15.2925C26.9278 13.2582 25.2787 11.6091 23.2445 11.6091H8.87915V7.26042C8.87915 4.47116 11.1403 2.21002 13.9295 2.21002H14.3816C17.1709 2.21002 19.432 4.47116 19.432 7.26042C19.432 7.8707 19.9267 8.36543 20.537 8.36543C21.1473 8.36543 21.642 7.8707 21.642 7.26042C21.642 3.2506 18.3914 0 14.3816 0H13.9295ZM3.72261 15.2925C3.72261 14.4787 4.38225 13.8191 5.19596 13.8191H23.2445C24.0582 13.8191 24.7178 14.4787 24.7178 15.2925V24.3167C24.7178 25.1304 24.0582 25.7901 23.2445 25.7901H5.19596C4.38225 25.7901 3.72261 25.1304 3.72261 24.3167V15.2925Z" fill="url(#paint0_linear_160_60)"/>
</g>
<defs>
<linearGradient id="paint0_linear_160_60" x1="26.9278" y1="-2.92573" x2="-1.12682" y2="24.6437" gradientUnits="userSpaceOnUse">
<stop stop-color="#4830A4"/>
<stop offset="1" stop-color="#9786DF"/>
</linearGradient>
<clipPath id="clip0_160_60">
<rect width="28" height="28" fill="white" transform="translate(0.220215)"/>
</clipPath>
</defs>
</svg>
