<svg width="64" height="64" viewBox="0 0 64 64" fill="none" xmlns="http://www.w3.org/2000/svg">
<rect width="64" height="64" rx="12" fill="url(#paint0_linear_113_19)"/>
<path fill-rule="evenodd" clip-rule="evenodd" d="M44.1653 19.8967C44.183 19.4899 44.0298 19.0943 43.7428 18.8055C43.4559 18.5166 43.0612 18.3609 42.6544 18.376C40.5311 18.4546 38.8738 18.8515 37.5332 19.4785C36.1848 20.1092 35.2311 20.9382 34.4785 21.7744C34.4253 21.8336 34.377 21.897 34.3341 21.964C33.1399 23.8304 32.5034 25.9957 32.4947 28.2057C32.3199 28.5319 32.1753 28.8584 32.0567 29.1839C31.4394 28.1575 30.6753 27.2297 29.7119 26.5291C27.714 25.076 24.9526 24.3248 20.577 25.1062C20.1666 25.1795 19.8072 25.4249 19.5896 25.7804C19.3719 26.1359 19.3168 26.5676 19.4382 26.9664C20.5322 30.561 22.3308 32.8502 24.5363 33.9612C26.7065 35.1223 29.0947 35.1407 31.8212 34.6611L31.8388 34.7727C31.8682 34.9579 31.8974 35.1361 31.9258 35.3092L31.9258 35.3094L31.9259 35.3095C32.0032 35.7814 32.0744 36.2158 32.128 36.6538C32.273 37.8394 32.2367 38.716 31.8821 39.463C31.5589 40.1438 30.8659 40.9294 29.259 41.7083H25.2083C24.4029 41.7083 23.75 42.3612 23.75 43.1666C23.75 43.972 24.4029 44.6249 25.2083 44.6249H29.5408C29.5697 44.6258 29.5986 44.6258 29.6276 44.6249H39.7917C40.5971 44.6249 41.25 43.972 41.25 43.1666C41.25 42.3612 40.5971 41.7083 39.7917 41.7083H33.9206C34.1544 41.3913 34.3526 41.0601 34.517 40.7139C35.2333 39.2049 35.188 37.648 35.0231 36.2997C34.9616 35.7975 34.8764 35.2774 34.7961 34.788C34.7696 34.6262 34.7436 34.4678 34.7192 34.3146C34.6172 33.6726 34.5347 33.0746 34.5057 32.4919C34.4609 31.5918 34.5458 30.7674 34.878 29.9767C37.4676 29.7242 39.5503 28.9523 41.1402 27.6804C41.1822 27.6468 41.2223 27.6109 41.2604 27.5729C43.0362 25.797 44.0077 23.5215 44.1653 19.8967ZM35.5079 26.955C35.6837 25.7826 36.0966 24.6528 36.7272 23.637C37.269 23.0506 37.9004 22.5267 38.7689 22.1205C39.3759 21.8365 40.1308 21.5952 41.0954 21.4446C40.7971 23.404 40.1387 24.5493 39.2554 25.4524C38.3677 26.1431 37.1575 26.6819 35.5079 26.955ZM22.8264 27.7493C23.7132 29.7703 24.8248 30.8446 25.8605 31.3624C25.8737 31.369 25.8868 31.3758 25.8997 31.3828C27.0224 31.9873 28.344 32.1688 30.207 31.9523C29.6073 30.599 28.8865 29.5352 27.9964 28.8879C26.9868 28.1537 25.4938 27.5399 22.8264 27.7493Z" fill="url(#paint1_linear_113_19)"/>
<defs>
<linearGradient id="paint0_linear_113_19" x1="-4.47035e-07" y1="8" x2="69" y2="68" gradientUnits="userSpaceOnUse">
<stop stop-color="#3D3D3D"/>
<stop offset="1" stop-color="#4D4D4D" stop-opacity="0"/>
</linearGradient>
<linearGradient id="paint1_linear_113_19" x1="42.3961" y1="5.91998" x2="2.87768" y2="62.0943" gradientUnits="userSpaceOnUse">
<stop stop-color="white"/>
<stop offset="1" stop-color="white" stop-opacity="0"/>
</linearGradient>
</defs>
</svg>
