<svg width="64" height="64" viewBox="0 0 64 64" fill="none" xmlns="http://www.w3.org/2000/svg">
<rect width="64" height="64" rx="12" fill="url(#paint0_linear_113_80)"/>
<path d="M35.15 25.35C34.9362 25.5681 34.8165 25.8613 34.8165 26.1667C34.8165 26.4721 34.9362 26.7653 35.15 26.9834L37.0167 28.85C37.2347 29.0638 37.528 29.1835 37.8333 29.1835C38.1387 29.1835 38.4319 29.0638 38.65 28.85L43.0483 24.4517C43.635 25.7481 43.8126 27.1925 43.5575 28.5924C43.3025 29.9922 42.6268 31.2812 41.6207 32.2873C40.6145 33.2935 39.3256 33.9692 37.9257 34.2242C36.5258 34.4793 35.0814 34.3017 33.785 33.715L25.7233 41.7767C25.2592 42.2408 24.6297 42.5016 23.9733 42.5016C23.317 42.5016 22.6875 42.2408 22.2233 41.7767C21.7592 41.3126 21.4985 40.6831 21.4985 40.0267C21.4985 39.3703 21.7592 38.7408 22.2233 38.2767L30.285 30.215C29.6984 28.9186 29.5207 27.4742 29.7758 26.0743C30.0309 24.6745 30.7065 23.3855 31.7127 22.3794C32.7188 21.3732 34.0078 20.6975 35.4077 20.4425C36.8076 20.1874 38.2519 20.365 39.5483 20.9517L35.1617 25.3384L35.15 25.35Z" stroke="url(#paint1_linear_113_80)" stroke-width="2.33333" stroke-linecap="round" stroke-linejoin="round"/>
<defs>
<linearGradient id="paint0_linear_113_80" x1="-4.47035e-07" y1="8" x2="69" y2="68" gradientUnits="userSpaceOnUse">
<stop stop-color="#3D3D3D"/>
<stop offset="1" stop-color="#4D4D4D" stop-opacity="0"/>
</linearGradient>
<linearGradient id="paint1_linear_113_80" x1="42.0874" y1="9.80901" x2="9.39374" y2="59.0169" gradientUnits="userSpaceOnUse">
<stop stop-color="white"/>
<stop offset="1" stop-color="white" stop-opacity="0"/>
</linearGradient>
</defs>
</svg>
