<svg width="679" height="187" viewBox="0 0 679 187" fill="none" xmlns="http://www.w3.org/2000/svg">
<path d="M610.564 44.7939C591.338 67.6571 545.482 105.979 515.864 76.3606" stroke="url(#paint0_linear_2196_2410)" stroke-width="1.10227"/>
<path d="M627.93 128.793C597.154 144.925 530.897 165.953 512.077 121.013" stroke="url(#paint1_linear_2196_2410)" stroke-width="1.10227"/>
<path d="M182.977 92.0739C153.216 94.6458 93.6932 89.3182 93.6932 47.4318" stroke="url(#paint2_linear_2196_2410)" stroke-width="1.10227"/>
<path d="M183.26 121.278C138.516 131.019 47.3811 140.158 40.7841 98.7948" stroke="url(#paint3_linear_2196_2410)" stroke-width="1.10227"/>
<rect x="166.443" width="379.182" height="186.284" rx="13.2273" fill="#131417"/>
<path d="M321.853 30.8841C321.853 32.1832 321.606 33.2885 321.114 34.1998C320.625 35.1112 319.958 35.8073 319.113 36.2882C318.271 36.7652 317.325 37.0037 316.274 37.0037C315.215 37.0037 314.265 36.7633 313.424 36.2824C312.582 35.8015 311.917 35.1054 311.428 34.194C310.94 33.2827 310.695 32.1793 310.695 30.8841C310.695 29.5849 310.94 28.4796 311.428 27.5683C311.917 26.6569 312.582 25.9627 313.424 25.4857C314.265 25.0048 315.215 24.7644 316.274 24.7644C317.325 24.7644 318.271 25.0048 319.113 25.4857C319.958 25.9627 320.625 26.6569 321.114 27.5683C321.606 28.4796 321.853 29.5849 321.853 30.8841ZM319.299 30.8841C319.299 30.0425 319.173 29.3328 318.921 28.755C318.673 28.1771 318.322 27.7389 317.868 27.4403C317.414 27.1417 316.883 26.9924 316.274 26.9924C315.665 26.9924 315.134 27.1417 314.68 27.4403C314.226 27.7389 313.873 28.1771 313.621 28.755C313.373 29.3328 313.249 30.0425 313.249 30.8841C313.249 31.7256 313.373 32.4353 313.621 33.0131C313.873 33.591 314.226 34.0292 314.68 34.3278C315.134 34.6264 315.665 34.7757 316.274 34.7757C316.883 34.7757 317.414 34.6264 317.868 34.3278C318.322 34.0292 318.673 33.591 318.921 33.0131C319.173 32.4353 319.299 31.7256 319.299 30.8841ZM325.822 31.6752V36.8408H323.344V27.9057H325.706V29.4821H325.811C326.009 28.9625 326.34 28.5514 326.806 28.2489C327.271 27.9425 327.835 27.7893 328.498 27.7893C329.119 27.7893 329.66 27.9251 330.121 28.1965C330.583 28.468 330.942 28.8558 331.197 29.36C331.453 29.8602 331.581 30.4575 331.581 31.1516V36.8408H329.103V31.5937C329.107 31.0469 328.968 30.6203 328.684 30.314C328.401 30.0037 328.012 29.8486 327.515 29.8486C327.182 29.8486 326.887 29.9203 326.631 30.0638C326.379 30.2073 326.181 30.4167 326.038 30.6921C325.898 30.9636 325.826 31.2913 325.822 31.6752ZM333.253 36.8408V24.9273H335.732V29.4065H335.807C335.916 29.1661 336.073 28.9217 336.278 28.6735C336.488 28.4215 336.759 28.212 337.093 28.0453C337.43 27.8746 337.849 27.7893 338.349 27.7893C339.001 27.7893 339.602 27.96 340.153 28.3012C340.703 28.6386 341.143 29.1486 341.473 29.8311C341.803 30.5098 341.968 31.3611 341.968 32.3849C341.968 33.3816 341.807 34.2231 341.485 34.9095C341.167 35.5921 340.732 36.1098 340.182 36.4627C339.635 36.8117 339.022 36.9862 338.343 36.9862C337.863 36.9862 337.453 36.9067 337.116 36.7477C336.783 36.5887 336.509 36.389 336.296 36.1486C336.083 35.9043 335.92 35.658 335.807 35.4098H335.697V36.8408H333.253ZM335.679 32.3732C335.679 32.9045 335.753 33.368 335.9 33.7635C336.048 34.1591 336.261 34.4674 336.54 34.6885C336.819 34.9056 337.159 35.0142 337.558 35.0142C337.961 35.0142 338.303 34.9037 338.582 34.6827C338.861 34.4577 339.073 34.1475 339.216 33.7519C339.363 33.3525 339.437 32.8929 339.437 32.3732C339.437 31.8575 339.365 31.4037 339.222 31.012C339.078 30.6203 338.867 30.314 338.588 30.0929C338.309 29.8719 337.965 29.7613 337.558 29.7613C337.155 29.7613 336.814 29.868 336.534 30.0813C336.259 30.2946 336.048 30.5971 335.9 30.9888C335.753 31.3805 335.679 31.8419 335.679 32.3732ZM347.331 37.0153C346.427 37.0153 345.646 36.8234 344.986 36.4394C344.331 36.0516 343.825 35.5126 343.468 34.8223C343.111 34.1281 342.933 33.3234 342.933 32.4081C342.933 31.4852 343.111 30.6785 343.468 29.9882C343.825 29.294 344.331 28.755 344.986 28.371C345.646 27.9832 346.427 27.7893 347.331 27.7893C348.234 27.7893 349.014 27.9832 349.669 28.371C350.328 28.755 350.836 29.294 351.193 29.9882C351.55 30.6785 351.728 31.4852 351.728 32.4081C351.728 33.3234 351.55 34.1281 351.193 34.8223C350.836 35.5126 350.328 36.0516 349.669 36.4394C349.014 36.8234 348.234 37.0153 347.331 37.0153ZM347.342 35.0957C347.753 35.0957 348.096 34.9793 348.372 34.7466C348.647 34.5101 348.855 34.1882 348.994 33.781C349.138 33.3738 349.21 32.9104 349.21 32.3907C349.21 31.871 349.138 31.4076 348.994 31.0004C348.855 30.5932 348.647 30.2713 348.372 30.0347C348.096 29.7982 347.753 29.6799 347.342 29.6799C346.927 29.6799 346.578 29.7982 346.295 30.0347C346.016 30.2713 345.805 30.5932 345.661 31.0004C345.521 31.4076 345.452 31.871 345.452 32.3907C345.452 32.9104 345.521 33.3738 345.661 33.781C345.805 34.1882 346.016 34.5101 346.295 34.7466C346.578 34.9793 346.927 35.0957 347.342 35.0957ZM355.56 37.0095C354.99 37.0095 354.482 36.9106 354.036 36.7128C353.59 36.5112 353.237 36.2145 352.977 35.8228C352.721 35.4273 352.593 34.9347 352.593 34.3453C352.593 33.8489 352.684 33.432 352.867 33.0946C353.049 32.7572 353.297 32.4857 353.611 32.2802C353.925 32.0746 354.282 31.9195 354.682 31.8148C355.085 31.7101 355.508 31.6364 355.95 31.5937C356.469 31.5395 356.888 31.489 357.206 31.4425C357.524 31.3921 357.755 31.3184 357.898 31.2214C358.042 31.1245 358.114 30.981 358.114 30.791V30.7561C358.114 30.3877 357.997 30.1026 357.765 29.901C357.536 29.6993 357.21 29.5985 356.787 29.5985C356.341 29.5985 355.987 29.6974 355.723 29.8951C355.459 30.089 355.285 30.3334 355.199 30.6281L352.907 30.442C353.024 29.899 353.253 29.4298 353.594 29.0342C353.935 28.6348 354.375 28.3284 354.914 28.1151C355.457 27.8979 356.085 27.7893 356.799 27.7893C357.295 27.7893 357.77 27.8475 358.224 27.9638C358.682 28.0802 359.087 28.2605 359.44 28.5048C359.797 28.7492 360.078 29.0633 360.284 29.4472C360.489 29.8273 360.592 30.2829 360.592 30.8142V36.8408H358.242V35.6018H358.172C358.028 35.881 357.836 36.1272 357.596 36.3405C357.356 36.55 357.067 36.7148 356.729 36.835C356.392 36.9513 356.002 37.0095 355.56 37.0095ZM356.27 35.2993C356.634 35.2993 356.956 35.2275 357.235 35.084C357.515 34.9367 357.734 34.7389 357.893 34.4907C358.052 34.2425 358.131 33.9613 358.131 33.6472V32.699C358.054 32.7494 357.947 32.796 357.811 32.8386C357.679 32.8774 357.53 32.9142 357.363 32.9491C357.197 32.9802 357.03 33.0093 356.863 33.0364C356.696 33.0597 356.545 33.081 356.409 33.1004C356.118 33.143 355.864 33.2109 355.647 33.304C355.43 33.3971 355.261 33.5231 355.141 33.6821C355.021 33.8372 354.961 34.0311 354.961 34.2638C354.961 34.6012 355.083 34.8591 355.327 35.0375C355.575 35.212 355.89 35.2993 356.27 35.2993ZM362.187 36.8408V27.9057H364.589V29.4647H364.682C364.845 28.9101 365.119 28.4913 365.503 28.2082C365.886 27.9212 366.329 27.7777 366.829 27.7777C366.953 27.7777 367.087 27.7854 367.23 27.801C367.374 27.8165 367.5 27.8378 367.608 27.865V30.0638C367.492 30.0289 367.331 29.9979 367.126 29.9708C366.92 29.9436 366.732 29.93 366.561 29.93C366.197 29.93 365.871 30.0095 365.584 30.1685C365.301 30.3237 365.076 30.5408 364.909 30.8201C364.746 31.0993 364.665 31.4212 364.665 31.7857V36.8408H362.187ZM371.439 36.9862C370.76 36.9862 370.145 36.8117 369.595 36.4627C369.048 36.1098 368.613 35.5921 368.291 34.9095C367.973 34.2231 367.814 33.3816 367.814 32.3849C367.814 31.3611 367.979 30.5098 368.309 29.8311C368.639 29.1486 369.077 28.6386 369.624 28.3012C370.174 27.96 370.777 27.7893 371.433 27.7893C371.933 27.7893 372.35 27.8746 372.683 28.0453C373.021 28.212 373.292 28.4215 373.498 28.6735C373.707 28.9217 373.866 29.1661 373.975 29.4065H374.05V24.9273H376.523V36.8408H374.08V35.4098H373.975C373.858 35.658 373.694 35.9043 373.48 36.1486C373.271 36.389 372.998 36.5887 372.66 36.7477C372.327 36.9067 371.919 36.9862 371.439 36.9862ZM372.224 35.0142C372.623 35.0142 372.961 34.9056 373.236 34.6885C373.515 34.4674 373.729 34.1591 373.876 33.7635C374.027 33.368 374.103 32.9045 374.103 32.3732C374.103 31.8419 374.029 31.3805 373.882 30.9888C373.734 30.5971 373.521 30.2946 373.242 30.0813C372.963 29.868 372.623 29.7613 372.224 29.7613C371.817 29.7613 371.473 29.8719 371.194 30.0929C370.915 30.314 370.704 30.6203 370.56 31.012C370.417 31.4037 370.345 31.8575 370.345 32.3732C370.345 32.8929 370.417 33.3525 370.56 33.7519C370.708 34.1475 370.919 34.4577 371.194 34.6827C371.473 34.9037 371.817 35.0142 372.224 35.0142ZM378.233 36.8408V27.9057H380.711V36.8408H378.233ZM379.477 26.7539C379.109 26.7539 378.793 26.6317 378.529 26.3874C378.269 26.1392 378.139 25.8425 378.139 25.4974C378.139 25.1561 378.269 24.8633 378.529 24.619C378.793 24.3708 379.109 24.2467 379.477 24.2467C379.846 24.2467 380.16 24.3708 380.42 24.619C380.684 24.8633 380.815 25.1561 380.815 25.4974C380.815 25.8425 380.684 26.1392 380.42 26.3874C380.16 26.6317 379.846 26.7539 379.477 26.7539ZM384.846 31.6752V36.8408H382.368V27.9057H384.73V29.4821H384.835C385.032 28.9625 385.364 28.5514 385.829 28.2489C386.295 27.9425 386.859 27.7893 387.522 27.7893C388.143 27.7893 388.684 27.9251 389.145 28.1965C389.607 28.468 389.965 28.8558 390.221 29.36C390.477 29.8602 390.605 30.4575 390.605 31.1516V36.8408H388.127V31.5937C388.131 31.0469 387.991 30.6203 387.708 30.314C387.425 30.0037 387.035 29.8486 386.539 29.8486C386.206 29.8486 385.911 29.9203 385.655 30.0638C385.403 30.2073 385.205 30.4167 385.062 30.6921C384.922 30.9636 384.85 31.2913 384.846 31.6752ZM396.256 40.3777C395.453 40.3777 394.765 40.2671 394.191 40.0461C393.621 39.8289 393.167 39.5322 392.83 39.156C392.493 38.7799 392.273 38.3572 392.173 37.8879L394.465 37.5796C394.534 37.758 394.645 37.9248 394.796 38.0799C394.947 38.235 395.147 38.3591 395.395 38.4522C395.647 38.5491 395.954 38.5976 396.314 38.5976C396.853 38.5976 397.297 38.4657 397.647 38.202C397.999 37.9422 398.176 37.5059 398.176 36.8932V35.2586H398.071C397.963 35.5068 397.8 35.7414 397.583 35.9624C397.365 36.1835 397.086 36.3638 396.745 36.5034C396.404 36.643 395.996 36.7128 395.523 36.7128C394.852 36.7128 394.242 36.5577 393.691 36.2475C393.144 35.9333 392.708 35.4544 392.382 34.8106C392.06 34.163 391.899 33.3447 391.899 32.3558C391.899 31.3436 392.064 30.4982 392.394 29.8195C392.723 29.1408 393.161 28.6328 393.708 28.2954C394.259 27.958 394.862 27.7893 395.517 27.7893C396.018 27.7893 396.437 27.8746 396.774 28.0453C397.111 28.212 397.383 28.4215 397.588 28.6735C397.798 28.9217 397.959 29.1661 398.071 29.4065H398.164V27.9057H400.625V36.9281C400.625 37.6882 400.439 38.3242 400.066 38.8361C399.694 39.348 399.178 39.7319 398.519 39.9879C397.864 40.2477 397.109 40.3777 396.256 40.3777ZM396.309 34.8514C396.708 34.8514 397.045 34.7525 397.321 34.5547C397.6 34.353 397.813 34.066 397.961 33.6937C398.112 33.3176 398.188 32.8677 398.188 32.3442C398.188 31.8206 398.114 31.3669 397.966 30.9829C397.819 30.5951 397.606 30.2946 397.327 30.0813C397.047 29.868 396.708 29.7613 396.309 29.7613C395.901 29.7613 395.558 29.8719 395.279 30.0929C395 30.3101 394.788 30.6126 394.645 31.0004C394.501 31.3882 394.43 31.8361 394.43 32.3442C394.43 32.8599 394.501 33.3059 394.645 33.6821C394.792 34.0544 395.004 34.3433 395.279 34.5489C395.558 34.7505 395.901 34.8514 396.309 34.8514Z" fill="url(#paint4_linear_2196_2410)" fill-opacity="0.55"/>
<rect x="205.023" y="58.4204" width="303.125" height="92.5909" rx="8.19055" fill="url(#paint5_linear_2196_2410)" fill-opacity="0.2"/>
<rect x="304.227" y="74.9545" width="164.239" height="13.2273" rx="6.61364" fill="url(#paint6_linear_2196_2410)" fill-opacity="0.2"/>
<rect x="304.227" y="98.1023" width="152.114" height="13.2273" rx="6.61364" fill="url(#paint7_linear_2196_2410)" fill-opacity="0.2"/>
<rect x="304.227" y="121.25" width="152.114" height="13.2273" rx="6.61364" fill="url(#paint8_linear_2196_2410)" fill-opacity="0.2"/>
<rect x="229.273" y="74.9545" width="65.0341" height="59.5227" rx="8.19055" fill="url(#paint9_linear_2196_2410)" fill-opacity="0.2"/>
<circle cx="93.142" cy="52.392" r="20.392" fill="url(#paint10_linear_2196_2410)"/>
<g clip-path="url(#clip0_2196_2410)">
<path d="M96.7229 59.2365C95.8296 60.931 94.4772 62.0588 92.6658 62.6197C90.8543 63.1806 89.1012 63.0144 87.4067 62.1211C85.7121 61.2278 84.5844 59.8754 84.0235 58.0639C83.4626 56.2524 83.6288 54.4994 84.5221 52.8049C85.2456 51.4323 86.2631 50.4363 87.5744 49.817C88.8857 49.1978 90.2333 48.9935 91.6172 49.2042L96.0926 40.7144C96.3874 40.1552 96.8391 39.7814 97.4477 39.5929C98.0564 39.4045 98.6398 39.4578 99.198 39.7529C99.808 40.0745 100.188 40.5453 100.337 41.1655C100.487 41.7857 100.427 42.3499 100.16 42.8583L102.193 43.9302C102.752 44.225 103.126 44.6767 103.314 45.2854C103.503 45.8941 103.45 46.4775 103.155 47.0356C102.86 47.5949 102.408 47.9687 101.799 48.1571C101.191 48.3456 100.607 48.2923 100.049 47.9972L98.0156 46.9252L95.6842 51.348C96.639 52.3711 97.2318 53.5987 97.4626 55.0309C97.6934 56.4631 97.4468 57.8649 96.7229 59.2365ZM92.656 57.0926C92.9507 56.5334 93.0039 55.9495 92.8154 55.3408C92.627 54.7321 92.2533 54.2809 91.6944 53.9872C91.1352 53.6924 90.5513 53.6393 89.9426 53.8277C89.334 54.0162 88.8828 54.3898 88.589 54.9487C88.2942 55.5079 88.2411 56.0919 88.4295 56.7005C88.618 57.3092 88.9917 57.7604 89.5506 58.0541C90.1098 58.3489 90.6937 58.4021 91.3024 58.2136C91.911 58.0252 92.3622 57.6515 92.656 57.0926Z" fill="white"/>
</g>
<circle cx="24.8011" cy="109.71" r="24.8011" fill="url(#paint11_linear_2196_2410)"/>
<path d="M36.1167 102.821V100.065C36.1167 98.5456 34.9348 97.3097 33.4815 97.3097H16.3533C14.174 97.3097 12.4006 99.1643 12.4006 101.443V117.977C12.4006 121.01 14.7643 122.111 16.3533 122.111H36.1167C37.5699 122.111 38.7518 120.875 38.7518 119.355V105.577C38.7518 104.057 37.5699 102.821 36.1167 102.821ZM33.4815 115.222H30.8464V109.71H33.4815V115.222ZM16.3533 102.821C16.014 102.805 15.6937 102.653 15.459 102.396C15.2243 102.14 15.0933 101.798 15.0933 101.443C15.0933 101.088 15.2243 100.747 15.459 100.49C15.6937 100.233 16.014 100.081 16.3533 100.065H33.4815V102.821H16.3533Z" fill="white"/>
<rect x="578.693" y="26.4545" width="49.6023" height="49.6023" rx="8.26705" fill="#D9D9D9"/>
<rect x="578.693" y="26.4545" width="49.6023" height="49.6023" rx="8.26705" fill="url(#paint12_linear_2196_2410)"/>
<path d="M615.242 42.1184H594.357C592.921 42.1184 591.759 43.2932 591.759 44.7291L591.746 60.3929C591.746 61.8288 592.921 63.0036 594.357 63.0036H615.242C616.678 63.0036 617.853 61.8288 617.853 60.3929V44.7291C617.853 43.2932 616.678 42.1184 615.242 42.1184ZM615.242 47.3397L604.8 53.8663L594.357 47.3397V44.7291L604.8 51.2557L615.242 44.7291V47.3397Z" fill="white"/>
<rect x="618.375" y="104.716" width="60.625" height="60.625" rx="10.1042" fill="#D9D9D9"/>
<rect x="618.375" y="104.716" width="60.625" height="60.625" rx="10.1042" fill="url(#paint13_linear_2196_2410)"/>
<path d="M664.706 125.113L658.155 131.662L652.202 125.707L658.751 119.158C656.753 118.336 654.556 118.125 652.438 118.549C650.319 118.973 648.374 120.015 646.846 121.543C645.319 123.071 644.277 125.017 643.853 127.135C643.429 129.254 643.642 131.451 644.464 133.449L633.895 144.016C633.738 144.172 633.614 144.358 633.529 144.562C633.445 144.766 633.401 144.985 633.401 145.206C633.401 145.428 633.445 145.647 633.529 145.851C633.614 146.055 633.738 146.241 633.895 146.397L637.468 149.971C637.625 150.127 637.81 150.251 638.015 150.336C638.219 150.421 638.438 150.464 638.659 150.464C638.88 150.464 639.099 150.421 639.303 150.336C639.508 150.251 639.693 150.127 639.85 149.971L650.417 139.402C652.415 140.224 654.612 140.437 656.731 140.013C658.85 139.59 660.796 138.548 662.325 137.02C663.852 135.492 664.893 133.546 665.317 131.427C665.74 129.308 665.528 127.111 664.706 125.113Z" fill="white"/>
<defs>
<linearGradient id="paint0_linear_2196_2410" x1="610.204" y1="12.8672" x2="594.563" y2="85.8493" gradientUnits="userSpaceOnUse">
<stop stop-color="#4830A4"/>
<stop offset="1" stop-color="#9786DF"/>
</linearGradient>
<linearGradient id="paint1_linear_2196_2410" x1="662.754" y1="69.7002" x2="606.01" y2="167.901" gradientUnits="userSpaceOnUse">
<stop stop-color="#721D63"/>
<stop offset="1" stop-color="#CA82B9"/>
</linearGradient>
<linearGradient id="paint2_linear_2196_2410" x1="87.1891" y1="70.8017" x2="148.233" y2="17.2064" gradientUnits="userSpaceOnUse">
<stop stop-color="#1070FF"/>
<stop offset="1" stop-color="#95BBF2"/>
</linearGradient>
<linearGradient id="paint3_linear_2196_2410" x1="164.009" y1="120.319" x2="138.304" y2="61.6999" gradientUnits="userSpaceOnUse">
<stop stop-color="#F214A4"/>
<stop offset="1" stop-color="#8209B7"/>
</linearGradient>
<linearGradient id="paint4_linear_2196_2410" x1="391.623" y1="28.0908" x2="378.176" y2="73.0005" gradientUnits="userSpaceOnUse">
<stop stop-color="white"/>
<stop offset="1" stop-color="white" stop-opacity="0"/>
</linearGradient>
<linearGradient id="paint5_linear_2196_2410" x1="659.71" y1="6.33802" x2="573.037" y2="299.117" gradientUnits="userSpaceOnUse">
<stop stop-color="white"/>
<stop offset="1" stop-color="white" stop-opacity="0"/>
</linearGradient>
<linearGradient id="paint6_linear_2196_2410" x1="550.585" y1="67.5141" x2="547.056" y2="112.73" gradientUnits="userSpaceOnUse">
<stop stop-color="white"/>
<stop offset="1" stop-color="white" stop-opacity="0"/>
</linearGradient>
<linearGradient id="paint7_linear_2196_2410" x1="532.398" y1="90.662" x2="528.591" y2="135.832" gradientUnits="userSpaceOnUse">
<stop stop-color="white"/>
<stop offset="1" stop-color="white" stop-opacity="0"/>
</linearGradient>
<linearGradient id="paint8_linear_2196_2410" x1="532.398" y1="113.81" x2="528.591" y2="158.98" gradientUnits="userSpaceOnUse">
<stop stop-color="white"/>
<stop offset="1" stop-color="white" stop-opacity="0"/>
</linearGradient>
<linearGradient id="paint9_linear_2196_2410" x1="326.824" y1="41.4729" x2="225.2" y2="156.039" gradientUnits="userSpaceOnUse">
<stop stop-color="white"/>
<stop offset="1" stop-color="white" stop-opacity="0"/>
</linearGradient>
<linearGradient id="paint10_linear_2196_2410" x1="116.505" y1="51.6889" x2="75.2669" y2="70.011" gradientUnits="userSpaceOnUse">
<stop stop-color="#1070FF"/>
<stop offset="1" stop-color="#95BBF2"/>
</linearGradient>
<linearGradient id="paint11_linear_2196_2410" x1="6.82031" y1="89.8693" x2="42.1619" y2="134.511" gradientUnits="userSpaceOnUse">
<stop stop-color="#F214A4"/>
<stop offset="1" stop-color="#8209B7"/>
</linearGradient>
<linearGradient id="paint12_linear_2196_2410" x1="566.293" y1="52.1108" x2="610.9" y2="37.5053" gradientUnits="userSpaceOnUse">
<stop stop-color="#4830A4"/>
<stop offset="1" stop-color="#9786DF"/>
</linearGradient>
<linearGradient id="paint13_linear_2196_2410" x1="586.3" y1="152.798" x2="658.747" y2="124.914" gradientUnits="userSpaceOnUse">
<stop stop-color="#721D63"/>
<stop offset="1" stop-color="#CA82B9"/>
</linearGradient>
<clipPath id="clip0_2196_2410">
<rect width="27.5845" height="27.5845" fill="white" transform="translate(74.6699 56.7061) rotate(-62.2042)"/>
</clipPath>
</defs>
</svg>
