<svg width="692" height="188" viewBox="0 0 692 188" fill="none" xmlns="http://www.w3.org/2000/svg">
<rect width="142.536" height="12.3944" rx="6.19722" transform="matrix(-1 0 0 1 240.536 87.2607)" fill="url(#paint0_linear_2248_1348)"/>
<rect x="209" width="216" height="188" rx="12.3944" fill="#131417"/>
<g filter="url(#filter0_dd_2248_1348)">
<rect x="235" y="59" width="35" height="30" rx="4" fill="url(#paint1_linear_2248_1348)" fill-opacity="0.2" shape-rendering="crispEdges"/>
</g>
<rect x="278" y="59" width="35" height="30" rx="4" fill="url(#paint2_linear_2248_1348)" fill-opacity="0.2"/>
<rect x="321" y="59" width="35" height="30" rx="4" fill="url(#paint3_linear_2248_1348)" fill-opacity="0.2"/>
<rect x="364" y="59" width="35" height="30" rx="4" fill="url(#paint4_linear_2248_1348)" fill-opacity="0.2"/>
<g filter="url(#filter1_dd_2248_1348)">
<rect x="235" y="101" width="164" height="12" rx="6" fill="url(#paint5_linear_2248_1348)" fill-opacity="0.2" shape-rendering="crispEdges"/>
</g>
<rect x="235" y="125" width="164" height="12" rx="6" fill="url(#paint6_linear_2248_1348)" fill-opacity="0.2"/>
<rect x="235" y="149" width="164" height="12" rx="6" fill="url(#paint7_linear_2248_1348)" fill-opacity="0.2"/>
<path d="M247.843 25.1632V23.0865H257.628V25.1632H253.98V35H251.491V25.1632H247.843ZM257.937 35V26.0649H260.34V27.6238H260.433C260.596 27.0693 260.869 26.6504 261.253 26.3673C261.637 26.0804 262.079 25.9369 262.579 25.9369C262.703 25.9369 262.837 25.9446 262.981 25.9601C263.124 25.9757 263.25 25.997 263.359 26.0241V28.223C263.242 28.1881 263.081 28.1571 262.876 28.1299C262.67 28.1028 262.482 28.0892 262.312 28.0892C261.947 28.0892 261.621 28.1687 261.334 28.3277C261.051 28.4828 260.826 28.7 260.66 28.9792C260.497 29.2585 260.415 29.5804 260.415 29.9449V35H257.937ZM266.604 35.1687C266.034 35.1687 265.526 35.0698 265.08 34.872C264.634 34.6704 264.281 34.3737 264.022 33.982C263.766 33.5864 263.638 33.0939 263.638 32.5044C263.638 32.008 263.729 31.5911 263.911 31.2538C264.093 30.9164 264.341 30.6449 264.656 30.4394C264.97 30.2338 265.327 30.0787 265.726 29.974C266.129 29.8693 266.552 29.7956 266.994 29.7529C267.514 29.6986 267.933 29.6482 268.251 29.6017C268.569 29.5513 268.799 29.4776 268.943 29.3806C269.086 29.2837 269.158 29.1402 269.158 28.9502V28.9153C269.158 28.5468 269.042 28.2618 268.809 28.0601C268.58 27.8585 268.254 27.7576 267.832 27.7576C267.386 27.7576 267.031 27.8565 266.767 28.0543C266.504 28.2482 266.329 28.4925 266.244 28.7873L263.952 28.6011C264.068 28.0582 264.297 27.5889 264.638 27.1934C264.979 26.7939 265.42 26.4876 265.959 26.2743C266.502 26.0571 267.13 25.9485 267.843 25.9485C268.34 25.9485 268.815 26.0067 269.269 26.123C269.726 26.2394 270.131 26.4197 270.484 26.664C270.841 26.9083 271.122 27.2225 271.328 27.6064C271.533 27.9865 271.636 28.4421 271.636 28.9734V35H269.286V33.7609H269.216C269.073 34.0402 268.881 34.2864 268.64 34.4997C268.4 34.7091 268.111 34.874 267.774 34.9942C267.436 35.1105 267.046 35.1687 266.604 35.1687ZM267.314 33.4585C267.679 33.4585 268 33.3867 268.28 33.2432C268.559 33.0959 268.778 32.8981 268.937 32.6499C269.096 32.4017 269.176 32.1205 269.176 31.8064V30.8582C269.098 30.9086 268.991 30.9551 268.856 30.9978C268.724 31.0366 268.574 31.0734 268.408 31.1083C268.241 31.1393 268.074 31.1684 267.907 31.1956C267.741 31.2188 267.589 31.2402 267.454 31.2596C267.163 31.3022 266.909 31.3701 266.692 31.4632C266.474 31.5562 266.306 31.6823 266.186 31.8413C266.065 31.9964 266.005 32.1903 266.005 32.423C266.005 32.7604 266.127 33.0183 266.372 33.1967C266.62 33.3712 266.934 33.4585 267.314 33.4585ZM275.709 29.8344V35H273.231V26.0649H275.593V27.6413H275.698C275.895 27.1216 276.227 26.7106 276.692 26.4081C277.158 26.1017 277.722 25.9485 278.385 25.9485C279.006 25.9485 279.547 26.0842 280.008 26.3557C280.47 26.6272 280.828 27.015 281.084 27.5191C281.34 28.0194 281.468 28.6166 281.468 29.3108V35H278.99V29.7529C278.994 29.2061 278.854 28.7795 278.571 28.4732C278.288 28.1629 277.898 28.0078 277.402 28.0078C277.069 28.0078 276.774 28.0795 276.518 28.223C276.266 28.3665 276.068 28.5759 275.924 28.8513C275.785 29.1227 275.713 29.4504 275.709 29.8344ZM290.528 28.6128L288.259 28.7524C288.221 28.5585 288.137 28.384 288.009 28.2288C287.881 28.0698 287.713 27.9438 287.503 27.8507C287.298 27.7538 287.051 27.7053 286.764 27.7053C286.38 27.7053 286.057 27.7867 285.793 27.9496C285.529 28.1086 285.397 28.3219 285.397 28.5895C285.397 28.8028 285.483 28.9831 285.653 29.1305C285.824 29.2779 286.117 29.3961 286.532 29.4853L288.149 29.8111C289.018 29.9895 289.665 30.2765 290.092 30.672C290.518 31.0676 290.732 31.5873 290.732 32.231C290.732 32.8166 290.559 33.3305 290.214 33.7726C289.873 34.2147 289.403 34.5598 288.806 34.808C288.213 35.0524 287.528 35.1745 286.753 35.1745C285.57 35.1745 284.627 34.9283 283.926 34.4357C283.228 33.9393 282.818 33.2645 282.698 32.4114L285.136 32.2834C285.209 32.6441 285.388 32.9194 285.671 33.1094C285.954 33.2956 286.316 33.3886 286.759 33.3886C287.193 33.3886 287.542 33.3053 287.806 33.1385C288.073 32.9679 288.209 32.7488 288.213 32.4812C288.209 32.2562 288.114 32.072 287.928 31.9285C287.742 31.7812 287.455 31.6687 287.067 31.5911L285.519 31.2828C284.647 31.1083 283.997 30.8058 283.571 30.3754C283.148 29.9449 282.937 29.3961 282.937 28.7291C282.937 28.1551 283.092 27.6607 283.402 27.2457C283.716 26.8308 284.156 26.5108 284.723 26.2859C285.293 26.061 285.96 25.9485 286.724 25.9485C287.852 25.9485 288.74 26.187 289.388 26.664C290.039 27.141 290.419 27.7906 290.528 28.6128ZM294.512 35.1687C293.942 35.1687 293.434 35.0698 292.988 34.872C292.542 34.6704 292.189 34.3737 291.93 33.982C291.674 33.5864 291.546 33.0939 291.546 32.5044C291.546 32.008 291.637 31.5911 291.819 31.2538C292.001 30.9164 292.25 30.6449 292.564 30.4394C292.878 30.2338 293.235 30.0787 293.634 29.974C294.037 29.8693 294.46 29.7956 294.902 29.7529C295.422 29.6986 295.841 29.6482 296.159 29.6017C296.477 29.5513 296.707 29.4776 296.851 29.3806C296.994 29.2837 297.066 29.1402 297.066 28.9502V28.9153C297.066 28.5468 296.95 28.2618 296.717 28.0601C296.488 27.8585 296.163 27.7576 295.74 27.7576C295.294 27.7576 294.939 27.8565 294.675 28.0543C294.412 28.2482 294.237 28.4925 294.152 28.7873L291.86 28.6011C291.976 28.0582 292.205 27.5889 292.546 27.1934C292.887 26.7939 293.328 26.4876 293.867 26.2743C294.41 26.0571 295.038 25.9485 295.751 25.9485C296.248 25.9485 296.723 26.0067 297.177 26.123C297.634 26.2394 298.04 26.4197 298.392 26.664C298.749 26.9083 299.03 27.2225 299.236 27.6064C299.441 27.9865 299.544 28.4421 299.544 28.9734V35H297.194V33.7609H297.124C296.981 34.0402 296.789 34.2864 296.548 34.4997C296.308 34.7091 296.019 34.874 295.682 34.9942C295.344 35.1105 294.954 35.1687 294.512 35.1687ZM295.222 33.4585C295.587 33.4585 295.908 33.3867 296.188 33.2432C296.467 33.0959 296.686 32.8981 296.845 32.6499C297.004 32.4017 297.084 32.1205 297.084 31.8064V30.8582C297.006 30.9086 296.899 30.9551 296.764 30.9978C296.632 31.0366 296.482 31.0734 296.316 31.1083C296.149 31.1393 295.982 31.1684 295.815 31.1956C295.649 31.2188 295.497 31.2402 295.362 31.2596C295.071 31.3022 294.817 31.3701 294.6 31.4632C294.382 31.5562 294.214 31.6823 294.094 31.8413C293.973 31.9964 293.913 32.1903 293.913 32.423C293.913 32.7604 294.035 33.0183 294.28 33.1967C294.528 33.3712 294.842 33.4585 295.222 33.4585ZM305.176 35.1745C304.261 35.1745 303.474 34.9806 302.815 34.5928C302.159 34.2011 301.655 33.6582 301.302 32.964C300.953 32.2698 300.778 31.4709 300.778 30.5673C300.778 29.6521 300.955 28.8493 301.308 28.159C301.665 27.4648 302.171 26.9238 302.826 26.536C303.482 26.1444 304.261 25.9485 305.165 25.9485C305.944 25.9485 306.627 26.0901 307.212 26.3732C307.798 26.6563 308.261 27.0538 308.603 27.5657C308.944 28.0776 309.132 28.6787 309.167 29.369H306.828C306.762 28.923 306.588 28.5643 306.305 28.2928C306.026 28.0175 305.659 27.8798 305.205 27.8798C304.821 27.8798 304.486 27.9845 304.199 28.1939C303.916 28.3995 303.695 28.7 303.536 29.0956C303.377 29.4912 303.297 29.9701 303.297 30.5324C303.297 31.1025 303.375 31.5873 303.53 31.9867C303.689 32.3862 303.912 32.6906 304.199 32.9C304.486 33.1094 304.821 33.2141 305.205 33.2141C305.488 33.2141 305.742 33.156 305.967 33.0396C306.196 32.9233 306.384 32.7546 306.532 32.5335C306.683 32.3086 306.782 32.0391 306.828 31.7249H309.167C309.128 32.4075 308.942 33.0086 308.608 33.5283C308.279 34.044 307.823 34.4474 307.241 34.7382C306.66 35.0291 305.971 35.1745 305.176 35.1745ZM315.178 26.0649V27.9263H309.798V26.0649H315.178ZM311.019 23.9241H313.497V32.2543C313.497 32.4831 313.532 32.6615 313.602 32.7895C313.672 32.9136 313.769 33.0008 313.893 33.0513C314.021 33.1017 314.168 33.1269 314.335 33.1269C314.451 33.1269 314.568 33.1172 314.684 33.0978C314.8 33.0745 314.89 33.0571 314.952 33.0454L315.341 34.8895C315.217 34.9283 315.043 34.9729 314.818 35.0233C314.593 35.0776 314.319 35.1105 313.998 35.1222C313.4 35.1454 312.877 35.0659 312.427 34.8837C311.981 34.7014 311.634 34.4183 311.386 34.0344C311.137 33.6504 311.015 33.1657 311.019 32.5801V23.9241ZM316.465 35V26.0649H318.943V35H316.465ZM317.71 24.9131C317.342 24.9131 317.025 24.7909 316.762 24.5466C316.502 24.2984 316.372 24.0017 316.372 23.6565C316.372 23.3153 316.502 23.0225 316.762 22.7782C317.025 22.53 317.342 22.4059 317.71 22.4059C318.078 22.4059 318.393 22.53 318.652 22.7782C318.916 23.0225 319.048 23.3153 319.048 23.6565C319.048 24.0017 318.916 24.2984 318.652 24.5466C318.393 24.7909 318.078 24.9131 317.71 24.9131ZM324.638 35.1745C323.734 35.1745 322.953 34.9825 322.293 34.5986C321.638 34.2108 321.132 33.6717 320.775 32.9814C320.418 32.2873 320.24 31.4826 320.24 30.5673C320.24 29.6443 320.418 28.8377 320.775 28.1474C321.132 27.4532 321.638 26.9142 322.293 26.5302C322.953 26.1424 323.734 25.9485 324.638 25.9485C325.541 25.9485 326.321 26.1424 326.976 26.5302C327.636 26.9142 328.144 27.4532 328.5 28.1474C328.857 28.8377 329.036 29.6443 329.036 30.5673C329.036 31.4826 328.857 32.2873 328.5 32.9814C328.144 33.6717 327.636 34.2108 326.976 34.5986C326.321 34.9825 325.541 35.1745 324.638 35.1745ZM324.649 33.2549C325.061 33.2549 325.404 33.1385 325.679 32.9058C325.954 32.6693 326.162 32.3474 326.301 31.9402C326.445 31.533 326.517 31.0695 326.517 30.5499C326.517 30.0302 326.445 29.5668 326.301 29.1596C326.162 28.7524 325.954 28.4305 325.679 28.1939C325.404 27.9574 325.061 27.8391 324.649 27.8391C324.234 27.8391 323.885 27.9574 323.602 28.1939C323.323 28.4305 323.112 28.7524 322.968 29.1596C322.829 29.5668 322.759 30.0302 322.759 30.5499C322.759 31.0695 322.829 31.533 322.968 31.9402C323.112 32.3474 323.323 32.6693 323.602 32.9058C323.885 33.1385 324.234 33.2549 324.649 33.2549ZM332.797 29.8344V35H330.319V26.0649H332.681V27.6413H332.786C332.984 27.1216 333.315 26.7106 333.78 26.4081C334.246 26.1017 334.81 25.9485 335.473 25.9485C336.094 25.9485 336.635 26.0842 337.096 26.3557C337.558 26.6272 337.916 27.015 338.172 27.5191C338.428 28.0194 338.556 28.6166 338.556 29.3108V35H336.078V29.7529C336.082 29.2061 335.943 28.7795 335.659 28.4732C335.376 28.1629 334.987 28.0078 334.49 28.0078C334.157 28.0078 333.862 28.0795 333.606 28.223C333.354 28.3665 333.156 28.5759 333.013 28.8513C332.873 29.1227 332.801 29.4504 332.797 29.8344ZM343.692 35V23.0865H348.392C349.292 23.0865 350.06 23.2474 350.696 23.5693C351.336 23.8873 351.823 24.3391 352.156 24.9247C352.493 25.5064 352.662 26.1909 352.662 26.9781C352.662 27.7693 352.492 28.4499 352.15 29.02C351.809 29.5862 351.315 30.0205 350.667 30.323C350.023 30.6255 349.244 30.7767 348.328 30.7767H345.181V28.7524H347.921C348.402 28.7524 348.802 28.6864 349.12 28.5546C349.438 28.4227 349.674 28.225 349.829 27.9612C349.988 27.6975 350.068 27.3698 350.068 26.9781C350.068 26.5826 349.988 26.2491 349.829 25.9776C349.674 25.7061 349.436 25.5006 349.114 25.361C348.796 25.2175 348.394 25.1457 347.91 25.1457H346.211V35H343.692ZM350.126 29.5784L353.087 35H350.306L347.409 29.5784H350.126ZM359.798 31.1956V26.0649H362.276V35H359.897V33.377H359.804C359.602 33.9006 359.267 34.3213 358.797 34.6393C358.332 34.9573 357.764 35.1163 357.093 35.1163C356.496 35.1163 355.97 34.9806 355.517 34.7091C355.063 34.4377 354.708 34.0518 354.452 33.5515C354.2 33.0513 354.072 32.4521 354.068 31.754V26.0649H356.546V31.3119C356.55 31.8393 356.692 32.2562 356.971 32.5626C357.25 32.869 357.624 33.0222 358.094 33.0222C358.392 33.0222 358.671 32.9543 358.931 32.8186C359.191 32.679 359.4 32.4734 359.559 32.2019C359.722 31.9305 359.802 31.595 359.798 31.1956ZM366.409 23.0865V35H363.931V23.0865H366.409ZM372.138 35.1745C371.219 35.1745 370.428 34.9884 369.765 34.6161C369.106 34.2399 368.598 33.7086 368.241 33.0222C367.884 32.3319 367.706 31.5155 367.706 30.5731C367.706 29.654 367.884 28.8474 368.241 28.1532C368.598 27.459 369.1 26.918 369.747 26.5302C370.399 26.1424 371.163 25.9485 372.039 25.9485C372.629 25.9485 373.178 26.0435 373.686 26.2335C374.198 26.4197 374.643 26.7009 375.024 27.077C375.407 27.4532 375.706 27.9263 375.919 28.4964C376.133 29.0626 376.239 29.7258 376.239 30.4859V31.1665H368.694V29.6308H373.907C373.907 29.274 373.829 28.9579 373.674 28.6826C373.519 28.4072 373.304 28.192 373.028 28.0369C372.757 27.8779 372.441 27.7984 372.08 27.7984C371.704 27.7984 371.37 27.8856 371.08 28.0601C370.793 28.2308 370.568 28.4615 370.405 28.7524C370.242 29.0394 370.158 29.3593 370.155 29.7122V31.1723C370.155 31.6144 370.236 31.9964 370.399 32.3183C370.566 32.6402 370.8 32.8884 371.103 33.0629C371.405 33.2374 371.764 33.3247 372.179 33.3247C372.454 33.3247 372.706 33.2859 372.935 33.2083C373.164 33.1308 373.36 33.0144 373.523 32.8593C373.686 32.7042 373.81 32.5141 373.895 32.2892L376.187 32.4405C376.071 32.9911 375.832 33.472 375.471 33.8831C375.115 34.2903 374.653 34.6083 374.087 34.8371C373.525 35.062 372.875 35.1745 372.138 35.1745ZM384.963 28.6128L382.694 28.7524C382.656 28.5585 382.572 28.384 382.444 28.2288C382.316 28.0698 382.148 27.9438 381.938 27.8507C381.733 27.7538 381.486 27.7053 381.199 27.7053C380.816 27.7053 380.492 27.7867 380.228 27.9496C379.964 28.1086 379.832 28.3219 379.832 28.5895C379.832 28.8028 379.918 28.9831 380.088 29.1305C380.259 29.2779 380.552 29.3961 380.967 29.4853L382.584 29.8111C383.453 29.9895 384.1 30.2765 384.527 30.672C384.953 31.0676 385.167 31.5873 385.167 32.231C385.167 32.8166 384.994 33.3305 384.649 33.7726C384.308 34.2147 383.839 34.5598 383.241 34.808C382.648 35.0524 381.963 35.1745 381.188 35.1745C380.005 35.1745 379.063 34.9283 378.361 34.4357C377.663 33.9393 377.254 33.2645 377.133 32.4114L379.571 32.2834C379.644 32.6441 379.823 32.9194 380.106 33.1094C380.389 33.2956 380.752 33.3886 381.194 33.3886C381.628 33.3886 381.977 33.3053 382.241 33.1385C382.508 32.9679 382.644 32.7488 382.648 32.4812C382.644 32.2562 382.549 32.072 382.363 31.9285C382.177 31.7812 381.89 31.6687 381.502 31.5911L379.955 31.2828C379.082 31.1083 378.432 30.8058 378.006 30.3754C377.583 29.9449 377.372 29.3961 377.372 28.7291C377.372 28.1551 377.527 27.6607 377.837 27.2457C378.151 26.8308 378.591 26.5108 379.158 26.2859C379.728 26.061 380.395 25.9485 381.159 25.9485C382.287 25.9485 383.175 26.187 383.823 26.664C384.475 27.141 384.855 27.7906 384.963 28.6128Z" fill="url(#paint8_linear_2248_1348)" fill-opacity="0.55"/>
<rect x="501" y="20" width="191" height="69" rx="12.3944" fill="#131417" fill-opacity="0.5"/>
<g filter="url(#filter2_dd_2248_1348)">
<rect x="534" y="59" width="125" height="15" rx="7.3162" fill="#121212"/>
</g>
<path d="M577.541 32.2727V41H575.947L572.15 35.5071H572.086V41H570.241V32.2727H571.86L575.627 37.7614H575.704V32.2727H577.541ZM581.774 41.1278C581.101 41.1278 580.521 40.9915 580.036 40.7188C579.553 40.4432 579.18 40.054 578.919 39.5511C578.658 39.0455 578.527 38.4474 578.527 37.7571C578.527 37.0838 578.658 36.4929 578.919 35.9844C579.18 35.4759 579.548 35.0795 580.023 34.7955C580.5 34.5114 581.06 34.3693 581.702 34.3693C582.134 34.3693 582.536 34.4389 582.908 34.5781C583.283 34.7145 583.609 34.9205 583.888 35.196C584.169 35.4716 584.388 35.8182 584.544 36.2358C584.7 36.6506 584.778 37.1364 584.778 37.6932V38.1918H579.251V37.0668H583.07C583.07 36.8054 583.013 36.5739 582.899 36.3722C582.786 36.1705 582.628 36.0128 582.426 35.8991C582.227 35.7827 581.996 35.7244 581.732 35.7244C581.456 35.7244 581.212 35.7884 580.999 35.9162C580.788 36.0412 580.624 36.2102 580.504 36.4233C580.385 36.6335 580.324 36.8679 580.321 37.1264V38.196C580.321 38.5199 580.381 38.7997 580.5 39.0355C580.622 39.2713 580.794 39.4531 581.016 39.581C581.237 39.7088 581.5 39.7727 581.804 39.7727C582.006 39.7727 582.19 39.7443 582.358 39.6875C582.526 39.6307 582.669 39.5455 582.788 39.4318C582.908 39.3182 582.999 39.179 583.061 39.0142L584.74 39.125C584.655 39.5284 584.48 39.8807 584.216 40.1818C583.955 40.4801 583.617 40.7131 583.202 40.8807C582.79 41.0455 582.314 41.1278 581.774 41.1278ZM586.967 41L585.186 34.4545H587.023L588.037 38.8523H588.097L589.154 34.4545H590.956L592.03 38.8267H592.085L593.082 34.4545H594.915L593.138 41H591.216L590.091 36.8835H590.01L588.885 41H586.967ZM598.215 41V32.2727H601.658C602.317 32.2727 602.879 32.3906 603.345 32.6264C603.814 32.8594 604.171 33.1903 604.415 33.6193C604.662 34.0455 604.786 34.5469 604.786 35.1236C604.786 35.7031 604.661 36.2017 604.411 36.6193C604.161 37.0341 603.799 37.3523 603.324 37.5739C602.852 37.7955 602.281 37.9062 601.611 37.9062H599.306V36.4233H601.313C601.665 36.4233 601.958 36.375 602.191 36.2784C602.424 36.1818 602.597 36.0369 602.71 35.8438C602.827 35.6506 602.885 35.4105 602.885 35.1236C602.885 34.8338 602.827 34.5895 602.71 34.3906C602.597 34.1918 602.422 34.0412 602.186 33.9389C601.953 33.8338 601.659 33.7812 601.304 33.7812H600.06V41H598.215ZM602.928 37.0284L605.097 41H603.06L600.938 37.0284H602.928ZM610.013 38.2131V34.4545H611.828V41H610.085V39.8111H610.017C609.87 40.1946 609.624 40.5028 609.28 40.7358C608.939 40.9687 608.523 41.0852 608.032 41.0852C607.594 41.0852 607.209 40.9858 606.877 40.7869C606.544 40.5881 606.284 40.3054 606.097 39.9389C605.912 39.5724 605.818 39.1335 605.816 38.6222V34.4545H607.631V38.2983C607.634 38.6847 607.737 38.9901 607.942 39.2145C608.147 39.4389 608.421 39.5511 608.764 39.5511C608.983 39.5511 609.188 39.5014 609.378 39.402C609.568 39.2997 609.722 39.1491 609.838 38.9503C609.958 38.7514 610.016 38.5057 610.013 38.2131ZM614.856 32.2727V41H613.04V32.2727H614.856ZM619.053 41.1278C618.38 41.1278 617.8 40.9915 617.314 40.7188C616.831 40.4432 616.459 40.054 616.198 39.5511C615.936 39.0455 615.806 38.4474 615.806 37.7571C615.806 37.0838 615.936 36.4929 616.198 35.9844C616.459 35.4759 616.827 35.0795 617.302 34.7955C617.779 34.5114 618.338 34.3693 618.98 34.3693C619.412 34.3693 619.814 34.4389 620.186 34.5781C620.561 34.7145 620.888 34.9205 621.167 35.196C621.448 35.4716 621.667 35.8182 621.823 36.2358C621.979 36.6506 622.057 37.1364 622.057 37.6932V38.1918H616.53V37.0668H620.348C620.348 36.8054 620.292 36.5739 620.178 36.3722C620.064 36.1705 619.907 36.0128 619.705 35.8991C619.506 35.7827 619.275 35.7244 619.01 35.7244C618.735 35.7244 618.49 35.7884 618.277 35.9162C618.067 36.0412 617.902 36.2102 617.783 36.4233C617.664 36.6335 617.603 36.8679 617.6 37.1264V38.196C617.6 38.5199 617.659 38.7997 617.779 39.0355C617.901 39.2713 618.073 39.4531 618.294 39.581C618.516 39.7088 618.779 39.7727 619.083 39.7727C619.284 39.7727 619.469 39.7443 619.637 39.6875C619.804 39.6307 619.948 39.5455 620.067 39.4318C620.186 39.3182 620.277 39.179 620.34 39.0142L622.019 39.125C621.934 39.5284 621.759 39.8807 621.495 40.1818C621.233 40.4801 620.895 40.7131 620.48 40.8807C620.069 41.0455 619.593 41.1278 619.053 41.1278Z" fill="url(#paint9_linear_2248_1348)" fill-opacity="0.55"/>
<rect x="501" y="110" width="191" height="73" rx="12.3944" fill="#131417" fill-opacity="0.5"/>
<path d="M577.541 122.273V131H575.947L572.15 125.507H572.086V131H570.241V122.273H571.86L575.627 127.761H575.704V122.273H577.541ZM581.774 131.128C581.101 131.128 580.521 130.991 580.036 130.719C579.553 130.443 579.18 130.054 578.919 129.551C578.658 129.045 578.527 128.447 578.527 127.757C578.527 127.084 578.658 126.493 578.919 125.984C579.18 125.476 579.548 125.08 580.023 124.795C580.5 124.511 581.06 124.369 581.702 124.369C582.134 124.369 582.536 124.439 582.908 124.578C583.283 124.714 583.609 124.92 583.888 125.196C584.169 125.472 584.388 125.818 584.544 126.236C584.7 126.651 584.778 127.136 584.778 127.693V128.192H579.251V127.067H583.07C583.07 126.805 583.013 126.574 582.899 126.372C582.786 126.17 582.628 126.013 582.426 125.899C582.227 125.783 581.996 125.724 581.732 125.724C581.456 125.724 581.212 125.788 580.999 125.916C580.788 126.041 580.624 126.21 580.504 126.423C580.385 126.634 580.324 126.868 580.321 127.126V128.196C580.321 128.52 580.381 128.8 580.5 129.036C580.622 129.271 580.794 129.453 581.016 129.581C581.237 129.709 581.5 129.773 581.804 129.773C582.006 129.773 582.19 129.744 582.358 129.688C582.526 129.631 582.669 129.545 582.788 129.432C582.908 129.318 582.999 129.179 583.061 129.014L584.74 129.125C584.655 129.528 584.48 129.881 584.216 130.182C583.955 130.48 583.617 130.713 583.202 130.881C582.79 131.045 582.314 131.128 581.774 131.128ZM586.967 131L585.186 124.455H587.023L588.037 128.852H588.097L589.154 124.455H590.956L592.03 128.827H592.085L593.082 124.455H594.915L593.138 131H591.216L590.091 126.884H590.01L588.885 131H586.967ZM598.215 131V122.273H601.658C602.317 122.273 602.879 122.391 603.345 122.626C603.814 122.859 604.171 123.19 604.415 123.619C604.662 124.045 604.786 124.547 604.786 125.124C604.786 125.703 604.661 126.202 604.411 126.619C604.161 127.034 603.799 127.352 603.324 127.574C602.852 127.795 602.281 127.906 601.611 127.906H599.306V126.423H601.313C601.665 126.423 601.958 126.375 602.191 126.278C602.424 126.182 602.597 126.037 602.71 125.844C602.827 125.651 602.885 125.411 602.885 125.124C602.885 124.834 602.827 124.589 602.71 124.391C602.597 124.192 602.422 124.041 602.186 123.939C601.953 123.834 601.659 123.781 601.304 123.781H600.06V131H598.215ZM602.928 127.028L605.097 131H603.06L600.938 127.028H602.928ZM610.013 128.213V124.455H611.828V131H610.085V129.811H610.017C609.87 130.195 609.624 130.503 609.28 130.736C608.939 130.969 608.523 131.085 608.032 131.085C607.594 131.085 607.209 130.986 606.877 130.787C606.544 130.588 606.284 130.305 606.097 129.939C605.912 129.572 605.818 129.134 605.816 128.622V124.455H607.631V128.298C607.634 128.685 607.737 128.99 607.942 129.214C608.147 129.439 608.421 129.551 608.764 129.551C608.983 129.551 609.188 129.501 609.378 129.402C609.568 129.3 609.722 129.149 609.838 128.95C609.958 128.751 610.016 128.506 610.013 128.213ZM614.856 122.273V131H613.04V122.273H614.856ZM619.053 131.128C618.38 131.128 617.8 130.991 617.314 130.719C616.831 130.443 616.459 130.054 616.198 129.551C615.936 129.045 615.806 128.447 615.806 127.757C615.806 127.084 615.936 126.493 616.198 125.984C616.459 125.476 616.827 125.08 617.302 124.795C617.779 124.511 618.338 124.369 618.98 124.369C619.412 124.369 619.814 124.439 620.186 124.578C620.561 124.714 620.888 124.92 621.167 125.196C621.448 125.472 621.667 125.818 621.823 126.236C621.979 126.651 622.057 127.136 622.057 127.693V128.192H616.53V127.067H620.348C620.348 126.805 620.292 126.574 620.178 126.372C620.064 126.17 619.907 126.013 619.705 125.899C619.506 125.783 619.275 125.724 619.01 125.724C618.735 125.724 618.49 125.788 618.277 125.916C618.067 126.041 617.902 126.21 617.783 126.423C617.664 126.634 617.603 126.868 617.6 127.126V128.196C617.6 128.52 617.659 128.8 617.779 129.036C617.901 129.271 618.073 129.453 618.294 129.581C618.516 129.709 618.779 129.773 619.083 129.773C619.284 129.773 619.469 129.744 619.637 129.688C619.804 129.631 619.948 129.545 620.067 129.432C620.186 129.318 620.277 129.179 620.34 129.014L622.019 129.125C621.934 129.528 621.759 129.881 621.495 130.182C621.233 130.48 620.895 130.713 620.48 130.881C620.069 131.045 619.593 131.128 619.053 131.128Z" fill="url(#paint10_linear_2248_1348)" fill-opacity="0.55"/>
<g filter="url(#filter3_dd_2248_1348)">
<rect x="579" y="142" width="35" height="30" rx="4" fill="url(#paint11_linear_2248_1348)" fill-opacity="0.2" shape-rendering="crispEdges"/>
</g>
<g filter="url(#filter4_dd_2248_1348)">
<circle cx="70.5" cy="93.5" r="46.5" fill="url(#paint12_linear_2248_1348)"/>
</g>
<path d="M91.7159 80.5835V75.4168C91.7159 72.5674 89.5 70.2501 86.7752 70.2501H54.6612C50.5753 70.2501 47.2502 73.7273 47.2502 78.0001V109C47.2502 114.686 51.682 116.75 54.6612 116.75H91.7159C94.4406 116.75 96.6565 114.433 96.6565 111.583V85.7501C96.6565 82.9007 94.4406 80.5835 91.7159 80.5835ZM86.7752 103.833H81.8346V93.5001H86.7752V103.833ZM54.6612 80.5835C54.0251 80.5537 53.4246 80.2685 52.9845 79.7873C52.5445 79.3061 52.2989 78.6659 52.2989 78.0001C52.2989 77.3343 52.5445 76.6941 52.9845 76.2129C53.4246 75.7317 54.0251 75.4465 54.6612 75.4168H86.7752V80.5835H54.6612Z" fill="white"/>
<path d="M454.157 55.9688L461.533 66.2847C462.154 67.1611 463.158 67.6906 464.236 67.6906C466.956 67.6906 468.526 64.6232 466.956 62.4139L461.606 54.9098L466.956 47.4057C468.545 45.1964 466.956 42.129 464.236 42.129C463.158 42.129 462.136 42.6585 461.515 43.5349L454.139 53.8508C453.701 54.4899 453.701 55.3297 454.157 55.9688Z" fill="url(#paint13_linear_2248_1348)" fill-opacity="0.65"/>
<path d="M466.938 55.9688L474.296 66.2847C474.935 67.1611 475.939 67.6906 477.016 67.6906C479.737 67.6906 481.325 64.6232 479.737 62.4139L474.387 54.9098L479.737 47.4057C481.325 45.1964 479.737 42.129 477.016 42.129C475.939 42.129 474.917 42.6585 474.296 43.5349L466.92 53.8508C466.481 54.4899 466.481 55.3297 466.938 55.9688Z" fill="url(#paint14_linear_2248_1348)" fill-opacity="0.65"/>
<path d="M454.157 145.969L461.533 156.285C462.154 157.161 463.158 157.691 464.236 157.691C466.956 157.691 468.526 154.623 466.956 152.414L461.606 144.91L466.956 137.406C468.545 135.196 466.956 132.129 464.236 132.129C463.158 132.129 462.136 132.659 461.515 133.535L454.139 143.851C453.701 144.49 453.701 145.33 454.157 145.969Z" fill="url(#paint15_linear_2248_1348)" fill-opacity="0.65"/>
<path d="M466.938 145.969L474.296 156.285C474.935 157.161 475.939 157.691 477.016 157.691C479.737 157.691 481.325 154.623 479.737 152.414L474.387 144.91L479.737 137.406C481.325 135.196 479.737 132.129 477.016 132.129C475.939 132.129 474.917 132.659 474.296 133.535L466.92 143.851C466.481 144.49 466.481 145.33 466.938 145.969Z" fill="url(#paint16_linear_2248_1348)" fill-opacity="0.65"/>
<defs>
<filter id="filter0_dd_2248_1348" x="225.855" y="47.8548" width="53.2905" height="49.1452" filterUnits="userSpaceOnUse" color-interpolation-filters="sRGB">
<feFlood flood-opacity="0" result="BackgroundImageFix"/>
<feColorMatrix in="SourceAlpha" type="matrix" values="0 0 0 0 0 0 0 0 0 0 0 0 0 0 0 0 0 0 127 0" result="hardAlpha"/>
<feOffset dy="2"/>
<feGaussianBlur stdDeviation="3"/>
<feComposite in2="hardAlpha" operator="out"/>
<feColorMatrix type="matrix" values="0 0 0 0 0.2 0 0 0 0 0.521569 0 0 0 0 1 0 0 0 0.65 0"/>
<feBlend mode="normal" in2="BackgroundImageFix" result="effect1_dropShadow_2248_1348"/>
<feColorMatrix in="SourceAlpha" type="matrix" values="0 0 0 0 0 0 0 0 0 0 0 0 0 0 0 0 0 0 127 0" result="hardAlpha"/>
<feOffset dy="-2"/>
<feGaussianBlur stdDeviation="4.57262"/>
<feComposite in2="hardAlpha" operator="out"/>
<feColorMatrix type="matrix" values="0 0 0 0 0.2 0 0 0 0 0.521569 0 0 0 0 1 0 0 0 0.65 0"/>
<feBlend mode="normal" in2="effect1_dropShadow_2248_1348" result="effect2_dropShadow_2248_1348"/>
<feBlend mode="normal" in="SourceGraphic" in2="effect2_dropShadow_2248_1348" result="shape"/>
</filter>
<filter id="filter1_dd_2248_1348" x="225.855" y="89.8548" width="182.29" height="31.1452" filterUnits="userSpaceOnUse" color-interpolation-filters="sRGB">
<feFlood flood-opacity="0" result="BackgroundImageFix"/>
<feColorMatrix in="SourceAlpha" type="matrix" values="0 0 0 0 0 0 0 0 0 0 0 0 0 0 0 0 0 0 127 0" result="hardAlpha"/>
<feOffset dy="2"/>
<feGaussianBlur stdDeviation="3"/>
<feComposite in2="hardAlpha" operator="out"/>
<feColorMatrix type="matrix" values="0 0 0 0 0.2 0 0 0 0 0.521569 0 0 0 0 1 0 0 0 0.65 0"/>
<feBlend mode="normal" in2="BackgroundImageFix" result="effect1_dropShadow_2248_1348"/>
<feColorMatrix in="SourceAlpha" type="matrix" values="0 0 0 0 0 0 0 0 0 0 0 0 0 0 0 0 0 0 127 0" result="hardAlpha"/>
<feOffset dy="-2"/>
<feGaussianBlur stdDeviation="4.57262"/>
<feComposite in2="hardAlpha" operator="out"/>
<feColorMatrix type="matrix" values="0 0 0 0 0.2 0 0 0 0 0.521569 0 0 0 0 1 0 0 0 0.65 0"/>
<feBlend mode="normal" in2="effect1_dropShadow_2248_1348" result="effect2_dropShadow_2248_1348"/>
<feBlend mode="normal" in="SourceGraphic" in2="effect2_dropShadow_2248_1348" result="shape"/>
</filter>
<filter id="filter2_dd_2248_1348" x="524.855" y="45.2821" width="143.29" height="42.4357" filterUnits="userSpaceOnUse" color-interpolation-filters="sRGB">
<feFlood flood-opacity="0" result="BackgroundImageFix"/>
<feColorMatrix in="SourceAlpha" type="matrix" values="0 0 0 0 0 0 0 0 0 0 0 0 0 0 0 0 0 0 127 0" result="hardAlpha"/>
<feOffset dy="4.57262"/>
<feGaussianBlur stdDeviation="4.57262"/>
<feComposite in2="hardAlpha" operator="out"/>
<feColorMatrix type="matrix" values="0 0 0 0 0.2 0 0 0 0 0.521569 0 0 0 0 1 0 0 0 0.45 0"/>
<feBlend mode="normal" in2="BackgroundImageFix" result="effect1_dropShadow_2248_1348"/>
<feColorMatrix in="SourceAlpha" type="matrix" values="0 0 0 0 0 0 0 0 0 0 0 0 0 0 0 0 0 0 127 0" result="hardAlpha"/>
<feOffset dy="-4.57262"/>
<feGaussianBlur stdDeviation="4.57262"/>
<feComposite in2="hardAlpha" operator="out"/>
<feColorMatrix type="matrix" values="0 0 0 0 0.2 0 0 0 0 0.521569 0 0 0 0 1 0 0 0 0.45 0"/>
<feBlend mode="normal" in2="effect1_dropShadow_2248_1348" result="effect2_dropShadow_2248_1348"/>
<feBlend mode="normal" in="SourceGraphic" in2="effect2_dropShadow_2248_1348" result="shape"/>
</filter>
<filter id="filter3_dd_2248_1348" x="569.855" y="130.855" width="53.2905" height="49.1452" filterUnits="userSpaceOnUse" color-interpolation-filters="sRGB">
<feFlood flood-opacity="0" result="BackgroundImageFix"/>
<feColorMatrix in="SourceAlpha" type="matrix" values="0 0 0 0 0 0 0 0 0 0 0 0 0 0 0 0 0 0 127 0" result="hardAlpha"/>
<feOffset dy="2"/>
<feGaussianBlur stdDeviation="3"/>
<feComposite in2="hardAlpha" operator="out"/>
<feColorMatrix type="matrix" values="0 0 0 0 0.2 0 0 0 0 0.521569 0 0 0 0 1 0 0 0 0.65 0"/>
<feBlend mode="normal" in2="BackgroundImageFix" result="effect1_dropShadow_2248_1348"/>
<feColorMatrix in="SourceAlpha" type="matrix" values="0 0 0 0 0 0 0 0 0 0 0 0 0 0 0 0 0 0 127 0" result="hardAlpha"/>
<feOffset dy="-2"/>
<feGaussianBlur stdDeviation="4.57262"/>
<feComposite in2="hardAlpha" operator="out"/>
<feColorMatrix type="matrix" values="0 0 0 0 0.2 0 0 0 0 0.521569 0 0 0 0 1 0 0 0 0.65 0"/>
<feBlend mode="normal" in2="effect1_dropShadow_2248_1348" result="effect2_dropShadow_2248_1348"/>
<feBlend mode="normal" in="SourceGraphic" in2="effect2_dropShadow_2248_1348" result="shape"/>
</filter>
<filter id="filter4_dd_2248_1348" x="0" y="11" width="141" height="165" filterUnits="userSpaceOnUse" color-interpolation-filters="sRGB">
<feFlood flood-opacity="0" result="BackgroundImageFix"/>
<feColorMatrix in="SourceAlpha" type="matrix" values="0 0 0 0 0 0 0 0 0 0 0 0 0 0 0 0 0 0 127 0" result="hardAlpha"/>
<feOffset dy="12"/>
<feGaussianBlur stdDeviation="12"/>
<feComposite in2="hardAlpha" operator="out"/>
<feColorMatrix type="matrix" values="0 0 0 0 0.2 0 0 0 0 0.521569 0 0 0 0 1 0 0 0 0.45 0"/>
<feBlend mode="normal" in2="BackgroundImageFix" result="effect1_dropShadow_2248_1348"/>
<feColorMatrix in="SourceAlpha" type="matrix" values="0 0 0 0 0 0 0 0 0 0 0 0 0 0 0 0 0 0 127 0" result="hardAlpha"/>
<feOffset dy="-12"/>
<feGaussianBlur stdDeviation="12"/>
<feComposite in2="hardAlpha" operator="out"/>
<feColorMatrix type="matrix" values="0 0 0 0 0.2 0 0 0 0 0.521569 0 0 0 0 1 0 0 0 0.45 0"/>
<feBlend mode="normal" in2="effect1_dropShadow_2248_1348" result="effect2_dropShadow_2248_1348"/>
<feBlend mode="normal" in="SourceGraphic" in2="effect2_dropShadow_2248_1348" result="shape"/>
</filter>
<linearGradient id="paint0_linear_2248_1348" x1="122" y1="-0.260781" x2="3.99999" y2="9.23923" gradientUnits="userSpaceOnUse">
<stop stop-color="#007AFF"/>
<stop offset="1" stop-color="#007AFF" stop-opacity="0"/>
</linearGradient>
<linearGradient id="paint1_linear_2248_1348" x1="287.5" y1="42.125" x2="236.787" y2="103.173" gradientUnits="userSpaceOnUse">
<stop stop-color="white"/>
<stop offset="1" stop-color="white" stop-opacity="0"/>
</linearGradient>
<linearGradient id="paint2_linear_2248_1348" x1="330.5" y1="42.125" x2="279.787" y2="103.173" gradientUnits="userSpaceOnUse">
<stop stop-color="white"/>
<stop offset="1" stop-color="white" stop-opacity="0"/>
</linearGradient>
<linearGradient id="paint3_linear_2248_1348" x1="373.5" y1="42.125" x2="322.787" y2="103.173" gradientUnits="userSpaceOnUse">
<stop stop-color="white"/>
<stop offset="1" stop-color="white" stop-opacity="0"/>
</linearGradient>
<linearGradient id="paint4_linear_2248_1348" x1="416.5" y1="42.125" x2="365.787" y2="103.173" gradientUnits="userSpaceOnUse">
<stop stop-color="white"/>
<stop offset="1" stop-color="white" stop-opacity="0"/>
</linearGradient>
<linearGradient id="paint5_linear_2248_1348" x1="481" y1="94.25" x2="478.088" y2="135.314" gradientUnits="userSpaceOnUse">
<stop stop-color="white"/>
<stop offset="1" stop-color="white" stop-opacity="0"/>
</linearGradient>
<linearGradient id="paint6_linear_2248_1348" x1="481" y1="118.25" x2="478.088" y2="159.314" gradientUnits="userSpaceOnUse">
<stop stop-color="white"/>
<stop offset="1" stop-color="white" stop-opacity="0"/>
</linearGradient>
<linearGradient id="paint7_linear_2248_1348" x1="481" y1="142.25" x2="478.088" y2="183.314" gradientUnits="userSpaceOnUse">
<stop stop-color="white"/>
<stop offset="1" stop-color="white" stop-opacity="0"/>
</linearGradient>
<linearGradient id="paint8_linear_2248_1348" x1="370.717" y1="26.25" x2="361.385" y2="73.3369" gradientUnits="userSpaceOnUse">
<stop stop-color="white"/>
<stop offset="1" stop-color="white" stop-opacity="0"/>
</linearGradient>
<linearGradient id="paint9_linear_2248_1348" x1="617.063" y1="34.25" x2="597.253" y2="73.0804" gradientUnits="userSpaceOnUse">
<stop stop-color="white"/>
<stop offset="1" stop-color="white" stop-opacity="0"/>
</linearGradient>
<linearGradient id="paint10_linear_2248_1348" x1="617.063" y1="124.25" x2="597.253" y2="163.08" gradientUnits="userSpaceOnUse">
<stop stop-color="white"/>
<stop offset="1" stop-color="white" stop-opacity="0"/>
</linearGradient>
<linearGradient id="paint11_linear_2248_1348" x1="631.5" y1="125.125" x2="580.787" y2="186.173" gradientUnits="userSpaceOnUse">
<stop stop-color="white"/>
<stop offset="1" stop-color="white" stop-opacity="0"/>
</linearGradient>
<linearGradient id="paint12_linear_2248_1348" x1="163.5" y1="-5.3125" x2="3.65625" y2="159.617" gradientUnits="userSpaceOnUse">
<stop stop-color="#B6B6B6"/>
<stop offset="0.0001" stop-color="#767676"/>
<stop offset="1"/>
</linearGradient>
<linearGradient id="paint13_linear_2248_1348" x1="446.924" y1="82.0689" x2="484.264" y2="61.3053" gradientUnits="userSpaceOnUse">
<stop stop-color="white"/>
<stop offset="1" stop-color="white" stop-opacity="0"/>
</linearGradient>
<linearGradient id="paint14_linear_2248_1348" x1="459.705" y1="82.0689" x2="497.044" y2="61.3053" gradientUnits="userSpaceOnUse">
<stop stop-color="white"/>
<stop offset="1" stop-color="white" stop-opacity="0"/>
</linearGradient>
<linearGradient id="paint15_linear_2248_1348" x1="446.924" y1="172.069" x2="484.264" y2="151.305" gradientUnits="userSpaceOnUse">
<stop stop-color="white"/>
<stop offset="1" stop-color="white" stop-opacity="0"/>
</linearGradient>
<linearGradient id="paint16_linear_2248_1348" x1="459.705" y1="172.069" x2="497.044" y2="151.305" gradientUnits="userSpaceOnUse">
<stop stop-color="white"/>
<stop offset="1" stop-color="white" stop-opacity="0"/>
</linearGradient>
</defs>
</svg>
