<svg width="510" height="510" viewBox="0 0 510 510" fill="none" xmlns="http://www.w3.org/2000/svg">
<g clip-path="url(#clip0_5423_957)">
<path d="M332.941 333.271L59.2371 444.331C56.2002 445.56 52.8823 443.33 52.8823 440.056V177.351C52.8823 172.699 55.6999 168.521 60.0007 166.774L333.713 55.6177C336.75 54.3889 340.068 56.6183 340.068 59.8923V322.686C340.068 327.338 337.251 331.516 332.941 333.271Z" fill="black" stroke="#A3A3A3" stroke-width="0.983062" stroke-miterlimit="10"/>
<path d="M338.269 335.905L64.5648 446.964C61.5278 448.193 58.21 445.964 58.21 442.69V179.984C58.21 175.332 61.0275 171.154 65.3284 169.407L339.05 58.251C342.087 57.0222 345.405 59.2516 345.405 62.5256V325.319C345.405 329.971 342.587 334.149 338.277 335.905H338.269Z" fill="black" stroke="#A3A3A3" stroke-width="0.983062" stroke-miterlimit="10"/>
<path d="M401.378 333.271L127.666 444.331C124.629 445.56 121.311 443.33 121.311 440.056V177.351C121.311 172.699 124.129 168.521 128.429 166.774L402.151 55.6177C405.188 54.3889 408.506 56.6183 408.506 59.8923V322.686C408.506 327.338 405.688 331.516 401.378 333.271Z" fill="black" stroke="#A3A3A3" stroke-width="0.983062" stroke-miterlimit="10"/>
<path d="M406.707 335.905L132.994 446.964C129.957 448.193 126.639 445.964 126.639 442.69V179.984C126.639 175.332 129.457 171.154 133.758 169.407L407.479 58.251C410.516 57.0222 413.834 59.2516 413.834 62.5256V325.319C413.834 329.971 411.016 334.149 406.707 335.905Z" fill="black" stroke="#A3A3A3" stroke-width="0.983062" stroke-miterlimit="10"/>
<path d="M126.65 232.097L413.836 115.517" stroke="#A3A3A3" stroke-width="1.08839" stroke-miterlimit="10"/>
<path d="M212.389 179.456C217.614 170.405 216.804 160.153 210.578 156.559C204.352 152.964 195.069 157.388 189.843 166.439C184.617 175.49 185.428 185.742 191.654 189.336C197.88 192.931 207.163 188.507 212.389 179.456Z" fill="#280054" stroke="#9D2BFF" stroke-width="0.877734" stroke-miterlimit="10"/>
<path d="M143.625 442.639V250.223C143.625 248.107 144.906 246.194 146.873 245.395L260.443 200.042C263.875 198.647 267.622 201.166 267.622 204.87V392.003" stroke="#A3A3A3" stroke-width="0.877734" stroke-miterlimit="10"/>
<path d="M274.987 389.289V195.196C274.987 193.081 276.268 191.167 278.234 190.369L391.804 145.016C395.236 143.62 398.984 146.139 398.984 149.844V338.934" stroke="#A3A3A3" stroke-width="0.877734" stroke-miterlimit="10"/>
<path d="M186.264 260.009V263.844L310.27 213.541V209.451L186.264 260.009Z" fill="#9D2BFF"/>
<path d="M186.264 272.681V276.517L248.267 251.738V247.657L186.264 272.681Z" fill="#9D2BFF"/>
<path d="M223.016 155.935V159.771L347.013 109.459V105.378L223.016 155.935Z" fill="#9D2BFF"/>
<path d="M223.016 168.602V172.438L285.01 147.668V143.587L223.016 168.602Z" fill="#9D2BFF"/>
<path d="M186.264 286.341V290.176L310.27 239.873V235.783L186.264 286.341Z" fill="#9D2BFF"/>
<path d="M186.264 299.013V302.849L248.267 278.07V273.989L186.264 299.013Z" fill="#9D2BFF"/>
<path d="M186.264 311.795V315.631L248.267 290.861V286.771L186.264 311.795Z" fill="#9D2BFF"/>
<path d="M186.264 324.584V328.419L248.267 303.641V299.56L186.264 324.584Z" fill="#9D2BFF"/>
<path d="M448.031 344.613L186.625 451.126C183.193 452.521 179.445 450.002 179.445 446.298V365.459C179.445 363.344 180.726 361.43 182.692 360.632L444.099 253.996C447.531 252.6 451.279 255.119 451.279 258.823V339.785C451.279 341.901 449.998 343.814 448.031 344.613Z" fill="#280054" stroke="#9D2BFF" stroke-width="0.877734" stroke-miterlimit="10"/>
<path d="M453.922 347.877L192.515 454.39C189.083 455.786 185.335 453.266 185.335 449.562V368.723C185.335 366.608 186.617 364.694 188.583 363.896L449.99 257.26C453.422 255.864 457.17 258.383 457.17 262.087V343.049C457.17 345.165 455.888 347.078 453.922 347.877Z" fill="#280054" stroke="#9D2BFF" stroke-width="0.877734" stroke-miterlimit="10"/>
<path d="M391.117 97.8201C391.117 103.157 396.506 106.817 401.466 104.833L443.044 88.2177C449.127 85.7864 453.112 79.9056 453.112 73.3577C453.112 68.3283 448.029 64.8963 443.36 66.7747L400.342 84.1363C394.76 86.392 391.108 91.7989 391.108 97.8201H391.117Z" fill="#280054" stroke="#9D2BFF" stroke-width="0.877734" stroke-miterlimit="10"/>
<path d="M393.97 99.4899C393.97 104.827 399.359 108.487 404.319 106.503L445.897 89.8875C451.98 87.4562 455.965 81.5754 455.965 75.0275C455.965 69.9981 450.882 66.5661 446.213 68.4445L403.195 85.8061C397.613 88.0618 393.961 93.4687 393.961 99.4899H393.97Z" fill="#280054" stroke="#9D2BFF" stroke-width="0.877734" stroke-miterlimit="10"/>
<path d="M206.915 410.032V399.917L208.65 399.223V400.894C208.881 400.421 209.154 399.982 209.467 399.578C209.78 399.16 210.12 398.796 210.487 398.488C210.869 398.175 211.263 397.936 211.672 397.773C212.202 397.56 212.679 397.516 213.101 397.641C213.523 397.751 213.863 398.062 214.121 398.574C214.38 399.086 214.509 399.855 214.509 400.881V406.994L212.794 407.68V401.611C212.794 400.952 212.726 400.451 212.59 400.11C212.454 399.768 212.264 399.559 212.019 399.481C211.774 399.388 211.495 399.405 211.182 399.53C210.896 399.644 210.603 399.835 210.304 400.101C210.004 400.353 209.725 400.655 209.467 401.007C209.222 401.355 209.024 401.741 208.875 402.168C208.725 402.579 208.65 403.005 208.65 403.445V409.338L206.915 410.032ZM216.918 409.702V395.916L218.674 395.214V397.017C218.837 396.482 219.055 396.014 219.327 395.612C219.613 395.19 219.933 394.842 220.287 394.569C220.654 394.275 221.042 394.046 221.45 393.883C221.968 393.676 222.458 393.59 222.92 393.625C223.383 393.66 223.791 393.826 224.145 394.125C224.499 394.408 224.778 394.839 224.982 395.417C225.2 395.975 225.309 396.693 225.309 397.573C225.309 398.467 225.2 399.295 224.982 400.056C224.764 400.818 224.465 401.494 224.084 402.087C223.717 402.673 223.301 403.177 222.839 403.596C222.376 404.001 221.9 404.302 221.41 404.498C221.056 404.639 220.709 404.719 220.368 404.738C220.028 404.772 219.715 404.736 219.429 404.63C219.157 404.519 218.919 404.358 218.715 404.146V408.984L216.918 409.702ZM221.042 403.062C221.355 402.936 221.655 402.758 221.94 402.526C222.24 402.275 222.505 401.963 222.737 401.592C222.982 401.201 223.172 400.736 223.308 400.198C223.444 399.66 223.512 399.024 223.512 398.292C223.512 397.529 223.424 396.92 223.247 396.463C223.07 395.991 222.811 395.677 222.471 395.52C222.131 395.363 221.716 395.367 221.226 395.534C220.858 395.652 220.518 395.847 220.205 396.118C219.906 396.385 219.64 396.725 219.409 397.14C219.178 397.555 219.001 398.044 218.878 398.606C218.756 399.168 218.694 399.816 218.694 400.549C218.708 401.012 218.749 401.414 218.817 401.753C218.885 402.092 218.987 402.374 219.123 402.598C219.259 402.822 219.416 402.986 219.593 403.092C219.783 403.191 220.001 403.243 220.246 403.248C220.491 403.238 220.756 403.176 221.042 403.062ZM226.82 402.07L230.106 395.654L226.86 391.939L228.759 391.18L231.046 393.805L233.23 389.391L235.027 388.673L232.005 394.806L235.435 398.624L233.475 399.408L231.046 396.685L228.759 401.294L226.82 402.07ZM252.502 391.973C251.917 392.207 251.427 392.3 251.032 392.253C250.651 392.185 250.345 391.978 250.113 391.631C249.896 391.264 249.746 390.744 249.664 390.074C249.596 389.397 249.576 388.555 249.603 387.547L249.848 380.237L251.665 379.269L251.869 379.165L251.889 379.311C251.821 379.441 251.76 379.568 251.706 379.692C251.665 379.811 251.631 380.001 251.604 380.261L251.42 383.017L251.481 383.3L251.338 386.919C251.297 387.991 251.325 388.801 251.42 389.349C251.515 389.883 251.679 390.213 251.91 390.341C252.155 390.462 252.461 390.45 252.829 390.303C253.278 390.123 253.672 389.87 254.013 389.543C254.367 389.211 254.72 388.835 255.074 388.415L255.523 389.665C255.061 390.216 254.578 390.688 254.074 391.08C253.584 391.452 253.06 391.75 252.502 391.973ZM247.745 383.585L254.666 380.817V382.334L247.745 385.102V383.585ZM257.973 374.942L259.688 374.256L259.872 374.183V374.359C259.804 374.474 259.756 374.588 259.729 374.702C259.715 374.81 259.709 374.989 259.709 375.238V380.449C259.94 379.961 260.219 379.512 260.546 379.103C260.872 378.693 261.212 378.345 261.566 378.057C261.934 377.748 262.301 377.521 262.669 377.374C263.24 377.145 263.744 377.09 264.179 377.209C264.629 377.308 264.969 377.627 265.2 378.164C265.445 378.682 265.568 379.446 265.568 380.458V386.571L263.853 387.257V381.188C263.853 380.514 263.785 380.006 263.649 379.664C263.513 379.323 263.322 379.113 263.077 379.036C262.846 378.952 262.573 378.973 262.26 379.098C262.015 379.196 261.77 379.338 261.525 379.524C261.28 379.71 261.049 379.935 260.831 380.198C260.614 380.446 260.416 380.73 260.239 381.05C260.076 381.35 259.947 381.673 259.851 382.019C259.756 382.365 259.709 382.728 259.709 383.109V388.914L257.973 389.608V374.942ZM268.752 385.297V383.801L271.121 382.854V375.752L268.875 376.65V375.133L272.876 373.533V382.152L275.04 381.286V382.781L268.752 385.297ZM271.896 371.968C271.57 372.098 271.291 372.085 271.059 371.929C270.828 371.772 270.712 371.525 270.712 371.188C270.712 370.822 270.821 370.478 271.039 370.156C271.27 369.829 271.556 369.597 271.896 369.461C272.209 369.336 272.482 369.352 272.713 369.508C272.958 369.659 273.08 369.904 273.08 370.241C273.08 370.578 272.958 370.92 272.713 371.267C272.482 371.609 272.209 371.843 271.896 371.968ZM279.246 370.985L281.063 370.258L281.022 373.177L280.797 373.003C280.879 372.516 281.015 372.058 281.206 371.63C281.41 371.197 281.648 370.801 281.92 370.443C282.206 370.079 282.519 369.764 282.859 369.495C283.2 369.227 283.553 369.02 283.921 368.873C284.425 368.672 284.88 368.584 285.289 368.612C285.711 368.619 286.092 368.745 286.432 368.99L285.677 370.809L285.595 371.04L285.452 371.009C285.411 370.908 285.364 370.817 285.309 370.736C285.268 370.635 285.159 370.547 284.983 370.471C284.778 370.392 284.581 370.361 284.391 370.378C284.2 370.396 283.982 370.454 283.737 370.552C283.411 370.682 283.084 370.879 282.757 371.141C282.431 371.404 282.131 371.729 281.859 372.116C281.6 372.498 281.396 372.939 281.247 373.439C281.097 373.924 281.022 374.459 281.022 375.046V380.411L279.246 381.121V370.985ZM291.944 376.24C291.454 376.436 290.978 376.516 290.515 376.482C290.052 376.447 289.637 376.283 289.27 375.99C288.902 375.698 288.61 375.258 288.392 374.67C288.174 374.083 288.065 373.335 288.065 372.426C288.065 371.518 288.174 370.697 288.392 369.965C288.623 369.213 288.923 368.551 289.29 367.979C289.671 367.386 290.093 366.895 290.556 366.505C291.019 366.115 291.502 365.819 292.005 365.617C292.4 365.459 292.761 365.381 293.087 365.382C293.428 365.378 293.72 365.444 293.965 365.581C294.224 365.697 294.428 365.887 294.578 366.149V360.301L296.231 359.639L296.435 359.558V359.733C296.354 359.854 296.299 359.971 296.272 360.085C296.259 360.193 296.252 360.371 296.252 360.62L296.272 372.794C296.272 373.043 296.279 373.289 296.293 373.533C296.32 373.771 296.381 373.996 296.476 374.207L294.761 374.893C294.693 374.744 294.646 374.602 294.619 374.466C294.591 374.331 294.571 374.192 294.557 374.051C294.557 373.89 294.557 373.729 294.557 373.567C294.367 373.981 294.142 374.364 293.884 374.716C293.625 375.069 293.332 375.369 293.006 375.617C292.679 375.88 292.325 376.087 291.944 376.24ZM292.23 374.542C292.638 374.379 292.985 374.152 293.271 373.862C293.557 373.572 293.788 373.223 293.965 372.815C294.142 372.407 294.271 371.959 294.353 371.472C294.448 370.965 294.496 370.44 294.496 369.898C294.496 369.15 294.414 368.531 294.251 368.039C294.088 367.533 293.829 367.196 293.475 367.03C293.121 366.849 292.672 366.868 292.128 367.085C291.747 367.238 291.407 367.455 291.107 367.736C290.808 368.017 290.563 368.356 290.372 368.755C290.182 369.139 290.032 369.573 289.923 370.056C289.828 370.519 289.78 371.022 289.78 371.565C289.78 372.371 289.875 373.029 290.066 373.539C290.27 374.044 290.556 374.391 290.923 374.581C291.291 374.757 291.726 374.744 292.23 374.542ZM299.559 372.996L297.722 363.595L299.232 362.99L300.6 370.161L302.111 362.85L303.111 362.45L304.969 368.391C305.132 367.124 305.262 366.083 305.357 365.268C305.466 364.447 305.547 363.77 305.602 363.235C305.656 362.7 305.69 362.254 305.704 361.897C305.718 361.525 305.724 361.163 305.724 360.811V360.393L307.296 359.765C307.174 360.928 307.038 362.111 306.888 363.314C306.738 364.517 306.568 365.721 306.378 366.926C306.201 368.126 306.003 369.319 305.786 370.505L304.193 371.142L302.601 365.579L301.111 372.375L299.559 372.996ZM313.196 367.739C312.516 368.011 311.89 368.152 311.318 368.16C310.76 368.149 310.27 368.008 309.848 367.737C309.44 367.461 309.127 367.036 308.909 366.463C308.691 365.891 308.583 365.187 308.583 364.351C308.583 363.501 308.691 362.703 308.909 361.956C309.141 361.204 309.454 360.522 309.848 359.909C310.243 359.297 310.706 358.767 311.237 358.321C311.767 357.859 312.332 357.508 312.931 357.269C313.462 357.057 313.965 356.958 314.442 356.973C314.918 356.973 315.326 357.102 315.667 357.362C316.02 357.616 316.299 358.01 316.504 358.544C316.708 359.064 316.81 359.734 316.81 360.555C316.81 360.687 316.803 360.836 316.789 361.003C316.789 361.149 316.783 361.284 316.769 361.407L310.257 364.012C310.284 364.602 310.379 365.084 310.542 365.458C310.719 365.813 310.944 366.075 311.216 366.244C311.488 366.399 311.795 366.475 312.135 366.471C312.489 366.461 312.863 366.377 313.258 366.219C313.571 366.094 313.863 365.94 314.135 365.758C314.421 365.571 314.687 365.347 314.932 365.088C315.177 364.829 315.401 364.541 315.605 364.225L316.544 364.817C316.272 365.277 315.959 365.703 315.605 366.094C315.265 366.464 314.891 366.783 314.483 367.049C314.088 367.324 313.659 367.554 313.196 367.739ZM310.318 362.558L315.075 360.655C315.075 360.215 315.02 359.849 314.911 359.555C314.802 359.262 314.653 359.028 314.462 358.855C314.272 358.682 314.033 358.594 313.748 358.591C313.475 358.568 313.169 358.625 312.829 358.761C312.516 358.886 312.223 359.062 311.951 359.288C311.679 359.5 311.427 359.769 311.196 360.096C310.978 360.418 310.787 360.787 310.624 361.204C310.474 361.601 310.372 362.052 310.318 362.558ZM323.363 363.694C322.996 363.841 322.649 363.921 322.322 363.935C321.995 363.948 321.689 363.902 321.403 363.797C321.131 363.671 320.886 363.498 320.668 363.277L320.199 364.718L318.994 365.2V350.534L320.75 349.832L320.954 349.75V349.926C320.872 350.047 320.818 350.164 320.791 350.277C320.777 350.385 320.77 350.564 320.77 350.813V355.782C320.92 355.488 321.09 355.2 321.281 354.918C321.471 354.637 321.682 354.377 321.914 354.138C322.159 353.878 322.41 353.66 322.669 353.484C322.928 353.307 323.186 353.167 323.445 353.063C324.016 352.835 324.534 352.738 324.996 352.773C325.473 352.802 325.881 352.968 326.221 353.272C326.562 353.561 326.82 353.993 326.997 354.567C327.188 355.136 327.283 355.852 327.283 356.717C327.283 357.626 327.174 358.469 326.956 359.245C326.738 360.006 326.446 360.687 326.078 361.289C325.711 361.876 325.289 362.374 324.813 362.785C324.35 363.19 323.867 363.493 323.363 363.694ZM323.098 362.217C323.411 362.092 323.71 361.914 323.996 361.682C324.282 361.436 324.54 361.12 324.772 360.734C325.003 360.348 325.18 359.896 325.303 359.378C325.439 358.84 325.507 358.234 325.507 357.56C325.507 356.929 325.446 356.404 325.323 355.984C325.214 355.544 325.058 355.211 324.853 354.985C324.649 354.744 324.398 354.61 324.098 354.583C323.812 354.536 323.492 354.584 323.139 354.725C322.662 354.916 322.247 355.236 321.893 355.685C321.539 356.134 321.26 356.686 321.056 357.339C320.866 357.987 320.77 358.685 320.77 359.432C320.77 360.004 320.811 360.501 320.893 360.922C320.988 361.339 321.124 361.68 321.301 361.946C321.492 362.193 321.73 362.347 322.016 362.408C322.315 362.45 322.676 362.386 323.098 362.217ZM342.982 355.825C342.492 356.021 342.016 356.101 341.553 356.066C341.09 356.032 340.675 355.868 340.308 355.575C339.94 355.282 339.648 354.842 339.43 354.255C339.212 353.668 339.103 352.92 339.103 352.011C339.103 351.102 339.212 350.282 339.43 349.55C339.661 348.798 339.961 348.135 340.328 347.563C340.709 346.971 341.131 346.48 341.594 346.09C342.057 345.699 342.54 345.403 343.043 345.202C343.438 345.044 343.799 344.966 344.125 344.967C344.466 344.963 344.758 345.029 345.003 345.166C345.262 345.282 345.466 345.472 345.616 345.734V339.885L347.269 339.224L347.474 339.142V339.318C347.392 339.439 347.337 339.556 347.31 339.669C347.297 339.777 347.29 339.956 347.29 340.205L347.31 352.378C347.31 352.628 347.317 352.874 347.331 353.118C347.358 353.356 347.419 353.581 347.514 353.792L345.799 354.478C345.731 354.329 345.684 354.187 345.657 354.051C345.629 353.916 345.609 353.777 345.595 353.636C345.595 353.475 345.595 353.314 345.595 353.152C345.405 353.566 345.18 353.949 344.922 354.301C344.663 354.654 344.37 354.954 344.044 355.202C343.717 355.465 343.363 355.672 342.982 355.825ZM343.268 354.127C343.676 353.964 344.023 353.737 344.309 353.447C344.595 353.157 344.826 352.808 345.003 352.4C345.18 351.992 345.31 351.544 345.391 351.057C345.486 350.55 345.534 350.025 345.534 349.483C345.534 348.735 345.452 348.116 345.289 347.624C345.126 347.118 344.867 346.781 344.513 346.615C344.159 346.434 343.71 346.452 343.166 346.67C342.785 346.823 342.445 347.039 342.145 347.32C341.846 347.601 341.601 347.941 341.41 348.34C341.22 348.724 341.07 349.158 340.961 349.641C340.866 350.104 340.818 350.607 340.818 351.149C340.818 351.956 340.913 352.614 341.104 353.124C341.308 353.629 341.594 353.976 341.961 354.166C342.329 354.342 342.764 354.329 343.268 354.127ZM354.027 351.407C353.346 351.679 352.72 351.819 352.149 351.828C351.591 351.817 351.101 351.676 350.679 351.405C350.27 351.128 349.957 350.704 349.74 350.131C349.522 349.559 349.413 348.855 349.413 348.019C349.413 347.169 349.522 346.371 349.74 345.624C349.971 344.872 350.284 344.189 350.679 343.577C351.073 342.965 351.536 342.435 352.067 341.988C352.598 341.527 353.163 341.176 353.761 340.937C354.292 340.724 354.796 340.626 355.272 340.64C355.748 340.64 356.157 340.77 356.497 341.03C356.851 341.284 357.13 341.678 357.334 342.212C357.538 342.732 357.64 343.402 357.64 344.223C357.64 344.354 357.633 344.504 357.62 344.67C357.62 344.817 357.613 344.952 357.599 345.074L351.087 347.679C351.114 348.27 351.209 348.752 351.373 349.126C351.55 349.481 351.774 349.743 352.047 349.912C352.319 350.067 352.625 350.143 352.965 350.138C353.319 350.129 353.693 350.045 354.088 349.887C354.401 349.762 354.694 349.608 354.966 349.426C355.252 349.238 355.517 349.015 355.762 348.756C356.007 348.497 356.232 348.209 356.436 347.893L357.375 348.484C357.103 348.945 356.79 349.371 356.436 349.762C356.096 350.132 355.721 350.45 355.313 350.716C354.918 350.992 354.49 351.222 354.027 351.407ZM351.148 346.226L355.905 344.323C355.905 343.883 355.851 343.517 355.742 343.223C355.633 342.929 355.483 342.696 355.293 342.523C355.102 342.35 354.864 342.262 354.578 342.259C354.306 342.236 354 342.293 353.659 342.429C353.346 342.554 353.054 342.73 352.781 342.956C352.509 343.167 352.257 343.437 352.026 343.764C351.808 344.085 351.618 344.455 351.454 344.872C351.305 345.269 351.203 345.72 351.148 346.226ZM359.825 352.54V338.753L361.58 338.051V339.854C361.744 339.32 361.962 338.851 362.234 338.449C362.52 338.027 362.839 337.679 363.193 337.406C363.561 337.112 363.949 336.884 364.357 336.721C364.874 336.514 365.364 336.428 365.827 336.462C366.29 336.497 366.698 336.664 367.052 336.962C367.406 337.245 367.685 337.676 367.889 338.254C368.106 338.812 368.215 339.531 368.215 340.41C368.215 341.304 368.106 342.132 367.889 342.894C367.671 343.655 367.372 344.332 366.99 344.924C366.623 345.511 366.208 346.014 365.745 346.434C365.282 346.839 364.806 347.139 364.316 347.335C363.962 347.477 363.615 347.557 363.275 347.576C362.935 347.609 362.622 347.573 362.336 347.468C362.064 347.357 361.825 347.195 361.621 346.984V351.821L359.825 352.54ZM363.949 345.899C364.262 345.774 364.561 345.595 364.847 345.364C365.146 345.112 365.412 344.801 365.643 344.43C365.888 344.038 366.079 343.574 366.215 343.036C366.351 342.497 366.419 341.862 366.419 341.129C366.419 340.367 366.33 339.757 366.153 339.3C365.977 338.829 365.718 338.514 365.378 338.357C365.037 338.2 364.622 338.205 364.132 338.372C363.765 338.489 363.425 338.684 363.112 338.956C362.812 339.222 362.547 339.563 362.315 339.978C362.084 340.393 361.907 340.881 361.785 341.443C361.662 342.006 361.601 342.653 361.601 343.386C361.614 343.85 361.655 344.251 361.723 344.59C361.791 344.929 361.893 345.211 362.03 345.435C362.166 345.659 362.322 345.824 362.499 345.929C362.69 346.029 362.907 346.081 363.152 346.085C363.397 346.075 363.663 346.013 363.949 345.899ZM370.4 344.638V343.143L373.115 342.056V330.381L370.522 331.418V329.923L374.891 328.175V341.346L377.606 340.26V341.755L370.4 344.638ZM384.2 339.315C383.357 339.653 382.601 339.735 381.934 339.562C381.281 339.369 380.764 338.953 380.383 338.314C380.002 337.675 379.811 336.842 379.811 335.816C379.811 334.79 380.002 333.805 380.383 332.861C380.764 331.917 381.281 331.087 381.934 330.371C382.601 329.65 383.357 329.121 384.2 328.783C385.044 328.446 385.793 328.373 386.446 328.567C387.113 328.754 387.637 329.168 388.018 329.807C388.399 330.446 388.59 331.278 388.59 332.305C388.59 333.331 388.399 334.316 388.018 335.26C387.637 336.204 387.113 337.036 386.446 337.757C385.793 338.458 385.044 338.978 384.2 339.315ZM384.2 337.776C384.704 337.575 385.146 337.237 385.527 336.762C385.909 336.287 386.208 335.727 386.426 335.083C386.657 334.433 386.773 333.742 386.773 333.009C386.773 332.276 386.657 331.678 386.426 331.213C386.208 330.743 385.909 330.431 385.527 330.275C385.146 330.105 384.704 330.121 384.2 330.322C383.711 330.518 383.268 330.856 382.873 331.337C382.492 331.797 382.186 332.352 381.955 333.002C381.737 333.646 381.628 334.334 381.628 335.067C381.628 335.8 381.737 336.402 381.955 336.871C382.173 337.341 382.472 337.661 382.853 337.831C383.248 337.996 383.697 337.978 384.2 337.776ZM391.897 339.887C391.448 340.066 391.04 340.149 390.672 340.135C390.318 340.13 389.998 340.038 389.713 339.859L390.386 338.314L390.509 338.067L390.652 338.098C390.679 338.204 390.727 338.288 390.795 338.349C390.863 338.409 390.985 338.47 391.162 338.532C391.285 338.527 391.407 338.507 391.53 338.473C391.666 338.447 391.802 338.408 391.938 338.353C392.278 338.217 392.564 338.015 392.795 337.746C393.027 337.478 393.231 337.118 393.408 336.666C393.598 336.209 393.782 335.659 393.959 335.016L395.837 328.24C396.041 327.499 396.225 326.78 396.388 326.085C396.565 325.369 396.681 324.67 396.735 323.989L398.43 323.311C398.348 324.018 398.199 324.767 397.981 325.558C397.777 326.343 397.559 327.119 397.327 327.886L395 335.853C394.646 337.021 394.211 337.913 393.694 338.53C393.176 339.162 392.578 339.614 391.897 339.887ZM390.141 326.627L391.938 325.908L394.878 332.934L394.041 335.445L390.141 326.627Z" fill="#D8AAFF"/>
</g>
<defs>
<clipPath id="clip0_5423_957">
<rect width="405.215" height="400.431" fill="white" transform="translate(52.3926 54.7843)"/>
</clipPath>
</defs>
</svg>
