<svg width="510" height="510" viewBox="0 0 510 510" fill="none" xmlns="http://www.w3.org/2000/svg">
<rect x="0.460887" y="0.303867" width="182.883" height="243.788" rx="16.1186" transform="matrix(0.919097 -0.394031 0 1 102.158 188.686)" fill="black"/>
<rect x="0.460887" y="0.303867" width="182.883" height="243.788" rx="16.1186" transform="matrix(0.919097 -0.394031 0 1 102.158 188.686)" stroke="#A3A3A3" stroke-width="1.00291"/>
<rect x="0.460887" y="0.303867" width="182.883" height="243.788" rx="16.1186" transform="matrix(0.919097 -0.394031 0 1 108.857 193.35)" fill="black"/>
<rect x="0.460887" y="0.303867" width="182.883" height="243.788" rx="16.1186" transform="matrix(0.919097 -0.394031 0 1 108.857 193.35)" stroke="#A3A3A3" stroke-width="1.00291"/>
<path d="M224.311 220.499C235.125 225.715 242.058 236.439 244.489 249.62C246.921 262.8 244.842 278.408 237.654 293.307C230.467 308.207 219.546 319.548 207.717 325.85C195.888 332.151 183.179 333.401 172.365 328.185C161.552 322.969 154.619 312.244 152.188 299.063C149.756 285.883 151.835 270.276 159.022 255.377C166.209 240.477 177.131 229.135 188.96 222.833C200.789 216.532 213.498 215.283 224.311 220.499Z" fill="black" stroke="#A3A3A3" stroke-width="0.802329"/>
<path d="M207.808 237.465C211.285 239.142 213.536 242.6 214.328 246.893C215.12 251.186 214.444 256.286 212.091 261.163C209.739 266.04 206.168 269.742 202.316 271.795C198.462 273.847 194.355 274.239 190.878 272.562C187.4 270.884 185.15 267.426 184.358 263.133C183.566 258.839 184.242 253.741 186.594 248.864C188.947 243.987 192.517 240.283 196.37 238.231C200.223 236.178 204.331 235.788 207.808 237.465Z" fill="black" stroke="#A3A3A3" stroke-width="0.802329"/>
<mask id="mask0_5423_984" style="mask-type:alpha" maskUnits="userSpaceOnUse" x="150" y="215" width="96" height="116">
<path d="M224.268 219.685C235.046 224.884 241.963 235.577 244.39 248.735C246.817 261.892 244.743 277.478 237.564 292.36C230.385 307.243 219.478 318.568 207.669 324.858C195.861 331.149 183.187 332.39 172.409 327.191C161.631 321.992 154.714 311.3 152.286 298.142C149.859 284.985 151.933 269.399 159.112 254.517C166.291 239.634 177.199 228.309 189.007 222.019C200.816 215.728 213.49 214.486 224.268 219.685Z" fill="#040A1F" stroke="#2563EB" stroke-width="1.00291"/>
</mask>
<g mask="url(#mask0_5423_984)">
<path d="M226.085 280.552C235.301 284.998 241.221 294.144 243.299 305.41C245.377 316.676 243.602 330.025 237.452 342.774C231.302 355.523 221.959 365.222 211.849 370.608C201.738 375.993 190.895 377.053 181.679 372.607C172.463 368.162 166.542 359.016 164.464 347.75C162.385 336.484 164.16 323.135 170.31 310.386C176.46 297.637 185.803 287.938 195.914 282.552C206.025 277.166 216.869 276.106 226.085 280.552Z" fill="black" stroke="#A3A3A3" stroke-width="1.00291"/>
</g>
<rect x="0.46559" y="0.31522" width="155.078" height="71.0042" rx="15.5451" transform="matrix(0.928477 -0.371391 0 1 255.972 92.9989)" fill="#280054" stroke="#9D2BFF" stroke-width="1.00291"/>
<rect x="0.46559" y="0.31522" width="155.078" height="71.0042" rx="15.5451" transform="matrix(0.928477 -0.371391 0 1 262.992 96.0076)" fill="#280054" stroke="#9D2BFF" stroke-width="1.00291"/>
<path d="M295.673 101.15C305.642 97.1627 313.724 102.635 313.724 113.373C313.724 124.111 305.642 136.048 295.673 140.036C285.703 144.024 277.62 138.553 277.62 127.815C277.62 117.077 285.703 105.138 295.673 101.15Z" fill="#280054"/>
<path d="M295.673 101.15C305.642 97.1627 313.724 102.635 313.724 113.373C313.724 124.111 305.642 136.048 295.673 140.036C285.703 144.024 277.62 138.553 277.62 127.815C277.62 117.077 285.703 105.138 295.673 101.15Z" stroke="#9D2BFF" stroke-width="1.00291"/>
<rect x="0.46559" y="0.31522" width="155.08" height="71.0042" rx="15.5451" transform="matrix(0.928477 -0.371391 0 1 255.972 191.994)" fill="#280054" stroke="#9D2BFF" stroke-width="1.00291"/>
<rect x="0.46559" y="0.31522" width="155.08" height="71.0042" rx="15.5451" transform="matrix(0.928477 -0.371391 0 1 262.992 195.635)" fill="#280054" stroke="#9D2BFF" stroke-width="1.00291"/>
<path d="M295.673 200.778C305.642 196.79 313.724 202.263 313.724 213C313.724 223.738 305.642 235.676 295.673 239.664C285.703 243.651 277.62 238.18 277.62 227.442C277.62 216.704 285.703 204.766 295.673 200.778Z" fill="#280054"/>
<path d="M295.673 200.778C305.642 196.79 313.724 202.263 313.724 213C313.724 223.738 305.642 235.676 295.673 239.664C285.703 243.651 277.62 238.18 277.62 227.442C277.62 216.704 285.703 204.766 295.673 200.778Z" stroke="#9D2BFF" stroke-width="1.00291"/>
<g clip-path="url(#clip0_5423_984)">
<path d="M161.672 437.319C161.672 433.258 164.728 428.744 168.499 427.235L395.617 336.388C399.387 334.88 402.444 336.949 402.444 341.01V365.915C402.444 369.975 399.387 374.49 395.617 375.998L168.499 466.845C164.728 468.354 161.672 466.284 161.672 462.223V437.319Z" fill="#280054"/>
<path d="M172.735 450.346V441.178L177.872 439.123V440.108L173.766 441.751V444.848L177.606 443.312V444.297L173.766 445.833V448.949L177.939 447.28V448.264L172.735 450.346ZM179.597 447.601V440.725L180.545 440.346V441.421L180.628 441.387C180.761 440.967 180.975 440.596 181.272 440.275C181.568 439.95 181.924 439.705 182.34 439.538C182.761 439.37 183.112 439.333 183.392 439.427C183.674 439.517 183.895 439.713 184.053 440.017L184.119 439.991C184.283 439.57 184.528 439.19 184.855 438.85C185.182 438.508 185.574 438.245 186.031 438.062C186.602 437.834 187.069 437.839 187.432 438.079C187.795 438.316 187.976 438.839 187.976 439.648V444.249L186.995 444.642V440.04C186.995 439.533 186.866 439.222 186.609 439.107C186.351 438.992 186.048 439.004 185.698 439.144C185.25 439.324 184.902 439.609 184.655 440C184.409 440.388 184.285 440.805 184.285 441.249V445.726L183.288 446.125V441.416C183.288 441.025 183.17 440.757 182.934 440.612C182.699 440.465 182.396 440.465 182.024 440.614C181.769 440.716 181.531 440.884 181.309 441.119C181.09 441.353 180.913 441.627 180.777 441.941C180.644 442.251 180.578 442.574 180.578 442.911V447.209L179.597 447.601ZM191.648 442.942C191.244 443.104 190.877 443.168 190.547 443.136C190.217 443.101 189.955 442.965 189.761 442.73C189.567 442.491 189.47 442.148 189.47 441.7C189.47 441.306 189.542 440.958 189.686 440.656C189.831 440.35 190.023 440.079 190.264 439.843C190.505 439.606 190.771 439.395 191.062 439.21C191.356 439.021 191.651 438.846 191.947 438.686C192.335 438.477 192.65 438.311 192.891 438.188C193.135 438.06 193.312 437.94 193.423 437.827C193.537 437.713 193.593 437.571 193.593 437.401V437.365C193.593 436.923 193.481 436.625 193.257 436.47C193.035 436.314 192.698 436.326 192.247 436.507C191.778 436.694 191.411 436.951 191.145 437.279C190.879 437.606 190.692 437.917 190.584 438.21L189.653 438.225C189.819 437.74 190.041 437.326 190.318 436.983C190.598 436.635 190.903 436.349 191.233 436.125C191.565 435.896 191.892 435.718 192.213 435.589C192.419 435.507 192.654 435.44 192.92 435.387C193.189 435.33 193.448 435.333 193.697 435.394C193.949 435.454 194.159 435.614 194.325 435.873C194.491 436.131 194.574 436.534 194.574 437.08V441.61L193.593 442.003V441.071L193.543 441.091C193.477 441.267 193.366 441.471 193.211 441.703C193.056 441.936 192.849 442.163 192.592 442.385C192.334 442.608 192.019 442.793 191.648 442.942ZM191.798 441.933C192.186 441.778 192.513 441.565 192.779 441.294C193.047 441.023 193.25 440.73 193.386 440.416C193.524 440.101 193.593 439.8 193.593 439.514V438.547C193.552 438.617 193.46 438.703 193.319 438.804C193.18 438.901 193.02 439.003 192.837 439.109C192.657 439.211 192.481 439.308 192.309 439.401C192.14 439.489 192.003 439.562 191.898 439.619C191.643 439.757 191.404 439.91 191.183 440.079C190.964 440.245 190.786 440.433 190.651 440.646C190.518 440.854 190.451 441.093 190.451 441.361C190.451 441.728 190.577 441.956 190.829 442.043C191.084 442.126 191.407 442.089 191.798 441.933ZM196.365 440.894V434.018L197.345 433.626V440.502L196.365 440.894ZM196.863 432.673C196.672 432.749 196.507 432.745 196.369 432.66C196.233 432.574 196.165 432.433 196.165 432.236C196.165 432.039 196.233 431.843 196.369 431.648C196.507 431.453 196.672 431.317 196.863 431.24C197.055 431.164 197.218 431.168 197.354 431.254C197.492 431.339 197.562 431.48 197.562 431.677C197.562 431.874 197.492 432.07 197.354 432.266C197.218 432.461 197.055 432.596 196.863 432.673ZM200.123 430.223V439.391L199.142 439.783V430.615L200.123 430.223ZM207.09 436.765C206.685 436.927 206.318 436.992 205.989 436.959C205.659 436.924 205.397 436.789 205.203 436.553C205.009 436.314 204.912 435.971 204.912 435.523C204.912 435.129 204.984 434.781 205.128 434.479C205.272 434.174 205.465 433.903 205.706 433.666C205.947 433.429 206.213 433.218 206.504 433.033C206.798 432.844 207.093 432.669 207.389 432.509C207.777 432.3 208.092 432.134 208.333 432.011C208.577 431.883 208.754 431.763 208.865 431.65C208.978 431.536 209.035 431.394 209.035 431.224V431.188C209.035 430.747 208.923 430.448 208.698 430.293C208.477 430.137 208.14 430.15 207.688 430.33C207.22 430.517 206.853 430.775 206.587 431.102C206.321 431.429 206.134 431.74 206.026 432.034L205.095 432.048C205.261 431.564 205.483 431.15 205.76 430.806C206.04 430.458 206.345 430.172 206.674 429.948C207.007 429.719 207.334 429.541 207.655 429.412C207.86 429.33 208.096 429.263 208.362 429.21C208.631 429.154 208.89 429.156 209.139 429.217C209.391 429.278 209.6 429.437 209.767 429.696C209.933 429.955 210.016 430.357 210.016 430.903V435.433L209.035 435.826V434.895L208.985 434.915C208.919 435.09 208.808 435.294 208.653 435.527C208.498 435.759 208.291 435.986 208.033 436.209C207.776 436.431 207.461 436.617 207.09 436.765ZM207.24 435.756C207.628 435.601 207.954 435.388 208.22 435.118C208.489 434.846 208.692 434.553 208.827 434.239C208.966 433.924 209.035 433.623 209.035 433.337V432.37C208.994 432.44 208.902 432.526 208.761 432.627C208.622 432.725 208.462 432.826 208.279 432.932C208.099 433.034 207.923 433.131 207.751 433.224C207.582 433.312 207.445 433.385 207.339 433.442C207.084 433.58 206.846 433.734 206.624 433.903C206.406 434.068 206.228 434.257 206.092 434.469C205.959 434.678 205.893 434.916 205.893 435.185C205.893 435.552 206.019 435.779 206.271 435.866C206.526 435.949 206.849 435.912 207.24 435.756ZM214.217 433.896C213.685 434.109 213.215 434.152 212.808 434.026C212.401 433.896 212.082 433.612 211.852 433.173C211.622 432.73 211.507 432.145 211.507 431.417C211.507 430.695 211.622 430.022 211.852 429.399C212.082 428.776 212.402 428.237 212.812 427.784C213.222 427.33 213.696 426.996 214.234 426.781C214.649 426.615 214.978 426.558 215.219 426.611C215.463 426.66 215.648 426.752 215.776 426.889C215.906 427.022 216.007 427.134 216.079 427.225L216.162 427.191V423.807L217.143 423.415V432.583L216.195 432.962V431.905L216.079 431.952C216.007 432.106 215.904 432.305 215.771 432.549C215.638 432.791 215.449 433.035 215.202 433.283C214.955 433.528 214.627 433.732 214.217 433.896ZM214.35 432.894C214.743 432.737 215.076 432.493 215.348 432.164C215.619 431.831 215.826 431.44 215.967 430.989C216.108 430.536 216.179 430.05 216.179 429.53C216.179 429.017 216.11 428.596 215.971 428.266C215.832 427.934 215.627 427.714 215.356 427.608C215.084 427.499 214.749 427.524 214.35 427.683C213.934 427.85 213.588 428.103 213.311 428.444C213.037 428.78 212.83 429.172 212.692 429.618C212.556 430.06 212.488 430.523 212.488 431.007C212.488 431.496 212.557 431.913 212.696 432.258C212.837 432.598 213.045 432.831 213.319 432.957C213.596 433.079 213.94 433.058 214.35 432.894ZM221.486 430.989C220.954 431.201 220.485 431.244 220.077 431.118C219.67 430.988 219.351 430.704 219.121 430.265C218.891 429.823 218.776 429.237 218.776 428.509C218.776 427.787 218.891 427.114 219.121 426.491C219.351 425.868 219.671 425.33 220.082 424.876C220.492 424.423 220.965 424.088 221.503 423.873C221.919 423.707 222.247 423.65 222.488 423.703C222.732 423.752 222.918 423.845 223.045 423.982C223.175 424.115 223.276 424.226 223.348 424.317L223.432 424.284V420.899L224.412 420.507V429.675L223.465 430.054V428.997L223.348 429.044C223.276 429.198 223.174 429.397 223.041 429.642C222.908 429.883 222.718 430.127 222.471 430.375C222.225 430.62 221.897 430.825 221.486 430.989ZM221.619 429.986C222.013 429.829 222.345 429.586 222.617 429.256C222.888 428.924 223.095 428.532 223.236 428.082C223.378 427.628 223.448 427.142 223.448 426.623C223.448 426.109 223.379 425.688 223.24 425.358C223.102 425.026 222.897 424.806 222.625 424.7C222.354 424.591 222.018 424.616 221.619 424.776C221.204 424.942 220.857 425.195 220.58 425.536C220.306 425.873 220.1 426.264 219.961 426.71C219.825 427.153 219.757 427.616 219.757 428.099C219.757 428.588 219.827 429.005 219.965 429.35C220.107 429.69 220.314 429.923 220.589 430.049C220.866 430.171 221.209 430.15 221.619 429.986ZM226.345 428.902V422.026L227.293 421.647V422.685L227.359 422.659C227.476 422.272 227.686 421.912 227.991 421.578C228.296 421.244 228.639 421.001 229.022 420.848C229.094 420.819 229.184 420.784 229.292 420.744C229.4 420.704 229.482 420.676 229.537 420.66V421.734C229.504 421.738 229.428 421.755 229.309 421.785C229.192 421.811 229.069 421.85 228.939 421.902C228.628 422.026 228.351 422.207 228.107 422.445C227.866 422.678 227.675 422.946 227.534 423.247C227.395 423.544 227.326 423.848 227.326 424.158V428.509L226.345 428.902ZM233.182 426.31C232.567 426.556 232.037 426.622 231.59 426.508C231.147 426.39 230.805 426.115 230.564 425.683C230.326 425.248 230.206 424.677 230.206 423.973C230.206 423.269 230.326 422.6 230.564 421.968C230.805 421.331 231.14 420.776 231.57 420.303C232.002 419.826 232.506 419.472 233.083 419.241C233.415 419.108 233.743 419.037 234.068 419.026C234.392 419.016 234.687 419.092 234.953 419.254C235.219 419.414 235.431 419.681 235.589 420.056C235.747 420.432 235.826 420.94 235.826 421.582V422.03L230.905 423.998V423.085L234.828 421.516C234.828 421.128 234.756 420.81 234.612 420.563C234.471 420.316 234.268 420.156 234.005 420.085C233.745 420.014 233.437 420.049 233.083 420.19C232.692 420.347 232.354 420.586 232.068 420.909C231.786 421.228 231.568 421.584 231.416 421.976C231.263 422.368 231.187 422.754 231.187 423.133V423.742C231.187 424.261 231.27 424.668 231.437 424.963C231.606 425.253 231.84 425.433 232.139 425.501C232.438 425.566 232.786 425.52 233.182 425.361C233.44 425.258 233.673 425.126 233.881 424.965C234.091 424.801 234.273 424.609 234.425 424.39C234.577 424.167 234.695 423.92 234.778 423.648L235.726 423.556C235.626 423.942 235.459 424.313 235.223 424.67C234.988 425.024 234.697 425.343 234.35 425.628C234.004 425.91 233.615 426.137 233.182 426.31ZM241.84 417.368L240.959 417.989C240.903 417.853 240.822 417.732 240.714 417.626C240.608 417.516 240.464 417.448 240.281 417.423C240.098 417.398 239.864 417.442 239.579 417.556C239.188 417.712 238.863 417.94 238.602 418.238C238.344 418.532 238.216 418.827 238.216 419.122C238.216 419.385 238.304 419.557 238.482 419.638C238.659 419.719 238.936 419.735 239.313 419.686L240.261 419.558C240.831 419.478 241.257 419.537 241.537 419.732C241.816 419.924 241.956 420.261 241.956 420.741C241.956 421.135 241.851 421.53 241.64 421.924C241.433 422.318 241.142 422.679 240.768 423.008C240.394 423.336 239.958 423.6 239.463 423.798C238.811 424.059 238.272 424.122 237.846 423.988C237.419 423.855 237.149 423.518 237.035 422.978L237.966 422.355C238.055 422.69 238.223 422.9 238.469 422.987C238.719 423.072 239.044 423.034 239.446 422.874C239.903 422.691 240.266 422.441 240.535 422.125C240.806 421.804 240.942 421.496 240.942 421.201C240.942 420.962 240.865 420.793 240.709 420.694C240.554 420.592 240.316 420.565 239.995 420.613L238.93 420.77C238.346 420.855 237.916 420.795 237.642 420.591C237.37 420.384 237.235 420.043 237.235 419.568C237.235 419.18 237.336 418.797 237.538 418.417C237.743 418.037 238.022 417.691 238.374 417.38C238.728 417.068 239.13 416.822 239.579 416.643C240.211 416.39 240.707 416.341 241.067 416.495C241.43 416.649 241.688 416.939 241.84 417.368ZM247.955 414.922L247.074 415.543C247.018 415.407 246.937 415.286 246.829 415.18C246.723 415.07 246.579 415.002 246.396 414.977C246.213 414.952 245.979 414.996 245.694 415.11C245.303 415.266 244.978 415.494 244.717 415.792C244.459 416.086 244.331 416.381 244.331 416.676C244.331 416.939 244.419 417.111 244.597 417.192C244.774 417.273 245.051 417.289 245.428 417.24L246.375 417.112C246.946 417.032 247.372 417.091 247.651 417.286C247.931 417.478 248.071 417.815 248.071 418.295C248.071 418.689 247.966 419.084 247.755 419.478C247.548 419.872 247.257 420.233 246.883 420.562C246.508 420.89 246.073 421.154 245.577 421.352C244.926 421.613 244.387 421.676 243.961 421.542C243.534 421.409 243.264 421.072 243.15 420.532L244.081 419.909C244.17 420.244 244.338 420.454 244.584 420.541C244.834 420.626 245.159 420.588 245.561 420.428C246.018 420.245 246.381 419.995 246.65 419.679C246.921 419.358 247.057 419.05 247.057 418.755C247.057 418.516 246.98 418.347 246.824 418.248C246.669 418.146 246.431 418.119 246.109 418.167L245.045 418.324C244.461 418.409 244.031 418.349 243.757 418.145C243.485 417.938 243.35 417.597 243.35 417.122C243.35 416.734 243.451 416.351 243.653 415.971C243.858 415.591 244.137 415.245 244.489 414.934C244.843 414.622 245.245 414.376 245.694 414.197C246.326 413.944 246.822 413.895 247.182 414.049C247.545 414.203 247.802 414.493 247.955 414.922Z" fill="#9D2BFF"/>
</g>
<path d="M168.499 427.686L395.617 336.838C399.157 335.422 402.026 337.365 402.026 341.177V366.082C402.026 369.894 399.156 374.132 395.617 375.548L168.499 466.396C164.959 467.811 162.09 465.869 162.09 462.057V437.151C162.09 433.339 164.959 429.101 168.499 427.686Z" stroke="#9D2BFF" stroke-width="0.900415"/>
<path d="M173.933 430.977L401.051 340.13C404.591 338.714 407.46 340.657 407.46 344.469V360.989C407.46 364.801 404.591 369.039 401.051 370.455L173.933 461.303C170.393 462.718 167.524 460.776 167.524 456.964V440.443C167.524 436.631 170.393 432.393 173.933 430.977Z" fill="#280054"/>
<path d="M173.933 430.977L401.051 340.13C404.591 338.714 407.46 340.657 407.46 344.469V360.989C407.46 364.801 404.591 369.039 401.051 370.455L173.933 461.303C170.393 462.718 167.524 460.776 167.524 456.964V440.443C167.524 436.631 170.393 432.393 173.933 430.977Z" stroke="#9D2BFF" stroke-width="0.900415"/>
<path d="M171.704 370.576L191.768 362.55C197.078 360.427 201.382 363.341 201.382 369.059V390.67C201.382 396.388 197.078 402.746 191.768 404.87L171.704 412.896C166.394 415.019 162.09 412.105 162.09 406.387V384.776C162.09 379.058 166.394 372.7 171.704 370.576Z" fill="#280054"/>
<path d="M171.704 370.576L191.768 362.55C197.078 360.427 201.382 363.341 201.382 369.059V390.67C201.382 396.388 197.078 402.746 191.768 404.87L171.704 412.896C166.394 415.019 162.09 412.105 162.09 406.387V384.776C162.09 379.058 166.394 372.7 171.704 370.576Z" stroke="#9D2BFF" stroke-width="0.900414"/>
<g clip-path="url(#clip1_5423_984)">
<path d="M192.346 383.698C192.346 382.739 192.274 382.068 192.117 381.405L181.948 385.472V389.801L187.917 387.414C187.797 388.538 187.147 390.418 185.703 392.084L185.683 392.237L188.898 393.634L189.121 393.569C191.166 390.715 192.346 387.249 192.346 383.698Z" fill="#9D2BFF"/>
<path d="M181.948 399.263C184.872 398.093 187.327 396.074 189.12 393.568L185.703 392.084C184.788 393.136 183.561 394.107 181.948 394.752C179.084 395.898 176.653 394.835 175.786 392.369L175.659 392.432L172.316 396.556L172.272 396.704C174.054 399.802 177.712 400.957 181.948 399.263Z" fill="#9D2BFF"/>
<path d="M175.786 392.37C175.557 391.736 175.425 391.011 175.425 390.208C175.425 389.404 175.557 388.573 175.774 387.761L175.768 387.609L172.383 386.131L172.272 386.232C171.538 388.107 171.117 390.052 171.117 391.931C171.117 393.81 171.538 395.417 172.272 396.705L175.786 392.37Z" fill="#9D2BFF"/>
<path d="M181.948 380.443C183.982 379.629 185.354 380.027 186.136 380.505L189.193 376.067C187.315 374.939 184.872 374.763 181.948 375.932C177.712 377.627 174.054 381.708 172.272 386.231L175.774 387.76C176.653 384.596 179.084 381.588 181.948 380.443Z" fill="#9D2BFF"/>
</g>
<path d="M221.864 350.512L241.929 342.486C247.239 340.362 251.543 343.276 251.543 348.995V370.605C251.543 376.324 247.239 382.681 241.929 384.805L221.864 392.831C216.555 394.955 212.251 392.041 212.251 386.322V364.712C212.251 358.993 216.555 352.636 221.864 350.512Z" fill="#280054"/>
<path d="M221.864 350.512L241.929 342.486C247.239 340.362 251.543 343.276 251.543 348.995V370.605C251.543 376.324 247.239 382.681 241.929 384.805L221.864 392.831C216.555 394.955 212.251 392.041 212.251 386.322V364.712C212.251 358.993 216.555 352.636 221.864 350.512Z" stroke="#9D2BFF" stroke-width="0.900414"/>
<g clip-path="url(#clip2_5423_984)">
<path d="M240.11 356.121C238.558 355.96 236.917 356.061 235.229 356.421C235.018 356.915 234.773 357.564 234.603 358.069C232.783 358.503 230.98 359.224 229.194 360.233C229.024 359.863 228.773 359.413 228.561 359.088C226.871 360.079 225.228 361.293 223.676 362.699C220.587 368.962 219.749 374.2 220.168 378.866C222.217 379.694 224.202 379.901 226.155 379.775C226.64 378.863 227.069 377.93 227.437 376.988C226.736 376.981 226.06 376.897 225.418 376.737C225.587 376.535 225.752 376.328 225.913 376.117C229.806 376.521 234.036 374.829 237.882 371.33C238.044 371.41 238.209 371.485 238.377 371.553C237.734 372.229 237.057 372.854 236.355 373.423C236.725 374.073 237.153 374.663 237.637 375.184C239.591 373.748 241.578 371.952 243.627 369.482C244.119 363.682 242.788 359.357 240.11 356.121ZM227.967 372.774C226.798 373.241 225.84 372.449 225.84 371.018C225.84 369.587 226.778 368.035 227.967 367.56C229.156 367.084 230.115 367.876 230.094 369.317C230.096 370.747 229.156 372.298 227.967 372.774ZM235.828 369.629C234.659 370.097 233.701 369.305 233.701 367.874C233.701 366.443 234.639 364.891 235.828 364.415C237.017 363.94 237.975 364.731 237.955 366.172C237.955 367.603 237.017 369.154 235.828 369.629Z" fill="#9D2BFF"/>
</g>
<path d="M272.026 330.448L292.09 322.422C297.4 320.298 301.704 323.212 301.704 328.931V350.541C301.704 356.26 297.4 362.617 292.09 364.741L272.026 372.767C266.716 374.891 262.412 371.977 262.412 366.258V344.648C262.412 338.929 266.716 332.571 272.026 330.448Z" fill="#280054"/>
<path d="M272.026 330.448L292.09 322.422C297.4 320.298 301.704 323.212 301.704 328.931V350.541C301.704 356.26 297.4 362.617 292.09 364.741L272.026 372.767C266.716 374.891 262.412 371.977 262.412 366.258V344.648C262.412 338.929 266.716 332.571 272.026 330.448Z" stroke="#9D2BFF" stroke-width="0.900414"/>
<g clip-path="url(#clip3_5423_984)">
<path d="M288.579 333.28L275.537 338.497C273.136 339.457 271.19 342.332 271.19 344.918V358.964C271.19 361.55 273.136 362.868 275.537 361.908L288.579 356.691C290.98 355.731 292.926 352.856 292.926 350.27V336.223C292.926 333.638 290.98 332.32 288.579 333.28Z" fill="#9D2BFF"/>
<path d="M276.792 341.637L287.323 337.425V353.552L285.777 354.17V346.783L285.762 346.789C285.591 344.816 283.998 343.853 282.058 344.629C280.117 345.405 278.524 347.642 278.353 349.752L278.338 349.758V357.146L276.792 357.764V341.637Z" fill="#CF97FF"/>
<path d="M273.992 345.045L274.62 347.083L275.151 346.87V356.13C274.884 356.237 274.668 356.556 274.668 356.844V357.468L274.571 357.507C274.305 357.613 274.088 357.933 274.088 358.22V358.844L279.498 356.68V356.056C279.498 355.769 279.282 355.622 279.015 355.729L278.919 355.768V355.144C278.919 354.856 278.702 354.71 278.436 354.817L277.856 355.048V343.499L273.992 345.045Z" fill="#CF97FF"/>
<path d="M285.873 351.841C285.606 351.948 285.39 352.267 285.39 352.554V353.179L285.294 353.217C285.027 353.324 284.811 353.644 284.811 353.931V354.555L290.22 352.391V351.767C290.22 351.48 290.004 351.333 289.737 351.44L289.641 351.478V350.854C289.641 350.567 289.425 350.42 289.158 350.527V341.267L289.689 341.054L290.317 338.514L286.453 340.06V351.609L285.873 351.841Z" fill="#CF97FF"/>
</g>
<path d="M322.186 310.383L342.251 302.357C347.561 300.234 351.865 303.148 351.865 308.866V330.477C351.865 336.195 347.561 342.553 342.251 344.677L322.186 352.703C316.877 354.826 312.572 351.912 312.572 346.194V324.583C312.572 318.865 316.877 312.507 322.186 310.383Z" fill="#280054"/>
<path d="M322.186 310.383L342.251 302.357C347.561 300.234 351.865 303.148 351.865 308.866V330.477C351.865 336.195 347.561 342.553 342.251 344.677L322.186 352.703C316.877 354.826 312.572 351.912 312.572 346.194V324.583C312.572 318.865 316.877 312.507 322.186 310.383Z" stroke="#9D2BFF" stroke-width="0.900414"/>
<g clip-path="url(#clip4_5423_984)">
<path d="M332.22 339.236C338.222 336.835 343.088 329.648 343.088 323.183C343.088 316.718 338.222 313.424 332.22 315.825C326.217 318.226 321.352 325.413 321.352 331.877C321.352 338.342 326.217 341.636 332.22 339.236Z" fill="#9D2BFF"/>
<path d="M328.707 329.792L329.996 333.12C329.996 333.12 330.158 333.415 330.33 333.346C330.503 333.277 333.07 329.373 333.07 329.373L335.926 322.291L328.753 328.781L328.707 329.792Z" fill="#9D2BFF"/>
<path d="M330.417 330.093L330.17 333.025C330.17 333.025 330.066 333.935 330.872 332.744C331.678 331.554 332.449 330.576 332.449 330.576" fill="#9D2BFF"/>
<path d="M328.732 329.92L326.08 330.05C326.08 330.05 325.763 330.038 325.865 329.683C325.886 329.61 325.928 329.538 326.055 329.393C326.643 328.716 336.933 320.617 336.933 320.617C336.933 320.617 337.223 320.395 337.395 320.397C337.437 320.394 337.475 320.405 337.505 320.428C337.535 320.451 337.556 320.486 337.566 320.529C337.584 320.604 337.592 320.686 337.589 320.772C337.588 320.846 337.58 320.917 337.573 321.026C337.511 322.14 335.635 331.019 335.635 331.019C335.635 331.019 335.523 331.539 335.121 331.716C335.022 331.759 334.924 331.78 334.831 331.779C334.739 331.777 334.655 331.753 334.584 331.707C333.795 331.292 331.068 330.409 330.466 330.216C330.452 330.211 330.441 330.203 330.432 330.191C330.424 330.179 330.418 330.165 330.416 330.148C330.408 330.105 330.454 330.03 330.454 330.03C330.454 330.03 335.202 323.585 335.329 323.058C335.339 323.017 335.302 323.013 335.252 323.049C334.937 323.301 329.47 329.206 328.866 329.857C328.823 329.889 328.777 329.91 328.732 329.92Z" fill="#CF97FF"/>
</g>
<path d="M372.347 290.319L392.412 282.293C397.722 280.169 402.026 283.083 402.026 288.802V310.412C402.026 316.131 397.722 322.488 392.412 324.612L372.347 332.638C367.038 334.762 362.733 331.848 362.733 326.129V304.519C362.734 298.8 367.038 292.443 372.347 290.319Z" fill="#280054"/>
<path d="M372.347 290.319L392.412 282.293C397.722 280.169 402.026 283.083 402.026 288.802V310.412C402.026 316.131 397.722 322.488 392.412 324.612L372.347 332.638C367.038 334.762 362.733 331.848 362.733 326.129V304.519C362.734 298.8 367.038 292.443 372.347 290.319Z" stroke="#9D2BFF" stroke-width="0.900414"/>
<g clip-path="url(#clip5_5423_984)">
<g clip-path="url(#clip6_5423_984)">
<path d="M383.75 305.534L389.838 295.478L388.395 296.055L383.11 304.787L378.888 299.858L374.019 301.806L380.403 309.259L374.019 319.805L375.461 319.228L381.043 310.007L385.502 315.212L390.371 313.264L383.75 305.534L383.75 305.534ZM381.775 308.798L381.128 308.061L375.981 302.19L378.197 301.304L382.35 306.042L382.997 306.779L388.396 312.937L386.18 313.824L381.775 308.799V308.798Z" fill="#CF97FF"/>
</g>
</g>
<path d="M177.137 373.868L197.202 365.842C202.512 363.718 206.816 366.632 206.816 372.351V393.961C206.816 399.68 202.512 406.037 197.202 408.161L177.137 416.187C171.828 418.311 167.524 415.397 167.523 409.678V388.068C167.524 382.349 171.828 375.992 177.137 373.868Z" fill="#280054"/>
<path d="M177.137 373.868L197.202 365.842C202.512 363.718 206.816 366.632 206.816 372.351V393.961C206.816 399.68 202.512 406.037 197.202 408.161L177.137 416.187C171.828 418.311 167.524 415.397 167.523 409.678V388.068C167.524 382.349 171.828 375.992 177.137 373.868Z" stroke="#9D2BFF" stroke-width="0.900414"/>
<path d="M227.298 353.804L247.363 345.778C252.672 343.654 256.976 346.568 256.977 352.287V373.897C256.977 379.616 252.672 385.973 247.363 388.097L227.298 396.123C221.988 398.247 217.684 395.333 217.684 389.614V368.004C217.684 362.285 221.988 355.928 227.298 353.804Z" fill="#280054"/>
<path d="M227.298 353.804L247.363 345.778C252.672 343.654 256.976 346.568 256.977 352.287V373.897C256.977 379.616 252.672 385.973 247.363 388.097L227.298 396.123C221.988 398.247 217.684 395.333 217.684 389.614V368.004C217.684 362.285 221.988 355.928 227.298 353.804Z" stroke="#9D2BFF" stroke-width="0.900414"/>
<path d="M277.459 333.739L297.524 325.713C302.833 323.59 307.138 326.504 307.138 332.222V353.833C307.138 359.551 302.834 365.909 297.524 368.033L277.459 376.059C272.15 378.182 267.845 375.268 267.845 369.55V347.939C267.845 342.221 272.15 335.863 277.459 333.739Z" fill="#280054"/>
<path d="M277.459 333.739L297.524 325.713C302.833 323.59 307.138 326.504 307.138 332.222V353.833C307.138 359.551 302.834 365.909 297.524 368.033L277.459 376.059C272.15 378.182 267.845 375.268 267.845 369.55V347.939C267.845 342.221 272.15 335.863 277.459 333.739Z" stroke="#9D2BFF" stroke-width="0.900414"/>
<path d="M327.62 313.675L347.685 305.649C352.994 303.525 357.298 306.439 357.298 312.158V333.768C357.298 339.487 352.994 345.844 347.685 347.968L327.62 355.994C322.31 358.118 318.006 355.204 318.006 349.485V327.875C318.006 322.156 322.31 315.799 327.62 313.675Z" fill="#280054"/>
<path d="M327.62 313.675L347.685 305.649C352.994 303.525 357.298 306.439 357.298 312.158V333.768C357.298 339.487 352.994 345.844 347.685 347.968L327.62 355.994C322.31 358.118 318.006 355.204 318.006 349.485V327.875C318.006 322.156 322.31 315.799 327.62 313.675Z" stroke="#9D2BFF" stroke-width="0.900414"/>
<path d="M377.78 293.611L397.845 285.585C403.155 283.461 407.459 286.375 407.459 292.094V313.704C407.459 319.423 403.155 325.78 397.845 327.904L377.78 335.93C372.471 338.054 368.167 335.14 368.167 329.421V307.811C368.167 302.092 372.471 295.734 377.78 293.611Z" fill="#280054"/>
<path d="M377.78 293.611L397.845 285.585C403.155 283.461 407.459 286.375 407.459 292.094V313.704C407.459 319.423 403.155 325.78 397.845 327.904L377.78 335.93C372.471 338.054 368.167 335.14 368.167 329.421V307.811C368.167 302.092 372.471 295.734 377.78 293.611Z" stroke="#9D2BFF" stroke-width="0.900414"/>
<g clip-path="url(#clip7_5423_984)">
<path d="M287.896 121.852C288.126 122.271 288.701 123.057 288.701 123.057L295.285 108.238L288.874 116.065C288.5 116.518 288.183 117.038 287.953 117.579C287.35 119.193 287.35 120.743 287.896 121.852Z" fill="url(#paint0_linear_5423_984)"/>
<path d="M285.308 126.902C285.452 129.097 286.516 130.708 288.184 131.294L295.286 133.31C295.286 133.31 290.829 128.479 287.091 123.343C286.717 122.804 286.459 122.119 286.344 121.336C286.286 120.991 286.286 120.619 286.344 120.221C286.257 120.447 286.056 120.944 286.056 120.944C285.682 121.955 285.424 122.974 285.28 123.971C285.193 125.003 285.193 125.995 285.308 126.902Z" fill="#A0A8D4"/>
<path d="M303.423 119.379C303.193 118.96 302.617 118.174 302.617 118.174L296.033 132.962L302.474 125.153C302.847 124.699 303.164 124.18 303.394 123.639C303.969 122.038 303.998 120.475 303.423 119.379Z" fill="url(#paint1_linear_5423_984)"/>
<path d="M306.039 114.284C305.895 112.088 304.831 110.477 303.163 109.892L296.062 107.875C296.062 107.875 300.518 112.707 304.256 117.843C304.63 118.381 304.888 119.066 305.003 119.849C305.061 120.194 305.061 120.566 305.003 120.965C305.09 120.739 305.291 120.242 305.291 120.242C305.665 119.231 305.924 118.211 306.067 117.245C306.125 116.196 306.125 115.235 306.039 114.284Z" fill="#A0A8D4"/>
<path d="M287.954 117.579C288.184 117.038 288.472 116.532 288.874 116.065L295.286 108.238L288.702 123.026C288.702 123.026 288.127 122.24 287.897 121.821C287.35 120.743 287.35 119.194 287.954 117.579ZM285.309 126.903C285.453 129.098 286.517 130.709 288.184 131.294L295.286 133.311C295.286 133.311 290.829 128.479 287.092 123.343C286.718 122.805 286.459 122.12 286.344 121.337C286.287 120.992 286.287 120.62 286.344 120.221C286.258 120.447 286.057 120.944 286.057 120.944C285.683 121.955 285.424 122.975 285.28 123.972C285.194 125.004 285.194 125.995 285.309 126.903ZM303.423 119.379C303.193 118.96 302.618 118.174 302.618 118.174L296.034 132.962L302.474 125.153C302.848 124.699 303.164 124.18 303.394 123.638C303.969 122.037 303.998 120.474 303.423 119.379ZM306.011 114.328C305.867 112.133 304.803 110.522 303.135 109.937L296.062 107.876C296.062 107.876 300.519 112.707 304.257 117.843C304.631 118.382 304.889 119.067 305.004 119.85C305.062 120.195 305.062 120.567 305.004 120.966C305.091 120.739 305.292 120.243 305.292 120.243C305.666 119.231 305.924 118.212 306.068 117.246C306.126 116.196 306.126 115.236 306.011 114.328Z" fill="#9D2BFF"/>
</g>
<g clip-path="url(#clip8_5423_984)">
<g clip-path="url(#clip9_5423_984)">
<path d="M296.938 218.438L302.556 209.157L301.225 209.689L296.346 217.748L292.45 213.199L287.956 214.997L293.848 221.875L287.956 231.608L289.287 231.076L294.439 222.565L298.554 227.369L303.048 225.572L296.937 218.438L296.938 218.438ZM295.114 221.45L294.517 220.769L289.767 215.352L291.812 214.534L295.645 218.906L296.242 219.587L301.225 225.27L299.18 226.088L295.114 221.451V221.45Z" fill="#9D2BFF"/>
</g>
</g>
<g clip-path="url(#clip10_5423_984)">
<g clip-path="url(#clip11_5423_984)">
<path d="M389.186 308.827L395.274 298.77L393.831 299.347L388.546 308.079L384.324 303.15L379.455 305.098L385.839 312.551L379.455 323.097L380.897 322.52L386.479 313.299L390.938 318.504L395.807 316.556L389.186 308.827L389.186 308.827ZM387.211 312.091L386.564 311.353L381.417 305.483L383.633 304.596L387.786 309.334L388.433 310.071L393.832 316.229L391.616 317.116L387.211 312.091V312.091Z" fill="#CF97FF"/>
</g>
</g>
<g clip-path="url(#clip12_5423_984)">
<path d="M337.652 342.527C343.655 340.127 348.521 332.939 348.521 326.475C348.521 320.01 343.655 316.716 337.652 319.117C331.65 321.518 326.784 328.705 326.784 335.169C326.784 341.634 331.65 344.928 337.652 342.527Z" fill="#9D2BFF"/>
<path d="M334.141 333.084L335.43 336.412C335.43 336.412 335.591 336.707 335.764 336.638C335.937 336.569 338.504 332.665 338.504 332.665L341.359 325.583L334.187 332.073L334.141 333.084Z" fill="#9D2BFF"/>
<path d="M335.85 333.385L335.603 336.317C335.603 336.317 335.499 337.227 336.305 336.036C337.111 334.846 337.882 333.868 337.882 333.868" fill="#9D2BFF"/>
<path d="M334.165 333.212L331.513 333.342C331.513 333.342 331.196 333.33 331.298 332.975C331.319 332.902 331.361 332.83 331.488 332.685C332.076 332.008 342.366 323.909 342.366 323.909C342.366 323.909 342.657 323.687 342.828 323.689C342.87 323.686 342.908 323.697 342.938 323.72C342.968 323.743 342.989 323.778 342.999 323.821C343.017 323.896 343.025 323.978 343.022 324.064C343.021 324.138 343.013 324.209 343.006 324.318C342.944 325.432 341.068 334.311 341.068 334.311C341.068 334.311 340.956 334.831 340.554 335.008C340.455 335.051 340.357 335.072 340.265 335.071C340.172 335.069 340.088 335.045 340.017 334.999C339.228 334.584 336.502 333.701 335.899 333.508C335.885 333.503 335.874 333.495 335.865 333.483C335.857 333.471 335.852 333.457 335.85 333.44C335.841 333.397 335.887 333.322 335.887 333.322C335.887 333.322 340.635 326.877 340.762 326.35C340.772 326.309 340.735 326.305 340.685 326.341C340.37 326.593 334.903 332.498 334.299 333.149C334.256 333.181 334.21 333.202 334.165 333.212Z" fill="#CF97FF"/>
</g>
<g clip-path="url(#clip13_5423_984)">
<path d="M294.013 336.572L280.971 341.789C278.57 342.749 276.624 345.624 276.624 348.21V362.257C276.624 364.842 278.57 366.16 280.971 365.2L294.013 359.983C296.414 359.023 298.36 356.148 298.36 353.562V339.516C298.36 336.93 296.414 335.612 294.013 336.572Z" fill="#9D2BFF"/>
<path d="M282.226 344.928L292.756 340.716V356.844L291.21 357.462V350.075L291.195 350.081C291.024 348.107 289.431 347.145 287.491 347.921C285.55 348.697 283.957 350.934 283.786 353.044L283.771 353.05V360.438L282.226 361.056V344.928Z" fill="#CF97FF"/>
<path d="M279.424 348.337L280.052 350.375L280.583 350.162V359.423C280.316 359.529 280.1 359.849 280.1 360.136V360.76L280.003 360.799C279.737 360.906 279.52 361.225 279.52 361.512V362.137L284.93 359.973V359.348C284.93 359.061 284.714 358.915 284.447 359.021L284.351 359.06V358.436C284.351 358.148 284.134 358.002 283.868 358.109L283.288 358.341V346.791L279.424 348.337Z" fill="#CF97FF"/>
<path d="M291.306 355.134C291.04 355.241 290.823 355.56 290.823 355.847V356.472L290.727 356.51C290.46 356.617 290.244 356.937 290.244 357.224V357.848L295.654 355.684V355.06C295.654 354.773 295.437 354.626 295.171 354.733L295.074 354.772V354.147C295.074 353.86 294.858 353.713 294.591 353.82V344.56L295.122 344.347L295.75 341.807L291.886 343.353V354.902L291.306 355.134Z" fill="#CF97FF"/>
</g>
<g clip-path="url(#clip14_5423_984)">
<path d="M245.543 359.413C243.991 359.252 242.349 359.353 240.661 359.713C240.451 360.207 240.205 360.856 240.036 361.362C238.216 361.795 236.413 362.516 234.626 363.526C234.457 363.155 234.206 362.705 233.993 362.381C232.304 363.371 230.661 364.585 229.108 365.991C226.019 372.254 225.182 377.492 225.6 382.158C227.649 382.986 229.635 383.193 231.587 383.067C232.072 382.155 232.501 381.223 232.869 380.28C232.168 380.273 231.493 380.189 230.85 380.029C231.019 379.827 231.184 379.62 231.345 379.41C235.238 379.814 239.468 378.122 243.315 374.622C243.477 374.702 243.642 374.777 243.81 374.846C243.167 375.521 242.49 376.146 241.787 376.715C242.158 377.365 242.586 377.956 243.069 378.477C245.023 377.04 247.011 375.244 249.06 372.774C249.551 366.975 248.221 362.649 245.543 359.413ZM233.4 376.066C232.231 376.533 231.273 375.742 231.273 374.311C231.273 372.88 232.211 371.327 233.4 370.852C234.589 370.376 235.547 371.168 235.527 372.609C235.529 374.039 234.589 375.59 233.4 376.066ZM241.261 372.922C240.092 373.389 239.133 372.597 239.133 371.166C239.133 369.735 240.071 368.183 241.261 367.707C242.45 367.232 243.408 368.023 243.388 369.465C243.388 370.896 242.45 372.446 241.261 372.922Z" fill="#9D2BFF"/>
</g>
<g clip-path="url(#clip15_5423_984)">
<path d="M197.779 386.99C197.779 386.031 197.707 385.36 197.55 384.697L187.381 388.764V393.093L193.35 390.706C193.23 391.83 192.58 393.71 191.136 395.376L191.116 395.529L194.331 396.926L194.554 396.861C196.6 394.007 197.779 390.542 197.779 386.99Z" fill="#9D2BFF"/>
<path d="M187.381 402.555C190.305 401.385 192.76 399.366 194.554 396.86L191.136 395.376C190.221 396.428 188.994 397.399 187.381 398.044C184.517 399.19 182.086 398.127 181.22 395.661L181.093 395.724L177.749 399.848L177.706 399.996C179.487 403.094 183.145 404.249 187.381 402.555Z" fill="#9D2BFF"/>
<path d="M181.219 395.663C180.99 395.028 180.858 394.303 180.858 393.5C180.858 392.696 180.99 391.866 181.207 391.053L181.201 390.901L177.816 389.424L177.705 389.525C176.971 391.399 176.55 393.344 176.55 395.223C176.55 397.102 176.971 398.71 177.705 399.997L181.219 395.663Z" fill="#9D2BFF"/>
<path d="M187.381 383.735C189.415 382.921 190.787 383.319 191.569 383.797L194.626 379.359C192.748 378.231 190.305 378.055 187.381 379.224C183.145 380.919 179.487 385 177.706 389.523L181.208 391.052C182.086 387.888 184.517 384.88 187.381 383.735Z" fill="#9D2BFF"/>
</g>
<path d="M386.756 82.4244V87.6896L385.508 88.1891V76.5189L386.756 76.0194V80.3046L386.862 80.2622C387.053 79.734 387.338 79.2607 387.719 78.8424C388.104 78.4189 388.615 78.0795 389.254 77.8241C389.807 77.6026 390.292 77.5283 390.709 77.6011C391.125 77.6702 391.448 77.9039 391.677 78.3022C391.91 78.6953 392.026 79.268 392.026 80.0202V85.5818L390.777 86.0812V80.6108C390.777 79.9156 390.61 79.4451 390.275 79.1992C389.943 78.9482 389.483 78.9404 388.894 79.1761C388.485 79.3397 388.118 79.5795 387.793 79.8955C387.472 80.21 387.219 80.5832 387.032 81.0151C386.848 81.4456 386.756 81.9153 386.756 82.4244Z" fill="#D8AAFF"/>
<path d="M383.455 80.2576V81.3972L379.244 83.0818V81.9422L383.455 80.2576ZM380.471 79.3542L381.72 78.8547V87.1971C381.72 87.577 381.771 87.8415 381.873 87.9905C381.979 88.1343 382.113 88.2061 382.275 88.2058C382.441 88.2002 382.616 88.1608 382.799 88.0874C382.937 88.0324 383.049 87.9796 383.138 87.9292C383.226 87.8749 383.296 87.8315 383.349 87.7989L383.603 88.9054C383.519 88.9735 383.4 89.0549 383.249 89.1498C383.097 89.2484 382.905 89.3443 382.672 89.4374C382.319 89.5785 381.974 89.6351 381.635 89.6072C381.3 89.5779 381.021 89.4405 380.799 89.1951C380.58 88.9483 380.471 88.5703 380.471 88.0613V79.3542Z" fill="#D8AAFF"/>
<path d="M374.656 92.712C373.873 93.0252 373.198 93.1093 372.63 92.9641C372.066 92.8138 371.63 92.4638 371.323 91.9141C371.02 91.3593 370.868 90.6335 370.868 89.737C370.868 88.8405 371.02 87.9896 371.323 87.1845C371.63 86.3741 372.057 85.6678 372.604 85.0654C373.154 84.4578 373.796 84.0073 374.529 83.7138C374.953 83.5445 375.371 83.4533 375.783 83.4402C376.196 83.4271 376.572 83.5237 376.91 83.7302C377.249 83.9329 377.519 84.2732 377.72 84.7512C377.921 85.2292 378.021 85.8766 378.021 86.6934V87.2632L371.757 89.7689V88.6065L376.752 86.6087C376.752 86.1148 376.66 85.7108 376.476 85.3967C376.297 85.0812 376.039 84.8784 375.704 84.7883C375.372 84.6967 374.981 84.7413 374.529 84.9219C374.032 85.1208 373.602 85.4259 373.238 85.8371C372.879 86.2432 372.602 86.6958 372.408 87.1951C372.214 87.6944 372.117 88.1853 372.117 88.6677V89.4427C372.117 90.1037 372.223 90.6217 372.434 90.9967C372.649 91.3665 372.947 91.5949 373.328 91.6819C373.709 91.765 374.152 91.7057 374.656 91.504C374.984 91.3728 375.281 91.2049 375.545 91.0003C375.813 90.7905 376.044 90.5461 376.238 90.2672C376.432 89.9844 376.582 89.6699 376.688 89.3237L377.894 89.2059C377.767 89.6973 377.554 90.1702 377.254 90.6244C376.954 91.0748 376.584 91.4813 376.143 91.8438C375.702 92.2025 375.207 92.4919 374.656 92.712Z" fill="#D8AAFF"/>
<path d="M368.056 95.2609C367.795 95.3653 367.571 95.3543 367.384 95.2277C367.197 95.1011 367.104 94.8973 367.104 94.6162C367.104 94.335 367.197 94.0564 367.384 93.7803C367.571 93.5042 367.795 93.3139 368.056 93.2095C368.317 93.1051 368.541 93.1162 368.728 93.2428C368.915 93.3693 369.009 93.5732 369.009 93.8543C369.009 94.0404 368.965 94.229 368.876 94.42C368.792 94.6097 368.677 94.7809 368.533 94.9337C368.391 95.0813 368.233 95.1904 368.056 95.2609Z" fill="#D8AAFF"/>
<path d="M359.68 93.2551V98.5204L358.431 99.0199V90.2672L359.637 89.7847V91.1523L359.743 91.11C359.934 90.5893 360.223 90.1165 360.611 89.6916C360.999 89.2629 361.5 88.9258 362.114 88.6803C362.664 88.4602 363.145 88.3892 363.558 88.4672C363.971 88.5415 364.292 88.7778 364.521 89.1761C364.75 89.5707 364.865 90.1402 364.865 90.8848V96.4464L363.616 96.9459V91.4755C363.616 90.7879 363.45 90.3185 363.119 90.0675C362.787 89.8126 362.332 89.8008 361.754 90.0322C361.355 90.1917 360.999 90.4272 360.685 90.7389C360.375 91.0493 360.129 91.4189 359.95 91.848C359.77 92.277 359.68 92.7461 359.68 93.2551Z" fill="#D8AAFF"/>
<path d="M350.877 96.7762V102.041L349.628 102.541V90.8707L350.877 90.3712V94.6564L350.983 94.6141C351.173 94.0858 351.459 93.6125 351.84 93.1942C352.224 92.7707 352.736 92.4313 353.374 92.1759C353.928 91.9544 354.413 91.8801 354.829 91.9529C355.245 92.022 355.568 92.2557 355.797 92.654C356.03 93.0472 356.147 93.6198 356.147 94.372V99.9336L354.898 100.433V94.9626C354.898 94.2674 354.731 93.7969 354.395 93.551C354.064 93.3 353.604 93.2923 353.015 93.5279C352.605 93.6915 352.239 93.9313 351.914 94.2473C351.593 94.5618 351.339 94.935 351.152 95.3669C350.969 95.7974 350.877 96.2671 350.877 96.7762Z" fill="#D8AAFF"/>
<path d="M344.04 104.959C343.307 105.252 342.663 105.322 342.109 105.167C341.559 105.011 341.129 104.657 340.818 104.105C340.511 103.551 340.358 102.823 340.358 101.918C340.358 101.007 340.511 100.149 340.818 99.3467C341.129 98.5426 341.559 97.8424 342.109 97.2462C342.663 96.6486 343.307 96.2031 344.04 95.9096C344.774 95.6161 345.416 95.5474 345.966 95.7034C346.52 95.858 346.95 96.2139 347.257 96.7712C347.568 97.327 347.723 98.0608 347.723 98.9725C347.723 99.8767 347.568 100.729 347.257 101.529C346.95 102.328 346.52 103.027 345.966 103.624C345.416 104.22 344.774 104.665 344.04 104.959ZM344.04 103.751C344.598 103.528 345.056 103.19 345.416 102.739C345.776 102.287 346.042 101.776 346.215 101.205C346.388 100.635 346.474 100.057 346.474 99.472C346.474 98.887 346.388 98.3764 346.215 97.9403C346.042 97.5041 345.776 97.2023 345.416 97.0347C345.056 96.8671 344.598 96.8947 344.04 97.1177C343.483 97.3406 343.024 97.6798 342.665 98.1352C342.305 98.5906 342.039 99.1055 341.866 99.6799C341.693 100.254 341.607 100.834 341.607 101.419C341.607 102.004 341.693 102.513 341.866 102.945C342.039 103.377 342.305 103.675 342.665 103.839C343.024 104.003 343.483 103.973 344.04 103.751Z" fill="#D8AAFF"/>
<path d="M337.203 98.7584L338.452 98.259V107.65C338.452 108.189 338.365 108.691 338.192 109.155C338.023 109.618 337.765 110.027 337.42 110.382C337.078 110.735 336.646 111.016 336.124 111.225C336.081 111.242 336.039 111.259 335.997 111.276C335.954 111.293 335.912 111.31 335.87 111.327V110.073C335.912 110.056 335.951 110.041 335.986 110.026C336.021 110.012 336.06 109.997 336.102 109.98C336.483 109.828 336.762 109.594 336.938 109.281C337.115 108.971 337.203 108.594 337.203 108.149V98.7584ZM337.817 97.0541C337.573 97.1515 337.363 97.1462 337.187 97.0381C337.014 96.9287 336.928 96.7487 336.928 96.4979C336.928 96.2472 337.014 95.998 337.187 95.7503C337.363 95.5012 337.573 95.328 337.817 95.2307C338.06 95.1333 338.268 95.1393 338.441 95.2488C338.617 95.3568 338.705 95.5361 338.705 95.7869C338.705 96.0376 338.617 96.2875 338.441 96.5366C338.268 96.7843 338.06 96.9568 337.817 97.0541Z" fill="#D8AAFF"/>
<path d="M329.493 113.672C328.414 114.104 327.46 114.326 326.631 114.338C325.802 114.355 325.105 114.168 324.541 113.778C323.977 113.389 323.55 112.805 323.261 112.028C322.971 111.251 322.827 110.287 322.827 109.136C322.827 108.023 322.973 106.969 323.266 105.974C323.562 104.978 323.991 104.062 324.551 103.226C325.116 102.385 325.8 101.642 326.604 100.998C327.412 100.352 328.326 99.8249 329.345 99.4172C330.336 99.0207 331.204 98.8484 331.948 98.9002C332.696 98.9468 333.32 99.1662 333.821 99.5585C334.325 99.9456 334.703 100.458 334.953 101.094C335.207 101.73 335.334 102.439 335.334 103.221C335.334 103.772 335.309 104.34 335.26 104.926C335.211 105.512 335.107 106.074 334.948 106.612C334.789 107.147 334.544 107.625 334.212 108.046C333.884 108.466 333.44 108.788 332.879 109.013C332.632 109.111 332.361 109.178 332.064 109.213C331.768 109.248 331.505 109.215 331.276 109.113C331.047 109.011 330.911 108.805 330.869 108.495L330.805 108.52C330.721 108.774 330.59 109.036 330.414 109.304C330.241 109.57 330.013 109.819 329.731 110.05C329.452 110.279 329.112 110.466 328.71 110.612C328.251 110.776 327.848 110.828 327.498 110.766C327.149 110.701 326.856 110.54 326.62 110.285C326.387 110.025 326.211 109.687 326.091 109.272C325.975 108.851 325.916 108.371 325.916 107.832C325.916 107.319 325.987 106.821 326.128 106.34C326.269 105.858 326.465 105.407 326.715 104.988C326.969 104.567 327.266 104.194 327.604 103.869C327.946 103.538 328.315 103.271 328.71 103.067C329.063 102.888 329.384 102.777 329.673 102.733C329.962 102.686 330.2 102.695 330.387 102.761C330.574 102.823 330.692 102.928 330.742 103.075L330.805 103.05V102.412L331.927 101.963V107.114C331.927 107.433 332.01 107.681 332.175 107.858C332.341 108.035 332.583 108.06 332.9 107.933C333.26 107.789 333.535 107.546 333.726 107.204C333.92 106.86 334.052 106.397 334.123 105.814C334.197 105.23 334.234 104.505 334.234 103.639C334.234 103.13 334.168 102.654 334.038 102.213C333.911 101.766 333.717 101.378 333.456 101.049C333.198 100.719 332.872 100.468 332.477 100.295C332.082 100.123 331.618 100.05 331.086 100.077C330.557 100.099 329.955 100.244 329.281 100.514C328.453 100.845 327.71 101.281 327.054 101.821C326.401 102.355 325.846 102.978 325.387 103.69C324.932 104.396 324.585 105.173 324.345 106.021C324.109 106.864 323.991 107.763 323.991 108.716C323.991 109.685 324.109 110.498 324.345 111.156C324.585 111.812 324.938 112.305 325.403 112.636C325.872 112.965 326.453 113.124 327.144 113.113C327.835 113.106 328.632 112.922 329.535 112.561C329.923 112.406 330.306 112.213 330.683 111.982C331.061 111.752 331.394 111.531 331.683 111.32C331.973 111.11 332.181 110.956 332.308 110.86L332.604 111.79C332.385 111.976 332.1 112.189 331.747 112.429C331.398 112.667 331.024 112.898 330.625 113.122C330.23 113.345 329.853 113.528 329.493 113.672ZM328.879 109.382C329.352 109.193 329.735 108.937 330.027 108.615C330.32 108.293 330.534 107.898 330.668 107.43C330.802 106.962 330.869 106.413 330.869 105.782C330.869 105.144 330.795 104.676 330.646 104.378C330.498 104.081 330.28 103.917 329.99 103.889C329.701 103.86 329.345 103.93 328.922 104.1C328.52 104.26 328.176 104.512 327.89 104.854C327.608 105.191 327.391 105.578 327.239 106.015C327.091 106.446 327.017 106.882 327.017 107.323C327.017 107.809 327.077 108.243 327.197 108.624C327.317 109.002 327.513 109.269 327.784 109.427C328.056 109.58 328.421 109.565 328.879 109.382Z" fill="#D8AAFF"/>
<path d="M377.796 183.484C377.733 182.932 377.475 182.587 377.024 182.448C376.572 182.31 376.018 182.371 375.362 182.634C374.883 182.826 374.463 183.077 374.103 183.388C373.747 183.698 373.468 184.039 373.267 184.412C373.07 184.784 372.971 185.156 372.971 185.528C372.971 185.839 373.04 186.08 373.177 186.249C373.318 186.413 373.498 186.525 373.717 186.586C373.936 186.643 374.165 186.671 374.405 186.67C374.645 186.665 374.865 186.651 375.066 186.627L376.167 186.506C376.449 186.473 376.763 186.458 377.108 186.46C377.457 186.461 377.791 186.519 378.108 186.636C378.429 186.746 378.694 186.948 378.902 187.241C379.11 187.534 379.214 187.954 379.214 188.501C379.214 189.132 379.061 189.763 378.754 190.395C378.45 191.025 378.006 191.607 377.42 192.142C376.838 192.675 376.131 193.108 375.299 193.441C374.523 193.751 373.851 193.885 373.283 193.842C372.719 193.798 372.274 193.6 371.95 193.247C371.629 192.893 371.447 192.406 371.405 191.784L372.759 191.243C372.794 191.669 372.932 191.979 373.172 192.172C373.415 192.359 373.722 192.449 374.093 192.442C374.466 192.429 374.868 192.336 375.299 192.164C375.8 191.964 376.249 191.697 376.648 191.362C377.047 191.024 377.362 190.651 377.595 190.243C377.828 189.831 377.944 189.412 377.944 188.986C377.944 188.599 377.844 188.324 377.643 188.161C377.442 187.998 377.177 187.906 376.849 187.886C376.521 187.865 376.167 187.874 375.786 187.912L374.452 188.035C373.606 188.112 372.936 188.006 372.442 187.717C371.948 187.428 371.701 186.891 371.701 186.104C371.701 185.451 371.865 184.815 372.193 184.198C372.525 183.575 372.969 183.018 373.526 182.525C374.087 182.027 374.713 181.64 375.405 181.363C376.103 181.084 376.724 180.971 377.267 181.023C377.81 181.072 378.24 181.264 378.558 181.601C378.879 181.936 379.048 182.394 379.066 182.976L377.796 183.484Z" fill="#D8AAFF"/>
<path d="M364.234 192.396V197.661L362.986 198.161V189.408L364.192 188.925V190.293L364.298 190.251C364.488 189.73 364.778 189.257 365.166 188.832C365.554 188.404 366.054 188.067 366.668 187.821C367.218 187.601 367.7 187.53 368.113 187.608C368.525 187.682 368.846 187.919 369.076 188.317C369.305 188.711 369.419 189.281 369.419 190.026V195.587L368.171 196.087V190.616C368.171 189.929 368.005 189.459 367.673 189.208C367.342 188.953 366.887 188.942 366.308 189.173C365.91 189.332 365.554 189.568 365.24 189.88C364.929 190.19 364.684 190.56 364.504 190.989C364.324 191.418 364.234 191.887 364.234 192.396Z" fill="#D8AAFF"/>
<path d="M355.432 195.917V201.182L354.184 201.682V190.011L355.432 189.512V193.797L355.538 193.755C355.729 193.227 356.014 192.753 356.395 192.335C356.78 191.911 357.291 191.572 357.929 191.317C358.483 191.095 358.968 191.021 359.384 191.094C359.801 191.163 360.123 191.396 360.353 191.795C360.585 192.188 360.702 192.761 360.702 193.513V199.074L359.453 199.574V194.103C359.453 193.408 359.286 192.938 358.951 192.692C358.619 192.441 358.159 192.433 357.57 192.669C357.161 192.832 356.794 193.072 356.469 193.388C356.148 193.703 355.894 194.076 355.707 194.508C355.524 194.938 355.432 195.408 355.432 195.917Z" fill="#D8AAFF"/>
<path d="M348.595 204.099C347.861 204.393 347.218 204.462 346.664 204.308C346.114 204.152 345.683 203.798 345.373 203.246C345.066 202.692 344.913 201.963 344.913 201.059C344.913 200.147 345.066 199.29 345.373 198.487C345.683 197.683 346.114 196.983 346.664 196.387C347.218 195.789 347.861 195.344 348.595 195.05C349.329 194.757 349.971 194.688 350.521 194.844C351.075 194.999 351.505 195.355 351.812 195.912C352.122 196.468 352.277 197.202 352.277 198.113C352.277 199.017 352.122 199.87 351.812 200.67C351.505 201.469 351.075 202.167 350.521 202.765C349.971 203.361 349.329 203.806 348.595 204.099ZM348.595 202.891C349.152 202.668 349.611 202.331 349.971 201.879C350.33 201.428 350.597 200.917 350.77 200.346C350.942 199.776 351.029 199.198 351.029 198.613C351.029 198.028 350.942 197.517 350.77 197.081C350.597 196.645 350.33 196.343 349.971 196.175C349.611 196.008 349.152 196.035 348.595 196.258C348.038 196.481 347.579 196.82 347.219 197.276C346.86 197.731 346.593 198.246 346.42 198.821C346.248 199.395 346.161 199.975 346.161 200.56C346.161 201.145 346.248 201.653 346.42 202.086C346.593 202.518 346.86 202.816 347.219 202.98C347.579 203.144 348.038 203.114 348.595 202.891Z" fill="#D8AAFF"/>
<path d="M341.521 195.076L342.833 194.551V202.894C342.833 203.638 342.706 204.322 342.452 204.944C342.198 205.566 341.84 206.104 341.378 206.559C340.916 207.013 340.371 207.366 339.743 207.617C339.151 207.854 338.624 207.949 338.162 207.902C337.699 207.852 337.336 207.663 337.072 207.335C336.807 207.008 336.675 206.546 336.675 205.95L337.966 205.433C337.966 205.764 338.042 206.022 338.193 206.209C338.348 206.39 338.56 206.495 338.828 206.525C339.096 206.554 339.401 206.5 339.743 206.364C340.121 206.213 340.442 205.999 340.706 205.722C340.971 205.445 341.172 205.114 341.31 204.728C341.451 204.338 341.521 203.901 341.521 203.419V195.076Z" fill="#D8AAFF"/>
<path d="M329.494 212.925C328.415 213.357 327.461 213.579 326.632 213.591C325.803 213.608 325.106 213.421 324.542 213.031C323.978 212.641 323.551 212.058 323.261 211.281C322.972 210.504 322.828 209.54 322.828 208.389C322.828 207.276 322.974 206.222 323.267 205.227C323.563 204.231 323.992 203.315 324.552 202.479C325.117 201.638 325.801 200.895 326.605 200.251C327.413 199.605 328.327 199.078 329.346 198.67C330.337 198.274 331.205 198.101 331.949 198.153C332.697 198.2 333.321 198.419 333.822 198.811C334.326 199.198 334.704 199.71 334.954 200.347C335.208 200.983 335.335 201.692 335.335 202.474C335.335 203.025 335.31 203.593 335.261 204.179C335.212 204.765 335.108 205.327 334.949 205.865C334.79 206.4 334.545 206.878 334.213 207.299C333.885 207.719 333.441 208.041 332.88 208.266C332.633 208.364 332.362 208.431 332.065 208.466C331.769 208.501 331.506 208.468 331.277 208.365C331.048 208.263 330.912 208.058 330.87 207.748L330.806 207.773C330.722 208.027 330.591 208.288 330.415 208.557C330.242 208.823 330.014 209.072 329.732 209.303C329.453 209.532 329.113 209.719 328.711 209.865C328.252 210.029 327.849 210.081 327.499 210.019C327.15 209.954 326.857 209.793 326.621 209.538C326.388 209.278 326.212 208.94 326.092 208.525C325.976 208.104 325.917 207.624 325.917 207.085C325.917 206.572 325.988 206.074 326.129 205.592C326.27 205.111 326.466 204.66 326.716 204.241C326.97 203.82 327.267 203.447 327.605 203.122C327.947 202.791 328.316 202.524 328.711 202.32C329.064 202.141 329.385 202.03 329.674 201.986C329.963 201.939 330.201 201.948 330.388 202.014C330.575 202.076 330.693 202.181 330.743 202.328L330.806 202.303V201.665L331.928 201.216V206.367C331.928 206.686 332.011 206.934 332.176 207.111C332.342 207.288 332.584 207.313 332.901 207.186C333.261 207.042 333.536 206.799 333.727 206.457C333.921 206.113 334.053 205.65 334.123 205.067C334.198 204.483 334.235 203.758 334.235 202.892C334.235 202.383 334.169 201.907 334.039 201.466C333.912 201.019 333.718 200.631 333.457 200.302C333.199 199.972 332.873 199.721 332.478 199.548C332.083 199.376 331.619 199.303 331.087 199.33C330.557 199.352 329.956 199.497 329.282 199.767C328.454 200.098 327.711 200.534 327.055 201.074C326.402 201.608 325.847 202.231 325.388 202.943C324.933 203.649 324.586 204.426 324.346 205.274C324.11 206.117 323.992 207.015 323.992 207.969C323.992 208.938 324.11 209.751 324.346 210.408C324.586 211.065 324.939 211.558 325.404 211.888C325.873 212.217 326.454 212.379 327.145 212.372C327.836 212.361 328.633 212.175 329.536 211.814C329.924 211.659 330.307 211.466 330.684 211.235C331.062 211.004 331.395 210.784 331.684 210.573C331.974 210.362 332.182 210.209 332.309 210.112L332.605 211.042C332.386 211.229 332.101 211.442 331.748 211.682C331.399 211.92 331.025 212.151 330.626 212.375C330.231 212.598 329.854 212.781 329.494 212.925ZM328.88 208.635C329.353 208.446 329.736 208.19 330.028 207.868C330.321 207.545 330.535 207.15 330.669 206.683C330.803 206.215 330.87 205.666 330.87 205.035C330.87 204.397 330.796 203.929 330.647 203.631C330.499 203.333 330.281 203.17 329.991 203.141C329.702 203.113 329.346 203.183 328.923 203.352C328.521 203.513 328.177 203.765 327.891 204.107C327.609 204.444 327.392 204.831 327.24 205.268C327.092 205.699 327.018 206.135 327.018 206.576C327.018 207.062 327.078 207.496 327.198 207.877C327.318 208.255 327.514 208.522 327.785 208.68C328.057 208.833 328.422 208.818 328.88 208.635Z" fill="#D8AAFF"/>
<path d="M252.358 414.08L251.477 414.701C251.421 414.565 251.34 414.444 251.232 414.338C251.126 414.228 250.982 414.161 250.799 414.135C250.616 414.11 250.382 414.154 250.097 414.269C249.706 414.425 249.381 414.652 249.12 414.95C248.862 415.244 248.734 415.539 248.734 415.835C248.734 416.097 248.822 416.269 249 416.35C249.177 416.432 249.454 416.448 249.831 416.398L250.779 416.27C251.349 416.191 251.775 416.249 252.055 416.445C252.334 416.637 252.474 416.973 252.474 417.454C252.474 417.848 252.369 418.242 252.158 418.637C251.951 419.03 251.66 419.391 251.286 419.72C250.912 420.049 250.477 420.312 249.981 420.511C249.329 420.771 248.79 420.834 248.364 420.701C247.937 420.567 247.667 420.23 247.553 419.691L248.484 419.068C248.573 419.402 248.741 419.613 248.987 419.699C249.237 419.785 249.562 419.747 249.964 419.586C250.421 419.403 250.784 419.154 251.053 418.837C251.324 418.517 251.46 418.209 251.46 417.913C251.46 417.675 251.383 417.506 251.227 417.407C251.072 417.304 250.834 417.277 250.513 417.325L249.449 417.482C248.864 417.567 248.434 417.508 248.16 417.304C247.888 417.096 247.753 416.755 247.753 416.281C247.753 415.893 247.854 415.509 248.056 415.13C248.261 414.749 248.54 414.404 248.892 414.093C249.246 413.781 249.648 413.535 250.097 413.355C250.729 413.103 251.225 413.054 251.585 413.208C251.948 413.361 252.206 413.652 252.358 414.08Z" fill="#D8AAFF"/>
<path d="M246.243 416.526L245.362 417.147C245.307 417.011 245.225 416.89 245.117 416.784C245.012 416.674 244.867 416.607 244.685 416.581C244.502 416.556 244.268 416.6 243.982 416.715C243.591 416.871 243.266 417.098 243.005 417.396C242.748 417.69 242.619 417.985 242.619 418.281C242.619 418.543 242.708 418.715 242.885 418.796C243.062 418.878 243.339 418.894 243.716 418.844L244.664 418.716C245.235 418.637 245.66 418.695 245.94 418.89C246.22 419.083 246.36 419.419 246.36 419.9C246.36 420.294 246.254 420.688 246.044 421.083C245.836 421.476 245.545 421.837 245.171 422.166C244.797 422.495 244.362 422.758 243.866 422.957C243.215 423.217 242.676 423.28 242.249 423.147C241.822 423.013 241.552 422.676 241.438 422.137L242.369 421.514C242.458 421.848 242.626 422.059 242.872 422.145C243.122 422.231 243.447 422.193 243.849 422.032C244.306 421.849 244.669 421.6 244.938 421.283C245.21 420.963 245.345 420.655 245.345 420.359C245.345 420.121 245.268 419.952 245.113 419.853C244.957 419.75 244.719 419.723 244.398 419.771L243.334 419.928C242.749 420.013 242.32 419.954 242.045 419.75C241.774 419.542 241.638 419.201 241.638 418.727C241.638 418.339 241.739 417.955 241.941 417.576C242.146 417.195 242.425 416.85 242.777 416.539C243.131 416.227 243.533 415.981 243.982 415.801C244.614 415.549 245.11 415.499 245.47 415.654C245.833 415.807 246.091 416.098 246.243 416.526Z" fill="#D8AAFF"/>
<path d="M237.586 425.469C236.971 425.715 236.44 425.781 235.994 425.667C235.551 425.549 235.208 425.274 234.967 424.842C234.729 424.406 234.61 423.836 234.61 423.132C234.61 422.427 234.729 421.759 234.967 421.126C235.208 420.49 235.544 419.935 235.973 419.462C236.405 418.984 236.91 418.63 237.486 418.4C237.819 418.267 238.147 418.195 238.471 418.185C238.795 418.175 239.09 418.251 239.356 418.413C239.622 418.572 239.834 418.839 239.992 419.215C240.15 419.59 240.229 420.099 240.229 420.741V421.188L235.308 423.157V422.244L239.232 420.674C239.232 420.286 239.16 419.969 239.016 419.722C238.874 419.474 238.672 419.315 238.409 419.244C238.148 419.172 237.841 419.207 237.486 419.349C237.095 419.505 236.757 419.745 236.472 420.068C236.189 420.387 235.972 420.743 235.819 421.135C235.667 421.527 235.591 421.913 235.591 422.292V422.9C235.591 423.42 235.674 423.827 235.84 424.121C236.009 424.412 236.243 424.591 236.543 424.659C236.842 424.725 237.19 424.678 237.586 424.52C237.843 424.417 238.076 424.285 238.284 424.124C238.495 423.959 238.676 423.767 238.829 423.548C238.981 423.326 239.099 423.079 239.182 422.807L240.129 422.714C240.03 423.1 239.862 423.472 239.627 423.829C239.391 424.183 239.1 424.502 238.754 424.787C238.407 425.068 238.018 425.296 237.586 425.469Z" fill="#D8AAFF"/>
<path d="M230.749 428.06V421.184L231.696 420.805V421.844L231.763 421.817C231.879 421.431 232.09 421.07 232.394 420.736C232.699 420.403 233.043 420.159 233.425 420.006C233.497 419.977 233.587 419.943 233.695 419.903C233.803 419.862 233.885 419.834 233.941 419.818V420.892C233.907 420.897 233.831 420.914 233.712 420.944C233.596 420.969 233.472 421.008 233.342 421.06C233.032 421.184 232.755 421.365 232.511 421.603C232.27 421.837 232.079 422.104 231.937 422.406C231.799 422.703 231.729 423.006 231.729 423.317V427.668L230.749 428.06Z" fill="#D8AAFF"/>
<path d="M225.89 430.147C225.358 430.36 224.888 430.403 224.481 430.276C224.073 430.147 223.755 429.863 223.525 429.423C223.295 428.981 223.18 428.396 223.18 427.668C223.18 426.946 223.295 426.273 223.525 425.65C223.755 425.026 224.075 424.488 224.485 424.035C224.895 423.581 225.369 423.247 225.906 423.032C226.322 422.865 226.65 422.809 226.891 422.862C227.135 422.91 227.321 423.003 227.448 423.14C227.578 423.273 227.68 423.385 227.752 423.475L227.835 423.442V420.058L228.816 419.666V428.833L227.868 429.212V428.156L227.752 428.203C227.68 428.357 227.577 428.556 227.444 428.8C227.311 429.041 227.121 429.286 226.875 429.534C226.628 429.779 226.3 429.983 225.89 430.147ZM226.023 429.145C226.416 428.987 226.749 428.744 227.02 428.415C227.292 428.082 227.498 427.691 227.639 427.24C227.781 426.787 227.851 426.3 227.851 425.781C227.851 425.268 227.782 424.846 227.644 424.517C227.505 424.184 227.3 423.965 227.028 423.859C226.757 423.749 226.422 423.775 226.023 423.934C225.607 424.1 225.261 424.354 224.984 424.695C224.709 425.031 224.503 425.423 224.364 425.869C224.228 426.311 224.161 426.774 224.161 427.257C224.161 427.747 224.23 428.164 224.368 428.508C224.51 428.849 224.718 429.082 224.992 429.208C225.269 429.33 225.613 429.309 226.023 429.145Z" fill="#D8AAFF"/>
<path d="M218.62 433.055C218.088 433.268 217.618 433.311 217.211 433.184C216.804 433.055 216.485 432.77 216.255 432.331C216.025 431.889 215.91 431.304 215.91 430.576C215.91 429.853 216.025 429.181 216.255 428.557C216.485 427.934 216.805 427.396 217.215 426.942C217.625 426.489 218.099 426.155 218.637 425.94C219.052 425.773 219.381 425.717 219.622 425.769C219.866 425.818 220.051 425.911 220.179 426.048C220.309 426.181 220.41 426.293 220.482 426.383L220.565 426.35V422.966L221.546 422.573V431.741L220.598 432.12V431.064L220.482 431.11C220.41 431.264 220.308 431.464 220.175 431.708C220.042 431.949 219.852 432.194 219.605 432.441C219.359 432.686 219.03 432.891 218.62 433.055ZM218.753 432.053C219.147 431.895 219.479 431.652 219.751 431.322C220.022 430.99 220.229 430.598 220.37 430.148C220.511 429.695 220.582 429.208 220.582 428.689C220.582 428.176 220.513 427.754 220.374 427.425C220.236 427.092 220.03 426.873 219.759 426.766C219.487 426.657 219.152 426.682 218.753 426.842C218.337 427.008 217.991 427.262 217.714 427.602C217.44 427.939 217.233 428.33 217.095 428.777C216.959 429.219 216.891 429.682 216.891 430.165C216.891 430.655 216.96 431.072 217.099 431.416C217.24 431.757 217.448 431.99 217.722 432.116C217.999 432.238 218.343 432.217 218.753 432.053Z" fill="#D8AAFF"/>
<path d="M211.493 435.924C211.089 436.085 210.722 436.15 210.392 436.118C210.062 436.083 209.8 435.947 209.606 435.711C209.412 435.473 209.315 435.129 209.315 434.682C209.315 434.288 209.387 433.94 209.532 433.637C209.676 433.332 209.868 433.061 210.109 432.824C210.35 432.588 210.616 432.377 210.907 432.192C211.201 432.003 211.496 431.828 211.793 431.668C212.181 431.459 212.495 431.293 212.736 431.169C212.98 431.042 213.157 430.922 213.268 430.809C213.382 430.695 213.438 430.553 213.438 430.383V430.347C213.438 429.905 213.326 429.607 213.102 429.452C212.88 429.296 212.544 429.308 212.092 429.489C211.624 429.676 211.256 429.933 210.99 430.261C210.724 430.588 210.537 430.898 210.429 431.192L209.498 431.207C209.665 430.722 209.886 430.308 210.163 429.965C210.443 429.617 210.748 429.331 211.078 429.106C211.41 428.878 211.737 428.699 212.059 428.571C212.264 428.489 212.499 428.422 212.765 428.369C213.034 428.312 213.293 428.314 213.542 428.376C213.795 428.436 214.004 428.596 214.17 428.854C214.336 429.113 214.419 429.516 214.419 430.062V434.592L213.438 434.984V434.053L213.389 434.073C213.322 434.249 213.211 434.453 213.056 434.685C212.901 434.917 212.695 435.145 212.437 435.367C212.179 435.59 211.865 435.775 211.493 435.924ZM211.643 434.915C212.031 434.76 212.358 434.547 212.624 434.276C212.893 434.004 213.095 433.712 213.231 433.398C213.369 433.083 213.438 432.782 213.438 432.495V431.528C213.397 431.599 213.305 431.685 213.164 431.786C213.026 431.883 212.865 431.985 212.682 432.091C212.502 432.193 212.326 432.29 212.154 432.382C211.985 432.471 211.848 432.544 211.743 432.601C211.488 432.739 211.25 432.892 211.028 433.061C210.809 433.226 210.632 433.415 210.496 433.628C210.363 433.836 210.296 434.075 210.296 434.343C210.296 434.71 210.422 434.937 210.675 435.025C210.929 435.108 211.252 435.071 211.643 434.915Z" fill="#D8AAFF"/>
<path d="M204.526 429.381V438.549L203.545 438.942V429.774L204.526 429.381Z" fill="#D8AAFF"/>
<path d="M200.768 440.053V433.177L201.749 432.784V439.66L200.768 440.053ZM201.267 431.831C201.075 431.908 200.911 431.903 200.772 431.819C200.636 431.733 200.568 431.591 200.568 431.394C200.568 431.197 200.636 431.001 200.772 430.807C200.911 430.611 201.075 430.475 201.267 430.399C201.458 430.322 201.621 430.327 201.757 430.413C201.896 430.498 201.965 430.639 201.965 430.836C201.965 431.033 201.896 431.229 201.757 431.425C201.621 431.619 201.458 431.755 201.267 431.831Z" fill="#D8AAFF"/>
<path d="M196.051 442.1C195.647 442.262 195.28 442.327 194.95 442.295C194.62 442.259 194.358 442.124 194.164 441.888C193.971 441.649 193.874 441.306 193.874 440.859C193.874 440.465 193.946 440.116 194.09 439.814C194.234 439.509 194.426 439.238 194.667 439.001C194.908 438.764 195.174 438.554 195.465 438.369C195.759 438.179 196.054 438.005 196.351 437.844C196.739 437.635 197.053 437.469 197.294 437.346C197.538 437.219 197.715 437.098 197.826 436.985C197.94 436.871 197.997 436.729 197.997 436.559V436.523C197.997 436.082 197.884 435.783 197.66 435.628C197.438 435.472 197.102 435.485 196.65 435.665C196.182 435.853 195.815 436.11 195.549 436.437C195.283 436.764 195.095 437.075 194.987 437.369L194.056 437.383C194.223 436.899 194.444 436.485 194.721 436.141C195.001 435.794 195.306 435.508 195.636 435.283C195.968 435.055 196.295 434.876 196.617 434.748C196.822 434.666 197.057 434.598 197.323 434.546C197.592 434.489 197.851 434.491 198.101 434.552C198.353 434.613 198.562 434.772 198.728 435.031C198.894 435.29 198.977 435.692 198.977 436.238V440.769L197.997 441.161V440.23L197.947 440.25C197.88 440.426 197.769 440.63 197.614 440.862C197.459 441.094 197.253 441.321 196.995 441.544C196.737 441.766 196.423 441.952 196.051 442.1ZM196.201 441.091C196.589 440.936 196.916 440.723 197.182 440.453C197.451 440.181 197.653 439.888 197.789 439.574C197.927 439.259 197.997 438.959 197.997 438.672V437.705C197.955 437.776 197.864 437.861 197.722 437.963C197.584 438.06 197.423 438.161 197.24 438.267C197.06 438.369 196.884 438.467 196.712 438.559C196.543 438.648 196.406 438.72 196.301 438.777C196.046 438.915 195.808 439.069 195.586 439.238C195.367 439.403 195.19 439.592 195.054 439.804C194.921 440.013 194.854 440.251 194.854 440.52C194.854 440.887 194.981 441.114 195.233 441.201C195.488 441.284 195.81 441.248 196.201 441.091Z" fill="#D8AAFF"/>
<path d="M184 446.76V439.884L184.948 439.505V440.579L185.031 440.546C185.164 440.125 185.379 439.755 185.675 439.433C185.971 439.109 186.328 438.863 186.743 438.697C187.164 438.528 187.515 438.491 187.795 438.585C188.077 438.675 188.298 438.872 188.456 439.176L188.522 439.149C188.686 438.729 188.931 438.349 189.258 438.009C189.585 437.666 189.977 437.403 190.434 437.221C191.005 436.992 191.472 436.998 191.835 437.238C192.198 437.475 192.379 437.997 192.379 438.806V443.408L191.398 443.8V439.198C191.398 438.691 191.269 438.38 191.012 438.265C190.754 438.151 190.451 438.163 190.101 438.303C189.653 438.482 189.305 438.767 189.058 439.159C188.812 439.547 188.688 439.963 188.688 440.408V444.884L187.691 445.283V440.574C187.691 440.183 187.573 439.915 187.338 439.771C187.102 439.623 186.799 439.624 186.427 439.772C186.172 439.874 185.934 440.043 185.712 440.278C185.494 440.511 185.316 440.785 185.18 441.099C185.047 441.409 184.981 441.733 184.981 442.07V446.367L184 446.76Z" fill="#D8AAFF"/>
<path d="M177.138 449.504V440.337L182.275 438.282V439.266L178.169 440.909V444.007L182.009 442.471V443.455L178.169 444.992V448.107L182.342 446.438V447.423L177.138 449.504Z" fill="#D8AAFF"/>
<path d="M209.637 187.67V192.867L208.055 193.5V184.747L209.574 184.14V185.564L209.674 185.524C209.861 184.986 210.154 184.497 210.552 184.056C210.955 183.614 211.461 183.271 212.071 183.027C212.625 182.806 213.11 182.737 213.526 182.821C213.942 182.902 214.265 183.141 214.494 183.539C214.723 183.938 214.838 184.498 214.838 185.22V190.787L213.256 191.42V186.057C213.256 185.423 213.103 184.989 212.796 184.754C212.489 184.516 212.067 184.504 211.531 184.719C211.164 184.865 210.838 185.081 210.552 185.367C210.27 185.651 210.046 185.991 209.881 186.388C209.718 186.779 209.637 187.207 209.637 187.67Z" fill="#A3A3A3"/>
<path d="M205.801 182.731V194.401L204.167 195.055V183.385L205.801 182.731Z" fill="#A3A3A3"/>
<path d="M192.774 194.416V199.612L191.192 200.245V191.493L192.711 190.885V192.31L192.811 192.27C192.998 191.731 193.291 191.242 193.69 190.801C194.092 190.359 194.598 190.016 195.208 189.772C195.762 189.551 196.247 189.482 196.663 189.566C197.079 189.647 197.402 189.886 197.631 190.285C197.861 190.683 197.975 191.243 197.975 191.965V197.532L196.393 198.165V192.803C196.393 192.168 196.24 191.734 195.933 191.5C195.626 191.261 195.205 191.25 194.668 191.464C194.302 191.611 193.975 191.827 193.69 192.112C193.407 192.396 193.183 192.736 193.018 193.133C192.855 193.525 192.774 193.952 192.774 194.416Z" fill="#A3A3A3"/>
<path d="M185.404 206.025C184.758 206.283 184.203 206.414 183.737 206.418C183.275 206.421 182.898 206.33 182.605 206.147C182.312 205.964 182.094 205.723 181.949 205.424L183.309 204.276C183.404 204.405 183.531 204.531 183.69 204.654C183.852 204.779 184.071 204.853 184.346 204.876C184.624 204.897 184.982 204.82 185.42 204.645C186.019 204.406 186.515 204.05 186.906 203.578C187.298 203.11 187.494 202.534 187.494 201.85V200.129L187.393 200.169C187.298 200.393 187.16 200.655 186.981 200.955C186.804 201.254 186.561 201.549 186.25 201.84C185.94 202.131 185.536 202.376 185.039 202.575C184.397 202.832 183.818 202.902 183.303 202.785C182.792 202.663 182.386 202.345 182.087 201.83C181.79 201.311 181.642 200.585 181.642 199.655C181.642 198.724 181.788 197.868 182.081 197.086C182.378 196.302 182.783 195.631 183.298 195.072C183.813 194.509 184.397 194.097 185.049 193.836C185.554 193.634 185.961 193.562 186.272 193.62C186.582 193.675 186.824 193.787 186.996 193.957C187.173 194.126 187.309 194.282 187.404 194.427L187.52 194.38V192.961L189.07 192.341V201.288C189.07 202.04 188.908 202.722 188.584 203.334C188.259 203.946 187.82 204.479 187.266 204.932C186.716 205.384 186.095 205.749 185.404 206.025ZM185.388 201.023C185.843 200.841 186.227 200.573 186.541 200.219C186.859 199.861 187.099 199.434 187.261 198.94C187.427 198.441 187.51 197.889 187.51 197.285C187.51 196.696 187.428 196.21 187.266 195.827C187.104 195.443 186.866 195.189 186.552 195.064C186.238 194.935 185.85 194.963 185.388 195.148C184.912 195.338 184.515 195.63 184.198 196.023C183.88 196.412 183.64 196.865 183.478 197.382C183.319 197.897 183.24 198.434 183.24 198.993C183.24 199.566 183.321 200.037 183.483 200.405C183.646 200.774 183.885 201.016 184.203 201.132C184.524 201.247 184.919 201.21 185.388 201.023Z" fill="#A3A3A3"/>
<path d="M178.286 205.407V196.655L179.868 196.022V204.775L178.286 205.407ZM179.085 194.985C178.81 195.095 178.574 195.09 178.376 194.972C178.182 194.848 178.085 194.648 178.085 194.37C178.085 194.089 178.182 193.811 178.376 193.536C178.574 193.256 178.81 193.06 179.085 192.95C179.361 192.84 179.595 192.847 179.789 192.971C179.987 193.089 180.085 193.289 180.085 193.57C180.085 193.848 179.987 194.127 179.789 194.407C179.595 194.682 179.361 194.875 179.085 194.985Z" fill="#A3A3A3"/>
<path d="M174.735 198.223C174.679 197.707 174.446 197.382 174.037 197.249C173.628 197.113 173.113 197.169 172.492 197.417C172.048 197.595 171.663 197.825 171.339 198.106C171.014 198.384 170.762 198.69 170.582 199.024C170.406 199.353 170.318 199.683 170.318 200.013C170.318 200.291 170.377 200.506 170.497 200.659C170.621 200.811 170.781 200.916 170.979 200.974C171.18 201.027 171.395 201.053 171.624 201.052C171.854 201.048 172.074 201.032 172.286 201.004L173.344 200.877C173.69 200.83 174.044 200.812 174.407 200.822C174.771 200.833 175.107 200.903 175.418 201.033C175.728 201.164 175.979 201.379 176.169 201.679C176.363 201.977 176.46 202.389 176.46 202.913C176.46 203.574 176.301 204.224 175.984 204.864C175.67 205.503 175.213 206.09 174.614 206.626C174.018 207.161 173.296 207.597 172.45 207.936C171.638 208.261 170.937 208.403 170.344 208.362C169.751 208.322 169.288 208.114 168.953 207.739C168.617 207.361 168.432 206.827 168.397 206.138L170.037 205.482C170.069 205.891 170.196 206.192 170.418 206.384C170.644 206.571 170.931 206.663 171.28 206.66C171.633 206.652 172.019 206.564 172.439 206.396C172.901 206.211 173.312 205.969 173.672 205.669C174.035 205.364 174.321 205.03 174.529 204.665C174.737 204.297 174.841 203.923 174.841 203.543C174.841 203.198 174.749 202.951 174.566 202.804C174.386 202.656 174.141 202.572 173.831 202.551C173.524 202.53 173.176 202.542 172.788 202.587L171.508 202.723C170.64 202.815 169.952 202.716 169.445 202.425C168.94 202.133 168.688 201.581 168.688 200.768C168.688 200.095 168.857 199.441 169.196 198.804C169.534 198.167 169.993 197.594 170.571 197.085C171.15 196.573 171.802 196.171 172.529 195.881C173.263 195.587 173.91 195.467 174.471 195.52C175.035 195.572 175.48 195.776 175.804 196.132C176.129 196.485 176.298 196.972 176.312 197.593L174.735 198.223Z" fill="#A3A3A3"/>
<defs>
<linearGradient id="paint0_linear_5423_984" x1="295.585" y1="108.392" x2="288.043" y2="122.684" gradientUnits="userSpaceOnUse">
<stop offset="0.58" stop-color="#A0A8D4"/>
<stop offset="0.73" stop-color="#8791C7"/>
<stop offset="0.91" stop-color="#6470B4"/>
</linearGradient>
<linearGradient id="paint1_linear_5423_984" x1="295.763" y1="132.815" x2="303.304" y2="118.533" gradientUnits="userSpaceOnUse">
<stop offset="0.58" stop-color="#A0A8D4"/>
<stop offset="0.73" stop-color="#8791C7"/>
<stop offset="0.91" stop-color="#6470B4"/>
</linearGradient>
<clipPath id="clip0_5423_984">
<path d="M161.672 437.319C161.672 433.258 164.728 428.744 168.499 427.235L395.617 336.388C399.387 334.88 402.444 336.949 402.444 341.01V365.915C402.444 369.975 399.387 374.49 395.617 375.998L168.499 466.845C164.728 468.354 161.672 466.284 161.672 462.223V437.319Z" fill="white"/>
</clipPath>
<clipPath id="clip1_5423_984">
<rect width="22.8747" height="23.4108" fill="white" transform="matrix(0.928477 -0.371391 0 1 171.117 380.265)"/>
</clipPath>
<clipPath id="clip2_5423_984">
<rect width="25.4831" height="19.8091" fill="white" transform="matrix(0.928477 -0.371391 0 1 220.066 362.486)"/>
</clipPath>
<clipPath id="clip3_5423_984">
<rect width="23.4108" height="23.4108" fill="white" transform="matrix(0.928477 -0.371391 0 1 271.19 340.236)"/>
</clipPath>
<clipPath id="clip4_5423_984">
<rect width="23.4108" height="23.4108" fill="white" transform="matrix(0.928477 -0.371391 0 1 321.351 320.172)"/>
</clipPath>
<clipPath id="clip5_5423_984">
<path d="M371.512 305.51C371.512 302.526 373.757 299.209 376.528 298.101L388.232 293.419C391.002 292.311 393.248 293.832 393.248 296.815V309.421C393.248 312.405 391.002 315.722 388.232 316.83L376.528 321.512C373.757 322.62 371.512 321.099 371.512 318.116V305.51Z" fill="white"/>
</clipPath>
<clipPath id="clip6_5423_984">
<rect width="17.612" height="18.0083" fill="white" transform="matrix(0.928477 -0.371391 0 1 374.019 301.806)"/>
</clipPath>
<clipPath id="clip7_5423_984">
<rect width="23.067" height="25.0728" fill="white" transform="matrix(0.906183 -0.422886 0 1 285.221 112.935)"/>
</clipPath>
<clipPath id="clip8_5423_984">
<path d="M285.642 218.416C285.642 215.662 287.715 212.601 290.271 211.578L301.073 207.258C303.63 206.235 305.703 207.638 305.703 210.392V222.026C305.703 224.78 303.63 227.841 301.073 228.864L290.271 233.184C287.715 234.207 285.642 232.804 285.642 230.05V218.416Z" fill="white"/>
</clipPath>
<clipPath id="clip9_5423_984">
<rect width="16.2543" height="16.62" fill="white" transform="matrix(0.928477 -0.371391 0 1 287.956 214.997)"/>
</clipPath>
<clipPath id="clip10_5423_984">
<path d="M376.945 308.802C376.945 305.818 379.191 302.501 381.961 301.393L393.665 296.711C396.435 295.603 398.681 297.124 398.681 300.107V312.713C398.681 315.697 396.435 319.014 393.665 320.122L381.961 324.804C379.191 325.912 376.945 324.391 376.945 321.408V308.802Z" fill="white"/>
</clipPath>
<clipPath id="clip11_5423_984">
<rect width="17.612" height="18.0083" fill="white" transform="matrix(0.928477 -0.371391 0 1 379.454 305.097)"/>
</clipPath>
<clipPath id="clip12_5423_984">
<rect width="23.4108" height="23.4108" fill="white" transform="matrix(0.928477 -0.371391 0 1 326.784 323.464)"/>
</clipPath>
<clipPath id="clip13_5423_984">
<rect width="23.4108" height="23.4108" fill="white" transform="matrix(0.928477 -0.371391 0 1 276.624 343.528)"/>
</clipPath>
<clipPath id="clip14_5423_984">
<rect width="25.4831" height="19.8091" fill="white" transform="matrix(0.928477 -0.371391 0 1 225.5 365.778)"/>
</clipPath>
<clipPath id="clip15_5423_984">
<rect width="22.8747" height="23.4108" fill="white" transform="matrix(0.928477 -0.371391 0 1 176.55 383.557)"/>
</clipPath>
</defs>
</svg>
