<svg xmlns="http://www.w3.org/2000/svg" width="48" height="48" fill="none" viewBox="0 0 48 48"><g clip-path="url(#clip0_3504_15841)"><rect width="48" height="48" fill="url(#paint0_linear_3504_15841)" rx="8"/><rect width="50" height="50" x="-1" y="-1" fill="url(#paint1_linear_3504_15841)" rx="9.8"/><g clip-path="url(#clip1_3504_15841)"><path fill="#fff" d="M24 14.25C18.6172 14.25 14.25 18.6172 14.25 24C14.25 29.3828 18.6172 33.75 24 33.75C24.8988 33.75 25.625 34.4762 25.625 35.375C25.625 36.2738 24.8988 37 24 37C16.8195 37 11 31.1805 11 24C11 16.8195 16.8195 11 24 11C31.1805 11 37 16.8195 37 24V25.625C37 28.3164 34.8164 30.5 32.125 30.5C30.6371 30.5 29.3016 29.8297 28.4078 28.7785C27.25 29.8449 25.7012 30.5 24 30.5C20.4098 30.5 17.5 27.5902 17.5 24C17.5 20.4098 20.4098 17.5 24 17.5C25.4168 17.5 26.727 17.952 27.7934 18.7238C28.0828 18.4699 28.4586 18.3125 28.875 18.3125C29.7738 18.3125 30.5 19.0387 30.5 19.9375V25.625C30.5 26.5238 31.2262 27.25 32.125 27.25C33.0238 27.25 33.75 26.5238 33.75 25.625V24C33.75 18.6172 29.3828 14.25 24 14.25ZM27.25 24C27.25 23.138 26.9076 22.3114 26.2981 21.7019C25.6886 21.0924 24.862 20.75 24 20.75C23.138 20.75 22.3114 21.0924 21.7019 21.7019C21.0924 22.3114 20.75 23.138 20.75 24C20.75 24.862 21.0924 25.6886 21.7019 26.2981C22.3114 26.9076 23.138 27.25 24 27.25C24.862 27.25 25.6886 26.9076 26.2981 26.2981C26.9076 25.6886 27.25 24.862 27.25 24Z"/></g></g><defs><linearGradient id="paint0_linear_3504_15841" x1="25.5" x2="30.202" y1="0" y2="47.535" gradientUnits="userSpaceOnUse"><stop stop-color="#8358BA"/><stop offset="1" stop-color="#7B1CF7"/></linearGradient><linearGradient id="paint1_linear_3504_15841" x1="25.563" x2="30.46" y1="-1" y2="48.516" gradientUnits="userSpaceOnUse"><stop stop-color="#8358BA"/><stop offset="1" stop-color="#7B1CF7"/></linearGradient><clipPath id="clip0_3504_15841"><rect width="48" height="48" fill="#fff" rx="8"/></clipPath><clipPath id="clip1_3504_15841"><rect width="26" height="26" fill="#fff" transform="translate(11 11)"/></clipPath></defs></svg>