<svg width="113" height="113" viewBox="0 0 113 113" fill="none" xmlns="http://www.w3.org/2000/svg">
<path d="M56.5 10.5938C31.1876 10.5938 10.5938 31.1876 10.5938 56.5C10.5938 81.8124 31.1876 102.406 56.5 102.406C81.8124 102.406 102.406 81.8124 102.406 56.5C102.406 31.1876 81.8124 10.5938 56.5 10.5938ZM71.7947 31.8188C74.9585 31.8231 78.0499 32.7653 80.6784 34.5261C83.3068 36.287 85.3543 38.7875 86.562 41.7117C87.7697 44.6359 88.0834 47.8525 87.4635 50.9549C86.8436 54.0573 85.3179 56.9064 83.0793 59.1419C80.8406 61.3775 77.9895 62.8992 74.8862 63.5149C71.7829 64.1305 68.5668 63.8123 65.6443 62.6006C62.7218 61.3889 60.224 59.338 58.4668 56.7071C56.7096 54.0762 55.7717 50.9835 55.7717 47.8197C55.7731 45.717 56.1887 43.6352 56.9947 41.6931C57.8008 39.7509 58.9814 37.9866 60.4693 36.5008C61.9572 35.0149 63.7231 33.8367 65.6664 33.0334C67.6096 32.23 69.692 31.8173 71.7947 31.8188ZM37.5637 37.6365C40.1523 37.64 42.6818 38.4108 44.8324 39.8515C46.9831 41.2922 48.6584 43.3381 49.6466 45.7307C50.6348 48.1233 50.8916 50.7551 50.3844 53.2936C49.8773 55.832 48.629 58.1632 46.7973 59.9924C44.9656 61.8216 42.6328 63.0667 40.0937 63.5704C37.5545 64.0742 34.9231 63.8139 32.5318 62.8224C30.1406 61.831 28.0969 60.153 26.6591 58.0004C25.2213 55.8478 24.4539 53.3172 24.4539 50.7286C24.4548 49.0081 24.7946 47.3046 25.4539 45.7154C26.1133 44.1263 27.0793 42.6826 28.2967 41.4668C29.5141 40.251 30.9591 39.287 32.5491 38.6298C34.1392 37.9726 35.8431 37.6351 37.5637 37.6365ZM20.8233 71.8455C26.2306 68.9123 33.154 67.4447 37.5637 67.4447C40.8742 67.4447 45.1382 68.1068 49.3338 69.6958C46.5213 71.2652 43.9861 73.2867 41.8299 75.6791C38.9188 78.9896 37.2481 82.9446 37.2481 86.8974V90.208C29.9383 86.0211 24.1771 79.5841 20.8233 71.8565V71.8455ZM56.5 95.3438C52.0311 95.3474 47.5955 94.576 43.3902 93.0639V87.0939C43.3902 75.4871 62.3155 69.6385 71.7947 69.6385C76.8709 69.6385 84.6794 71.3224 90.8215 74.6727C87.5163 80.9095 82.5754 86.1287 76.5289 89.7704C70.4824 93.412 63.5585 95.3387 56.5 95.3438Z" fill="black"/>
<path d="M56.5 10.5938C31.1876 10.5938 10.5938 31.1876 10.5938 56.5C10.5938 81.8124 31.1876 102.406 56.5 102.406C81.8124 102.406 102.406 81.8124 102.406 56.5C102.406 31.1876 81.8124 10.5938 56.5 10.5938ZM71.7947 31.8188C74.9585 31.8231 78.0499 32.7653 80.6784 34.5261C83.3068 36.287 85.3543 38.7875 86.562 41.7117C87.7697 44.6359 88.0834 47.8525 87.4635 50.9549C86.8436 54.0573 85.3179 56.9064 83.0793 59.1419C80.8406 61.3775 77.9895 62.8992 74.8862 63.5149C71.7829 64.1305 68.5668 63.8123 65.6443 62.6006C62.7218 61.3889 60.224 59.338 58.4668 56.7071C56.7096 54.0762 55.7717 50.9835 55.7717 47.8197C55.7731 45.717 56.1887 43.6352 56.9947 41.6931C57.8008 39.7509 58.9814 37.9866 60.4693 36.5008C61.9572 35.0149 63.7231 33.8367 65.6664 33.0334C67.6096 32.23 69.692 31.8173 71.7947 31.8188ZM37.5637 37.6365C40.1523 37.64 42.6818 38.4108 44.8324 39.8515C46.9831 41.2922 48.6584 43.3381 49.6466 45.7307C50.6348 48.1233 50.8916 50.7551 50.3844 53.2936C49.8773 55.832 48.629 58.1632 46.7973 59.9924C44.9656 61.8216 42.6328 63.0667 40.0937 63.5704C37.5545 64.0742 34.9231 63.8139 32.5318 62.8224C30.1406 61.831 28.0969 60.153 26.6591 58.0004C25.2213 55.8478 24.4539 53.3172 24.4539 50.7286C24.4548 49.0081 24.7946 47.3046 25.4539 45.7154C26.1133 44.1263 27.0793 42.6826 28.2967 41.4668C29.5141 40.251 30.9591 39.287 32.5491 38.6298C34.1392 37.9726 35.8431 37.6351 37.5637 37.6365ZM20.8233 71.8455C26.2306 68.9123 33.154 67.4447 37.5637 67.4447C40.8742 67.4447 45.1382 68.1068 49.3338 69.6958C46.5213 71.2652 43.9861 73.2867 41.8299 75.6791C38.9188 78.9896 37.2481 82.9446 37.2481 86.8974V90.208C29.9383 86.0211 24.1771 79.5841 20.8233 71.8565V71.8455ZM56.5 95.3438C52.0311 95.3474 47.5955 94.576 43.3902 93.0639V87.0939C43.3902 75.4871 62.3155 69.6385 71.7947 69.6385C76.8709 69.6385 84.6794 71.3224 90.8215 74.6727C87.5163 80.9095 82.5754 86.1287 76.5289 89.7704C70.4824 93.412 63.5585 95.3387 56.5 95.3438Z" fill="url(#paint0_linear_180_461)"/>
<defs>
<linearGradient id="paint0_linear_180_461" x1="84.3468" y1="34.6228" x2="12.8595" y2="69.6373" gradientUnits="userSpaceOnUse">
<stop stop-color="#BFA3DA"/>
<stop offset="0.416667" stop-color="#84309C"/>
<stop offset="1" stop-color="#C735B0"/>
</linearGradient>
</defs>
</svg>
