<svg width="149" height="136" viewBox="0 0 149 136" fill="none" xmlns="http://www.w3.org/2000/svg">
<path d="M55 121.471C49.9583 121.471 45.3368 120.21 41.1354 117.69C36.934 115.169 33.6111 111.846 31.1667 107.721H18.3333V98.5542H27.9583C27.7292 96.7973 27.5947 95.2878 27.555 94.0259C27.5153 92.7639 27.497 91.2178 27.5 89.3876H18.3333V80.2209H27.5C27.5 78.1584 27.5199 76.458 27.5596 75.1196C27.5993 73.7813 27.7322 72.4262 27.9583 71.0542H18.3333V61.8876H31.1667C32.2361 60.0542 33.44 58.392 34.7783 56.9009C36.1167 55.4098 37.6628 54.0928 39.4167 52.9501L32.0833 45.3876L38.5 38.9709L48.3542 48.8251C50.1111 48.2139 52.2882 47.9084 54.8854 47.9084C57.4827 47.9084 59.6597 48.2139 61.4167 48.8251L71.5 38.9709L77.9167 45.3876L70.3542 52.9501C72.1111 54.0959 73.697 55.4144 75.1117 56.9055C76.5264 58.3966 77.767 60.0573 78.8333 61.8876H91.6667V71.0542H82.0417C82.2708 72.8112 82.4053 74.2626 82.445 75.4084C82.4847 76.5542 82.5031 78.1584 82.5 80.2209H91.6667V89.3876H82.5C82.5 91.2209 82.4801 92.767 82.4404 94.0259C82.4007 95.2848 82.2678 96.7942 82.0417 98.5542H91.6667V107.721H78.8333C76.3889 111.846 73.066 115.169 68.8646 117.69C64.6632 120.21 60.0417 121.471 55 121.471ZM45.8333 98.5542H64.1667V89.3876H45.8333V98.5542ZM45.8333 80.2209H64.1667V71.0542H45.8333V80.2209Z" fill="black"/>
<path d="M55 121.471C49.9583 121.471 45.3368 120.21 41.1354 117.69C36.934 115.169 33.6111 111.846 31.1667 107.721H18.3333V98.5542H27.9583C27.7292 96.7973 27.5947 95.2878 27.555 94.0259C27.5153 92.7639 27.497 91.2178 27.5 89.3876H18.3333V80.2209H27.5C27.5 78.1584 27.5199 76.458 27.5596 75.1196C27.5993 73.7813 27.7322 72.4262 27.9583 71.0542H18.3333V61.8876H31.1667C32.2361 60.0542 33.44 58.392 34.7783 56.9009C36.1167 55.4098 37.6628 54.0928 39.4167 52.9501L32.0833 45.3876L38.5 38.9709L48.3542 48.8251C50.1111 48.2139 52.2882 47.9084 54.8854 47.9084C57.4827 47.9084 59.6597 48.2139 61.4167 48.8251L71.5 38.9709L77.9167 45.3876L70.3542 52.9501C72.1111 54.0959 73.697 55.4144 75.1117 56.9055C76.5264 58.3966 77.767 60.0573 78.8333 61.8876H91.6667V71.0542H82.0417C82.2708 72.8112 82.4053 74.2626 82.445 75.4084C82.4847 76.5542 82.5031 78.1584 82.5 80.2209H91.6667V89.3876H82.5C82.5 91.2209 82.4801 92.767 82.4404 94.0259C82.4007 95.2848 82.2678 96.7942 82.0417 98.5542H91.6667V107.721H78.8333C76.3889 111.846 73.066 115.169 68.8646 117.69C64.6632 120.21 60.0417 121.471 55 121.471ZM45.8333 98.5542H64.1667V89.3876H45.8333V98.5542ZM45.8333 80.2209H64.1667V71.0542H45.8333V80.2209Z" fill="url(#paint0_linear_2_28)"/>
<g clip-path="url(#clip0_2_28)">
<path d="M83.0219 19.628L73.4163 54.0813L103.046 62.3421C102.953 60.3191 103.183 58.2941 103.728 56.3437L86.5017 51.5409C86.9263 50.018 86.7285 48.3888 85.9519 47.0117C85.1752 45.6346 83.8833 44.6224 82.3604 44.1978L85.5623 32.7134C88.7492 33.6019 92.0169 31.759 92.9054 28.5721L121.616 36.5768C121.192 38.0997 121.39 39.7289 122.166 41.106C122.943 42.4831 124.235 43.4953 125.758 43.9199L125.71 44.0922C127.633 44.6285 129.461 45.5093 131.18 46.6693L134.702 34.0364L83.0219 19.628ZM106.46 35.4455C101.556 34.1709 96.8066 36.7766 95.4458 41.6574C94.085 46.5383 96.8248 51.1391 101.658 52.6721C102.749 52.9763 103.932 53.0588 105.115 52.9243C106.771 49.9822 108.895 47.3565 112.898 45.3165C113.619 41.4019 111.05 36.6321 106.46 35.4455ZM131.492 52.5425L117.259 60.642L114.479 55.628L109.294 58.5763L114.965 68.7592L134.383 57.7114L131.492 52.5425Z" fill="black"/>
<path d="M83.0219 19.628L73.4163 54.0813L103.046 62.3421C102.953 60.3191 103.183 58.2941 103.728 56.3437L86.5017 51.5409C86.9263 50.018 86.7285 48.3888 85.9519 47.0117C85.1752 45.6346 83.8833 44.6224 82.3604 44.1978L85.5623 32.7134C88.7492 33.6019 92.0169 31.759 92.9054 28.5721L121.616 36.5768C121.192 38.0997 121.39 39.7289 122.166 41.106C122.943 42.4831 124.235 43.4953 125.758 43.9199L125.71 44.0922C127.633 44.6285 129.461 45.5093 131.18 46.6693L134.702 34.0364L83.0219 19.628ZM106.46 35.4455C101.556 34.1709 96.8066 36.7766 95.4458 41.6574C94.085 46.5383 96.8248 51.1391 101.658 52.6721C102.749 52.9763 103.932 53.0588 105.115 52.9243C106.771 49.9822 108.895 47.3565 112.898 45.3165C113.619 41.4019 111.05 36.6321 106.46 35.4455ZM131.492 52.5425L117.259 60.642L114.479 55.628L109.294 58.5763L114.965 68.7592L134.383 57.7114L131.492 52.5425Z" fill="url(#paint1_linear_2_28)"/>
</g>
<defs>
<linearGradient id="paint0_linear_2_28" x1="77.2421" y1="60.5627" x2="17.7262" y2="86.4745" gradientUnits="userSpaceOnUse">
<stop stop-color="#BFA3DA"/>
<stop offset="0.416667" stop-color="#84309C"/>
<stop offset="1" stop-color="#C735B0"/>
</linearGradient>
<linearGradient id="paint1_linear_2_28" x1="126.495" y1="42.2761" x2="83.6788" y2="59.1091" gradientUnits="userSpaceOnUse">
<stop stop-color="#BFA3DA"/>
<stop offset="0.416667" stop-color="#84309C"/>
<stop offset="1" stop-color="#C735B0"/>
</linearGradient>
<clipPath id="clip0_2_28">
<rect width="71.5344" height="71.5344" fill="white" transform="translate(79.2114) rotate(15.5785)"/>
</clipPath>
</defs>
</svg>
