<svg width="86" height="86" viewBox="0 0 86 86" fill="none" xmlns="http://www.w3.org/2000/svg">
<path d="M75.2502 60.9167V28.6667H25.0835V60.9167H75.2502ZM75.2502 10.75C77.1509 10.75 78.9738 11.5051 80.3178 12.8491C81.6618 14.1931 82.4168 16.016 82.4168 17.9167V60.9167C82.4168 62.8174 81.6618 64.6403 80.3178 65.9843C78.9738 67.3283 77.1509 68.0834 75.2502 68.0834H25.0835C23.1828 68.0834 21.3599 67.3283 20.0159 65.9843C18.6719 64.6403 17.9168 62.8174 17.9168 60.9167V17.9167C17.9168 16.016 18.6719 14.1931 20.0159 12.8491C21.3599 11.5051 23.1828 10.75 25.0835 10.75H28.6668V3.58337H35.8335V10.75H64.5002V3.58337H71.6668V10.75H75.2502ZM10.7502 75.25H60.9168V82.4167H10.7502C8.84944 82.4167 7.02658 81.6617 5.68256 80.3176C4.33855 78.9736 3.5835 77.1508 3.5835 75.25V32.25H10.7502V75.25ZM68.0835 53.75H53.7502V39.4167H68.0835V53.75Z" fill="black"/>
<path d="M75.2502 60.9167V28.6667H25.0835V60.9167H75.2502ZM75.2502 10.75C77.1509 10.75 78.9738 11.5051 80.3178 12.8491C81.6618 14.1931 82.4168 16.016 82.4168 17.9167V60.9167C82.4168 62.8174 81.6618 64.6403 80.3178 65.9843C78.9738 67.3283 77.1509 68.0834 75.2502 68.0834H25.0835C23.1828 68.0834 21.3599 67.3283 20.0159 65.9843C18.6719 64.6403 17.9168 62.8174 17.9168 60.9167V17.9167C17.9168 16.016 18.6719 14.1931 20.0159 12.8491C21.3599 11.5051 23.1828 10.75 25.0835 10.75H28.6668V3.58337H35.8335V10.75H64.5002V3.58337H71.6668V10.75H75.2502ZM10.7502 75.25H60.9168V82.4167H10.7502C8.84944 82.4167 7.02658 81.6617 5.68256 80.3176C4.33855 78.9736 3.5835 77.1508 3.5835 75.25V32.25H10.7502V75.25ZM68.0835 53.75H53.7502V39.4167H68.0835V53.75Z" fill="url(#paint0_linear_180_392)"/>
<defs>
<linearGradient id="paint0_linear_180_392" x1="66.9104" y1="24.2155" x2="5.52894" y2="54.2801" gradientUnits="userSpaceOnUse">
<stop stop-color="#BFA3DA"/>
<stop offset="0.416667" stop-color="#84309C"/>
<stop offset="1" stop-color="#C735B0"/>
</linearGradient>
</defs>
</svg>
