<svg width="115" height="122" viewBox="0 0 115 122" fill="none" xmlns="http://www.w3.org/2000/svg">
<g clip-path="url(#clip0_2_17)">
<path d="M4.79167 102.833C3.43403 102.833 2.29521 102.373 1.37521 101.453C0.45521 100.533 -0.00319312 99.3961 1.32137e-06 98.0417C1.32137e-06 96.684 0.460001 95.5452 1.38 94.6252C2.3 93.7052 3.43722 93.2468 4.79167 93.25H9.58333V30.9583C9.58333 28.3229 10.5225 26.066 12.4008 24.1877C14.2792 22.3094 16.5344 21.3718 19.1667 21.375H95.8333C98.4687 21.375 100.726 22.3142 102.604 24.1925C104.482 26.0708 105.42 28.3261 105.417 30.9583V93.25H110.208C111.566 93.25 112.705 93.71 113.625 94.63C114.545 95.55 115.003 96.6872 115 98.0417C115 99.3993 114.54 100.538 113.62 101.458C112.7 102.378 111.563 102.837 110.208 102.833H4.79167ZM50.3125 93.25H64.6875C65.3264 93.25 65.8854 93.0104 66.3646 92.5313C66.8438 92.0521 67.0833 91.4931 67.0833 90.8542C67.0833 90.2153 66.8438 89.6562 66.3646 89.1771C65.8854 88.6979 65.3264 88.4583 64.6875 88.4583H50.3125C49.6736 88.4583 49.1146 88.6979 48.6354 89.1771C48.1562 89.6562 47.9167 90.2153 47.9167 90.8542C47.9167 91.4931 48.1562 92.0521 48.6354 92.5313C49.1146 93.0104 49.6736 93.25 50.3125 93.25Z" fill="black"/>
<path d="M4.79167 102.833C3.43403 102.833 2.29521 102.373 1.37521 101.453C0.45521 100.533 -0.00319312 99.3961 1.32137e-06 98.0417C1.32137e-06 96.684 0.460001 95.5452 1.38 94.6252C2.3 93.7052 3.43722 93.2468 4.79167 93.25H9.58333V30.9583C9.58333 28.3229 10.5225 26.066 12.4008 24.1877C14.2792 22.3094 16.5344 21.3718 19.1667 21.375H95.8333C98.4687 21.375 100.726 22.3142 102.604 24.1925C104.482 26.0708 105.42 28.3261 105.417 30.9583V93.25H110.208C111.566 93.25 112.705 93.71 113.625 94.63C114.545 95.55 115.003 96.6872 115 98.0417C115 99.3993 114.54 100.538 113.62 101.458C112.7 102.378 111.563 102.837 110.208 102.833H4.79167ZM50.3125 93.25H64.6875C65.3264 93.25 65.8854 93.0104 66.3646 92.5313C66.8438 92.0521 67.0833 91.4931 67.0833 90.8542C67.0833 90.2153 66.8438 89.6562 66.3646 89.1771C65.8854 88.6979 65.3264 88.4583 64.6875 88.4583H50.3125C49.6736 88.4583 49.1146 88.6979 48.6354 89.1771C48.1562 89.6562 47.9167 90.2153 47.9167 90.8542C47.9167 91.4931 48.1562 92.0521 48.6354 92.5313C49.1146 93.0104 49.6736 93.25 50.3125 93.25Z" fill="url(#paint0_linear_2_17)"/>
</g>
<path d="M80.3073 75.8802L56.3125 51.7083C55.1319 52.1806 53.9372 52.5347 52.7283 52.7708C51.5194 53.0069 50.235 53.125 48.875 53.125C42.9722 53.125 37.9549 51.059 33.8229 46.9271C29.691 42.7951 27.625 37.7778 27.625 31.875C27.625 29.75 27.9201 27.7289 28.5104 25.8117C29.1007 23.8944 29.9271 22.0787 30.9896 20.3646L43.9167 33.2917L50.2917 26.9167L37.3646 13.9896C39.0764 12.9271 40.8921 12.1007 42.8117 11.5104C44.7312 10.9201 46.7524 10.625 48.875 10.625C54.7778 10.625 59.7951 12.691 63.9271 16.8229C68.059 20.9549 70.125 25.9722 70.125 31.875C70.125 33.2326 70.0069 34.5171 69.7708 35.7283C69.5347 36.9396 69.1806 38.1343 68.7083 39.3125L92.8802 63.3073L80.3073 75.8802Z" fill="url(#paint1_linear_2_17)"/>
<defs>
<linearGradient id="paint0_linear_2_17" x1="92.3797" y1="42.6942" x2="17.27" y2="94.6311" gradientUnits="userSpaceOnUse">
<stop stop-color="#BFA3DA"/>
<stop offset="0.416667" stop-color="#84309C"/>
<stop offset="1" stop-color="#C735B0"/>
</linearGradient>
<linearGradient id="paint1_linear_2_17" x1="37.5" y1="14.5" x2="93" y2="83" gradientUnits="userSpaceOnUse">
<stop stop-color="white"/>
<stop offset="1" stop-color="#BFBFBF" stop-opacity="0"/>
</linearGradient>
<clipPath id="clip0_2_17">
<rect width="115" height="115" fill="white" transform="translate(0 7)"/>
</clipPath>
</defs>
</svg>
