<svg width="90" height="87" viewBox="0 0 90 87" fill="none" xmlns="http://www.w3.org/2000/svg">
<path d="M59.3408 17.0244H83.5356C85.2059 17.0244 86.56 18.3784 86.56 20.0487V44.2435C86.56 45.9138 85.2059 47.2678 83.5356 47.2678H59.3408C57.6705 47.2678 56.3165 45.9138 56.3165 44.2435V20.0487C56.3165 18.3784 57.6705 17.0244 59.3408 17.0244Z" fill="black"/>
<path d="M59.3408 17.0244H83.5356C85.2059 17.0244 86.56 18.3784 86.56 20.0487V44.2435C86.56 45.9138 85.2059 47.2678 83.5356 47.2678H59.3408C57.6705 47.2678 56.3165 45.9138 56.3165 44.2435V20.0487C56.3165 18.3784 57.6705 17.0244 59.3408 17.0244Z" fill="url(#paint0_linear_3_40)"/>
<path d="M59.3408 53.3165H83.5356C85.2059 53.3165 86.56 54.6705 86.56 56.3408V80.5356C86.56 82.2059 85.2059 83.5599 83.5356 83.5599H59.3408C57.6705 83.5599 56.3165 82.2059 56.3165 80.5356V56.3408C56.3165 54.6705 57.6705 53.3165 59.3408 53.3165Z" fill="black"/>
<path d="M59.3408 53.3165H83.5356C85.2059 53.3165 86.56 54.6705 86.56 56.3408V80.5356C86.56 82.2059 85.2059 83.5599 83.5356 83.5599H59.3408C57.6705 83.5599 56.3165 82.2059 56.3165 80.5356V56.3408C56.3165 54.6705 57.6705 53.3165 59.3408 53.3165Z" fill="url(#paint1_linear_3_40)"/>
<path d="M23.0487 53.3165H47.2435C48.9138 53.3165 50.2678 54.6705 50.2678 56.3408V80.5356C50.2678 82.2059 48.9138 83.5599 47.2435 83.5599H23.0487C21.3784 83.5599 20.0244 82.2059 20.0244 80.5356V56.3408C20.0244 54.6705 21.3784 53.3165 23.0487 53.3165Z" fill="black"/>
<path d="M23.0487 53.3165H47.2435C48.9138 53.3165 50.2678 54.6705 50.2678 56.3408V80.5356C50.2678 82.2059 48.9138 83.5599 47.2435 83.5599H23.0487C21.3784 83.5599 20.0244 82.2059 20.0244 80.5356V56.3408C20.0244 54.6705 21.3784 53.3165 23.0487 53.3165Z" fill="url(#paint2_linear_3_40)"/>
<path d="M1.95474 20.7688L17.5935 2.30765C18.6731 1.03317 20.5815 0.875213 21.856 1.95484L40.3172 17.5936C41.5917 18.6732 41.7496 20.5816 40.67 21.8561L25.0312 40.3173C23.9516 41.5918 22.0432 41.7497 20.7687 40.6701L2.30755 25.0313C1.03307 23.9517 0.875113 22.0433 1.95474 20.7688Z" fill="black"/>
<path d="M1.95474 20.7688L17.5935 2.30765C18.6731 1.03317 20.5815 0.875213 21.856 1.95484L40.3172 17.5936C41.5917 18.6732 41.7496 20.5816 40.67 21.8561L25.0312 40.3173C23.9516 41.5918 22.0432 41.7497 20.7687 40.6701L2.30755 25.0313C1.03307 23.9517 0.875113 22.0433 1.95474 20.7688Z" fill="url(#paint3_linear_3_40)"/>
<defs>
<linearGradient id="paint0_linear_3_40" x1="62.2654" y1="24.9396" x2="85.8136" y2="36.4736" gradientUnits="userSpaceOnUse">
<stop stop-color="#BFA3DA"/>
<stop offset="0.416667" stop-color="#84309C"/>
<stop offset="1" stop-color="#C735B0"/>
</linearGradient>
<linearGradient id="paint1_linear_3_40" x1="62.2654" y1="61.2317" x2="85.8136" y2="72.7657" gradientUnits="userSpaceOnUse">
<stop stop-color="#BFA3DA"/>
<stop offset="0.416667" stop-color="#84309C"/>
<stop offset="1" stop-color="#C735B0"/>
</linearGradient>
<linearGradient id="paint2_linear_3_40" x1="25.9732" y1="61.2317" x2="49.5215" y2="72.7657" gradientUnits="userSpaceOnUse">
<stop stop-color="#BFA3DA"/>
<stop offset="0.416667" stop-color="#84309C"/>
<stop offset="1" stop-color="#C735B0"/>
</linearGradient>
<linearGradient id="paint3_linear_3_40" x1="9.88461" y1="23.6536" x2="33.9061" y2="13.1408" gradientUnits="userSpaceOnUse">
<stop stop-color="#BFA3DA"/>
<stop offset="0.416667" stop-color="#84309C"/>
<stop offset="1" stop-color="#C735B0"/>
</linearGradient>
</defs>
</svg>
