<svg width="28" height="28" viewBox="0 0 28 28" fill="none" xmlns="http://www.w3.org/2000/svg">
<path fill-rule="evenodd" clip-rule="evenodd" d="M13.9998 3.50033C8.20085 3.50033 3.49984 8.20134 3.49984 14.0003C3.49984 19.7993 8.20085 24.5003 13.9998 24.5003C19.7988 24.5003 24.4998 19.7993 24.4998 14.0003C24.4998 8.20134 19.7988 3.50033 13.9998 3.50033ZM1.1665 14.0003C1.1665 6.91267 6.91218 1.16699 13.9998 1.16699C21.0875 1.16699 26.8332 6.91267 26.8332 14.0003C26.8332 21.088 21.0875 26.8337 13.9998 26.8337C6.91218 26.8337 1.1665 21.088 1.1665 14.0003Z" fill="url(#paint0_linear_470_20661)"/>
<path fill-rule="evenodd" clip-rule="evenodd" d="M14.8612 1.54683C14.6402 1.30485 14.3276 1.16699 13.9998 1.16699C13.6721 1.16699 13.3595 1.30485 13.1384 1.54683C10.2874 4.66807 8.5651 8.64155 8.22495 12.8336H2.33317C1.68884 12.8336 1.1665 13.356 1.1665 14.0003C1.1665 14.6446 1.68884 15.167 2.33317 15.167H8.22494C8.56508 19.359 10.2874 23.3326 13.1384 26.4538C13.3595 26.6958 13.6721 26.8337 13.9998 26.8337C14.3276 26.8337 14.6402 26.6958 14.8612 26.4538C17.7123 23.3326 19.4346 19.359 19.7747 15.167H25.6665C26.3108 15.167 26.8332 14.6446 26.8332 14.0003C26.8332 13.356 26.3108 12.8336 25.6665 12.8336H19.7747C19.4346 8.64155 17.7123 4.66807 14.8612 1.54683ZM17.4326 12.8336C17.1396 9.66827 15.9478 6.65257 13.9998 4.14292C12.0519 6.65257 10.8601 9.66827 10.567 12.8336H17.4326ZM10.567 15.167C10.8601 18.3323 12.0519 21.3481 13.9998 23.8577C15.9478 21.3481 17.1396 18.3323 17.4327 15.167H10.567Z" fill="url(#paint1_linear_470_20661)"/>
<defs>
<linearGradient id="paint0_linear_470_20661" x1="26.833" y1="-1.51492" x2="1.19336" y2="26.2439" gradientUnits="userSpaceOnUse">
<stop stop-color="#5E2AF0"/>
<stop offset="1" stop-color="#9786DF"/>
</linearGradient>
<linearGradient id="paint1_linear_470_20661" x1="26.833" y1="-1.51492" x2="1.19336" y2="26.2439" gradientUnits="userSpaceOnUse">
<stop stop-color="#5E2AF0"/>
<stop offset="1" stop-color="#9786DF"/>
</linearGradient>
</defs>
</svg>
