<svg fill="none" height="25" viewBox="0 0 24 25" width="24" xmlns="http://www.w3.org/2000/svg" xmlns:xlink="http://www.w3.org/1999/xlink"><linearGradient id="a" gradientUnits="userSpaceOnUse" x1="3" x2="18" y1="10.9516" y2="10.9516"><stop offset="0" stop-color="#e5a1f5"/><stop offset="1" stop-color="#e169ff"/></linearGradient><path clip-rule="evenodd" d="m16.5 12.9509c.3924 0 .7105.3181.7105.7105v.3079c.4536.0921.8758.2706 1.2487.5176l.3805-.3805c.2775-.2775.7273-.2775 1.0048 0s.2775.7273 0 1.0048l-.3805.3805c.247.3729.4255.7951.5175 1.2487h.308c.3924 0 .7105.3181.7105.7105s-.3181.7105-.7105.7105h-.308c-.092.4536-.2705.8758-.5175 1.2487l.3805.3805c.2775.2775.2775.7274 0 1.0048-.2775.2775-.7273.2775-1.0048 0l-.3805-.3805c-.3729.247-.7951.4255-1.2487.5175v.308c0 .3924-.3181.7105-.7105.7105s-.7105-.3181-.7105-.7105v-.308c-.4536-.092-.8758-.2705-1.2487-.5175l-.3805.3805c-.2775.2775-.7274.2775-1.0048 0-.2775-.2774-.2775-.7273 0-1.0048l.3805-.3805c-.247-.3729-.4255-.7951-.5176-1.2487h-.3079c-.3924 0-.7105-.3181-.7105-.7105s.3181-.7105.7105-.7105h.3079c.0921-.4536.2706-.8758.5176-1.2487l-.3805-.3805c-.2775-.2775-.2775-.7273 0-1.0048.2774-.2775.7273-.2775 1.0048 0l.3805.3805c.3729-.247.7951-.4255 1.2487-.5176v-.3079c0-.3924.3181-.7105.7105-.7105z" fill="#9c30b7" fill-rule="evenodd"/><path d="m5 18.4516c-1.10457 0-2-.8954-2-2v-10.99997c0-1.10457.89543-2 2-2h11c1.1046 0 2 .89543 2 2v10.99997c0 1.1046-.8954 2-2 2z" fill="url(#a)" fill-opacity=".8"/><g stroke="#fff" stroke-linecap="round" stroke-linejoin="round" stroke-width="1.5"><path d="m6.5 8.45163h8"/><path d="m8.5 7.45163v2"/><path d="m6.5 13.4516h8"/><path d="m12.5 12.4516v2"/></g></svg>