<svg width="24" height="24" viewBox="0 0 24 24" fill="none" xmlns="http://www.w3.org/2000/svg">
<path fill-rule="evenodd" clip-rule="evenodd" d="M14.5 3C13.6716 3 13 3.67157 13 4.5V9.5C13 10.3284 13.6716 11 14.5 11H19.5C20.3284 11 21 10.3284 21 9.5V4.5C21 3.67157 20.3284 3 19.5 3H14.5ZM3 14.5C3 13.6716 3.67157 13 4.5 13H9.5C10.3284 13 11 13.6716 11 14.5V19.5C11 20.3284 10.3284 21 9.5 21H4.5C3.67157 21 3 20.3284 3 19.5V14.5ZM13 14.5C13 13.6716 13.6716 13 14.5 13H19.5C20.3284 13 21 13.6716 21 14.5V19.5C21 20.3284 20.3284 21 19.5 21H14.5C13.6716 21 13 20.3284 13 19.5V14.5Z" fill="#9C30B7"/>
<path d="M4.5 11C3.67157 11 3 10.3284 3 9.5L3 4.5C3 3.67157 3.67157 3 4.5 3L9.5 3C10.3284 3 11 3.67157 11 4.5L11 9.5C11 10.3284 10.3284 11 9.5 11L4.5 11Z" fill="url(#paint0_linear_618_1297)" fill-opacity="0.8"/>
<defs>
<linearGradient id="paint0_linear_618_1297" x1="3" y1="7" x2="17.402" y2="14.1623" gradientUnits="userSpaceOnUse">
<stop stop-color="#E5A1F5"/>
<stop offset="1" stop-color="#E169FF"/>
</linearGradient>
</defs>
</svg>
