<svg width="20" height="20" viewBox="0 0 20 20" fill="none" xmlns="http://www.w3.org/2000/svg">
<g clip-path="url(#clip0_449_39)">
<path d="M16.6667 0H3.33333C1.49238 0 0 1.49238 0 3.33333V16.6667C0 18.5076 1.49238 20 3.33333 20H16.6667C18.5076 20 20 18.5076 20 16.6667V3.33333C20 1.49238 18.5076 0 16.6667 0Z" fill="#482EC4"/>
<path d="M3.46813 12.5519C3.32451 12.5519 3.20141 12.5014 3.09882 12.4004C2.99623 12.2994 2.94573 12.1763 2.9473 12.0311C2.94573 11.889 2.99623 11.7675 3.09882 11.6665C3.20141 11.5655 3.32451 11.515 3.46813 11.515C3.60703 11.515 3.72776 11.5655 3.83035 11.6665C3.93452 11.7675 3.98739 11.889 3.98897 12.0311C3.98739 12.1274 3.96213 12.2149 3.91321 12.2939C3.86586 12.3728 3.80273 12.4359 3.72382 12.4833C3.64648 12.529 3.56125 12.5519 3.46813 12.5519ZM8.76269 7.65137V12.4999H7.98147L5.6969 9.19727H5.65665V12.4999H4.77834V7.65137H5.56433L7.84652 10.9563H7.88913V7.65137H8.76269ZM9.58644 12.4999V7.65137H12.7399V8.3876H10.4647V9.70393H12.5764V10.4402H10.4647V11.7636H12.7588V12.4999H9.58644ZM13.2895 8.3876V7.65137H17.1579V8.3876H15.6593V12.4999H14.7881V8.3876H13.2895Z" fill="white"/>
</g>
<defs>
<clipPath id="clip0_449_39">
<rect width="20" height="20" fill="white"/>
</clipPath>
</defs>
</svg>
