<svg width="24" height="24" viewBox="0 0 24 24" fill="none" xmlns="http://www.w3.org/2000/svg">
<g filter="url(#filter0_b_618_1348)">
<path d="M2.47137 4.5C2.47137 3.67157 3.14294 3 3.97137 3H14.5771C15.4056 3 16.0771 3.67157 16.0771 4.5V19.5C16.0771 20.3284 15.4056 21 14.5771 21H3.97137C3.14294 21 2.47137 20.3284 2.47137 19.5V4.5Z" fill="url(#paint0_linear_618_1348)" fill-opacity="0.8"/>
</g>
<path d="M6.27422 7L12.2742 7.0001" stroke="white" stroke-width="1.5" stroke-linecap="round"/>
<path d="M6.27422 10L9.27422 10.0001" stroke="white" stroke-width="1.5" stroke-linecap="round"/>
<rect x="12.2742" y="21" width="9.01256" height="8.72577" rx="1.5" transform="rotate(-90 12.2742 21)" fill="#9C30B7"/>
<path d="M15.8803 14.2544L18.1197 16.4937L15.8803 18.733" stroke="white" stroke-width="1.5" stroke-linecap="round" stroke-linejoin="round"/>
<defs>
<filter id="filter0_b_618_1348" x="0.471367" y="1" width="17.6058" height="22" filterUnits="userSpaceOnUse" color-interpolation-filters="sRGB">
<feFlood flood-opacity="0" result="BackgroundImageFix"/>
<feGaussianBlur in="BackgroundImageFix" stdDeviation="1"/>
<feComposite in2="SourceAlpha" operator="in" result="effect1_backgroundBlur_618_1348"/>
<feBlend mode="normal" in="SourceGraphic" in2="effect1_backgroundBlur_618_1348" result="shape"/>
</filter>
<linearGradient id="paint0_linear_618_1348" x1="9.27425" y1="3" x2="9.27425" y2="21" gradientUnits="userSpaceOnUse">
<stop stop-color="#E5A1F5"/>
<stop offset="1" stop-color="#E169FF"/>
</linearGradient>
</defs>
</svg>
