<svg width="24" height="25" viewBox="0 0 24 25" fill="none" xmlns="http://www.w3.org/2000/svg">
<path d="M22.2926 12.68C22.2926 11.341 20.6091 10.072 18.0281 9.28513C18.6237 6.66486 18.359 4.58017 17.1925 3.91274C16.9237 3.75618 16.6093 3.68202 16.266 3.68202V4.60077C16.4563 4.60077 16.6093 4.63785 16.7376 4.70789C17.3001 5.02924 17.5441 6.25286 17.3539 7.82668C17.3084 8.21395 17.2339 8.62183 17.1429 9.03794C16.3322 8.84018 15.447 8.68774 14.5164 8.58887C13.958 7.82668 13.3789 7.13453 12.7957 6.5289C14.1441 5.28056 15.4098 4.59665 16.2702 4.59665V3.6779C15.1327 3.6779 13.6436 4.48541 12.138 5.88619C10.6324 4.49365 9.14335 3.69438 8.00588 3.69438V4.61313C8.86208 4.61313 10.1319 5.29292 11.4803 6.53302C10.9013 7.13865 10.3222 7.82668 9.77207 8.58887C8.83727 8.68774 7.9521 8.84018 7.14139 9.04206C7.04626 8.63006 6.97594 8.23043 6.92631 7.84728C6.7319 6.27346 6.97181 5.04984 7.5302 4.72437C7.65429 4.65021 7.81561 4.61725 8.00588 4.61725V3.6985C7.65843 3.6985 7.34407 3.77266 7.07108 3.92922C5.90878 4.59665 5.6482 6.67722 6.24796 9.28925C3.67519 10.0803 2 11.3451 2 12.68C2 14.0189 3.68346 15.2879 6.2645 16.0748C5.66888 18.6951 5.9336 20.7798 7.10003 21.4472C7.36889 21.6037 7.68325 21.6779 8.03069 21.6779C9.16817 21.6779 10.6572 20.8704 12.1628 19.4696C13.6684 20.8622 15.1575 21.6614 16.295 21.6614C16.6424 21.6614 16.9568 21.5873 17.2298 21.4307C18.3921 20.7633 18.6527 18.6827 18.0529 16.0707C20.6174 15.2838 22.2926 14.0148 22.2926 12.68ZM16.9071 9.93196C16.7541 10.4634 16.5638 11.0114 16.3487 11.5593C16.1792 11.2297 16.0013 10.9001 15.8069 10.5706C15.6166 10.241 15.4139 9.9196 15.2113 9.60649C15.7986 9.69301 16.3653 9.80013 16.9071 9.93196ZM15.0127 14.3197C14.6901 14.8759 14.3592 15.4032 14.0159 15.8935C13.3996 15.9471 12.775 15.9759 12.1463 15.9759C11.5217 15.9759 10.8971 15.9471 10.285 15.8976C9.94165 15.4074 9.60661 14.8841 9.28398 14.3321C8.96963 13.7923 8.68422 13.2444 8.42364 12.6923C8.68009 12.1402 8.96963 11.5882 9.27985 11.0485C9.60248 10.4923 9.93338 9.96492 10.2767 9.47465C10.893 9.42109 11.5176 9.39225 12.1463 9.39225C12.7709 9.39225 13.3954 9.42109 14.0076 9.47053C14.3509 9.9608 14.686 10.484 15.0086 11.0361C15.323 11.5758 15.6084 12.1238 15.8689 12.6758C15.6084 13.2279 15.3229 13.78 15.0127 14.3197ZM16.3487 13.7841C16.5721 14.3362 16.7624 14.8882 16.9196 15.4238C16.3777 15.5557 15.8069 15.6669 15.2154 15.7534C15.4181 15.4362 15.6208 15.1107 15.811 14.777C16.0013 14.4474 16.1792 14.1137 16.3487 13.7841ZM12.1546 18.1801C11.7699 17.7846 11.3852 17.3437 11.0047 16.8617C11.3769 16.8782 11.7575 16.8905 12.1422 16.8905C12.531 16.8905 12.9156 16.8823 13.292 16.8617C12.9198 17.3437 12.5351 17.7846 12.1546 18.1801ZM9.07717 15.7534C8.48982 15.6669 7.92315 15.5598 7.3813 15.428C7.53434 14.8965 7.72461 14.3485 7.93969 13.8006C8.10928 14.1302 8.28714 14.4598 8.48155 14.7894C8.67595 15.119 8.87449 15.4403 9.07717 15.7534ZM12.1339 7.17985C12.5186 7.57536 12.9032 8.01619 13.2838 8.49823C12.9115 8.48175 12.531 8.46939 12.1463 8.46939C11.7575 8.46939 11.3728 8.47763 10.9964 8.49823C11.3687 8.01619 11.7533 7.57536 12.1339 7.17985ZM9.07304 9.60649C8.87036 9.92372 8.66768 10.2492 8.47741 10.5829C8.28714 10.9125 8.10928 11.2421 7.93969 11.5717C7.71634 11.0196 7.52607 10.4676 7.36889 9.93196C7.91074 9.80425 8.48155 9.69301 9.07304 9.60649ZM5.3297 14.7646C3.86546 14.1425 2.91825 13.3268 2.91825 12.68C2.91825 12.0331 3.86546 11.2133 5.3297 10.5953C5.68542 10.4428 6.07423 10.3069 6.47545 10.1792C6.71122 10.9867 7.02144 11.8271 7.40611 12.6882C7.02558 13.5451 6.71949 14.3815 6.48786 15.1849C6.07837 15.0572 5.68956 14.9171 5.3297 14.7646ZM7.55502 20.652C6.99249 20.3307 6.74845 19.1071 6.93872 17.5332C6.98422 17.146 7.05867 16.7381 7.14967 16.322C7.96038 16.5197 8.84554 16.6722 9.7762 16.7711C10.3346 17.5332 10.9137 18.2254 11.4969 18.831C10.1485 20.0794 8.88277 20.7633 8.02242 20.7633C7.83629 20.7592 7.67911 20.7221 7.55502 20.652ZM17.3663 17.5126C17.5607 19.0865 17.3208 20.3101 16.7624 20.6356C16.6383 20.7097 16.477 20.7427 16.2867 20.7427C15.4305 20.7427 14.1607 20.0629 12.8122 18.8228C13.3913 18.2172 13.9704 17.5291 14.5205 16.7669C15.4553 16.6681 16.3405 16.5156 17.1512 16.3137C17.2463 16.7299 17.3208 17.1295 17.3663 17.5126ZM18.9587 14.7646C18.603 14.9171 18.2142 15.053 17.813 15.1808C17.5772 14.3733 17.267 13.5328 16.8823 12.6717C17.2629 11.8148 17.5689 10.9784 17.8006 10.175C18.2101 10.3028 18.5989 10.4428 18.9629 10.5953C20.4271 11.2174 21.3743 12.0331 21.3743 12.68C21.3702 13.3268 20.423 14.1467 18.9587 14.7646Z" fill="#61DAFB"/>
<path d="M12.1421 14.5628C13.1861 14.5628 14.0324 13.7198 14.0324 12.68C14.0324 11.6401 13.1861 10.7972 12.1421 10.7972C11.0981 10.7972 10.2518 11.6401 10.2518 12.68C10.2518 13.7198 11.0981 14.5628 12.1421 14.5628Z" fill="#61DAFB"/>
</svg>
