<svg xmlns="http://www.w3.org/2000/svg" width="594" height="44" fill="none" viewBox="0 0 594 44"><path fill="#F2FBFF" fill-rule="evenodd" d="M120.489 4.31055C118.305 4.31055 116.513 6.09065 116.513 8.36029C116.513 10.5854 118.305 12.3655 120.489 12.3655C122.674 12.3655 124.466 10.5854 124.466 8.36029C124.466 6.09065 122.674 4.31055 120.489 4.31055ZM123.985 14.4126H117.038V38.3995H123.985V14.4126ZM76.4904 5.20062H83.2629V14.4127H88.4624V20.821H83.2629V29.2765C83.2629 30.5226 84.2241 31.5017 85.4038 31.5017H88.4187V38.3106H85.4038C80.5102 38.3106 76.4904 34.2608 76.4904 29.232V20.7765H73.3445V14.3682H76.4904V5.20062ZM105.022 13.8786C101.876 13.8786 99.3856 15.2137 98.4244 17.3053V5.20062H91.4772V38.3551H98.4244V24.9153C98.4244 22.1116 100.216 20.1535 102.75 20.1535C105.328 20.1535 106.77 21.8446 106.77 24.6928V38.3996H113.717V23.8027C113.717 17.5724 110.571 13.8786 105.022 13.8786ZM133.903 14.3682V17.6613C134.952 15.2582 137.486 13.8786 140.675 13.8341C141.156 13.8341 141.768 13.8786 142.511 13.9676V20.643C141.811 20.5095 141.025 20.4205 140.195 20.4205C136.219 20.4205 133.903 22.6901 133.903 26.6509V38.3551H126.956V14.3682H133.903ZM162.042 17.5279C161.342 15.4362 158.59 13.9676 155.051 13.9676C151.73 13.9676 148.934 15.1692 146.705 17.5724C144.521 19.931 143.385 22.9127 143.385 26.3839C143.385 29.8551 144.521 32.7923 146.705 35.2399C148.934 37.5985 151.73 38.8001 155.051 38.8001C158.59 38.8001 161.342 37.3315 162.042 35.2399V38.3996H168.989V5.20062H162.042V17.5279ZM160.643 30.6561C159.464 31.8132 158.022 32.3472 156.318 32.3472C154.657 32.3472 153.216 31.7687 152.08 30.6561C150.9 29.4546 150.332 28.0305 150.332 26.3839C150.332 24.7373 150.9 23.3132 152.08 22.1561C153.259 20.9546 154.657 20.376 156.318 20.376C158.065 20.376 159.507 20.9546 160.643 22.1561C161.867 23.3132 162.478 24.7373 162.478 26.3839C162.478 28.0305 161.867 29.4546 160.643 30.6561ZM189.044 14.5016L195.335 25.8943L199.574 14.4126H206.39L196.69 39.7791L189.044 25.9833L181.397 39.7791L171.741 14.4126H178.557L182.752 25.8943L189.044 14.5016ZM217.837 13.834C214.254 13.834 211.239 14.9911 208.88 17.3052C206.564 19.5748 205.385 22.601 205.385 26.3392V26.5617C205.385 30.2999 206.564 33.3261 208.88 35.5958C211.283 37.8209 214.342 38.978 218.187 38.978C221.769 38.978 224.697 38.2659 226.925 36.7973V30.6115C224.741 32.1691 221.944 32.9256 218.58 32.9256C214.91 32.9256 212.507 31.101 212.375 28.2528H229.634C229.722 27.5408 229.765 26.7397 229.765 25.9387C229.765 22.512 228.629 19.6638 226.445 17.3497C224.26 14.9911 221.333 13.834 217.837 13.834ZM212.375 23.6691C212.419 22.5565 212.987 21.6219 214.036 20.8654C215.128 20.1089 216.352 19.7083 217.837 19.7083C220.59 19.7083 222.731 21.5329 222.731 23.6691H212.375ZM246.326 13.9676C249.646 13.9676 252.443 15.1692 254.627 17.5724C256.856 19.9755 257.992 22.8682 257.992 26.3394C257.992 29.8106 256.856 32.7477 254.627 35.1954C252.443 37.554 249.646 38.7556 246.326 38.7556C242.787 38.7556 240.034 37.287 239.335 35.1954V38.3551H232.388V5.20062H239.335V17.5278C240.034 15.4362 242.787 13.9676 246.326 13.9676ZM245.059 32.3472C246.719 32.3472 248.117 31.8132 249.297 30.6561C250.477 29.4546 251.045 28.0305 251.045 26.3839C251.045 24.7373 250.477 23.3132 249.297 22.1561C248.161 20.9545 246.719 20.376 245.059 20.376C243.355 20.376 241.913 20.9545 240.689 22.1561C239.51 23.3132 238.898 24.7373 238.898 26.3839C238.898 28.0305 239.51 29.4546 240.689 30.6561C241.869 31.7687 243.311 32.3472 245.059 32.3472Z" clip-rule="evenodd"/><g clip-path="url(#clip0_5288_7141)"><path fill="url(#paint0_linear_5288_7141)" fill-rule="evenodd" d="M0.164728 6.18261C-0.440778 4.64573 0.687666 2.98535 2.33905 2.98535H12.5914C13.5547 2.98535 14.4079 3.56168 14.7657 4.45362L22.9263 24.927C23.1465 25.4759 23.1465 26.0934 22.9263 26.656L17.7932 39.5137C17.0088 41.4759 14.229 41.4759 13.4446 39.5137L0.164728 6.18261ZM19.9682 6.114C19.4178 4.59084 20.5462 2.98535 22.1701 2.98535H31.1013C32.0921 2.98535 32.9729 3.60285 33.3031 4.52223L40.7206 24.9956C40.8995 25.5034 40.8995 26.066 40.7206 26.5874L36.2619 38.8962C35.5187 40.9545 32.6013 40.9545 31.8582 38.8962L19.9682 6.114ZM40.0185 2.98535C38.3671 2.98535 37.2387 4.64573 37.8442 6.18261L51.124 39.5137C51.9084 41.4759 54.6883 41.4759 55.4727 39.5137L60.6057 26.656C60.8259 26.0934 60.8259 25.4759 60.6057 24.927L52.4451 4.45362C52.0873 3.56168 51.2341 2.98535 50.2708 2.98535H40.0185Z" clip-rule="evenodd"/></g><path fill="#fff" fill-opacity=".6" d="M286.993 32.978C287.501 33.4866 288.119 33.7408 288.845 33.7408C289.563 33.7318 290.171 33.4775 290.671 32.978L297.999 25.6496L305.327 32.978C305.827 33.4775 306.431 33.7272 307.139 33.7272C307.866 33.7272 308.479 33.4775 308.978 32.978C309.487 32.4695 309.736 31.8565 309.727 31.1391C309.736 30.4217 309.491 29.8133 308.992 29.3138L301.663 21.9854L308.992 14.6569C309.491 14.1574 309.741 13.5535 309.741 12.8452C309.741 12.1187 309.487 11.5012 308.978 10.9927C308.479 10.4932 307.866 10.2435 307.139 10.2435C306.422 10.2344 305.813 10.4796 305.314 10.9791L297.985 18.3075L290.671 10.9927C290.171 10.4932 289.558 10.2435 288.832 10.2435C288.114 10.2344 287.501 10.4841 286.993 10.9927C286.493 11.4921 286.243 12.1051 286.243 12.8316C286.253 13.549 286.507 14.1574 287.006 14.6569L294.321 21.9717L286.993 29.3002C286.493 29.7996 286.243 30.4126 286.243 31.1391C286.243 31.8656 286.493 32.4786 286.993 32.978Z"/><path fill="#fff" d="M457.019 7.98554H438.939C438.16 7.97956 437.388 8.11869 436.666 8.39497C435.944 8.67126 435.287 9.07922 434.733 9.59559C434.178 10.1119 433.737 10.7264 433.435 11.404C433.133 12.0815 432.975 12.8087 432.971 13.5438V30.4269C432.975 31.162 433.133 31.8892 433.435 32.5668C433.737 33.2443 434.178 33.8588 434.733 34.3751C435.287 34.8915 435.944 35.2994 436.666 35.5757C437.388 35.852 438.16 35.9911 438.939 35.9852H457.019C457.796 35.9891 458.567 35.8485 459.287 35.5714C460.006 35.2942 460.662 34.8859 461.214 34.3697C461.767 33.8536 462.206 33.2397 462.508 32.5632C462.809 31.8867 462.967 31.1608 462.971 30.4269V13.5438C462.967 12.8099 462.809 12.084 462.508 11.4075C462.206 10.731 461.767 10.1171 461.214 9.60096C460.662 9.08482 460.006 8.67652 459.287 8.39933C458.567 8.12217 457.796 7.98156 457.019 7.98554ZM456.975 30.3852H438.983V13.5855H456.967L456.975 30.3852Z"/><path fill="#fff" d="M588.127 7.98543H570.814C570.051 7.98146 569.294 8.12207 568.588 8.39923C567.881 8.67643 567.238 9.08473 566.695 9.60088C566.153 10.117 565.721 10.7309 565.425 11.4074C565.129 12.0839 564.975 12.8099 564.971 13.5438V35.9854H570.873V26.787H588.068V35.9854H593.971V13.5438C593.967 12.8099 593.812 12.0839 593.516 11.4074C593.22 10.7309 592.789 10.117 592.246 9.60088C591.703 9.08473 591.06 8.67643 590.354 8.39923C589.647 8.12207 588.891 7.98146 588.127 7.98543ZM588.068 21.187H570.834V13.5854H588.068V21.187Z"/><path fill="url(#paint1_linear_5288_7141)" d="M382.746 32.946L375.647 40.4668C375.493 40.6302 375.308 40.7606 375.101 40.8497C374.894 40.939 374.671 40.9852 374.445 40.9854H340.795C340.635 40.9853 340.478 40.939 340.344 40.852C340.209 40.7652 340.104 40.6415 340.04 40.4961C339.975 40.3508 339.955 40.1901 339.982 40.0337C340.009 39.8774 340.081 39.7321 340.191 39.6158L347.281 32.095C347.435 31.9316 347.621 31.8013 347.827 31.712C348.034 31.6229 348.257 31.5767 348.483 31.5764H382.133C382.294 31.5731 382.454 31.6172 382.59 31.7032C382.727 31.7892 382.835 31.9132 382.901 32.0595C382.966 32.206 382.986 32.3683 382.959 32.526C382.931 32.6837 382.857 32.8299 382.746 32.946ZM375.647 17.7975C375.493 17.6349 375.307 17.5051 375.1 17.4159C374.894 17.3268 374.671 17.2802 374.445 17.279H340.795C340.635 17.2791 340.478 17.3254 340.344 17.4123C340.209 17.4992 340.104 17.6229 340.04 17.7683C339.975 17.9136 339.955 18.0743 339.982 18.2306C340.009 18.387 340.081 18.5323 340.191 18.6486L347.281 26.1734C347.435 26.336 347.621 26.4658 347.828 26.555C348.034 26.6441 348.257 26.6907 348.483 26.6919H382.133C382.293 26.691 382.449 26.6441 382.583 26.557C382.717 26.4698 382.822 26.346 382.885 26.2008C382.949 26.0556 382.969 25.8953 382.941 25.7393C382.915 25.5833 382.842 25.4384 382.734 25.3223L375.647 17.7975ZM340.795 12.3944H374.445C374.671 12.3942 374.894 12.348 375.101 12.2588C375.308 12.1696 375.493 12.0392 375.647 11.8759L382.746 4.3551C382.857 4.23893 382.931 4.09279 382.959 3.93505C382.986 3.77732 382.966 3.61504 382.901 3.46864C382.835 3.32224 382.727 3.19825 382.59 3.11229C382.454 3.02632 382.294 2.98222 382.133 2.98552H348.483C348.257 2.98576 348.034 3.03192 347.827 3.12114C347.621 3.21035 347.435 3.3407 347.281 3.50406L340.191 11.0248C340.081 11.1412 340.009 11.2865 339.982 11.4428C339.955 11.5992 339.975 11.7598 340.04 11.9052C340.104 12.0505 340.209 12.1742 340.344 12.2611C340.478 12.348 340.635 12.3943 340.795 12.3944Z"/><path fill="#fff" d="M422.213 19.1854H404.787V13.5854H426.742V7.98543H404.729C403.977 7.98146 403.231 8.12206 402.535 8.39923C401.839 8.67642 401.205 9.08473 400.67 9.60087C400.136 10.117 399.71 10.7309 399.419 11.4074C399.127 12.0839 398.975 12.8099 398.971 13.5438V19.2194C398.974 19.954 399.125 20.6807 399.416 21.3581C399.707 22.0355 400.132 22.6503 400.667 23.1672C401.202 23.6842 401.836 24.0932 402.533 24.3708C403.23 24.6485 403.976 24.7893 404.729 24.7853H422.178V30.3853H399.386V35.9853H422.213C422.965 35.9893 423.71 35.8486 424.406 35.5715C425.103 35.2943 425.736 34.886 426.271 34.3698C426.806 33.8537 427.231 33.2398 427.523 32.5633C427.814 31.8868 427.967 31.1608 427.971 30.4269V24.7513C427.968 24.0167 427.816 23.29 427.525 22.6126C427.234 21.9352 426.809 21.3204 426.274 20.8035C425.739 20.2866 425.105 19.8776 424.408 19.5999C423.712 19.3223 422.965 19.1814 422.213 19.1854Z"/><path fill="#fff" d="M519.096 7.98577H501.806C501.044 7.98179 500.288 8.1224 499.583 8.39955C498.877 8.67675 498.235 9.08505 497.693 9.60119C497.151 10.1173 496.72 10.7312 496.425 11.4077C496.129 12.0842 495.975 12.8102 495.971 13.5441V35.9854H501.865V26.7871H519.076V35.9854H524.971V13.5441C524.967 12.807 524.811 12.0779 524.513 11.3989C524.215 10.7199 523.781 10.1044 523.235 9.58768C522.689 9.07105 522.042 8.66354 521.332 8.38862C520.621 8.11369 519.862 7.9768 519.096 7.98577ZM519.053 21.1872H501.841V13.5857H519.053V21.1872Z"/><path fill="#fff" d="M472.981 7.98535H466.971V30.4268C466.975 31.1623 467.133 31.8898 467.435 32.5676C467.738 33.2454 468.179 33.86 468.734 34.3764C469.288 34.8928 469.946 35.3007 470.667 35.5768C471.389 35.8529 472.162 35.9916 472.941 35.9851H490.971V30.3852H472.981V7.98535Z"/><path fill="#fff" d="M553.147 30.3854H550.823L542.512 10.3313C542.227 9.63948 541.737 9.04652 541.105 8.62857C540.473 8.21057 539.727 7.98661 538.963 7.9854H533.806C533.305 7.9829 532.808 8.07685 532.345 8.26184C531.88 8.44687 531.458 8.7193 531.102 9.06363C530.746 9.40799 530.463 9.81743 530.269 10.2687C530.075 10.7199 529.973 11.2041 529.971 11.6935V35.9854H535.782V13.5854H538.107L546.414 33.6394C546.703 34.33 547.197 34.9205 547.832 35.3356C548.467 35.7508 549.214 35.9717 549.978 35.9702H555.135C555.636 35.9727 556.133 35.8788 556.597 35.6938C557.061 35.5088 557.483 35.2363 557.839 34.892C558.195 34.5477 558.479 34.1382 558.673 33.687C558.867 33.2357 558.968 32.7516 558.971 32.2621V7.9854H553.147V30.3854Z"/><defs><linearGradient id="paint0_linear_5288_7141" x1="30.426" x2="72.728" y1="-5.987" y2="50.612" gradientUnits="userSpaceOnUse"><stop stop-color="#F213A4"/><stop offset="1" stop-color="#5204BF"/></linearGradient><linearGradient id="paint1_linear_5288_7141" x1="343.6" x2="378.412" y1="41.892" y2="2.172" gradientUnits="userSpaceOnUse"><stop offset=".08" stop-color="#9945FF"/><stop offset=".3" stop-color="#8752F3"/><stop offset=".5" stop-color="#5497D5"/><stop offset=".6" stop-color="#43B4CA"/><stop offset=".72" stop-color="#28E0B9"/><stop offset=".97" stop-color="#19FB9B"/></linearGradient><clipPath id="clip0_5288_7141"><rect width="60.754" height="38" fill="#fff" transform="translate(0 2.98535)"/></clipPath></defs></svg>