<svg width="25" height="24" viewBox="0 0 25 24" fill="none" xmlns="http://www.w3.org/2000/svg">
<g clip-path="url(#clip0_344_9916)">
<g clip-path="url(#clip1_344_9916)">
<path d="M14.0553 6.90002H5.13867V8.4286H14.0553V6.90002Z" fill="#F3322C"/>
<path d="M24.4587 6.90002H15.542V8.4286H24.4587V6.90002Z" fill="#F3322C"/>
<path d="M6.62478 8.42859H5.13867V9.95716H6.62478V8.42859Z" fill="#F3322C"/>
<path d="M9.59722 8.42859H6.625V9.95716H9.59722V8.42859Z" fill="white"/>
<path d="M12.5699 8.42859H9.59766V9.95716H12.5699V8.42859Z" fill="black"/>
<path d="M14.0554 8.42859H12.5693V9.95716H14.0554V8.42859Z" fill="#F3322C"/>
<path d="M17.0281 8.42859H15.542V9.95716H17.0281V8.42859Z" fill="#F3322C"/>
<path d="M19.9996 8.42859H17.0273V9.95716H19.9996V8.42859Z" fill="white"/>
<path d="M22.9722 8.42859H20V9.95716H22.9722V8.42859Z" fill="black"/>
<path d="M24.4588 8.42859H22.9727V9.95716H24.4588V8.42859Z" fill="#F3322C"/>
<path d="M6.62511 9.95715H0.680664V11.4857H6.62511V9.95715Z" fill="#F3322C"/>
<path d="M9.59722 9.95715H6.625V11.4857H9.59722V9.95715Z" fill="white"/>
<path d="M12.5699 9.95715H9.59766V11.4857H12.5699V9.95715Z" fill="black"/>
<path d="M17.0277 9.95715H12.5693V11.4857H17.0277V9.95715Z" fill="#F3322C"/>
<path d="M19.9996 9.95728H17.0273V11.4858H19.9996V9.95728Z" fill="white"/>
<path d="M22.9722 9.95715H20V11.4857H22.9722V9.95715Z" fill="black"/>
<path d="M24.4588 9.95728H22.9727V11.4858H24.4588V9.95728Z" fill="#F3322C"/>
<path d="M2.16677 11.4857H0.680664V13.0143H2.16677V11.4857Z" fill="#F3322C"/>
<path d="M6.62478 11.4857H5.13867V13.0143H6.62478V11.4857Z" fill="#F3322C"/>
<path d="M9.59722 11.4857H6.625V13.0143H9.59722V11.4857Z" fill="white"/>
<path d="M12.5699 11.4857H9.59766V13.0143H12.5699V11.4857Z" fill="black"/>
<path d="M14.0554 11.4857H12.5693V13.0143H14.0554V11.4857Z" fill="#F3322C"/>
<path d="M17.0281 11.4857H15.542V13.0143H17.0281V11.4857Z" fill="#F3322C"/>
<path d="M19.9996 11.4857H17.0273V13.0143H19.9996V11.4857Z" fill="white"/>
<path d="M22.9722 11.4857H20V13.0143H22.9722V11.4857Z" fill="black"/>
<path d="M24.4588 11.4857H22.9727V13.0143H24.4588V11.4857Z" fill="#F3322C"/>
<path d="M2.16677 13.0143H0.680664V14.5429H2.16677V13.0143Z" fill="#F3322C"/>
<path d="M6.62478 13.0143H5.13867V14.5429H6.62478V13.0143Z" fill="#F3322C"/>
<path d="M9.59722 13.0143H6.625V14.5429H9.59722V13.0143Z" fill="white"/>
<path d="M12.5699 13.0143H9.59766V14.5429H12.5699V13.0143Z" fill="black"/>
<path d="M14.0554 13.0143H12.5693V14.5429H14.0554V13.0143Z" fill="#F3322C"/>
<path d="M17.0281 13.0143H15.542V14.5429H17.0281V13.0143Z" fill="#F3322C"/>
<path d="M19.9996 13.0143H17.0273V14.5429H19.9996V13.0143Z" fill="white"/>
<path d="M22.9722 13.0143H20V14.5429H22.9722V13.0143Z" fill="black"/>
<path d="M24.4588 13.0143H22.9727V14.5429H24.4588V13.0143Z" fill="#F3322C"/>
<path d="M14.0553 14.5428H5.13867V16.0714H14.0553V14.5428Z" fill="#F3322C"/>
<path d="M24.4587 14.5428H15.542V16.0714H24.4587V14.5428Z" fill="#F3322C"/>
</g>
</g>
<defs>
<clipPath id="clip0_344_9916">
<rect width="24" height="24" fill="white" transform="translate(0.5)"/>
</clipPath>
<clipPath id="clip1_344_9916">
<rect width="24" height="9.14286" fill="white" transform="translate(0.5 7)"/>
</clipPath>
</defs>
</svg>
