<svg width="42" height="42" viewBox="0 0 42 42" fill="none" xmlns="http://www.w3.org/2000/svg">
<rect width="41.0508" height="41.0508" rx="8" fill="url(#paint0_linear_392_10951)"/>
<path fill-rule="evenodd" clip-rule="evenodd" d="M12.042 19.2864C17.0934 15.7598 19.5715 9.37386 20.5239 6.03784L20.5243 35.0131C20.0052 30.1321 18.2414 26.411 16.3579 23.7572C17.3175 22.9554 18.087 22.1901 18.5165 21.7146C18.7521 21.4538 18.7316 21.0513 18.4707 20.8158C18.2099 20.5802 17.8075 20.6007 17.5719 20.8615C17.1736 21.3025 16.4659 22.0043 15.5906 22.7396C14.263 21.0816 12.9512 19.9411 12.042 19.2864ZM25.6123 22.5491C26.8867 20.9939 28.1326 19.9157 29.0066 19.2864C23.9552 15.7598 21.477 9.37386 20.5247 6.03784L20.5243 35.0131C21.0564 30.0088 22.897 26.2237 24.8336 23.5581C23.9837 22.8301 23.3041 22.1506 22.9104 21.7146C22.6748 21.4538 22.6953 21.0513 22.9561 20.8158C23.217 20.5802 23.6194 20.6007 23.855 20.8615C24.2187 21.2643 24.8405 21.8844 25.6123 22.5491Z" fill="white"/>
<path fill-rule="evenodd" clip-rule="evenodd" d="M17.4289 30.5566C13.1437 29.2355 10.0296 25.2441 10.0296 20.5253C10.0296 16.0198 12.8686 12.1774 16.8553 10.6893C17.5559 9.42687 18.1579 8.17017 18.6709 6.97252C11.9941 7.87742 6.84766 13.6004 6.84766 20.5253C6.84766 27.5251 12.106 33.2968 18.888 34.1058C18.4538 32.839 17.9608 31.6565 17.4289 30.5566ZM20.5243 31.0208L20.5244 34.2027C20.5244 34.2027 20.5245 34.2027 20.5246 34.2027L20.5246 31.0208C20.5245 31.0208 20.5244 31.0208 20.5243 31.0208ZM23.6198 30.5571C27.9058 29.2364 31.0205 25.2446 31.0205 20.5253C31.0205 16.0192 28.1808 12.1764 24.1933 10.6887C23.4928 9.42642 22.8908 8.16986 22.3779 6.97234C29.0554 7.87666 34.2025 13.5999 34.2025 20.5253C34.2025 27.5256 28.9435 33.2976 22.1609 34.1059C22.595 32.8393 23.0879 31.6569 23.6198 30.5571ZM20.5249 6.8479L20.5249 10.0299C20.5246 10.0299 20.5243 10.0299 20.524 10.0299L20.524 6.8479C20.5243 6.8479 20.5246 6.8479 20.5249 6.8479Z" fill="white"/>
<defs>
<linearGradient id="paint0_linear_392_10951" x1="20.5254" y1="0" x2="20.5254" y2="41.0508" gradientUnits="userSpaceOnUse">
<stop stop-color="#187B76"/>
<stop offset="1" stop-color="#072928"/>
</linearGradient>
</defs>
</svg>
