<svg width="161" height="54" viewBox="0 0 161 54" fill="none" xmlns="http://www.w3.org/2000/svg">
<path d="M152.3 53.3H6.7C3 53.3 0 50.3 0 46.6V6.6C0 3 3 0 6.7 0H152.4C156.1 0 159.1 3 159.1 6.7V46.7C159 50.3 156 53.3 152.3 53.3Z" fill="#100F0D"/>
<path d="M153.3 0H6.7C3 0 0 3 0 6.7V46.7C0 50.4 3 53.4 6.7 53.4H153.4C157.1 53.4 160.1 50.4 160.1 46.7V6.7C160 3 157 0 153.3 0ZM153.3 1.1C156.4 1.1 158.9 3.6 158.9 6.7V46.7C158.9 49.8 156.4 52.3 153.3 52.3H6.7C3.6 52.3 1.1 49.8 1.1 46.7V6.7C1.1 3.6 3.6 1.1 6.7 1.1H153.3Z" fill="#A2A2A1"/>
<path d="M32.5439 26.7677C32.5583 25.6555 32.8537 24.565 33.4027 23.5977C33.9517 22.6304 34.7365 21.8176 35.684 21.2351C35.0821 20.3754 34.288 19.6679 33.3648 19.1688C32.4416 18.6697 31.4147 18.3928 30.3658 18.3599C28.1281 18.125 25.9589 19.6988 24.8185 19.6988C23.6563 19.6988 21.9007 18.3832 20.0103 18.4221C18.7875 18.4616 17.5957 18.8172 16.5512 19.4542C15.5066 20.0912 14.6449 20.9879 14.0499 22.057C11.4729 26.5189 13.3951 33.0762 15.8639 36.6828C17.099 38.4489 18.5424 40.4216 20.4312 40.3516C22.2794 40.275 22.9697 39.173 25.2008 39.173C27.4112 39.173 28.0588 40.3516 29.9859 40.3071C31.9692 40.275 33.2187 38.5333 34.4105 36.7505C35.2979 35.4921 35.9808 34.1014 36.4338 32.6297C35.2816 32.1424 34.2983 31.3266 33.6066 30.2842C32.9148 29.2417 32.5453 28.0188 32.5439 26.7677ZM28.904 15.9879C29.9854 14.6898 30.5181 13.0212 30.3891 11.3366C28.737 11.5101 27.2109 12.2997 26.1149 13.5481C25.5791 14.1579 25.1687 14.8674 24.9072 15.636C24.6457 16.4045 24.5382 17.2171 24.5909 18.0272C25.4173 18.0357 26.2348 17.8566 26.9819 17.5034C27.729 17.1501 28.3862 16.632 28.904 15.9879ZM55.9075 35.8808H49.6001L48.0855 40.3532H45.4138L51.3881 23.806H54.1637L60.1379 40.3532H57.4208L55.9075 35.8808ZM50.2533 33.8168H55.2529L52.7883 26.5584H52.7193L50.2533 33.8168ZM73.0402 34.3219C73.0402 38.0708 71.0335 40.4794 68.0055 40.4794C67.2384 40.5196 66.4755 40.3429 65.8042 39.9696C65.1329 39.5963 64.5802 39.0415 64.2096 38.3687H64.1523V44.3442H61.6759V28.289H64.073V30.2957H64.1186C64.5063 29.6261 65.0682 29.0742 65.7446 28.6986C66.4211 28.3231 67.1867 28.1379 67.9599 28.1628C71.0218 28.1628 73.0402 30.5834 73.0402 34.3219ZM70.4948 34.3219C70.4948 31.8794 69.2326 30.2735 67.3067 30.2735C65.4146 30.2735 64.142 31.9131 64.142 34.3217C64.142 36.7526 65.4146 38.3806 67.3067 38.3806C69.2326 38.3806 70.4948 36.7866 70.4948 34.3219ZM86.3184 34.3219C86.3184 38.0708 84.3119 40.4794 81.2838 40.4794C80.5167 40.5195 79.7539 40.3428 79.0825 39.9695C78.4112 39.5963 77.8586 39.0415 77.488 38.3687H77.4307V44.3442H74.9543V28.289H77.3513V30.2957H77.3968C77.7845 29.6261 78.3465 29.0742 79.0229 28.6986C79.6993 28.3231 80.4649 28.1379 81.2382 28.1628C84.3002 28.1628 86.3184 30.5834 86.3184 34.3219ZM83.7732 34.3219C83.7732 31.8794 82.5109 30.2735 80.585 30.2735C78.6928 30.2735 77.4203 31.9131 77.4203 34.3217C77.4203 36.7526 78.6928 38.3806 80.585 38.3806C82.5109 38.3806 83.7732 36.7866 83.7732 34.3219ZM95.0944 35.7429C95.2779 37.3837 96.8719 38.4612 99.0502 38.4612C101.137 38.4612 102.639 37.3837 102.639 35.9041C102.639 34.6197 101.734 33.8507 99.5891 33.3237L97.4444 32.8071C94.406 32.0731 92.9954 30.6521 92.9954 28.3462C92.9954 25.4911 95.4835 23.5302 99.0164 23.5302C102.513 23.5302 104.91 25.4911 104.991 28.3462H102.491C102.341 26.6949 100.976 25.6981 98.9812 25.6981C96.9864 25.6981 95.6214 26.7067 95.6214 28.1744C95.6214 29.3444 96.4933 30.0328 98.6259 30.5596L100.449 31.0074C103.844 31.8102 105.255 33.174 105.255 35.5943C105.255 38.6901 102.789 40.6291 98.8667 40.6291C95.197 40.6291 92.7194 38.7356 92.5594 35.7427L95.0944 35.7429ZM110.599 25.4341V28.289H112.893V30.2501H110.599V36.9009C110.599 37.9342 111.058 38.4156 112.067 38.4156C112.339 38.4109 112.611 38.3917 112.882 38.3583V40.3078C112.428 40.3924 111.967 40.4308 111.506 40.4221C109.064 40.4221 108.111 39.5048 108.111 37.165V30.2501H106.357V28.289H108.111V25.4341H110.599ZM114.222 34.3219C114.222 30.5259 116.458 28.1407 119.944 28.1407C123.442 28.1407 125.667 30.5259 125.667 34.3219C125.667 38.1281 123.453 40.5029 119.944 40.5029C116.435 40.5029 114.222 38.1281 114.222 34.3219ZM123.144 34.3219C123.144 31.718 121.95 30.1811 119.944 30.1811C117.937 30.1811 116.745 31.7296 116.745 34.3219C116.745 36.9361 117.937 38.4612 119.944 38.4612C121.95 38.4612 123.144 36.9361 123.144 34.3219ZM127.708 28.289H130.07V30.3424H130.128C130.287 29.7011 130.663 29.1343 131.192 28.7374C131.72 28.3405 132.369 28.1376 133.03 28.1628C133.315 28.1618 133.599 28.1928 133.878 28.2552V30.5715C133.518 30.4614 133.142 30.4109 132.765 30.4219C132.406 30.4073 132.047 30.4707 131.714 30.6078C131.381 30.7449 131.082 30.9524 130.837 31.2161C130.591 31.4798 130.406 31.7934 130.294 32.1354C130.181 32.4774 130.144 32.8398 130.185 33.1975V40.3532H127.708V28.289ZM145.295 36.8098C144.962 38.9999 142.829 40.5029 140.101 40.5029C136.591 40.5029 134.413 38.1515 134.413 34.379C134.413 30.5949 136.603 28.1407 139.996 28.1407C143.334 28.1407 145.433 30.4336 145.433 34.0915V34.9399H136.912V35.0895C136.873 35.5335 136.929 35.9808 137.076 36.4017C137.222 36.8225 137.457 37.2073 137.764 37.5305C138.071 37.8538 138.443 38.108 138.856 38.2763C139.269 38.4446 139.712 38.5231 140.158 38.5068C140.743 38.5616 141.33 38.4261 141.832 38.1203C142.334 37.8146 142.724 37.3549 142.944 36.8098H145.295ZM136.924 33.2092H142.956C142.978 32.81 142.917 32.4105 142.778 32.0358C142.638 31.661 142.423 31.3192 142.145 31.0317C141.867 30.7441 141.533 30.5172 141.163 30.365C140.793 30.2128 140.396 30.1386 139.996 30.1472C139.593 30.1448 139.193 30.2223 138.82 30.3752C138.447 30.5281 138.108 30.7534 137.822 31.0381C137.537 31.3228 137.31 31.6612 137.156 32.0338C137.002 32.4065 136.923 32.8059 136.924 33.2092ZM49.943 11.3509C50.4622 11.3136 50.9831 11.392 51.4683 11.5805C51.9535 11.769 52.3908 12.0628 52.7487 12.4407C53.1066 12.8187 53.3762 13.2713 53.5379 13.7661C53.6997 14.2608 53.7496 14.7853 53.6842 15.3017C53.6842 17.8417 52.3113 19.3019 49.943 19.3019H47.071V11.3507L49.943 11.3509ZM48.306 18.1774H49.8051C50.176 18.1995 50.5473 18.1387 50.8918 17.9993C51.2363 17.8599 51.5454 17.6454 51.7965 17.3715C52.0477 17.0976 52.2346 16.7711 52.3437 16.4158C52.4527 16.0606 52.4812 15.6854 52.4271 15.3178C52.4773 14.9516 52.4459 14.5788 52.3352 14.2261C52.2244 13.8734 52.0371 13.5496 51.7865 13.2779C51.5359 13.0062 51.2283 12.7932 50.8857 12.6543C50.5432 12.5154 50.1742 12.454 49.8051 12.4745H48.306V18.1774ZM55.0792 16.299C55.0414 15.9047 55.0865 15.5069 55.2116 15.131C55.3366 14.7552 55.5388 14.4096 55.8053 14.1164C56.0717 13.8233 56.3964 13.5891 56.7587 13.4288C57.1209 13.2685 57.5127 13.1858 57.9088 13.1858C58.3049 13.1858 58.6966 13.2685 59.0589 13.4288C59.4211 13.5891 59.7459 13.8233 60.0123 14.1164C60.2787 14.4096 60.4809 14.7552 60.606 15.131C60.731 15.5069 60.7761 15.9047 60.7384 16.299C60.7769 16.6938 60.7324 17.0923 60.6078 17.4689C60.4831 17.8454 60.281 18.1917 60.0145 18.4855C59.748 18.7793 59.423 19.0141 59.0604 19.1747C58.6977 19.3354 58.3054 19.4184 57.9088 19.4184C57.5121 19.4184 57.1199 19.3354 56.7572 19.1747C56.3945 19.0141 56.0695 18.7793 55.803 18.4855C55.5365 18.1917 55.3344 17.8454 55.2098 17.4689C55.0851 17.0923 55.0406 16.6938 55.0792 16.299ZM59.5205 16.299C59.5205 14.9984 58.9361 14.2378 57.9108 14.2378C56.8814 14.2378 56.3024 14.9984 56.3024 16.299C56.3024 17.6101 56.8815 18.3648 57.9108 18.3648C58.9361 18.3648 59.5205 17.6049 59.5205 16.299ZM68.2612 19.3017H67.0326L65.7926 14.8826H65.6989L64.4641 19.3017H63.2474L61.5935 13.3014H62.7944L63.8694 17.8799H63.9579L65.1915 13.3014H66.3275L67.5611 17.8799H67.6548L68.7244 13.3014H69.9086L68.2612 19.3017ZM71.2996 13.3015H72.4396V14.2547H72.5281C72.6782 13.9123 72.9314 13.6253 73.2524 13.4337C73.5733 13.242 73.9461 13.1553 74.3187 13.1856C74.6107 13.1637 74.9038 13.2077 75.1764 13.3144C75.4491 13.4212 75.6942 13.5879 75.8936 13.8022C76.0931 14.0165 76.2418 14.273 76.3287 14.5526C76.4155 14.8321 76.4384 15.1277 76.3956 15.4173V19.3016H75.2114V15.7147C75.2114 14.7505 74.7923 14.271 73.9166 14.271C73.7183 14.2617 73.5205 14.2955 73.3365 14.3699C73.1526 14.4443 72.9869 14.5576 72.8508 14.702C72.7147 14.8464 72.6115 15.0185 72.5481 15.2066C72.4848 15.3946 72.4629 15.5942 72.4838 15.7915V19.3017H71.2996V13.3015ZM78.2824 10.9591H79.4665V19.3017H78.2824V10.9591ZM81.1127 16.299C81.0749 15.9047 81.1201 15.5068 81.2451 15.1309C81.3702 14.7549 81.5724 14.4093 81.8389 14.1161C82.1053 13.823 82.4301 13.5887 82.7924 13.4284C83.1547 13.2681 83.5465 13.1853 83.9427 13.1853C84.3388 13.1853 84.7306 13.2681 85.0929 13.4284C85.4552 13.5887 85.78 13.823 86.0465 14.1161C86.3129 14.4093 86.5152 14.7549 86.6403 15.1309C86.7653 15.5068 86.8104 15.9047 86.7727 16.299C86.811 16.6938 86.7664 17.0921 86.6416 17.4686C86.5168 17.845 86.3147 18.1912 86.0482 18.4848C85.7817 18.7785 85.4567 19.0132 85.094 19.1738C84.7314 19.3344 84.3393 19.4173 83.9427 19.4173C83.5461 19.4173 83.1539 19.3344 82.7913 19.1738C82.4287 19.0132 82.1037 18.7785 81.8372 18.4848C81.5707 18.1912 81.3685 17.845 81.2437 17.4686C81.119 17.0921 81.0743 16.6938 81.1127 16.299ZM85.554 16.299C85.554 14.9984 84.9696 14.2378 83.9443 14.2378C82.9149 14.2378 82.3359 14.9984 82.3359 16.299C82.3359 17.6101 82.915 18.3648 83.9443 18.3648C84.9696 18.3648 85.554 17.6049 85.554 16.299ZM88.0192 17.6049C88.0192 16.5248 88.8234 15.9021 90.2509 15.8136L91.8762 15.7199V15.202C91.8762 14.5682 91.4573 14.2105 90.6479 14.2105C89.9868 14.2105 89.5287 14.4531 89.3973 14.8774H88.2508C88.3718 13.8467 89.3414 13.1858 90.7025 13.1858C92.2068 13.1858 93.0552 13.9346 93.0552 15.202V19.3017H91.9153V18.4585H91.8216C91.6314 18.761 91.3644 19.0076 91.0478 19.1731C90.7311 19.3386 90.3763 19.4171 90.0194 19.4006C89.7675 19.4268 89.5129 19.3999 89.272 19.3217C89.0312 19.2435 88.8094 19.1157 88.6209 18.9465C88.4325 18.7773 88.2816 18.5705 88.1779 18.3394C88.0743 18.1084 88.0203 17.8582 88.0192 17.6049ZM91.8762 17.0922V16.5905L90.411 16.6841C89.5847 16.7394 89.2099 17.0206 89.2099 17.5495C89.2099 18.0895 89.6784 18.4039 90.3225 18.4039C90.5113 18.423 90.7019 18.4039 90.8832 18.3479C91.0644 18.2918 91.2325 18.1998 91.3774 18.0774C91.5224 17.955 91.6413 17.8047 91.727 17.6355C91.8126 17.4662 91.8634 17.2814 91.8762 17.0922ZM94.6116 16.299C94.6116 14.403 95.5862 13.202 97.1022 13.202C97.4772 13.1847 97.8494 13.2745 98.1752 13.4609C98.5011 13.6474 98.7671 13.9227 98.9423 14.2547H99.0308V10.959H100.215V19.3016H99.0802V18.3535H98.9865C98.7979 18.6833 98.5225 18.9552 98.1904 19.1397C97.8583 19.3243 97.482 19.4145 97.1023 19.4005C95.5758 19.4005 94.6116 18.1995 94.6116 16.299ZM95.8348 16.299C95.8348 17.5716 96.4348 18.3375 97.4379 18.3375C98.4359 18.3375 99.0529 17.5607 99.0529 16.3041C99.0529 15.0537 98.4295 14.2658 97.4379 14.2658C96.4411 14.2658 95.8348 15.0368 95.8348 16.299ZM105.114 16.299C105.077 15.9047 105.122 15.5069 105.247 15.131C105.372 14.7552 105.574 14.4096 105.84 14.1164C106.107 13.8233 106.431 13.5891 106.794 13.4288C107.156 13.2685 107.548 13.1858 107.944 13.1858C108.34 13.1858 108.732 13.2685 109.094 13.4288C109.456 13.5891 109.781 13.8233 110.047 14.1164C110.314 14.4096 110.516 14.7552 110.641 15.131C110.766 15.5069 110.811 15.9047 110.773 16.299C110.812 16.6938 110.767 17.0923 110.643 17.4689C110.518 17.8454 110.316 18.1917 110.05 18.4855C109.783 18.7793 109.458 19.0141 109.095 19.1747C108.733 19.3354 108.34 19.4184 107.944 19.4184C107.547 19.4184 107.155 19.3354 106.792 19.1747C106.43 19.0141 106.105 18.7793 105.838 18.4855C105.572 18.1917 105.369 17.8454 105.245 17.4689C105.12 17.0923 105.076 16.6938 105.114 16.299ZM109.556 16.299C109.556 14.9984 108.971 14.2378 107.946 14.2378C106.916 14.2378 106.337 14.9984 106.337 16.299C106.337 17.6101 106.917 18.3648 107.946 18.3648C108.971 18.3648 109.556 17.6049 109.556 16.299ZM112.362 13.3015H113.502V14.2547H113.591C113.741 13.9123 113.994 13.6253 114.315 13.4337C114.636 13.242 115.009 13.1553 115.381 13.1856C115.673 13.1637 115.966 13.2077 116.239 13.3144C116.512 13.4212 116.757 13.5879 116.956 13.8022C117.156 14.0165 117.304 14.273 117.391 14.5526C117.478 14.8321 117.501 15.1277 117.458 15.4173V19.3016H116.274V15.7147C116.274 14.7505 115.855 14.271 114.979 14.271C114.781 14.2617 114.583 14.2955 114.399 14.3699C114.215 14.4443 114.05 14.5576 113.913 14.702C113.777 14.8464 113.674 15.0185 113.611 15.2066C113.547 15.3946 113.526 15.5942 113.547 15.7915V19.3017H112.362L112.362 13.3015ZM124.149 11.8077V13.3289H125.449V14.3263H124.149V17.4116C124.149 18.0401 124.408 18.3154 124.998 18.3154C125.149 18.3149 125.3 18.3057 125.449 18.288V19.2744C125.237 19.3125 125.021 19.3327 124.805 19.3349C123.488 19.3349 122.964 18.8716 122.964 17.7148V14.3263H122.011V13.3287H122.964V11.8078L124.149 11.8077ZM127.067 10.9591H128.241V14.2658H128.334C128.492 13.9202 128.752 13.6316 129.079 13.4392C129.407 13.2468 129.785 13.1601 130.164 13.1908C130.454 13.175 130.745 13.2235 131.014 13.3328C131.284 13.4422 131.526 13.6096 131.723 13.8233C131.921 14.037 132.068 14.2916 132.156 14.5689C132.244 14.8463 132.269 15.1396 132.23 15.4278V19.3017H131.045V15.7199C131.045 14.7615 130.599 14.2762 129.762 14.2762C129.558 14.2595 129.354 14.2875 129.162 14.3582C128.971 14.4289 128.797 14.5406 128.653 14.6854C128.509 14.8303 128.398 15.0049 128.329 15.197C128.26 15.389 128.233 15.5939 128.251 15.7974V19.3017H127.067V10.9591ZM139.135 17.6815C138.974 18.2299 138.626 18.7043 138.15 19.0217C137.675 19.339 137.103 19.4792 136.535 19.4175C136.14 19.428 135.747 19.3523 135.384 19.1957C135.021 19.0391 134.696 18.8053 134.432 18.5106C134.169 18.216 133.972 17.8674 133.857 17.4892C133.741 17.111 133.709 16.7122 133.763 16.3205C133.711 15.9275 133.743 15.5279 133.858 15.1485C133.974 14.7692 134.169 14.419 134.431 14.1217C134.694 13.8245 135.017 13.5871 135.379 13.4256C135.741 13.264 136.133 13.1822 136.53 13.1856C138.199 13.1856 139.207 14.3263 139.207 16.2104V16.6236H134.97V16.69C134.951 16.9102 134.979 17.1318 135.051 17.3407C135.123 17.5496 135.238 17.7411 135.388 17.9029C135.539 18.0647 135.722 18.1934 135.925 18.2805C136.128 18.3677 136.347 18.4114 136.568 18.4089C136.851 18.443 137.138 18.392 137.392 18.2624C137.646 18.1329 137.856 17.9307 137.995 17.6815H139.135ZM134.97 15.7479H138C138.015 15.5465 137.988 15.3443 137.92 15.1541C137.852 14.9639 137.745 14.7901 137.606 14.6437C137.467 14.4973 137.299 14.3816 137.112 14.3041C136.926 14.2266 136.725 14.1889 136.523 14.1935C136.319 14.191 136.115 14.2294 135.926 14.3066C135.736 14.3838 135.564 14.4982 135.419 14.6431C135.274 14.788 135.16 14.9603 135.082 15.1501C135.005 15.3398 134.967 15.5431 134.97 15.7479Z" fill="white"/>
</svg>
