<?xml version="1.0" encoding="utf-8"?>
<!-- Generator: Adobe Illustrator 28.0.0, SVG Export Plug-In . SVG Version: 6.00 Build 0)  -->
<svg version="1.1"
	 id="svg51" xmlns:rdf="http://www.w3.org/1999/02/22-rdf-syntax-ns#" xmlns:cc="http://creativecommons.org/ns#" xmlns:dc="http://purl.org/dc/elements/1.1/"
	 xmlns="http://www.w3.org/2000/svg" xmlns:xlink="http://www.w3.org/1999/xlink" x="0px" y="0px" viewBox="0 0 180 53.3"
	 style="enable-background:new 0 0 180 53.3;" xml:space="preserve">
<style type="text/css">
	.st0{fill:#100F0D;}
	.st1{fill:#A2A2A1;}
	.st2{fill:#FFFFFF;}
	.st3{fill:#EB3131;}
	.st4{fill:#F6B60B;}
	.st5{fill:#5778C5;}
	.st6{fill:#3BAD49;}
	.st7{fill:#FFFFFF;stroke:#FFFFFF;stroke-width:0.2667;stroke-miterlimit:10;}
</style>
<path id="path11" class="st0" d="M173.3,53.3H6.7c-3.7,0-6.7-3-6.7-6.7v-40C0,3,3,0,6.7,0h166.7c3.7,0,6.7,3,6.7,6.7v40
	C180,50.3,177,53.3,173.3,53.3"/>
<path id="path13" class="st1" d="M173.3,0H6.7C3,0,0,3,0,6.7v40c0,3.7,3,6.7,6.7,6.7h166.7c3.7,0,6.7-3,6.7-6.7v-40
	C180,3,177,0,173.3,0z M173.3,1.1c3.1,0,5.6,2.5,5.6,5.6v40c0,3.1-2.5,5.6-5.6,5.6H6.7c-3.1,0-5.6-2.5-5.6-5.6v-40
	c0-3.1,2.5-5.6,5.6-5.6L173.3,1.1"/>
<path id="path35" class="st2" d="M142.6,40h2.5V23.3h-2.5V40z M165,29.3l-2.9,7.2h-0.1l-3-7.2h-2.7l4.4,10.1l-2.5,5.6h2.6l6.8-15.7
	L165,29.3z M150.9,38.1c-0.8,0-2-0.4-2-1.4c0-1.3,1.4-1.8,2.6-1.8c1.1,0,1.6,0.2,2.3,0.6C153.6,37,152.3,38.1,150.9,38.1L150.9,38.1
	z M151.2,29c-1.8,0-3.7,0.8-4.4,2.6l2.2,0.9c0.5-0.9,1.4-1.2,2.3-1.2c1.3,0,2.6,0.8,2.6,2.1v0.2c-0.5-0.3-1.4-0.6-2.6-0.6
	c-2.4,0-4.8,1.3-4.8,3.8c0,2.2,2,3.7,4.1,3.7c1.7,0,2.6-0.8,3.2-1.6h0.1V40h2.4v-6.4C156.2,30.6,154,29,151.2,29L151.2,29z
	 M135.8,31.4h-3.5v-5.7h3.5c1.9,0,2.9,1.5,2.9,2.9C138.7,29.8,137.7,31.4,135.8,31.4z M135.7,23.3h-6V40h2.5v-6.3h3.5
	c2.8,0,5.5-2,5.5-5.2C141.2,25.3,138.5,23.3,135.7,23.3L135.7,23.3z M103.2,38.1c-1.7,0-3.2-1.4-3.2-3.4c0-2,1.4-3.5,3.2-3.5
	c1.7,0,3,1.5,3,3.5C106.3,36.7,104.9,38.1,103.2,38.1z M106.1,30.3L106.1,30.3c-0.6-0.7-1.7-1.3-3.1-1.3c-2.8,0-5.4,2.5-5.4,5.7
	c0,3.2,2.6,5.6,5.4,5.6c1.4,0,2.4-0.6,3-1.3h0.1v0.8c0,2.2-1.2,3.3-3,3.3c-1.5,0-2.5-1.1-2.9-2L98,42.1c0.6,1.5,2.3,3.4,5,3.4
	c2.9,0,5.4-1.7,5.4-5.9V29.3h-2.4L106.1,30.3z M110.2,40h2.5V23.3h-2.5V40z M116.3,34.5c-0.1-2.2,1.7-3.3,3-3.3c1,0,1.8,0.5,2.1,1.2
	L116.3,34.5z M124.1,32.6c-0.5-1.3-1.9-3.6-4.9-3.6c-2.9,0-5.3,2.3-5.3,5.7c0,3.2,2.4,5.7,5.6,5.7c2.6,0,4.1-1.6,4.7-2.5l-1.9-1.3
	c-0.6,0.9-1.5,1.6-2.8,1.6c-1.3,0-2.2-0.6-2.7-1.7l7.6-3.1L124.1,32.6z M63.7,30.7v2.4h5.8c-0.2,1.4-0.6,2.3-1.3,3
	c-0.8,0.8-2.1,1.8-4.4,1.8c-3.5,0-6.3-2.9-6.3-6.4s2.8-6.4,6.3-6.4c1.9,0,3.3,0.8,4.3,1.7l1.7-1.7c-1.4-1.4-3.4-2.4-6-2.4
	c-4.9,0-8.9,4-8.9,8.8c0,4.9,4.1,8.8,8.9,8.8c2.6,0,4.6-0.9,6.1-2.5c1.6-1.6,2.1-3.8,2.1-5.6c0-0.6,0-1.1-0.1-1.5L63.7,30.7z
	 M78.4,38.1c-1.7,0-3.2-1.4-3.2-3.4c0-2,1.5-3.4,3.2-3.4c1.7,0,3.2,1.4,3.2,3.4C81.6,36.7,80.1,38.1,78.4,38.1z M78.4,29
	c-3.1,0-5.7,2.4-5.7,5.7c0,3.3,2.6,5.7,5.7,5.7c3.1,0,5.7-2.4,5.7-5.7C84.1,31.4,81.6,29,78.4,29z M90.8,38.1
	c-1.7,0-3.2-1.4-3.2-3.4c0-2,1.5-3.4,3.2-3.4c1.7,0,3.2,1.4,3.2,3.4C94,36.7,92.6,38.1,90.8,38.1z M90.8,29c-3.1,0-5.7,2.4-5.7,5.7
	c0,3.3,2.6,5.7,5.7,5.7c3.1,0,5.7-2.4,5.7-5.7C96.5,31.4,94,29,90.8,29"/>
<path id="path37" class="st3" d="M27.6,25.9L13.4,41c0,0,0,0,0,0c0.4,1.6,1.9,2.8,3.7,2.8c0.7,0,1.4-0.2,1.9-0.5l0,0l16-9.2
	L27.6,25.9"/>
<path id="path39" class="st4" d="M42,23.3L42,23.3l-6.9-4l-7.8,6.9l7.8,7.8l6.9-4c1.2-0.6,2-1.9,2-3.4C44,25.2,43.2,24,42,23.3"/>
<path id="path41" class="st5" d="M13.4,12.4c-0.1,0.3-0.1,0.6-0.1,1V40c0,0.3,0,0.7,0.1,1l14.7-14.7L13.4,12.4"/>
<path id="path43" class="st6" d="M27.7,26.7l7.3-7.3l-16-9.3c-0.6-0.3-1.3-0.5-2-0.5c-1.8,0-3.3,1.2-3.7,2.8c0,0,0,0,0,0L27.7,26.7"
	/>
<path id="path33" class="st7" d="M63.2,13h-3.9v1h2.9c-0.1,0.8-0.4,1.4-0.9,1.9c-0.5,0.4-1.2,0.7-2,0.7c-0.9,0-1.6-0.3-2.2-0.9
	c-0.6-0.6-0.9-1.4-0.9-2.3c0-0.9,0.3-1.7,0.9-2.3c0.6-0.6,1.3-0.9,2.2-0.9c0.4,0,0.9,0.1,1.3,0.2c0.4,0.2,0.7,0.4,1,0.7l0.7-0.7
	c-0.3-0.4-0.8-0.7-1.3-0.9c-0.5-0.2-1.1-0.3-1.7-0.3c-1.2,0-2.2,0.4-3,1.2c-0.8,0.8-1.2,1.8-1.2,3s0.4,2.2,1.2,3
	c0.8,0.8,1.8,1.2,3,1.2c1.2,0,2.2-0.4,2.9-1.2c0.7-0.7,1-1.6,1-2.7C63.2,13.5,63.2,13.3,63.2,13L63.2,13z M64.7,9.3v8h4.7v-1h-3.7
	v-2.5H69v-1h-3.3v-2.5h3.7v-1L64.7,9.3z M76,10.3v-1h-5.5v1h2.2v7h1v-7L76,10.3z M80.9,9.3h-1v8h1V9.3z M87.8,10.3v-1h-5.5v1h2.2v7
	h1v-7L87.8,10.3z M98.2,10.4c-0.8-0.8-1.8-1.2-2.9-1.2c-1.2,0-2.1,0.4-2.9,1.2c-0.8,0.8-1.2,1.8-1.2,3s0.4,2.2,1.2,3
	c0.8,0.8,1.8,1.2,2.9,1.2c1.2,0,2.1-0.4,2.9-1.2c0.8-0.8,1.2-1.8,1.2-3C99.3,12.1,99,11.1,98.2,10.4z M93,11
	c0.6-0.6,1.3-0.9,2.2-0.9c0.9,0,1.6,0.3,2.2,0.9c0.6,0.6,0.9,1.4,0.9,2.3c0,0.9-0.3,1.7-0.9,2.3c-0.6,0.6-1.3,0.9-2.2,0.9
	c-0.9,0-1.6-0.3-2.2-0.9c-0.6-0.6-0.9-1.4-0.9-2.3C92.2,12.4,92.4,11.6,93,11z M101.8,12.3l0-1.5h0l4.1,6.5h1.1v-8h-1V14l0,1.5h0
	L102,9.3h-1.3v8h1V12.3z"/>
</svg>
