<svg width="131" height="77" viewBox="0 0 131 77" fill="none" xmlns="http://www.w3.org/2000/svg">
<g style="mix-blend-mode:soft-light">
<path d="M71.7698 3.17877L71.7698 3.17879L71.7713 3.18246C73.8689 8.21143 75.9722 13.2376 78.0812 18.2611L85.1081 35.0345C85.3126 35.5237 85.5169 36.0127 85.7211 36.5015C86.7423 38.9464 87.7618 41.3872 88.7993 43.8279L88.8007 43.8308C89.0539 44.402 89.1843 45.0158 89.1843 45.6357C89.1843 46.2556 89.0539 46.8693 88.8007 47.4405L88.8006 47.4405L88.7989 47.4445C85.2379 55.9472 81.6739 64.4554 78.1071 72.9691L78.1068 72.969L78.1034 72.9784C77.827 73.7379 77.3342 74.4098 76.6791 74.918C76.024 75.4262 75.2329 75.7502 74.3944 75.8525L74.3943 75.8522L74.3829 75.8542C73.3465 76.0392 72.2755 75.8769 71.3505 75.3954C70.4257 74.914 69.7044 74.1436 69.3057 73.2157C67.8151 69.7111 66.3484 66.1975 64.8804 62.6808C64.374 61.4677 63.8675 60.2543 63.3598 59.0407L63.3596 59.0404C59.9946 51.0286 56.6381 43.0113 53.2903 34.9885L53.2902 34.9883C50.2996 27.8476 47.3119 20.7124 44.327 13.5828L44.3269 13.5825C44.0098 12.8277 43.6957 12.0703 43.3814 11.3121C42.7121 9.69784 42.0412 8.07963 41.3349 6.47442L41.3344 6.47335C41.0621 5.86376 40.9333 5.20476 40.9568 4.54287C40.9802 3.88099 41.1554 3.23173 41.4704 2.64099C41.7854 2.05021 42.2326 1.53211 42.7811 1.12381C43.3247 0.71913 43.9544 0.432248 44.6265 0.283547C44.6974 0.279275 44.7576 0.258773 44.7996 0.242894C44.8223 0.234325 44.8389 0.227626 44.8526 0.222089C44.8644 0.21732 44.8741 0.213412 44.8837 0.209912H68.0718C68.8381 0.36661 69.5603 0.677295 70.1907 1.12096C70.9043 1.65717 71.45 2.36903 71.7698 3.17877Z" fill="url(#paint0_linear_449_364)" stroke="url(#paint1_linear_449_364)" stroke-width="0.419823"/>
<path d="M31.0257 3.17877L31.0257 3.17879L31.0272 3.18246C33.1247 8.21143 35.228 13.2376 37.3371 18.2611L44.364 35.0345C44.5685 35.5237 44.7727 36.0127 44.9769 36.5015C45.9982 38.9464 47.0177 41.3872 48.0552 43.8279L48.0565 43.8308C48.3098 44.402 48.4402 45.0158 48.4402 45.6357C48.4402 46.2556 48.3098 46.8693 48.0565 47.4405L48.0565 47.4405L48.0548 47.4445C44.4937 55.9472 40.9298 64.4554 37.3629 72.9691L37.3627 72.969L37.3593 72.9784C37.0828 73.7379 36.59 74.4098 35.935 74.918C35.2799 75.4262 34.4887 75.7502 33.6502 75.8525L33.6502 75.8522L33.6388 75.8542C32.6024 76.0392 31.5314 75.8769 30.6063 75.3954C29.6815 74.914 28.9602 74.1436 28.5616 73.2157C27.0709 69.7111 25.6043 66.1975 24.1363 62.6808C23.6299 61.4677 23.1234 60.2543 22.6156 59.0407L22.6155 59.0404C19.2504 51.0286 15.894 43.0113 12.5462 34.9885L12.546 34.9883C9.55544 27.8476 6.56771 20.7124 3.58287 13.5828L3.58276 13.5825C3.26561 12.8277 2.9516 12.0703 2.63722 11.3121C1.96796 9.69784 1.29706 8.07963 0.590767 6.47442L0.590287 6.47335C0.317976 5.86376 0.189164 5.20476 0.212627 4.54287C0.236091 3.88099 0.411285 3.23173 0.72625 2.64099C1.04124 2.05021 1.48848 1.53211 2.03695 1.12381C2.58055 0.71913 3.21026 0.432248 3.88238 0.283547C3.95322 0.279275 4.01344 0.258773 4.05548 0.242894C4.07817 0.234325 4.09475 0.227626 4.10846 0.222089C4.12026 0.21732 4.12993 0.213412 4.13954 0.209912H27.3276C28.0939 0.36661 28.8162 0.677295 29.4466 1.12096C30.1602 1.65717 30.7059 2.36903 31.0257 3.17877Z" fill="url(#paint2_linear_449_364)" stroke="url(#paint3_linear_449_364)" stroke-width="0.419823"/>
<path d="M127.696 52.2893L127.695 52.2916C125.35 57.9102 122.99 63.5315 120.616 69.1556L120.615 69.1578C120.353 69.8004 120.088 70.4219 119.824 71.0406L119.798 71.1028C119.525 71.7413 119.255 72.3775 118.99 73.0285C118.631 73.8975 117.997 74.6399 117.176 75.1521C116.354 75.6645 115.386 75.9206 114.404 75.8842L114.402 75.8841C113.465 75.8598 112.558 75.5691 111.796 75.0501C111.034 74.5311 110.452 73.8077 110.123 72.9732L110.121 72.9693C106.699 64.7753 103.27 56.5813 99.8356 48.3874L99.8355 48.3872C96.8738 41.3403 93.9005 34.2768 90.9156 27.1968C90.9156 27.1967 90.9155 27.1966 90.9155 27.1965L86.5942 16.8007L82.2725 6.40395L82.2725 6.40393L82.2707 6.39985C82.0043 5.79543 81.8802 5.14275 81.9068 4.48792C81.9334 3.83309 82.1102 3.19147 82.4251 2.60845C82.74 2.0254 83.1854 1.51495 83.7305 1.11372C84.2755 0.71248 84.9067 0.430427 85.5795 0.288074L85.587 0.286472L85.5945 0.284316L85.8511 0.209912H109.015L109.201 0.266882L109.211 0.269913L109.221 0.271955C110.006 0.42991 110.735 0.776253 111.339 1.27754C111.944 1.77878 112.405 2.41827 112.679 3.13524L112.679 3.13528L112.681 3.14125C114.03 6.36713 115.384 9.59577 116.744 12.8272L122.059 25.5311L127.375 38.2354C127.375 38.2355 127.375 38.2355 127.375 38.2355C127.635 38.8566 127.901 39.4724 128.167 40.0865C128.858 41.6814 129.544 43.2652 130.09 44.9034L130.073 46.3518C129.566 48.0167 128.87 49.6041 128.159 51.2273C128.005 51.5792 127.85 51.9328 127.696 52.2893Z" fill="url(#paint4_linear_449_364)" stroke="url(#paint5_linear_449_364)" stroke-width="0.419823"/>
</g>
<defs>
<linearGradient id="paint0_linear_449_364" x1="69.1242" y1="-37.0436" x2="69.1263" y2="401.73" gradientUnits="userSpaceOnUse">
<stop stop-color="white"/>
<stop offset="0.378333" stop-color="white" stop-opacity="0"/>
</linearGradient>
<linearGradient id="paint1_linear_449_364" x1="65.0692" y1="0" x2="65.0692" y2="76.1386" gradientUnits="userSpaceOnUse">
<stop stop-color="white"/>
<stop offset="1" stop-color="white" stop-opacity="0"/>
</linearGradient>
<linearGradient id="paint2_linear_449_364" x1="28.3801" y1="-37.0436" x2="28.3821" y2="401.73" gradientUnits="userSpaceOnUse">
<stop stop-color="white"/>
<stop offset="0.378333" stop-color="white" stop-opacity="0"/>
</linearGradient>
<linearGradient id="paint3_linear_449_364" x1="24.325" y1="0" x2="24.325" y2="76.1386" gradientUnits="userSpaceOnUse">
<stop stop-color="white"/>
<stop offset="1" stop-color="white" stop-opacity="0"/>
</linearGradient>
<linearGradient id="paint4_linear_449_364" x1="110.048" y1="-37.0237" x2="110.05" y2="401.513" gradientUnits="userSpaceOnUse">
<stop stop-color="white"/>
<stop offset="0.378333" stop-color="white" stop-opacity="0"/>
</linearGradient>
<linearGradient id="paint5_linear_449_364" x1="105.997" y1="0" x2="105.997" y2="76.0975" gradientUnits="userSpaceOnUse">
<stop stop-color="white"/>
<stop offset="1" stop-color="white" stop-opacity="0"/>
</linearGradient>
</defs>
</svg>
