<svg width="888" height="192" viewBox="0 0 888 192" fill="none" xmlns="http://www.w3.org/2000/svg">
<path d="M861.658 79.5119C857.633 79.5119 853.981 78.8039 850.702 77.3879C847.498 75.9719 844.74 73.9596 842.43 71.3511C840.194 68.6681 838.48 65.5007 837.287 61.8488C836.095 58.1224 835.499 53.9488 835.499 49.3281C835.499 44.7819 836.095 40.6456 837.287 36.9192C838.48 33.1928 840.194 30.0254 842.43 27.4169C844.74 24.7339 847.498 22.6844 850.702 21.2683C853.981 19.8523 857.633 19.1443 861.658 19.1443C865.682 19.1443 869.297 19.8523 872.502 21.2683C875.781 22.6844 878.538 24.7339 880.774 27.4169C883.085 30.0254 884.836 33.1928 886.029 36.9192C887.221 40.6456 887.817 44.7819 887.817 49.3281C887.817 53.9488 887.221 58.1224 886.029 61.8488C884.836 65.5007 883.085 68.6681 880.774 71.3511C878.538 73.9596 875.781 75.9719 872.502 77.3879C869.297 78.8039 865.682 79.5119 861.658 79.5119ZM861.658 71.7983C866.651 71.7983 870.676 70.3077 873.731 67.3266C876.787 64.3455 878.315 59.7248 878.315 53.4644V45.1918C878.315 38.9315 876.787 34.3107 873.731 31.3296C870.676 28.3485 866.651 26.8579 861.658 26.8579C856.664 26.8579 852.64 28.3485 849.584 31.3296C846.529 34.3107 845.001 38.9315 845.001 45.1918V53.4644C845.001 59.7248 846.529 64.3455 849.584 67.3266C852.64 70.3077 856.664 71.7983 861.658 71.7983Z" fill="white"/>
<path d="M805.991 78.2194C801.594 78.2194 798.352 76.9897 796.265 74.5303C794.253 72.0708 793.247 68.9034 793.247 65.0279V28.1366H774.019V20.5347H788.328C790.266 20.5347 791.607 20.1621 792.352 19.4168C793.172 18.597 793.582 17.2182 793.582 15.2805V0.188599H802.19V20.5347H828.461V28.1366H802.19V70.6175H828.461V78.2194H805.991Z" fill="white"/>
<path d="M718.837 20.4858H727.781V29.8763H728.228C731.954 22.7216 737.879 19.1443 746.003 19.1443C753.083 19.1443 758.598 21.79 762.548 27.0815C766.573 32.373 768.585 39.7885 768.585 49.3281C768.585 58.8677 766.573 66.2832 762.548 71.5747C758.598 76.8662 753.083 79.5119 746.003 79.5119C737.879 79.5119 731.954 75.9346 728.228 68.7799H727.781V100.529H718.837V20.4858ZM742.537 71.5747C747.754 71.5747 751.779 70.0096 754.611 66.8794C757.517 63.6747 758.971 59.4639 758.971 54.2469V44.4093C758.971 39.1923 757.517 35.0187 754.611 31.8886C751.779 28.6839 747.754 27.0815 742.537 27.0815C740.525 27.0815 738.625 27.3424 736.836 27.8641C735.047 28.3858 733.482 29.1683 732.141 30.2117C730.799 31.1805 729.718 32.4103 728.899 33.9008C728.153 35.3168 727.781 36.9937 727.781 38.9315V59.7248C727.781 61.6625 728.153 63.3766 728.899 64.8672C729.718 66.2832 730.799 67.5129 732.141 68.5563C733.482 69.5252 735.047 70.2705 736.836 70.7922C738.625 71.3139 740.525 71.5747 742.537 71.5747Z" fill="white"/>
<path d="M698.982 20.5115H707.925L679.307 90.8287C678.636 92.4683 677.891 93.8843 677.071 95.0768C676.251 96.3437 675.282 97.3499 674.164 98.0952C673.046 98.915 671.705 99.5112 670.14 99.8838C668.575 100.331 666.711 100.555 664.55 100.555H656.054V92.9527H669.469L675.953 77.0783L652.7 20.5115H661.867L671.593 44.6586L680.201 66.5698H680.648L689.256 44.6586L698.982 20.5115Z" fill="white"/>
<path d="M590.215 70.5943H607.095V28.1134H590.215V20.5115H616.039V35.0445H616.598C617.79 30.4983 620.026 26.9582 623.305 24.4243C626.659 21.8158 630.907 20.5115 636.05 20.5115H644.099V29.4549H633.255C628.112 29.4549 623.939 30.9455 620.734 33.9266C617.604 36.9077 616.039 40.8204 616.039 45.6647V70.5943H638.397V78.1962H590.215V70.5943Z" fill="white"/>
<path d="M559.442 79.5119C555.268 79.5119 551.542 78.8039 548.263 77.3879C545.058 75.8973 542.338 73.8478 540.102 71.2393C537.866 68.6308 536.152 65.4634 534.96 61.737C533.842 58.0106 533.283 53.8743 533.283 49.3281C533.283 44.7819 533.879 40.6456 535.071 36.9192C536.264 33.1928 537.978 30.0254 540.214 27.4169C542.45 24.7339 545.17 22.6844 548.375 21.2683C551.579 19.8523 555.231 19.1443 559.33 19.1443C564.92 19.1443 569.466 20.374 572.969 22.8334C576.472 25.2928 579.043 28.4975 580.683 32.4475L573.528 36.2485C572.484 33.2673 570.733 30.957 568.274 29.3173C565.889 27.6777 562.908 26.8579 559.33 26.8579C556.722 26.8579 554.374 27.3051 552.287 28.1994C550.275 29.0192 548.561 30.2117 547.145 31.7768C545.729 33.3419 544.648 35.2051 543.903 37.3664C543.232 39.5277 542.897 41.8753 542.897 44.4093V54.2469C542.897 56.7809 543.232 59.1285 543.903 61.2899C544.648 63.4512 545.729 65.3144 547.145 66.8794C548.561 68.4445 550.312 69.6742 552.399 70.5686C554.486 71.3884 556.871 71.7983 559.554 71.7983C563.429 71.7983 566.634 70.904 569.168 69.1153C571.702 67.3266 573.714 64.8672 575.205 61.737L581.577 66.0969C579.863 69.9724 577.18 73.1771 573.528 75.711C569.95 78.245 565.255 79.5119 559.442 79.5119Z" fill="white"/>
<path d="M419.137 71.6297H436.018V29.1488H419.137V21.5469H444.961V36.0799H445.52C446.713 31.5337 448.948 27.9936 452.228 25.4596C455.581 22.8512 459.829 21.5469 464.972 21.5469H473.021V30.4903H462.177C457.035 30.4903 452.861 31.9808 449.656 34.962C446.526 37.9431 444.961 41.8558 444.961 46.7001V71.6297H467.32V79.2316H419.137V71.6297Z" fill="white"/>
<path d="M383.631 80.5606C379.457 80.5606 375.694 79.8526 372.34 78.4366C369.061 77.0205 366.229 75.0083 363.844 72.3998C361.533 69.7168 359.745 66.5493 358.478 62.8975C357.211 59.1711 356.577 55.0348 356.577 50.4886C356.577 45.8678 357.211 41.6943 358.478 37.9679C359.819 34.2415 361.645 31.074 363.955 28.4656C366.266 25.7825 369.023 23.733 372.228 22.317C375.507 20.901 379.122 20.1929 383.072 20.1929C386.947 20.1929 390.45 20.901 393.58 22.317C396.785 23.733 399.505 25.708 401.741 28.242C403.977 30.7014 405.691 33.6452 406.884 37.0735C408.076 40.5018 408.672 44.2655 408.672 48.3645V52.6126H365.968V55.2956C365.968 57.8296 366.378 60.1772 367.197 62.3385C368.017 64.4998 369.172 66.363 370.663 67.9281C372.228 69.4932 374.091 70.7229 376.253 71.6172C378.488 72.4371 380.948 72.847 383.631 72.847C387.506 72.847 390.86 71.9526 393.692 70.164C396.524 68.3753 398.685 65.9159 400.176 62.7857L406.772 67.2574C405.058 71.1328 402.188 74.3375 398.164 76.8715C394.214 79.3309 389.369 80.5606 383.631 80.5606ZM383.072 27.5712C380.612 27.5712 378.339 28.0184 376.253 28.9127C374.166 29.8071 372.34 31.0368 370.775 32.6019C369.284 34.1669 368.092 36.0301 367.197 38.1915C366.378 40.2782 365.968 42.5886 365.968 45.1226V45.9051H399.058V44.6754C399.058 42.1414 398.648 39.8311 397.828 37.7443C397.083 35.6575 396.002 33.8688 394.586 32.3783C393.245 30.8132 391.568 29.6207 389.556 28.8009C387.618 27.9811 385.457 27.5712 383.072 27.5712Z" fill="white"/>
<path d="M292.937 79.2191V21.5344H301.21V28.242H301.657C302.551 26.0061 303.818 24.1057 305.458 22.5406C307.097 20.9755 309.519 20.1929 312.724 20.1929C316.078 20.1929 318.575 21.05 320.214 22.7642C321.854 24.4038 322.86 26.5651 323.233 29.2481H323.568C324.611 26.6396 326.102 24.4783 328.04 22.7642C329.977 21.05 332.66 20.1929 336.089 20.1929C340.784 20.1929 343.914 21.8326 345.479 25.1118C347.119 28.391 347.939 33.0863 347.939 39.1976V79.2191H339.666V40.6509C339.666 35.732 339.144 32.341 338.101 30.4778C337.132 28.5401 335.306 27.5712 332.623 27.5712C330.238 27.5712 328.301 28.3538 326.81 29.9188C325.319 31.4094 324.574 33.7198 324.574 36.85V79.2191H316.302V40.6509C316.302 35.732 315.78 32.341 314.736 30.4778C313.768 28.5401 311.979 27.5712 309.37 27.5712C306.986 27.5712 305.011 28.3538 303.445 29.9188C301.955 31.4094 301.21 33.7198 301.21 36.85V79.2191H292.937Z" fill="white"/>
<path d="M272.634 69.841H272.187C271.591 71.2571 270.845 72.6358 269.951 73.9774C269.057 75.2443 267.939 76.3622 266.597 77.3311C265.33 78.3 263.802 79.0825 262.014 79.6787C260.225 80.275 258.138 80.5731 255.753 80.5731C249.717 80.5731 244.872 78.6726 241.22 74.8717C237.569 70.9962 235.743 65.5557 235.743 58.5501V21.5469H244.686V56.985C244.686 62.2765 245.841 66.2264 248.152 68.8349C250.462 71.3689 253.853 72.6358 258.325 72.6358C260.113 72.6358 261.865 72.4123 263.579 71.9651C265.293 71.5179 266.821 70.8472 268.162 69.9528C269.504 69.0585 270.585 67.9406 271.404 66.5991C272.224 65.183 272.634 63.5062 272.634 61.5684V21.5469H281.577V79.2316H272.634V69.841Z" fill="white"/>
<path d="M200.46 80.5606C194.423 80.5606 189.206 79.5545 184.809 77.5422C180.487 75.4554 176.798 72.6979 173.742 69.2696L179.779 64.0154C182.536 66.922 185.555 69.1578 188.834 70.7229C192.113 72.288 196.063 73.0705 200.684 73.0705C205.155 73.0705 208.807 72.288 211.639 70.7229C214.546 69.0833 215.999 66.5493 215.999 63.1211C215.999 61.6305 215.701 60.4008 215.105 59.4319C214.583 58.3885 213.838 57.5687 212.869 56.9725C211.9 56.3763 210.82 55.9291 209.627 55.631C208.435 55.2584 207.168 54.9602 205.826 54.7367L196.771 53.3952C194.759 53.097 192.56 52.6871 190.175 52.1654C187.865 51.6438 185.741 50.8239 183.803 49.706C181.865 48.5136 180.226 46.9485 178.884 45.0108C177.617 43.073 176.984 40.5391 176.984 37.4089C176.984 34.5023 177.543 32.0056 178.661 29.9188C179.853 27.7575 181.493 25.9689 183.58 24.5528C185.666 23.0623 188.126 21.9816 190.958 21.3109C193.79 20.5656 196.883 20.1929 200.237 20.1929C205.454 20.1929 209.963 21.0128 213.763 22.6524C217.639 24.292 220.955 26.5651 223.713 29.4717L217.9 34.9495C217.229 34.1297 216.372 33.3099 215.329 32.4901C214.36 31.5957 213.13 30.8132 211.639 30.1424C210.223 29.3971 208.547 28.8009 206.609 28.3538C204.671 27.9066 202.435 27.683 199.901 27.683C195.355 27.683 191.852 28.4656 189.393 30.0306C187.008 31.5957 185.815 33.8688 185.815 36.85C185.815 38.3405 186.076 39.6075 186.598 40.6509C187.194 41.6197 187.977 42.4023 188.946 42.9985C189.915 43.5947 190.995 44.0792 192.188 44.4518C193.455 44.7499 194.722 45.0108 195.989 45.2343L205.044 46.5758C207.13 46.874 209.329 47.2839 211.639 47.8056C213.95 48.3273 216.074 49.1843 218.012 50.3768C219.949 51.4947 221.552 53.0225 222.819 54.9602C224.16 56.898 224.831 59.4319 224.831 62.5621C224.831 68.3008 222.595 72.7352 218.123 75.8653C213.726 78.9955 207.838 80.5606 200.46 80.5606Z" fill="white"/>
<path d="M118.001 79.2191V21.5344H126.945V30.925H127.392C127.988 29.5089 128.733 28.1674 129.628 26.9005C130.522 25.559 131.603 24.4038 132.87 23.4349C134.211 22.466 135.776 21.6835 137.565 21.0873C139.354 20.4911 141.441 20.1929 143.825 20.1929C149.862 20.1929 154.706 22.1307 158.358 26.0061C162.01 29.8071 163.836 35.2103 163.836 42.216V79.2191H154.893V43.7811C154.893 38.4896 153.738 34.5768 151.427 32.0429C149.117 29.4344 145.726 28.1302 141.254 28.1302C139.466 28.1302 137.714 28.3538 136 28.8009C134.286 29.2481 132.758 29.9188 131.416 30.8132C130.075 31.7075 128.994 32.8627 128.175 34.2787C127.355 35.6948 126.945 37.3344 126.945 39.1976V79.2191H118.001Z" fill="white"/>
<path d="M81.3768 80.5606C77.3523 80.5606 73.7005 79.8526 70.4212 78.4366C67.2165 77.0205 64.459 75.0083 62.1486 72.3998C59.9128 69.7168 58.1986 66.5493 57.0062 62.8975C55.8138 59.1711 55.2175 54.9975 55.2175 50.3768C55.2175 45.8306 55.8138 41.6943 57.0062 37.9679C58.1986 34.2415 59.9128 31.074 62.1486 28.4656C64.459 25.7825 67.2165 23.733 70.4212 22.317C73.7005 20.901 77.3523 20.1929 81.3768 20.1929C85.4014 20.1929 89.016 20.901 92.2207 22.317C95.4999 23.733 98.2574 25.7825 100.493 28.4656C102.804 31.074 104.555 34.2415 105.747 37.9679C106.94 41.6943 107.536 45.8306 107.536 50.3768C107.536 54.9975 106.94 59.1711 105.747 62.8975C104.555 66.5493 102.804 69.7168 100.493 72.3998C98.2574 75.0083 95.4999 77.0205 92.2207 78.4366C89.016 79.8526 85.4014 80.5606 81.3768 80.5606ZM81.3768 72.847C86.3702 72.847 90.3947 71.3564 93.4504 68.3753C96.506 65.3942 98.0338 60.7734 98.0338 54.5131V46.2405C98.0338 39.9801 96.506 35.3594 93.4504 32.3783C90.3947 29.3971 86.3702 27.9066 81.3768 27.9066C76.3835 27.9066 72.359 29.3971 69.3033 32.3783C66.2477 35.3594 64.7198 39.9801 64.7198 46.2405V54.5131C64.7198 60.7734 66.2477 65.3942 69.3033 68.3753C72.359 71.3564 76.3835 72.847 81.3768 72.847Z" fill="white"/>
<path d="M26.4196 80.5606C22.246 80.5606 18.5196 79.8526 15.2404 78.4366C12.0357 76.946 9.3154 74.8965 7.07956 72.288C4.84372 69.6795 3.12958 66.5121 1.93713 62.7857C0.819214 59.0593 0.260254 54.923 0.260254 50.3768C0.260254 45.8306 0.856477 41.6943 2.04892 37.9679C3.24137 34.2415 4.95552 31.074 7.19135 28.4656C9.42719 25.7825 12.1475 23.733 15.3522 22.317C18.5569 20.901 22.2087 20.1929 26.3078 20.1929C31.8974 20.1929 36.4436 21.4227 39.9464 23.8821C43.4492 26.3415 46.0204 29.5462 47.66 33.4962L40.5054 37.2971C39.462 34.316 37.7106 32.0056 35.2511 30.366C32.8662 28.7264 29.8851 27.9066 26.3078 27.9066C23.6993 27.9066 21.3517 28.3538 19.2649 29.2481C17.2526 30.0679 15.5385 31.2603 14.1225 32.8254C12.7064 34.3905 11.6258 36.2537 10.8805 38.415C10.2097 40.5763 9.87436 42.924 9.87436 45.4579V55.2956C9.87436 57.8296 10.2097 60.1772 10.8805 62.3385C11.6258 64.4998 12.7064 66.363 14.1225 67.9281C15.5385 69.4932 17.2899 70.7229 19.3767 71.6172C21.4635 72.4371 23.8484 72.847 26.5314 72.847C30.4068 72.847 33.6115 71.9526 36.1455 70.164C38.6794 68.3753 40.6917 65.9159 42.1822 62.7857L48.5544 67.1456C46.8402 71.021 44.1572 74.2257 40.5054 76.7597C36.928 79.2936 32.2328 80.5606 26.4196 80.5606Z" fill="white"/>
<path d="M791.601 190.358V132.674H800.544V142.064H800.992C801.588 140.648 802.333 139.307 803.227 138.04C804.122 136.698 805.202 135.543 806.469 134.574C807.811 133.605 809.376 132.823 811.165 132.227C812.953 131.63 815.04 131.332 817.425 131.332C823.462 131.332 828.306 133.27 831.958 137.146C835.61 140.946 837.436 146.35 837.436 153.355V190.358H828.492V154.92C828.492 149.629 827.337 145.716 825.027 143.182C822.716 140.574 819.325 139.27 814.854 139.27C813.065 139.27 811.314 139.493 809.6 139.94C807.885 140.387 806.358 141.058 805.016 141.953C803.675 142.847 802.594 144.002 801.774 145.418C800.954 146.834 800.544 148.474 800.544 150.337V190.358H791.601Z" fill="white"/>
<path d="M754.977 191.7C750.952 191.7 747.3 190.992 744.021 189.576C740.816 188.16 738.059 186.148 735.748 183.539C733.513 180.856 731.798 177.689 730.606 174.037C729.414 170.31 728.817 166.137 728.817 161.516C728.817 156.97 729.414 152.834 730.606 149.107C731.798 145.381 733.513 142.213 735.748 139.605C738.059 136.922 740.816 134.872 744.021 133.456C747.3 132.04 750.952 131.332 754.977 131.332C759.001 131.332 762.616 132.04 765.82 133.456C769.1 134.872 771.857 136.922 774.093 139.605C776.403 142.213 778.155 145.381 779.347 149.107C780.54 152.834 781.136 156.97 781.136 161.516C781.136 166.137 780.54 170.31 779.347 174.037C778.155 177.689 776.403 180.856 774.093 183.539C771.857 186.148 769.1 188.16 765.82 189.576C762.616 190.992 759.001 191.7 754.977 191.7ZM754.977 183.986C759.97 183.986 763.995 182.496 767.05 179.515C770.106 176.534 771.634 171.913 771.634 165.652V157.38C771.634 151.12 770.106 146.499 767.05 143.518C763.995 140.537 759.97 139.046 754.977 139.046C749.983 139.046 745.959 140.537 742.903 143.518C739.847 146.499 738.32 151.12 738.32 157.38V165.652C738.32 171.913 739.847 176.534 742.903 179.515C745.959 182.496 749.983 183.986 754.977 183.986Z" fill="white"/>
<path d="M671.698 107.638H680.641V142.07H681.088C681.684 140.654 682.43 139.312 683.324 138.045C684.218 136.704 685.299 135.548 686.566 134.58C687.908 133.611 689.473 132.828 691.261 132.232C693.05 131.636 695.137 131.338 697.522 131.338C703.558 131.338 708.403 133.275 712.055 137.151C715.706 140.952 717.532 146.355 717.532 153.361V190.364H708.589V154.926C708.589 149.634 707.434 145.721 705.124 143.188C702.813 140.579 699.422 139.275 694.95 139.275C693.162 139.275 691.41 139.498 689.696 139.946C687.982 140.393 686.454 141.063 685.113 141.958C683.771 142.852 682.691 144.007 681.871 145.423C681.051 146.839 680.641 148.479 680.641 150.342V190.364H671.698V107.638Z" fill="white"/>
<path d="M635.633 190.368C631.236 190.368 627.994 189.138 625.907 186.678C623.895 184.219 622.889 181.052 622.889 177.176V140.285H603.661V132.683H617.97C619.908 132.683 621.249 132.31 621.995 131.565C622.814 130.745 623.224 129.366 623.224 127.429V112.337H631.832V132.683H658.103V140.285H631.832V182.766H658.103V190.368H635.633Z" fill="white"/>
<path d="M596.177 190.358C592.675 190.358 590.178 189.464 588.687 187.675C587.197 185.887 586.265 183.651 585.893 180.968H585.334C584.067 184.322 582.017 186.967 579.185 188.905C576.428 190.768 572.701 191.7 568.006 191.7C561.969 191.7 557.162 190.135 553.585 187.005C550.007 183.875 548.219 179.589 548.219 174.149C548.219 168.783 550.156 164.646 554.032 161.74C557.982 158.833 564.317 157.38 573.037 157.38H585.334V151.678C585.334 147.43 584.141 144.263 581.756 142.176C579.371 140.015 575.98 138.934 571.583 138.934C567.708 138.934 564.54 139.717 562.081 141.282C559.622 142.772 557.647 144.822 556.156 147.43L550.119 142.959C550.865 141.468 551.871 140.015 553.138 138.599C554.405 137.183 555.97 135.953 557.833 134.91C559.696 133.792 561.82 132.935 564.205 132.338C566.59 131.668 569.236 131.332 572.142 131.332C578.924 131.332 584.29 133.046 588.24 136.475C592.265 139.903 594.277 144.673 594.277 150.784V182.533H602.326V190.358H596.177ZM569.571 184.21C571.881 184.21 573.968 183.949 575.831 183.427C577.769 182.831 579.446 182.086 580.862 181.192C582.278 180.223 583.359 179.105 584.104 177.838C584.924 176.496 585.334 175.08 585.334 173.59V164.087H573.037C567.671 164.087 563.758 164.833 561.298 166.323C558.839 167.814 557.609 169.975 557.609 172.807V175.155C557.609 178.136 558.653 180.409 560.739 181.974C562.901 183.465 565.845 184.21 569.571 184.21Z" fill="white"/>
<path d="M491.136 107.638H500.079V159.845H500.526L510.588 150.342L529.816 132.679H540.771L516.848 155.261L543.566 190.364H532.499L510.029 160.403L500.079 169.459V190.364H491.136V107.638Z" fill="white"/>
<path d="M457.978 191.7C453.804 191.7 450.078 190.992 446.798 189.576C443.594 188.085 440.874 186.036 438.638 183.427C436.402 180.819 434.688 177.651 433.495 173.925C432.377 170.199 431.818 166.062 431.818 161.516C431.818 156.97 432.415 152.834 433.607 149.107C434.799 145.381 436.514 142.213 438.749 139.605C440.985 136.922 443.706 134.872 446.91 133.456C450.115 132.04 453.767 131.332 457.866 131.332C463.455 131.332 468.002 132.562 471.505 135.021C475.007 137.481 477.579 140.686 479.218 144.636L472.063 148.437C471.02 145.455 469.269 143.145 466.809 141.505C464.424 139.866 461.443 139.046 457.866 139.046C455.257 139.046 452.91 139.493 450.823 140.387C448.811 141.207 447.097 142.4 445.681 143.965C444.265 145.53 443.184 147.393 442.439 149.554C441.768 151.716 441.432 154.063 441.432 156.597V166.435C441.432 168.969 441.768 171.317 442.439 173.478C443.184 175.639 444.265 177.502 445.681 179.068C447.097 180.633 448.848 181.862 450.935 182.757C453.022 183.576 455.406 183.986 458.089 183.986C461.965 183.986 465.17 183.092 467.704 181.303C470.238 179.515 472.25 177.055 473.74 173.925L480.112 178.285C478.398 182.16 475.715 185.365 472.063 187.899C468.486 190.433 463.791 191.7 457.978 191.7Z" fill="white"/>
<path d="M419.304 190.358C415.801 190.358 413.304 189.464 411.814 187.675C410.323 185.887 409.392 183.651 409.019 180.968H408.46C407.193 184.322 405.144 186.967 402.312 188.905C399.554 190.768 395.828 191.7 391.132 191.7C385.096 191.7 380.289 190.135 376.711 187.005C373.134 183.875 371.345 179.589 371.345 174.149C371.345 168.783 373.283 164.646 377.158 161.74C381.108 158.833 387.443 157.38 396.163 157.38H408.46V151.678C408.46 147.43 407.268 144.263 404.883 142.176C402.498 140.015 399.107 138.934 394.71 138.934C390.834 138.934 387.667 139.717 385.207 141.282C382.748 142.772 380.773 144.822 379.282 147.43L373.246 142.959C373.991 141.468 374.997 140.015 376.264 138.599C377.531 137.183 379.096 135.953 380.959 134.91C382.823 133.792 384.947 132.935 387.331 132.338C389.716 131.668 392.362 131.332 395.269 131.332C402.051 131.332 407.417 133.046 411.367 136.475C415.391 139.903 417.403 144.673 417.403 150.784V182.533H425.453V190.358H419.304ZM392.697 184.21C395.008 184.21 397.095 183.949 398.958 183.427C400.896 182.831 402.572 182.086 403.988 181.192C405.404 180.223 406.485 179.105 407.23 177.838C408.05 176.496 408.46 175.08 408.46 173.59V164.087H396.163C390.797 164.087 386.884 164.833 384.425 166.323C381.965 167.814 380.736 169.975 380.736 172.807V175.155C380.736 178.136 381.779 180.409 383.866 181.974C386.027 183.465 388.971 184.21 392.697 184.21Z" fill="white"/>
<path d="M314.971 107.638H323.915V142.07H324.362C324.958 140.654 325.703 139.312 326.598 138.045C327.492 136.704 328.573 135.548 329.84 134.58C331.181 133.611 332.746 132.828 334.535 132.232C336.323 131.636 338.41 131.338 340.795 131.338C346.832 131.338 351.676 133.275 355.328 137.151C358.98 140.952 360.806 146.355 360.806 153.361V190.364H351.863V154.926C351.863 149.634 350.707 145.721 348.397 143.188C346.087 140.579 342.696 139.275 338.224 139.275C336.435 139.275 334.684 139.498 332.97 139.946C331.256 140.393 329.728 141.063 328.386 141.958C327.045 142.852 325.964 144.007 325.144 145.423C324.324 146.839 323.915 148.479 323.915 150.342V190.364H314.971V107.638Z" fill="white"/>
<path fill-rule="evenodd" clip-rule="evenodd" d="M81.3258 182.832C78.697 183.882 75.828 184.46 72.8241 184.46C60.1672 184.46 49.9067 174.2 49.9067 161.543C49.9067 148.886 60.1672 138.626 72.8241 138.626C75.1875 138.626 77.4674 138.983 79.6125 139.648L159.218 159.229L81.3258 182.832Z" fill="url(#paint0_linear_1438_712)"/>
<path fill-rule="evenodd" clip-rule="evenodd" d="M285.387 138.626H239.553V184.46L239.544 138.652L159.219 159.347L239.553 184.464V184.46H285.387V138.626Z" fill="url(#paint1_linear_1438_712)"/>
<rect x="239.555" y="138.636" width="45.8347" height="45.8347" fill="white"/>
<rect x="49.9065" y="138.636" width="45.8347" height="45.8347" rx="22.9173" fill="white"/>
<defs>
<linearGradient id="paint0_linear_1438_712" x1="49.9067" y1="184.46" x2="159.218" y2="184.46" gradientUnits="userSpaceOnUse">
<stop stop-color="white" stop-opacity="0"/>
<stop offset="1" stop-color="white"/>
</linearGradient>
<linearGradient id="paint1_linear_1438_712" x1="285.387" y1="184.464" x2="159.219" y2="184.464" gradientUnits="userSpaceOnUse">
<stop stop-color="white" stop-opacity="0"/>
<stop offset="1" stop-color="white"/>
</linearGradient>
</defs>
</svg>
