<svg width="1546" height="233" viewBox="0 0 1546 233" fill="none" xmlns="http://www.w3.org/2000/svg">
<g clip-path="url(#clip0_4319_362)">
<path fill-rule="evenodd" clip-rule="evenodd" d="M42.9455 45.9094V101.079H-0.765625V45.9094H42.9455ZM43.2696 4.41037H141.174V45.9094H43.2696V4.41037ZM1482.01 138.742L1545.66 229.035H1494L1452.83 169.488L1435.43 187.86V229.035H1393.29V-0.344727H1435.43V131.123L1489.25 73.1432H1544.41L1482.01 138.742ZM-0.765625 229.035V141.768H43.2696V101.35H130.422V141.606H43.2696V229.035H-0.765625ZM251.829 114.966C247.129 113.994 242.968 113.724 239.186 113.724C217.628 113.724 198.933 124.152 198.933 157.762V229.035H156.789V73.1432H197.69V96.2703C207.2 75.6829 228.704 71.9004 242.05 71.9004C245.508 71.9004 248.696 72.1706 251.829 72.4948V114.966ZM320.125 233.466C286.841 233.466 266.58 210.987 266.58 186.563C266.58 158.681 287.166 143.173 313.155 139.336L351.462 133.663C360.378 132.366 363.187 127.935 363.187 122.585C363.187 111.454 354.65 102.268 336.928 102.268C318.558 102.268 308.4 113.994 307.157 127.665L269.768 119.722C272.307 95.2977 294.784 68.3881 336.604 68.3881C386.042 68.3881 404.413 96.2703 404.413 127.665V204.341C404.413 212.554 405.331 223.631 406.304 229.035H367.672C366.699 224.928 366.051 216.337 366.051 210.339C358.162 222.713 343.25 233.466 320.125 233.466ZM308.724 184.024C308.724 193.21 315.37 202.071 328.986 202.071C346.762 202.071 363.187 193.534 363.187 165.976V159.005L328.067 164.409C317.261 165.976 308.724 171.974 308.724 184.024ZM429.753 229.035V73.1432H469.952V92.1636C478.543 76.9257 498.481 68.7123 515.609 68.7123C536.789 68.7123 553.917 77.8983 561.859 94.7033C574.178 75.6829 590.658 68.7123 611.244 68.7123C640.096 68.7123 667.652 86.1117 667.652 127.935V229.035H626.805V136.527C626.805 119.722 618.538 107.023 599.249 107.023C581.148 107.023 570.396 120.964 570.396 137.769V229.035H528.576V136.527C528.576 119.722 520.039 107.023 501.02 107.023C482.65 107.023 471.844 120.694 471.844 137.769V229.035H429.753ZM919.436 173.271L953.314 73.1432H997.673L1031.23 173.595L1060.08 73.1432H1101.9L1053.11 229.035H1010.96L974.548 122.585L938.726 229.035H895.987L846.224 73.1432H890.584L919.436 173.271ZM1264.21 151.062C1264.21 198.937 1229.03 233.79 1182.46 233.79C1135.88 233.79 1100.71 198.937 1100.71 151.062C1100.71 102.917 1135.88 68.3881 1182.46 68.3881C1229.03 68.3881 1264.21 102.917 1264.21 151.062ZM1222.06 151.062C1222.06 121.613 1203.05 106.753 1182.46 106.753C1161.87 106.753 1142.85 121.613 1142.85 151.062C1142.85 180.241 1161.87 195.425 1182.46 195.425C1203.05 195.425 1222.06 180.565 1222.06 151.062ZM1365.57 71.9004C1369.03 71.9004 1372.22 72.1706 1375.35 72.4948V114.966C1370.6 113.994 1366.49 113.724 1362.71 113.724C1341.15 113.724 1322.45 124.152 1322.45 157.762V229.035H1280.31V73.1432H1321.21V96.2703C1330.72 75.6829 1352.22 71.9004 1365.57 71.9004Z" fill="white"/>
<path fill-rule="evenodd" clip-rule="evenodd" d="M838.336 184.348C830.393 211.258 805.701 233.791 767.339 233.791C724.6 233.791 686.887 203.044 686.887 150.468C686.887 100.702 723.628 68.3887 763.557 68.3887C811.698 68.3887 840.551 99.1347 840.551 149.171C840.551 155.223 839.903 161.545 839.903 162.194H728.383C729.355 182.781 746.753 197.641 767.663 197.641C787.33 197.641 798.083 187.861 803.161 173.919L838.336 184.348ZM799.055 133.339C798.407 117.831 788.249 102.593 764.205 102.593C742.323 102.593 730.274 119.074 729.355 133.339H799.055Z" fill="white"/>
</g>
<defs>
<clipPath id="clip0_4319_362">
<rect width="1546" height="233" fill="white"/>
</clipPath>
</defs>
</svg>
