<svg width="1521" height="364" viewBox="0 0 1521 364" fill="none" xmlns="http://www.w3.org/2000/svg">
<g clip-path="url(#clip0_4319_365)">
<path d="M1460.5 283.651L1277.57 2.09794L1201.01 2.16026L1202.08 356.902L1260.88 356.82L1260.19 84.5819L1435.51 356.807H1517.74L1516.71 1.54883L1457.81 1.59931L1460.5 283.651Z" fill="white"/>
<path d="M254.913 152.383V1.72656H315.581V356.815H254.852V210.366H60.606V356.815H0V1.72656H60.606V152.383H254.913Z" fill="white"/>
<path fill-rule="evenodd" clip-rule="evenodd" d="M532.218 1.72656H593.437L739.595 356.815H676.938L644.34 277.593H481.376L448.777 356.815H386.242L532.218 1.72656ZM562.889 79.8875L505.404 219.046H620.28L562.889 79.8875Z" fill="white"/>
<path d="M948.763 364.004C857.213 364.004 793.699 306.949 793.699 204.037V1.72656H854.368V199.331C854.368 264.207 892.021 303.702 950.174 303.901C1008.34 304.098 1043.78 259.237 1043.78 199.331V1.72656H1103.83V204.037C1103.83 303.802 1036.77 364.004 948.763 364.004Z" fill="white"/>
</g>
<defs>
<clipPath id="clip0_4319_365">
<rect width="1521" height="364" fill="white"/>
</clipPath>
</defs>
</svg>
