<svg width="282" height="40" viewBox="0 0 282 40" fill="none" xmlns="http://www.w3.org/2000/svg">
<path fill-rule="evenodd" clip-rule="evenodd" d="M131.337 1.36719C128.956 1.36719 127.003 3.21301 127.003 5.56642C127.003 7.8737 128.956 9.71952 131.337 9.71952C133.718 9.71952 135.671 7.8737 135.671 5.56642C135.671 3.21301 133.718 1.36719 131.337 1.36719ZM135.147 11.8436H127.575V36.716H135.147V11.8436ZM83.3764 2.29069H90.7586V11.8428H96.4263V18.4877H90.7586V27.2554C90.7586 28.5475 91.8064 29.5627 93.0924 29.5627H96.3786V36.6229H93.0924C87.7581 36.6229 83.3764 32.4237 83.3764 27.2092V18.4416H79.9473V11.7967H83.3764V2.29069ZM114.477 11.2891C111.048 11.2891 108.333 12.6734 107.285 14.8423V2.29069H99.7124V36.6691H107.285V22.7331C107.285 19.826 109.238 17.7956 112 17.7956C114.81 17.7956 116.382 19.5491 116.382 22.5024V36.7152H123.955V21.5795C123.955 15.1191 120.525 11.2891 114.477 11.2891ZM145.958 11.7969V15.2116C147.101 12.7198 149.863 11.2893 153.34 11.2431C153.864 11.2431 154.531 11.2893 155.341 11.3816V18.3034C154.579 18.1649 153.721 18.0726 152.816 18.0726C148.482 18.0726 145.958 20.4261 145.958 24.533V36.6693H138.385V11.7969H145.958ZM176.63 15.073C175.868 12.9042 172.868 11.3814 169.01 11.3814C165.39 11.3814 162.342 12.6273 159.913 15.1191C157.532 17.5648 156.293 20.6566 156.293 24.2559C156.293 27.8553 157.532 30.9009 159.913 33.4389C162.342 35.8846 165.39 37.1305 169.01 37.1305C172.868 37.1305 175.868 35.6077 176.63 33.4389V36.7152H184.203V2.29069H176.63V15.073ZM175.106 28.6859C173.82 29.8857 172.248 30.4394 170.391 30.4394C168.581 30.4394 167.009 29.8395 165.771 28.6859C164.485 27.44 163.866 25.9633 163.866 24.2559C163.866 22.5486 164.485 21.0719 165.771 19.8721C167.057 18.6262 168.581 18.0263 170.391 18.0263C172.296 18.0263 173.868 18.6262 175.106 19.8721C176.44 21.0719 177.106 22.5486 177.106 24.2559C177.106 25.9633 176.44 27.44 175.106 28.6859ZM206.064 11.9359L212.922 23.7492L217.542 11.8436H224.972L214.399 38.1465L206.064 23.8415L197.729 38.1465L187.204 11.8436H194.633L199.206 23.7492L206.064 11.9359ZM237.45 11.2431C233.545 11.2431 230.258 12.4429 227.686 14.8425C225.162 17.1959 223.876 20.3338 223.876 24.21V24.4407C223.876 28.3169 225.162 31.4548 227.686 33.8082C230.306 36.1155 233.64 37.3153 237.831 37.3153C241.736 37.3153 244.927 36.577 247.356 35.0542V28.64C244.975 30.255 241.927 31.0395 238.26 31.0395C234.259 31.0395 231.639 29.1476 231.497 26.1942H250.309C250.404 25.4559 250.452 24.6253 250.452 23.7947C250.452 20.2415 249.214 17.2882 246.832 14.8886C244.451 12.4429 241.26 11.2431 237.45 11.2431ZM231.497 21.4413C231.544 20.2876 232.163 19.3186 233.306 18.5341C234.497 17.7496 235.831 17.3343 237.45 17.3343C240.45 17.3343 242.784 19.2263 242.784 21.4413H231.497ZM268.503 11.3813C272.123 11.3813 275.171 12.6273 277.552 15.1191C279.981 17.611 281.219 20.6104 281.219 24.2098C281.219 27.8091 279.981 30.8547 277.552 33.3927C275.171 35.8384 272.123 37.0844 268.503 37.0844C264.645 37.0844 261.645 35.5616 260.882 33.3927V36.6691H253.31V2.29069H260.882V15.073C261.645 12.9041 264.645 11.3813 268.503 11.3813ZM267.122 30.4394C268.931 30.4394 270.456 29.8857 271.742 28.6859C273.027 27.44 273.647 25.9633 273.647 24.2559C273.647 22.5485 273.027 21.0719 271.742 19.8721C270.503 18.6262 268.931 18.0263 267.122 18.0263C265.264 18.0263 263.692 18.6262 262.359 19.8721C261.073 21.0719 260.406 22.5485 260.406 24.2559C260.406 25.9633 261.073 27.44 262.359 28.6859C263.645 29.8395 265.217 30.4394 267.122 30.4394Z" fill="white"/>
<g clip-path="url(#clip0_4324_1575)">
<path fill-rule="evenodd" clip-rule="evenodd" d="M0.180624 3.31528C-0.4794 1.72167 0.750645 0 2.55071 0H13.7261C14.7762 0 15.7062 0.597605 16.0962 1.52247L24.9915 22.7517C25.2315 23.3208 25.2315 23.9611 24.9915 24.5445L19.3963 37.8768C18.5413 39.9115 15.5112 39.9115 14.6562 37.8768L0.180624 3.31528ZM21.7663 3.24414C21.1663 1.66476 22.3963 0 24.1664 0H33.9018C34.9818 0 35.9418 0.640291 36.3018 1.59361L44.3871 22.8228C44.5821 23.3493 44.5821 23.9327 44.3871 24.4733L39.527 37.2365C38.7169 39.3708 35.5368 39.3708 34.7268 37.2365L21.7663 3.24414ZM43.6224 0C41.8224 0 40.5923 1.72167 41.2523 3.31528L55.7279 37.8768C56.5829 39.9115 59.613 39.9115 60.468 37.8768L66.0632 24.5445C66.3032 23.9611 66.3032 23.3208 66.0632 22.7517L57.1679 1.52247C56.7779 0.597605 55.8479 0 54.7978 0H43.6224Z" fill="white"/>
</g>
<defs>
<clipPath id="clip0_4324_1575">
<rect width="66.2245" height="39.4028" fill="white"/>
</clipPath>
</defs>
</svg>
