<svg width="21" height="20" viewBox="0 0 21 20" fill="none" xmlns="http://www.w3.org/2000/svg">
<path d="M3.64456 7.23942C3.52534 6.70242 3.54365 6.14402 3.69777 5.61599C3.8519 5.08796 4.13685 4.60739 4.52621 4.21884C4.91558 3.83029 5.39674 3.54634 5.9251 3.39333C6.45345 3.24031 7.01189 3.22317 7.54863 3.34351C7.84406 2.88147 8.25104 2.50124 8.73207 2.23786C9.21309 1.97448 9.75268 1.83643 10.3011 1.83643C10.8495 1.83643 11.3891 1.97448 11.8701 2.23786C12.3511 2.50124 12.7581 2.88147 13.0535 3.34351C13.5911 3.22265 14.1505 3.23971 14.6797 3.3931C15.2089 3.54649 15.6907 3.83122 16.0803 4.22083C16.4699 4.61043 16.7546 5.09223 16.908 5.62143C17.0614 6.15063 17.0785 6.71002 16.9576 7.24758C17.4197 7.54301 17.7999 7.94999 18.0633 8.43102C18.3266 8.91204 18.4647 9.45163 18.4647 10C18.4647 10.5484 18.3266 11.088 18.0633 11.5691C17.7999 12.0501 17.4197 12.4571 16.9576 12.7525C17.078 13.2892 17.0608 13.8477 16.9078 14.376C16.7548 14.9044 16.4708 15.3855 16.0823 15.7749C15.6937 16.1643 15.2132 16.4492 14.6851 16.6034C14.1571 16.7575 13.5987 16.7758 13.0617 16.6566C12.7667 17.1204 12.3594 17.5022 11.8775 17.7668C11.3957 18.0314 10.8549 18.1701 10.3052 18.1701C9.75547 18.1701 9.21466 18.0314 8.73282 17.7668C8.25097 17.5022 7.84367 17.1204 7.54863 16.6566C7.01189 16.7769 6.45345 16.7598 5.9251 16.6068C5.39674 16.4537 4.91558 16.1698 4.52621 15.7812C4.13685 15.3927 3.8519 14.9121 3.69777 14.3841C3.54365 13.8561 3.52534 13.2977 3.64456 12.7607C3.17897 12.466 2.79547 12.0584 2.52973 11.5757C2.26399 11.0931 2.12463 10.551 2.12463 10C2.12463 9.44905 2.26399 8.90702 2.52973 8.42435C2.79547 7.94168 3.17897 7.53407 3.64456 7.23942Z" stroke="white" stroke-width="1.6335" stroke-linecap="round" stroke-linejoin="round"/>
<path d="M7.85083 9.99972L9.48433 11.6332L12.7513 8.36621" stroke="white" stroke-width="1.6335" stroke-linecap="round" stroke-linejoin="round"/>
</svg>
