<svg width="28" height="28" viewBox="0 0 28 28" fill="none" xmlns="http://www.w3.org/2000/svg">
<path fill-rule="evenodd" clip-rule="evenodd" d="M8.16672 1.16504C7.11493 1.16504 6.10595 1.58155 5.36043 2.32347L5.35843 2.32546L2.32509 5.35879L2.3231 5.36079C1.58118 6.10632 1.16467 7.1153 1.16467 8.16709C1.16467 9.21887 1.58118 10.2279 2.3231 10.9734L2.3251 10.9754L6.51677 15.1671L3.2584 18.4254C3.11483 18.569 3.01122 18.7475 2.9578 18.9434L1.2078 25.3601C1.09764 25.764 1.21235 26.196 1.5084 26.492C1.80444 26.788 2.23641 26.9028 2.64032 26.7926L9.05699 25.0426C9.25287 24.9892 9.43141 24.8856 9.57498 24.742L12.8334 21.4836L17.0251 25.6753C18.5773 27.2276 21.0894 27.2276 22.6416 25.6753L25.675 22.642C27.2273 21.0897 27.2273 18.5777 25.675 17.0254L24.1625 15.5129C24.1611 15.5115 24.1597 15.5101 24.1583 15.5088C24.1569 15.5074 24.1556 15.506 24.1542 15.5046L21.4833 12.8337L22.987 11.33L22.9917 11.3253L22.9963 11.3207L25.5233 8.79367C26.3609 7.95604 26.8315 6.81997 26.8315 5.63538C26.8315 4.45079 26.3609 3.31472 25.5233 2.47709C24.6857 1.63946 23.5496 1.16888 22.365 1.16888C21.1804 1.16888 20.0444 1.63946 19.2067 2.47709L16.6751 5.00876L15.1667 6.51713L10.975 2.32546L10.973 2.32347C10.2275 1.58155 9.21851 1.16504 8.16672 1.16504ZM19.0084 12.0088L20.5168 10.5004L17.5 7.48362L15.9994 8.98423L15.9917 8.99204L15.9839 8.99979L8.99941 15.9842L8.99168 15.992L8.98387 15.9998L5.12739 19.8563L3.99611 24.0043L8.14414 22.873L12.0084 19.0088L19.0084 12.0088ZM14.4833 19.8337L19.8334 14.4836L21.6834 16.3337L20.1751 17.8421C19.7195 18.2977 19.7195 19.0364 20.1751 19.492C20.6307 19.9476 21.3694 19.9476 21.825 19.492L23.3334 17.9836L24.0251 18.6753C24.6661 19.3164 24.6661 20.351 24.0251 20.9921L20.9917 24.0254C20.3507 24.6665 19.316 24.6665 18.675 24.0254L14.4833 19.8337ZM13.5168 8.16705L11.6667 6.31699L10.1583 7.82539C9.7027 8.281 8.96401 8.281 8.5084 7.82539C8.05278 7.36977 8.05278 6.63108 8.5084 6.17547L10.0168 4.66707L9.32709 3.97737L9.32616 3.97644C9.01799 3.67025 8.60118 3.49837 8.16672 3.49837C7.73222 3.49837 7.31539 3.67027 7.00721 3.97652L7.00635 3.97737L3.97701 7.00671L3.97615 7.00757C3.66991 7.31575 3.49801 7.73259 3.49801 8.16709C3.49801 8.60155 3.66988 9.01835 3.97608 9.32653L3.97701 9.32746L8.16668 13.5171L13.5168 8.16705ZM22.1667 8.85046L23.8734 7.14376C24.2734 6.74371 24.4982 6.20113 24.4982 5.63538C24.4982 5.06963 24.2734 4.52705 23.8734 4.12701C23.4733 3.72696 22.9308 3.50222 22.365 3.50222C21.7993 3.50222 21.2567 3.72696 20.8566 4.12701L19.1499 5.83371L22.1667 8.85046Z" fill="url(#paint0_linear_470_20577)"/>
<defs>
<linearGradient id="paint0_linear_470_20577" x1="23.5048" y1="-1.81414" x2="-7.11122" y2="23.4208" gradientUnits="userSpaceOnUse">
<stop stop-color="#00A876"/>
<stop offset="1" stop-color="#75FFD6"/>
</linearGradient>
</defs>
</svg>
