<svg width="28" height="28" viewBox="0 0 28 28" fill="none" xmlns="http://www.w3.org/2000/svg">
<path fill-rule="evenodd" clip-rule="evenodd" d="M8.74996 2.33301C6.73873 2.33301 4.80988 3.13196 3.38773 4.55411C1.96558 5.97627 1.16663 7.90512 1.16663 9.91634C1.16663 13.124 3.2601 15.4674 5.01526 17.1649L13.175 25.3246C13.6306 25.7802 14.3693 25.7802 14.8249 25.3246L18.3249 21.8246L22.9874 17.1621C23.7387 16.4258 24.5604 15.5684 25.2507 14.573C25.2863 14.5283 25.3181 14.4816 25.3461 14.4333C26.202 13.1601 26.8333 11.6656 26.8333 9.91634C26.8333 7.90512 26.0343 5.97627 24.6122 4.55411C23.19 3.13196 21.2612 2.33301 19.25 2.33301C18.1064 2.33301 17.0646 2.49656 16.0453 2.94047C15.3303 3.2519 14.6625 3.68561 14 4.24558C13.3374 3.68561 12.6696 3.2519 11.9546 2.94047C10.9353 2.49656 9.89351 2.33301 8.74996 2.33301ZM17.5 19.3497L15.9916 17.8413C15.536 17.3857 14.7973 17.3857 14.3417 17.8413C13.8861 18.297 13.8861 19.0356 14.3417 19.4913L15.8501 20.9997L14 22.8498L6.65825 15.508L6.64415 15.4942C4.90078 13.8089 3.49996 12.071 3.49996 9.91634C3.49996 8.52395 4.05308 7.1886 5.03765 6.20403C6.02221 5.21946 7.35757 4.66634 8.74996 4.66634C9.65975 4.66634 10.3679 4.79446 11.0228 5.07971C11.4353 5.25933 11.8549 5.51362 12.308 5.87507L9.72302 8.46007C9.37752 8.80349 9.10327 9.2118 8.91602 9.66154C8.72848 10.112 8.63192 10.5951 8.63192 11.083C8.63192 11.571 8.72848 12.0541 8.91602 12.5046C9.10329 12.9543 9.37757 13.3627 9.72311 13.7061C11.1241 15.1056 13.356 15.1474 14.8254 13.83L14.8255 13.8301L14.8355 13.8209L17.2478 11.6067C17.6382 11.2535 18.1459 11.0578 18.6725 11.0578C19.2 11.0578 19.7086 11.2542 20.0993 11.6087L20.1035 11.6125L22.7566 13.9967C22.3333 14.5063 21.8557 15.0043 21.3501 15.4997L21.3501 15.4997L21.3417 15.508L21 15.8497L19.4916 14.3413C19.036 13.8857 18.2973 13.8857 17.8417 14.3413C17.3861 14.797 17.3861 15.5356 17.8417 15.9913L19.3501 17.4997L17.5 19.3497ZM24.0378 12.011C24.331 11.3511 24.5 10.6581 24.5 9.91634C24.5 8.52395 23.9468 7.1886 22.9623 6.20403C21.9777 5.21946 20.6423 4.66634 19.25 4.66634C18.3402 4.66634 17.632 4.79446 16.9771 5.07971C16.3161 5.36757 15.6366 5.84722 14.8306 6.65231L14.8249 6.65801L11.3716 10.1113L11.3686 10.1143L11.3686 10.1143C11.2408 10.2412 11.1393 10.3921 11.0701 10.5584C11.0009 10.7246 10.9653 10.903 10.9653 11.083C10.9653 11.2631 11.0009 11.4414 11.0701 11.6077C11.1393 11.774 11.2408 11.9249 11.3686 12.0518L11.3716 12.0548C11.8827 12.5658 12.7035 12.5947 13.2635 12.0966L15.6727 9.88522L15.6776 9.88071L15.6776 9.88072C16.4976 9.13667 17.5652 8.7245 18.6725 8.7245C19.7787 8.7245 20.8454 9.13595 21.6651 9.87876L21.6673 9.88072L24.0378 12.011Z" fill="url(#paint0_linear_470_20616)"/>
<defs>
<linearGradient id="paint0_linear_470_20616" x1="23.4999" y1="-0.374512" x2="-4.71019" y2="25.2026" gradientUnits="userSpaceOnUse">
<stop stop-color="#00A876"/>
<stop offset="1" stop-color="#75FFD6"/>
</linearGradient>
</defs>
</svg>
