<svg width="28" height="29" viewBox="0 0 28 29" fill="none" xmlns="http://www.w3.org/2000/svg">
<path fill-rule="evenodd" clip-rule="evenodd" d="M13.5904 2.17877C13.8545 2.07973 14.1455 2.07973 14.4096 2.17877L23.743 5.67877C24.1983 5.84953 24.5 6.28484 24.5 6.77116V14.9378C24.5 18.9587 21.838 22.1715 19.4349 24.2742C18.2089 25.3469 16.9884 26.1855 16.0767 26.7553C15.6196 27.0409 15.237 27.261 14.9661 27.411C14.8305 27.486 14.7227 27.5437 14.6471 27.5833C14.6093 27.6032 14.5796 27.6185 14.5585 27.6293L14.5335 27.6421L14.5259 27.6459L14.5234 27.6472L14.5225 27.6476C14.5221 27.6478 14.5217 27.648 14 26.6045C13.4783 27.648 13.4779 27.6478 13.4775 27.6476L13.4766 27.6472L13.4741 27.6459L13.4665 27.6421L13.4415 27.6293C13.4204 27.6185 13.3907 27.6032 13.3529 27.5833C13.2773 27.5437 13.1695 27.486 13.0339 27.411C12.763 27.261 12.3804 27.0409 11.9233 26.7553C11.0116 26.1855 9.79111 25.3469 8.56508 24.2742C6.16204 22.1715 3.5 18.9587 3.5 14.9378V6.77116C3.5 6.28484 3.80167 5.84953 4.25702 5.67877L13.5904 2.17877ZM14 26.6045L13.4783 27.648C13.8067 27.8122 14.1933 27.8122 14.5217 27.648L14 26.6045ZM14 25.2777C14.2236 25.151 14.5095 24.9832 14.84 24.7766C15.6783 24.2527 16.7911 23.487 17.8984 22.5182C20.162 20.5375 22.1667 17.917 22.1667 14.9378V7.57966L14 4.51716L5.83333 7.57966V14.9378C5.83333 17.917 7.83796 20.5375 10.1016 22.5182C11.2089 23.487 12.3217 24.2527 13.16 24.7766C13.4905 24.9832 13.7764 25.151 14 25.2777Z" fill="url(#paint0_linear_498_1663)"/>
<defs>
<linearGradient id="paint0_linear_498_1663" x1="28.7573" y1="0.143519" x2="-5.01809" y2="24.277" gradientUnits="userSpaceOnUse">
<stop stop-color="#00A876"/>
<stop offset="1" stop-color="#75FFD6"/>
</linearGradient>
</defs>
</svg>
