<svg width="28" height="28" viewBox="0 0 28 28" fill="none" xmlns="http://www.w3.org/2000/svg">
<path fill-rule="evenodd" clip-rule="evenodd" d="M21 3.50033C19.7114 3.50033 18.6667 4.54499 18.6667 5.83366C18.6667 6.23882 18.77 6.61986 18.9516 6.9519C18.9635 6.96993 18.975 6.9884 18.986 7.00728C18.997 7.02603 19.0073 7.04496 19.0171 7.06405C19.4288 7.72619 20.163 8.16699 21 8.16699C22.2887 8.16699 23.3334 7.12232 23.3334 5.83366C23.3334 4.54499 22.2887 3.50033 21 3.50033ZM17.6844 9.11765C18.5302 9.97145 19.7033 10.5003 21 10.5003C23.5774 10.5003 25.6667 8.41099 25.6667 5.83366C25.6667 3.25633 23.5774 1.16699 21 1.16699C18.4227 1.16699 16.3334 3.25633 16.3334 5.83366C16.3334 6.27351 16.3942 6.69915 16.508 7.10261L10.3156 10.7163C9.4699 9.86254 8.29673 9.33368 7.00004 9.33368C4.42271 9.33368 2.33337 11.423 2.33337 14.0003C2.33337 16.5777 4.42271 18.667 7.00004 18.667C8.29699 18.667 9.47036 18.1379 10.3161 17.2839L16.5094 20.8929C16.3948 21.2979 16.3334 21.7253 16.3334 22.167C16.3334 24.7444 18.4227 26.8337 21 26.8337C23.5774 26.8337 25.6667 24.7444 25.6667 22.167C25.6667 19.5897 23.5774 17.5004 21 17.5004C19.7053 17.5004 18.5337 18.0276 17.6883 18.8792L11.4923 15.2687C11.6059 14.8654 11.6667 14.44 11.6667 14.0003C11.6667 13.5605 11.6059 13.1348 11.4921 12.7314L17.6844 9.11765ZM8.98312 12.7702C8.99286 12.7892 9.00318 12.808 9.01407 12.8267C9.02505 12.8455 9.03647 12.8639 9.04832 12.8818C9.23005 13.2139 9.33337 13.5951 9.33337 14.0003C9.33337 14.4055 9.2301 14.7866 9.04845 15.1186C9.03642 15.1368 9.02483 15.1555 9.0137 15.1746C9.0029 15.1931 8.99267 15.2118 8.983 15.2307C8.57128 15.8929 7.83714 16.3337 7.00004 16.3337C5.71138 16.3337 4.66671 15.289 4.66671 14.0003C4.66671 12.7117 5.71138 11.667 7.00004 11.667C7.83722 11.667 8.57142 12.1079 8.98312 12.7702ZM18.6667 22.167C18.6667 21.7877 18.7572 21.4294 18.9179 21.1128C18.9467 21.0749 18.9735 21.0349 18.9981 20.9927C19.0216 20.9523 19.0424 20.9111 19.0606 20.8692C19.4794 20.2447 20.1917 19.8337 21 19.8337C22.2887 19.8337 23.3334 20.8784 23.3334 22.167C23.3334 23.4557 22.2887 24.5004 21 24.5004C19.7114 24.5004 18.6667 23.4557 18.6667 22.167Z" fill="url(#paint0_linear_470_20539)"/>
<defs>
<linearGradient id="paint0_linear_470_20539" x1="22.6363" y1="-1.81128" x2="-7.28893" y2="20.612" gradientUnits="userSpaceOnUse">
<stop stop-color="#00A876"/>
<stop offset="1" stop-color="#75FFD6"/>
</linearGradient>
</defs>
</svg>
