<svg width="28" height="29" viewBox="0 0 28 29" fill="none" xmlns="http://www.w3.org/2000/svg">
<path fill-rule="evenodd" clip-rule="evenodd" d="M2.19178 5.46263C2.84816 4.80625 3.73839 4.4375 4.66665 4.4375H23.3333C24.2616 4.4375 25.1518 4.80625 25.8082 5.46263C26.4646 6.119 26.8333 7.00924 26.8333 7.9375V9.08455C26.8335 9.0969 26.8335 9.10925 26.8333 9.12158V16.1042C26.8333 16.7485 26.311 17.2708 25.6667 17.2708C25.0223 17.2708 24.5 16.7485 24.5 16.1042V11.2278L15.8274 16.7388L15.8211 16.7428L15.8211 16.7428C15.2752 17.0848 14.6441 17.2662 14 17.2662C13.3559 17.2662 12.7247 17.0848 12.1789 16.7428L12.1726 16.7389L12.1726 16.7388L3.49999 11.2278V21.9375C3.49999 22.5765 4.02765 23.1042 4.66665 23.1042H14C14.6443 23.1042 15.1667 23.6265 15.1667 24.2708C15.1667 24.9152 14.6443 25.4375 14 25.4375H4.66665C2.73899 25.4375 1.16665 23.8652 1.16665 21.9375V9.12165C1.16645 9.10927 1.16645 9.09688 1.16665 9.08448V7.9375C1.16665 7.00924 1.5354 6.119 2.19178 5.46263ZM24.5 7.9375V8.46324L14.5822 14.7655L14.5797 14.7671C14.4057 14.8754 14.2049 14.9328 14 14.9328C13.7951 14.9328 13.5943 14.8754 13.4203 14.7671L3.49999 8.46324V7.9375C3.49999 7.62808 3.6229 7.33133 3.84169 7.11254C4.06049 6.89375 4.35723 6.77083 4.66665 6.77083H23.3333C23.6427 6.77083 23.9395 6.89375 24.1583 7.11254C24.3771 7.33133 24.5 7.62808 24.5 7.9375ZM26.4916 21.5959C26.9472 21.1403 26.9472 20.4016 26.4916 19.946C26.036 19.4903 25.2973 19.4903 24.8417 19.946L21 23.7877L19.4916 22.2793C19.036 21.8237 18.2973 21.8237 17.8417 22.2793C17.3861 22.7349 17.3861 23.4736 17.8417 23.9292L20.175 26.2625C20.6306 26.7182 21.3693 26.7182 21.8249 26.2625L26.4916 21.5959Z" fill="url(#paint0_linear_470_20546)"/>
<defs>
<linearGradient id="paint0_linear_470_20546" x1="23.5" y1="1.86535" x2="-3.39908" y2="27.5377" gradientUnits="userSpaceOnUse">
<stop stop-color="#00A876"/>
<stop offset="1" stop-color="#75FFD6"/>
</linearGradient>
</defs>
</svg>
