<svg width="29" height="28" viewBox="0 0 29 28" fill="none" xmlns="http://www.w3.org/2000/svg">
<path fill-rule="evenodd" clip-rule="evenodd" d="M3.61947 8.16602C3.61947 7.52168 4.1418 6.99935 4.78613 6.99935H23.4528C24.0971 6.99935 24.6195 7.52168 24.6195 8.16602V10.5H3.61947V8.16602ZM1.28613 11.6667V8.16602C1.28613 6.23302 2.85314 4.66602 4.78613 4.66602H23.4528C25.3858 4.66602 26.9528 6.23302 26.9528 8.16602V11.6667V19.8327C26.9528 21.7657 25.3858 23.3327 23.4528 23.3327H4.78613C2.85314 23.3327 1.28613 21.7657 1.28613 19.8327V11.6667ZM24.6195 12.8333V19.8327C24.6195 20.477 24.0971 20.9993 23.4528 20.9993H4.78613C4.1418 20.9993 3.61947 20.477 3.61947 19.8327V12.8333H24.6195Z" fill="url(#paint0_linear_470_20597)"/>
<defs>
<linearGradient id="paint0_linear_470_20597" x1="23.6194" y1="2.5" x2="1.11939" y2="28" gradientUnits="userSpaceOnUse">
<stop stop-color="#00A876"/>
<stop offset="1" stop-color="#75FFD6"/>
</linearGradient>
</defs>
</svg>
