<svg width="28" height="29" viewBox="0 0 28 29" fill="none" xmlns="http://www.w3.org/2000/svg">
<path fill-rule="evenodd" clip-rule="evenodd" d="M10.7001 5.80466C11.5753 4.92949 12.7623 4.43783 13.9999 4.43783C15.2376 4.43783 16.4246 4.92949 17.2998 5.80466C18.1749 6.67983 18.6666 7.86682 18.6666 9.10449V12.6045H9.33327V9.10449C9.33327 7.86682 9.82494 6.67983 10.7001 5.80466ZM6.99994 12.6045V9.10449C6.99994 7.24798 7.73744 5.4675 9.05019 4.15474C10.3629 2.84199 12.1434 2.10449 13.9999 2.10449C15.8565 2.10449 17.6369 2.84199 18.9497 4.15474C20.2624 5.4675 20.9999 7.24798 20.9999 9.10449V12.6045H22.1666C24.0996 12.6045 25.6666 14.1715 25.6666 16.1045V24.2712C25.6666 26.2042 24.0996 27.7712 22.1666 27.7712H5.83325C3.90026 27.7712 2.33325 26.2042 2.33325 24.2712V16.1045C2.33325 14.1715 3.90026 12.6045 5.83325 12.6045H6.99994ZM19.8333 14.9378H8.16661L5.83325 14.9378C5.18892 14.9378 4.66658 15.4602 4.66658 16.1045V24.2712C4.66658 24.9155 5.18892 25.4378 5.83325 25.4378H22.1666C22.8109 25.4378 23.3333 24.9155 23.3333 24.2712V16.1045C23.3333 15.4602 22.8109 14.9378 22.1666 14.9378L19.8333 14.9378Z" fill="url(#paint0_linear_470_20561)"/>
<defs>
<linearGradient id="paint0_linear_470_20561" x1="22.6362" y1="-0.87378" x2="-7.28902" y2="21.5495" gradientUnits="userSpaceOnUse">
<stop stop-color="#00A876"/>
<stop offset="1" stop-color="#75FFD6"/>
</linearGradient>
</defs>
</svg>
