<svg width="29" height="28" viewBox="0 0 29 28" fill="none" xmlns="http://www.w3.org/2000/svg">
<path fill-rule="evenodd" clip-rule="evenodd" d="M14.1193 3.50033C8.32035 3.50033 3.61934 8.20134 3.61934 14.0003C3.61934 19.7993 8.32035 24.5003 14.1193 24.5003C19.9183 24.5003 24.6193 19.7993 24.6193 14.0003C24.6193 8.20134 19.9183 3.50033 14.1193 3.50033ZM1.28601 14.0003C1.28601 6.91267 7.03169 1.16699 14.1193 1.16699C21.207 1.16699 26.9527 6.91267 26.9527 14.0003C26.9527 21.088 21.207 26.8337 14.1193 26.8337C7.03169 26.8337 1.28601 21.088 1.28601 14.0003Z" fill="url(#paint0_linear_470_20592)"/>
<path fill-rule="evenodd" clip-rule="evenodd" d="M14.9807 1.54683C14.7597 1.30485 14.4471 1.16699 14.1193 1.16699C13.7916 1.16699 13.479 1.30485 13.2579 1.54683C10.4069 4.66807 8.68461 8.64155 8.34445 12.8336H2.45268C1.80835 12.8336 1.28601 13.356 1.28601 14.0003C1.28601 14.6446 1.80835 15.167 2.45268 15.167H8.34445C8.68459 19.359 10.4069 23.3326 13.2579 26.4538C13.479 26.6958 13.7916 26.8337 14.1193 26.8337C14.4471 26.8337 14.7597 26.6958 14.9807 26.4538C17.8318 23.3326 19.5541 19.359 19.8942 15.167H25.786C26.4303 15.167 26.9527 14.6446 26.9527 14.0003C26.9527 13.356 26.4303 12.8336 25.786 12.8336H19.8942C19.5541 8.64155 17.8318 4.66807 14.9807 1.54683ZM17.5522 12.8336C17.2591 9.66827 16.0673 6.65257 14.1193 4.14292C12.1714 6.65257 10.9796 9.66827 10.6865 12.8336H17.5522ZM10.6865 15.167C10.9796 18.3323 12.1714 21.3481 14.1193 23.8577C16.0673 21.3481 17.2591 18.3323 17.5522 15.167H10.6865Z" fill="url(#paint1_linear_470_20592)"/>
<defs>
<linearGradient id="paint0_linear_470_20592" x1="23.6193" y1="-1.81128" x2="-6.98735" y2="23.416" gradientUnits="userSpaceOnUse">
<stop stop-color="#00A876"/>
<stop offset="1" stop-color="#75FFD6"/>
</linearGradient>
<linearGradient id="paint1_linear_470_20592" x1="23.6193" y1="-1.81128" x2="-6.98735" y2="23.416" gradientUnits="userSpaceOnUse">
<stop stop-color="#00A876"/>
<stop offset="1" stop-color="#75FFD6"/>
</linearGradient>
</defs>
</svg>
