<svg width="28" height="28" viewBox="0 0 28 28" fill="none" xmlns="http://www.w3.org/2000/svg">
<path fill-rule="evenodd" clip-rule="evenodd" d="M9.51289 2.31004C9.34597 1.6877 8.70616 1.31851 8.08382 1.48543C7.46148 1.65234 7.09229 2.29216 7.25921 2.9145L8.16571 6.29433C8.33262 6.91667 8.97244 7.28586 9.59478 7.11894C10.2171 6.95203 10.5863 6.31221 10.4194 5.68987L9.51289 2.31004ZM17.1 5.55006C17.5556 5.09445 17.5556 4.35576 17.1 3.90014C16.6444 3.44453 15.9057 3.44453 15.4501 3.90014L12.9744 6.37581C12.5188 6.83142 12.5188 7.57011 12.9744 8.02573C13.43 8.48134 14.1687 8.48134 14.6243 8.02573L17.1 5.55006ZM2.91318 7.25924C2.29083 7.09237 1.65104 7.46162 1.48418 8.08397C1.31732 8.70632 1.68657 9.34611 2.30892 9.51297L5.68992 10.4195C6.31227 10.5863 6.95205 10.2171 7.11892 9.59473C7.28578 8.97238 6.91653 8.3326 6.29418 8.16574L2.91318 7.25924ZM8.02489 14.624C8.48029 14.1682 8.47994 13.4295 8.02412 12.9741C7.56829 12.5187 6.8296 12.519 6.3742 12.9749L3.90087 15.4505C3.44547 15.9064 3.44582 16.6451 3.90165 17.1004C4.35747 17.5558 5.09616 17.5555 5.55156 17.0997L8.02489 14.624ZM9.6751 9.67513C10.0094 9.34084 10.5124 9.24133 10.9488 9.42316L24.9488 15.2565C25.3968 15.4432 25.6824 15.8877 25.6661 16.3728C25.6497 16.8579 25.3347 17.2822 24.8751 17.4382L20.5547 18.9048L24.5247 22.8748C24.9803 23.3304 24.9803 24.0691 24.5247 24.5247C24.0691 24.9803 23.3304 24.9803 22.8748 24.5247L18.9047 20.5547L17.4381 24.8751C17.2821 25.3347 16.8579 25.6497 16.3728 25.6661C15.8877 25.6825 15.4431 25.3968 15.2565 24.9488L9.42313 10.9488C9.2413 10.5124 9.34081 10.0094 9.6751 9.67513ZM12.6667 12.6668L16.2219 21.1991L17.2983 18.0281C17.4149 17.6846 17.6846 17.4149 18.028 17.2983L21.1991 16.2219L12.6667 12.6668Z" fill="url(#paint0_linear_470_20565)"/>
<defs>
<linearGradient id="paint0_linear_470_20565" x1="22.5209" y1="-1.36526" x2="-6.36265" y2="22.4429" gradientUnits="userSpaceOnUse">
<stop stop-color="#00A876"/>
<stop offset="1" stop-color="#75FFD6"/>
</linearGradient>
</defs>
</svg>
