<svg width="28" height="28" viewBox="0 0 28 28" fill="none" xmlns="http://www.w3.org/2000/svg">
<path fill-rule="evenodd" clip-rule="evenodd" d="M8.42831 3.80912C8.57834 3.65909 8.78183 3.5748 8.994 3.5748H19.0178C19.23 3.5748 19.4335 3.65909 19.5835 3.80912L22.7748 7.00041H5.23702L8.42831 3.80912ZM1.1667 8.28043C1.13773 7.94016 1.25344 7.58988 1.51383 7.3295L6.73126 2.11206C7.33137 1.51195 8.14531 1.1748 8.994 1.1748H19.0178C19.8665 1.1748 20.6805 1.51195 21.2806 2.11206L26.4354 7.26688C26.4892 7.32065 26.5368 7.37826 26.5782 7.43882C26.7379 7.63842 26.8334 7.8916 26.8334 8.16708V11.6671C26.8334 12.5953 26.4646 13.4856 25.8082 14.142C25.4356 14.5146 24.9876 14.7945 24.5 14.9669V23.3337C24.5 24.262 24.1313 25.1522 23.4749 25.8086C22.8185 26.465 21.9283 26.8337 21 26.8337H17.5068L17.5 26.8337L17.4933 26.8337H10.5068L10.5 26.8337L10.4933 26.8337H7.00004C6.07178 26.8337 5.18154 26.465 4.52517 25.8086C3.86879 25.1522 3.50004 24.262 3.50004 23.3337V14.9669C3.01249 14.7945 2.56447 14.5146 2.19183 14.142C1.53545 13.4856 1.1667 12.5953 1.1667 11.6671L1.1667 8.28043ZM3.50004 11.6671V9.33375H24.5V11.6671C24.5 11.9765 24.3771 12.2732 24.1583 12.492C23.9467 12.7037 23.6621 12.8256 23.3636 12.8334C22.9468 12.8033 22.5497 12.6422 22.2295 12.3727C22.2076 12.3543 22.185 12.3366 22.1617 12.3198C21.8236 12.0755 21.4171 11.944 21 11.944C20.5829 11.944 20.1764 12.0755 19.8384 12.3198C19.8151 12.3366 19.7925 12.3543 19.7705 12.3727C19.4581 12.6357 19.0725 12.7954 18.6667 12.8309C18.2609 12.7954 17.8753 12.6357 17.5629 12.3727C17.5409 12.3543 17.5183 12.3366 17.495 12.3198C17.157 12.0755 16.7505 11.944 16.3334 11.944C15.9163 11.944 15.5098 12.0755 15.1717 12.3198C15.1485 12.3366 15.1258 12.3543 15.1039 12.3727C14.7914 12.6357 14.4058 12.7954 14 12.8309C13.5943 12.7954 13.2087 12.6357 12.8962 12.3727C12.8742 12.3543 12.8516 12.3366 12.8284 12.3198C12.4903 12.0755 12.0838 11.944 11.6667 11.944C11.2496 11.944 10.8431 12.0755 10.505 12.3198C10.4818 12.3366 10.4592 12.3543 10.4372 12.3727C10.1247 12.6357 9.73915 12.7954 9.33337 12.8309C8.92759 12.7954 8.542 12.6357 8.22952 12.3727C8.20758 12.3543 8.18495 12.3366 8.1617 12.3198C7.82363 12.0755 7.41715 11.944 7.00004 11.944C6.58293 11.944 6.17644 12.0755 5.83837 12.3198C5.81512 12.3366 5.7925 12.3543 5.77055 12.3727C5.45033 12.6422 5.05331 12.8033 4.63646 12.8334C4.338 12.8256 4.0534 12.7037 3.84175 12.492C3.62295 12.2732 3.50004 11.9765 3.50004 11.6671ZM5.83337 23.3337V14.9587C6.24849 14.8231 6.64211 14.6249 7.00004 14.3696C7.66387 14.8431 8.45043 15.1203 9.26925 15.1653C9.31197 15.1677 9.35478 15.1677 9.39749 15.1653C10.2163 15.1203 11.0029 14.8431 11.6667 14.3696C12.3305 14.8431 13.1171 15.1203 13.9359 15.1653C13.9786 15.1677 14.0214 15.1677 14.0642 15.1653C14.883 15.1203 15.6695 14.8431 16.3334 14.3696C16.9972 14.8431 17.7838 15.1203 18.6026 15.1653C18.6453 15.1677 18.6881 15.1677 18.7308 15.1653C19.5496 15.1203 20.3362 14.8431 21 14.3696C21.358 14.6249 21.7516 14.8231 22.1667 14.9587V23.3337C22.1667 23.6431 22.0438 23.9399 21.825 24.1587C21.6062 24.3775 21.3095 24.5004 21 24.5004H18.6667V21.0004C18.6667 20.0722 18.298 19.1819 17.6416 18.5255C16.9852 17.8692 16.095 17.5004 15.1667 17.5004H12.8334C11.9051 17.5004 11.0149 17.8692 10.3585 18.5255C9.70213 19.1819 9.33338 20.0722 9.33338 21.0004V24.5004H7.00004C6.69062 24.5004 6.39388 24.3775 6.17508 24.1587C5.95629 23.9399 5.83337 23.6431 5.83337 23.3337ZM16.3334 24.5004H11.6667V21.0004C11.6667 20.691 11.7896 20.3943 12.0084 20.1755C12.2272 19.9567 12.524 19.8337 12.8334 19.8337H15.1667C15.4761 19.8337 15.7729 19.9567 15.9917 20.1755C16.2105 20.3943 16.3334 20.691 16.3334 21.0004V24.5004Z" fill="url(#paint0_linear_470_20609)"/>
<defs>
<linearGradient id="paint0_linear_470_20609" x1="23.4994" y1="-1.80257" x2="-7.10076" y2="23.4312" gradientUnits="userSpaceOnUse">
<stop stop-color="#00A876"/>
<stop offset="1" stop-color="#75FFD6"/>
</linearGradient>
</defs>
</svg>
