<svg width="28" height="28" viewBox="0 0 28 28" fill="none" xmlns="http://www.w3.org/2000/svg">
<path fill-rule="evenodd" clip-rule="evenodd" d="M4.66671 5.83301C4.66671 5.19401 5.19437 4.66634 5.83337 4.66634H8.16671C8.81104 4.66634 9.33337 4.14401 9.33337 3.49967C9.33337 2.85534 8.81104 2.33301 8.16671 2.33301H5.83337C3.90571 2.33301 2.33337 3.90534 2.33337 5.83301V8.16634C2.33337 8.81067 2.85571 9.33301 3.50004 9.33301C4.14437 9.33301 4.66671 8.81067 4.66671 8.16634V5.83301ZM19.8334 2.33301C19.189 2.33301 18.6667 2.85534 18.6667 3.49967C18.6667 4.14401 19.189 4.66634 19.8334 4.66634H22.1667C22.8057 4.66634 23.3334 5.19401 23.3334 5.83301V8.16634C23.3334 8.81067 23.8557 9.33301 24.5 9.33301C25.1444 9.33301 25.6667 8.81067 25.6667 8.16634V5.83301C25.6667 3.90534 24.0944 2.33301 22.1667 2.33301H19.8334ZM24.5 18.6663C25.1444 18.6663 25.6667 19.1887 25.6667 19.833V22.1663C25.6667 24.094 24.0944 25.6663 22.1667 25.6663H19.8334C19.189 25.6663 18.6667 25.144 18.6667 24.4997C18.6667 23.8553 19.189 23.333 19.8334 23.333H22.1667C22.8057 23.333 23.3334 22.8053 23.3334 22.1663V19.833C23.3334 19.1887 23.8557 18.6663 24.5 18.6663ZM4.66671 19.833C4.66671 19.1887 4.14437 18.6663 3.50004 18.6663C2.85571 18.6663 2.33337 19.1887 2.33337 19.833V22.1663C2.33337 24.094 3.90571 25.6663 5.83337 25.6663H8.16671C8.81104 25.6663 9.33337 25.144 9.33337 24.4997C9.33337 23.8553 8.81104 23.333 8.16671 23.333H5.83337C5.19437 23.333 4.66671 22.8053 4.66671 22.1663V19.833ZM7.00004 9.33303C7.00004 8.04436 8.04471 6.99969 9.33337 6.99969H15.1667C16.4554 6.99969 17.5 8.04436 17.5 9.33303V12.833H18.6667C19.9554 12.833 21 13.8777 21 15.1663V18.6663C21 19.955 19.9554 20.9997 18.6667 20.9997H12.8334C11.5447 20.9997 10.5 19.955 10.5 18.6663V15.1664H9.33337C8.04471 15.1664 7.00004 14.1217 7.00004 12.833V9.33303ZM15.1667 12.833H12.8334C12.83 12.833 12.8267 12.833 12.8234 12.833H9.33337V9.33303H15.1667V12.833ZM12.8334 15.1664V18.6663H18.6667V15.1663H15.1765C15.1732 15.1664 15.17 15.1664 15.1667 15.1664H12.8334Z" fill="url(#paint0_linear_470_20601)"/>
<defs>
<linearGradient id="paint0_linear_470_20601" x1="22.6363" y1="-0.37451" x2="-5.18784" y2="22.5594" gradientUnits="userSpaceOnUse">
<stop stop-color="#00A876"/>
<stop offset="1" stop-color="#75FFD6"/>
</linearGradient>
</defs>
</svg>
