<svg width="28" height="28" viewBox="0 0 28 28" fill="none" xmlns="http://www.w3.org/2000/svg">
<path fill-rule="evenodd" clip-rule="evenodd" d="M5.83337 4.66634C5.18904 4.66634 4.66671 5.18868 4.66671 5.83301V7.19986C5.03795 7.0686 5.43211 6.99969 5.83337 6.99969H22.1667C22.568 6.99969 22.9621 7.0686 23.3334 7.19986V5.83301C23.3334 5.18868 22.811 4.66634 22.1667 4.66634H5.83337ZM5.00842 9.67474C4.78962 9.89353 4.66671 10.1903 4.66671 10.4997V11.6663H7.00004C8.16077 11.6663 9.41445 12.0859 10.2669 13.044L11.4722 14.03C11.5022 14.0546 11.5309 14.0806 11.5583 14.108C12.9694 15.5191 15.1474 15.5191 16.5584 14.108C16.5858 14.0806 16.6146 14.0546 16.6446 14.03L17.8865 13.0139C18.6554 12.2674 19.8521 11.6663 21.1167 11.6663H23.3334V10.4997C23.3334 10.1903 23.2105 9.89353 22.9917 9.67474C22.7729 9.45594 22.4761 9.33303 22.1667 9.33303H5.83337C5.52395 9.33303 5.22721 9.45594 5.00842 9.67474ZM23.3334 13.9997H21.1167C20.5395 13.9997 19.8916 14.308 19.4917 14.7079C19.4643 14.7354 19.4355 14.7614 19.4055 14.7859L18.1649 15.801C15.8552 18.0659 12.2616 18.0659 9.95189 15.801L8.71126 14.7859C8.65393 14.739 8.6012 14.6868 8.55378 14.6299C8.23988 14.2532 7.66941 13.9997 7.00004 13.9997H4.66671V22.1663C4.66671 22.8107 5.18904 23.333 5.83337 23.333H22.1667C22.811 23.333 23.3334 22.8107 23.3334 22.1663V13.9997ZM2.33337 12.833V22.1663C2.33337 24.0993 3.90038 25.6663 5.83337 25.6663H22.1667C24.0997 25.6663 25.6667 24.0993 25.6667 22.1663V12.833V10.4997V5.83301C25.6667 3.90001 24.0997 2.33301 22.1667 2.33301H5.83337C3.90038 2.33301 2.33337 3.90001 2.33337 5.83301V10.4997V12.833Z" fill="url(#paint0_linear_470_20570)"/>
<defs>
<linearGradient id="paint0_linear_470_20570" x1="22.6363" y1="-0.374512" x2="-5.18786" y2="22.5594" gradientUnits="userSpaceOnUse">
<stop stop-color="#00A876"/>
<stop offset="1" stop-color="#75FFD6"/>
</linearGradient>
</defs>
</svg>
